<svg xmlns="http://www.w3.org/2000/svg" viewBox="0 0 4096.000000 4096.000000">
  <g transform="translate(0.000000,4096.000000) scale(0.100000,-0.100000)" fill="#f4f5f7" stroke="none">
    <path d="M5720 36744 c-58 -7 -181 -20 -275 -29 -93 -9 -201 -25 -240 -35 -38
-11 -115 -24 -170 -29 -55 -6 -125 -19 -155 -29 -30 -11 -86 -24 -123 -31 -38
-7 -92 -20 -120 -31 -29 -11 -74 -24 -102 -30 -27 -6 -77 -22 -110 -34 -33
-13 -76 -27 -95 -30 -38 -7 -126 -43 -202 -82 -26 -13 -69 -29 -94 -34 -26 -6
-59 -19 -74 -30 -15 -11 -45 -23 -68 -28 -22 -5 -53 -19 -69 -30 -16 -11 -42
-24 -59 -28 -16 -3 -50 -19 -75 -35 -25 -16 -53 -29 -61 -29 -8 0 -26 -9 -40
-19 -13 -11 -49 -31 -79 -46 -30 -14 -81 -41 -114 -60 -33 -18 -79 -43 -101
-53 -23 -11 -45 -26 -49 -32 -4 -6 -26 -20 -49 -31 -49 -22 -213 -122 -242
-147 -6 -5 -28 -21 -50 -36 -21 -14 -59 -42 -84 -61 -25 -19 -56 -43 -70 -52
-81 -56 -432 -368 -579 -514 -99 -98 -200 -208 -248 -267 -21 -26 -41 -48 -45
-50 -11 -5 -153 -189 -213 -277 -19 -27 -48 -68 -64 -90 -17 -22 -39 -56 -51
-75 -11 -19 -38 -60 -60 -90 -22 -30 -47 -71 -56 -90 -9 -19 -27 -48 -40 -63
-13 -16 -24 -34 -24 -41 0 -7 -11 -28 -26 -47 -14 -19 -34 -52 -45 -74 -10
-22 -37 -69 -59 -105 -21 -36 -44 -81 -51 -100 -6 -19 -20 -47 -31 -62 -10
-15 -25 -44 -32 -65 -7 -21 -23 -54 -35 -73 -11 -19 -21 -42 -21 -50 0 -8 -13
-40 -30 -70 -16 -30 -29 -61 -30 -69 0 -8 -13 -44 -28 -80 -29 -67 -49 -119
-84 -226 -11 -33 -30 -85 -43 -115 -13 -30 -26 -77 -30 -105 -4 -27 -17 -76
-30 -110 -13 -33 -28 -93 -34 -133 -6 -40 -18 -86 -26 -102 -8 -16 -22 -80
-30 -143 -8 -63 -22 -134 -30 -158 -9 -24 -20 -93 -26 -154 -5 -60 -19 -180
-32 -265 l-22 -155 0 -11130 c0 -9096 2 -11147 13 -11225 17 -126 39 -315 47
-420 4 -46 14 -102 21 -123 7 -21 21 -90 29 -154 9 -64 25 -137 35 -162 10
-25 23 -79 29 -119 6 -41 18 -90 27 -110 8 -21 22 -67 30 -105 7 -37 22 -84
33 -105 10 -20 24 -61 30 -91 6 -30 20 -68 30 -85 10 -17 24 -53 30 -81 7 -27
19 -61 27 -73 9 -13 22 -46 30 -73 8 -28 26 -71 40 -96 13 -25 24 -52 24 -59
0 -8 16 -43 35 -80 19 -36 35 -71 35 -79 0 -7 7 -18 14 -25 8 -6 22 -33 31
-60 9 -27 23 -54 32 -61 8 -7 26 -36 39 -64 14 -27 40 -77 59 -110 18 -33 43
-78 55 -100 20 -38 64 -111 104 -171 76 -115 114 -171 131 -195 45 -62 148
-195 159 -204 6 -5 23 -26 38 -45 14 -19 43 -53 64 -75 20 -22 77 -85 125
-141 48 -56 150 -161 226 -234 146 -140 433 -391 487 -425 17 -11 58 -40 91
-65 105 -79 176 -126 399 -269 27 -17 55 -31 62 -31 7 0 25 -11 41 -24 15 -13
44 -31 63 -40 19 -8 64 -32 100 -52 36 -20 79 -43 95 -51 17 -7 42 -20 58 -28
39 -21 74 -39 137 -68 30 -14 89 -41 131 -61 41 -20 82 -36 90 -36 8 0 34 -11
59 -24 25 -13 60 -27 79 -31 19 -4 61 -20 95 -36 34 -16 71 -29 84 -29 13 0
54 -14 92 -30 38 -17 76 -30 85 -30 9 0 51 -11 92 -25 42 -14 108 -30 147 -35
39 -5 96 -18 126 -29 30 -11 118 -30 195 -41 77 -11 156 -24 175 -30 19 -6
100 -15 180 -20 80 -6 204 -18 275 -28 123 -16 958 -17 14850 -17 l14720 0
205 22 c113 12 248 25 300 29 52 3 123 14 158 25 34 10 102 23 150 29 48 6
122 22 165 35 43 14 90 25 104 25 14 0 64 13 112 29 47 16 104 32 126 36 21 4
55 15 75 24 19 10 57 23 84 30 27 7 65 20 85 30 20 10 59 24 86 30 28 7 64 21
80 31 17 10 50 24 75 30 25 7 56 20 70 30 14 9 43 23 65 30 22 7 51 21 65 30
14 9 43 23 65 30 22 7 47 18 55 25 8 7 40 24 71 38 31 14 59 29 63 35 3 6 23
16 44 23 20 6 48 20 61 31 14 10 43 28 65 39 37 18 65 34 165 94 18 11 49 32
68 48 20 15 41 27 48 27 6 0 43 24 82 54 38 29 80 59 93 66 12 6 49 33 82 58
33 26 70 54 81 62 12 8 47 35 77 60 30 25 71 58 91 72 131 97 534 491 684 669
172 204 304 382 390 527 11 19 32 50 48 69 15 20 27 41 27 48 0 7 9 23 20 37
10 14 32 49 47 79 16 30 34 63 41 74 7 11 17 31 23 45 6 14 26 52 45 85 19 33
43 80 54 105 37 80 66 143 98 210 18 36 35 79 38 95 4 17 15 44 24 60 10 17
26 59 35 95 9 36 23 75 30 86 8 12 21 49 29 82 9 33 25 79 36 103 11 24 20 54
20 66 0 13 13 64 29 115 16 51 34 123 40 160 6 36 18 83 27 103 8 20 19 76 25
123 6 48 19 119 29 157 11 39 24 122 30 185 12 144 26 268 42 390 11 77 13
2228 13 11220 0 10445 -1 11134 -17 11265 -10 77 -24 203 -33 280 -8 77 -22
165 -30 195 -9 30 -22 103 -30 162 -8 59 -22 124 -31 145 -8 21 -22 80 -30
131 -8 51 -21 110 -30 130 -8 20 -22 68 -30 107 -8 38 -21 80 -29 92 -9 12
-22 51 -30 85 -8 35 -26 85 -40 112 -14 27 -25 59 -25 70 0 12 -11 41 -24 66
-13 25 -29 65 -36 90 -7 25 -20 56 -30 70 -10 14 -21 41 -25 60 -4 19 -17 51
-30 71 -13 20 -28 52 -33 72 -6 20 -19 49 -30 64 -10 15 -25 45 -31 65 -7 21
-17 41 -23 44 -6 4 -21 30 -34 59 -12 29 -28 56 -33 59 -6 4 -19 26 -31 49
-11 23 -38 69 -59 102 -22 33 -46 71 -53 85 -7 14 -24 39 -38 56 -14 17 -33
44 -42 60 -40 66 -170 255 -221 321 -130 170 -309 377 -422 488 -139 138 -410
382 -544 490 -62 50 -126 102 -144 116 -18 14 -45 34 -62 43 -16 9 -50 32 -75
51 -25 19 -63 44 -85 56 -22 12 -48 29 -59 38 -19 16 -63 41 -153 85 -28 14
-54 30 -57 35 -4 6 -28 20 -54 31 -25 11 -53 27 -62 34 -8 7 -31 19 -50 26
-19 8 -50 25 -69 37 -19 13 -42 23 -52 23 -9 0 -30 11 -46 24 -16 13 -49 29
-73 36 -25 7 -56 20 -71 30 -14 10 -38 22 -55 26 -16 4 -53 20 -83 35 -30 16
-60 29 -67 29 -8 0 -43 14 -77 30 -35 17 -70 30 -78 30 -8 0 -41 14 -74 30
-33 16 -68 30 -78 30 -10 0 -46 11 -80 24 -34 13 -98 33 -142 44 -44 11 -107
27 -140 37 -177 49 -248 65 -330 74 -49 6 -127 20 -172 31 -45 11 -144 24
-220 30 -76 5 -165 15 -198 20 -33 5 -132 14 -219 20 -107 7 -4938 10 -14740
9 -11890 -1 -14600 -4 -14686 -15z m29693 -1457 c60 -9 112 -19 117 -22 5 -3
58 -12 118 -20 59 -8 137 -23 172 -34 36 -11 93 -25 128 -31 34 -6 83 -19 107
-30 24 -10 69 -23 99 -29 31 -6 66 -17 78 -25 13 -8 50 -22 82 -31 33 -10 80
-28 104 -41 25 -13 55 -24 66 -24 12 0 37 -11 56 -24 19 -12 53 -29 75 -36 22
-7 56 -24 75 -36 19 -13 42 -24 51 -24 9 0 33 -11 53 -25 21 -14 52 -32 69
-41 29 -14 52 -27 156 -89 18 -11 47 -30 65 -42 17 -12 45 -29 62 -37 17 -7
35 -19 39 -25 4 -7 24 -23 46 -37 22 -13 47 -31 57 -40 9 -8 36 -29 58 -47
197 -152 385 -322 527 -475 43 -46 136 -159 222 -269 16 -21 50 -67 74 -103
25 -36 47 -67 51 -70 15 -11 142 -219 247 -405 7 -11 18 -33 26 -50 8 -16 21
-43 30 -60 34 -65 76 -162 82 -190 4 -16 18 -48 30 -70 13 -22 27 -58 30 -80
4 -22 18 -60 30 -85 12 -25 26 -63 30 -85 4 -22 17 -65 30 -96 13 -31 27 -80
31 -110 4 -30 17 -82 30 -116 13 -34 26 -92 30 -130 3 -37 14 -99 25 -138 10
-38 24 -115 31 -170 9 -77 13 -2561 15 -11030 4 -10777 2 -11452 -27 -11590
-26 -125 -32 -160 -45 -256 -8 -59 -21 -124 -30 -145 -8 -22 -23 -79 -34 -129
-21 -97 -50 -190 -87 -271 -12 -29 -26 -69 -30 -90 -4 -20 -20 -62 -35 -92
-16 -30 -29 -61 -29 -69 0 -8 -11 -36 -25 -62 -13 -25 -34 -66 -45 -91 -34
-74 -71 -144 -85 -160 -7 -8 -16 -26 -20 -40 -4 -14 -20 -43 -35 -65 -50 -74
-90 -138 -90 -146 0 -5 -30 -52 -66 -106 -180 -265 -313 -419 -559 -648 -138
-127 -242 -217 -319 -275 -26 -19 -64 -48 -86 -65 -21 -16 -54 -40 -72 -53
-18 -12 -49 -34 -68 -47 -19 -13 -53 -34 -75 -46 -22 -12 -47 -28 -56 -36 -18
-16 -86 -53 -139 -78 -19 -8 -42 -20 -50 -25 -8 -6 -31 -17 -50 -26 -19 -9
-62 -29 -95 -44 -132 -63 -194 -90 -207 -90 -7 0 -40 -14 -73 -30 -33 -16 -71
-30 -85 -30 -14 0 -48 -11 -77 -24 -28 -13 -77 -29 -110 -36 -32 -6 -87 -22
-123 -35 -36 -12 -92 -25 -125 -29 -33 -4 -89 -16 -125 -27 -62 -18 -134 -27
-510 -64 -138 -14 -1757 -15 -14615 -12 -13312 2 -14466 4 -14540 19 -44 9
-136 22 -205 28 -69 7 -142 19 -163 26 -21 8 -79 21 -128 29 -50 9 -112 24
-138 35 -27 10 -76 24 -110 30 -33 6 -85 22 -113 35 -29 14 -61 25 -71 25 -10
0 -49 14 -87 30 -38 17 -77 30 -87 30 -10 0 -47 14 -83 31 -36 17 -92 43 -125
59 -101 46 -128 60 -180 89 -27 16 -70 39 -95 53 -61 34 -208 131 -246 162
-18 14 -36 26 -41 26 -6 0 -28 13 -49 30 -22 16 -59 44 -83 62 -86 64 -258
213 -360 312 -101 99 -278 299 -396 450 -33 42 -75 95 -92 117 -18 23 -33 45
-33 51 0 6 -10 23 -22 38 -50 63 -88 117 -88 127 0 5 -13 27 -30 49 -16 21
-30 44 -30 49 0 6 -12 28 -27 50 -38 55 -163 306 -163 326 0 9 -9 27 -19 41
-11 13 -24 44 -31 68 -6 25 -20 60 -31 78 -11 19 -24 55 -29 80 -6 26 -21 72
-35 102 -13 30 -28 83 -34 117 -5 34 -17 76 -26 94 -10 18 -21 64 -26 103 -5
39 -20 114 -33 166 -14 55 -29 156 -36 240 -6 80 -19 199 -28 265 -15 110 -16
1029 -19 10900 -3 7151 0 10873 6 11055 6 151 15 293 20 315 5 22 17 104 26
183 8 79 22 160 31 180 8 20 21 78 29 129 8 50 21 105 29 122 9 17 23 62 31
101 8 39 22 85 31 103 9 17 23 58 31 91 7 33 22 73 32 90 10 17 23 52 30 78 6
26 20 62 30 80 10 18 24 51 31 73 7 22 21 51 30 65 10 14 21 36 25 50 13 41
127 249 159 292 12 14 32 45 46 68 74 124 230 341 343 475 96 114 323 342 374
376 13 9 49 39 81 67 73 66 190 163 222 184 14 10 59 40 100 67 74 49 102 68
170 116 19 14 53 34 75 46 22 11 67 36 100 55 33 19 85 46 115 60 30 14 62 32
70 39 8 7 26 16 40 20 14 3 52 19 85 35 90 42 163 70 231 90 33 10 78 27 100
37 21 11 59 23 82 27 24 4 60 15 80 25 21 10 73 24 117 31 44 7 92 18 108 26
15 8 73 21 130 30 56 8 149 25 207 36 58 12 161 24 230 28 69 4 6655 6 14635
6 13602 -2 14517 -3 14618 -19z"/>
    <path d="M13365 28659 c-122 -5 -227 -14 -292 -27 -56 -12 -135 -24 -175 -27
-40 -3 -127 -19 -193 -35 -66 -15 -145 -32 -175 -38 -62 -10 -186 -43 -275
-73 -33 -11 -91 -27 -129 -35 -39 -8 -80 -21 -92 -29 -12 -7 -50 -21 -85 -30
-35 -9 -77 -25 -94 -35 -16 -10 -52 -21 -80 -25 -27 -4 -64 -15 -81 -26 -18
-11 -58 -28 -89 -39 -32 -11 -63 -24 -70 -30 -6 -5 -31 -16 -54 -25 -23 -8
-54 -23 -69 -33 -15 -11 -42 -24 -60 -30 -18 -6 -45 -20 -60 -30 -15 -11 -44
-25 -64 -31 -20 -7 -42 -18 -48 -26 -7 -8 -35 -26 -63 -40 -29 -14 -68 -36
-88 -48 -90 -55 -153 -96 -231 -150 -45 -32 -99 -69 -118 -82 -76 -52 -312
-245 -360 -294 -14 -14 -62 -60 -105 -102 -154 -146 -293 -298 -420 -459 -54
-69 -83 -109 -162 -227 -29 -43 -58 -84 -65 -92 -16 -19 -61 -94 -87 -146 -11
-22 -31 -55 -45 -74 -15 -19 -26 -40 -26 -47 0 -6 -9 -23 -20 -37 -11 -14 -27
-44 -35 -67 -8 -23 -23 -52 -34 -66 -11 -14 -23 -39 -26 -55 -4 -17 -20 -56
-36 -86 -16 -30 -29 -62 -29 -71 0 -8 -11 -34 -24 -56 -13 -23 -27 -57 -31
-76 -4 -19 -18 -55 -30 -80 -12 -25 -26 -63 -29 -84 -4 -22 -18 -60 -30 -85
-13 -26 -26 -64 -29 -87 -4 -22 -16 -62 -27 -87 -12 -26 -27 -84 -35 -129 -8
-45 -21 -103 -30 -128 -8 -25 -21 -85 -29 -135 -8 -49 -24 -133 -34 -185 -11
-52 -25 -180 -32 -285 -13 -228 -4 -348 33 -421 13 -27 28 -60 32 -74 14 -44
82 -134 147 -192 59 -54 185 -138 206 -138 5 0 45 -12 88 -27 72 -24 93 -26
244 -27 136 -1 171 2 200 16 19 9 58 25 85 36 90 34 193 110 271 200 30 35 54
69 54 76 0 8 9 25 20 39 11 14 34 67 51 119 21 66 35 134 45 232 7 76 22 171
33 210 10 39 22 98 25 132 3 33 14 82 25 107 11 26 25 75 31 109 7 35 22 88
35 118 12 30 26 73 29 95 4 22 16 55 26 72 11 18 26 55 34 82 8 27 23 67 34
88 11 21 39 75 61 120 23 46 52 99 66 119 14 20 25 42 25 49 0 7 7 19 16 26 9
8 25 32 36 54 20 43 46 84 93 145 17 22 44 58 60 80 74 100 190 233 285 325
57 55 113 107 126 115 12 9 40 31 61 50 21 19 65 55 98 79 33 25 80 60 104 78
24 18 50 33 56 33 7 0 19 7 26 17 8 9 33 24 55 35 23 10 47 24 53 32 7 8 29
20 49 27 20 6 48 19 62 29 14 9 41 23 60 30 19 8 45 22 58 31 13 10 40 23 60
30 20 6 48 20 62 29 14 9 43 23 65 30 22 7 54 20 70 30 17 10 58 25 93 34 34
9 72 22 85 31 13 8 47 19 77 25 30 6 81 21 115 34 33 14 94 28 135 32 41 3 98
15 125 26 28 10 111 25 185 33 74 8 169 20 210 25 41 6 163 14 270 19 187 9
363 3 540 -18 41 -5 142 -17 224 -26 82 -9 165 -23 185 -31 20 -9 77 -22 128
-29 51 -8 109 -22 130 -30 21 -9 68 -23 106 -31 37 -7 77 -20 90 -28 12 -9 50
-22 85 -30 35 -8 75 -22 88 -31 14 -9 49 -23 77 -32 29 -8 63 -23 77 -33 14
-10 44 -23 67 -29 23 -6 45 -16 48 -22 4 -5 32 -21 63 -35 31 -14 63 -31 72
-38 8 -7 31 -19 51 -25 20 -7 45 -21 54 -31 10 -11 23 -20 29 -20 14 0 110
-59 152 -93 17 -14 42 -31 57 -38 15 -7 27 -16 27 -20 0 -4 13 -15 29 -26 63
-39 278 -243 363 -343 49 -58 98 -115 109 -127 11 -12 40 -53 64 -90 24 -38
51 -76 60 -86 9 -10 25 -37 36 -60 18 -38 66 -129 96 -182 28 -49 83 -173 83
-186 0 -8 9 -29 20 -47 11 -18 25 -57 31 -85 7 -29 20 -68 29 -88 10 -19 23
-63 29 -96 7 -34 22 -92 35 -129 13 -38 27 -105 31 -149 4 -44 17 -116 28
-160 21 -75 22 -103 22 -455 0 -349 -2 -382 -22 -480 -12 -58 -25 -139 -29
-180 -3 -41 -15 -100 -25 -130 -11 -30 -26 -92 -35 -138 -8 -46 -22 -100 -31
-120 -9 -20 -24 -66 -33 -102 -18 -65 -61 -177 -82 -215 -7 -11 -18 -33 -25
-50 -8 -16 -20 -41 -28 -55 -8 -14 -25 -48 -39 -76 -13 -28 -29 -55 -35 -58
-6 -4 -20 -24 -32 -44 -37 -68 -73 -116 -183 -246 -81 -95 -324 -342 -365
-371 -16 -11 -51 -38 -78 -60 -110 -88 -269 -192 -353 -230 -19 -8 -46 -22
-60 -31 -14 -8 -41 -22 -60 -30 -37 -16 -133 -60 -215 -100 -27 -13 -66 -28
-85 -33 -19 -5 -62 -21 -95 -35 -33 -14 -69 -26 -80 -26 -11 0 -38 -9 -59 -21
-21 -11 -63 -24 -94 -30 -32 -5 -88 -21 -127 -34 -38 -13 -102 -29 -141 -34
-39 -6 -87 -17 -106 -25 -19 -8 -88 -22 -154 -31 -65 -9 -125 -20 -134 -25
-56 -28 -256 -40 -860 -50 -511 -8 -588 -12 -689 -30 -64 -12 -125 -29 -140
-39 -14 -10 -42 -24 -63 -30 -50 -17 -184 -118 -236 -180 -54 -64 -118 -175
-127 -221 -3 -19 -15 -62 -26 -94 -16 -47 -20 -87 -20 -186 0 -101 3 -138 20
-184 11 -31 23 -77 27 -102 3 -24 14 -54 24 -67 9 -12 27 -40 38 -63 25 -50
148 -174 205 -208 248 -145 196 -138 982 -135 423 2 647 -1 705 -9 47 -6 159
-16 250 -22 93 -6 200 -20 245 -31 44 -11 127 -24 185 -30 58 -6 130 -19 161
-29 31 -11 92 -27 135 -36 43 -8 95 -22 114 -31 19 -8 64 -20 100 -28 36 -8
83 -23 105 -35 21 -11 49 -20 60 -20 12 0 44 -11 71 -25 27 -14 67 -30 89 -36
38 -10 109 -41 220 -95 28 -13 66 -31 85 -40 19 -8 62 -31 95 -49 33 -19 80
-44 105 -56 25 -12 57 -31 71 -43 15 -12 39 -29 55 -38 51 -31 67 -42 164
-113 103 -75 196 -151 247 -199 159 -154 154 -149 284 -326 80 -109 150 -219
194 -305 14 -27 32 -61 39 -75 30 -52 86 -177 86 -191 0 -8 11 -34 24 -59 13
-25 27 -63 31 -85 4 -22 17 -65 30 -95 12 -30 28 -85 34 -121 6 -37 20 -87 30
-110 10 -24 22 -80 26 -124 4 -44 15 -113 26 -153 10 -41 24 -144 30 -230 15
-202 5 -799 -15 -927 -8 -49 -24 -151 -36 -225 -11 -74 -29 -162 -40 -195 -11
-33 -24 -88 -29 -121 -5 -34 -19 -80 -29 -101 -11 -21 -24 -57 -28 -78 -4 -22
-20 -67 -36 -100 -15 -33 -28 -66 -28 -74 0 -7 -9 -28 -20 -46 -11 -18 -27
-51 -35 -74 -8 -23 -23 -54 -33 -69 -11 -15 -23 -38 -27 -52 -4 -14 -18 -41
-30 -60 -12 -19 -39 -64 -60 -100 -43 -73 -110 -175 -155 -235 -16 -22 -37
-51 -47 -65 -63 -89 -333 -371 -413 -431 -19 -14 -49 -40 -67 -56 -17 -17 -42
-37 -55 -46 -13 -8 -48 -34 -78 -56 -109 -80 -170 -121 -178 -121 -4 0 -24
-11 -43 -26 -19 -14 -52 -34 -74 -45 -22 -10 -51 -26 -65 -34 -14 -8 -41 -22
-60 -30 -19 -9 -68 -33 -109 -55 -41 -22 -96 -47 -122 -54 -26 -8 -59 -22 -73
-31 -14 -9 -44 -21 -67 -26 -23 -6 -66 -21 -94 -34 -29 -13 -70 -27 -91 -31
-22 -4 -66 -17 -99 -30 -33 -12 -83 -25 -110 -29 -28 -5 -77 -18 -110 -30 -33
-12 -91 -26 -128 -30 -38 -4 -99 -15 -135 -26 -37 -10 -134 -26 -217 -34 -494
-51 -598 -54 -850 -30 -82 8 -208 20 -280 26 -71 6 -161 17 -200 25 -38 8
-113 21 -165 30 -52 8 -133 26 -180 39 -47 13 -111 29 -142 34 -32 6 -70 17
-86 25 -15 8 -57 22 -92 31 -35 9 -80 25 -99 35 -20 9 -52 21 -71 25 -19 4
-52 17 -72 31 -20 13 -49 26 -65 30 -15 4 -52 20 -82 35 -30 16 -59 29 -65 29
-7 0 -27 11 -45 24 -19 14 -46 28 -62 31 -15 4 -33 13 -41 22 -7 9 -32 24 -57
35 -24 10 -57 30 -73 43 -16 14 -33 25 -38 25 -4 0 -34 18 -66 41 -59 40 -100
68 -162 111 -62 42 -266 219 -361 311 -79 77 -146 154 -332 376 -11 13 -29 41
-40 62 -11 22 -23 39 -27 39 -5 0 -18 17 -30 39 -12 21 -28 44 -36 50 -8 7
-18 25 -21 41 -3 16 -13 35 -22 42 -9 7 -26 36 -39 63 -12 28 -29 57 -37 64
-9 7 -19 27 -22 44 -4 18 -17 48 -30 68 -13 20 -28 54 -34 75 -6 22 -17 49
-26 61 -8 11 -21 46 -29 76 -8 30 -23 72 -34 93 -11 22 -25 63 -31 92 -6 29
-20 72 -30 95 -10 23 -24 74 -30 113 -6 39 -18 90 -26 115 -9 24 -23 91 -31
149 -8 58 -23 143 -34 190 -10 47 -21 111 -24 143 -4 36 -18 79 -36 114 -17
31 -30 61 -30 68 0 6 -9 20 -21 31 -12 10 -29 35 -40 55 -23 46 -142 156 -189
176 -19 7 -55 25 -80 37 -25 13 -67 29 -95 35 -27 6 -75 18 -105 26 -30 8 -92
15 -139 15 -63 0 -114 -8 -200 -31 -64 -17 -127 -39 -141 -49 -14 -9 -36 -21
-50 -25 -24 -8 -64 -37 -142 -104 -44 -39 -123 -139 -141 -179 -6 -15 -21 -43
-33 -62 -46 -73 -66 -291 -44 -475 5 -44 14 -135 20 -202 6 -67 19 -150 29
-186 10 -35 22 -88 26 -118 4 -30 16 -76 26 -104 10 -27 25 -83 34 -124 8 -41
24 -93 34 -116 10 -24 22 -62 26 -86 4 -24 18 -64 30 -89 12 -25 26 -63 30
-85 3 -22 17 -58 30 -80 13 -22 26 -56 30 -75 4 -19 17 -53 30 -75 12 -22 26
-56 30 -75 4 -19 17 -51 30 -70 13 -19 26 -46 30 -60 4 -14 16 -37 27 -52 10
-15 24 -42 30 -60 6 -18 19 -42 29 -53 10 -11 27 -41 37 -66 11 -26 25 -50 31
-54 6 -3 18 -21 25 -39 19 -47 142 -236 209 -324 16 -20 51 -68 79 -107 48
-68 122 -157 164 -199 11 -12 51 -57 89 -101 127 -150 411 -423 560 -540 21
-16 52 -41 69 -55 17 -14 44 -35 60 -45 15 -11 47 -33 71 -50 23 -16 75 -52
116 -79 41 -27 85 -57 99 -67 14 -11 44 -28 66 -38 23 -11 45 -25 49 -31 4 -6
26 -21 49 -32 22 -10 68 -34 101 -53 86 -48 260 -135 269 -135 4 0 20 -9 35
-19 15 -11 40 -23 57 -27 16 -4 47 -16 69 -27 22 -11 69 -31 105 -45 159 -59
259 -95 316 -112 33 -10 74 -25 90 -33 16 -8 56 -20 89 -27 33 -6 79 -20 103
-31 24 -10 60 -21 80 -24 20 -4 84 -19 142 -35 58 -16 132 -31 165 -35 32 -4
87 -16 121 -26 34 -10 108 -24 165 -29 57 -6 157 -19 221 -30 65 -11 209 -25
320 -31 408 -22 1062 -8 1239 26 41 7 139 21 219 30 79 8 172 24 206 35 34 10
99 24 144 30 46 6 103 19 129 29 25 10 76 23 112 30 36 6 81 19 99 28 18 9 63
22 99 30 36 7 89 22 116 32 28 11 79 29 115 41 127 42 203 70 214 79 6 4 36
16 66 26 30 10 66 26 80 35 14 10 36 21 50 25 27 8 294 139 375 184 59 33 156
86 204 112 18 10 41 24 50 32 9 8 34 24 56 36 22 12 60 37 85 56 25 19 63 47
85 61 115 77 411 332 585 505 176 174 387 418 463 534 64 97 127 192 144 215
31 42 103 164 103 174 0 6 9 19 19 30 21 22 211 392 211 410 0 6 14 38 30 71
16 33 30 67 30 76 0 9 11 37 25 63 14 26 30 68 37 94 6 26 22 70 35 97 12 28
23 58 23 69 0 10 13 57 29 105 16 47 32 106 36 130 4 24 17 74 30 110 12 36
26 104 29 151 4 47 16 117 26 155 11 39 28 162 39 275 11 113 26 248 32 300
13 116 6 688 -9 740 -6 19 -18 125 -26 235 -9 110 -23 225 -31 255 -8 30 -22
103 -30 162 -8 59 -21 124 -30 145 -9 20 -23 78 -31 127 -9 50 -24 106 -34
126 -10 19 -21 55 -25 80 -4 25 -17 65 -30 90 -12 25 -27 69 -34 98 -6 29 -19
69 -30 90 -10 20 -22 53 -26 72 -4 19 -21 59 -36 89 -16 30 -29 61 -29 70 0 9
-10 32 -22 51 -11 19 -43 78 -70 130 -27 52 -55 102 -63 110 -7 8 -16 26 -20
40 -4 14 -15 34 -25 45 -10 11 -25 36 -35 55 -10 19 -25 43 -33 53 -9 10 -25
33 -37 52 -60 98 -94 143 -268 353 -100 121 -344 372 -397 408 -19 13 -55 40
-80 59 -25 19 -61 46 -80 60 -19 14 -53 39 -75 56 -64 47 -146 103 -179 120
-17 9 -40 26 -50 38 -11 12 -25 21 -32 21 -7 0 -25 11 -41 24 -26 21 -47 34
-152 92 -21 11 -52 30 -68 42 -17 12 -38 22 -46 22 -7 0 -34 13 -58 30 -24 16
-51 30 -60 30 -9 0 -41 14 -72 30 -31 17 -62 30 -69 30 -8 0 -40 13 -73 29
-33 16 -76 32 -95 36 -19 4 -57 19 -85 33 -31 15 -74 27 -113 30 -34 3 -65 9
-68 13 -12 21 20 49 74 65 31 10 71 27 87 39 17 12 47 27 67 34 21 7 41 17 44
23 4 6 30 21 58 35 54 26 119 63 177 100 18 13 39 23 45 23 6 0 17 7 25 16 7
8 30 24 52 35 21 11 71 45 110 74 40 30 89 66 110 82 21 15 57 44 81 63 23 19
60 49 80 65 118 94 332 305 457 450 47 55 94 112 105 126 10 15 46 62 79 105
33 44 63 84 67 89 33 43 121 186 158 258 90 171 170 333 170 342 0 6 13 37 29
70 29 62 65 147 83 200 6 17 24 65 39 107 16 42 29 87 29 100 0 13 12 50 25
83 14 33 32 99 40 147 9 47 22 102 30 121 8 19 19 86 25 148 6 63 20 153 30
200 52 234 52 1023 0 1284 -11 55 -24 138 -30 185 -5 47 -21 127 -35 178 -14
51 -25 104 -25 118 0 13 -10 50 -21 82 -12 31 -27 82 -34 113 -7 31 -24 86
-39 122 -14 36 -26 74 -26 84 0 10 -14 45 -30 78 -16 33 -30 68 -30 78 0 9
-13 43 -30 74 -16 31 -30 64 -30 73 0 9 -11 33 -24 52 -13 20 -29 53 -36 74
-7 22 -23 51 -36 66 -12 15 -25 41 -29 57 -3 16 -13 35 -21 42 -8 6 -23 30
-34 53 -29 57 -71 127 -97 161 -13 15 -23 33 -23 40 0 7 -12 28 -27 48 -16 19
-36 48 -45 64 -45 72 -112 167 -164 233 -60 75 -262 290 -353 376 -85 79 -336
295 -377 324 -12 8 -48 35 -80 60 -55 42 -104 75 -185 125 -18 11 -55 35 -83
52 -28 18 -69 42 -91 53 -22 11 -71 38 -110 60 -38 22 -86 47 -105 56 -19 8
-46 21 -60 30 -14 8 -41 22 -60 30 -19 8 -56 25 -81 39 -26 14 -54 25 -62 25
-8 0 -39 14 -70 30 -31 17 -65 30 -74 30 -10 0 -42 11 -72 25 -29 14 -82 32
-117 40 -36 8 -81 23 -102 34 -20 10 -57 22 -82 26 -25 4 -70 17 -100 30 -30
13 -80 26 -110 30 -30 4 -75 15 -98 26 -24 10 -81 23 -126 29 -45 5 -114 19
-154 30 -40 11 -135 27 -210 35 -75 8 -175 21 -222 30 -172 30 -691 41 -1125
24z"/>
    <path d="M22284 28376 c-76 -14 -132 -30 -150 -43 -16 -11 -40 -24 -54 -28
-48 -14 -160 -96 -215 -158 -64 -74 -120 -162 -145 -232 -10 -27 -25 -68 -33
-90 -8 -22 -20 -112 -26 -200 -9 -120 -11 -2058 -8 -7675 3 -4456 8 -7552 14
-7606 5 -57 15 -101 27 -118 9 -15 24 -46 32 -68 20 -58 72 -132 146 -209 56
-58 151 -129 173 -129 5 0 36 -13 69 -29 34 -17 90 -35 126 -40 43 -7 663 -11
1865 -11 1404 0 1881 3 2170 15 204 8 393 19 421 24 79 15 278 40 379 46 50 4
110 13 135 20 25 8 99 21 165 30 66 9 149 24 185 35 36 10 100 24 143 30 43 6
94 18 114 26 20 9 70 21 112 29 42 7 99 22 126 33 28 11 70 23 95 27 25 4 72
18 105 31 34 13 84 28 111 33 28 6 66 19 85 29 19 11 58 25 87 31 29 6 74 22
100 36 26 14 55 25 65 25 9 0 43 14 74 30 31 16 62 30 70 30 7 0 39 14 70 30
31 16 63 30 72 30 9 0 33 11 53 25 20 14 41 25 45 25 8 0 167 75 193 91 8 5
35 19 60 31 25 11 58 31 73 44 16 13 34 24 41 24 7 0 28 12 47 26 19 14 48 32
64 40 29 14 105 60 161 98 16 11 60 40 98 65 37 25 87 60 111 76 23 17 56 39
71 50 16 11 55 40 87 65 33 25 69 52 80 60 80 54 386 331 548 496 118 120 293
312 366 401 17 21 50 60 73 87 23 27 61 74 83 104 23 30 54 71 69 91 42 55 73
99 127 181 28 41 59 89 71 105 45 66 100 153 100 159 0 3 14 25 30 48 17 22
30 45 30 51 0 5 11 22 25 39 14 16 25 35 25 42 0 8 9 24 20 38 18 23 64 105
97 173 8 17 21 41 29 55 24 41 91 185 103 223 7 20 18 41 26 47 8 6 22 35 31
63 9 29 23 61 30 73 8 11 22 45 33 76 11 31 26 67 34 80 8 12 18 39 22 58 4
19 17 53 30 75 12 22 27 62 34 88 6 27 18 59 26 70 7 12 21 51 30 87 9 35 23
77 31 92 8 15 21 56 29 91 8 35 23 84 34 108 11 24 25 73 31 109 6 35 18 77
26 92 8 15 21 64 29 107 9 44 22 95 30 114 7 18 20 72 29 119 8 47 21 101 30
121 8 20 22 87 31 149 8 62 24 140 34 173 10 33 21 98 25 145 4 47 16 117 26
155 11 39 24 113 30 165 16 137 40 302 46 311 3 5 11 84 19 176 8 93 21 204
30 248 8 44 20 172 25 285 6 113 17 288 25 390 24 321 26 375 26 830 0 343 -4
514 -20 745 -11 165 -23 352 -26 415 -8 153 -23 316 -40 420 -7 47 -16 132
-20 190 -4 58 -15 141 -25 185 -11 44 -24 132 -31 195 -6 63 -21 160 -34 215
-13 55 -28 141 -34 191 -5 50 -16 108 -25 128 -8 19 -22 89 -31 153 -9 65 -24
145 -35 178 -10 34 -21 88 -25 120 -4 33 -19 93 -32 134 -13 41 -27 95 -30
120 -3 25 -14 62 -24 82 -10 20 -23 67 -30 105 -6 38 -20 86 -30 106 -11 21
-26 69 -34 108 -8 39 -22 84 -30 100 -8 16 -21 57 -29 90 -8 34 -21 72 -30 84
-8 13 -22 52 -31 87 -9 35 -25 78 -35 94 -10 17 -21 46 -25 65 -4 19 -15 49
-25 66 -9 17 -23 48 -30 70 -7 21 -23 59 -35 84 -49 98 -75 157 -90 200 -9 24
-22 51 -30 60 -8 9 -21 36 -30 60 -8 24 -21 50 -28 58 -12 15 -47 79 -91 169
-14 28 -30 54 -35 57 -6 4 -20 26 -31 49 -23 49 -76 142 -104 183 -74 110
-114 170 -131 198 -11 18 -30 45 -42 60 -13 16 -23 34 -23 41 0 7 -7 18 -15
25 -9 7 -41 50 -71 94 -77 112 -95 136 -208 275 -208 258 -679 727 -881 877
-27 20 -67 51 -87 68 -80 67 -106 86 -114 86 -5 0 -28 15 -51 33 -79 60 -157
113 -258 172 -44 27 -91 55 -104 64 -50 33 -117 72 -157 90 -23 11 -45 24 -48
30 -4 5 -30 21 -59 35 -28 15 -64 33 -79 41 -16 8 -40 22 -55 30 -16 8 -48 24
-73 35 -44 20 -54 25 -95 48 -79 43 -303 139 -344 147 -19 4 -54 18 -79 31
-25 13 -54 24 -66 24 -12 0 -47 13 -79 29 -32 16 -79 32 -105 36 -26 4 -63 16
-84 26 -21 11 -68 26 -105 33 -38 8 -84 22 -104 30 -19 8 -67 20 -105 27 -38
6 -96 22 -129 34 -33 13 -87 26 -120 30 -33 4 -85 16 -115 26 -30 10 -96 23
-147 29 -50 5 -129 19 -175 29 -46 11 -144 27 -218 35 -74 9 -166 22 -205 30
-38 8 -166 20 -284 26 -118 6 -255 16 -305 22 -61 7 -716 11 -1991 14 l-1900
3 -121 -23z m3721 -1536 c248 -6 509 -17 580 -25 214 -23 419 -52 481 -69 33
-9 111 -23 176 -31 64 -9 140 -24 170 -34 29 -10 84 -23 121 -30 38 -6 89 -20
115 -30 26 -10 67 -22 92 -26 25 -4 62 -16 84 -26 21 -10 63 -25 95 -34 31 -9
65 -23 77 -30 12 -8 48 -21 80 -31 32 -9 71 -25 85 -35 14 -10 38 -21 55 -25
16 -3 49 -17 74 -30 25 -12 89 -44 143 -71 96 -48 157 -81 257 -138 28 -16 68
-39 89 -50 20 -12 53 -32 72 -46 38 -27 61 -42 103 -67 16 -9 43 -28 60 -42
17 -14 45 -34 61 -44 35 -22 158 -122 363 -296 197 -167 420 -399 552 -574 19
-26 44 -57 56 -69 11 -12 42 -55 70 -96 87 -130 139 -209 156 -238 10 -15 31
-48 48 -73 47 -72 137 -230 170 -299 11 -24 29 -55 39 -70 10 -14 23 -41 29
-59 6 -18 20 -45 31 -60 10 -15 24 -46 30 -68 6 -23 18 -47 26 -54 7 -6 19
-28 25 -48 6 -20 22 -59 35 -87 60 -126 84 -182 91 -210 4 -16 17 -50 29 -75
12 -25 26 -61 30 -80 4 -19 18 -61 31 -92 13 -32 29 -81 35 -110 7 -29 20 -68
30 -88 10 -19 23 -66 29 -105 6 -38 20 -90 31 -114 11 -25 24 -74 29 -110 5
-37 18 -88 28 -116 11 -27 25 -93 31 -145 7 -52 21 -123 31 -157 11 -35 24
-111 30 -170 6 -60 18 -133 26 -163 8 -30 21 -130 29 -221 8 -91 21 -205 29
-252 15 -86 27 -257 46 -657 6 -118 15 -285 21 -370 12 -172 6 -794 -11 -1155
-28 -583 -42 -801 -55 -877 -8 -46 -20 -146 -25 -223 -5 -77 -21 -203 -35
-280 -13 -77 -29 -178 -35 -225 -5 -47 -17 -112 -26 -145 -8 -33 -20 -98 -26
-145 -5 -47 -21 -119 -33 -160 -13 -41 -27 -97 -30 -125 -4 -27 -16 -70 -27
-95 -10 -25 -26 -75 -34 -113 -7 -37 -22 -84 -33 -105 -10 -20 -22 -55 -25
-77 -4 -21 -16 -56 -27 -77 -10 -20 -24 -61 -30 -90 -6 -29 -18 -63 -26 -76
-8 -13 -25 -53 -37 -90 -26 -74 -57 -152 -91 -227 -13 -27 -37 -79 -53 -115
-17 -36 -35 -80 -41 -98 -6 -18 -19 -46 -31 -61 -11 -16 -20 -34 -20 -40 0 -6
-35 -74 -77 -151 -43 -77 -87 -157 -98 -179 -11 -21 -27 -47 -36 -57 -8 -11
-35 -53 -59 -94 -24 -41 -53 -86 -63 -100 -10 -14 -37 -54 -60 -90 -60 -93
-85 -126 -237 -304 -238 -281 -400 -440 -720 -709 -36 -30 -83 -66 -105 -81
-22 -14 -54 -36 -72 -48 -17 -13 -64 -45 -105 -72 -40 -27 -84 -57 -98 -67
-14 -10 -43 -28 -65 -40 -22 -12 -47 -28 -56 -36 -16 -14 -29 -21 -139 -80
-30 -16 -66 -36 -80 -45 -14 -9 -36 -19 -50 -23 -14 -4 -36 -16 -49 -27 -13
-10 -48 -25 -77 -34 -29 -8 -58 -21 -64 -29 -6 -8 -37 -21 -67 -30 -31 -9 -65
-23 -77 -30 -12 -8 -43 -19 -71 -26 -27 -6 -65 -20 -84 -31 -18 -10 -56 -24
-85 -30 -28 -6 -67 -19 -87 -28 -19 -10 -64 -24 -99 -30 -36 -6 -90 -22 -120
-35 -30 -12 -80 -25 -110 -29 -30 -4 -89 -18 -131 -31 -42 -13 -105 -27 -140
-30 -35 -4 -104 -17 -154 -30 -49 -13 -137 -29 -195 -34 -58 -6 -145 -18 -195
-26 -197 -32 -424 -37 -1933 -39 -1071 -2 -1507 0 -1517 8 -13 10 -15 816 -15
6775 0 3721 3 6768 7 6772 5 4 19 9 33 11 61 9 2391 7 2795 -2z"/>
  </g>
</svg>