<svg xmlns="http://www.w3.org/2000/svg" viewBox="0 0 4096.000000 4096.000000">
  <g transform="translate(0.000000,4096.000000) scale(0.100000,-0.100000)" fill="#f4f5f7" stroke="none">
    <path d="M3949 40281 c-25 -5 -67 -18 -95 -29 -27 -12 -75 -26 -106 -31 -31
-6 -74 -21 -95 -35 -21 -13 -56 -29 -78 -36 -22 -7 -49 -21 -61 -32 -11 -10
-39 -29 -62 -41 -123 -67 -316 -260 -376 -376 -9 -17 -27 -47 -41 -67 -14 -20
-25 -45 -25 -54 0 -10 -14 -44 -31 -76 -17 -33 -35 -84 -40 -114 -6 -30 -20
-84 -32 -120 -20 -58 -22 -86 -22 -250 0 -167 2 -190 22 -242 13 -32 27 -88
33 -125 6 -38 22 -92 35 -121 13 -29 29 -80 35 -114 6 -34 22 -82 35 -107 13
-25 29 -73 35 -106 7 -33 21 -77 31 -97 11 -21 26 -68 35 -104 8 -37 26 -88
38 -113 13 -25 27 -66 31 -91 4 -25 20 -74 35 -110 16 -36 32 -83 36 -105 3
-22 15 -56 25 -76 10 -20 27 -73 39 -119 12 -46 30 -101 41 -122 11 -21 25
-64 30 -96 6 -31 21 -77 34 -102 13 -26 29 -75 35 -111 6 -35 22 -82 35 -104
13 -22 28 -66 34 -97 5 -32 19 -75 30 -96 11 -21 29 -75 40 -120 11 -45 27
-92 35 -104 8 -13 22 -54 31 -92 9 -38 25 -86 36 -107 10 -21 26 -70 34 -109
8 -39 24 -88 35 -110 11 -22 26 -66 34 -97 7 -32 20 -72 29 -89 9 -17 25 -66
36 -109 12 -43 29 -93 40 -110 10 -18 25 -59 32 -91 7 -33 22 -79 35 -104 12
-25 27 -72 34 -105 7 -33 23 -82 36 -108 14 -26 29 -70 34 -97 5 -28 21 -74
34 -103 14 -28 29 -77 35 -109 5 -31 21 -82 34 -115 14 -32 30 -82 36 -111 6
-29 22 -74 35 -100 13 -26 29 -74 35 -106 6 -32 19 -72 30 -90 10 -17 26 -62
35 -100 9 -38 25 -85 35 -105 10 -20 24 -63 31 -96 8 -33 23 -80 35 -105 12
-25 30 -76 39 -115 10 -38 24 -80 31 -92 8 -12 22 -52 31 -90 10 -37 30 -95
46 -128 15 -33 28 -71 28 -85 0 -14 12 -50 26 -80 15 -30 32 -81 40 -113 8
-31 25 -79 38 -105 13 -26 27 -67 31 -92 4 -25 20 -74 35 -110 15 -36 31 -85
35 -110 4 -25 18 -66 31 -92 13 -26 29 -71 35 -100 6 -29 21 -73 34 -98 12
-25 27 -72 35 -105 7 -33 23 -81 36 -107 13 -26 29 -71 35 -99 6 -28 22 -76
35 -106 14 -30 29 -78 35 -105 6 -28 22 -75 35 -105 14 -30 29 -78 35 -107 6
-28 20 -65 30 -82 10 -17 26 -61 34 -99 9 -37 27 -89 39 -114 13 -25 27 -66
31 -91 4 -25 18 -69 31 -99 13 -30 31 -82 39 -116 8 -34 23 -78 34 -96 11 -19
27 -63 35 -99 8 -36 27 -87 41 -114 14 -27 25 -63 25 -80 0 -17 13 -59 30 -93
16 -33 35 -85 41 -114 6 -30 22 -80 35 -111 13 -32 29 -81 35 -110 6 -29 19
-66 29 -83 10 -16 28 -67 39 -112 11 -45 27 -93 35 -105 8 -13 22 -54 31 -92
9 -38 25 -86 36 -107 10 -21 26 -69 35 -106 8 -38 24 -82 35 -99 10 -17 26
-64 34 -104 8 -40 24 -87 34 -104 10 -17 26 -65 36 -106 9 -41 25 -88 35 -105
10 -16 23 -57 29 -90 6 -32 22 -80 35 -105 13 -25 29 -70 36 -100 7 -30 23
-75 35 -100 13 -25 28 -71 34 -102 5 -31 21 -79 34 -105 14 -26 28 -68 32 -93
4 -25 20 -74 35 -110 15 -36 33 -89 39 -118 6 -29 20 -71 32 -93 11 -23 27
-73 35 -113 8 -39 24 -86 34 -104 11 -18 27 -63 35 -99 9 -37 24 -80 34 -97
11 -17 29 -68 40 -113 11 -45 27 -93 35 -105 8 -13 19 -49 25 -82 6 -32 19
-72 30 -90 11 -17 27 -60 36 -96 8 -36 26 -90 40 -120 13 -30 28 -81 34 -112
6 -31 20 -76 32 -100 12 -24 30 -77 41 -118 10 -41 25 -84 33 -96 8 -12 21
-52 29 -88 9 -37 26 -85 37 -109 12 -23 30 -74 40 -114 10 -40 27 -89 37 -110
11 -21 23 -58 27 -83 4 -25 18 -66 31 -91 12 -25 30 -76 38 -113 9 -36 25 -85
36 -107 12 -22 26 -65 31 -97 6 -31 22 -75 35 -97 13 -22 28 -65 35 -95 6 -30
20 -69 30 -87 11 -17 27 -65 35 -105 8 -40 24 -88 35 -107 11 -18 27 -63 35
-99 8 -36 24 -82 34 -102 10 -20 26 -67 34 -104 9 -37 23 -81 33 -99 9 -18 29
-75 45 -127 16 -52 42 -137 58 -188 15 -51 33 -98 38 -105 6 -7 20 -47 31 -89
12 -43 30 -94 40 -115 11 -21 25 -65 31 -98 7 -33 23 -78 35 -100 13 -22 28
-65 34 -95 7 -30 22 -77 35 -105 13 -27 29 -76 35 -107 5 -31 19 -75 30 -97
11 -21 30 -73 41 -116 11 -42 27 -86 35 -98 7 -12 21 -51 30 -86 9 -36 25 -81
34 -100 10 -20 26 -67 35 -105 9 -38 25 -85 35 -105 10 -20 26 -67 35 -105 9
-38 26 -86 36 -107 11 -21 25 -62 31 -91 6 -29 22 -73 34 -98 12 -25 28 -69
34 -98 6 -29 22 -75 36 -102 14 -27 30 -73 36 -102 6 -29 21 -73 34 -98 12
-25 27 -72 35 -105 7 -33 23 -80 35 -105 12 -25 28 -69 34 -98 6 -29 20 -70
31 -92 11 -22 25 -63 31 -92 6 -29 24 -82 39 -118 15 -36 31 -85 35 -110 4
-25 18 -65 30 -90 12 -25 28 -72 35 -105 7 -33 23 -81 36 -107 13 -27 30 -76
38 -110 7 -35 22 -82 34 -105 12 -23 26 -63 32 -90 6 -26 22 -75 36 -107 15
-32 33 -85 40 -118 8 -32 20 -69 29 -81 8 -12 21 -53 30 -91 9 -38 25 -86 35
-106 10 -20 26 -67 34 -104 9 -36 25 -84 36 -106 11 -22 27 -70 36 -106 8 -37
24 -84 35 -105 10 -21 26 -69 35 -106 8 -37 23 -78 33 -92 10 -14 26 -59 35
-100 9 -41 25 -88 35 -105 10 -17 25 -58 32 -91 7 -33 25 -87 41 -120 15 -33
28 -71 28 -85 0 -14 13 -52 29 -86 16 -33 34 -84 40 -113 6 -28 22 -77 35
-109 13 -31 29 -81 35 -110 6 -29 22 -74 35 -100 13 -26 29 -72 35 -103 7 -31
21 -72 32 -93 11 -20 26 -67 35 -103 8 -36 24 -83 34 -104 11 -20 24 -59 30
-86 6 -26 24 -82 39 -123 16 -41 39 -103 50 -137 12 -35 30 -91 42 -125 11
-35 30 -85 41 -113 11 -27 28 -79 38 -115 9 -36 26 -83 38 -105 11 -22 26 -67
32 -100 7 -33 20 -74 31 -91 10 -17 25 -60 32 -95 8 -35 24 -83 35 -106 12
-24 29 -73 38 -109 8 -37 24 -83 34 -104 10 -20 26 -65 35 -100 9 -35 25 -81
36 -102 10 -20 24 -61 30 -90 6 -29 20 -70 30 -90 10 -20 28 -72 40 -115 12
-43 29 -91 39 -108 10 -16 23 -57 30 -90 7 -33 23 -80 35 -105 12 -25 28 -72
35 -105 7 -33 23 -78 35 -100 13 -22 28 -66 34 -97 6 -31 19 -75 31 -97 11
-22 27 -71 36 -108 8 -38 24 -82 34 -99 11 -17 26 -57 33 -90 8 -33 24 -82 36
-109 12 -26 28 -75 37 -108 8 -34 24 -78 35 -99 10 -20 24 -61 30 -90 6 -29
24 -82 39 -118 15 -36 31 -85 35 -110 4 -25 18 -66 31 -92 13 -26 29 -71 35
-100 6 -29 20 -71 31 -92 11 -22 29 -71 39 -109 11 -38 29 -86 39 -108 11 -21
25 -62 31 -91 6 -29 20 -68 30 -87 11 -18 27 -63 35 -99 8 -36 24 -82 35 -103
10 -21 24 -62 30 -91 6 -29 24 -82 39 -118 15 -36 31 -85 35 -110 4 -25 18
-66 31 -91 12 -25 30 -75 38 -111 8 -36 24 -81 35 -99 10 -19 25 -61 31 -94 7
-33 21 -77 31 -97 10 -20 28 -71 40 -113 11 -42 29 -91 39 -108 10 -18 23 -59
29 -91 6 -33 20 -75 31 -93 11 -19 28 -64 37 -101 9 -37 25 -85 36 -107 11
-22 26 -69 34 -104 7 -35 22 -78 32 -95 11 -17 27 -61 35 -99 9 -37 24 -84 35
-105 10 -20 24 -62 31 -92 7 -30 25 -84 40 -120 15 -36 31 -85 35 -110 4 -25
18 -65 30 -90 12 -25 28 -70 34 -100 7 -30 22 -77 35 -105 13 -27 29 -75 36
-105 7 -30 23 -76 36 -102 13 -26 29 -71 35 -100 6 -29 22 -73 34 -98 12 -25
26 -65 30 -90 4 -25 20 -74 35 -110 15 -36 33 -89 39 -118 6 -29 22 -74 35
-100 13 -26 27 -65 30 -87 4 -22 20 -69 36 -105 15 -36 31 -83 35 -105 4 -22
20 -67 35 -100 16 -33 32 -80 35 -105 4 -25 18 -66 31 -91 12 -25 30 -75 38
-111 8 -36 24 -81 35 -99 10 -19 24 -58 30 -88 6 -29 24 -83 40 -120 16 -36
32 -84 36 -105 3 -22 17 -60 30 -85 12 -26 28 -70 34 -99 6 -29 20 -70 31 -92
11 -22 27 -70 36 -107 8 -38 24 -81 34 -98 10 -16 26 -60 34 -98 9 -37 25 -85
36 -107 11 -22 27 -70 36 -107 8 -38 24 -81 34 -98 10 -16 23 -57 30 -90 7
-33 23 -81 36 -107 13 -26 29 -71 35 -99 6 -29 24 -80 40 -113 16 -34 29 -74
29 -89 0 -15 11 -49 24 -76 14 -26 32 -76 41 -111 9 -35 25 -81 36 -102 10
-21 26 -68 35 -104 8 -37 25 -85 36 -108 12 -23 27 -67 34 -99 8 -31 25 -79
38 -105 13 -26 27 -65 30 -87 4 -22 21 -70 36 -106 16 -36 32 -85 36 -110 4
-24 17 -65 30 -91 13 -26 29 -71 35 -100 6 -29 22 -74 35 -99 12 -25 30 -75
38 -111 8 -36 24 -81 34 -99 11 -19 27 -65 36 -104 10 -38 26 -83 36 -100 10
-16 23 -54 29 -83 6 -29 22 -77 35 -105 13 -29 29 -77 36 -107 7 -30 23 -75
35 -100 12 -25 26 -65 30 -90 4 -25 19 -67 33 -95 14 -27 31 -76 38 -108 8
-32 23 -75 33 -96 11 -21 27 -67 35 -103 8 -36 24 -81 35 -99 10 -19 25 -61
31 -94 7 -33 23 -82 36 -108 14 -26 29 -70 34 -98 5 -27 23 -81 40 -119 16
-37 30 -76 30 -86 0 -10 13 -45 29 -78 16 -34 38 -81 50 -106 87 -190 247
-372 416 -475 19 -12 42 -28 52 -37 10 -10 36 -24 57 -33 21 -9 55 -27 75 -40
20 -13 52 -26 71 -30 19 -4 67 -20 105 -35 54 -21 102 -31 206 -40 109 -10
167 -10 285 0 113 9 161 17 199 35 28 12 75 28 105 35 62 15 162 65 269 134
115 74 316 284 386 404 11 17 23 32 27 32 4 0 17 19 29 42 19 38 49 85 109
173 11 17 40 62 65 100 24 39 55 86 70 105 50 68 95 135 112 168 9 17 20 32
24 32 4 0 21 24 38 53 33 54 62 98 106 157 44 59 73 103 94 141 11 19 27 41
36 49 9 7 23 27 32 44 8 17 25 41 36 54 11 12 30 37 41 56 12 18 39 59 61 91
55 79 112 164 133 199 9 16 26 40 38 55 12 14 29 42 39 61 10 19 30 49 44 66
14 17 35 46 46 64 34 56 78 125 120 185 22 31 49 72 61 91 11 19 30 44 41 56
11 13 26 34 33 48 7 14 24 39 37 55 14 17 44 60 67 96 23 37 52 79 65 95 12
16 49 70 81 119 163 247 283 424 335 495 15 19 54 77 88 129 77 116 102 153
152 226 56 81 85 125 119 181 17 27 41 63 55 80 14 17 34 44 43 60 10 16 30
48 45 71 16 23 42 62 58 88 17 26 42 62 58 80 15 18 27 37 27 42 0 8 21 39
105 153 14 19 50 71 80 115 30 44 90 131 133 193 42 63 86 129 97 147 12 19
28 42 37 52 8 10 22 32 31 48 8 17 26 42 38 56 13 15 32 39 41 55 17 28 71
110 112 171 78 113 173 258 210 319 17 27 42 64 58 82 15 18 28 37 28 41 0 5
15 27 33 49 17 22 40 53 49 68 10 16 33 49 53 74 19 25 47 65 62 90 15 25 38
59 52 77 63 79 77 98 91 127 8 17 22 32 31 34 9 2 30 -11 45 -28 16 -18 41
-45 55 -61 15 -15 61 -71 103 -123 42 -52 81 -98 86 -101 5 -3 56 -59 112
-123 56 -64 113 -129 127 -143 14 -15 42 -46 62 -70 20 -24 117 -136 214 -249
98 -113 208 -243 244 -289 72 -92 216 -260 235 -276 14 -11 140 -155 201 -230
44 -54 151 -175 220 -249 63 -68 155 -173 192 -220 36 -46 159 -193 206 -246
12 -14 32 -38 44 -54 12 -15 58 -67 101 -115 44 -47 121 -135 172 -196 51 -60
118 -139 151 -175 32 -36 102 -117 154 -180 53 -63 172 -202 263 -309 92 -107
174 -203 182 -215 13 -19 259 -303 321 -371 16 -16 58 -66 95 -110 36 -44 80
-96 98 -115 17 -19 66 -75 109 -125 43 -49 100 -115 127 -145 27 -30 59 -68
71 -85 22 -28 261 -303 318 -366 14 -15 42 -47 62 -71 20 -24 52 -61 71 -83
18 -22 50 -61 71 -87 52 -65 433 -508 511 -594 57 -62 426 -487 524 -602 20
-24 56 -63 78 -87 23 -24 55 -61 70 -82 31 -40 126 -153 228 -267 33 -38 68
-78 76 -90 8 -11 24 -30 36 -41 31 -28 567 -645 635 -730 66 -82 696 -804 773
-885 65 -69 154 -173 231 -270 33 -41 69 -85 80 -96 11 -12 38 -43 60 -70 22
-26 51 -59 64 -73 14 -14 95 -107 180 -206 134 -155 311 -348 361 -392 84 -75
181 -141 243 -167 21 -8 49 -24 63 -35 14 -11 39 -23 57 -26 18 -4 63 -21 102
-37 62 -27 89 -32 245 -45 136 -10 203 -11 300 -3 144 13 197 23 248 49 21 10
61 24 89 31 29 6 64 21 77 31 14 11 43 26 66 34 40 14 58 27 148 101 20 17 44
35 53 40 15 8 200 179 599 553 79 75 163 154 185 176 57 56 366 348 450 426
39 36 106 99 150 140 44 41 121 110 170 154 50 43 119 106 155 140 36 33 103
94 148 135 80 72 259 238 311 290 14 13 51 47 82 75 31 27 123 113 205 190 83
77 197 183 254 235 58 52 167 154 245 225 123 115 250 233 755 706 69 64 168
154 220 200 52 45 100 88 105 95 6 6 55 51 110 99 109 96 280 253 385 355 37
36 116 110 176 165 59 55 140 129 179 165 88 83 250 229 293 266 19 16 46 40
60 54 15 13 52 47 82 74 103 92 417 386 498 467 15 15 74 69 132 120 58 51
114 102 126 113 11 12 72 68 134 126 63 58 126 116 140 130 14 14 79 73 145
130 311 272 488 436 565 526 44 51 108 141 125 175 10 19 25 43 35 54 10 11
23 38 30 60 7 22 23 59 36 82 13 23 31 73 39 111 8 38 22 89 32 113 15 37 18
74 18 234 0 166 -3 199 -22 260 -12 39 -26 97 -32 129 -6 33 -19 73 -30 91
-10 17 -26 54 -35 82 -9 28 -24 57 -33 65 -9 7 -25 33 -36 58 -11 25 -32 59
-46 76 -14 17 -42 52 -61 78 -73 97 -297 357 -415 482 -16 18 -48 53 -70 79
-22 26 -51 60 -65 75 -14 16 -59 70 -100 121 -41 50 -106 126 -145 169 -116
127 -136 150 -245 279 -102 121 -416 486 -469 546 -14 16 -38 46 -53 65 -14
19 -47 58 -72 85 -26 28 -65 72 -89 98 -23 27 -65 74 -94 105 -28 32 -90 104
-138 162 -82 100 -115 138 -250 290 -32 36 -69 81 -84 100 -26 36 -338 396
-397 460 -30 32 -125 145 -207 244 -17 22 -47 56 -65 75 -18 20 -81 92 -138
161 -58 69 -134 156 -167 194 -34 38 -69 79 -77 91 -8 13 -25 31 -36 41 -19
17 -103 113 -374 431 -41 48 -131 153 -200 234 -69 80 -147 174 -175 208 -27
35 -62 75 -76 89 -39 40 -293 333 -311 360 -14 21 -78 92 -157 177 -41 43
-164 189 -251 296 -41 50 -87 103 -101 118 -38 38 -292 332 -310 359 -16 23
-124 144 -170 191 -41 42 -220 250 -274 320 -28 35 -61 76 -75 91 -14 16 -43
49 -65 75 -22 25 -53 61 -70 79 -16 18 -44 50 -62 72 -50 61 -251 295 -282
329 -51 55 -297 340 -312 361 -16 25 -120 143 -160 183 -33 34 -153 173 -249
291 -41 50 -88 106 -105 124 -16 18 -46 51 -65 75 -19 23 -55 63 -79 89 -24
26 -71 80 -105 121 -86 103 -204 240 -237 276 -49 52 -93 101 -126 141 -54 66
-173 207 -201 239 -121 137 -199 225 -223 250 -63 67 -77 85 -98 118 -12 19
-28 38 -36 41 -20 7 -35 47 -24 66 4 8 33 31 64 50 30 19 70 45 88 57 17 12
50 32 72 44 22 12 53 32 68 45 16 13 34 24 41 24 7 0 23 10 36 22 13 13 43 34
66 48 54 32 221 143 255 169 14 11 39 26 55 33 16 7 44 25 62 40 18 15 39 28
46 28 8 0 33 16 56 35 23 19 48 35 55 35 7 0 28 12 48 28 19 15 59 41 87 57
119 68 193 113 234 142 17 13 47 30 66 40 19 10 55 32 79 50 24 18 48 33 54
33 5 0 25 13 44 30 18 17 40 30 48 30 7 0 26 11 42 24 15 13 51 35 80 49 28
15 55 32 58 38 4 6 26 19 49 30 22 11 55 29 73 42 80 55 101 68 139 87 22 10
58 33 79 50 21 16 44 30 51 30 7 0 25 11 41 24 15 13 46 33 68 45 42 23 82 49
150 100 22 17 49 33 60 37 11 4 40 23 64 41 24 18 49 33 56 33 7 0 19 7 26 17
8 9 32 24 55 34 22 10 58 32 79 49 21 16 43 30 49 30 6 0 31 16 55 35 24 19
50 35 57 35 7 0 28 13 46 29 18 15 43 31 55 35 12 4 38 20 58 36 20 16 46 32
58 36 12 4 35 18 51 31 15 13 45 31 65 39 19 8 45 23 56 33 11 11 36 27 56 38
45 23 89 50 153 92 28 18 60 37 72 41 11 4 33 19 50 33 16 13 48 34 71 45 23
12 45 27 48 33 4 6 26 19 49 30 22 11 75 42 116 69 41 27 86 55 100 62 29 15
106 63 153 95 18 13 51 32 73 43 23 11 48 27 55 37 8 9 33 24 55 35 23 10 47
25 54 33 8 9 29 23 47 30 19 8 51 28 71 45 20 16 42 30 49 30 6 0 26 12 43 26
17 15 48 36 69 48 46 25 83 48 165 100 33 22 88 56 121 77 33 21 72 47 87 59
15 11 42 27 62 35 19 8 38 19 41 25 4 6 30 22 58 37 29 14 65 36 80 49 16 13
34 24 41 24 7 0 30 13 52 29 21 16 50 32 63 36 13 4 42 20 65 35 22 15 75 47
116 70 41 24 86 51 100 61 14 11 46 30 71 43 25 14 51 32 59 41 7 9 30 25 49
36 46 25 96 61 143 102 77 66 191 183 214 219 13 20 28 39 34 43 6 3 22 30 36
58 15 29 34 61 44 72 21 25 100 196 100 218 0 9 12 48 26 88 33 91 45 218 38
384 -5 98 -12 147 -30 200 -13 39 -26 90 -30 115 -7 45 -87 224 -105 236 -5 3
-21 29 -36 57 -14 29 -34 61 -44 72 -10 11 -45 52 -77 90 -68 80 -182 184
-228 208 -17 9 -36 22 -43 31 -7 8 -29 20 -49 27 -20 6 -47 21 -60 33 -23 20
-71 48 -181 101 -30 14 -65 35 -78 45 -14 10 -41 24 -61 31 -20 6 -49 20 -63
30 -14 10 -47 26 -75 37 -27 10 -67 31 -88 45 -21 15 -46 27 -55 27 -10 0 -37
13 -62 29 -25 15 -63 34 -85 41 -21 7 -49 21 -62 31 -13 10 -40 23 -60 30 -20
6 -57 24 -82 39 -25 16 -58 32 -75 36 -16 4 -48 20 -69 35 -22 16 -47 29 -56
29 -9 0 -36 13 -61 29 -25 15 -63 34 -84 41 -21 7 -59 26 -84 41 -25 16 -50
29 -56 29 -6 0 -31 13 -56 29 -25 15 -63 34 -85 41 -21 7 -48 21 -59 31 -11
10 -41 25 -65 34 -25 9 -61 26 -80 39 -19 12 -48 26 -65 30 -16 4 -47 18 -67
32 -21 13 -62 35 -92 48 -29 13 -56 28 -60 34 -3 6 -30 18 -59 26 -30 9 -62
25 -72 36 -10 11 -35 25 -55 30 -21 6 -53 21 -72 34 -20 13 -51 29 -71 35 -20
7 -53 23 -73 37 -20 14 -59 33 -86 44 -28 10 -58 26 -67 34 -9 8 -35 19 -58
25 -23 6 -55 22 -70 35 -15 13 -39 27 -53 31 -14 4 -44 18 -68 32 -23 13 -60
30 -83 38 -22 8 -53 24 -69 35 -16 11 -48 27 -72 36 -23 8 -52 23 -63 34 -12
11 -43 26 -69 34 -27 8 -58 23 -70 34 -11 11 -44 27 -73 36 -28 10 -57 23 -63
31 -7 8 -37 24 -67 35 -31 11 -67 29 -80 40 -13 10 -46 26 -73 35 -27 9 -54
22 -60 30 -6 8 -35 22 -63 31 -29 9 -64 27 -79 40 -15 12 -42 25 -60 29 -18 4
-49 18 -68 31 -19 13 -54 30 -78 38 -23 8 -57 26 -75 40 -17 13 -50 29 -73 35
-22 6 -49 20 -59 31 -9 10 -41 26 -69 34 -29 9 -61 24 -70 35 -10 11 -40 27
-66 36 -27 9 -54 22 -60 30 -7 8 -37 24 -68 35 -32 12 -64 28 -73 36 -9 8 -39
24 -67 34 -27 11 -67 31 -87 45 -21 14 -46 25 -55 25 -9 0 -34 12 -55 26 -21
14 -62 34 -91 45 -28 11 -57 26 -64 34 -6 8 -35 21 -64 29 -29 9 -61 24 -70
35 -10 11 -40 27 -67 36 -26 9 -59 25 -73 36 -14 11 -47 26 -74 34 -27 8 -57
24 -67 35 -10 11 -36 25 -58 31 -23 6 -54 21 -71 34 -17 12 -49 28 -71 35 -22
7 -53 23 -70 35 -16 12 -46 28 -65 34 -19 6 -51 22 -71 35 -20 13 -53 29 -73
35 -21 5 -52 21 -70 35 -18 13 -49 28 -70 31 -21 4 -50 18 -66 32 -16 13 -51
30 -78 38 -27 8 -57 24 -67 35 -10 11 -36 25 -59 31 -22 6 -53 22 -69 35 -15
13 -47 29 -70 35 -23 6 -54 21 -69 34 -15 13 -44 29 -65 35 -21 7 -51 22 -68
35 -16 12 -48 28 -70 35 -22 7 -53 23 -68 36 -15 13 -47 28 -70 35 -23 6 -52
20 -63 31 -12 10 -41 25 -66 33 -24 7 -61 24 -81 38 -21 14 -52 29 -70 32 -18
4 -47 18 -65 32 -17 13 -54 31 -81 39 -27 8 -54 21 -61 29 -6 8 -37 24 -68 35
-32 12 -66 30 -77 40 -11 10 -39 23 -62 29 -23 7 -55 22 -70 35 -15 13 -46 29
-68 36 -22 7 -56 24 -75 36 -19 13 -51 29 -70 35 -19 7 -51 23 -70 35 -19 13
-55 30 -80 39 -24 8 -52 22 -61 31 -9 8 -39 22 -65 30 -26 8 -57 23 -69 34
-12 11 -43 26 -69 34 -27 8 -58 23 -70 34 -11 11 -44 27 -73 36 -28 10 -57 23
-63 31 -6 8 -33 22 -58 31 -26 10 -60 28 -77 40 -16 12 -48 27 -70 34 -22 7
-49 21 -61 32 -11 10 -43 27 -70 37 -27 10 -67 30 -88 44 -21 15 -47 27 -57
27 -9 0 -31 11 -48 25 -16 14 -52 33 -78 42 -26 9 -61 26 -78 38 -16 13 -47
28 -69 35 -21 7 -54 23 -74 36 -19 13 -50 28 -68 33 -19 5 -46 19 -60 30 -15
12 -45 26 -68 32 -22 6 -56 22 -74 36 -18 14 -50 29 -70 35 -20 5 -51 20 -68
33 -17 13 -48 28 -70 34 -22 6 -55 22 -73 36 -19 13 -50 30 -70 36 -20 6 -49
21 -66 34 -16 12 -48 28 -69 35 -22 7 -60 26 -85 41 -25 16 -52 29 -61 29 -10
0 -36 14 -58 30 -23 17 -48 30 -55 30 -7 0 -49 18 -92 40 -43 22 -84 40 -90
40 -6 0 -26 11 -45 25 -18 13 -49 30 -69 36 -20 6 -56 24 -81 39 -25 15 -56
31 -70 35 -14 4 -38 18 -55 30 -16 12 -48 28 -70 35 -22 7 -53 23 -68 36 -15
13 -45 28 -66 34 -21 5 -50 19 -64 30 -14 11 -44 27 -66 35 -22 8 -57 26 -78
40 -21 14 -56 30 -78 36 -22 6 -49 19 -60 29 -11 10 -44 28 -74 39 -29 11 -61
27 -70 35 -9 9 -36 22 -60 31 -23 8 -54 24 -68 35 -14 11 -43 25 -65 31 -22 5
-58 24 -80 40 -23 16 -48 29 -58 29 -9 0 -38 14 -66 31 -27 18 -65 36 -84 41
-18 6 -48 20 -65 33 -16 13 -42 26 -57 30 -14 4 -50 22 -79 41 -29 19 -63 34
-74 34 -12 0 -39 13 -61 29 -21 15 -55 33 -74 40 -19 6 -52 23 -72 36 -21 14
-44 25 -51 25 -7 0 -49 18 -92 40 -43 22 -84 40 -90 40 -6 0 -26 11 -45 25
-19 14 -51 30 -71 35 -20 6 -54 22 -75 36 -21 15 -52 31 -69 37 -16 6 -46 21
-65 33 -19 13 -51 29 -70 35 -19 7 -53 25 -74 41 -21 15 -46 28 -56 28 -9 0
-36 13 -61 29 -25 15 -62 34 -82 40 -19 7 -47 21 -60 31 -13 11 -49 29 -80 40
-30 11 -60 27 -67 35 -6 8 -33 21 -59 30 -26 8 -63 27 -81 40 -19 14 -41 25
-50 25 -9 0 -38 14 -66 31 -27 18 -63 36 -80 41 -18 4 -47 19 -66 31 -19 13
-49 29 -68 36 -19 6 -51 22 -70 35 -19 12 -53 29 -75 36 -22 7 -53 23 -70 35
-16 12 -45 27 -63 33 -18 6 -46 21 -62 32 -16 11 -48 27 -72 36 -24 8 -59 25
-78 37 -19 13 -56 31 -82 41 -25 9 -52 24 -59 32 -6 8 -35 21 -65 30 -29 8
-63 23 -76 33 -13 10 -34 22 -48 26 -14 4 -54 22 -90 41 -36 18 -85 43 -110
54 -25 11 -83 40 -130 66 -47 25 -103 52 -125 60 -22 8 -49 23 -60 33 -11 10
-36 24 -55 30 -19 6 -51 22 -70 35 -19 12 -52 28 -72 35 -20 7 -48 21 -61 31
-13 11 -49 29 -80 40 -30 11 -60 27 -67 35 -6 8 -35 21 -64 29 -29 9 -65 25
-79 36 -14 11 -44 27 -67 35 -23 8 -53 23 -66 34 -14 11 -50 27 -79 36 -30 8
-57 20 -61 26 -4 6 -32 22 -62 36 -31 13 -68 33 -82 42 -14 10 -41 23 -60 30
-19 6 -51 22 -70 34 -19 13 -56 31 -82 41 -25 9 -52 23 -58 31 -6 8 -35 22
-63 31 -29 9 -68 28 -87 40 -19 13 -56 31 -81 39 -26 9 -53 23 -60 31 -6 8
-35 21 -65 30 -29 8 -63 24 -77 34 -13 10 -47 28 -76 39 -29 11 -61 26 -70 34
-9 8 -37 21 -63 30 -26 9 -62 27 -80 40 -18 13 -48 29 -66 35 -18 6 -46 21
-62 32 -16 11 -48 27 -72 36 -23 8 -52 23 -63 33 -11 10 -38 24 -59 31 -22 7
-60 26 -85 41 -25 16 -52 29 -60 29 -9 0 -36 14 -61 30 -25 16 -61 35 -80 41
-19 6 -42 18 -51 25 -9 8 -44 25 -79 39 -34 13 -68 29 -75 35 -25 20 -184 98
-215 105 -17 4 -43 17 -58 30 -16 13 -52 33 -81 44 -29 11 -61 26 -70 34 -9 8
-34 20 -56 27 -22 7 -53 23 -70 35 -16 13 -48 28 -70 35 -22 7 -52 23 -67 36
-15 12 -42 25 -60 29 -18 4 -54 20 -79 36 -25 16 -61 34 -80 40 -19 7 -45 21
-58 31 -13 10 -48 25 -76 34 -29 8 -60 23 -70 34 -10 11 -34 24 -54 31 -20 6
-59 24 -87 40 -28 16 -58 29 -67 29 -8 0 -37 15 -63 33 -27 19 -66 39 -86 46
-20 7 -47 20 -60 30 -13 10 -40 24 -60 30 -20 7 -48 21 -62 32 -13 11 -43 26
-66 34 -22 8 -55 25 -73 39 -17 13 -49 29 -69 34 -20 6 -52 21 -70 35 -18 14
-52 30 -74 36 -23 6 -47 18 -54 26 -6 8 -36 23 -65 34 -29 11 -74 33 -101 50
-26 17 -55 31 -64 31 -8 0 -31 11 -50 23 -19 13 -59 32 -87 41 -29 10 -56 22
-59 28 -4 6 -36 24 -73 40 -36 17 -73 36 -81 43 -8 7 -33 18 -55 25 -22 7 -53
23 -70 35 -16 13 -41 26 -55 30 -14 4 -45 20 -70 35 -25 16 -61 32 -80 38 -19
5 -52 21 -74 36 -21 14 -56 30 -76 36 -21 6 -49 19 -63 30 -15 12 -48 27 -74
35 -27 8 -64 26 -83 40 -18 14 -40 25 -48 25 -9 0 -43 16 -78 35 -34 19 -69
35 -77 35 -8 0 -37 15 -64 34 -28 19 -67 39 -88 45 -21 5 -47 19 -59 29 -12
11 -39 25 -61 32 -22 7 -49 21 -61 32 -11 10 -43 27 -70 37 -27 10 -67 30 -88
44 -21 15 -46 27 -55 27 -9 0 -41 16 -71 35 -30 19 -62 35 -71 35 -9 0 -34 12
-55 26 -21 15 -56 33 -77 40 -21 7 -51 23 -67 34 -16 11 -47 27 -70 35 -23 8
-53 23 -68 33 -15 11 -45 25 -67 32 -22 7 -55 23 -72 37 -18 13 -51 30 -74 38
-22 8 -52 23 -67 33 -15 11 -45 25 -67 32 -22 7 -53 23 -70 35 -16 12 -46 28
-65 34 -19 6 -51 22 -70 35 -19 12 -58 31 -87 40 -28 9 -57 23 -63 31 -7 8
-36 23 -66 35 -30 11 -65 27 -77 35 -12 8 -42 21 -65 29 -24 9 -56 25 -72 36
-16 12 -51 27 -78 35 -27 8 -55 22 -62 30 -6 8 -37 24 -68 35 -30 12 -68 32
-84 45 -16 14 -37 25 -47 25 -9 0 -41 16 -71 35 -30 19 -61 35 -70 35 -8 0
-32 11 -52 25 -20 13 -58 33 -84 43 -27 10 -67 31 -88 45 -21 15 -44 27 -50
27 -7 0 -33 13 -59 29 -25 17 -64 35 -85 40 -21 6 -47 20 -57 31 -9 10 -41 26
-69 34 -29 9 -60 24 -70 35 -10 10 -41 27 -69 36 -29 9 -59 23 -67 30 -8 7
-40 23 -70 35 -30 12 -62 28 -71 36 -9 8 -39 24 -67 34 -27 11 -67 31 -87 45
-21 14 -45 25 -55 25 -9 0 -35 13 -56 28 -22 16 -63 37 -91 46 -28 9 -57 23
-63 31 -6 8 -33 21 -59 30 -25 8 -62 26 -81 39 -19 12 -53 29 -75 36 -22 7
-51 21 -65 30 -14 9 -48 25 -77 34 -28 9 -57 23 -63 31 -7 8 -37 24 -68 35
-30 12 -67 29 -81 39 -14 10 -44 24 -66 31 -22 7 -54 24 -71 36 -17 13 -46 29
-65 36 -19 6 -47 21 -64 33 -16 13 -47 28 -67 34 -20 7 -48 21 -62 32 -13 11
-43 26 -66 34 -22 8 -55 25 -73 38 -17 13 -48 30 -67 36 -19 6 -51 22 -70 35
-19 12 -52 28 -72 35 -20 7 -48 21 -62 32 -14 11 -46 26 -72 34 -25 7 -56 22
-68 33 -11 11 -44 27 -73 36 -28 10 -62 25 -75 35 -13 10 -47 26 -75 35 -29
10 -55 22 -58 27 -7 10 -207 109 -222 109 -5 0 -27 12 -48 26 -21 14 -62 34
-91 45 -28 11 -58 26 -64 34 -7 8 -35 22 -63 30 -27 8 -64 26 -82 39 -18 14
-45 28 -61 32 -16 3 -49 19 -74 34 -25 15 -62 33 -82 39 -20 7 -47 20 -60 30
-13 10 -46 26 -75 35 -28 9 -57 23 -63 31 -7 8 -36 23 -64 34 -29 11 -70 31
-91 45 -21 14 -43 26 -50 26 -7 0 -30 12 -51 26 -21 15 -56 33 -77 40 -21 7
-51 23 -67 34 -16 11 -48 27 -71 35 -24 9 -50 22 -59 30 -9 9 -45 26 -80 40
-35 14 -71 31 -80 40 -9 8 -34 21 -57 29 -23 8 -58 26 -80 40 -21 13 -51 28
-68 32 -16 4 -46 18 -65 30 -19 13 -54 30 -78 38 -24 9 -55 25 -69 36 -14 11
-44 25 -66 31 -22 6 -54 21 -71 34 -17 12 -42 26 -56 30 -14 4 -46 20 -71 36
-25 16 -52 29 -60 29 -8 0 -37 14 -64 31 -28 17 -67 38 -88 45 -21 7 -52 23
-68 35 -16 11 -46 25 -67 31 -20 5 -52 21 -70 35 -17 13 -54 31 -81 39 -26 7
-60 23 -74 34 -14 11 -45 27 -69 36 -23 8 -52 23 -63 34 -12 11 -42 26 -67 34
-26 7 -59 23 -73 34 -14 12 -48 28 -75 37 -27 9 -54 23 -61 31 -6 8 -37 21
-68 30 -31 9 -83 28 -116 42 -56 23 -73 25 -255 28 -107 2 -216 -1 -241 -5z
m2367 -3691 c43 -22 83 -40 89 -40 6 0 33 -14 61 -31 27 -18 65 -36 84 -41 18
-6 48 -20 65 -33 16 -12 48 -28 69 -35 22 -7 60 -26 85 -41 25 -16 52 -29 60
-29 9 0 36 -14 61 -30 25 -16 60 -35 79 -41 19 -7 55 -25 80 -40 25 -16 52
-29 62 -29 9 0 34 -12 55 -26 21 -15 56 -33 77 -40 21 -7 52 -23 68 -35 16
-11 46 -25 67 -31 20 -6 55 -23 76 -39 22 -16 47 -29 56 -29 9 0 36 -13 61
-29 25 -15 63 -34 85 -41 21 -7 53 -23 69 -35 17 -13 47 -28 67 -34 20 -7 48
-21 61 -31 13 -10 47 -28 76 -39 29 -11 61 -27 70 -35 9 -9 37 -23 61 -31 25
-9 62 -27 82 -40 20 -13 49 -27 65 -31 15 -3 48 -19 73 -34 25 -15 61 -33 81
-39 20 -6 51 -23 69 -36 19 -14 41 -25 50 -25 9 0 38 -14 65 -31 28 -17 66
-37 85 -44 20 -7 53 -24 74 -39 21 -14 46 -26 55 -26 9 0 41 -16 71 -35 30
-19 61 -35 70 -35 8 0 32 -11 53 -26 21 -14 57 -32 80 -40 23 -8 58 -25 77
-38 19 -13 46 -27 60 -31 14 -4 48 -20 75 -35 28 -15 67 -33 87 -39 20 -7 42
-18 48 -26 6 -8 42 -26 80 -40 38 -14 74 -33 80 -41 7 -7 29 -18 50 -24 20 -5
55 -22 76 -36 22 -15 53 -31 70 -36 18 -4 47 -19 66 -32 20 -13 52 -29 73 -36
21 -7 59 -26 84 -41 25 -16 50 -29 57 -29 6 0 29 -12 50 -26 21 -15 57 -33 79
-41 22 -7 56 -24 75 -37 19 -12 50 -28 68 -34 18 -6 45 -20 61 -31 15 -11 53
-29 83 -41 31 -11 61 -27 68 -35 6 -8 35 -21 64 -29 29 -9 61 -25 71 -36 10
-11 37 -25 59 -31 23 -6 61 -23 86 -39 25 -15 56 -31 70 -35 14 -4 41 -18 60
-31 19 -13 54 -30 78 -38 24 -9 55 -24 70 -34 15 -11 43 -24 62 -31 19 -6 51
-22 70 -35 19 -12 53 -29 75 -36 22 -7 54 -23 72 -36 17 -13 35 -24 40 -24 4
0 40 -15 78 -34 39 -19 122 -60 185 -91 63 -31 126 -62 140 -69 14 -8 45 -23
70 -35 25 -12 56 -28 70 -36 14 -7 43 -22 65 -33 22 -10 54 -26 70 -35 17 -9
48 -24 70 -35 46 -22 234 -115 285 -142 90 -47 260 -130 265 -130 4 0 19 -9
34 -19 15 -11 51 -29 80 -40 29 -11 61 -27 70 -35 9 -8 41 -24 73 -36 31 -11
61 -27 68 -35 6 -8 33 -21 60 -30 27 -9 54 -22 60 -30 7 -8 37 -24 68 -35 30
-12 67 -29 81 -39 14 -10 43 -24 63 -30 20 -7 48 -21 62 -32 14 -11 50 -28 81
-39 31 -11 67 -28 81 -39 14 -11 42 -25 62 -32 20 -6 49 -20 64 -31 15 -10 44
-25 66 -32 21 -8 63 -28 94 -45 30 -17 60 -31 67 -31 6 0 28 -11 49 -25 20
-13 53 -30 72 -36 19 -6 50 -23 67 -36 18 -13 52 -30 75 -39 23 -8 50 -21 59
-30 9 -8 41 -24 70 -35 29 -11 63 -29 76 -39 13 -10 41 -24 61 -31 20 -6 49
-20 64 -31 15 -10 44 -25 65 -32 21 -7 60 -28 88 -45 27 -17 54 -31 61 -31 6
0 28 -12 49 -26 21 -14 62 -34 91 -45 28 -11 57 -26 64 -34 6 -8 33 -21 60
-30 27 -9 59 -24 72 -34 13 -10 46 -26 75 -35 28 -9 57 -23 63 -31 7 -8 37
-24 68 -35 32 -12 64 -28 72 -35 8 -7 39 -23 69 -35 30 -11 72 -31 95 -44 23
-13 52 -27 66 -31 14 -4 37 -16 51 -26 14 -10 49 -27 78 -38 29 -11 61 -27 70
-35 9 -8 41 -24 73 -36 31 -11 62 -27 68 -35 7 -9 36 -22 65 -31 30 -8 59 -21
65 -29 7 -8 37 -24 68 -35 30 -12 68 -30 84 -41 16 -12 45 -25 66 -31 20 -6
55 -23 76 -39 22 -16 47 -29 57 -29 9 0 34 -12 55 -27 21 -14 62 -35 89 -46
28 -10 57 -24 65 -31 19 -16 202 -106 216 -106 5 0 28 -13 50 -29 21 -15 54
-33 72 -39 18 -6 45 -20 61 -31 15 -11 53 -29 83 -41 31 -11 62 -27 68 -35 7
-8 31 -20 54 -26 22 -6 55 -21 71 -33 17 -13 48 -29 70 -36 22 -7 56 -24 75
-36 19 -13 51 -29 70 -35 19 -7 51 -23 70 -35 19 -13 53 -30 75 -37 22 -8 58
-26 79 -41 21 -14 47 -26 56 -26 9 0 35 -12 56 -27 21 -14 58 -32 82 -39 23
-7 57 -24 75 -37 17 -14 50 -30 72 -37 22 -7 56 -23 75 -36 19 -12 53 -28 75
-34 22 -7 56 -24 75 -36 19 -13 39 -24 45 -24 6 0 31 -13 56 -29 25 -15 68
-36 97 -45 28 -10 54 -21 57 -26 6 -10 226 -120 240 -120 4 0 22 -11 39 -23
17 -13 46 -29 64 -35 18 -6 45 -20 61 -31 15 -11 53 -29 83 -41 31 -11 61 -27
68 -35 6 -8 33 -21 59 -30 26 -8 63 -27 81 -40 19 -14 39 -25 44 -25 10 0 242
-110 331 -157 158 -84 238 -123 248 -123 7 0 37 -15 66 -34 29 -19 64 -37 79
-41 14 -3 38 -15 53 -26 15 -11 46 -26 69 -34 23 -8 54 -23 69 -34 15 -11 53
-29 83 -41 31 -11 62 -27 68 -35 7 -8 35 -22 62 -30 27 -8 62 -23 78 -35 16
-11 47 -27 70 -35 23 -8 54 -24 70 -35 16 -11 47 -27 70 -35 23 -8 54 -24 70
-35 16 -11 46 -27 67 -34 21 -7 56 -25 77 -40 21 -14 46 -26 55 -26 9 0 41
-15 70 -34 29 -19 64 -37 79 -41 14 -3 38 -15 52 -25 15 -11 52 -29 83 -40 31
-12 59 -25 62 -30 7 -11 207 -110 222 -110 5 0 28 -12 49 -26 21 -15 56 -33
77 -40 21 -7 51 -23 67 -34 16 -11 47 -27 70 -35 23 -8 53 -23 66 -34 14 -11
42 -25 62 -32 20 -7 53 -23 72 -35 19 -13 51 -29 70 -35 19 -6 49 -22 65 -34
17 -12 48 -28 70 -35 22 -7 52 -21 66 -31 14 -10 49 -27 78 -38 29 -11 61 -27
70 -35 9 -8 41 -24 71 -36 30 -12 62 -28 71 -36 9 -8 39 -21 67 -29 28 -9 54
-20 58 -26 3 -6 36 -24 73 -41 36 -16 73 -35 81 -42 8 -8 39 -21 67 -30 29
-10 56 -22 59 -28 4 -5 35 -23 69 -38 34 -15 65 -33 69 -38 3 -6 30 -18 59
-28 28 -9 64 -27 79 -40 15 -12 44 -28 65 -35 21 -6 50 -20 65 -31 15 -10 46
-25 69 -33 23 -9 48 -20 54 -25 20 -16 228 -120 241 -120 6 0 29 -12 50 -26
21 -15 56 -33 77 -40 21 -7 50 -22 65 -32 15 -11 50 -27 78 -36 29 -9 59 -25
69 -36 9 -10 30 -22 45 -25 15 -3 48 -19 72 -34 24 -16 62 -34 84 -41 21 -7
53 -23 69 -35 17 -13 48 -28 70 -35 22 -7 52 -21 66 -31 14 -10 49 -27 78 -38
29 -11 61 -27 70 -35 9 -8 41 -24 73 -36 31 -11 61 -27 68 -35 6 -8 35 -21 65
-29 29 -9 58 -22 65 -31 6 -8 37 -24 68 -35 32 -12 66 -30 77 -39 11 -10 44
-26 72 -36 29 -9 56 -21 59 -27 4 -6 32 -21 62 -35 31 -13 68 -33 82 -42 14
-10 43 -24 65 -31 22 -7 49 -21 60 -31 11 -9 45 -27 77 -39 31 -11 61 -27 68
-35 6 -8 35 -21 64 -29 29 -9 60 -24 70 -35 9 -10 38 -27 64 -36 26 -10 58
-26 72 -35 14 -9 48 -25 76 -34 29 -9 60 -26 70 -37 9 -11 41 -26 70 -35 28
-8 60 -24 69 -34 10 -11 36 -25 57 -31 21 -5 59 -23 85 -39 25 -16 58 -32 73
-35 16 -3 34 -12 40 -20 6 -8 42 -26 80 -40 38 -14 74 -33 81 -41 6 -8 35 -21
64 -30 30 -8 59 -21 65 -29 7 -8 36 -23 64 -34 29 -11 70 -31 91 -45 21 -14
55 -31 75 -36 21 -6 43 -17 50 -25 6 -8 37 -24 68 -35 32 -12 64 -28 73 -36 9
-8 41 -24 70 -35 30 -11 63 -29 74 -39 11 -10 38 -23 60 -29 22 -6 56 -22 74
-36 19 -13 50 -30 70 -36 20 -6 46 -20 57 -31 12 -11 43 -26 69 -33 25 -8 60
-26 77 -40 16 -14 35 -25 42 -25 7 0 48 -18 91 -40 43 -22 84 -40 91 -40 7 0
25 -11 41 -24 16 -14 53 -34 82 -45 29 -11 61 -26 70 -34 9 -8 36 -21 61 -29
25 -8 63 -27 84 -42 21 -14 46 -26 55 -26 9 0 41 -16 71 -35 30 -19 61 -35 70
-35 9 0 40 -16 70 -35 30 -19 62 -35 71 -35 9 0 28 -10 43 -21 15 -12 51 -30
79 -41 29 -11 59 -26 68 -34 9 -8 44 -25 77 -38 34 -14 74 -34 88 -45 15 -12
32 -21 38 -21 11 0 161 -70 206 -97 14 -8 45 -23 70 -34 25 -11 77 -36 115
-55 39 -19 74 -34 79 -34 5 0 23 -11 40 -23 17 -13 49 -30 70 -37 22 -7 60
-26 85 -41 25 -16 50 -29 56 -29 6 0 32 -13 57 -29 25 -16 56 -32 69 -36 13
-4 44 -20 69 -35 25 -15 62 -33 82 -39 20 -7 42 -18 48 -26 7 -8 37 -24 67
-35 31 -11 67 -29 80 -40 13 -10 41 -24 61 -31 20 -6 52 -23 70 -36 18 -14 50
-29 70 -35 20 -6 50 -20 67 -33 16 -12 48 -28 70 -35 22 -7 56 -24 75 -36 19
-13 51 -29 70 -35 19 -7 49 -22 65 -34 17 -13 48 -28 70 -35 22 -7 47 -19 56
-27 9 -8 41 -23 70 -34 29 -11 65 -29 80 -40 15 -11 45 -26 66 -33 21 -8 64
-28 97 -45 32 -17 63 -31 70 -31 6 0 31 -14 56 -30 25 -16 52 -30 61 -30 8 0
35 -13 60 -29 25 -15 63 -34 85 -41 21 -7 55 -24 74 -36 19 -13 51 -29 70 -35
19 -6 49 -22 65 -34 17 -12 46 -27 65 -34 19 -6 51 -22 70 -35 19 -13 46 -27
60 -31 14 -4 45 -20 70 -35 25 -15 62 -33 82 -39 20 -7 42 -18 48 -26 7 -8 37
-24 67 -35 30 -11 70 -32 87 -45 18 -14 38 -25 44 -25 6 0 23 -5 37 -12 33
-15 33 -50 -1 -77 -15 -12 -32 -21 -38 -21 -6 0 -31 -16 -55 -35 -24 -19 -50
-35 -57 -35 -7 0 -25 -11 -41 -24 -15 -13 -48 -33 -73 -46 -25 -13 -58 -33
-73 -46 -16 -13 -35 -24 -42 -24 -7 0 -27 -11 -43 -25 -16 -13 -49 -34 -73
-45 -41 -19 -60 -31 -142 -87 -18 -12 -52 -33 -77 -46 -25 -13 -63 -35 -84
-50 -21 -15 -44 -27 -51 -27 -6 0 -20 -10 -31 -21 -10 -12 -38 -30 -61 -41
-23 -10 -45 -23 -48 -28 -4 -6 -30 -22 -58 -37 -29 -14 -65 -36 -80 -49 -16
-13 -35 -24 -42 -24 -7 0 -32 -16 -55 -35 -23 -19 -46 -35 -51 -35 -6 0 -29
-14 -52 -30 -78 -57 -112 -79 -158 -104 -25 -13 -51 -31 -57 -39 -7 -8 -27
-21 -44 -28 -33 -13 -112 -63 -158 -97 -14 -11 -45 -29 -70 -42 -25 -12 -58
-33 -73 -46 -16 -13 -35 -24 -42 -24 -7 0 -26 -11 -42 -24 -15 -13 -51 -35
-80 -49 -28 -15 -55 -32 -58 -38 -4 -6 -26 -19 -49 -30 -38 -18 -56 -29 -139
-86 -18 -12 -54 -34 -82 -49 -27 -15 -63 -37 -78 -50 -16 -13 -34 -24 -41 -24
-7 0 -21 -10 -32 -21 -10 -12 -42 -32 -70 -44 -28 -13 -55 -28 -58 -34 -4 -6
-28 -23 -54 -37 -26 -13 -61 -35 -78 -47 -39 -27 -87 -56 -133 -81 -20 -10
-51 -31 -69 -47 -18 -16 -39 -29 -46 -29 -7 0 -26 -10 -41 -22 -16 -13 -48
-34 -71 -48 -23 -14 -75 -45 -115 -70 -39 -25 -91 -56 -114 -70 -81 -48 -107
-65 -148 -97 -23 -18 -47 -33 -53 -33 -6 0 -31 -16 -55 -35 -24 -19 -48 -35
-54 -35 -9 0 -64 -34 -157 -97 -18 -13 -49 -30 -68 -39 -19 -9 -50 -29 -68
-45 -18 -16 -39 -29 -47 -29 -8 0 -29 -13 -47 -29 -18 -15 -44 -32 -58 -36
-14 -4 -41 -21 -60 -36 -19 -16 -40 -29 -46 -29 -6 0 -27 -13 -47 -29 -20 -15
-51 -34 -69 -41 -18 -8 -46 -24 -61 -37 -15 -12 -47 -32 -70 -43 -23 -11 -56
-30 -73 -43 -18 -12 -47 -31 -65 -42 -126 -76 -177 -107 -213 -132 -17 -12
-53 -34 -81 -49 -27 -15 -61 -35 -75 -46 -54 -42 -97 -69 -146 -92 -28 -13
-55 -29 -58 -35 -4 -6 -28 -23 -54 -36 -26 -14 -74 -45 -107 -70 -33 -24 -76
-55 -96 -69 -40 -27 -239 -224 -239 -236 0 -5 -15 -26 -33 -48 -19 -22 -40
-55 -47 -73 -8 -19 -24 -47 -36 -64 -12 -16 -29 -57 -39 -89 -9 -32 -23 -69
-31 -81 -18 -27 -51 -226 -60 -355 -9 -131 26 -387 66 -480 15 -36 30 -76 33
-91 4 -14 20 -45 37 -70 16 -24 30 -47 30 -51 0 -8 68 -108 128 -188 18 -25
70 -85 116 -135 45 -49 138 -153 207 -230 68 -77 136 -152 149 -166 44 -45
136 -152 198 -229 33 -41 85 -104 116 -140 31 -36 71 -82 89 -102 18 -20 64
-76 102 -123 65 -81 310 -363 402 -465 80 -88 280 -320 418 -485 77 -92 234
-276 350 -409 115 -132 302 -347 415 -478 113 -130 239 -277 280 -327 41 -51
86 -105 100 -120 14 -16 41 -48 60 -72 45 -54 326 -377 354 -406 56 -58 103
-110 222 -248 71 -82 139 -162 149 -176 11 -15 106 -126 210 -247 105 -121
233 -271 287 -334 53 -62 118 -136 145 -164 26 -28 62 -68 78 -89 28 -36 221
-262 269 -315 38 -42 109 -125 143 -166 44 -53 168 -198 286 -335 54 -63 110
-127 123 -144 14 -16 43 -50 64 -75 32 -36 313 -364 404 -470 11 -14 46 -57
76 -96 55 -70 67 -84 155 -179 26 -27 90 -101 143 -164 53 -63 187 -218 296
-345 109 -127 222 -258 250 -291 27 -33 59 -70 71 -81 58 -61 103 -112 220
-249 129 -151 211 -248 385 -450 52 -60 113 -133 134 -160 41 -52 98 -118 145
-170 35 -39 156 -180 201 -236 65 -80 222 -258 271 -308 39 -39 167 -189 224
-262 67 -87 72 -93 154 -181 58 -63 70 -81 62 -95 -11 -22 -176 -182 -296
-287 -49 -44 -102 -92 -117 -106 -15 -15 -57 -54 -95 -86 -103 -90 -334 -296
-369 -329 -16 -17 -64 -61 -105 -100 -41 -38 -136 -127 -210 -196 -74 -69
-190 -177 -258 -240 -116 -106 -347 -320 -502 -463 -36 -34 -112 -104 -169
-156 -58 -52 -116 -106 -130 -121 -14 -14 -68 -63 -120 -110 -87 -78 -365
-336 -435 -404 -17 -17 -75 -71 -130 -121 -205 -187 -353 -323 -495 -454 -81
-74 -196 -180 -256 -235 -60 -55 -122 -113 -139 -130 -16 -16 -55 -51 -85 -79
-63 -57 -166 -150 -365 -331 -130 -119 -361 -334 -446 -415 -20 -19 -71 -66
-115 -105 -43 -38 -90 -81 -104 -95 -93 -91 -256 -230 -270 -230 -23 0 -108
92 -350 380 -141 167 -522 603 -584 667 -33 35 -64 71 -70 80 -14 26 -111 143
-176 213 -19 21 -51 57 -70 80 -19 22 -48 56 -65 74 -16 19 -64 75 -105 126
-93 114 -216 258 -244 286 -31 31 -141 155 -167 189 -28 37 -182 215 -235 272
-22 23 -86 99 -144 168 -58 70 -185 220 -284 333 -98 114 -211 248 -252 297
-40 50 -97 115 -126 147 -29 31 -67 73 -85 95 -115 139 -198 238 -348 413 -93
109 -211 247 -262 307 -50 59 -111 131 -136 158 -67 75 -237 273 -281 329 -22
27 -56 65 -76 85 -44 44 -287 322 -355 406 -26 33 -55 68 -64 77 -9 9 -34 38
-56 64 -22 25 -54 61 -70 78 -17 17 -42 47 -57 66 -29 39 -267 317 -363 424
-37 41 -82 94 -175 206 -96 116 -141 169 -166 194 -26 25 -349 399 -417 482
-27 33 -77 91 -112 129 -35 39 -109 124 -165 190 -56 66 -117 138 -136 160
-19 22 -49 57 -67 78 -18 21 -44 50 -58 65 -33 34 -216 247 -247 287 -13 17
-50 59 -82 95 -67 74 -231 268 -335 396 -38 47 -79 96 -91 108 -21 21 -212
241 -287 330 -23 28 -60 68 -81 90 -36 38 -290 331 -521 601 -110 129 -221
264 -252 308 -21 29 -58 70 -208 235 -88 96 -227 232 -277 270 -75 57 -162
112 -178 112 -9 0 -32 11 -53 25 -20 14 -72 34 -115 45 -43 11 -98 27 -123 36
-35 14 -91 18 -274 22 -229 4 -231 4 -307 -22 -42 -15 -103 -34 -135 -42 -32
-8 -67 -21 -78 -28 -11 -7 -42 -21 -70 -31 -27 -10 -59 -26 -70 -35 -11 -10
-36 -26 -55 -35 -38 -19 -196 -156 -219 -189 -8 -12 -38 -48 -66 -81 -29 -33
-60 -76 -70 -95 -18 -35 -30 -52 -105 -143 -22 -27 -40 -52 -40 -58 0 -5 -16
-30 -35 -56 -19 -27 -46 -64 -60 -83 -14 -19 -39 -55 -56 -80 -16 -25 -73
-109 -127 -188 -53 -78 -106 -157 -117 -175 -11 -18 -47 -71 -80 -117 -94
-132 -134 -190 -192 -281 -12 -19 -33 -50 -48 -69 -41 -56 -73 -102 -94 -141
-11 -19 -27 -42 -36 -49 -9 -8 -28 -34 -41 -59 -14 -25 -45 -73 -69 -106 -25
-33 -54 -73 -64 -90 -19 -29 -34 -51 -86 -125 -14 -19 -33 -48 -42 -64 -10
-15 -33 -46 -50 -68 -18 -22 -33 -44 -33 -49 0 -4 -13 -23 -29 -41 -15 -18
-36 -46 -45 -63 -9 -16 -36 -57 -61 -90 -24 -33 -52 -73 -61 -90 -9 -16 -26
-41 -39 -55 -12 -14 -35 -47 -51 -74 -16 -26 -40 -65 -54 -86 -14 -21 -51 -78
-84 -126 -32 -49 -67 -100 -77 -114 -10 -14 -29 -43 -40 -65 -12 -22 -35 -56
-50 -75 -16 -19 -29 -40 -29 -46 0 -6 -9 -19 -21 -30 -12 -10 -32 -39 -46 -64
-13 -25 -42 -70 -64 -100 -22 -30 -69 -99 -105 -152 -36 -54 -69 -100 -75
-103 -5 -4 -18 -23 -30 -43 -21 -39 -51 -84 -94 -142 -26 -35 -72 -104 -110
-166 -12 -18 -29 -42 -40 -54 -11 -12 -31 -41 -45 -65 -45 -77 -92 -145 -99
-145 -4 0 -15 -17 -25 -37 -9 -20 -26 -48 -37 -62 -11 -14 -32 -44 -46 -66
-50 -75 -133 -200 -153 -230 -29 -42 -81 -122 -106 -161 -11 -19 -30 -44 -41
-56 -11 -13 -26 -34 -33 -48 -7 -14 -22 -36 -32 -50 -18 -23 -47 -67 -103
-155 -71 -112 -111 -170 -166 -238 -14 -18 -37 -53 -52 -78 -24 -42 -58 -66
-78 -53 -4 2 -11 26 -14 52 -4 26 -20 74 -35 107 -16 33 -32 83 -36 110 -3 28
-17 68 -30 90 -13 22 -30 70 -39 107 -8 37 -26 88 -39 115 -13 26 -27 66 -30
88 -4 22 -18 62 -32 88 -14 27 -30 74 -35 105 -6 31 -22 78 -35 104 -14 27
-29 72 -34 101 -6 28 -19 69 -30 90 -11 21 -29 72 -40 113 -11 42 -27 85 -35
97 -7 12 -23 57 -35 100 -11 43 -27 88 -35 100 -8 12 -21 53 -30 91 -9 38 -25
86 -36 107 -10 21 -25 64 -33 96 -7 32 -24 81 -38 108 -14 28 -29 70 -33 95
-4 25 -18 66 -31 91 -12 25 -30 77 -39 114 -8 38 -25 83 -36 101 -11 18 -26
61 -33 96 -7 35 -22 81 -34 103 -11 22 -27 68 -36 103 -8 34 -22 72 -30 85 -9
12 -22 53 -31 91 -9 38 -27 88 -40 110 -13 23 -27 61 -31 86 -3 25 -19 72 -35
106 -16 33 -33 84 -39 113 -5 30 -19 68 -30 86 -11 17 -27 62 -35 100 -9 37
-24 84 -34 104 -10 20 -26 67 -36 106 -9 38 -27 90 -40 115 -13 25 -26 65 -30
90 -4 25 -18 65 -30 90 -12 25 -28 70 -35 100 -7 30 -25 80 -40 110 -15 30
-30 75 -34 100 -4 24 -16 65 -27 90 -12 25 -27 71 -35 103 -8 31 -25 79 -38
105 -13 26 -29 71 -35 100 -6 29 -22 74 -35 100 -13 26 -27 67 -31 92 -4 25
-18 66 -31 93 -13 26 -31 77 -40 114 -8 36 -23 82 -33 102 -10 20 -24 61 -30
91 -7 30 -23 78 -36 105 -13 28 -31 81 -39 118 -9 37 -23 78 -31 90 -8 13 -24
58 -34 99 -11 42 -29 95 -40 117 -12 22 -26 64 -32 93 -6 29 -22 73 -34 98
-12 25 -28 72 -35 105 -7 33 -20 74 -30 90 -10 17 -28 66 -40 110 -12 44 -28
90 -36 102 -8 13 -21 53 -30 89 -8 37 -23 83 -33 103 -10 20 -28 70 -39 112
-12 42 -30 92 -40 110 -11 19 -23 53 -26 77 -4 24 -17 65 -30 90 -13 26 -29
74 -36 107 -7 33 -22 80 -35 105 -12 25 -28 70 -35 100 -7 30 -24 77 -37 103
-13 26 -29 74 -34 105 -6 31 -19 71 -30 88 -10 17 -28 65 -38 105 -11 41 -31
101 -45 134 -14 33 -26 68 -26 78 0 10 -13 49 -29 86 -16 37 -34 91 -40 121
-6 29 -20 68 -31 85 -11 17 -26 63 -34 102 -9 39 -24 86 -35 104 -11 19 -27
64 -35 100 -8 37 -24 82 -36 101 -11 19 -25 61 -31 93 -6 33 -22 81 -35 107
-13 26 -29 71 -35 100 -6 29 -22 73 -34 98 -12 25 -28 72 -35 105 -7 33 -21
76 -31 96 -10 21 -28 72 -39 114 -11 42 -29 94 -39 114 -11 20 -23 55 -27 76
-3 22 -15 57 -25 77 -10 20 -28 72 -40 115 -12 43 -30 94 -40 114 -10 20 -25
66 -33 103 -9 36 -24 83 -34 104 -11 20 -27 68 -36 105 -9 38 -27 90 -40 115
-14 26 -28 67 -31 92 -4 25 -18 65 -31 90 -13 25 -28 70 -34 100 -6 29 -23 81
-39 114 -16 34 -32 79 -36 101 -4 21 -16 57 -27 80 -12 22 -27 68 -34 103 -8
34 -25 83 -38 110 -13 26 -29 74 -36 107 -7 33 -21 77 -31 97 -11 21 -25 63
-33 95 -7 32 -24 81 -38 108 -14 28 -29 70 -33 95 -4 25 -17 65 -30 90 -12 25
-28 72 -35 105 -6 33 -25 89 -40 125 -16 36 -32 83 -36 105 -3 22 -17 61 -30
86 -13 25 -30 76 -38 113 -9 37 -23 80 -31 95 -8 16 -24 64 -36 106 -11 42
-29 91 -39 108 -10 18 -23 58 -29 91 -6 32 -19 72 -30 90 -11 17 -29 66 -41
109 -11 43 -27 88 -35 100 -8 12 -21 50 -28 84 -8 34 -26 86 -40 116 -14 30
-28 74 -32 98 -4 24 -18 65 -31 90 -12 25 -30 76 -38 113 -9 36 -22 76 -30 89
-8 12 -22 54 -31 92 -9 39 -27 94 -41 124 -13 30 -31 84 -40 120 -8 36 -21 75
-28 86 -8 11 -23 56 -35 99 -12 42 -30 94 -40 114 -10 20 -24 61 -31 91 -7 30
-21 69 -31 86 -10 16 -25 61 -34 99 -9 38 -25 86 -36 107 -10 21 -25 64 -33
96 -7 32 -22 76 -34 99 -11 23 -28 71 -36 108 -9 36 -25 84 -36 106 -11 22
-27 70 -36 107 -8 38 -22 78 -30 90 -8 13 -21 53 -30 90 -8 37 -26 90 -39 118
-13 27 -29 72 -35 98 -6 27 -22 75 -35 108 -14 32 -30 82 -36 111 -6 29 -22
74 -35 100 -13 26 -29 71 -35 100 -6 29 -22 73 -34 99 -13 25 -27 63 -30 85
-4 21 -20 69 -36 105 -15 36 -33 87 -39 115 -6 27 -22 67 -34 89 -13 22 -27
63 -30 90 -4 28 -18 68 -31 90 -12 22 -28 66 -35 98 -6 32 -23 80 -36 105 -13
26 -29 74 -35 107 -6 32 -21 80 -33 105 -13 25 -28 72 -36 105 -7 33 -23 80
-35 105 -13 25 -28 71 -34 102 -5 31 -21 79 -34 105 -14 26 -28 68 -32 93 -4
25 -18 70 -32 100 -14 30 -31 81 -39 113 -8 32 -23 75 -33 96 -11 21 -27 67
-35 103 -8 36 -26 90 -39 119 -14 30 -30 78 -36 107 -6 29 -19 69 -30 90 -10
20 -24 64 -31 97 -7 33 -23 80 -35 105 -12 25 -28 72 -35 105 -7 33 -20 74
-31 91 -10 17 -26 60 -34 95 -9 35 -27 87 -40 114 -14 28 -29 74 -35 102 -5
29 -19 71 -30 93 -11 22 -27 70 -36 106 -8 37 -26 88 -39 113 -13 26 -28 71
-33 101 -6 30 -22 80 -36 110 -14 30 -26 63 -26 73 0 10 -16 58 -34 107 -19
49 -38 106 -42 127 -4 21 -17 59 -30 85 -13 26 -29 71 -35 100 -6 29 -22 71
-35 93 -13 22 -30 71 -39 107 -8 37 -24 82 -34 100 -11 18 -25 60 -31 93 -7
33 -23 80 -35 105 -12 25 -28 70 -34 100 -7 30 -22 77 -35 105 -13 27 -27 70
-31 95 -4 25 -18 66 -31 92 -13 26 -31 78 -40 114 -8 37 -24 84 -35 105 -10
21 -26 68 -35 105 -8 36 -21 76 -29 88 -7 11 -23 55 -34 97 -10 42 -29 97 -41
123 -11 26 -26 72 -31 103 -6 32 -21 78 -34 103 -12 25 -28 71 -35 104 -6 32
-25 86 -41 120 -16 33 -29 70 -29 81 0 11 -13 47 -29 81 -16 34 -32 81 -36
105 -4 24 -20 73 -35 109 -16 36 -34 89 -39 118 -6 29 -20 70 -31 92 -11 22
-27 69 -35 104 -8 36 -26 86 -39 113 -13 26 -27 68 -31 93 -4 25 -18 64 -31
87 -13 23 -30 70 -37 105 -8 35 -23 81 -35 104 -11 23 -28 70 -36 106 -8 36
-24 81 -36 100 -11 19 -25 61 -31 94 -6 32 -20 76 -30 97 -11 21 -28 71 -38
111 -10 40 -26 84 -34 97 -9 14 -25 58 -36 99 -11 41 -31 102 -45 135 -14 33
-26 72 -26 86 0 14 -11 48 -25 74 -14 26 -33 77 -41 112 -8 35 -23 80 -34 101
-11 20 -27 69 -35 107 -9 39 -25 84 -36 101 -10 17 -25 63 -34 103 -8 39 -24
90 -35 112 -12 22 -25 65 -31 95 -6 30 -23 83 -40 117 -16 34 -29 73 -29 87 0
14 -13 52 -29 86 -16 33 -34 84 -40 113 -6 28 -22 73 -35 99 -13 26 -29 74
-36 107 -7 33 -22 78 -33 100 -11 22 -26 69 -34 105 -7 35 -23 80 -34 99 -11
18 -27 63 -35 99 -8 36 -26 86 -38 111 -13 25 -27 66 -31 91 -4 25 -20 70 -35
100 -15 30 -31 75 -35 100 -3 25 -18 67 -31 93 -14 27 -30 74 -35 105 -6 30
-22 76 -35 102 -13 25 -29 73 -35 105 -6 33 -19 74 -30 91 -10 17 -25 63 -34
103 -8 39 -24 89 -35 111 -11 22 -27 70 -36 107 -8 36 -24 85 -35 107 -11 23
-26 69 -34 104 -8 34 -26 84 -39 110 -13 26 -27 70 -31 97 -4 28 -18 70 -30
95 -13 25 -28 72 -35 105 -7 33 -25 89 -40 125 -15 36 -33 89 -39 118 -6 29
-20 72 -30 95 -11 23 -24 68 -30 99 -6 32 -21 81 -35 110 -14 29 -32 83 -40
119 -8 37 -27 92 -41 124 -33 77 -33 115 1 115 7 0 48 -18 90 -40z"/>
  </g>
</svg>