<svg xmlns="http://www.w3.org/2000/svg" viewBox="0 0 4096.000000 4096.000000">
  <g transform="translate(0.000000,4096.000000) scale(0.100000,-0.100000)" fill="#f4f5f7" stroke="none">
    <path d="M24189 40436 c-2 -2 -56 -11 -119 -20 -63 -9 -139 -24 -169 -32 -30
-9 -93 -22 -141 -29 -47 -8 -102 -21 -121 -29 -19 -7 -63 -17 -99 -21 -36 -4
-85 -15 -110 -25 -25 -9 -74 -20 -110 -24 -35 -4 -89 -16 -120 -26 -30 -11
-92 -24 -137 -30 -46 -6 -97 -17 -115 -24 -18 -7 -62 -17 -96 -20 -35 -4 -92
-16 -126 -26 -34 -11 -93 -24 -132 -29 -38 -6 -90 -17 -114 -26 -25 -9 -78
-20 -118 -26 -40 -6 -90 -16 -112 -24 -21 -8 -76 -19 -122 -25 -46 -7 -107
-20 -136 -31 -29 -10 -67 -19 -85 -19 -18 0 -57 -7 -87 -15 -30 -9 -100 -24
-155 -34 -55 -11 -114 -24 -131 -30 -17 -7 -68 -18 -115 -25 -103 -17 -323
-64 -564 -121 -38 -9 -95 -21 -125 -26 -221 -39 -346 -83 -413 -147 -16 -15
-45 -52 -65 -82 -29 -45 -37 -70 -45 -139 -13 -101 5 -444 28 -566 9 -44 22
-167 30 -275 8 -107 19 -220 25 -250 6 -30 17 -143 25 -250 8 -107 21 -244 29
-305 8 -60 20 -182 25 -270 6 -88 17 -200 25 -250 8 -49 20 -162 26 -250 6
-88 17 -205 25 -260 8 -55 19 -166 25 -247 5 -81 16 -188 25 -238 9 -50 20
-159 25 -243 9 -141 25 -291 34 -306 2 -3 9 -87 16 -186 6 -99 18 -223 25
-277 8 -53 19 -176 25 -275 6 -98 18 -218 26 -267 8 -49 21 -175 29 -280 8
-105 19 -216 25 -246 6 -30 17 -141 25 -247 8 -106 19 -212 24 -235 6 -24 15
-110 21 -193 6 -82 20 -231 31 -330 10 -99 23 -243 29 -320 5 -77 16 -178 24
-225 8 -47 20 -157 26 -245 6 -88 17 -196 25 -240 8 -44 19 -154 25 -245 10
-150 25 -284 34 -299 2 -3 9 -82 16 -176 6 -93 18 -208 26 -255 8 -47 19 -148
25 -225 5 -77 16 -185 25 -240 8 -55 19 -170 25 -255 5 -85 19 -211 29 -280
10 -69 22 -181 25 -250 4 -69 15 -179 25 -245 10 -66 23 -190 29 -275 6 -85
17 -189 25 -230 9 -41 20 -151 25 -245 6 -93 17 -214 26 -268 8 -54 19 -160
25 -235 6 -75 17 -173 25 -217 8 -44 19 -154 25 -245 6 -91 15 -190 20 -220 5
-30 12 -87 16 -126 6 -69 5 -71 -21 -92 -15 -12 -43 -24 -64 -28 -20 -4 -56
-17 -81 -30 -25 -13 -54 -24 -65 -24 -11 0 -38 -12 -60 -25 -22 -14 -47 -25
-55 -25 -8 0 -36 -11 -62 -25 -26 -14 -53 -25 -60 -25 -7 0 -29 -8 -48 -19
-19 -10 -53 -24 -75 -31 -22 -7 -51 -21 -64 -31 -13 -11 -33 -19 -45 -19 -12
0 -41 -11 -66 -24 -25 -13 -58 -26 -74 -30 -17 -4 -41 -15 -55 -25 -14 -10
-40 -21 -57 -25 -16 -4 -52 -18 -79 -31 -26 -14 -54 -25 -61 -25 -7 0 -34 -11
-60 -25 -26 -14 -54 -25 -62 -25 -8 0 -29 -8 -46 -19 -17 -10 -47 -24 -67 -30
-20 -6 -53 -20 -74 -31 -22 -11 -45 -20 -52 -20 -6 0 -33 -11 -59 -25 -26 -14
-54 -25 -63 -25 -9 0 -34 -11 -56 -25 -22 -13 -49 -25 -60 -25 -12 0 -38 -9
-60 -20 -21 -11 -54 -25 -74 -31 -20 -6 -58 -22 -85 -35 -28 -13 -56 -24 -62
-24 -7 0 -34 -11 -60 -25 -26 -14 -54 -25 -63 -25 -9 0 -29 -9 -46 -20 -16
-11 -37 -20 -46 -20 -9 0 -37 -11 -62 -24 -25 -14 -60 -29 -79 -35 -40 -11
-161 -62 -203 -85 -16 -9 -37 -16 -45 -16 -8 0 -42 -14 -75 -30 -33 -17 -64
-30 -70 -30 -5 0 -32 -11 -59 -25 -27 -14 -57 -25 -65 -25 -9 0 -27 -9 -41
-20 -14 -11 -31 -20 -39 -20 -8 0 -33 -9 -55 -19 -56 -26 -163 -70 -211 -86
-22 -7 -58 -23 -80 -34 -21 -12 -45 -21 -53 -21 -7 0 -34 -11 -60 -25 -26 -14
-53 -25 -60 -25 -7 0 -34 -11 -60 -25 -26 -14 -55 -25 -64 -25 -9 0 -38 -11
-64 -25 -26 -14 -53 -25 -61 -25 -8 0 -35 -11 -61 -25 -26 -14 -54 -25 -62
-25 -8 0 -28 -7 -45 -16 -29 -16 -98 -43 -215 -86 -30 -11 -59 -24 -65 -28 -5
-4 -37 -18 -70 -30 -126 -46 -161 -60 -200 -80 -21 -11 -46 -20 -55 -20 -8 0
-33 -12 -55 -25 -22 -14 -48 -25 -57 -25 -17 0 -71 -23 -183 -76 -27 -13 -63
-27 -80 -30 -16 -4 -46 -15 -65 -25 -71 -36 -225 -101 -295 -124 -22 -8 -58
-23 -80 -34 -21 -12 -45 -21 -53 -21 -7 0 -34 -11 -60 -25 -26 -14 -52 -25
-59 -25 -7 0 -33 -11 -59 -25 -26 -14 -53 -25 -61 -25 -7 0 -36 -11 -63 -25
-27 -14 -55 -25 -62 -25 -7 0 -35 -11 -63 -25 -27 -13 -57 -25 -66 -25 -9 0
-37 -11 -63 -25 -26 -14 -53 -25 -60 -25 -7 0 -34 -11 -60 -25 -26 -14 -52
-25 -59 -25 -7 0 -32 -10 -57 -22 -44 -20 -91 -40 -195 -78 -27 -11 -68 -28
-90 -40 -21 -11 -45 -20 -52 -20 -6 0 -33 -11 -59 -25 -26 -14 -53 -25 -61
-25 -7 0 -36 -11 -63 -25 -27 -14 -54 -25 -60 -25 -12 0 -120 -48 -182 -81
-20 -10 -43 -19 -50 -19 -7 0 -40 -14 -73 -30 -33 -17 -65 -30 -72 -30 -6 0
-33 -11 -59 -25 -26 -14 -54 -25 -62 -25 -8 0 -29 -9 -46 -19 -17 -10 -47 -22
-66 -26 -19 -4 -48 -15 -65 -25 -16 -10 -46 -23 -65 -28 -42 -13 -157 -58
-184 -73 -11 -6 -44 -20 -74 -30 -30 -10 -60 -23 -66 -28 -6 -4 -29 -14 -51
-21 -22 -7 -53 -21 -70 -31 -16 -11 -37 -19 -46 -19 -9 0 -37 -11 -63 -25 -26
-14 -55 -25 -64 -25 -9 0 -37 -11 -62 -24 -25 -13 -61 -27 -80 -31 -19 -4 -48
-15 -65 -25 -16 -10 -46 -21 -65 -25 -19 -4 -46 -15 -60 -25 -14 -10 -41 -22
-60 -28 -40 -12 -145 -54 -206 -83 -22 -10 -47 -19 -55 -19 -8 0 -32 -12 -54
-25 -22 -14 -47 -25 -55 -25 -8 0 -42 -14 -75 -30 -33 -17 -66 -30 -75 -30 -8
0 -26 -9 -40 -20 -14 -11 -34 -20 -45 -20 -11 0 -47 -14 -80 -30 -33 -17 -66
-30 -75 -30 -9 0 -25 -6 -36 -14 -11 -8 -47 -24 -80 -36 -127 -46 -160 -60
-199 -80 -21 -11 -45 -20 -52 -20 -6 0 -33 -11 -59 -25 -26 -14 -53 -25 -60
-25 -7 0 -34 -11 -60 -25 -26 -14 -57 -25 -68 -25 -12 0 -38 -11 -58 -25 -20
-14 -47 -25 -60 -25 -13 0 -44 -11 -70 -25 -26 -14 -53 -25 -61 -25 -8 0 -35
-11 -61 -25 -26 -14 -53 -25 -59 -25 -7 0 -31 -9 -52 -21 -22 -11 -60 -27 -85
-34 -25 -8 -63 -24 -85 -35 -21 -11 -45 -20 -52 -20 -6 0 -33 -11 -59 -25 -26
-14 -53 -25 -61 -25 -8 0 -35 -11 -61 -25 -26 -14 -54 -25 -62 -25 -8 0 -37
-12 -65 -25 -27 -14 -57 -25 -65 -25 -8 0 -29 -9 -47 -19 -17 -11 -50 -25 -73
-31 -23 -6 -56 -20 -73 -31 -18 -10 -39 -19 -47 -19 -8 0 -36 -11 -62 -25 -26
-14 -53 -25 -60 -25 -7 0 -40 -14 -73 -30 -33 -16 -66 -30 -73 -30 -6 0 -29
-9 -49 -20 -21 -11 -45 -20 -53 -20 -8 0 -34 -11 -57 -24 -23 -13 -56 -27 -74
-31 -17 -4 -46 -15 -63 -25 -17 -10 -49 -23 -71 -30 -22 -7 -53 -21 -70 -31
-16 -11 -39 -19 -50 -19 -11 0 -38 -11 -60 -25 -22 -13 -48 -25 -58 -25 -10 0
-40 -11 -67 -25 -27 -14 -55 -25 -62 -25 -7 0 -35 -11 -63 -25 -27 -13 -57
-25 -65 -25 -8 0 -36 -11 -62 -25 -26 -14 -53 -25 -61 -25 -8 0 -35 -11 -61
-25 -26 -14 -52 -25 -59 -25 -7 0 -39 -14 -72 -30 -33 -16 -67 -30 -75 -30 -8
0 -24 -7 -34 -15 -10 -8 -42 -22 -70 -31 -28 -9 -58 -22 -66 -30 -8 -7 -28
-16 -45 -20 -28 -6 -135 -52 -180 -77 -18 -9 -77 -32 -190 -73 -22 -8 -56 -23
-76 -34 -20 -11 -43 -20 -51 -20 -7 0 -31 -9 -53 -20 -21 -11 -54 -25 -74 -31
-20 -6 -52 -20 -71 -30 -19 -10 -55 -26 -80 -35 -25 -9 -69 -25 -97 -35 -29
-11 -67 -28 -85 -39 -18 -11 -41 -20 -51 -20 -10 0 -39 -11 -65 -25 -26 -14
-54 -25 -62 -25 -8 0 -37 -12 -65 -25 -27 -14 -57 -25 -65 -25 -8 0 -36 -11
-62 -25 -26 -14 -55 -25 -64 -25 -9 0 -33 -9 -53 -20 -20 -11 -54 -26 -76 -34
-62 -22 -146 -57 -196 -82 -26 -13 -54 -24 -62 -24 -9 0 -37 -11 -63 -25 -26
-14 -54 -25 -62 -25 -8 0 -29 -9 -46 -19 -17 -11 -50 -24 -74 -31 -24 -6 -58
-20 -75 -31 -18 -10 -39 -19 -47 -19 -8 0 -37 -11 -65 -25 -27 -13 -57 -25
-65 -25 -8 0 -33 -11 -55 -25 -22 -13 -47 -25 -56 -25 -9 0 -37 -11 -63 -25
-26 -14 -53 -25 -60 -25 -7 0 -34 -11 -60 -25 -26 -14 -53 -25 -59 -25 -7 0
-31 -9 -52 -20 -37 -19 -64 -30 -200 -80 -153 -55 -267 -146 -326 -260 l-34
-65 -3 -8078 -2 -8079 34 -76 c20 -46 53 -99 82 -130 54 -60 149 -128 191
-138 15 -4 41 -14 58 -22 16 -8 52 -21 80 -27 27 -7 86 -27 130 -45 100 -40
374 -137 439 -155 26 -8 54 -19 61 -25 11 -9 73 -32 200 -75 28 -9 69 -25 91
-35 23 -10 59 -22 80 -26 22 -4 50 -12 64 -19 45 -23 217 -65 263 -65 25 0 83
12 128 27 75 24 89 33 148 93 48 48 73 83 89 126 13 32 28 82 32 109 5 28 9
379 9 780 0 402 8 1583 16 2625 9 1042 19 2314 23 2825 l7 930 51 -2 c28 -1
71 -10 95 -19 24 -9 73 -24 109 -34 63 -18 105 -32 208 -66 26 -9 74 -23 107
-31 33 -8 80 -23 105 -33 25 -10 65 -21 90 -25 25 -4 62 -16 82 -26 21 -11 44
-19 53 -19 8 0 47 -11 87 -24 79 -26 174 -55 338 -105 58 -18 139 -43 180 -56
41 -13 93 -26 115 -30 22 -3 49 -13 61 -20 11 -7 46 -18 77 -24 30 -5 73 -17
94 -27 21 -9 61 -22 88 -29 28 -7 70 -20 95 -29 25 -8 65 -22 90 -30 25 -7 59
-18 75 -24 17 -5 59 -20 95 -32 36 -12 94 -29 130 -39 36 -10 79 -23 95 -29
34 -12 208 -64 270 -80 43 -11 113 -33 185 -58 25 -9 70 -22 100 -29 53 -14
131 -37 235 -71 28 -9 82 -25 120 -35 39 -11 84 -25 100 -33 17 -8 56 -19 87
-26 32 -6 60 -15 63 -20 3 -5 31 -14 63 -20 31 -6 78 -20 104 -31 26 -10 57
-19 70 -19 13 -1 48 -10 78 -21 30 -11 82 -26 115 -34 33 -7 80 -23 105 -34
25 -11 56 -21 70 -21 14 0 39 -7 55 -16 17 -9 62 -24 100 -34 82 -22 151 -44
220 -70 28 -11 72 -24 99 -30 26 -6 61 -17 77 -26 16 -8 55 -20 86 -25 32 -6
74 -19 95 -30 20 -10 48 -19 60 -19 13 -1 41 -8 63 -16 22 -9 76 -26 120 -39
44 -12 94 -27 110 -33 49 -18 196 -62 255 -77 30 -7 73 -20 95 -29 22 -8 50
-15 63 -16 12 0 40 -9 61 -20 22 -11 59 -23 83 -26 23 -4 63 -16 87 -26 24
-10 65 -23 90 -29 25 -5 69 -18 96 -28 100 -36 211 -71 229 -71 16 0 100 -26
246 -75 25 -9 74 -24 110 -34 71 -21 140 -43 210 -67 25 -9 71 -22 103 -29 31
-7 81 -22 110 -34 28 -11 64 -23 80 -26 15 -3 37 -15 48 -26 20 -20 20 -28 19
-3883 l-1 -3864 34 -74 c37 -77 102 -152 171 -196 50 -31 189 -87 241 -96 22
-5 51 -14 65 -21 39 -22 151 -66 193 -76 22 -5 56 -18 77 -29 22 -11 47 -20
57 -20 10 0 41 -11 68 -24 28 -12 68 -26 89 -30 21 -4 57 -16 80 -26 49 -22
151 -56 226 -75 154 -39 137 -39 235 -5 50 17 119 40 154 50 35 11 69 24 75
29 7 6 37 16 67 22 30 6 63 17 74 24 11 6 47 20 80 30 33 9 65 20 70 25 6 4
39 17 75 28 36 11 97 32 135 47 39 15 90 34 115 42 62 21 159 60 195 80 17 9
42 22 57 30 15 8 52 41 82 74 38 42 64 84 87 142 l34 82 2 3840 c2 2112 5
3850 8 3862 4 15 19 26 57 38 29 10 63 24 76 32 12 7 48 18 80 24 31 6 67 17
79 25 12 8 46 19 75 25 29 6 63 17 74 24 12 8 45 21 75 29 30 8 92 29 139 46
47 18 108 39 135 47 28 8 70 23 95 33 62 25 164 58 230 75 30 8 73 24 95 35
21 11 51 20 65 20 14 0 48 11 75 25 28 13 59 25 70 25 11 0 43 11 70 24 28 12
68 26 89 30 21 4 48 14 60 21 12 8 44 19 71 26 28 6 67 20 87 30 21 11 45 19
55 19 10 0 41 11 68 24 28 12 68 26 90 30 21 4 55 16 75 26 20 10 54 22 75 26
22 4 62 18 90 30 27 13 58 24 68 24 10 0 43 11 73 25 30 14 60 25 67 25 7 0
35 11 62 25 28 13 59 25 70 25 11 0 43 11 70 24 28 12 68 26 90 30 21 4 55 16
75 25 19 10 53 22 75 25 21 4 55 16 75 25 19 10 53 22 75 25 21 4 55 16 75 26
20 10 53 22 75 26 21 4 53 15 69 24 17 10 49 21 71 25 22 3 50 13 62 21 12 8
48 21 79 29 31 8 67 21 78 29 12 7 45 18 75 25 29 6 65 18 80 25 14 8 80 31
146 52 66 20 125 41 131 46 7 5 40 17 75 27 78 23 148 47 214 73 28 11 76 26
108 34 32 8 68 20 80 28 12 8 40 18 62 22 22 4 56 15 75 25 20 9 54 21 75 25
22 3 56 15 75 24 61 31 191 80 210 80 10 0 42 11 72 25 29 14 62 25 73 25 11
0 44 11 73 25 30 14 64 25 75 25 12 0 45 11 72 24 28 12 68 26 90 30 22 4 53
15 69 23 17 9 53 22 81 29 27 7 88 27 135 44 47 18 105 39 130 47 25 8 73 25
108 39 34 13 69 24 77 24 8 0 34 10 59 21 25 13 51 19 61 15 16 -6 17 -69 12
-1094 -3 -622 -1 -1151 4 -1236 9 -140 11 -153 41 -205 17 -31 47 -73 67 -94
62 -66 199 -136 336 -172 28 -7 70 -22 95 -34 25 -11 53 -21 64 -21 10 0 39
-11 65 -24 25 -13 80 -36 121 -51 41 -15 102 -37 135 -50 33 -12 76 -26 95
-30 19 -3 58 -15 85 -25 28 -10 75 -23 105 -30 30 -6 67 -13 81 -16 28 -6 186
29 229 51 14 7 49 18 78 25 28 6 55 16 58 21 3 5 31 16 62 25 31 9 71 25 88
35 17 11 38 19 45 19 8 0 35 11 61 25 26 14 55 25 64 25 9 0 42 11 73 24 31
13 76 31 101 39 174 58 206 76 285 153 67 66 105 132 116 202 23 143 28 473
28 1837 1 803 1 1466 1 1472 0 7 13 19 29 28 39 20 151 62 227 84 33 10 73 25
90 33 16 9 46 18 67 22 21 4 52 15 70 25 18 11 50 22 72 26 21 4 55 15 75 25
19 9 51 21 70 25 19 4 53 15 75 25 22 10 60 25 85 33 79 26 143 49 208 73 34
13 70 24 80 24 9 0 40 12 67 25 28 14 61 25 75 25 14 0 44 9 65 20 22 12 60
25 84 31 24 5 62 18 85 28 22 10 57 22 76 26 19 4 44 13 56 20 11 7 41 18 65
24 24 7 64 20 89 31 42 17 83 31 190 66 25 8 59 20 75 26 17 5 50 17 75 25 25
9 68 24 95 35 28 11 70 24 94 29 24 5 50 14 58 20 7 6 41 20 76 30 96 28 188
59 232 79 22 10 64 23 93 30 28 7 54 16 57 20 3 4 29 13 57 20 29 7 67 20 84
30 16 9 48 20 70 24 21 3 59 15 84 25 25 10 70 29 100 41 30 12 80 29 110 37
30 8 60 19 66 24 6 5 42 18 80 28 77 21 147 45 214 73 25 10 68 25 95 33 70
19 194 63 232 80 17 8 37 15 45 15 7 0 36 11 63 24 28 12 68 26 90 30 21 4 55
16 75 26 20 10 54 21 75 25 22 4 50 13 61 21 12 7 50 20 85 29 35 9 77 24 94
32 16 9 46 20 65 24 19 4 58 16 85 27 67 26 137 50 212 72 35 9 68 22 75 28 7
5 38 17 68 26 88 24 182 56 225 76 22 10 56 21 75 25 19 4 53 16 75 26 22 10
61 25 88 33 118 40 146 49 198 72 31 13 64 24 73 24 9 0 31 7 47 16 17 8 37
13 44 11 10 -4 14 -338 19 -1689 4 -926 12 -2268 17 -2983 6 -715 14 -1736 18
-2270 l6 -970 38 -77 c20 -42 57 -96 81 -120 59 -60 157 -108 240 -118 75 -9
162 5 236 39 25 11 51 21 59 21 8 0 32 9 55 19 23 11 61 26 86 34 93 32 166
58 195 72 17 7 50 20 75 29 25 8 83 29 130 46 47 17 110 39 140 49 30 10 64
23 75 29 20 12 98 40 190 69 28 8 70 24 95 34 25 10 63 23 85 28 22 6 58 20
80 31 21 11 44 20 50 20 5 0 35 17 65 38 81 56 138 137 166 235 l24 81 2 5966
c0 3281 1 5983 1 6005 0 22 -1 1505 -1 3295 -2 2605 0 3256 10 3266 18 16 146
63 298 109 25 8 90 30 145 50 55 20 120 40 145 46 98 22 230 104 293 181 19
24 47 72 63 108 l29 65 0 6320 0 6320 -29 65 c-36 80 -82 149 -127 188 -19 16
-61 43 -94 60 -45 22 -81 32 -140 37 -44 4 -105 13 -135 20 -30 8 -104 19
-165 25 -60 6 -155 19 -210 29 -55 11 -147 25 -205 31 -58 7 -115 16 -127 21
-12 5 -73 13 -135 19 -62 6 -151 20 -198 30 -47 10 -119 21 -160 25 -41 3
-115 15 -165 25 -49 10 -124 22 -165 25 -41 4 -117 15 -169 26 -51 10 -141 23
-200 29 -58 5 -122 15 -141 20 -19 6 -114 19 -210 30 -96 11 -189 24 -207 29
-17 5 -83 14 -145 21 -62 6 -135 17 -163 25 -27 8 -99 19 -159 25 -60 6 -137
18 -170 26 -34 8 -106 19 -161 24 -55 6 -129 17 -165 25 -36 9 -112 22 -170
29 -102 13 -273 41 -435 72 -44 8 -132 22 -195 29 -63 8 -144 21 -180 29 -36
8 -99 17 -140 21 -41 3 -118 15 -170 25 -52 10 -144 24 -205 30 -60 6 -135 17
-165 25 -30 7 -91 16 -135 20 -44 4 -123 15 -175 26 -52 10 -140 23 -195 29
-55 6 -127 17 -160 25 -33 7 -105 19 -160 25 -55 6 -127 18 -160 26 -33 7
-105 18 -160 24 -55 7 -143 20 -195 30 -52 10 -131 21 -175 25 -44 4 -104 13
-133 21 -29 8 -112 21 -185 29 -72 7 -161 20 -197 29 -36 8 -105 17 -155 21
-49 4 -128 15 -175 25 -47 10 -134 24 -195 30 -60 6 -135 17 -165 25 -30 8
-89 17 -130 20 -41 3 -122 15 -180 25 -58 11 -153 24 -211 30 -59 6 -131 17
-160 24 -30 8 -101 20 -159 26 -58 6 -130 18 -161 26 -31 7 -100 18 -154 24
-54 6 -124 17 -155 25 -32 8 -123 22 -202 30 -78 8 -159 19 -178 24 -19 6 -96
17 -170 26 -74 9 -160 22 -190 30 -30 7 -95 16 -145 20 -49 4 -126 15 -171 25
-44 11 -116 22 -160 26 -43 4 -110 13 -149 21 -87 18 -158 28 -305 43 -63 6
-122 13 -131 16 -8 2 -17 2 -20 0z m139 -847 c13 -5 78 -14 145 -19 67 -6 158
-19 202 -30 44 -10 129 -23 188 -30 60 -6 119 -15 131 -20 13 -5 70 -14 127
-20 57 -6 151 -19 209 -30 58 -11 154 -24 214 -30 61 -6 134 -17 163 -25 29
-8 85 -17 125 -20 40 -4 118 -15 173 -25 55 -11 134 -24 175 -30 41 -6 100
-17 130 -25 30 -7 102 -18 160 -24 58 -6 152 -20 210 -30 58 -11 152 -24 209
-31 56 -6 114 -15 127 -21 14 -5 77 -14 142 -20 64 -6 153 -19 197 -29 44 -10
114 -21 155 -25 41 -4 116 -15 165 -25 50 -10 128 -22 175 -25 47 -4 121 -15
165 -25 44 -10 134 -23 200 -29 66 -6 144 -18 173 -25 30 -8 95 -18 145 -21
51 -4 135 -16 187 -26 52 -11 140 -24 195 -30 55 -5 125 -16 156 -24 31 -8
103 -19 160 -25 57 -5 147 -19 199 -29 52 -11 132 -22 178 -26 46 -4 109 -13
139 -21 31 -8 101 -19 157 -24 56 -6 144 -19 196 -29 52 -11 144 -24 203 -31
60 -6 120 -15 134 -21 14 -5 82 -16 152 -24 69 -8 144 -19 166 -25 22 -5 99
-17 170 -25 72 -9 157 -22 190 -30 33 -8 107 -19 165 -25 58 -6 132 -18 165
-25 33 -8 105 -19 160 -25 55 -6 127 -18 160 -26 33 -7 112 -19 175 -24 63 -6
144 -18 180 -26 36 -8 112 -19 170 -25 58 -5 134 -16 170 -25 36 -8 119 -21
185 -29 147 -18 281 -42 303 -54 14 -8 13 -10 -8 -15 -14 -3 -56 -11 -94 -16
-38 -6 -76 -15 -85 -20 -9 -4 -55 -14 -101 -20 -47 -7 -105 -20 -130 -30 -25
-10 -71 -21 -104 -25 -32 -4 -76 -13 -98 -21 -22 -7 -79 -21 -126 -30 -48 -9
-95 -21 -106 -26 -17 -9 -189 -45 -268 -55 -20 -3 -65 2 -100 10 -35 8 -98 18
-140 21 -42 4 -102 13 -133 22 -32 8 -103 19 -159 24 -55 6 -146 19 -201 30
-55 10 -131 22 -170 25 -38 4 -113 15 -165 25 -52 10 -133 21 -180 25 -47 4
-112 13 -145 20 -64 15 -166 30 -279 40 -38 4 -89 13 -115 20 -25 8 -84 17
-131 20 -47 4 -125 16 -175 26 -49 11 -142 24 -205 30 -63 6 -137 16 -165 24
-27 8 -101 19 -164 25 -63 6 -155 19 -205 30 -50 10 -134 24 -186 30 -52 7
-106 16 -119 21 -13 5 -67 14 -120 19 -53 5 -125 16 -161 25 -36 8 -127 21
-202 30 -75 8 -165 21 -200 29 -35 8 -101 17 -148 21 -47 4 -123 15 -170 25
-47 10 -137 24 -200 30 -63 6 -140 17 -170 25 -30 8 -95 17 -145 21 -49 3
-129 15 -176 25 -48 10 -140 23 -205 29 -66 6 -142 17 -169 25 -28 8 -101 19
-163 25 -62 6 -141 17 -175 25 -34 9 -109 20 -166 25 -58 6 -143 19 -190 29
-47 10 -124 22 -170 25 -47 4 -123 15 -170 26 -47 10 -122 21 -166 25 -44 4
-123 15 -175 26 -52 10 -143 23 -203 29 -59 5 -133 16 -165 24 -31 8 -111 20
-176 26 -66 6 -129 15 -141 20 -12 4 -66 13 -121 20 -54 6 -139 18 -189 27
-49 8 -124 19 -165 24 -110 14 -193 25 -300 42 -52 8 -133 20 -180 25 -47 6
-119 17 -160 25 -41 8 -115 20 -165 26 -95 11 -250 37 -275 47 -12 4 -12 6 0
14 8 5 37 12 65 15 27 4 82 15 120 25 39 10 93 21 120 25 28 3 82 14 120 25
81 22 191 44 320 66 50 9 119 24 155 34 36 11 97 22 135 26 39 4 90 15 115 25
32 13 59 16 95 12 28 -3 60 -10 73 -14z m-3148 -814 c30 -8 107 -20 170 -25
63 -6 149 -19 190 -29 41 -11 113 -22 160 -26 47 -3 114 -13 150 -22 36 -8
119 -20 185 -27 l120 -11 -3 -290 c-1 -160 -9 -398 -17 -530 -8 -132 -22 -481
-30 -775 -8 -294 -20 -598 -25 -675 -5 -77 -14 -338 -20 -580 -5 -242 -19
-633 -30 -870 -11 -236 -24 -619 -30 -850 -5 -231 -16 -553 -24 -715 -9 -162
-20 -493 -26 -735 -5 -242 -17 -541 -25 -665 -8 -124 -19 -405 -25 -625 -5
-220 -10 -402 -10 -404 0 -3 -4 -1 -9 5 -16 15 -41 178 -56 364 -8 96 -21 217
-29 268 -9 51 -20 159 -26 240 -6 81 -18 191 -25 245 -8 53 -19 168 -25 255
-6 86 -17 196 -26 244 -8 47 -21 171 -29 275 -8 103 -19 211 -24 239 -5 27
-15 126 -21 220 -6 93 -18 210 -25 260 -8 51 -19 159 -25 240 -6 82 -17 199
-26 259 -8 61 -21 201 -29 313 -8 112 -17 207 -19 210 -9 15 -25 171 -36 336
-6 92 -15 188 -20 212 -6 25 -17 138 -25 252 -8 114 -19 230 -24 257 -13 66
-18 117 -36 330 -9 99 -22 216 -30 260 -7 44 -16 131 -20 193 -3 62 -13 150
-21 195 -7 45 -19 154 -24 242 -6 88 -17 201 -25 250 -8 50 -19 158 -25 240
-6 83 -17 197 -25 255 -8 58 -19 173 -25 255 -6 83 -18 195 -25 251 -8 55 -19
161 -25 235 -6 74 -20 203 -32 286 -11 84 -18 160 -14 168 7 19 45 19 116 0z
m2055 -310 c72 -13 166 -26 210 -30 44 -3 107 -12 140 -20 33 -7 128 -21 210
-29 83 -9 166 -20 185 -26 19 -5 84 -15 145 -21 60 -6 135 -17 166 -25 31 -8
117 -21 190 -29 74 -8 152 -20 174 -25 22 -6 102 -17 177 -25 76 -9 149 -20
162 -25 14 -5 85 -16 158 -25 73 -8 151 -20 173 -25 22 -6 101 -17 175 -25 75
-8 163 -21 195 -29 33 -8 112 -20 175 -26 63 -6 141 -18 173 -26 32 -8 105
-19 162 -24 57 -5 130 -16 162 -24 32 -8 105 -20 163 -25 58 -6 148 -19 200
-30 52 -10 131 -22 175 -26 44 -4 107 -13 140 -20 33 -8 119 -21 190 -30 72
-8 148 -20 170 -25 22 -6 99 -17 170 -25 72 -8 157 -21 190 -29 33 -8 98 -18
145 -21 47 -4 126 -15 175 -25 50 -10 124 -22 165 -25 41 -4 113 -15 160 -25
47 -10 119 -21 160 -25 41 -3 118 -15 170 -25 52 -11 149 -26 215 -34 66 -8
161 -22 210 -30 50 -8 133 -20 185 -27 52 -6 120 -17 150 -24 30 -7 93 -16
140 -20 47 -3 110 -13 141 -21 31 -8 103 -19 160 -24 57 -6 147 -19 199 -29
52 -11 133 -22 180 -26 47 -4 121 -15 165 -25 44 -10 128 -24 186 -30 58 -6
121 -15 140 -21 19 -5 91 -16 160 -24 69 -8 151 -21 183 -29 31 -8 111 -20
179 -26 67 -6 127 -16 133 -21 6 -5 14 -46 18 -92 3 -45 13 -119 21 -163 8
-45 19 -165 25 -266 5 -102 17 -230 25 -284 8 -55 20 -180 25 -279 6 -99 17
-218 25 -265 8 -47 19 -168 25 -270 6 -102 17 -225 25 -275 8 -49 19 -171 25
-270 6 -99 19 -250 30 -335 10 -85 21 -213 25 -285 3 -71 15 -202 25 -290 11
-88 24 -243 29 -345 6 -102 15 -209 21 -238 5 -29 17 -155 25 -280 9 -125 20
-254 25 -287 6 -33 17 -163 25 -290 9 -126 20 -264 26 -305 22 -160 28 -228
29 -310 0 -47 9 -146 20 -220 11 -74 25 -218 30 -320 6 -102 17 -228 26 -280
8 -52 19 -167 24 -255 9 -152 28 -344 35 -355 2 -3 9 -98 15 -210 6 -113 18
-247 26 -298 8 -51 19 -173 24 -270 6 -97 19 -249 29 -337 11 -88 22 -216 26
-285 4 -69 7 -136 8 -150 3 -34 -24 -37 -106 -11 -35 11 -98 23 -138 26 -41 4
-96 13 -123 21 -28 8 -93 21 -145 29 -53 9 -118 22 -146 30 -27 8 -77 17 -110
20 -33 4 -91 15 -130 25 -38 10 -112 24 -164 30 -51 6 -102 15 -112 21 -10 5
-65 16 -121 25 -119 17 -144 22 -178 35 -14 5 -68 15 -120 24 -52 8 -122 21
-155 29 -55 13 -161 34 -290 58 -27 6 -77 16 -110 24 -33 9 -112 24 -175 34
-63 11 -140 26 -170 34 -30 8 -84 17 -120 21 -36 4 -96 15 -135 25 -38 10
-104 23 -145 29 -41 6 -93 16 -115 24 -22 8 -71 17 -110 21 -38 4 -94 14 -124
22 -30 9 -108 24 -175 34 -67 11 -152 26 -191 34 -103 22 -222 46 -290 57 -33
6 -107 21 -165 34 -58 13 -132 27 -165 30 -33 4 -89 15 -125 25 -36 10 -96 21
-135 25 -38 3 -97 15 -130 25 -33 10 -88 21 -121 25 -34 3 -91 14 -126 24 -36
10 -94 22 -129 26 -35 3 -95 15 -134 25 -38 10 -97 21 -130 25 -33 3 -91 15
-130 25 -38 10 -107 24 -153 30 -45 6 -101 17 -123 25 -22 8 -79 19 -126 25
-47 6 -93 15 -102 19 -9 5 -52 14 -96 21 -44 6 -109 19 -145 27 -36 8 -112 23
-170 33 -58 10 -117 23 -132 28 -14 6 -64 16 -110 22 -45 6 -117 20 -158 30
-41 10 -100 22 -130 25 -30 4 -77 13 -105 21 -27 8 -97 21 -155 29 -58 8 -141
23 -184 35 -44 11 -96 20 -116 20 -20 0 -70 9 -111 19 -41 11 -112 25 -157 31
-46 6 -95 16 -109 21 -14 5 -69 16 -122 24 -53 9 -134 24 -181 34 -47 11 -110
23 -140 26 -30 4 -73 14 -95 22 -22 8 -76 19 -120 24 -44 6 -114 18 -155 28
-41 11 -113 24 -160 31 -47 7 -93 17 -102 21 -10 5 -55 14 -100 20 -46 6 -114
19 -153 29 -38 10 -99 21 -135 25 -83 8 -241 51 -252 67 -4 7 -6 22 -4 33 7
29 24 457 36 875 6 201 17 487 25 635 8 149 19 470 25 715 6 245 15 492 20
550 5 58 14 290 20 515 10 434 24 811 40 1165 6 118 15 431 20 695 6 264 16
579 24 700 8 121 18 369 21 550 3 182 13 436 20 565 8 129 17 303 21 385 4 90
11 153 18 157 13 9 68 2 231 -27z m11583 -6472 c2 -5292 1 -5833 -14 -5847 -8
-9 -27 -16 -41 -16 -13 0 -52 -11 -86 -24 -34 -13 -86 -29 -115 -35 -29 -6
-65 -17 -80 -25 -15 -7 -51 -19 -80 -25 -29 -6 -66 -18 -81 -26 -16 -8 -57
-21 -92 -29 -35 -8 -84 -21 -109 -29 -25 -8 -67 -23 -95 -32 -27 -9 -68 -21
-90 -27 -22 -6 -69 -21 -105 -34 -36 -13 -83 -27 -105 -30 -22 -4 -52 -13 -67
-20 -15 -8 -56 -21 -90 -28 -35 -8 -90 -24 -122 -35 -68 -24 -92 -26 -102 -9
-4 6 -9 39 -11 72 -1 33 -9 105 -18 161 -8 55 -19 181 -25 280 -6 99 -17 225
-25 280 -8 55 -19 177 -25 270 -6 94 -15 195 -20 225 -11 68 -27 258 -35 410
-3 63 -12 160 -20 215 -8 55 -19 177 -25 270 -6 94 -17 220 -25 280 -8 61 -22
211 -30 335 -8 124 -21 275 -29 335 -8 61 -17 171 -21 245 -4 74 -15 209 -25
300 -10 91 -22 228 -25 305 -4 77 -15 208 -26 290 -10 83 -23 230 -29 327 -5
98 -16 230 -25 295 -8 65 -19 201 -25 303 -5 102 -19 253 -30 335 -11 83 -20
181 -20 218 0 69 -27 355 -35 367 -2 3 -9 85 -15 181 -6 96 -18 213 -26 261
-8 48 -19 158 -24 245 -13 221 -20 300 -30 363 -6 30 -16 156 -25 280 -8 124
-19 252 -25 285 -5 33 -17 161 -25 285 -8 124 -22 275 -30 335 -8 61 -19 187
-24 280 -6 94 -17 217 -25 275 -8 58 -20 184 -26 280 -5 96 -15 193 -20 215
-5 22 -15 117 -21 210 -6 94 -19 245 -30 337 -11 92 -24 241 -29 330 -5 90
-17 215 -25 278 -9 63 -20 194 -25 290 -5 96 -17 227 -25 290 -9 63 -19 183
-22 266 l-6 152 24 15 c13 8 54 18 91 21 37 4 86 13 109 22 24 8 83 21 132 29
49 8 94 19 101 24 6 5 53 17 103 25 50 9 106 23 125 30 18 8 60 17 93 21 33 4
95 18 138 31 43 13 91 24 106 24 16 0 58 9 94 20 36 11 100 25 143 30 43 6
105 19 138 29 34 10 88 23 121 29 67 11 207 44 305 72 36 10 87 22 113 25 27
4 67 13 90 21 23 8 76 19 117 25 41 5 102 19 135 29 67 22 109 28 175 26 l45
-1 3 -5832z m-12048 -1907 c36 -7 83 -18 105 -24 22 -6 67 -14 100 -17 33 -4
92 -15 130 -25 39 -10 95 -21 125 -25 30 -3 91 -15 135 -25 44 -11 123 -26
175 -34 52 -9 120 -22 150 -31 30 -8 73 -15 95 -15 22 0 83 -11 135 -24 52
-13 124 -27 160 -31 36 -4 97 -15 135 -25 39 -11 97 -22 130 -26 33 -4 78 -13
100 -21 22 -8 76 -18 120 -24 44 -5 112 -18 150 -29 39 -10 104 -24 146 -29
42 -6 88 -15 103 -21 15 -5 80 -17 144 -25 64 -8 137 -22 162 -30 25 -7 86
-19 136 -25 51 -5 111 -17 134 -25 23 -8 83 -20 133 -26 51 -6 108 -17 127
-25 19 -7 70 -18 114 -24 43 -7 100 -18 125 -26 25 -8 83 -18 128 -24 45 -6
100 -17 123 -25 23 -8 80 -19 128 -25 48 -6 119 -19 157 -29 39 -11 99 -22
135 -25 36 -4 88 -13 115 -21 28 -9 93 -22 145 -30 52 -8 117 -21 143 -29 27
-8 79 -18 115 -21 37 -4 99 -15 137 -25 39 -11 104 -24 145 -29 41 -6 97 -17
123 -25 27 -8 79 -18 115 -21 37 -4 103 -16 146 -27 44 -10 114 -23 157 -28
43 -5 99 -16 123 -24 24 -8 82 -20 128 -26 46 -5 106 -17 133 -25 28 -9 84
-20 125 -26 41 -5 111 -18 155 -29 44 -10 109 -22 145 -26 35 -3 83 -13 105
-21 22 -8 76 -18 120 -24 44 -5 112 -18 150 -29 39 -10 97 -21 130 -25 33 -3
83 -12 110 -20 28 -8 104 -23 170 -34 66 -12 145 -27 175 -36 30 -8 68 -15 85
-15 17 0 55 -7 85 -15 30 -9 94 -22 142 -29 48 -8 111 -21 140 -30 29 -8 92
-20 139 -26 48 -5 109 -17 135 -25 27 -8 87 -19 134 -25 47 -6 119 -19 160
-29 41 -10 100 -21 130 -25 30 -3 80 -13 110 -21 30 -8 98 -22 150 -30 53 -7
108 -18 122 -24 15 -6 77 -17 139 -26 62 -8 131 -22 153 -29 23 -8 70 -17 106
-21 36 -4 99 -15 140 -25 41 -10 100 -21 130 -25 71 -9 251 -52 260 -62 4 -4
13 -87 19 -184 6 -97 15 -189 20 -205 4 -16 13 -99 20 -184 15 -200 29 -347
41 -438 5 -40 14 -152 20 -247 6 -96 17 -218 25 -272 8 -54 19 -180 25 -281 5
-100 16 -229 25 -285 8 -56 19 -167 24 -247 5 -80 13 -152 16 -161 7 -18 -21
-53 -35 -44 -5 3 -46 10 -92 16 -46 5 -114 18 -153 29 -38 10 -95 21 -125 25
-30 3 -86 15 -125 25 -38 11 -110 26 -160 34 -49 9 -115 22 -145 31 -30 8 -69
15 -86 15 -18 0 -60 9 -95 19 -35 11 -98 24 -139 30 -41 6 -94 17 -118 25 -24
9 -73 18 -110 22 -37 3 -96 14 -132 24 -36 11 -111 26 -168 34 -56 9 -111 20
-122 26 -11 6 -57 15 -102 21 -46 5 -112 19 -148 29 -36 10 -94 21 -129 25
-35 3 -84 13 -109 21 -24 9 -78 21 -120 29 -92 15 -249 49 -352 76 -41 10
-106 24 -145 29 -38 6 -88 17 -110 25 -22 8 -75 19 -119 25 -43 7 -96 18 -118
26 -21 7 -78 18 -126 25 -48 6 -102 17 -121 25 -18 8 -73 19 -123 25 -49 6
-104 17 -121 24 -18 7 -70 19 -117 25 -47 7 -114 20 -149 31 -35 10 -78 19
-96 19 -18 0 -75 11 -126 24 -52 13 -119 26 -150 30 -31 3 -82 14 -115 25 -32
10 -90 21 -129 25 -38 4 -97 16 -130 26 -33 10 -85 22 -115 25 -30 4 -88 15
-128 26 -41 11 -108 24 -150 30 -41 6 -92 17 -111 24 -20 8 -72 19 -116 24
-44 6 -118 20 -165 30 -47 11 -112 25 -145 30 -33 5 -85 16 -115 24 -30 8 -86
19 -125 24 -38 6 -99 17 -135 26 -79 19 -197 43 -310 63 -47 8 -118 23 -157
34 -40 11 -88 20 -107 20 -19 0 -70 11 -113 24 -43 13 -105 27 -138 31 -32 4
-86 15 -120 25 -33 11 -85 22 -115 25 -30 4 -86 15 -125 25 -38 10 -106 24
-150 30 -44 6 -100 17 -125 25 -25 8 -81 19 -124 25 -44 7 -106 20 -139 31
-33 10 -75 19 -93 19 -19 0 -67 9 -107 20 -39 12 -107 25 -149 31 -42 5 -95
16 -117 24 -22 7 -77 19 -123 25 -46 7 -111 20 -145 30 -34 11 -90 22 -125 25
-34 3 -81 13 -103 21 -22 7 -85 20 -140 28 -55 8 -119 21 -141 29 -23 9 -68
18 -100 22 -33 4 -86 16 -119 26 -33 10 -96 22 -140 28 -44 5 -99 17 -123 25
-24 9 -80 20 -124 26 -45 5 -106 16 -137 24 -31 8 -74 19 -96 24 l-40 8 2 105
c1 57 6 228 12 379 6 151 16 476 21 721 5 245 17 557 25 695 8 137 15 296 16
354 1 58 6 111 11 118 6 6 11 12 12 12 0 0 30 -6 66 -14z m120 -3296 c36 -10
92 -21 125 -25 33 -4 88 -15 123 -25 34 -11 93 -23 130 -26 37 -4 85 -13 107
-21 21 -7 83 -20 137 -28 54 -8 114 -21 135 -29 21 -8 77 -20 125 -26 48 -6
106 -17 128 -25 23 -8 80 -19 126 -25 47 -6 104 -17 127 -25 23 -7 79 -19 125
-25 45 -6 101 -18 125 -26 23 -8 78 -20 122 -25 44 -6 109 -19 145 -29 36 -10
91 -22 124 -25 32 -4 77 -13 100 -21 22 -8 77 -19 121 -25 44 -5 109 -18 145
-28 36 -11 92 -23 125 -26 33 -4 78 -13 100 -21 22 -7 85 -20 140 -29 55 -9
120 -22 145 -30 25 -8 83 -21 130 -30 126 -23 222 -42 345 -70 61 -13 133 -27
162 -30 28 -3 67 -12 86 -20 19 -8 73 -19 120 -25 47 -6 103 -17 125 -24 22
-8 75 -19 118 -26 44 -6 106 -20 139 -29 33 -10 91 -22 129 -26 38 -4 87 -13
110 -21 23 -8 75 -19 116 -25 41 -6 107 -18 145 -29 39 -10 95 -21 125 -25 30
-3 83 -15 117 -25 34 -10 90 -22 125 -25 34 -4 95 -15 135 -26 40 -10 98 -22
130 -25 32 -3 85 -14 118 -24 33 -10 85 -21 115 -25 30 -3 88 -15 128 -26 41
-11 108 -24 150 -30 43 -5 97 -16 122 -24 25 -8 79 -19 120 -25 41 -6 102 -19
135 -29 33 -10 91 -22 129 -26 38 -4 87 -13 109 -21 22 -8 72 -19 111 -25 39
-6 91 -17 116 -24 25 -8 88 -21 141 -29 53 -9 110 -21 125 -27 16 -6 76 -19
134 -29 128 -23 235 -46 315 -66 33 -8 87 -20 120 -26 33 -6 104 -21 157 -34
53 -13 110 -24 126 -24 17 0 58 -9 93 -20 35 -10 98 -24 139 -30 41 -6 93 -17
115 -25 22 -8 72 -19 110 -25 113 -18 147 -29 143 -48 -2 -10 -19 -21 -43 -27
-22 -6 -67 -23 -100 -39 -33 -16 -85 -40 -115 -53 -30 -14 -73 -33 -95 -43
-22 -10 -65 -30 -95 -43 -30 -14 -80 -36 -110 -50 -30 -13 -89 -39 -130 -57
-41 -17 -98 -43 -126 -56 -28 -13 -55 -24 -60 -24 -5 0 -29 -11 -54 -24 -25
-13 -56 -27 -70 -31 -14 -4 -36 -16 -49 -26 -13 -11 -30 -19 -38 -19 -13 0
-45 -14 -188 -80 -97 -45 -152 -69 -174 -75 -14 -4 -45 -18 -69 -31 -25 -13
-51 -24 -58 -24 -7 0 -34 -11 -60 -25 -26 -14 -53 -25 -61 -25 -8 0 -27 -8
-41 -19 -15 -10 -38 -22 -52 -26 -28 -8 -112 -45 -183 -81 -26 -13 -52 -24
-58 -24 -5 0 -40 -14 -77 -31 -122 -55 -146 -66 -202 -89 -130 -53 -126 -52
-244 -40 -61 6 -154 20 -206 30 -52 10 -133 26 -180 35 -47 9 -114 22 -150 30
-36 8 -78 15 -94 15 -16 0 -59 9 -95 20 -36 10 -102 24 -146 29 -44 5 -99 17
-122 25 -24 8 -79 20 -123 26 -44 6 -98 17 -120 25 -22 8 -77 19 -122 25 -46
6 -107 18 -136 26 -28 8 -89 19 -133 25 -45 5 -100 17 -123 25 -22 8 -76 19
-118 24 -42 6 -96 17 -120 26 -23 8 -86 21 -139 29 -53 8 -109 19 -124 25 -15
6 -73 17 -129 25 -55 8 -119 20 -141 28 -22 8 -70 18 -105 21 -36 4 -85 14
-110 22 -25 7 -94 23 -155 34 -60 10 -135 26 -165 35 -30 8 -66 15 -81 15 -15
0 -56 9 -92 20 -36 11 -102 25 -146 30 -44 6 -99 17 -123 26 -24 8 -76 19
-116 25 -40 6 -90 16 -112 24 -21 8 -76 19 -122 25 -46 7 -110 20 -143 30 -33
10 -89 21 -125 25 -36 4 -92 15 -125 25 -33 10 -91 21 -129 25 -38 4 -87 13
-110 21 -23 8 -88 22 -144 30 -57 8 -112 19 -123 24 -10 6 -65 17 -121 26 -57
8 -123 21 -148 29 -25 8 -70 17 -100 21 -30 3 -98 17 -150 30 -52 13 -108 24
-126 24 -18 0 -60 9 -95 20 -35 10 -104 24 -153 30 -49 6 -101 17 -117 25 -15
8 -39 15 -52 15 -12 0 -28 5 -35 12 -9 9 -12 202 -12 808 0 438 3 800 7 804
11 11 118 -2 193 -24z m-1032 -830 c1 -426 0 -784 -3 -796 -6 -27 -86 -61
-264 -114 -35 -11 -69 -24 -76 -30 -6 -5 -35 -14 -63 -20 -29 -5 -71 -18 -94
-29 -24 -10 -61 -22 -83 -26 -22 -4 -56 -16 -75 -26 -20 -9 -54 -21 -75 -25
-22 -3 -56 -15 -75 -25 -20 -9 -54 -21 -75 -25 -22 -3 -56 -15 -75 -24 -19
-10 -59 -23 -89 -29 -30 -6 -61 -17 -68 -23 -7 -6 -37 -16 -66 -23 -28 -7 -74
-22 -102 -33 -27 -11 -90 -32 -140 -47 -49 -15 -112 -36 -140 -47 -27 -11 -69
-24 -92 -29 -23 -4 -59 -17 -80 -27 -21 -11 -56 -23 -78 -26 -21 -4 -55 -16
-75 -26 -20 -10 -54 -22 -75 -26 -22 -3 -56 -15 -75 -24 -19 -10 -59 -23 -88
-29 -29 -6 -63 -17 -75 -25 -12 -7 -40 -17 -62 -21 -22 -4 -66 -18 -97 -31
-32 -13 -68 -24 -80 -24 -13 0 -45 -12 -73 -25 -27 -14 -60 -25 -72 -25 -13 0
-51 -11 -85 -23 -113 -42 -162 -59 -228 -76 -36 -10 -78 -25 -95 -33 -16 -9
-50 -19 -74 -23 -24 -4 -58 -15 -75 -25 -17 -10 -51 -21 -76 -25 -25 -4 -61
-15 -80 -25 -19 -10 -51 -21 -70 -25 -44 -8 -180 -52 -240 -76 -25 -11 -65
-23 -90 -29 -25 -5 -63 -18 -85 -30 -21 -11 -49 -20 -62 -20 -12 0 -51 -11
-85 -24 -86 -32 -123 -45 -193 -68 -33 -11 -79 -28 -103 -39 -23 -10 -53 -19
-65 -19 -12 0 -42 -10 -67 -21 -25 -11 -74 -29 -110 -39 -64 -18 -137 -41
-195 -61 -16 -6 -59 -20 -95 -30 -36 -10 -76 -25 -90 -33 -14 -8 -43 -17 -65
-21 -22 -4 -66 -18 -97 -31 -32 -13 -68 -24 -80 -24 -13 0 -45 -11 -73 -25
-27 -13 -60 -25 -73 -25 -12 0 -48 -11 -80 -24 -31 -13 -75 -27 -97 -30 -22
-4 -49 -13 -60 -21 -12 -7 -46 -18 -77 -24 -30 -7 -73 -21 -94 -31 -21 -11
-50 -20 -64 -20 -14 0 -48 -11 -76 -24 -28 -13 -71 -27 -95 -31 -24 -4 -60
-15 -79 -25 -20 -10 -54 -22 -75 -26 -22 -3 -56 -15 -75 -25 -20 -9 -54 -21
-75 -25 -22 -3 -56 -15 -75 -25 -20 -9 -54 -20 -75 -24 -22 -4 -58 -15 -80
-25 -39 -18 -111 -43 -230 -80 -94 -29 -155 -50 -225 -75 -36 -13 -81 -27
-100 -31 -19 -3 -48 -13 -65 -22 -16 -8 -57 -21 -90 -29 -33 -8 -69 -20 -81
-28 -12 -7 -39 -17 -60 -21 -21 -4 -55 -14 -74 -24 -19 -10 -53 -21 -75 -24
-21 -4 -55 -16 -75 -26 -19 -10 -55 -21 -79 -25 -24 -4 -67 -18 -95 -31 -28
-13 -61 -24 -73 -24 -13 0 -51 -11 -85 -24 -85 -31 -149 -53 -233 -77 -38 -11
-74 -24 -80 -28 -5 -5 -35 -14 -65 -21 -30 -7 -71 -21 -92 -31 -20 -10 -56
-21 -80 -25 -23 -4 -59 -15 -78 -25 -20 -9 -54 -21 -75 -25 -22 -3 -56 -15
-75 -25 -20 -9 -54 -20 -75 -24 -22 -4 -54 -15 -71 -25 -17 -10 -51 -21 -74
-25 -24 -4 -66 -18 -94 -31 -28 -13 -61 -24 -73 -24 -13 0 -51 -11 -85 -24
-87 -33 -153 -55 -223 -75 -33 -10 -73 -24 -90 -33 -16 -8 -50 -18 -73 -22
-24 -4 -60 -15 -80 -25 -21 -10 -57 -22 -81 -26 -24 -4 -58 -15 -75 -25 -17
-10 -51 -21 -74 -24 -24 -4 -61 -15 -81 -25 -20 -11 -55 -23 -76 -27 -22 -3
-56 -14 -75 -24 -19 -10 -53 -21 -75 -24 -21 -4 -56 -16 -76 -27 -20 -10 -57
-21 -81 -25 -23 -4 -59 -15 -79 -25 -19 -9 -64 -23 -99 -29 -35 -6 -76 -18
-92 -26 -15 -8 -34 -14 -43 -14 -9 0 -30 10 -48 23 -47 33 -395 325 -447 375
-25 24 -58 50 -73 58 -20 11 -27 21 -25 37 2 16 15 26 49 37 26 8 53 20 60 26
8 6 34 18 59 26 25 9 83 32 130 53 47 20 100 41 118 47 19 5 48 18 65 29 18
10 39 19 47 19 8 0 42 14 75 30 33 16 65 30 72 30 7 0 33 11 59 25 26 14 56
25 66 25 11 0 32 8 46 19 15 10 43 22 62 26 19 4 50 15 67 26 18 10 52 23 75
30 24 6 50 17 58 24 8 7 34 18 58 25 24 6 58 20 75 31 18 10 39 19 47 19 9 0
34 9 55 20 38 20 81 37 204 81 30 10 59 23 65 28 6 4 29 14 51 21 39 12 99 38
200 86 28 13 56 24 62 24 7 0 33 11 59 25 26 14 54 25 63 25 9 0 34 11 56 25
22 13 48 25 58 25 16 0 47 13 193 81 23 10 49 19 58 19 9 0 38 11 64 24 26 13
62 27 81 31 19 4 54 18 79 31 25 13 51 24 58 24 7 0 34 11 60 25 26 14 54 25
63 25 9 0 30 9 46 20 17 11 37 20 46 20 8 0 37 10 65 23 59 28 147 65 189 79
17 6 53 21 81 34 28 13 57 24 65 24 8 0 35 11 61 25 26 14 54 25 63 25 9 0 38
11 65 25 27 14 55 25 62 25 7 0 34 11 60 25 26 14 52 25 58 25 11 0 77 29 195
86 28 13 57 24 65 24 8 0 29 9 47 19 17 11 50 25 73 31 23 6 56 20 73 31 18
10 39 19 47 19 8 0 38 12 65 25 28 14 57 25 65 25 8 0 33 11 55 25 22 13 46
25 53 25 16 0 142 52 194 80 20 11 43 20 51 20 8 0 35 11 61 25 26 14 52 25
59 25 7 0 39 14 72 30 33 16 67 30 75 30 8 0 29 8 45 18 17 10 43 22 60 26 16
4 52 18 81 32 28 13 56 24 63 24 7 0 33 11 59 25 26 14 53 25 60 25 7 0 34 11
60 25 26 14 53 25 60 25 7 0 35 11 62 25 27 14 55 25 62 25 7 0 34 11 60 25
26 14 53 25 61 25 7 0 36 11 63 25 27 14 54 25 60 25 6 0 32 11 58 25 26 14
52 25 59 25 7 0 39 14 72 30 33 16 66 30 73 30 7 0 34 11 60 25 26 14 56 25
67 25 11 0 38 12 60 25 22 14 47 25 55 25 8 0 36 11 62 25 26 14 53 25 60 25
7 0 36 12 63 25 28 14 57 25 65 25 8 0 29 7 45 16 28 15 79 36 210 85 28 10
68 27 90 39 21 11 45 20 52 20 6 0 33 11 59 25 26 14 53 25 61 25 8 0 35 11
61 25 26 14 56 25 67 25 11 0 38 12 60 25 22 14 47 25 55 25 8 0 38 11 65 25
28 13 57 25 65 25 8 0 36 11 62 25 26 14 52 25 59 25 7 0 37 12 68 26 195 91
295 134 311 134 7 0 27 9 44 19 17 11 50 24 74 31 24 6 58 20 75 31 18 10 40
19 49 19 9 0 38 11 64 25 26 14 54 25 63 25 9 0 30 7 46 16 29 16 107 47 213
84 29 11 62 26 74 35 13 8 29 15 38 15 8 0 42 14 75 30 33 17 64 30 70 30 5 0
32 11 59 25 27 14 57 25 65 25 9 0 38 11 65 25 27 14 57 25 65 25 9 0 25 7 36
16 11 8 40 21 65 29 51 16 171 65 215 89 17 9 37 16 45 16 9 0 33 9 55 20 21
11 54 25 74 31 20 6 45 17 56 24 11 7 45 19 76 28 31 9 62 24 69 32 7 8 20 15
29 15 9 0 39 11 66 25 28 13 57 25 65 25 8 0 42 14 75 30 33 17 65 30 72 30 6
0 33 11 59 25 26 14 54 25 63 25 9 0 34 12 56 25 22 14 48 25 57 25 9 0 38 11
64 25 26 14 54 25 63 25 9 0 30 7 46 16 30 17 79 37 194 80 35 14 73 31 84 39
12 8 30 15 41 15 11 0 38 11 60 24 23 13 57 27 76 31 19 4 51 16 70 25 66 34
105 49 120 47 13 -2 15 -97 18 -777z m11970 -4150 c1 -1741 0 -3175 -3 -3187
-3 -15 -26 -31 -72 -53 -38 -17 -75 -36 -83 -41 -8 -5 -37 -20 -65 -34 -91
-46 -109 -58 -182 -116 -98 -78 -165 -155 -245 -283 -10 -16 -34 -64 -58 -116
-12 -25 -28 -57 -36 -72 -8 -16 -21 -49 -29 -75 -7 -27 -21 -70 -30 -98 -9
-27 -27 -86 -40 -130 -13 -44 -35 -118 -49 -165 -15 -47 -26 -92 -26 -100 0
-8 -11 -48 -25 -90 -60 -183 -67 -207 -74 -241 -4 -20 -17 -60 -28 -90 -11
-30 -28 -76 -37 -104 -10 -27 -28 -78 -42 -112 -13 -35 -34 -91 -47 -125 -13
-35 -31 -77 -40 -95 -9 -18 -17 -38 -17 -45 0 -7 -11 -35 -25 -63 -13 -27 -25
-58 -25 -68 0 -10 -11 -43 -24 -75 -13 -31 -27 -77 -31 -101 -4 -24 -15 -60
-24 -80 -14 -32 -16 -102 -19 -581 -2 -412 -6 -548 -15 -556 -19 -17 -113 -54
-139 -54 -13 0 -43 -10 -68 -21 -25 -12 -65 -27 -90 -34 -83 -25 -193 -65
-204 -75 -7 -5 -34 -14 -61 -20 -28 -5 -70 -18 -95 -29 -47 -19 -143 -53 -220
-77 -107 -33 -224 -75 -234 -83 -6 -5 -35 -14 -65 -20 -30 -6 -60 -16 -67 -22
-7 -6 -44 -19 -81 -29 -89 -24 -188 -58 -238 -80 -22 -10 -58 -21 -80 -25 -22
-4 -53 -15 -70 -25 -16 -9 -48 -21 -70 -25 -22 -4 -53 -15 -70 -25 -16 -10
-48 -22 -70 -26 -22 -3 -56 -15 -75 -25 -20 -9 -54 -20 -75 -24 -22 -4 -50
-13 -62 -21 -11 -7 -43 -19 -70 -25 -26 -7 -64 -20 -83 -30 -20 -9 -54 -21
-75 -24 -22 -4 -56 -16 -75 -26 -19 -11 -57 -26 -85 -33 -27 -8 -86 -28 -130
-44 -44 -16 -96 -35 -115 -42 -19 -7 -57 -21 -85 -32 -27 -11 -72 -25 -100
-32 -27 -7 -64 -20 -80 -28 -17 -9 -49 -19 -70 -23 -22 -4 -50 -13 -61 -21
-12 -7 -50 -20 -84 -29 -34 -9 -72 -22 -84 -30 -11 -7 -39 -17 -61 -21 -22 -4
-62 -18 -90 -30 -27 -13 -61 -24 -74 -24 -13 0 -38 -9 -55 -19 -17 -10 -55
-24 -84 -30 -29 -6 -63 -17 -75 -25 -12 -7 -40 -17 -62 -21 -22 -4 -65 -17
-95 -30 -30 -12 -72 -26 -93 -29 -21 -4 -52 -15 -70 -25 -18 -11 -50 -22 -72
-26 -21 -4 -55 -15 -75 -25 -19 -9 -51 -21 -70 -25 -19 -4 -48 -14 -65 -23
-16 -8 -52 -21 -80 -28 -68 -17 -171 -53 -220 -75 -22 -10 -59 -23 -83 -28
-23 -5 -52 -15 -65 -23 -12 -8 -44 -20 -71 -27 -27 -7 -66 -21 -87 -31 -21
-11 -48 -20 -59 -20 -11 0 -43 -11 -70 -25 -27 -14 -57 -25 -67 -25 -10 0 -40
-11 -68 -25 -27 -13 -61 -25 -74 -25 -13 0 -49 -11 -80 -24 -54 -23 -89 -36
-196 -71 -27 -9 -63 -21 -80 -27 -16 -5 -50 -17 -75 -25 -25 -8 -65 -23 -90
-33 -25 -11 -61 -22 -80 -26 -19 -3 -51 -15 -70 -24 -20 -10 -54 -22 -75 -26
-22 -3 -56 -15 -77 -25 -20 -10 -58 -23 -85 -29 -26 -6 -68 -18 -93 -29 -58
-24 -130 -48 -206 -71 -33 -10 -74 -24 -90 -33 -16 -8 -47 -18 -69 -21 -22 -4
-50 -14 -62 -21 -11 -8 -43 -20 -70 -26 -26 -7 -64 -20 -83 -29 -19 -10 -53
-21 -75 -24 -21 -4 -55 -16 -75 -25 -19 -10 -57 -23 -83 -30 -27 -6 -59 -18
-70 -25 -12 -8 -38 -17 -57 -20 -19 -4 -55 -15 -80 -26 -25 -10 -67 -26 -95
-35 -118 -40 -185 -65 -212 -78 -15 -8 -45 -17 -66 -21 -21 -4 -52 -15 -70
-25 -18 -11 -50 -22 -72 -26 -21 -4 -55 -15 -75 -25 -20 -10 -54 -21 -75 -25
-22 -4 -50 -13 -62 -21 -11 -7 -43 -19 -70 -25 -26 -7 -61 -19 -78 -27 -16 -9
-52 -21 -80 -28 -27 -7 -72 -21 -100 -32 -68 -27 -138 -50 -212 -72 -35 -9
-69 -22 -76 -28 -7 -6 -33 -14 -57 -18 -25 -4 -58 -14 -75 -22 -16 -9 -57 -23
-90 -33 -33 -10 -98 -32 -145 -49 -47 -17 -112 -40 -146 -50 -33 -10 -74 -24
-90 -33 -16 -8 -47 -18 -69 -21 -21 -4 -55 -16 -75 -26 -20 -10 -54 -21 -75
-25 -22 -4 -54 -15 -72 -26 -18 -10 -49 -21 -70 -25 -21 -4 -60 -18 -88 -30
-27 -13 -58 -24 -67 -24 -10 0 -41 -11 -70 -24 -61 -27 -127 -50 -215 -76 -35
-9 -68 -22 -75 -28 -7 -5 -38 -15 -68 -21 -30 -7 -65 -18 -77 -26 -12 -9 -46
-20 -75 -26 -29 -6 -62 -17 -74 -24 -11 -7 -41 -18 -65 -24 -24 -7 -64 -20
-89 -31 -25 -10 -65 -25 -90 -33 -25 -8 -58 -20 -75 -25 -16 -6 -50 -18 -75
-26 -25 -8 -67 -22 -95 -31 -27 -9 -63 -22 -80 -27 -151 -51 -254 -87 -310
-110 -27 -11 -70 -25 -95 -30 -25 -6 -54 -17 -65 -24 -11 -7 -42 -18 -70 -24
-27 -5 -70 -19 -95 -29 -25 -11 -67 -27 -95 -36 -27 -9 -70 -23 -95 -32 -25
-8 -61 -21 -80 -30 -19 -8 -64 -23 -100 -33 -36 -10 -94 -29 -130 -43 -36 -14
-87 -33 -115 -43 -27 -9 -70 -25 -94 -36 -24 -11 -62 -23 -85 -28 -23 -4 -63
-17 -91 -28 -60 -23 -124 -46 -225 -77 -123 -39 -173 -56 -220 -75 -25 -11
-61 -22 -80 -26 -19 -3 -45 -12 -57 -20 -12 -8 -48 -21 -80 -29 -32 -8 -71
-21 -88 -29 -36 -18 -141 -52 -213 -71 -29 -7 -63 -20 -75 -28 -12 -8 -45 -19
-72 -25 -28 -6 -68 -20 -90 -32 -21 -11 -51 -20 -65 -20 -14 0 -42 -9 -62 -20
-20 -11 -58 -25 -85 -31 -26 -7 -65 -20 -85 -30 -21 -11 -45 -19 -55 -19 -10
0 -41 -11 -68 -24 -28 -12 -68 -26 -90 -30 -22 -4 -50 -14 -62 -22 -12 -8 -46
-20 -75 -28 -29 -8 -73 -23 -98 -35 -25 -11 -56 -21 -70 -21 -14 0 -49 -12
-78 -27 -33 -17 -56 -23 -62 -17 -6 6 -11 268 -12 679 -3 615 -5 673 -21 709
-9 22 -24 64 -31 95 -16 62 -49 161 -77 231 -10 25 -21 61 -25 80 -3 19 -14
51 -24 70 -10 20 -23 61 -29 93 -5 31 -17 67 -25 79 -8 13 -18 46 -22 73 -4
28 -18 80 -30 117 -13 37 -24 78 -24 91 0 12 -7 47 -15 77 -15 52 -50 202 -75
320 -7 30 -21 82 -31 115 -11 33 -24 79 -29 102 -5 23 -18 60 -30 82 -11 22
-20 46 -20 53 0 7 -7 27 -16 43 -9 17 -29 52 -43 78 -78 145 -74 140 -176 243
-71 71 -124 111 -199 150 -23 12 -48 30 -56 39 -13 16 -15 293 -13 2174 l3
2156 39 26 c21 15 49 30 62 34 13 4 40 15 59 25 59 30 168 80 176 80 4 0 46
20 93 43 47 24 104 50 125 57 22 7 53 21 70 30 17 10 48 23 68 29 20 7 42 19
48 27 7 7 20 14 29 14 8 0 38 11 66 24 27 13 77 36 110 51 125 56 162 73 227
104 37 17 70 31 74 31 4 0 32 12 63 26 31 15 81 38 111 52 30 13 76 35 103 48
26 13 53 24 59 24 7 0 35 11 63 24 27 13 84 38 125 56 128 55 184 81 222 101
20 10 43 19 50 19 7 0 40 14 73 30 33 16 66 30 72 30 7 0 34 11 60 24 47 24
121 59 238 111 33 15 83 38 110 51 28 13 56 24 64 24 7 0 25 9 40 19 15 11 40
23 57 27 16 4 41 15 55 25 14 10 38 21 55 25 16 4 45 15 64 25 70 36 169 79
182 79 7 0 31 11 53 25 22 13 46 25 53 25 12 0 110 42 172 75 14 7 43 18 65
25 22 7 51 21 64 31 13 11 31 19 40 19 9 0 38 11 66 24 131 63 183 86 196 86
8 0 25 9 39 20 14 11 32 20 40 20 8 0 42 13 75 29 33 16 72 32 87 36 15 4 32
13 39 21 6 8 16 14 23 14 6 0 36 12 66 26 126 61 176 83 200 90 14 3 32 12 40
19 8 7 33 18 55 24 22 6 54 20 70 31 17 11 37 20 45 20 8 0 42 14 75 30 33 16
66 30 73 30 8 0 26 9 41 19 15 11 40 23 57 27 16 4 41 15 55 25 14 10 38 21
55 25 16 4 40 15 54 24 14 10 36 21 50 24 24 7 114 48 190 86 19 10 46 21 60
25 14 4 36 16 49 26 13 11 31 19 41 19 9 0 38 11 64 25 26 14 52 25 59 25 6 0
34 11 62 24 121 58 182 86 191 86 5 0 27 9 49 19 22 11 65 31 95 44 30 13 85
38 122 56 37 17 70 31 74 31 4 0 32 12 63 26 31 14 79 36 106 49 28 12 79 36
115 53 36 17 75 33 87 37 11 3 27 12 33 20 7 8 20 15 29 15 9 0 43 14 76 30
33 16 66 30 73 30 8 0 26 9 41 19 14 10 45 24 68 30 23 6 45 16 48 21 3 4 29
16 58 26 28 9 59 22 67 29 8 7 26 16 40 19 14 4 48 17 75 30 133 63 163 76
170 76 4 0 33 12 64 26 31 14 79 37 106 49 28 13 80 37 116 54 36 17 71 31 77
31 7 0 33 11 59 24 27 13 68 33 93 44 25 11 72 32 105 47 33 15 89 41 125 57
145 67 177 81 223 104 26 13 52 24 58 24 9 0 51 18 184 80 134 62 175 80 185
80 6 0 28 9 48 19 62 33 170 81 181 81 6 0 35 12 63 26 126 63 149 74 159 74
5 0 40 14 77 31 37 17 92 42 122 56 30 13 71 32 90 42 19 10 48 21 64 25 17 4
42 16 57 27 15 10 33 19 40 19 7 0 42 14 78 31 121 56 166 77 221 102 136 62
173 79 223 101 28 13 77 35 107 49 30 14 66 28 80 32 14 4 41 16 60 26 19 11
39 19 45 19 5 0 32 11 60 24 127 61 182 86 193 86 7 0 33 11 59 24 86 44 158
76 171 76 6 0 33 11 59 24 27 13 75 36 108 51 33 15 81 38 108 51 26 13 52 24
59 24 11 0 86 33 171 76 26 13 52 24 58 24 10 0 110 48 194 94 17 9 36 16 43
16 7 0 30 9 50 19 20 11 69 34 107 51 39 17 93 42 120 55 28 13 61 27 75 31
14 4 36 15 49 25 13 11 31 19 40 19 9 0 41 12 71 26 120 56 158 73 230 104 41
17 93 40 115 50 127 59 175 80 187 80 7 0 31 11 53 25 22 13 46 25 54 25 14 0
85 31 174 76 26 13 53 24 59 24 7 0 38 12 68 26 30 14 73 34 95 44 48 21 180
83 249 116 28 13 56 24 63 24 7 0 34 11 60 24 27 13 68 33 93 44 108 49 160
72 240 107 90 39 143 63 225 101 28 13 61 26 75 30 14 4 37 15 52 25 14 11 33
19 41 19 8 0 34 11 58 23 24 13 57 27 73 31 17 4 42 16 56 26 14 10 39 22 56
26 16 4 45 15 64 25 19 10 69 32 110 49 41 17 96 42 123 56 26 13 52 24 58 24
11 0 119 48 181 81 20 10 43 19 50 19 7 0 42 14 78 31 71 34 110 52 215 99 39
17 91 42 116 56 26 13 54 24 62 24 8 0 25 9 39 19 13 11 38 23 54 27 16 4 51
18 79 32 45 22 58 24 130 19 44 -3 103 -13 130 -21 88 -26 209 -36 311 -26 52
6 107 16 122 24 15 7 45 17 67 21 22 4 66 18 97 31 32 13 70 24 85 24 15 0 48
10 73 21 25 11 72 27 105 34 33 8 85 23 115 34 30 12 64 20 75 18 20 -2 20
-10 23 -3167z m-11408 2596 c52 -8 106 -18 120 -24 14 -5 66 -15 115 -22 50
-7 108 -19 130 -27 22 -8 76 -19 120 -24 44 -6 109 -19 144 -30 35 -10 77 -19
95 -19 18 0 75 -11 127 -25 51 -13 108 -25 125 -25 18 0 74 -11 125 -24 52
-13 132 -29 179 -34 47 -6 99 -16 115 -22 16 -6 75 -17 130 -25 56 -8 117 -21
136 -29 19 -7 63 -17 99 -21 36 -3 97 -15 135 -25 39 -11 108 -24 155 -30 46
-6 93 -16 103 -22 10 -5 62 -16 116 -24 53 -8 116 -21 141 -30 25 -8 80 -19
122 -25 42 -5 95 -16 118 -24 23 -8 77 -19 121 -25 45 -5 111 -18 147 -29 37
-10 92 -22 122 -25 30 -4 75 -13 100 -21 25 -8 88 -21 141 -29 53 -9 109 -20
124 -26 15 -6 71 -17 124 -25 53 -8 115 -21 137 -28 22 -8 69 -18 104 -22 36
-4 92 -16 125 -26 33 -10 87 -21 120 -25 33 -3 98 -17 144 -30 46 -13 98 -24
116 -24 18 0 61 -9 96 -20 35 -10 96 -24 134 -30 39 -6 90 -17 115 -25 25 -8
90 -22 145 -30 55 -9 104 -20 108 -24 13 -13 -21 -40 -66 -52 -23 -6 -54 -20
-68 -30 -15 -10 -34 -19 -42 -19 -8 0 -35 -11 -61 -25 -26 -14 -52 -25 -59
-25 -7 0 -39 -14 -72 -30 -33 -16 -66 -30 -73 -30 -8 0 -26 -9 -41 -19 -14
-10 -45 -24 -67 -30 -23 -6 -47 -18 -54 -25 -6 -8 -26 -18 -43 -22 -18 -3 -48
-15 -67 -25 -33 -16 -101 -48 -227 -105 -29 -13 -77 -35 -105 -49 -29 -13 -64
-27 -78 -31 -14 -4 -36 -15 -49 -25 -13 -11 -31 -19 -40 -19 -9 0 -38 -11 -66
-24 -27 -13 -75 -35 -105 -49 -30 -13 -85 -39 -121 -56 -36 -17 -71 -31 -78
-31 -7 0 -25 -9 -40 -19 -14 -10 -45 -24 -67 -30 -23 -6 -47 -18 -54 -25 -6
-8 -26 -18 -43 -21 -18 -4 -51 -18 -74 -31 -23 -13 -50 -24 -60 -24 -10 0 -32
-8 -49 -19 -17 -10 -41 -22 -55 -26 -24 -7 -107 -45 -204 -91 -28 -13 -58 -24
-67 -24 -9 0 -19 -4 -23 -9 -3 -5 -27 -17 -53 -27 -26 -10 -59 -26 -74 -36
-14 -10 -32 -18 -40 -18 -7 0 -40 -13 -73 -30 -33 -16 -66 -30 -73 -30 -8 0
-26 -8 -40 -19 -15 -10 -38 -22 -52 -25 -14 -4 -54 -21 -90 -38 -36 -16 -83
-38 -105 -47 -22 -10 -65 -30 -95 -44 -30 -15 -67 -30 -82 -33 -15 -3 -32 -12
-39 -20 -6 -8 -30 -19 -52 -25 -23 -6 -52 -19 -65 -30 -14 -10 -29 -19 -35
-19 -11 0 -117 -48 -179 -80 -20 -11 -43 -20 -51 -20 -8 0 -34 -11 -59 -24
-24 -13 -55 -27 -69 -31 -23 -7 -51 -19 -179 -78 -30 -14 -66 -28 -80 -32 -14
-4 -36 -16 -49 -26 -13 -11 -30 -19 -38 -19 -13 0 -73 -26 -198 -86 -28 -13
-56 -24 -64 -24 -7 0 -25 -9 -40 -19 -15 -11 -40 -23 -57 -27 -16 -4 -49 -18
-73 -31 -24 -12 -49 -23 -56 -23 -7 0 -23 -8 -36 -19 -13 -10 -35 -21 -49 -25
-14 -4 -50 -19 -80 -33 -30 -14 -80 -37 -110 -51 -30 -13 -76 -35 -103 -48
-26 -13 -53 -24 -60 -24 -6 0 -39 -14 -72 -30 -33 -17 -65 -30 -73 -30 -7 0
-30 -9 -50 -19 -78 -41 -144 -71 -156 -71 -6 0 -31 -11 -56 -24 -25 -13 -56
-27 -70 -31 -14 -4 -36 -15 -50 -25 -14 -10 -39 -21 -57 -24 -18 -4 -43 -16
-56 -26 -13 -10 -45 -24 -70 -31 -26 -6 -52 -17 -58 -25 -6 -8 -30 -19 -53
-25 -22 -6 -48 -17 -56 -24 -8 -7 -33 -18 -55 -25 -22 -7 -45 -16 -51 -21 -10
-8 -132 -61 -189 -81 -16 -6 -42 -19 -56 -29 -14 -10 -38 -21 -55 -25 -16 -4
-41 -15 -55 -25 -14 -10 -38 -21 -55 -25 -16 -4 -40 -15 -54 -24 -14 -10 -41
-22 -60 -29 -19 -6 -57 -22 -84 -36 -27 -14 -55 -25 -61 -25 -7 0 -18 -6 -24
-14 -7 -8 -27 -18 -44 -22 -18 -3 -52 -17 -77 -30 -25 -13 -51 -24 -59 -24 -8
0 -33 -11 -55 -24 -23 -13 -54 -26 -70 -30 -17 -4 -41 -15 -55 -25 -14 -10
-39 -21 -55 -25 -17 -4 -41 -15 -55 -25 -14 -10 -39 -21 -55 -25 -16 -4 -41
-16 -54 -27 -14 -10 -32 -19 -41 -19 -9 0 -38 -11 -66 -24 -131 -63 -183 -86
-196 -86 -8 0 -29 -9 -47 -20 -40 -25 -145 -51 -181 -45 -14 3 -129 9 -256 15
-126 6 -279 17 -340 26 -60 8 -211 19 -335 24 -124 6 -274 17 -335 25 -60 8
-218 22 -350 30 -132 9 -271 20 -310 25 -38 5 -162 14 -275 20 -113 6 -281 19
-375 30 -93 11 -255 24 -360 30 -104 5 -248 17 -320 24 -71 8 -227 20 -345 26
-118 6 -237 15 -265 20 -27 5 -140 14 -250 20 -110 6 -285 20 -390 30 -104 11
-248 22 -320 25 -164 7 -365 24 -430 35 -27 5 -135 14 -240 20 -104 6 -244 17
-310 25 -66 8 -207 19 -313 25 -106 6 -198 13 -205 15 -31 11 -322 35 -424 35
-155 0 -151 -2 -408 205 -68 55 -142 114 -165 130 -61 45 -101 78 -124 101
-12 11 -29 23 -39 27 -23 9 -32 34 -18 51 7 8 28 17 49 21 20 3 60 17 87 30
28 13 68 26 90 30 22 4 56 15 75 25 19 10 53 21 75 24 21 4 55 16 75 25 19 10
55 23 80 29 25 6 63 20 85 32 21 11 48 20 60 20 11 0 36 9 56 19 20 11 54 23
75 27 22 3 65 17 96 30 32 13 67 24 78 24 11 0 38 9 60 20 21 11 59 24 85 30
26 6 67 20 91 30 23 11 53 20 66 20 13 0 42 9 63 20 22 12 69 28 105 36 36 9
70 20 76 24 6 5 35 15 65 21 30 6 68 18 84 27 17 8 59 23 95 32 36 10 79 22
95 28 60 22 161 53 200 63 22 6 60 17 85 26 25 8 74 23 110 33 36 10 82 25
102 34 21 9 46 16 56 16 10 0 36 9 57 20 22 12 61 25 87 30 27 5 67 18 90 28
24 11 61 23 83 27 21 3 55 15 75 25 20 10 54 22 75 26 22 3 56 15 77 25 20 10
53 23 75 28 21 5 61 18 88 29 46 19 107 41 240 86 28 10 76 24 108 32 32 8 75
24 95 34 20 11 45 20 54 20 10 0 46 11 80 24 76 30 141 51 228 77 69 19 175
53 225 71 17 6 50 17 75 25 25 7 59 19 75 24 17 6 60 19 97 29 36 10 79 25 95
33 15 8 46 18 68 21 21 4 56 16 77 27 22 11 63 24 92 30 29 5 70 18 91 29 22
11 50 20 62 20 13 0 49 11 81 24 31 13 75 27 97 31 22 4 51 13 65 21 14 7 50
20 80 28 30 8 75 21 100 30 25 8 68 23 95 32 89 28 139 45 210 71 150 54 172
61 235 82 36 12 91 29 123 37 32 8 75 24 95 34 20 11 48 20 62 20 14 0 48 11
75 24 28 12 66 26 86 30 19 3 53 15 74 26 22 11 49 20 62 20 12 0 51 11 85 24
81 32 147 53 230 76 36 10 79 25 95 34 16 8 47 18 68 21 22 4 52 14 67 21 15
8 51 19 80 25 29 6 69 20 90 30 20 10 56 22 80 25 23 4 66 18 93 31 28 12 60
23 72 23 13 0 51 11 85 24 98 36 158 57 218 72 30 8 67 21 81 29 15 8 51 20
80 26 30 6 70 20 89 29 20 10 54 21 75 25 22 4 50 13 62 21 11 7 43 19 70 25
26 6 62 20 78 30 17 10 51 21 75 25 25 4 68 18 95 31 28 12 59 23 70 23 12 0
38 9 59 19 21 11 52 23 69 26 18 3 61 16 97 29 36 13 112 38 170 56 58 18 128
40 155 50 130 45 154 53 218 70 37 10 74 23 81 29 7 6 40 17 75 25 34 8 68 19
75 25 7 6 40 17 73 25 34 7 72 21 85 30 12 9 32 16 43 16 11 1 45 10 75 21 30
11 82 28 115 39 33 10 119 39 190 64 72 25 144 46 160 46 17 0 73 -7 125 -14z
m-12519 -2632 c30 -20 74 -56 99 -79 38 -35 104 -92 325 -273 11 -9 66 -56
123 -104 57 -49 106 -88 110 -88 4 0 34 -25 67 -56 33 -30 87 -76 119 -102
100 -79 548 -453 602 -501 45 -41 95 -83 155 -131 86 -68 251 -202 348 -280
64 -53 134 -109 156 -125 22 -16 68 -52 102 -80 180 -146 258 -180 463 -200
74 -7 194 -20 265 -29 72 -9 211 -20 310 -26 99 -5 225 -16 280 -25 55 -8 183
-19 285 -24 102 -6 237 -17 300 -25 63 -9 201 -20 306 -26 106 -6 241 -17 300
-26 60 -8 206 -19 324 -24 118 -6 271 -17 340 -26 69 -8 211 -19 315 -24 242
-12 329 -19 385 -31 25 -5 167 -16 315 -24 149 -9 294 -20 324 -25 29 -5 169
-16 310 -25 141 -9 285 -20 321 -25 36 -5 162 -16 280 -25 118 -8 242 -19 276
-25 33 -5 78 -10 100 -10 53 0 84 -10 84 -25 0 -8 -15 -17 -32 -21 -18 -3 -58
-18 -88 -32 -66 -30 -170 -77 -225 -102 -22 -10 -69 -32 -105 -49 -36 -17 -70
-31 -76 -31 -6 0 -17 -7 -24 -14 -6 -8 -33 -22 -60 -31 -27 -9 -53 -22 -60
-30 -6 -7 -26 -16 -44 -19 -19 -4 -45 -15 -57 -25 -13 -10 -37 -21 -54 -25
-16 -3 -52 -17 -80 -30 -106 -50 -166 -76 -179 -76 -7 0 -24 -8 -37 -19 -13
-10 -35 -21 -49 -25 -24 -7 -54 -20 -180 -79 -30 -14 -66 -29 -80 -33 -14 -4
-36 -15 -49 -25 -13 -11 -31 -19 -41 -19 -9 0 -37 -11 -62 -24 -24 -13 -68
-29 -97 -35 -43 -9 -68 -8 -134 5 -45 9 -93 22 -107 29 -14 7 -50 16 -80 20
-30 4 -91 18 -134 31 -44 13 -92 24 -108 24 -15 0 -54 9 -86 20 -31 11 -91 24
-132 30 -41 5 -101 18 -132 30 -32 11 -71 20 -87 20 -17 0 -63 11 -103 24 -40
13 -96 26 -125 30 -28 3 -77 15 -109 26 -31 11 -69 20 -83 20 -14 1 -51 10
-81 21 -30 11 -84 26 -120 34 -36 7 -83 20 -105 28 -22 8 -65 18 -95 22 -29 4
-77 15 -105 25 -28 10 -75 21 -105 25 -30 4 -77 15 -105 25 -28 10 -76 21
-106 25 -30 4 -87 18 -128 31 -40 13 -87 24 -103 24 -16 0 -55 9 -87 20 -32
10 -89 24 -127 30 -38 6 -89 17 -114 25 -25 7 -72 19 -105 25 -33 6 -87 20
-120 30 -33 10 -83 21 -112 24 -28 4 -75 15 -105 25 -30 10 -79 22 -109 26
-30 4 -69 13 -87 21 -19 8 -64 19 -100 25 -37 6 -102 22 -145 35 -43 13 -89
24 -102 24 -14 0 -51 9 -82 19 -32 11 -91 25 -131 31 -41 6 -89 17 -108 25
-20 8 -59 17 -87 21 -29 3 -85 17 -125 30 -40 13 -86 24 -102 24 -17 0 -58 9
-91 20 -33 11 -93 27 -134 35 -41 8 -83 18 -93 24 -10 5 -50 15 -88 22 -38 6
-89 19 -114 29 -25 9 -69 20 -99 24 -30 4 -70 14 -89 21 -18 8 -64 20 -100 26
-37 6 -94 19 -127 29 -33 11 -82 22 -110 25 -27 4 -77 15 -110 25 -33 11 -90
24 -126 30 -37 5 -82 16 -100 24 -19 8 -59 17 -89 21 -30 3 -93 17 -140 30
-47 13 -107 26 -135 30 -27 4 -65 13 -84 21 -19 8 -66 19 -105 25 -39 6 -86
17 -105 25 -19 8 -66 19 -104 25 -38 6 -93 19 -122 29 -30 10 -80 22 -112 25
-32 4 -70 13 -84 21 -14 7 -63 19 -110 28 -46 8 -100 21 -119 29 -19 8 -62 18
-95 22 -33 4 -87 15 -120 25 -33 11 -87 24 -121 29 -33 5 -77 16 -98 25 -20 8
-61 18 -89 22 -29 3 -77 14 -109 25 -31 10 -86 23 -123 29 -37 6 -84 18 -104
26 -20 9 -61 19 -91 24 -30 4 -91 17 -135 29 -44 12 -114 32 -155 43 -41 12
-101 25 -132 29 -32 5 -74 16 -94 24 -20 8 -66 20 -103 25 -36 6 -93 19 -126
30 -33 10 -85 22 -115 26 -29 3 -74 15 -98 25 -24 11 -58 19 -75 19 -41 0 -77
10 -77 21 0 10 93 59 112 59 7 0 40 14 73 30 33 16 69 30 80 30 11 0 34 9 52
19 17 11 51 25 75 31 24 7 50 18 58 25 8 7 26 16 40 19 25 7 103 39 195 81 28
12 63 26 79 29 16 4 41 16 54 27 14 10 32 19 40 19 8 0 38 11 66 24 29 14 65
28 81 32 17 4 44 16 60 26 17 10 39 18 50 18 11 0 47 14 80 30 33 16 67 30 75
30 8 0 29 8 45 19 17 10 46 23 66 30 20 6 53 20 74 31 22 11 45 20 52 20 8 0
36 11 63 25 27 14 55 25 62 25 7 0 34 11 60 25 26 14 53 25 60 25 8 0 31 9 53
20 21 11 54 25 74 31 20 6 52 20 71 30 33 18 57 27 179 70 30 10 60 24 67 30
7 6 32 17 56 24 50 16 171 66 216 89 17 9 39 16 49 16 10 0 32 7 48 16 35 19
103 42 126 43 9 1 41 -15 70 -35z m-3683 -1698 c15 -7 50 -16 79 -20 28 -3 77
-15 109 -26 31 -11 69 -20 83 -20 15 0 65 -11 111 -24 47 -14 108 -28 135 -32
28 -3 70 -14 95 -24 25 -9 70 -20 101 -23 30 -4 80 -15 110 -26 30 -10 80 -22
110 -26 30 -4 74 -15 99 -25 25 -10 77 -21 115 -25 39 -4 96 -16 128 -27 32
-11 81 -23 110 -27 29 -5 86 -17 127 -29 41 -11 98 -25 125 -31 54 -10 141
-33 245 -62 36 -11 92 -24 125 -29 33 -6 87 -19 120 -30 33 -10 85 -22 115
-26 30 -3 75 -14 100 -24 25 -9 71 -20 102 -24 32 -3 81 -15 110 -25 29 -11
76 -22 103 -26 28 -4 75 -15 105 -25 30 -10 82 -21 115 -25 33 -4 82 -15 110
-25 27 -10 84 -24 125 -30 41 -7 86 -18 100 -25 14 -7 52 -16 85 -20 33 -4 85
-16 115 -26 30 -10 85 -23 121 -29 37 -5 85 -17 108 -25 23 -8 79 -21 124 -29
45 -8 98 -21 117 -29 19 -8 59 -18 89 -21 30 -4 70 -14 89 -21 18 -8 73 -22
122 -30 49 -8 103 -22 122 -29 18 -8 62 -17 98 -21 36 -4 86 -16 112 -26 25
-10 70 -21 100 -25 29 -4 73 -15 98 -24 25 -10 70 -21 100 -25 30 -4 88 -18
128 -31 40 -13 86 -24 102 -24 16 0 53 -9 82 -19 29 -11 80 -25 114 -31 33 -5
86 -19 117 -30 31 -11 70 -20 87 -20 17 0 56 -9 88 -19 31 -11 97 -27 146 -36
50 -9 97 -20 106 -25 10 -5 48 -14 86 -20 38 -6 94 -19 124 -29 30 -10 82 -22
115 -26 33 -4 75 -13 93 -21 19 -7 64 -19 100 -25 37 -6 94 -19 127 -29 33
-11 91 -24 129 -30 38 -6 77 -15 88 -21 10 -6 57 -17 105 -25 47 -8 102 -21
122 -29 20 -7 70 -19 111 -26 41 -6 91 -18 110 -25 19 -7 71 -20 115 -27 44
-8 90 -19 102 -25 11 -6 54 -17 94 -23 41 -6 94 -19 119 -29 25 -9 72 -21 105
-25 32 -4 80 -15 105 -25 25 -9 67 -20 93 -24 26 -4 72 -16 102 -26 29 -10 80
-22 112 -25 32 -4 78 -16 103 -25 25 -10 73 -21 105 -25 33 -4 76 -14 95 -22
19 -8 67 -21 105 -28 65 -12 149 -33 335 -83 41 -12 98 -25 125 -30 28 -6 77
-17 110 -26 33 -8 87 -22 120 -30 33 -8 78 -19 100 -24 48 -12 157 -39 240
-59 68 -17 176 -53 188 -63 4 -4 8 -967 8 -2141 l-1 -2134 -25 -22 c-15 -13
-32 -23 -39 -23 -7 0 -31 -13 -52 -30 -22 -16 -58 -44 -82 -62 -47 -36 -175
-184 -206 -239 -45 -79 -86 -161 -86 -172 0 -7 -9 -30 -20 -51 -10 -21 -24
-64 -30 -95 -6 -31 -20 -83 -30 -116 -11 -33 -22 -80 -26 -105 -3 -25 -14 -68
-25 -97 -10 -28 -21 -75 -25 -105 -4 -29 -13 -69 -21 -88 -8 -19 -21 -73 -29
-119 -9 -47 -21 -96 -29 -110 -7 -15 -16 -49 -20 -76 -4 -28 -15 -70 -25 -95
-22 -55 -55 -154 -79 -235 -9 -33 -23 -69 -29 -80 -6 -11 -18 -45 -26 -75 -8
-30 -21 -75 -30 -100 -8 -25 -26 -76 -38 -115 -23 -70 -23 -73 -26 -743 -2
-592 -4 -674 -18 -679 -8 -3 -43 6 -77 19 -98 39 -157 59 -222 75 -33 8 -82
23 -110 33 -27 10 -66 21 -85 25 -19 3 -55 14 -80 25 -25 10 -72 25 -105 33
-33 8 -82 23 -110 32 -113 37 -202 64 -237 70 -20 3 -56 14 -80 24 -24 11 -63
22 -88 26 -24 4 -54 13 -65 21 -11 7 -53 20 -92 29 -40 9 -75 20 -78 25 -3 5
-31 14 -63 20 -31 7 -70 19 -87 28 -16 8 -64 23 -105 33 -145 34 -205 52 -248
70 -23 10 -61 22 -85 25 -23 4 -58 15 -77 24 -19 10 -55 21 -80 25 -25 4 -61
16 -82 26 -20 10 -56 21 -80 25 -23 4 -59 15 -78 24 -19 10 -62 23 -95 30 -33
7 -71 18 -85 25 -14 7 -49 18 -78 24 -29 6 -70 20 -92 31 -22 11 -47 20 -57
20 -16 0 -176 46 -248 72 -16 6 -59 18 -95 28 -36 9 -79 24 -95 32 -17 9 -53
19 -80 23 -28 4 -67 16 -87 26 -21 11 -44 19 -53 19 -15 0 -169 46 -255 76
-25 9 -74 22 -109 30 -35 8 -76 21 -92 29 -15 8 -52 20 -81 26 -29 6 -73 18
-98 28 -25 10 -67 22 -95 26 -27 4 -65 15 -85 25 -19 9 -55 20 -78 24 -24 4
-60 15 -80 25 -21 10 -57 22 -82 26 -25 4 -61 15 -80 25 -20 10 -61 23 -93 29
-31 5 -67 17 -80 26 -13 8 -46 18 -73 21 -27 4 -66 15 -86 25 -20 11 -67 23
-103 28 -37 5 -73 15 -80 21 -8 7 -45 20 -82 30 -75 20 -135 40 -233 75 -36
13 -83 27 -105 30 -21 4 -55 15 -75 24 -19 10 -53 21 -76 24 -22 4 -61 15 -85
26 -24 10 -64 22 -89 26 -25 4 -61 15 -80 25 -19 10 -55 21 -80 25 -25 4 -61
15 -80 25 -20 10 -61 23 -93 29 -31 5 -69 17 -84 25 -16 8 -54 19 -85 25 -32
5 -70 17 -85 24 -16 8 -52 20 -81 26 -29 6 -65 17 -80 25 -16 8 -57 20 -92 26
-35 6 -76 18 -92 26 -15 8 -51 19 -80 25 -29 6 -65 18 -81 25 -15 8 -50 19
-79 24 -28 6 -65 17 -82 26 -17 8 -51 19 -75 25 -50 11 -127 44 -136 59 -3 5
-7 326 -8 712 -2 648 -3 709 -21 778 -29 117 -68 236 -102 305 -13 28 -24 57
-24 65 0 8 -9 29 -19 46 -10 17 -22 46 -26 64 -4 18 -18 53 -31 78 -13 25 -24
52 -24 61 0 9 -7 30 -16 46 -17 32 -53 130 -84 230 -18 59 -26 84 -70 215 -12
36 -25 87 -30 115 -5 27 -18 72 -29 100 -11 27 -24 74 -30 103 -6 29 -17 65
-25 80 -7 15 -17 47 -21 72 -4 25 -15 61 -25 80 -9 19 -21 53 -24 75 -4 21
-19 59 -32 84 -13 25 -24 52 -24 60 0 7 -8 28 -19 45 -10 17 -22 42 -26 56 -4
14 -33 63 -63 109 -62 94 -228 268 -282 296 -19 10 -48 28 -63 41 -16 13 -34
24 -40 24 -7 0 -28 11 -47 24 -19 13 -67 36 -107 51 -40 16 -73 33 -75 39 -2
6 -2 894 0 1974 l2 1962 21 0 c11 0 32 -6 47 -14z m27612 -7801 c0 -5184 0
-5245 -19 -5264 -11 -11 -39 -25 -63 -31 -24 -6 -61 -19 -83 -29 -41 -20 -129
-50 -225 -77 -30 -9 -67 -25 -82 -36 -16 -11 -36 -18 -46 -16 -16 3 -17 66
-19 1108 -1 608 -6 2232 -12 3610 -6 1378 -7 2930 -3 3450 7 942 7 945 28 981
12 20 30 63 39 95 9 33 21 64 25 69 5 6 14 33 21 60 6 28 20 66 30 85 9 20 21
54 25 75 3 22 14 56 24 75 9 19 23 58 29 85 7 28 18 59 25 70 8 11 17 41 21
65 4 25 18 71 31 102 13 32 24 65 24 75 0 10 11 41 25 68 13 28 25 61 25 75 0
14 9 44 21 65 11 22 25 65 30 95 6 30 17 65 25 78 8 12 19 48 25 80 5 31 16
77 24 102 8 25 19 64 25 88 6 23 15 42 20 42 7 0 10 -1895 10 -5245z m-27664
2754 c3 -6 14 -41 24 -78 47 -179 60 -222 73 -248 8 -15 20 -52 26 -81 6 -29
17 -63 25 -75 8 -12 18 -40 22 -62 3 -22 14 -53 22 -70 8 -16 23 -59 33 -95 9
-36 25 -87 34 -115 18 -50 48 -138 77 -225 28 -82 40 -115 60 -165 11 -27 24
-67 29 -88 5 -22 18 -55 28 -75 10 -21 22 -55 25 -77 4 -22 17 -56 29 -75 l22
-35 3 -1605 c2 -883 -2 -2629 -9 -3880 -6 -1251 -13 -2291 -13 -2310 -1 -19
-3 -240 -4 -490 -1 -250 -6 -461 -11 -469 -8 -12 -20 -11 -77 4 -38 10 -85 26
-104 35 -19 10 -51 21 -70 25 -19 4 -49 16 -66 26 -17 10 -40 19 -50 19 -11 0
-47 13 -81 30 -43 20 -63 35 -63 47 0 10 -1 2296 -2 5081 -2 2784 0 5062 4
5062 4 0 10 -5 14 -11z m10262 -2355 c18 -27 37 -67 43 -89 5 -22 18 -67 29
-100 10 -33 26 -98 34 -145 9 -47 22 -110 31 -140 8 -30 15 -66 15 -80 0 -15
11 -59 25 -98 14 -39 25 -82 25 -96 0 -13 11 -54 25 -90 14 -37 25 -75 25 -87
0 -11 11 -46 25 -79 14 -33 25 -70 25 -82 0 -13 9 -40 20 -61 11 -21 25 -61
31 -90 6 -28 17 -62 25 -74 8 -12 21 -48 29 -80 8 -32 24 -87 35 -123 12 -36
26 -81 31 -100 6 -22 9 -1740 7 -4744 l-3 -4710 -33 -19 c-31 -18 -117 -52
-212 -84 -25 -8 -65 -23 -90 -33 -25 -11 -60 -22 -79 -26 -19 -3 -55 -17 -80
-31 -40 -22 -55 -24 -114 -19 -41 3 -80 13 -100 24 -18 11 -48 23 -67 27 -19
4 -45 13 -56 20 -12 8 -50 21 -85 30 -35 9 -69 21 -76 27 -7 5 -34 15 -60 22
-27 7 -68 25 -91 40 l-42 26 2 4758 3 4757 27 65 c15 36 33 85 41 110 8 25 20
59 25 75 24 66 45 133 59 190 8 33 21 75 29 94 8 18 21 64 29 103 8 38 21 81
29 96 8 15 17 50 21 77 4 28 16 70 25 95 10 25 23 81 30 125 7 44 18 94 25
112 7 17 18 63 24 103 6 39 18 86 25 104 8 18 17 53 21 77 4 24 13 55 20 69
22 43 98 122 130 136 27 11 34 10 70 -10 22 -13 55 -45 73 -72z m9207 -2319
l0 -1330 -50 -27 c-27 -15 -59 -28 -70 -28 -11 0 -33 -7 -50 -16 -16 -9 -61
-27 -100 -41 -176 -62 -207 -63 -314 -18 -33 14 -68 25 -78 25 -10 0 -36 10
-58 21 -22 12 -60 28 -85 36 -25 8 -62 24 -83 36 l-38 22 0 1149 c1 832 5
1154 13 1170 14 27 24 34 73 47 22 6 54 17 70 25 35 16 159 59 230 79 28 8 68
24 90 35 21 11 48 20 60 20 11 0 43 12 70 25 28 14 59 25 70 25 11 0 44 11 73
25 30 14 64 25 75 25 12 1 33 7 47 15 14 8 32 13 40 12 13 -2 15 -158 15
-1332z"/>
    <path d="M8150 18376 c-19 -8 -51 -19 -70 -26 -55 -20 -125 -76 -165 -131 -22
-31 -44 -79 -56 -123 -18 -69 -19 -145 -19 -2446 0 -2362 0 -2376 20 -2449 12
-41 31 -88 43 -104 30 -41 147 -157 159 -157 6 0 23 -9 39 -21 16 -11 46 -25
67 -30 41 -11 140 -40 217 -64 28 -9 86 -25 129 -36 44 -11 85 -24 90 -28 6
-5 39 -14 73 -21 35 -6 82 -20 105 -30 24 -11 53 -20 66 -20 13 0 56 -11 95
-24 40 -14 92 -27 117 -31 25 -4 64 -15 86 -25 23 -10 61 -21 85 -25 24 -4 64
-15 89 -25 25 -10 72 -25 105 -33 121 -31 231 -64 250 -74 11 -6 49 -17 85
-23 35 -6 77 -18 92 -26 16 -8 54 -20 86 -25 31 -6 69 -17 85 -25 15 -8 53
-19 85 -25 31 -6 77 -19 102 -28 43 -17 98 -33 235 -67 33 -9 80 -24 105 -34
25 -11 65 -22 90 -26 25 -3 64 -14 86 -24 23 -10 61 -21 85 -25 24 -4 70 -18
101 -31 32 -13 69 -24 83 -24 15 0 47 -9 73 -19 26 -10 74 -26 107 -34 33 -8
80 -22 105 -30 25 -9 88 -28 140 -42 52 -15 129 -37 170 -50 41 -13 91 -26
110 -30 19 -4 53 -15 75 -25 22 -10 62 -21 90 -25 27 -4 65 -15 85 -25 19 -9
57 -21 85 -25 27 -4 65 -15 85 -25 20 -10 58 -21 85 -25 28 -4 70 -15 95 -25
25 -10 72 -25 105 -33 33 -8 83 -22 110 -31 106 -35 182 -58 235 -71 30 -7 75
-20 100 -28 25 -9 86 -27 135 -42 50 -14 110 -33 135 -42 25 -9 72 -22 105
-31 33 -8 84 -23 113 -33 35 -13 80 -19 135 -19 65 0 88 4 112 20 17 11 37 20
47 20 22 0 117 79 158 130 18 22 43 71 57 108 l24 67 6 2530 5 2530 -25 66
c-45 116 -81 161 -204 255 -16 12 -43 25 -62 29 -18 4 -52 15 -75 25 -22 10
-69 21 -104 24 -34 4 -89 15 -121 26 -32 10 -81 22 -107 26 -27 3 -62 13 -77
21 -16 8 -66 21 -112 29 -46 8 -99 21 -118 29 -18 7 -58 17 -88 20 -30 4 -89
18 -132 31 -43 13 -91 24 -107 24 -16 0 -64 11 -106 25 -42 14 -91 25 -109 25
-17 0 -64 11 -103 25 -39 14 -85 25 -102 25 -16 0 -62 11 -102 24 -40 13 -100
27 -133 31 -33 4 -75 13 -93 21 -19 7 -64 19 -100 25 -37 6 -83 18 -102 26
-19 8 -73 21 -119 29 -47 9 -93 20 -103 25 -10 6 -58 16 -107 24 -48 8 -103
21 -122 29 -19 7 -58 17 -88 21 -30 4 -79 16 -109 26 -30 10 -77 22 -105 25
-29 4 -73 15 -99 25 -25 10 -70 21 -100 25 -29 4 -89 18 -132 30 -44 13 -89
24 -100 24 -11 0 -61 11 -110 25 -114 30 -199 51 -301 74 -44 10 -96 23 -115
29 -19 7 -60 16 -90 22 -30 5 -84 18 -120 29 -36 11 -128 34 -205 51 -77 17
-165 38 -195 46 -30 9 -89 22 -130 30 -41 8 -88 19 -105 25 -16 6 -66 19 -110
29 -109 24 -203 46 -310 75 -49 13 -108 26 -130 30 -22 3 -69 15 -104 26 -74
22 -189 25 -241 5z m652 -950 c40 -13 96 -27 125 -30 28 -4 75 -15 105 -25 29
-10 84 -24 122 -30 38 -7 84 -18 101 -25 18 -8 56 -17 86 -21 30 -3 72 -13 94
-21 22 -8 81 -23 130 -34 122 -26 208 -48 280 -71 33 -10 80 -21 105 -25 25
-3 80 -17 123 -30 43 -13 88 -24 101 -24 12 0 58 -11 102 -24 43 -12 102 -26
131 -30 29 -4 71 -15 95 -26 24 -11 55 -20 69 -20 14 0 61 -9 105 -21 43 -12
113 -27 155 -34 42 -7 89 -20 105 -28 16 -8 56 -18 89 -22 33 -5 83 -16 112
-26 28 -9 78 -21 110 -24 32 -4 81 -16 108 -26 28 -9 82 -22 121 -28 39 -6 87
-17 106 -25 19 -8 59 -18 89 -21 30 -4 88 -17 129 -30 41 -13 98 -28 125 -33
59 -11 160 -36 265 -64 41 -11 104 -26 140 -34 36 -7 83 -19 105 -27 22 -8 63
-17 90 -21 28 -4 73 -15 100 -25 28 -10 74 -21 103 -25 30 -4 77 -15 105 -26
29 -10 81 -22 116 -25 42 -5 70 -14 82 -26 19 -19 19 -72 19 -2031 0 -1109 -4
-2019 -9 -2027 -7 -10 -16 -11 -42 -2 -165 52 -232 71 -249 71 -12 0 -34 7
-50 15 -16 8 -53 20 -82 26 -29 6 -75 19 -103 29 -27 10 -77 25 -110 33 -33 9
-82 23 -110 32 -59 19 -193 59 -250 73 -22 6 -62 18 -90 27 -138 44 -212 65
-230 65 -11 0 -39 9 -62 19 -22 11 -67 25 -98 31 -31 6 -72 18 -90 26 -18 7
-62 20 -97 28 -34 8 -83 21 -108 30 -25 9 -92 29 -150 46 -58 17 -125 38 -150
46 -25 9 -73 22 -108 30 -34 7 -75 20 -90 28 -15 8 -52 19 -82 24 -30 6 -68
16 -85 23 -16 6 -61 20 -100 30 -72 18 -135 37 -215 65 -25 9 -63 20 -85 26
-22 6 -60 17 -85 25 -25 8 -63 19 -85 25 -22 6 -60 17 -85 25 -25 8 -63 19
-85 25 -22 6 -60 17 -85 25 -25 8 -72 22 -105 30 -33 8 -76 21 -95 30 -19 8
-62 21 -95 28 -33 8 -86 23 -117 34 -32 12 -70 21 -85 21 -16 0 -47 9 -70 20
-24 10 -68 24 -98 29 -30 6 -64 15 -75 21 -11 6 -57 19 -103 30 -45 10 -102
25 -127 34 -25 8 -61 17 -80 21 -19 3 -42 10 -50 15 -13 8 -15 234 -18 1917
-1 1049 0 1914 3 1921 7 19 58 14 137 -12z"/>
  </g>
</svg>