<svg xmlns="http://www.w3.org/2000/svg" viewBox="0 0 4096.000000 4096.000000">
  <g transform="translate(0.000000,4096.000000) scale(0.100000,-0.100000)" fill="#f4f5f7" stroke="#f4f5f7" stroke-width="40" stroke-linejoin="round" stroke-linecap="round">
    <path d="M19965 40319 c-134 -8 -224 -25 -370 -70 -248 -77 -537 -271 -710
-479 -86 -103 -169 -229 -217 -330 -58 -123 -113 -297 -139 -440 -21 -120 -22
-153 -26 -810 -2 -377 -4 -3284 -6 -6460 -2 -5736 -2 -5775 -22 -5808 -16 -26
-57 -52 -210 -130 -104 -54 -271 -142 -370 -194 -442 -236 -705 -372 -1040
-538 -198 -99 -504 -254 -680 -345 -176 -92 -862 -439 -1525 -772 -663 -333
-1306 -657 -1430 -720 -370 -190 -534 -275 -545 -284 -5 -4 -185 -95 -400
-203 -214 -108 -453 -230 -530 -271 -77 -42 -414 -213 -750 -380 -700 -349
-1320 -665 -1480 -755 -21 -12 -136 -71 -255 -131 -118 -60 -267 -136 -330
-170 -63 -33 -362 -185 -665 -337 -302 -151 -631 -318 -730 -370 -99 -52 -236
-123 -305 -159 -135 -71 -259 -137 -355 -188 -380 -204 -470 -254 -530 -293
-227 -146 -337 -290 -381 -503 -17 -80 -18 -374 -20 -5524 -1 -2992 -4 -6439
-6 -7660 l-3 -2220 23 -120 c48 -245 143 -481 273 -675 33 -50 106 -135 165
-194 167 -167 340 -287 536 -371 116 -49 279 -99 381 -115 99 -15 513 -31 642
-24 153 8 271 30 404 76 133 46 187 72 296 142 209 136 404 338 522 541 96
165 156 305 197 456 58 218 55 84 63 2824 6 2424 7 2519 25 2537 10 10 27 18
39 18 11 0 100 -14 197 -30 98 -17 294 -48 437 -70 143 -22 346 -54 450 -70
347 -56 1335 -201 1560 -230 244 -31 444 -59 653 -90 294 -43 388 -56 602 -85
107 -14 251 -34 320 -45 212 -33 448 -70 605 -95 286 -46 852 -127 1055 -150
278 -32 551 -68 578 -76 17 -6 37 -19 42 -30 13 -24 29 -1972 31 -3729 0 -707
4 -1454 8 -1660 8 -352 10 -382 34 -495 78 -352 216 -612 452 -851 164 -165
316 -270 527 -364 256 -113 479 -160 773 -160 195 0 340 17 473 55 124 34 196
62 321 123 280 138 507 353 667 632 105 183 175 377 209 580 10 56 19 180 22
300 2 113 5 1424 6 2914 l2 2709 26 20 c31 23 91 47 404 167 298 114 847 337
1090 443 86 37 428 193 665 302 617 284 1159 523 1440 635 452 180 761 309
950 397 41 19 154 70 250 113 216 96 475 213 640 290 69 31 179 81 245 110
165 72 437 196 635 290 91 43 271 124 400 180 129 57 297 131 372 166 76 35
140 64 143 64 2 0 87 37 187 81 101 45 228 101 283 124 55 23 190 82 300 130
110 48 288 126 395 172 182 80 453 198 685 298 55 24 145 64 200 90 280 131
1178 524 1755 769 239 101 395 172 740 336 215 102 280 124 295 100 5 -7 8
-774 8 -1704 1 -930 4 -2053 7 -2496 6 -701 9 -817 24 -895 48 -254 143 -490
282 -696 82 -124 279 -326 399 -410 206 -144 398 -234 613 -288 150 -38 263
-51 432 -51 159 0 275 12 397 41 211 50 344 107 522 224 325 211 552 507 674
875 20 58 43 139 53 180 18 72 18 667 21 15435 2 10754 -1 15396 -8 15480 -19
211 -88 436 -192 620 -122 217 -276 382 -484 520 -91 61 -228 129 -328 165
-89 31 -241 68 -336 82 -66 9 -1568 12 -6854 13 -3723 1 -6824 -2 -6890 -6z
m13493 -1289 c35 -6 89 -20 120 -32 71 -26 143 -96 160 -156 11 -35 13 -1255
12 -6310 0 -3447 -4 -6280 -8 -6297 -5 -16 -18 -35 -29 -40 -15 -8 -2120 -10
-6935 -7 -6839 3 -6913 4 -6933 23 -20 19 -20 45 -22 6287 -1 4037 2 6280 8
6304 12 47 62 113 116 154 24 18 68 43 100 56 l58 23 1550 5 c853 3 3843 4
6645 3 3554 -2 5114 -6 5158 -13z m-2117 -14167 c23 -23 -8 -44 -266 -180
-253 -132 -1934 -968 -2280 -1133 -49 -24 -218 -109 -375 -190 -157 -81 -391
-200 -520 -265 -129 -66 -289 -148 -355 -183 -197 -106 -640 -330 -1365 -692
-936 -467 -1263 -631 -1276 -641 -18 -15 -1205 -613 -1509 -762 -298 -145
-1477 -736 -1620 -812 -145 -77 -307 -161 -530 -275 -121 -62 -251 -130 -290
-150 -38 -21 -101 -55 -140 -75 -72 -39 -377 -195 -665 -341 -91 -46 -199
-102 -240 -125 -41 -23 -212 -112 -380 -199 -168 -86 -361 -189 -430 -227
-214 -120 -299 -162 -344 -168 -26 -4 -129 3 -257 19 -118 14 -315 37 -439 51
-124 14 -281 32 -350 40 -69 8 -154 17 -190 20 -36 3 -130 15 -210 25 -80 11
-188 24 -240 29 -146 15 -437 48 -620 71 -91 11 -255 29 -365 41 -110 11 -310
33 -445 49 -135 16 -353 41 -485 55 -132 14 -319 34 -415 45 -96 10 -227 24
-290 30 -123 12 -382 41 -571 65 -64 8 -201 24 -305 35 -104 11 -288 31 -409
45 -121 14 -281 32 -355 40 -176 19 -799 90 -960 109 -69 9 -172 20 -230 26
-58 6 -179 20 -270 30 -91 10 -235 26 -320 35 -145 14 -365 39 -775 85 -550
62 -1272 157 -1297 171 -10 5 -18 16 -18 24 0 20 75 61 430 235 173 85 488
241 699 348 211 107 979 492 1705 857 727 364 1348 677 1381 695 33 18 217
111 409 207 192 96 410 207 485 247 75 40 420 216 766 389 347 174 713 360
815 413 184 95 501 257 1165 594 193 98 656 331 1030 519 688 344 766 384
1025 528 168 93 393 205 459 231 43 16 174 17 1991 22 1070 3 3764 5 5987 5
3144 0 4045 -3 4054 -12z m2393 -359 c15 -14 16 -759 14 -8142 l-3 -8127 -33
-67 c-24 -48 -46 -76 -85 -106 -69 -54 -139 -83 -213 -89 -151 -13 -332 95
-404 241 -21 43 -33 87 -40 146 -6 53 -10 1136 -11 2855 0 1524 -4 2865 -9
2980 -7 185 -11 219 -34 291 -14 44 -43 107 -64 140 -80 123 -226 224 -377
260 -54 12 -100 15 -205 11 -106 -4 -153 -11 -220 -31 -105 -32 -115 -36 -386
-162 -206 -96 -323 -147 -989 -434 -137 -59 -468 -205 -735 -325 -504 -225
-586 -262 -935 -416 -115 -50 -338 -150 -495 -222 -157 -71 -370 -166 -475
-212 -104 -45 -287 -126 -405 -180 -118 -53 -235 -105 -260 -115 -25 -10 -94
-41 -155 -70 -60 -29 -328 -146 -595 -261 -267 -116 -498 -216 -515 -223 -16
-8 -100 -44 -185 -81 -298 -128 -636 -278 -750 -330 -63 -30 -209 -95 -325
-146 -370 -162 -556 -244 -735 -326 -96 -44 -278 -124 -405 -177 -443 -187
-665 -285 -1145 -506 -146 -67 -341 -155 -435 -197 -93 -41 -208 -93 -255
-115 -47 -22 -130 -60 -185 -85 -55 -25 -158 -73 -230 -105 -71 -33 -150 -68
-175 -78 -25 -10 -162 -73 -305 -140 -277 -130 -588 -266 -825 -360 -132 -53
-356 -148 -503 -214 -32 -14 -71 -26 -88 -26 -23 0 -32 6 -40 27 -7 18 -10
1316 -9 3967 0 2168 3 3964 7 3991 3 28 13 60 21 72 19 30 78 63 307 171 105
49 325 156 490 237 165 81 388 189 495 240 107 51 317 156 465 232 232 121
1350 682 2480 1246 182 91 377 190 435 222 58 31 269 139 470 239 201 100 541
272 755 381 654 333 1936 974 2180 1090 286 136 1205 598 1403 704 81 43 318
164 527 267 209 103 436 218 505 254 69 37 181 96 250 132 69 36 184 96 255
134 118 61 363 185 1585 800 217 110 564 280 770 378 206 99 449 216 540 260
182 89 239 115 257 115 6 1 19 -6 27 -15z m-26149 -6129 c132 -14 299 -30 370
-36 72 -5 184 -16 250 -24 66 -7 154 -16 195 -20 116 -10 545 -53 635 -65 44
-5 139 -16 210 -24 389 -45 507 -59 675 -81 102 -13 246 -30 320 -39 156 -18
517 -60 940 -112 739 -89 1314 -155 1475 -169 39 -4 111 -13 160 -20 50 -7
126 -16 170 -20 44 -4 222 -24 395 -46 173 -22 367 -46 430 -54 63 -8 223 -28
355 -44 249 -32 892 -105 1240 -141 110 -12 290 -32 400 -45 110 -13 283 -33
385 -45 102 -11 237 -27 300 -35 63 -8 180 -22 260 -30 192 -19 418 -45 935
-105 94 -11 222 -24 285 -30 63 -6 132 -15 153 -21 21 -5 44 -21 54 -35 15
-24 17 -433 22 -5682 3 -3111 6 -6449 6 -7417 l0 -1760 -23 -55 c-53 -124
-136 -198 -266 -235 -46 -14 -85 -16 -175 -13 -88 4 -130 11 -174 27 -81 32
-166 112 -202 192 -23 51 -29 84 -36 183 -5 67 -13 1214 -19 2551 -13 3008
-22 3518 -65 3741 -16 87 -60 175 -111 228 -79 81 -229 158 -424 216 -95 28
-447 90 -735 130 -82 12 -235 35 -340 51 -104 16 -392 59 -640 94 -516 74
-611 88 -825 120 -85 14 -256 38 -380 55 -124 16 -272 37 -330 45 -311 44
-1061 147 -1160 160 -63 9 -176 25 -250 35 -74 11 -229 34 -345 50 -115 17
-266 39 -335 50 -69 10 -208 31 -310 45 -102 14 -243 34 -315 45 -71 10 -215
31 -320 45 -104 14 -248 35 -320 45 -71 11 -215 31 -320 45 -104 14 -233 32
-285 40 -193 30 -301 38 -540 39 -210 1 -254 -2 -310 -17 -210 -60 -350 -200
-433 -432 -61 -172 -58 -38 -67 -2870 -5 -1424 -10 -2705 -12 -2845 -3 -252
-3 -256 -29 -310 -29 -61 -91 -128 -158 -171 -24 -16 -74 -38 -110 -51 -52
-17 -88 -22 -166 -22 -79 1 -112 5 -157 23 -79 31 -159 106 -198 185 -25 49
-33 83 -40 157 -11 131 -4 14456 7 14494 5 17 20 36 34 42 13 7 24 13 24 13 0
0 108 -11 240 -25z"/>
    <path d="M21700 37899 c-97 -9 -220 -46 -300 -91 -75 -42 -155 -105 -215 -169
-121 -129 -195 -281 -232 -482 -17 -87 -18 -354 -17 -4657 l0 -4565 22 -80
c31 -114 81 -209 155 -295 128 -149 279 -241 443 -269 38 -6 1854 -11 5224
-13 4823 -3 5170 -2 5237 14 93 22 221 82 299 141 103 78 189 177 233 269 22
46 46 103 53 128 10 36 13 939 15 4615 2 2932 0 4613 -7 4690 -6 79 -18 145
-34 192 -55 161 -148 296 -273 396 -116 92 -181 126 -308 160 l-80 21 -5065 2
c-2786 1 -5103 -2 -5150 -7z m9576 -1267 c6 -4 16 -17 23 -29 8 -16 11 -1028
11 -4027 0 -3626 -1 -4006 -16 -4020 -8 -9 -25 -18 -37 -21 -12 -3 -2035 -4
-4494 -3 -4457 3 -4473 3 -4492 23 -20 20 -20 49 -25 4027 l-5 4006 20 26 20
26 4492 0 c2471 0 4497 -4 4503 -8z"/>
    <path d="M16047 16070 c-80 -14 -188 -50 -257 -86 -213 -111 -322 -318 -308
-585 6 -112 42 -227 105 -335 98 -167 248 -282 428 -329 130 -33 290 -10 426
61 124 65 247 188 311 309 58 112 72 173 73 315 0 75 -6 147 -14 180 -8 30
-31 91 -52 135 -42 90 -114 170 -207 232 -133 88 -341 130 -505 103z"/>
  </g>
</svg>