<svg xmlns="http://www.w3.org/2000/svg" viewBox="0 0 4096.000000 4096.000000">
  <g transform="translate(0.000000,4096.000000) scale(0.100000,-0.100000)" fill="#f4f5f7" stroke="#f4f5f7" stroke-width="40" stroke-linejoin="round" stroke-linecap="round">
    <path d="M20075 40043 c-44 -1 -235 -7 -425 -13 -190 -6 -409 -17 -486 -25
-78 -8 -238 -22 -355 -30 -280 -19 -428 -32 -574 -50 -66 -8 -181 -21 -255
-29 -74 -8 -198 -24 -275 -35 -77 -11 -194 -27 -260 -35 -134 -18 -371 -59
-765 -135 -465 -90 -863 -183 -1445 -339 -126 -34 -354 -103 -670 -204 -212
-67 -295 -95 -566 -191 -122 -43 -449 -168 -599 -229 -204 -83 -243 -99 -340
-141 -58 -25 -180 -79 -273 -121 -92 -42 -169 -76 -171 -76 -3 0 -71 -32 -153
-71 -81 -39 -206 -98 -278 -131 -163 -75 -510 -253 -810 -416 -126 -69 -300
-162 -385 -207 -176 -93 -188 -100 -440 -243 -102 -57 -210 -120 -240 -140
-125 -79 -228 -144 -298 -188 -97 -60 -318 -204 -527 -344 -199 -132 -333
-227 -419 -296 -28 -22 -136 -105 -241 -184 -253 -191 -603 -457 -755 -574
-245 -189 -434 -348 -605 -511 -17 -16 -101 -93 -186 -169 -220 -199 -935
-918 -1195 -1201 -299 -327 -450 -497 -574 -649 -58 -71 -144 -175 -192 -231
-167 -198 -304 -374 -463 -596 -88 -123 -187 -260 -220 -304 -104 -139 -224
-312 -400 -577 -419 -634 -620 -958 -788 -1273 -39 -71 -109 -200 -157 -285
-80 -143 -121 -220 -287 -540 -69 -133 -228 -477 -367 -795 -53 -121 -108
-245 -121 -275 -43 -96 -130 -306 -290 -700 -68 -167 -153 -404 -217 -600 -38
-118 -80 -244 -93 -280 -67 -190 -258 -802 -302 -970 -168 -643 -246 -999
-393 -1780 -54 -289 -136 -841 -155 -1045 -4 -38 -15 -146 -26 -240 -23 -207
-35 -342 -49 -542 -36 -518 -42 -693 -47 -1388 -5 -746 -5 -763 37 -1430 21
-325 86 -984 115 -1160 8 -49 22 -146 30 -215 9 -69 24 -174 35 -235 11 -60
29 -166 40 -235 24 -151 135 -723 191 -985 53 -252 196 -810 264 -1035 8 -25
33 -108 55 -185 59 -196 176 -548 325 -970 115 -327 152 -429 247 -680 42
-111 144 -355 184 -442 19 -40 34 -75 34 -78 0 -4 11 -31 25 -61 14 -30 25
-57 25 -60 0 -4 53 -124 170 -379 10 -22 35 -78 55 -125 103 -237 326 -691
485 -985 118 -218 281 -509 338 -605 25 -41 75 -127 112 -190 188 -323 409
-670 657 -1033 132 -193 144 -210 211 -303 20 -28 69 -95 107 -149 39 -53 106
-145 149 -204 43 -58 115 -158 160 -221 110 -157 162 -224 286 -370 59 -69
171 -204 250 -300 159 -194 295 -353 379 -446 31 -33 106 -116 166 -185 129
-145 223 -246 435 -462 308 -315 498 -504 635 -632 77 -71 171 -160 210 -196
38 -36 117 -107 175 -159 58 -52 141 -126 185 -166 44 -40 154 -132 244 -204
90 -72 225 -185 300 -250 75 -65 153 -131 173 -147 374 -285 774 -587 808
-611 14 -9 99 -69 190 -132 91 -63 175 -122 187 -130 63 -44 291 -195 378
-252 320 -208 477 -308 530 -340 33 -19 90 -54 128 -77 37 -23 93 -55 125 -72
112 -61 278 -153 367 -204 50 -29 153 -85 230 -126 77 -40 172 -90 210 -111
92 -51 469 -239 520 -260 22 -9 126 -57 230 -108 290 -140 731 -335 890 -394
86 -32 132 -50 395 -153 361 -142 1268 -441 1660 -548 74 -20 164 -45 200 -55
200 -56 774 -189 1080 -250 135 -27 335 -68 445 -90 205 -42 423 -79 625 -106
63 -9 225 -31 360 -49 135 -19 274 -37 310 -40 36 -3 142 -15 235 -25 94 -11
280 -26 415 -35 135 -9 376 -25 535 -37 261 -19 368 -21 1065 -21 602 0 831 4
1025 16 383 25 767 56 900 73 66 8 194 24 285 35 194 22 449 60 645 94 77 14
185 32 240 40 171 26 645 123 1006 205 190 44 379 87 420 95 237 50 678 167
959 254 52 16 140 43 195 60 142 44 971 322 1085 364 98 36 512 199 565 222
17 8 95 40 175 73 218 90 395 169 600 270 102 49 237 114 300 145 172 81 711
361 814 421 50 30 192 111 316 181 124 71 285 165 358 209 73 45 147 90 165
100 154 93 865 565 990 657 25 19 62 45 82 59 54 38 214 156 635 469 63 47
186 144 274 216 87 71 186 151 220 177 214 165 775 669 1211 1089 66 64 172
163 235 220 190 172 627 613 776 784 166 190 293 340 391 461 39 49 133 166
210 259 76 94 147 182 158 196 11 15 56 73 100 129 73 94 179 235 253 335 16
22 67 92 114 155 98 134 188 259 252 350 61 88 448 667 472 707 10 18 62 103
114 189 377 622 639 1087 893 1589 60 118 277 581 277 591 0 2 18 41 39 86
137 288 289 640 392 908 33 85 91 234 129 330 367 933 496 1349 740 2385 33
143 70 310 81 370 10 61 32 180 48 265 16 85 39 209 50 275 26 151 98 630 106
710 4 33 15 121 25 195 10 74 22 171 25 215 4 44 17 181 30 305 35 331 49 571
80 1359 19 483 19 860 0 1406 -20 589 -41 924 -75 1205 -11 85 -24 214 -30
285 -6 72 -22 225 -35 340 -14 116 -28 235 -31 265 -6 60 -36 253 -90 575 -59
354 -224 1116 -297 1375 -14 47 -28 99 -31 115 -21 93 -143 522 -213 745 -158
507 -215 680 -333 1010 -218 611 -359 958 -548 1350 -157 325 -222 462 -222
465 0 5 -206 429 -338 695 -166 335 -304 587 -497 905 -87 143 -185 305 -218
360 -65 109 -232 366 -366 565 -159 236 -279 405 -464 655 -250 336 -235 316
-329 434 -46 57 -92 115 -102 130 -11 14 -41 51 -66 81 -26 30 -104 127 -175
215 -267 331 -226 283 -469 550 -100 109 -110 120 -406 440 -312 338 -739 759
-1095 1080 -449 404 -1049 885 -1411 1131 -34 23 -124 88 -200 145 -77 56
-215 160 -309 229 -93 70 -201 147 -240 172 -64 41 -215 139 -375 243 -36 23
-114 72 -175 110 -60 37 -146 91 -191 120 -44 29 -100 63 -123 76 -69 39 -93
52 -156 90 -33 20 -186 102 -340 182 -154 80 -316 166 -360 192 -79 46 -563
290 -700 352 -38 18 -142 64 -230 103 -88 40 -173 78 -190 87 -59 29 -291 136
-345 158 -30 13 -120 50 -200 83 -309 127 -648 265 -710 288 -180 68 -278 104
-540 196 -431 151 -630 215 -980 312 -414 115 -695 180 -1245 289 -334 67
-472 92 -870 162 -49 8 -157 24 -240 35 -82 11 -204 29 -270 39 -66 11 -169
25 -230 31 -60 6 -157 17 -215 25 -111 16 -594 56 -970 80 -494 33 -1297 51
-1685 38z m1120 -1643 c365 -12 554 -25 1175 -80 231 -21 515 -57 825 -106 88
-14 207 -31 265 -39 241 -34 583 -104 1140 -234 283 -67 420 -101 620 -156 74
-20 178 -48 230 -61 274 -71 475 -136 1050 -337 194 -68 860 -319 1015 -382
362 -148 762 -333 1080 -498 433 -226 447 -234 1140 -627 417 -236 699 -413
1040 -652 22 -15 74 -51 115 -80 104 -71 399 -286 490 -356 41 -32 96 -74 122
-94 26 -20 91 -72 144 -115 52 -43 108 -87 123 -98 27 -20 213 -170 331 -266
58 -47 377 -325 390 -339 3 -3 77 -69 165 -145 170 -148 298 -269 563 -529
146 -144 310 -317 556 -591 45 -49 106 -117 137 -150 93 -100 248 -284 354
-420 55 -71 138 -174 185 -230 85 -102 230 -282 304 -379 153 -198 179 -235
347 -481 45 -66 90 -129 99 -140 24 -28 391 -577 398 -595 3 -8 20 -39 39 -68
18 -29 33 -54 33 -56 0 -3 22 -40 48 -83 27 -43 62 -103 79 -133 16 -30 40
-73 53 -95 31 -54 101 -180 132 -235 14 -25 45 -79 68 -120 24 -41 78 -147
120 -235 41 -88 83 -171 91 -185 9 -14 26 -43 39 -65 12 -22 47 -82 77 -134
58 -99 258 -491 355 -696 31 -66 89 -192 128 -280 40 -88 78 -173 86 -190 37
-82 264 -652 318 -800 20 -55 43 -116 51 -135 55 -134 283 -793 331 -956 107
-365 183 -643 234 -859 17 -71 44 -184 60 -250 62 -259 135 -578 171 -745 53
-253 171 -1002 203 -1295 78 -703 115 -1389 116 -2118 0 -544 -22 -1006 -74
-1547 -14 -140 -32 -329 -41 -420 -42 -432 -157 -1100 -310 -1795 -40 -180
-170 -710 -210 -855 -20 -74 -50 -184 -67 -245 -28 -106 -44 -162 -109 -380
-47 -155 -114 -354 -184 -540 -35 -93 -86 -231 -114 -305 -68 -183 -239 -604
-314 -770 -33 -74 -72 -164 -87 -200 -32 -76 -132 -297 -160 -355 -11 -22 -46
-98 -79 -170 -129 -284 -283 -602 -398 -821 -140 -267 -159 -299 -405 -704
-248 -409 -272 -448 -353 -570 -63 -94 -102 -150 -250 -359 -61 -86 -245 -343
-332 -463 -296 -408 -261 -363 -441 -582 -217 -264 -344 -414 -486 -576 -71
-80 -201 -228 -289 -330 -212 -241 -310 -344 -682 -711 -304 -299 -485 -471
-675 -639 -52 -46 -131 -116 -175 -156 -44 -40 -105 -92 -135 -116 -111 -90
-257 -204 -315 -248 -33 -25 -105 -81 -159 -125 -179 -146 -541 -422 -706
-539 -249 -177 -948 -640 -1115 -740 -71 -43 -179 -109 -240 -147 -177 -111
-415 -249 -700 -404 -79 -44 -519 -263 -730 -365 -199 -96 -500 -235 -565
-260 -30 -12 -140 -59 -245 -105 -231 -101 -605 -250 -855 -339 -102 -37 -243
-89 -315 -116 -136 -52 -250 -90 -475 -160 -74 -23 -175 -55 -225 -70 -49 -15
-175 -51 -280 -80 -104 -28 -246 -66 -315 -85 -271 -73 -785 -194 -1009 -235
-58 -11 -121 -25 -140 -30 -54 -15 -610 -106 -826 -135 -475 -63 -1007 -108
-1500 -125 -373 -13 -1392 -13 -1656 0 -457 22 -1051 68 -1246 95 -57 8 -183
24 -282 35 -172 19 -623 94 -754 124 -35 8 -115 24 -178 35 -121 21 -350 69
-484 101 -44 10 -159 37 -255 59 -491 113 -1093 282 -1495 421 -334 115 -602
212 -795 288 -41 16 -178 70 -305 119 -246 96 -646 271 -915 401 -294 141
-612 299 -720 357 -58 32 -159 85 -225 118 -66 34 -163 86 -215 115 -52 30
-108 62 -125 71 -16 9 -63 37 -103 61 -40 25 -118 72 -172 105 -528 318 -547
331 -890 566 -269 184 -326 224 -485 342 -93 70 -190 141 -215 159 -176 127
-494 380 -805 639 -280 233 -896 801 -1176 1085 -312 317 -624 654 -849 919
-56 66 -149 174 -205 240 -57 66 -122 145 -146 175 -24 30 -70 87 -102 125
-85 101 -600 789 -692 925 -82 121 -215 320 -370 555 -88 133 -254 400 -342
550 -81 138 -181 311 -225 390 -25 44 -56 98 -68 120 -13 22 -47 85 -77 140
-30 55 -61 111 -69 125 -38 67 -349 704 -444 910 -31 69 -76 163 -98 210 -70
148 -144 312 -184 410 -68 168 -229 582 -258 665 -16 44 -60 168 -100 275 -96
263 -282 813 -330 980 -46 159 -201 746 -258 975 -58 232 -77 316 -122 540
-41 207 -56 289 -115 635 -20 113 -38 212 -40 220 -6 20 -83 646 -95 780 -6
58 -12 121 -15 140 -3 19 -14 159 -25 310 -31 428 -43 970 -37 1630 5 487 10
667 32 995 25 390 50 662 81 895 8 63 26 196 39 295 42 319 83 576 120 755
136 654 203 958 265 1195 74 284 94 360 146 545 100 352 261 848 395 1210 87
234 257 665 294 745 13 28 35 79 50 115 30 72 215 478 277 610 23 47 65 137
95 200 76 162 304 612 348 690 21 36 58 103 82 150 104 196 255 460 388 675
37 61 94 154 126 207 75 125 295 454 496 743 112 162 286 398 511 695 45 59
200 253 330 413 114 140 500 589 527 612 6 6 44 48 85 95 95 109 664 684 841
849 218 203 584 529 717 640 42 35 122 103 177 151 193 170 456 386 615 506
147 111 531 368 922 618 51 33 139 89 195 125 129 84 127 82 394 243 563 338
957 548 1764 938 94 45 235 114 315 153 80 38 181 85 225 102 44 18 118 49
165 69 98 42 206 86 375 151 66 26 163 64 215 85 52 21 154 59 225 85 72 25
166 59 210 75 209 76 555 185 980 310 153 45 512 137 643 164 64 14 187 41
272 61 290 66 785 165 1055 209 173 29 668 100 800 115 351 40 927 84 1330
100 274 12 1164 12 1490 1z"/>
    <path d="M19595 35600 c-696 -37 -1245 -103 -1920 -231 -486 -92 -1028 -224
-1440 -352 -240 -74 -754 -248 -925 -312 -176 -67 -440 -176 -606 -250 -82
-37 -194 -88 -249 -112 -55 -25 -165 -76 -245 -115 -80 -39 -217 -104 -305
-145 -166 -78 -399 -195 -520 -261 -176 -96 -227 -125 -490 -285 -347 -211
-676 -418 -818 -514 -218 -149 -694 -497 -877 -642 -46 -37 -179 -147 -540
-448 -274 -228 -386 -331 -744 -683 -114 -113 -254 -257 -309 -320 -56 -63
-104 -117 -107 -120 -20 -16 -287 -310 -351 -385 -222 -265 -463 -568 -585
-737 -17 -24 -71 -97 -119 -163 -130 -178 -129 -176 -167 -230 -299 -430 -627
-928 -756 -1148 -170 -289 -401 -733 -543 -1047 -44 -96 -89 -193 -99 -215
-21 -41 -125 -286 -255 -595 -94 -223 -229 -564 -300 -759 -47 -129 -148 -445
-310 -966 -61 -196 -115 -398 -166 -615 -16 -69 -31 -132 -35 -140 -3 -8 -19
-73 -35 -145 -94 -412 -175 -900 -239 -1445 -11 -96 -25 -211 -30 -255 -5 -44
-16 -165 -25 -270 -32 -406 -48 -753 -49 -1070 -1 -286 1 -339 17 -395 39
-145 132 -282 252 -370 81 -59 194 -116 290 -146 83 -27 102 -29 240 -29 143
1 155 2 244 33 109 38 257 130 339 211 29 29 74 85 101 125 76 112 107 197
125 346 3 25 10 203 16 395 12 407 34 799 56 1005 29 267 64 551 79 644 8 50
27 159 40 241 88 524 183 955 310 1400 80 280 154 501 260 776 37 96 82 215
100 264 65 181 136 371 155 415 10 25 38 90 61 145 54 132 98 223 239 505 65
129 170 345 235 480 135 282 199 401 319 590 108 172 146 235 236 395 40 72
93 164 118 205 25 41 63 107 85 145 68 119 166 262 262 384 17 21 48 62 70 91
68 88 272 342 399 496 28 34 83 101 121 150 89 112 495 585 635 739 94 103
537 540 715 704 238 220 538 469 785 652 41 30 156 116 255 190 99 74 259 185
355 248 333 218 396 258 535 346 132 83 420 255 428 255 2 0 66 34 143 76 134
74 204 111 459 244 381 200 450 233 796 380 161 69 614 238 859 321 161 55
428 138 675 209 122 36 712 171 1045 240 327 67 518 100 950 160 80 12 159 23
175 25 17 3 204 21 417 40 262 24 490 38 705 45 345 10 441 21 581 69 101 35
223 107 302 179 167 151 260 358 260 583 0 118 -13 191 -52 294 -41 107 -87
176 -168 256 -107 105 -219 162 -405 205 -57 13 -149 16 -485 19 -228 2 -487
-1 -575 -5z"/>
  </g>
</svg>