<svg xmlns="http://www.w3.org/2000/svg" viewBox="0 0 4096.000000 4096.000000">
  <g transform="translate(0.000000,4096.000000) scale(0.100000,-0.100000)" fill="#f4f5f7" stroke="none">
    <path d="M20010 40283 c-174 -3 -486 -19 -745 -38 -104 -8 -280 -19 -390 -25
-110 -6 -249 -18 -310 -26 -165 -22 -267 -33 -404 -44 -68 -6 -165 -19 -215
-30 -50 -11 -147 -25 -216 -31 -135 -11 -227 -25 -267 -40 -13 -5 -84 -16
-156 -25 -73 -9 -173 -27 -223 -40 -50 -12 -131 -28 -180 -34 -49 -6 -116 -19
-149 -30 -33 -10 -113 -26 -177 -35 -65 -8 -146 -25 -180 -36 -35 -11 -108
-26 -163 -34 -55 -8 -128 -24 -162 -35 -35 -10 -103 -26 -152 -35 -49 -8 -106
-22 -127 -31 -20 -9 -75 -22 -122 -30 -47 -9 -108 -24 -136 -35 -28 -10 -95
-28 -149 -39 -53 -11 -110 -26 -125 -34 -15 -7 -65 -21 -112 -31 -47 -9 -104
-25 -128 -35 -23 -11 -70 -24 -105 -31 -34 -6 -88 -22 -120 -36 -31 -13 -89
-30 -127 -38 -39 -8 -87 -23 -108 -34 -20 -10 -64 -24 -97 -31 -33 -7 -80 -23
-105 -35 -25 -13 -72 -28 -105 -34 -33 -6 -80 -22 -105 -35 -25 -13 -72 -29
-105 -36 -33 -6 -79 -23 -102 -36 -23 -13 -64 -27 -90 -30 -26 -4 -66 -17 -89
-30 -22 -12 -63 -28 -90 -35 -27 -7 -74 -24 -104 -39 -30 -15 -71 -31 -90 -35
-19 -4 -53 -18 -76 -30 -22 -13 -63 -29 -90 -36 -27 -7 -67 -23 -90 -36 -23
-13 -65 -30 -95 -39 -30 -9 -65 -24 -79 -34 -14 -9 -50 -25 -81 -34 -31 -9
-62 -23 -69 -31 -7 -8 -37 -22 -67 -31 -58 -17 -140 -52 -258 -110 -38 -19
-77 -34 -85 -34 -9 0 -31 -11 -51 -24 -19 -13 -55 -30 -79 -37 -25 -7 -59 -23
-76 -35 -17 -13 -44 -26 -60 -30 -16 -4 -56 -22 -90 -40 -33 -19 -68 -34 -76
-34 -8 0 -33 -12 -54 -27 -21 -14 -57 -32 -79 -38 -23 -7 -63 -27 -90 -44 -27
-17 -56 -31 -64 -31 -9 0 -36 -14 -60 -30 -24 -17 -51 -30 -61 -30 -9 0 -38
-14 -65 -31 -28 -17 -67 -38 -88 -45 -20 -7 -52 -24 -70 -37 -17 -14 -42 -28
-54 -31 -13 -4 -48 -23 -80 -42 -31 -19 -62 -34 -69 -34 -6 0 -18 -7 -25 -17
-8 -9 -37 -27 -66 -39 -28 -13 -54 -28 -58 -34 -4 -6 -32 -22 -63 -36 -31 -14
-66 -33 -77 -43 -11 -10 -31 -22 -45 -26 -14 -4 -43 -20 -64 -36 -22 -16 -45
-29 -51 -29 -6 0 -27 -12 -46 -26 -19 -14 -56 -37 -84 -50 -95 -48 -173 -91
-200 -112 -15 -12 -33 -22 -39 -22 -7 0 -28 -12 -47 -26 -19 -14 -52 -35 -74
-45 -22 -11 -54 -29 -71 -42 -31 -21 -54 -36 -139 -87 -84 -51 -108 -65 -139
-87 -17 -12 -52 -34 -78 -47 -26 -14 -49 -30 -53 -36 -4 -6 -27 -22 -53 -36
-53 -28 -103 -61 -147 -97 -16 -13 -45 -32 -62 -41 -18 -9 -43 -26 -55 -37
-21 -19 -156 -110 -242 -164 -18 -11 -46 -31 -63 -45 -17 -14 -43 -33 -59 -42
-16 -10 -49 -34 -74 -53 -25 -19 -58 -43 -74 -53 -15 -9 -46 -32 -68 -49 -22
-18 -44 -33 -48 -33 -5 0 -29 -17 -54 -37 -61 -51 -114 -91 -177 -133 -28 -19
-68 -49 -88 -65 -20 -17 -47 -39 -61 -48 -14 -9 -45 -33 -70 -52 -25 -19 -65
-49 -90 -67 -25 -17 -54 -40 -65 -50 -11 -10 -41 -36 -66 -56 -107 -85 -236
-193 -340 -285 -20 -18 -66 -59 -104 -92 -37 -33 -78 -67 -90 -75 -32 -21
-459 -394 -590 -514 -60 -55 -218 -207 -350 -337 -132 -130 -283 -278 -336
-330 -304 -296 -686 -715 -934 -1024 -38 -48 -82 -101 -97 -118 -48 -56 -307
-370 -343 -417 -71 -90 -101 -129 -135 -174 -19 -26 -51 -67 -70 -91 -19 -24
-48 -61 -63 -82 -15 -21 -56 -76 -90 -122 -34 -46 -72 -98 -84 -116 -28 -42
-146 -202 -173 -235 -11 -14 -31 -41 -45 -60 -79 -113 -102 -146 -120 -175
-11 -17 -32 -46 -47 -64 -16 -18 -28 -36 -28 -41 0 -4 -15 -26 -32 -48 -18
-22 -41 -53 -50 -68 -23 -39 -87 -133 -121 -181 -51 -70 -72 -101 -112 -168
-22 -36 -52 -82 -68 -102 -15 -19 -27 -40 -27 -45 0 -8 -21 -42 -87 -140 -12
-18 -34 -56 -48 -85 -15 -28 -35 -59 -46 -69 -10 -9 -19 -22 -19 -29 0 -7 -13
-30 -29 -52 -15 -21 -38 -59 -50 -84 -12 -24 -39 -73 -61 -109 -22 -36 -50
-87 -64 -115 -13 -27 -36 -65 -50 -84 -14 -19 -26 -39 -26 -44 0 -4 -13 -27
-28 -50 -16 -23 -34 -57 -40 -74 -6 -18 -22 -48 -36 -66 -15 -19 -26 -38 -26
-43 0 -5 -16 -34 -35 -63 -18 -30 -37 -66 -40 -82 -4 -15 -13 -33 -21 -40 -9
-7 -29 -38 -45 -68 -15 -31 -35 -67 -43 -81 -8 -14 -25 -47 -38 -75 -13 -27
-48 -95 -76 -150 -29 -55 -52 -105 -52 -111 0 -6 -11 -28 -25 -49 -14 -20 -34
-60 -45 -87 -10 -28 -26 -58 -34 -67 -8 -9 -22 -38 -31 -66 -10 -27 -25 -61
-35 -75 -9 -14 -23 -43 -30 -65 -6 -22 -23 -56 -35 -76 -13 -20 -28 -54 -34
-76 -6 -22 -20 -52 -31 -66 -12 -15 -29 -50 -40 -79 -10 -29 -30 -75 -44 -102
-14 -27 -26 -57 -26 -65 0 -9 -14 -38 -30 -66 -16 -27 -30 -57 -30 -66 0 -8
-16 -46 -35 -85 -19 -38 -35 -77 -35 -86 0 -9 -16 -46 -35 -82 -19 -37 -35
-72 -35 -80 0 -7 -13 -39 -29 -72 -16 -32 -34 -77 -41 -99 -7 -22 -22 -58 -32
-79 -11 -22 -27 -62 -35 -90 -8 -28 -23 -66 -34 -84 -10 -18 -24 -54 -30 -80
-7 -26 -23 -69 -36 -96 -14 -27 -31 -72 -38 -101 -8 -29 -23 -68 -34 -86 -11
-19 -25 -59 -32 -89 -6 -30 -22 -76 -35 -101 -12 -25 -30 -74 -39 -109 -9 -35
-25 -80 -34 -99 -10 -20 -22 -54 -25 -76 -4 -22 -20 -72 -36 -110 -15 -39 -31
-90 -35 -115 -4 -25 -18 -71 -31 -103 -13 -31 -31 -89 -39 -127 -8 -39 -24
-89 -36 -111 -11 -22 -25 -68 -31 -102 -6 -33 -21 -84 -34 -113 -13 -29 -29
-83 -35 -121 -7 -37 -22 -96 -35 -129 -13 -34 -30 -100 -38 -147 -8 -47 -22
-99 -30 -115 -8 -16 -22 -70 -31 -121 -9 -51 -25 -115 -36 -143 -11 -27 -26
-96 -35 -151 -9 -56 -24 -125 -34 -152 -10 -28 -23 -86 -30 -130 -7 -44 -19
-107 -28 -140 -8 -33 -20 -82 -27 -110 -7 -27 -18 -88 -24 -135 -6 -47 -20
-112 -30 -145 -10 -33 -24 -107 -30 -165 -6 -58 -22 -150 -35 -205 -13 -55
-31 -161 -40 -235 -8 -74 -22 -155 -31 -180 -9 -25 -23 -112 -31 -195 -8 -82
-25 -206 -38 -275 -14 -69 -28 -174 -31 -235 -6 -115 -29 -311 -46 -399 -5
-28 -16 -186 -24 -351 -14 -291 -25 -461 -45 -710 -5 -66 -9 -410 -9 -765 0
-625 4 -743 38 -1205 6 -71 15 -229 21 -350 6 -129 21 -282 35 -370 13 -82 27
-202 31 -265 3 -63 19 -180 34 -260 16 -80 31 -192 35 -250 4 -58 18 -157 31
-220 14 -63 29 -164 35 -225 5 -60 21 -154 34 -208 14 -53 29 -138 35 -189 6
-50 21 -130 35 -177 13 -47 29 -125 35 -173 6 -47 20 -113 31 -145 11 -32 26
-104 35 -161 8 -57 21 -119 29 -138 8 -20 24 -86 36 -147 12 -62 30 -128 40
-148 10 -20 25 -77 34 -128 9 -50 24 -109 35 -129 10 -20 23 -70 29 -110 6
-41 22 -99 35 -130 13 -31 27 -77 31 -102 4 -25 22 -91 41 -147 19 -56 34
-111 34 -123 0 -11 11 -47 25 -79 13 -32 32 -92 41 -132 9 -41 23 -87 32 -104
9 -16 26 -66 38 -110 29 -101 70 -225 96 -290 11 -27 28 -79 37 -115 10 -36
27 -83 38 -105 12 -22 26 -66 32 -97 7 -32 23 -78 36 -102 13 -25 27 -62 31
-83 4 -21 19 -63 34 -93 15 -30 30 -73 34 -95 4 -22 18 -58 31 -80 12 -22 30
-63 38 -91 8 -28 24 -68 35 -90 11 -22 25 -59 32 -84 6 -25 20 -59 29 -76 10
-17 26 -55 36 -85 10 -30 31 -79 46 -109 16 -30 29 -61 29 -69 0 -15 47 -120
99 -221 16 -30 32 -69 35 -86 4 -17 18 -46 31 -64 14 -18 29 -49 36 -69 9 -32
63 -152 92 -206 20 -37 54 -110 126 -265 12 -25 28 -56 36 -70 8 -14 24 -45
35 -70 11 -25 27 -56 35 -70 7 -14 24 -45 36 -70 27 -55 79 -155 123 -235 18
-33 61 -113 94 -178 33 -66 67 -126 76 -136 9 -9 22 -37 31 -61 9 -24 22 -51
30 -60 8 -9 24 -38 36 -65 12 -28 29 -59 39 -70 9 -11 25 -41 35 -67 10 -26
24 -53 32 -60 8 -7 26 -35 39 -63 14 -27 42 -79 64 -115 21 -36 51 -87 66
-115 14 -27 34 -59 43 -70 10 -11 37 -54 61 -95 24 -41 50 -86 59 -99 9 -13
30 -45 46 -71 17 -26 39 -61 49 -76 10 -16 34 -52 52 -80 19 -28 34 -55 34
-61 0 -6 15 -29 33 -51 17 -22 41 -54 52 -73 27 -44 76 -121 99 -155 11 -16
37 -56 57 -89 21 -33 50 -76 64 -95 14 -19 47 -66 72 -105 25 -38 58 -84 72
-101 14 -17 34 -44 44 -60 9 -16 35 -54 57 -84 22 -30 52 -71 65 -90 14 -19
44 -60 66 -90 21 -30 53 -76 70 -102 17 -27 34 -48 38 -48 4 0 15 -15 26 -32
10 -18 30 -47 44 -64 14 -17 42 -52 61 -78 43 -58 86 -112 170 -216 105 -129
133 -164 175 -220 22 -29 54 -67 70 -85 37 -39 72 -82 169 -202 41 -51 104
-128 141 -170 87 -103 121 -142 202 -238 128 -152 332 -372 548 -590 77 -78
269 -272 426 -431 158 -159 333 -332 390 -385 97 -90 256 -230 547 -484 63
-55 117 -102 152 -135 19 -18 55 -48 79 -69 24 -20 99 -82 165 -138 154 -130
202 -170 260 -213 26 -19 80 -62 119 -95 40 -33 83 -68 97 -78 14 -10 50 -38
80 -62 30 -25 71 -57 90 -71 135 -97 253 -184 312 -231 22 -18 44 -33 48 -33
5 0 29 -17 54 -37 43 -36 104 -80 171 -123 17 -11 50 -36 75 -55 25 -19 63
-44 85 -56 22 -12 54 -33 71 -48 30 -25 43 -33 139 -91 23 -14 55 -35 71 -48
47 -37 133 -92 143 -92 6 0 25 -13 43 -29 18 -15 49 -36 68 -46 19 -9 42 -23
50 -30 8 -8 33 -24 56 -37 63 -36 102 -60 155 -96 27 -17 52 -32 56 -32 5 0
34 -18 67 -40 32 -22 62 -40 66 -40 5 0 31 -16 60 -35 29 -19 57 -35 64 -35 7
0 28 -11 47 -26 19 -14 52 -34 74 -45 22 -10 72 -37 110 -59 39 -21 93 -50
122 -64 28 -14 54 -30 58 -37 4 -6 31 -22 60 -35 29 -12 56 -28 60 -34 4 -6
30 -22 58 -36 72 -35 143 -75 201 -112 28 -18 54 -32 59 -32 4 0 23 -11 40
-24 18 -13 43 -27 57 -31 14 -4 46 -20 71 -36 25 -16 61 -34 80 -41 19 -6 48
-21 64 -34 17 -12 44 -26 60 -30 17 -3 44 -17 61 -30 17 -13 55 -32 84 -43 29
-11 60 -26 69 -34 9 -8 34 -20 56 -27 22 -7 60 -25 85 -40 25 -15 56 -31 70
-35 14 -4 45 -18 70 -30 82 -42 215 -103 240 -111 14 -3 37 -15 52 -26 15 -10
51 -26 80 -35 29 -8 64 -23 78 -33 14 -10 48 -24 75 -33 28 -8 72 -26 99 -41
27 -14 56 -26 64 -26 9 0 38 -13 66 -28 28 -16 74 -35 101 -42 28 -7 68 -23
90 -36 22 -12 60 -28 85 -34 25 -7 63 -22 85 -35 22 -13 56 -26 75 -30 19 -4
66 -22 104 -41 39 -19 78 -34 88 -34 10 0 42 -12 70 -26 28 -14 73 -33 100
-41 27 -7 63 -22 81 -32 17 -10 57 -24 87 -31 30 -7 74 -23 97 -36 23 -13 65
-29 95 -35 29 -6 68 -20 87 -30 18 -11 63 -27 99 -35 36 -8 82 -24 103 -35 21
-10 70 -26 109 -34 39 -8 88 -24 110 -35 22 -11 71 -27 110 -35 38 -8 96 -25
127 -39 32 -13 81 -27 108 -31 28 -4 75 -17 105 -30 30 -12 89 -28 130 -35 41
-6 100 -23 130 -36 30 -13 92 -30 138 -38 45 -9 96 -23 113 -32 18 -9 75 -22
127 -30 52 -8 115 -23 140 -34 24 -11 85 -27 135 -35 51 -9 126 -27 167 -39
41 -13 104 -27 140 -31 36 -4 99 -18 140 -31 41 -13 120 -30 175 -39 55 -8
129 -24 164 -35 36 -11 106 -25 157 -30 51 -5 136 -21 189 -35 53 -13 147 -29
208 -35 62 -6 148 -20 192 -31 44 -11 143 -27 220 -34 77 -8 186 -23 243 -35
57 -11 156 -25 220 -30 140 -11 244 -24 372 -44 52 -9 217 -23 365 -31 149 -9
308 -20 355 -25 47 -6 202 -17 345 -26 215 -13 401 -15 1075 -11 492 3 843 9
885 16 114 17 265 30 530 46 138 8 291 22 340 31 124 22 208 32 363 44 73 5
172 19 220 29 48 10 146 24 217 31 72 6 176 22 231 35 56 13 147 29 202 34
106 11 167 23 242 46 25 8 88 19 140 25 52 5 124 19 160 31 36 11 108 27 161
35 53 7 122 23 153 34 32 11 107 26 167 35 60 8 126 22 147 31 20 8 87 24 148
35 61 10 137 28 170 39 32 11 90 25 129 31 38 6 90 20 115 30 25 11 88 29 142
39 53 10 110 26 127 34 17 9 73 25 124 35 52 11 108 26 125 35 18 9 67 24 109
32 43 9 95 25 116 36 21 10 64 24 95 29 31 6 82 21 113 34 30 13 86 31 122 39
37 9 85 25 107 36 22 11 66 26 97 34 32 7 74 21 92 31 19 9 65 26 103 36 38
11 79 26 91 34 12 8 51 22 87 30 36 9 80 26 99 36 19 11 59 26 89 34 30 8 70
24 89 35 19 11 55 25 81 31 26 6 66 22 89 35 22 13 67 30 98 39 31 8 71 23 88
34 18 11 55 25 82 32 28 6 68 22 90 34 22 13 58 28 80 35 22 7 58 23 80 36 22
12 60 28 85 34 25 7 63 22 85 35 22 13 57 28 79 35 21 7 54 23 74 36 19 13 43
24 53 24 9 0 46 15 81 33 35 19 77 37 93 41 17 4 46 18 66 31 20 13 54 28 76
34 22 6 52 20 66 32 15 11 48 27 74 36 27 9 62 26 78 38 17 12 51 28 77 35 26
7 55 21 64 31 9 10 40 25 69 34 29 8 58 21 65 30 6 8 37 24 68 35 30 12 67 29
81 39 14 10 46 26 71 35 25 10 52 24 60 31 8 7 40 25 70 40 88 43 154 78 185
101 17 12 41 25 55 29 13 4 47 23 73 41 27 19 55 34 62 34 7 0 25 10 41 22 27
22 82 53 174 99 25 12 58 31 75 43 31 22 94 57 182 100 28 14 54 30 58 37 4 6
28 20 54 32 25 11 59 30 74 43 16 13 33 24 39 24 6 0 37 18 70 40 33 22 66 40
73 40 7 0 18 7 26 16 7 8 33 27 58 40 25 14 60 35 77 47 18 12 47 31 65 42 18
11 53 34 79 50 26 17 61 39 80 50 18 11 52 35 76 52 25 18 48 33 53 33 5 0 27
15 49 33 38 31 55 42 147 97 23 14 55 35 71 48 57 44 122 90 145 102 13 7 38
25 56 39 17 14 55 42 83 61 29 19 66 46 83 60 17 14 45 34 63 45 17 11 70 48
116 83 45 34 102 77 126 95 23 18 60 46 82 62 21 17 85 64 141 105 55 41 112
84 124 95 13 11 46 38 74 60 95 74 139 109 301 245 257 215 824 708 960 834
118 111 903 900 1036 1041 187 201 215 232 368 410 179 209 174 203 296 350
58 70 150 180 205 245 55 64 118 141 140 170 36 47 71 91 135 170 18 23 57 75
105 140 11 15 45 61 76 101 30 41 62 84 70 95 7 12 39 55 69 95 31 41 64 87
75 103 57 82 153 216 195 271 16 22 39 54 49 70 42 64 87 128 112 158 15 18
36 50 48 72 22 41 55 91 89 135 11 14 27 41 37 60 10 19 31 50 46 68 16 18 29
39 29 46 0 8 7 19 16 27 8 7 27 33 40 58 14 25 35 60 47 77 12 18 31 47 42 65
26 42 75 120 96 150 9 13 36 58 60 99 44 75 84 139 126 202 12 18 34 56 48 83
14 28 43 79 65 115 22 36 49 85 61 110 12 25 30 54 40 65 10 11 25 40 34 65 9
24 23 52 32 62 9 10 29 42 43 71 15 29 42 79 60 112 18 33 48 87 66 120 18 33
45 85 59 115 15 30 31 62 36 70 5 8 25 47 44 86 18 40 38 75 44 78 5 3 17 28
26 55 9 27 22 55 30 61 8 7 24 37 35 68 12 30 29 67 39 81 10 14 24 44 31 66
6 22 22 56 34 75 13 19 29 53 36 75 7 22 24 56 36 75 13 19 24 39 24 45 0 9
30 75 116 250 19 39 34 77 34 85 0 8 13 35 30 60 16 24 32 58 36 75 4 16 20
54 35 84 16 30 29 61 29 70 0 10 16 48 35 87 19 38 35 76 35 84 0 8 16 46 35
84 19 39 35 77 35 86 0 10 12 39 26 66 15 27 33 72 41 99 8 28 26 68 38 90 13
22 26 56 30 75 4 19 20 60 35 90 15 30 31 71 35 90 4 19 20 62 35 95 16 33 32
80 35 105 4 25 18 67 32 93 13 26 28 71 33 99 6 28 21 75 35 103 13 29 29 73
35 98 5 26 21 71 34 102 14 30 30 80 35 110 6 30 19 72 31 94 11 22 27 71 36
108 8 36 26 92 39 122 13 31 26 79 30 106 5 28 18 77 30 110 12 33 30 97 39
141 9 45 25 102 36 126 10 24 26 84 35 133 8 49 22 99 31 112 8 13 22 65 30
115 8 51 23 111 33 134 11 23 29 92 40 152 12 61 27 125 35 144 8 18 21 82 31
141 9 59 25 133 36 164 10 31 24 97 30 147 6 50 22 128 35 173 13 45 28 123
34 173 6 50 21 132 34 183 13 51 29 144 36 207 6 63 22 165 35 225 13 61 29
165 35 231 6 67 20 159 31 204 11 46 24 138 29 204 13 158 18 205 41 366 10
74 26 268 34 430 8 162 17 311 20 330 3 19 13 125 22 235 14 167 17 329 17
980 0 753 -4 895 -34 1145 -6 47 -17 200 -25 340 -8 140 -22 309 -30 375 -35
267 -44 352 -45 402 0 29 -11 110 -25 180 -13 71 -31 187 -39 258 -9 72 -24
168 -35 215 -11 47 -25 136 -31 197 -6 62 -21 160 -35 217 -13 57 -29 142 -34
189 -6 47 -21 127 -35 179 -14 51 -30 131 -35 178 -6 47 -19 112 -31 145 -12
33 -28 109 -36 169 -9 60 -24 130 -34 155 -10 26 -25 93 -34 150 -9 57 -25
120 -36 141 -10 20 -26 78 -33 127 -8 50 -22 104 -31 121 -9 18 -23 68 -32
113 -8 45 -24 104 -36 133 -11 28 -26 83 -33 122 -8 39 -25 101 -39 138 -14
36 -30 94 -36 128 -7 34 -20 79 -31 100 -10 21 -26 68 -33 105 -8 38 -24 88
-34 113 -11 25 -25 71 -32 103 -6 32 -23 83 -36 114 -14 31 -32 85 -40 121 -8
36 -22 78 -30 93 -8 16 -21 58 -30 95 -8 37 -24 84 -35 105 -10 21 -26 69 -35
106 -8 38 -24 82 -34 98 -10 17 -24 53 -31 80 -7 28 -25 74 -41 104 -15 30
-28 61 -28 70 0 9 -15 48 -34 87 -18 39 -37 86 -41 105 -4 19 -17 50 -30 70
-13 20 -29 56 -35 79 -7 24 -25 68 -41 98 -16 30 -29 64 -29 75 0 11 -13 43
-29 71 -15 28 -32 67 -36 86 -4 19 -17 53 -30 75 -12 22 -30 64 -38 93 -9 29
-26 66 -37 82 -11 16 -28 53 -37 82 -8 29 -23 64 -33 78 -9 14 -23 43 -30 65
-7 22 -23 56 -36 75 -13 20 -31 59 -39 87 -8 28 -22 56 -30 63 -8 7 -22 36
-30 65 -9 28 -26 66 -39 84 -13 18 -27 48 -31 68 -3 19 -17 52 -30 72 -13 20
-31 54 -38 76 -8 22 -26 58 -41 79 -14 21 -26 46 -26 55 0 10 -14 39 -31 67
-18 27 -36 63 -42 79 -5 17 -18 42 -28 56 -10 15 -28 49 -40 75 -11 27 -28 58
-38 69 -10 11 -24 37 -30 57 -7 20 -19 42 -28 50 -9 7 -25 33 -36 58 -11 25
-30 59 -42 75 -13 17 -28 47 -34 67 -7 20 -19 42 -28 49 -8 7 -26 36 -40 64
-40 82 -82 157 -97 174 -7 9 -26 39 -40 66 -15 28 -45 79 -66 115 -22 36 -49
83 -61 105 -12 22 -30 49 -40 61 -11 11 -30 39 -42 62 -12 22 -35 65 -51 94
-16 29 -39 67 -51 83 -12 17 -28 44 -34 62 -7 18 -20 38 -28 45 -9 7 -24 31
-35 53 -20 42 -40 74 -100 158 -21 28 -38 57 -38 64 0 7 -13 28 -30 46 -16 19
-30 39 -30 45 0 6 -15 29 -34 51 -19 23 -38 51 -42 64 -4 12 -18 36 -33 53
-25 30 -33 43 -91 139 -24 40 -47 71 -101 138 -14 18 -34 48 -44 67 -10 19
-30 50 -44 67 -82 102 -171 223 -171 234 0 4 -15 25 -32 47 -18 22 -49 61 -68
87 -19 25 -47 61 -61 78 -14 18 -34 46 -43 62 -9 17 -39 57 -66 90 -28 33 -55
71 -60 84 -6 14 -24 41 -41 60 -32 38 -63 77 -169 211 -36 45 -141 171 -235
280 -93 109 -188 221 -210 250 -22 30 -55 69 -72 87 -18 19 -33 37 -33 41 0 4
-28 37 -63 74 -34 37 -80 88 -102 114 -22 26 -64 74 -94 106 -29 31 -63 71
-75 87 -29 40 -268 292 -331 350 -27 25 -169 163 -315 306 -337 331 -502 490
-565 546 -27 24 -81 72 -120 106 -124 112 -258 224 -356 298 -29 22 -66 52
-83 67 -17 15 -71 62 -121 105 -49 42 -120 104 -156 137 -36 34 -89 79 -118
101 -29 22 -67 54 -85 70 -19 17 -57 48 -86 70 -29 22 -67 52 -84 66 -17 14
-46 34 -63 44 -18 11 -33 22 -33 26 0 4 -17 18 -37 30 -21 13 -47 31 -58 42
-21 20 -72 56 -119 84 -16 10 -48 34 -72 53 -70 57 -164 125 -218 157 -15 10
-45 32 -66 48 -21 17 -59 46 -84 65 -26 19 -64 49 -85 65 -21 17 -52 38 -67
48 -16 9 -45 28 -64 42 -19 14 -57 39 -83 57 -27 18 -63 45 -81 61 -19 15 -39
27 -44 27 -6 0 -26 13 -44 29 -18 15 -49 36 -68 46 -19 10 -48 29 -65 42 -44
35 -133 93 -144 93 -5 0 -28 16 -51 35 -23 19 -47 35 -54 35 -6 0 -27 13 -46
29 -19 15 -45 31 -58 35 -13 4 -38 20 -55 35 -18 15 -47 33 -66 40 -19 6 -43
19 -54 29 -21 19 -89 59 -157 94 -25 13 -58 33 -75 44 -16 12 -47 29 -68 38
-22 9 -52 27 -69 41 -16 14 -35 25 -42 25 -7 0 -31 12 -52 26 -21 15 -56 33
-77 40 -21 8 -52 25 -69 39 -16 14 -35 25 -41 25 -6 0 -37 15 -67 34 -31 19
-67 37 -82 41 -14 4 -36 18 -49 31 -12 13 -40 29 -60 34 -21 6 -51 21 -66 34
-16 13 -46 31 -68 40 -22 9 -49 25 -60 35 -11 10 -35 23 -52 29 -18 6 -48 22
-65 35 -18 14 -50 30 -70 36 -20 7 -48 21 -61 31 -13 11 -49 29 -80 40 -30 11
-61 27 -67 35 -7 8 -31 20 -53 26 -22 6 -57 22 -76 35 -20 13 -57 31 -82 39
-26 9 -53 22 -59 30 -6 8 -35 21 -63 31 -29 9 -66 27 -83 39 -17 13 -48 28
-70 34 -21 6 -55 21 -74 34 -19 14 -51 28 -70 32 -19 4 -55 20 -80 35 -25 16
-62 33 -82 38 -21 6 -50 19 -65 30 -16 11 -48 25 -73 32 -25 6 -63 22 -85 35
-22 12 -60 28 -85 35 -25 6 -61 22 -81 35 -20 13 -56 29 -80 35 -24 7 -64 22
-89 35 -25 13 -66 28 -90 35 -25 6 -61 22 -80 35 -19 13 -53 27 -75 30 -22 4
-59 18 -83 32 -24 13 -66 31 -95 40 -29 8 -72 25 -97 38 -25 12 -67 27 -94 34
-27 7 -68 23 -90 35 -23 13 -61 27 -85 30 -24 4 -63 18 -86 31 -23 14 -68 30
-101 36 -32 6 -77 22 -100 35 -22 13 -67 29 -99 35 -32 6 -79 21 -104 34 -25
13 -73 29 -106 35 -33 7 -77 21 -97 31 -21 11 -68 26 -104 35 -37 8 -83 23
-103 33 -20 11 -73 26 -117 34 -45 9 -101 24 -125 35 -24 11 -73 26 -109 32
-36 6 -90 23 -122 36 -31 13 -83 27 -115 30 -32 4 -88 17 -124 30 -36 13 -111
33 -166 44 -56 11 -117 27 -136 35 -20 8 -78 22 -130 30 -52 8 -119 24 -150
34 -31 11 -103 27 -161 35 -58 9 -132 25 -164 36 -33 11 -106 27 -163 35 -57
8 -135 24 -173 35 -38 11 -108 25 -155 31 -47 5 -124 21 -171 34 -47 13 -139
29 -205 35 -66 6 -154 19 -195 30 -41 11 -147 27 -235 35 -88 9 -203 25 -255
36 -52 11 -153 24 -225 29 -127 9 -224 21 -335 39 -75 13 -266 29 -435 36 -77
4 -257 15 -400 26 -428 32 -963 43 -1625 32z m1205 -1707 c149 -8 396 -20 550
-26 157 -6 308 -16 345 -24 67 -14 233 -30 425 -41 123 -7 211 -19 300 -39 33
-8 125 -19 205 -26 80 -6 192 -22 250 -35 58 -13 141 -26 185 -30 44 -4 124
-18 178 -31 54 -14 148 -31 209 -39 60 -8 145 -26 187 -39 43 -14 107 -28 142
-31 35 -4 98 -17 139 -31 41 -13 120 -31 175 -39 55 -9 124 -25 154 -36 29
-11 87 -24 130 -30 42 -6 114 -23 161 -39 47 -15 109 -31 139 -34 30 -4 81
-18 114 -32 33 -14 87 -30 120 -35 33 -6 77 -19 98 -30 22 -11 74 -27 117 -35
42 -9 93 -25 113 -35 20 -10 66 -25 103 -33 37 -9 80 -23 97 -31 16 -9 66 -25
111 -36 45 -11 99 -29 120 -40 21 -11 62 -24 91 -29 28 -6 73 -21 100 -35 26
-13 75 -29 109 -35 34 -7 80 -22 103 -35 22 -12 65 -28 95 -35 30 -7 70 -21
88 -31 18 -10 60 -26 95 -35 34 -8 81 -26 104 -39 23 -13 61 -26 85 -30 24 -4
62 -18 85 -31 23 -13 64 -29 92 -35 28 -6 67 -21 86 -35 20 -13 57 -29 83 -35
26 -5 63 -21 82 -34 19 -13 55 -29 79 -35 25 -7 69 -25 99 -41 30 -16 62 -29
70 -29 9 0 39 -13 69 -30 29 -16 59 -30 67 -30 8 0 43 -15 78 -33 35 -19 81
-40 103 -47 22 -7 51 -21 64 -32 14 -10 44 -23 67 -29 24 -6 50 -19 60 -30 9
-10 39 -26 68 -35 28 -9 58 -23 67 -31 9 -8 41 -23 70 -34 29 -11 65 -29 80
-40 15 -11 46 -26 69 -34 23 -8 54 -24 70 -35 16 -11 46 -27 67 -34 21 -7 56
-25 77 -40 21 -14 44 -26 50 -26 7 0 34 -14 62 -31 27 -18 63 -36 81 -41 18
-5 46 -20 62 -34 16 -13 44 -30 63 -36 18 -6 47 -21 63 -32 17 -12 46 -28 65
-36 19 -7 44 -21 55 -31 11 -9 45 -29 75 -44 97 -47 156 -79 185 -102 15 -13
33 -23 40 -23 7 0 36 -16 64 -35 28 -19 54 -35 59 -35 5 0 28 -13 53 -28 24
-16 66 -42 93 -58 27 -16 68 -40 91 -54 68 -40 105 -63 154 -95 25 -17 57 -36
71 -43 14 -7 50 -29 81 -50 31 -20 98 -65 150 -99 52 -34 108 -71 124 -83 17
-11 52 -35 79 -53 66 -43 112 -74 181 -122 32 -22 72 -49 90 -60 31 -20 67
-47 128 -96 18 -14 48 -34 67 -44 19 -9 44 -26 55 -36 20 -18 49 -40 140 -104
28 -19 70 -51 95 -70 25 -19 63 -47 85 -62 22 -14 45 -32 50 -38 6 -7 30 -26
55 -44 82 -57 161 -121 347 -276 39 -33 92 -76 118 -95 25 -19 61 -48 79 -65
18 -16 59 -50 90 -75 148 -116 329 -272 578 -499 286 -261 823 -783 958 -932
41 -45 82 -89 91 -98 9 -9 74 -81 145 -161 71 -80 141 -157 154 -171 46 -48
95 -103 200 -228 58 -68 164 -192 235 -276 72 -84 148 -176 170 -205 22 -29
54 -69 70 -90 17 -21 42 -53 57 -71 35 -45 87 -115 121 -164 15 -22 43 -60 62
-85 20 -25 43 -58 53 -73 9 -16 28 -44 42 -62 14 -18 43 -59 65 -90 22 -32 52
-72 66 -89 14 -17 32 -42 39 -56 7 -14 24 -38 37 -55 14 -16 35 -46 48 -65 13
-19 53 -78 90 -130 82 -118 90 -131 137 -205 20 -33 49 -76 63 -95 14 -19 44
-64 67 -100 22 -36 56 -88 75 -115 18 -28 33 -54 33 -58 0 -4 15 -30 33 -57
17 -26 50 -78 72 -114 22 -37 52 -83 68 -103 15 -19 27 -41 27 -47 0 -6 15
-33 33 -61 53 -80 107 -172 107 -183 0 -6 11 -24 25 -40 14 -17 32 -47 41 -69
9 -21 22 -45 29 -53 7 -8 28 -42 46 -75 17 -33 41 -78 53 -100 12 -22 34 -58
49 -80 15 -22 27 -47 27 -55 0 -9 11 -32 26 -51 14 -19 34 -53 44 -77 11 -24
28 -54 39 -68 11 -14 25 -42 32 -62 6 -20 20 -46 29 -57 10 -11 26 -40 36 -65
9 -25 25 -56 35 -70 10 -14 29 -51 42 -82 14 -30 30 -58 36 -62 6 -4 15 -24
21 -45 5 -21 21 -54 34 -73 13 -20 29 -51 35 -71 7 -20 23 -52 36 -71 13 -20
30 -55 36 -78 7 -24 23 -59 36 -78 13 -19 23 -41 23 -50 0 -8 18 -53 41 -100
132 -276 167 -352 180 -395 6 -22 18 -49 25 -61 8 -11 22 -45 33 -75 10 -29
30 -76 45 -103 14 -27 26 -59 26 -71 0 -12 12 -44 26 -71 15 -27 33 -71 41
-99 9 -27 23 -62 34 -76 10 -14 23 -48 30 -75 7 -27 24 -74 39 -104 15 -30 31
-73 34 -95 4 -22 18 -58 31 -80 13 -22 29 -62 35 -90 6 -27 22 -71 36 -98 13
-26 29 -71 35 -100 6 -28 22 -72 34 -97 12 -25 28 -69 34 -98 6 -29 22 -77 36
-105 13 -29 27 -72 31 -97 4 -25 20 -77 35 -116 16 -38 31 -90 35 -115 4 -24
17 -67 30 -95 13 -28 30 -88 38 -133 8 -45 24 -99 36 -119 12 -20 26 -64 31
-97 4 -33 19 -87 33 -121 14 -33 28 -85 32 -115 3 -30 20 -94 36 -144 16 -49
33 -124 38 -165 4 -41 17 -98 29 -127 11 -29 28 -96 37 -150 9 -54 25 -123 36
-153 10 -30 25 -105 33 -166 8 -62 24 -141 34 -175 11 -35 27 -118 36 -184 8
-66 25 -149 35 -185 11 -36 24 -110 30 -165 10 -111 26 -204 41 -244 6 -14 17
-105 25 -201 8 -96 24 -222 34 -280 11 -58 24 -163 30 -235 5 -71 15 -191 20
-265 6 -74 17 -180 25 -235 8 -55 19 -203 24 -330 45 -985 48 -1224 22 -1880
-23 -594 -26 -655 -47 -830 -8 -66 -19 -176 -24 -245 -6 -69 -15 -186 -21
-260 -6 -74 -19 -177 -29 -230 -10 -52 -21 -135 -24 -185 -8 -109 -21 -201
-46 -320 -10 -49 -23 -139 -30 -200 -6 -60 -20 -144 -30 -185 -10 -41 -26
-129 -35 -195 -9 -66 -25 -147 -35 -180 -11 -33 -27 -111 -35 -173 -9 -63 -24
-135 -35 -161 -10 -26 -25 -94 -34 -151 -8 -58 -25 -129 -36 -158 -11 -29 -25
-85 -30 -125 -6 -39 -23 -112 -39 -162 -16 -49 -32 -115 -36 -145 -4 -30 -18
-81 -31 -113 -14 -31 -27 -79 -30 -105 -4 -26 -19 -76 -34 -112 -16 -36 -34
-94 -40 -129 -6 -36 -22 -85 -35 -110 -12 -25 -26 -71 -30 -101 -4 -30 -18
-79 -31 -109 -14 -30 -31 -85 -38 -122 -8 -37 -24 -85 -35 -106 -11 -22 -27
-71 -36 -108 -8 -38 -24 -82 -34 -99 -11 -17 -24 -58 -31 -91 -7 -33 -25 -84
-41 -114 -16 -30 -29 -63 -29 -75 0 -12 -13 -48 -29 -82 -16 -33 -34 -84 -40
-113 -6 -29 -22 -71 -35 -94 -13 -23 -27 -58 -31 -77 -4 -19 -20 -60 -35 -90
-16 -30 -31 -71 -35 -90 -4 -19 -20 -57 -35 -85 -15 -27 -30 -66 -34 -85 -4
-19 -17 -51 -30 -71 -14 -20 -30 -56 -36 -80 -6 -24 -22 -62 -35 -84 -12 -22
-28 -59 -34 -83 -7 -23 -23 -58 -36 -78 -13 -19 -27 -49 -30 -67 -4 -18 -20
-57 -36 -87 -52 -102 -109 -225 -109 -236 0 -6 -13 -31 -30 -55 -16 -24 -30
-51 -30 -60 0 -8 -13 -36 -29 -61 -16 -25 -32 -59 -36 -76 -3 -17 -18 -48 -31
-68 -14 -21 -35 -60 -46 -88 -11 -28 -26 -58 -33 -66 -7 -8 -22 -37 -32 -65
-11 -27 -32 -68 -46 -89 -15 -21 -27 -44 -27 -50 0 -7 -13 -30 -28 -52 -16
-21 -36 -60 -46 -86 -9 -25 -23 -52 -31 -58 -8 -6 -19 -28 -26 -48 -7 -20 -23
-51 -35 -68 -13 -17 -29 -46 -35 -65 -7 -19 -20 -43 -30 -54 -10 -11 -26 -40
-37 -65 -11 -25 -26 -51 -35 -58 -9 -8 -21 -30 -28 -50 -7 -20 -27 -59 -46
-86 -18 -26 -33 -53 -33 -60 0 -6 -14 -29 -30 -50 -17 -22 -30 -45 -30 -51 0
-7 -12 -28 -27 -48 -16 -19 -41 -59 -58 -88 -16 -29 -41 -71 -55 -94 -14 -22
-34 -55 -45 -74 -11 -18 -30 -47 -42 -65 -13 -17 -30 -47 -39 -66 -9 -19 -29
-50 -45 -69 -16 -20 -29 -39 -29 -43 0 -8 -71 -117 -155 -238 -13 -19 -34 -53
-46 -75 -11 -22 -30 -49 -41 -60 -11 -11 -28 -33 -39 -50 -11 -16 -30 -46 -44
-65 -13 -19 -39 -57 -57 -83 -18 -26 -62 -87 -98 -135 -36 -49 -83 -114 -105
-146 -22 -31 -52 -71 -66 -89 -14 -18 -34 -45 -43 -62 -19 -33 -55 -84 -91
-130 -13 -16 -53 -68 -87 -114 -105 -140 -158 -208 -230 -296 -32 -38 -76 -92
-98 -120 -65 -83 -388 -471 -506 -608 -205 -240 -374 -424 -550 -601 -109
-109 -719 -708 -769 -755 -64 -61 -232 -212 -284 -256 -13 -11 -64 -54 -112
-95 -49 -41 -145 -122 -215 -180 -70 -58 -179 -149 -243 -203 -164 -140 -182
-155 -324 -265 -26 -20 -68 -53 -92 -72 -24 -19 -63 -48 -85 -65 -22 -16 -61
-46 -85 -65 -127 -100 -173 -133 -229 -167 -15 -10 -46 -31 -67 -48 -94 -73
-169 -126 -214 -151 -16 -9 -41 -26 -55 -39 -14 -12 -45 -34 -70 -49 -25 -15
-61 -38 -80 -51 -19 -13 -48 -34 -65 -45 -16 -12 -61 -41 -100 -65 -38 -24
-86 -56 -105 -70 -65 -48 -155 -105 -166 -105 -6 0 -19 -10 -30 -21 -10 -12
-35 -29 -54 -38 -36 -16 -106 -59 -163 -98 -18 -13 -48 -30 -67 -39 -19 -9
-50 -29 -68 -45 -18 -16 -38 -29 -45 -29 -7 0 -29 -12 -48 -26 -19 -14 -50
-32 -69 -40 -19 -8 -44 -23 -55 -34 -11 -10 -41 -28 -66 -38 -26 -11 -50 -26
-54 -32 -4 -7 -31 -23 -59 -35 -29 -13 -58 -30 -65 -38 -7 -9 -29 -21 -49 -28
-20 -7 -54 -25 -76 -40 -21 -16 -47 -29 -56 -29 -9 0 -36 -14 -60 -31 -23 -17
-56 -36 -73 -42 -17 -6 -46 -21 -65 -33 -18 -13 -50 -28 -70 -35 -20 -6 -43
-17 -50 -23 -15 -12 -112 -63 -182 -96 -25 -11 -56 -27 -70 -35 -14 -8 -45
-24 -70 -35 -25 -11 -56 -27 -70 -35 -14 -8 -45 -24 -70 -35 -25 -12 -76 -37
-115 -56 -38 -19 -73 -34 -77 -34 -4 0 -23 -11 -43 -24 -20 -14 -50 -28 -68
-31 -18 -4 -52 -20 -77 -35 -25 -16 -64 -33 -86 -39 -23 -6 -53 -21 -68 -32
-15 -12 -49 -27 -77 -34 -28 -8 -59 -21 -68 -29 -10 -9 -42 -24 -72 -35 -30
-10 -78 -30 -106 -45 -29 -14 -58 -26 -65 -26 -7 0 -44 -16 -82 -35 -39 -19
-77 -35 -87 -35 -9 0 -40 -13 -70 -29 -30 -15 -70 -32 -89 -36 -19 -4 -55 -18
-80 -30 -25 -13 -66 -28 -90 -35 -25 -6 -69 -23 -99 -37 -29 -13 -77 -31 -106
-38 -29 -8 -67 -23 -86 -33 -19 -11 -59 -25 -89 -32 -30 -7 -70 -21 -89 -32
-18 -10 -63 -26 -99 -34 -36 -8 -86 -26 -111 -39 -26 -13 -69 -26 -96 -30 -28
-4 -75 -20 -105 -35 -30 -15 -83 -32 -117 -38 -33 -6 -80 -20 -102 -31 -22
-12 -72 -28 -111 -36 -39 -8 -88 -24 -109 -34 -21 -11 -69 -25 -107 -32 -38
-6 -85 -20 -106 -30 -20 -10 -77 -27 -126 -38 -50 -11 -105 -27 -122 -36 -16
-9 -77 -24 -134 -34 -57 -11 -118 -27 -136 -36 -18 -9 -75 -23 -126 -31 -51
-8 -116 -23 -144 -34 -28 -11 -100 -27 -158 -36 -59 -9 -119 -22 -134 -30 -15
-8 -81 -23 -147 -33 -67 -11 -150 -29 -186 -40 -36 -11 -123 -27 -193 -36 -70
-8 -154 -23 -187 -34 -33 -10 -112 -24 -175 -31 -63 -6 -140 -18 -171 -26 -62
-15 -233 -39 -353 -49 -43 -3 -126 -14 -185 -25 -58 -10 -164 -23 -236 -29
-71 -6 -184 -15 -250 -21 -66 -5 -167 -16 -225 -24 -145 -20 -445 -33 -1040
-47 -380 -9 -603 -9 -895 0 -215 6 -473 13 -575 16 -202 6 -411 21 -505 35
-33 5 -132 14 -220 20 -258 17 -386 30 -502 50 -60 10 -167 24 -239 30 -71 6
-178 22 -239 35 -60 13 -158 28 -217 34 -60 6 -152 22 -205 35 -54 14 -146 30
-205 35 -59 6 -133 20 -165 31 -32 11 -107 28 -168 36 -60 9 -130 25 -154 35
-24 10 -87 25 -141 33 -53 8 -119 24 -146 34 -27 11 -96 27 -153 36 -57 9
-117 24 -133 32 -16 8 -74 24 -128 34 -54 10 -113 26 -130 35 -18 9 -69 23
-113 32 -45 8 -100 24 -122 36 -22 11 -73 26 -113 33 -40 7 -97 24 -125 37
-29 14 -82 30 -119 36 -37 6 -83 20 -101 31 -18 11 -64 26 -102 34 -39 8 -95
26 -125 39 -30 14 -75 28 -100 32 -25 4 -66 18 -92 31 -25 13 -68 28 -95 34
-26 6 -72 22 -100 36 -29 13 -75 29 -103 34 -28 5 -70 21 -93 34 -23 14 -60
28 -82 32 -22 4 -62 18 -90 32 -27 14 -76 31 -108 39 -32 7 -77 24 -100 37
-23 13 -60 27 -82 31 -22 3 -59 17 -82 31 -23 13 -64 29 -92 34 -27 5 -70 23
-97 40 -26 16 -55 30 -65 30 -9 0 -40 13 -70 29 -30 15 -77 36 -106 45 -28 9
-57 23 -63 31 -6 8 -35 21 -64 29 -29 9 -64 24 -77 35 -14 10 -49 26 -78 35
-30 9 -68 26 -85 40 -17 13 -47 27 -66 31 -19 4 -55 20 -79 36 -25 16 -52 29
-61 29 -9 0 -35 13 -57 29 -22 16 -56 34 -74 39 -19 5 -56 23 -83 41 -28 17
-57 31 -66 31 -9 0 -40 16 -70 35 -30 19 -62 35 -71 35 -9 0 -34 12 -55 26
-21 15 -52 31 -69 37 -16 5 -45 21 -62 34 -18 13 -51 30 -73 38 -23 8 -53 23
-66 34 -14 11 -42 25 -61 32 -20 6 -57 25 -82 40 -25 16 -50 29 -56 29 -6 0
-29 13 -51 29 -21 16 -58 34 -80 40 -23 6 -48 19 -55 28 -8 9 -37 26 -64 39
-28 12 -57 29 -64 37 -7 9 -34 23 -61 32 -27 9 -54 23 -62 32 -7 9 -32 25 -55
35 -23 10 -45 23 -48 29 -4 5 -32 23 -63 40 -31 16 -71 40 -88 52 -39 27 -85
55 -133 82 -20 11 -48 28 -61 38 -14 10 -56 38 -95 62 -38 24 -88 58 -111 74
-23 17 -46 31 -52 31 -6 0 -26 13 -44 29 -18 15 -51 38 -73 50 -47 25 -98 60
-140 94 -16 13 -44 31 -60 40 -17 8 -39 24 -49 36 -11 12 -25 21 -33 21 -7 0
-30 15 -50 33 -21 18 -49 38 -63 45 -14 6 -52 34 -85 62 -33 27 -70 54 -82 60
-12 5 -39 25 -60 45 -20 19 -42 35 -49 35 -6 0 -19 9 -30 21 -10 12 -32 28
-49 36 -16 8 -41 26 -55 39 -25 23 -49 41 -145 109 -27 19 -70 51 -95 70 -25
19 -56 43 -70 52 -14 9 -44 33 -66 53 -23 19 -78 64 -123 100 -93 74 -382 317
-615 518 -87 75 -168 143 -180 151 -31 21 -166 140 -283 248 -232 215 -974
968 -1117 1135 -228 263 -671 791 -721 858 -11 15 -40 53 -65 85 -25 31 -58
74 -75 95 -16 21 -50 65 -75 97 -25 32 -55 73 -65 91 -11 17 -22 32 -26 32 -4
0 -24 23 -46 52 -21 28 -47 63 -58 78 -11 15 -37 53 -58 84 -21 32 -46 66 -55
75 -30 32 -145 190 -162 222 -7 13 -24 38 -37 54 -36 45 -69 94 -98 148 -14
26 -29 47 -34 47 -8 0 -52 63 -101 145 -14 23 -35 55 -48 71 -41 52 -71 98
-91 139 -10 22 -28 49 -40 59 -11 11 -21 25 -21 32 0 7 -14 29 -30 48 -17 18
-37 49 -44 68 -8 19 -22 41 -31 48 -9 8 -30 39 -46 69 -44 83 -73 128 -97 154
-12 12 -27 38 -33 57 -7 19 -25 50 -41 68 -15 18 -28 38 -28 45 0 7 -16 34
-35 61 -19 27 -35 55 -35 62 0 7 -11 26 -25 42 -14 17 -32 47 -41 69 -9 21
-27 51 -40 66 -13 16 -24 34 -24 40 0 7 -12 30 -28 52 -28 41 -63 104 -105
191 -14 28 -37 68 -51 89 -14 21 -26 45 -26 54 0 9 -14 36 -30 60 -17 25 -33
56 -37 70 -4 14 -19 43 -34 64 -15 21 -31 52 -35 70 -3 17 -17 47 -30 67 -13
19 -30 53 -37 75 -8 22 -26 58 -41 79 -14 21 -26 45 -26 53 0 8 -16 43 -35 77
-19 35 -35 70 -35 78 0 8 -13 32 -30 53 -16 21 -30 45 -30 54 0 15 -51 127
-107 235 -14 28 -31 68 -37 90 -7 23 -25 59 -39 80 -15 21 -27 46 -27 55 0 9
-16 49 -35 88 -19 40 -35 77 -35 83 0 6 -16 41 -35 77 -19 36 -35 74 -35 83 0
9 -13 41 -29 71 -15 30 -32 70 -36 89 -4 19 -21 59 -36 89 -16 30 -29 64 -29
76 0 13 -14 49 -30 81 -17 31 -35 78 -41 103 -5 25 -21 67 -34 92 -13 25 -30
70 -36 100 -6 30 -22 72 -34 94 -13 22 -28 64 -34 93 -6 29 -22 74 -35 100
-13 26 -29 73 -35 104 -5 31 -21 79 -34 105 -13 26 -30 77 -36 112 -7 36 -22
87 -33 115 -11 28 -26 81 -34 118 -7 36 -22 84 -33 106 -11 22 -26 73 -32 114
-6 40 -21 96 -33 123 -13 28 -29 79 -36 115 -6 36 -22 90 -35 120 -13 30 -28
88 -34 128 -6 39 -22 100 -35 135 -13 35 -27 92 -31 127 -4 36 -19 103 -35
150 -15 47 -31 114 -35 150 -4 36 -17 97 -30 135 -13 39 -31 123 -40 188 -9
64 -25 142 -35 173 -11 31 -27 115 -35 187 -8 71 -24 159 -35 195 -11 35 -25
119 -31 186 -6 66 -19 146 -29 176 -17 53 -32 154 -45 309 -4 40 -15 112 -25
160 -24 113 -28 152 -40 370 -5 101 -16 222 -24 270 -22 132 -35 309 -46 616
-5 154 -15 390 -21 525 -16 335 -5 926 32 1695 5 121 17 265 24 320 14 100 25
207 46 470 6 77 17 165 24 195 13 53 19 101 46 360 6 63 20 151 30 195 10 44
23 130 29 192 6 61 19 140 29 175 22 73 27 100 41 225 5 50 19 120 30 155 11
34 27 115 35 178 7 63 23 138 34 165 11 28 27 94 36 148 8 54 24 119 34 146
11 26 25 86 32 132 6 46 20 107 31 134 11 28 28 93 38 145 10 52 27 115 38
140 11 25 25 79 32 120 6 41 21 90 31 109 11 19 27 68 35 110 8 42 26 101 38
131 13 30 27 78 31 105 4 28 18 76 31 108 13 31 31 91 39 133 8 42 24 90 35
109 11 18 25 59 31 91 6 33 21 83 35 111 13 29 29 76 34 105 6 28 19 67 30 85
11 18 27 61 36 95 8 34 26 82 39 107 12 25 26 62 30 81 4 19 20 60 36 92 16
31 33 78 39 104 6 26 19 59 29 73 11 15 27 52 36 84 9 32 28 77 41 100 13 23
24 51 24 63 0 11 16 51 35 90 19 38 35 76 35 85 0 8 16 46 35 85 19 38 35 75
35 82 0 7 13 39 29 70 46 90 99 205 106 232 4 14 20 45 35 70 15 25 31 59 35
77 3 18 15 43 26 57 11 14 28 50 39 81 11 31 28 68 40 82 11 14 20 31 20 37 0
7 19 50 43 97 24 47 47 94 51 105 4 10 25 51 46 89 22 39 51 94 65 124 15 30
35 66 46 79 10 14 24 42 29 63 6 21 21 51 34 66 13 15 29 45 35 65 7 20 21 47
31 61 10 13 30 48 43 79 14 30 30 58 36 62 6 4 19 26 30 49 11 23 39 71 61
107 22 36 51 89 66 119 14 30 36 68 50 84 13 16 24 34 24 41 0 7 13 31 29 53
16 22 32 49 35 60 4 12 17 34 29 49 12 15 33 46 47 69 48 80 65 108 102 164
21 31 38 61 38 67 0 6 7 17 16 25 8 7 24 30 35 51 11 22 35 59 54 84 19 25 35
51 35 59 0 7 7 18 16 26 8 7 25 31 36 53 11 23 34 56 49 74 16 18 29 37 29 42
0 5 24 43 53 85 28 42 61 91 72 109 11 18 31 46 45 63 14 17 33 43 42 59 10
16 33 49 53 74 33 42 48 63 140 195 19 28 51 70 70 95 19 25 50 68 70 95 19
28 51 70 70 95 19 25 43 56 53 71 9 14 32 43 49 65 30 36 50 62 135 172 18 23
49 62 68 86 19 24 53 67 75 96 22 29 84 105 138 169 54 64 112 132 128 151 16
19 60 73 99 120 39 47 83 99 99 115 15 17 65 73 111 125 46 52 106 120 135
150 29 30 121 129 207 220 284 304 778 785 1048 1021 47 41 99 87 115 102 58
53 173 153 269 232 54 44 110 91 125 105 15 14 47 41 71 60 24 19 81 67 127
105 196 165 228 191 257 209 17 10 40 27 51 37 40 35 91 76 125 99 19 13 42
31 51 39 19 18 72 59 169 128 36 26 82 62 103 80 20 18 42 33 48 33 6 0 26 12
45 28 18 15 54 42 81 60 26 18 64 43 83 57 19 14 48 33 64 42 15 10 46 33 68
51 22 17 45 32 51 32 6 0 21 10 34 22 13 12 38 31 57 42 66 42 139 90 226 151
19 14 54 34 76 45 23 11 47 27 55 36 7 8 34 26 59 39 25 13 52 30 58 38 7 8
27 21 45 28 18 7 47 25 65 41 18 15 39 28 47 28 7 0 26 11 42 24 15 13 48 33
73 46 25 13 58 33 73 46 16 13 35 24 42 24 7 0 27 11 43 25 17 14 47 32 68 41
21 9 52 27 69 40 18 13 37 24 42 24 6 0 33 15 59 33 27 19 64 39 81 45 18 6
48 22 65 35 18 14 44 28 58 32 14 4 34 15 45 25 11 10 43 28 70 40 28 12 57
28 65 35 9 8 36 21 60 30 25 9 54 24 65 35 11 11 40 26 65 35 24 9 51 22 60
30 8 7 37 23 64 34 26 12 59 30 73 40 13 11 46 27 73 36 27 9 54 22 60 30 7 8
37 24 68 35 30 12 67 29 81 39 14 10 44 24 66 31 22 7 54 23 70 36 17 12 49
27 71 33 23 6 47 18 54 26 6 8 35 23 63 34 29 10 78 33 111 50 32 17 64 31 71
31 7 0 28 11 47 24 20 13 53 29 74 36 22 7 64 25 94 41 91 46 183 87 224 99
21 7 63 25 93 41 30 16 64 29 75 29 11 0 44 13 72 29 28 16 75 34 103 41 29 6
64 20 77 31 13 10 48 24 76 30 29 6 81 24 114 40 34 16 70 29 81 29 11 0 49
14 85 31 35 16 87 35 115 41 27 6 68 21 90 33 22 13 67 29 100 35 33 7 80 23
105 35 25 12 69 28 98 34 29 6 71 20 92 31 22 11 75 28 118 36 42 9 97 27 122
39 25 12 70 26 100 30 30 4 75 18 100 30 25 13 82 30 128 38 46 9 98 25 115
36 18 11 60 24 94 31 35 6 91 21 125 34 35 13 93 29 130 35 36 6 95 22 130 35
35 13 100 28 144 34 45 6 105 20 133 32 29 11 96 27 149 35 54 8 131 25 172
38 41 14 107 28 145 31 39 4 108 18 155 31 47 13 137 31 200 40 63 8 147 24
185 35 39 11 118 24 175 30 125 13 218 28 241 41 9 5 90 16 180 24 90 9 232
27 314 40 83 13 233 29 335 35 102 6 226 17 275 25 127 20 307 33 540 40 110
3 270 11 355 17 321 22 475 26 835 23 204 -2 492 -10 640 -19z"/>
    <path d="M22980 35974 c-19 -2 -87 -11 -150 -19 -63 -8 -187 -22 -275 -30 -88
-8 -182 -21 -210 -30 -27 -8 -102 -24 -165 -35 -63 -11 -140 -29 -170 -40 -30
-10 -88 -26 -128 -35 -40 -8 -89 -24 -110 -34 -21 -11 -67 -25 -103 -31 -35
-6 -79 -21 -97 -32 -18 -11 -60 -26 -95 -34 -34 -8 -80 -26 -102 -39 -22 -13
-58 -26 -80 -30 -22 -4 -56 -17 -75 -30 -20 -12 -60 -30 -91 -38 -31 -9 -68
-26 -82 -37 -14 -12 -48 -27 -75 -35 -27 -8 -60 -23 -73 -33 -13 -10 -44 -26
-69 -36 -25 -10 -52 -24 -60 -31 -9 -8 -40 -26 -70 -40 -57 -26 -98 -50 -161
-92 -20 -13 -54 -34 -76 -46 -22 -12 -55 -31 -73 -42 -157 -98 -205 -130 -273
-186 -18 -14 -43 -32 -57 -39 -29 -15 -42 -26 -260 -211 -175 -149 -415 -378
-540 -514 -65 -71 -121 -137 -270 -319 -19 -24 -48 -62 -65 -85 -16 -23 -45
-60 -62 -83 -18 -22 -33 -44 -33 -48 0 -4 -15 -26 -32 -49 -18 -22 -49 -66
-69 -98 -19 -32 -49 -78 -64 -103 -16 -25 -39 -66 -51 -91 -12 -26 -27 -50
-33 -53 -6 -4 -20 -26 -31 -49 -11 -23 -38 -73 -60 -112 -22 -38 -49 -90 -60
-115 -12 -25 -28 -56 -36 -70 -8 -14 -24 -45 -35 -70 -11 -25 -33 -72 -50
-104 -16 -32 -29 -66 -29 -74 0 -9 -13 -38 -28 -66 -16 -28 -34 -73 -41 -101
-7 -27 -23 -68 -36 -90 -13 -23 -29 -70 -35 -105 -6 -35 -20 -81 -31 -102 -11
-21 -26 -75 -35 -120 -8 -45 -24 -98 -34 -117 -10 -20 -23 -72 -29 -116 -7
-44 -23 -118 -36 -165 -14 -47 -29 -128 -35 -180 -11 -98 -19 -148 -45 -285
-8 -47 -20 -209 -27 -397 -9 -247 -9 -380 0 -595 9 -208 17 -302 32 -373 12
-52 28 -151 36 -220 8 -68 25 -156 38 -195 13 -38 27 -97 31 -130 4 -33 22
-105 41 -161 19 -55 34 -112 34 -125 0 -13 11 -47 24 -76 14 -28 32 -80 41
-115 9 -34 22 -72 29 -84 8 -11 24 -54 36 -95 12 -40 30 -84 40 -96 10 -13 24
-47 30 -76 7 -28 21 -63 30 -77 9 -14 25 -50 35 -80 10 -30 30 -75 46 -99 16
-25 29 -50 29 -57 0 -16 98 -212 110 -219 5 -3 19 -25 30 -48 18 -37 40 -74
115 -196 59 -96 226 -342 264 -388 14 -17 42 -53 61 -78 137 -181 208 -262
435 -491 170 -171 374 -356 479 -434 41 -31 71 -54 154 -122 11 -9 44 -32 74
-50 29 -19 59 -42 67 -51 7 -10 19 -17 26 -17 6 0 20 -9 31 -21 10 -12 40 -32
66 -45 26 -13 49 -28 53 -34 3 -6 24 -19 45 -30 22 -11 50 -31 64 -45 14 -14
31 -25 39 -25 7 0 36 -16 63 -35 27 -19 54 -35 60 -35 6 0 29 -13 50 -28 21
-16 54 -33 71 -40 18 -6 48 -22 65 -36 18 -13 51 -29 74 -35 22 -6 49 -20 59
-31 10 -11 40 -27 66 -34 27 -8 68 -26 92 -40 24 -14 51 -26 59 -26 9 0 42
-14 73 -30 32 -17 79 -35 104 -41 25 -7 61 -20 80 -31 18 -10 68 -28 110 -40
42 -11 88 -27 103 -34 15 -8 58 -21 95 -29 37 -9 102 -27 143 -41 41 -13 109
-31 150 -38 41 -8 110 -23 152 -34 42 -11 112 -23 155 -27 43 -3 132 -17 199
-31 155 -31 375 -44 734 -44 362 1 598 13 722 40 53 11 154 27 225 35 70 8
155 24 188 35 33 10 99 26 147 34 48 8 108 24 133 35 25 11 74 25 108 31 34 6
96 24 137 39 41 16 93 32 115 36 22 4 58 17 80 30 22 12 63 28 90 34 28 7 65
21 82 31 18 11 54 26 81 33 26 8 70 26 97 40 93 48 220 107 231 107 5 0 25 11
44 25 18 13 49 30 69 36 20 7 50 23 67 35 17 13 46 29 65 36 19 6 52 24 73 40
21 15 43 28 48 28 6 0 28 13 51 28 23 16 62 42 86 58 24 16 60 40 81 54 21 14
57 38 81 54 24 16 59 41 76 55 18 14 53 42 78 61 25 19 63 49 83 66 20 17 45
35 54 40 9 5 45 35 80 66 35 32 119 106 188 166 69 60 188 172 264 248 195
194 466 527 599 733 12 19 38 60 59 90 85 130 172 274 198 330 11 24 29 56 40
71 11 16 27 47 35 70 8 23 26 55 40 72 14 16 25 37 25 45 0 9 13 39 29 67 15
28 34 69 41 91 7 22 23 58 36 80 12 22 28 60 34 85 7 25 20 59 30 75 10 17 25
55 35 85 10 30 26 71 36 91 10 20 25 66 33 103 9 37 23 81 32 99 10 17 25 70
36 117 10 47 27 108 37 135 11 28 25 87 31 133 6 45 22 118 35 162 13 43 27
112 30 152 7 80 30 230 45 293 21 86 32 403 26 715 -6 292 -17 437 -45 560 -5
25 -15 97 -21 160 -6 63 -24 167 -40 230 -15 63 -31 140 -35 170 -4 30 -18 86
-31 125 -13 38 -29 98 -35 133 -5 35 -19 82 -29 103 -11 21 -27 69 -36 105 -8
37 -25 88 -38 113 -13 25 -26 64 -30 85 -4 22 -20 65 -36 95 -15 31 -31 72
-35 91 -4 19 -17 51 -30 71 -13 20 -29 56 -35 79 -6 23 -22 59 -35 79 -14 20
-30 52 -36 71 -7 19 -22 49 -34 65 -12 17 -28 46 -35 65 -7 19 -21 44 -31 55
-15 18 -28 40 -94 164 -11 21 -30 50 -43 66 -12 16 -31 47 -42 69 -11 23 -40
68 -65 101 -25 33 -55 79 -67 103 -12 23 -25 42 -29 42 -4 0 -21 21 -38 48
-84 129 -124 180 -280 362 -162 189 -285 314 -451 463 -74 66 -148 132 -163
146 -53 49 -107 96 -139 123 -18 15 -51 43 -73 61 -22 19 -51 40 -65 47 -25
13 -60 39 -129 98 -21 17 -42 32 -47 32 -5 0 -29 16 -53 35 -24 19 -47 35 -51
35 -5 0 -27 15 -49 34 -23 19 -50 38 -61 41 -11 4 -43 22 -71 41 -28 19 -56
34 -61 34 -6 0 -23 11 -40 25 -16 13 -48 29 -71 36 -23 6 -52 20 -63 31 -12
10 -43 26 -69 34 -27 8 -62 25 -80 38 -17 13 -47 28 -65 34 -19 5 -52 21 -73
35 -21 14 -52 29 -70 32 -18 4 -54 20 -82 35 -27 15 -66 31 -85 35 -19 4 -59
21 -89 36 -30 16 -63 29 -74 29 -11 0 -54 16 -97 35 -43 19 -85 35 -95 35 -10
0 -56 13 -104 29 -47 16 -115 35 -150 41 -36 6 -82 20 -102 31 -21 10 -88 26
-151 34 -62 9 -140 25 -173 35 -33 10 -132 26 -221 35 -89 8 -201 23 -250 32
-69 12 -169 16 -454 18 -201 2 -381 1 -400 -1z m575 -1688 c66 -8 156 -17 200
-21 168 -13 268 -27 323 -46 31 -11 91 -24 133 -30 42 -5 103 -20 135 -33 33
-13 89 -29 124 -36 36 -6 83 -22 105 -34 22 -13 63 -29 90 -35 28 -7 64 -20
81 -30 16 -10 60 -28 96 -40 37 -12 72 -28 78 -36 6 -8 33 -21 59 -30 26 -8
63 -27 81 -40 19 -14 39 -25 44 -25 6 0 47 -23 91 -50 44 -28 93 -58 108 -68
57 -34 83 -53 127 -87 25 -19 68 -51 95 -70 93 -66 112 -81 186 -146 158 -138
221 -199 379 -365 108 -114 194 -217 280 -339 27 -38 59 -83 72 -99 13 -17 29
-44 36 -60 7 -17 22 -40 32 -51 11 -11 26 -36 34 -55 8 -19 26 -50 40 -69 14
-19 26 -40 26 -46 0 -6 16 -35 35 -65 19 -30 35 -61 35 -70 0 -9 11 -32 25
-50 14 -19 32 -56 40 -82 7 -26 23 -60 35 -76 11 -15 28 -55 36 -88 9 -32 24
-73 35 -90 11 -18 24 -58 30 -90 6 -33 22 -85 35 -116 13 -32 29 -90 34 -130
6 -40 22 -108 35 -153 14 -44 32 -141 40 -215 8 -74 20 -162 25 -195 6 -33 15
-129 21 -213 12 -168 2 -398 -25 -577 -9 -55 -22 -157 -31 -226 -8 -69 -24
-152 -35 -185 -11 -32 -25 -90 -31 -128 -6 -38 -20 -90 -31 -115 -11 -25 -28
-80 -38 -122 -9 -41 -27 -93 -37 -115 -11 -21 -26 -62 -32 -91 -7 -28 -23 -66
-37 -84 -13 -18 -24 -40 -24 -49 0 -9 -18 -52 -40 -95 -22 -43 -40 -84 -40
-90 0 -7 -9 -20 -20 -30 -10 -9 -26 -39 -35 -65 -9 -26 -27 -58 -40 -70 -14
-13 -25 -29 -25 -35 0 -12 -80 -140 -105 -168 -9 -10 -26 -35 -38 -55 -12 -20
-42 -63 -67 -95 -25 -33 -54 -71 -65 -86 -54 -75 -163 -197 -280 -315 -143
-144 -314 -289 -460 -390 -27 -19 -75 -53 -105 -75 -30 -22 -75 -52 -100 -66
-25 -14 -70 -41 -100 -60 -30 -19 -83 -48 -117 -65 -34 -16 -64 -34 -67 -39
-4 -5 -30 -19 -60 -30 -29 -11 -70 -31 -90 -45 -20 -13 -51 -28 -69 -32 -18
-3 -54 -18 -81 -31 -27 -14 -71 -32 -98 -40 -27 -7 -63 -22 -81 -33 -17 -10
-50 -22 -72 -25 -22 -4 -70 -20 -106 -36 -36 -16 -99 -33 -140 -40 -41 -6 -91
-20 -112 -31 -24 -12 -85 -25 -160 -34 -67 -8 -149 -22 -182 -31 -84 -23 -205
-31 -465 -32 -241 -1 -385 9 -478 33 -31 8 -113 22 -182 30 -69 8 -150 23
-180 35 -30 11 -86 25 -125 31 -38 6 -95 21 -126 35 -30 13 -80 30 -110 36
-30 6 -72 22 -94 34 -22 12 -62 28 -90 34 -27 7 -67 23 -87 36 -20 13 -49 27
-65 31 -15 4 -50 19 -78 34 -27 15 -66 33 -86 39 -20 7 -45 21 -54 31 -10 11
-35 25 -56 30 -21 6 -51 21 -66 34 -16 13 -45 31 -66 40 -22 9 -52 26 -67 38
-16 13 -58 41 -95 63 -37 22 -81 52 -100 68 -18 15 -36 27 -40 27 -4 0 -26 16
-49 36 -23 19 -109 93 -191 163 -141 120 -369 353 -460 471 -22 28 -50 63 -62
78 -46 57 -92 122 -107 149 -8 16 -22 36 -31 43 -9 8 -25 30 -36 49 -11 20
-30 50 -42 67 -43 62 -113 182 -152 263 -14 30 -35 66 -46 79 -10 14 -24 43
-30 66 -6 22 -21 57 -34 76 -12 19 -28 57 -34 83 -7 27 -21 61 -32 77 -12 15
-27 57 -35 94 -7 36 -22 83 -33 104 -11 21 -25 67 -31 103 -6 35 -24 102 -40
149 -16 47 -32 117 -35 155 -4 39 -15 102 -26 140 -10 39 -23 113 -29 165 -13
117 -14 716 -1 825 6 44 19 118 30 165 11 47 25 123 31 170 6 47 24 123 40
170 16 47 30 98 30 113 0 16 13 59 29 95 16 37 32 84 35 105 4 20 20 65 36
100 17 34 30 69 30 78 0 9 16 46 35 82 19 36 35 72 35 80 0 8 12 32 26 53 15
21 33 56 40 76 7 21 24 53 37 71 13 17 30 48 37 67 7 19 21 44 30 55 10 11 27
39 39 62 11 23 25 45 31 48 6 4 22 27 36 53 28 52 75 122 114 169 14 16 39 47
55 68 71 90 240 277 326 361 81 78 285 259 384 340 36 30 90 68 129 91 15 10
45 32 66 48 21 17 53 39 71 50 92 55 149 87 199 111 30 15 66 35 79 46 13 10
42 23 65 29 22 6 57 21 77 34 20 13 56 29 79 35 23 6 59 22 79 35 20 13 59 29
86 35 28 6 72 22 99 36 27 14 76 30 110 35 33 5 86 20 116 33 30 13 80 27 110
31 30 3 109 19 175 34 67 16 200 37 300 47 99 9 207 20 240 24 108 12 318 10
440 -4z"/>
    <path d="M5290 21373 c-59 -11 -218 -69 -247 -90 -17 -13 -44 -27 -58 -33 -33
-13 -94 -61 -159 -126 -71 -71 -114 -127 -133 -171 -8 -21 -24 -51 -35 -66
-23 -32 -72 -228 -82 -322 -6 -67 9 -562 24 -755 5 -69 16 -261 25 -428 9
-184 23 -353 36 -430 11 -70 27 -201 34 -292 8 -91 23 -210 34 -265 11 -55 27
-161 35 -235 9 -74 24 -165 35 -202 11 -37 24 -118 31 -180 6 -62 22 -151 35
-198 13 -47 29 -131 35 -188 6 -56 20 -128 31 -159 10 -31 26 -102 35 -157 9
-55 25 -123 36 -150 10 -27 26 -94 34 -149 8 -55 22 -113 30 -129 9 -16 24
-74 34 -127 11 -54 28 -118 39 -144 11 -26 27 -85 35 -132 8 -47 24 -106 35
-131 12 -25 26 -76 32 -113 6 -36 22 -87 35 -112 12 -25 28 -74 34 -110 6 -35
22 -88 35 -117 13 -29 29 -77 34 -107 6 -30 21 -76 34 -102 14 -26 28 -68 32
-93 4 -25 19 -67 33 -95 14 -27 31 -76 38 -108 8 -31 25 -79 38 -105 13 -26
26 -65 30 -87 4 -22 16 -55 27 -73 10 -18 26 -58 35 -90 9 -31 27 -75 39 -98
13 -22 29 -63 36 -90 7 -27 25 -73 41 -102 15 -30 28 -60 28 -68 0 -8 16 -47
35 -87 19 -39 35 -79 35 -87 0 -8 14 -37 30 -65 16 -27 30 -56 30 -64 0 -8 18
-53 41 -100 23 -47 54 -115 70 -151 17 -36 46 -95 64 -132 19 -37 35 -73 35
-80 0 -8 16 -38 35 -68 19 -30 35 -62 35 -71 0 -9 12 -34 26 -55 15 -21 31
-52 37 -69 5 -16 23 -48 38 -69 16 -22 29 -47 29 -56 0 -9 14 -38 31 -66 18
-27 36 -62 42 -79 5 -16 18 -41 27 -55 10 -14 29 -47 43 -75 60 -120 83 -162
103 -190 12 -17 27 -47 33 -67 7 -20 19 -42 28 -50 9 -7 27 -35 40 -63 12 -27
31 -61 42 -75 10 -14 37 -59 61 -100 24 -41 51 -86 61 -100 11 -14 29 -43 40
-65 12 -22 32 -54 45 -71 13 -17 24 -35 24 -41 0 -6 10 -23 23 -38 12 -16 33
-47 47 -70 47 -79 65 -107 87 -139 12 -17 34 -52 49 -78 15 -27 31 -48 35 -48
5 0 20 -21 34 -47 14 -27 37 -64 50 -83 14 -19 40 -57 59 -85 20 -27 47 -66
61 -85 14 -19 43 -60 65 -90 21 -30 50 -71 65 -90 14 -19 48 -66 75 -105 62
-88 96 -134 140 -190 19 -24 49 -63 65 -85 31 -42 57 -75 163 -207 35 -43 87
-109 116 -148 28 -38 62 -81 74 -95 11 -14 101 -117 198 -230 162 -189 249
-285 439 -488 169 -182 408 -423 575 -582 78 -74 188 -180 245 -235 180 -175
399 -376 426 -391 9 -5 58 -47 109 -94 51 -47 100 -89 109 -94 9 -5 52 -41 97
-80 44 -39 104 -89 134 -111 29 -22 85 -67 125 -100 40 -33 96 -78 125 -100
29 -22 70 -53 91 -70 21 -16 59 -46 85 -65 26 -19 61 -47 78 -61 17 -14 62
-47 100 -72 37 -26 82 -58 100 -72 60 -49 207 -155 234 -169 16 -8 35 -22 42
-31 8 -9 34 -28 59 -41 47 -25 85 -51 157 -104 23 -16 45 -30 50 -30 5 0 29
-16 53 -35 24 -19 49 -35 56 -35 6 0 20 -9 31 -21 10 -12 37 -30 59 -41 22
-12 51 -29 65 -40 22 -17 101 -67 191 -123 18 -11 55 -35 83 -52 28 -18 74
-44 103 -57 28 -14 54 -30 58 -37 4 -6 28 -20 54 -31 25 -11 53 -27 62 -34 9
-8 44 -29 78 -47 130 -67 158 -83 186 -103 17 -12 41 -25 55 -29 14 -4 39 -17
55 -29 17 -12 46 -28 65 -36 19 -7 49 -23 65 -35 17 -11 51 -29 77 -39 26 -10
50 -22 53 -27 3 -5 63 -36 133 -70 70 -34 134 -68 142 -75 9 -8 34 -20 56 -27
22 -8 57 -26 78 -41 21 -14 46 -26 55 -26 10 0 37 -13 62 -29 25 -15 68 -36
96 -45 28 -9 57 -23 63 -31 6 -8 35 -22 63 -31 29 -9 66 -27 82 -40 17 -12 44
-26 60 -29 17 -4 49 -18 73 -32 24 -13 66 -31 95 -39 29 -9 68 -26 87 -39 19
-12 56 -28 82 -34 26 -6 62 -20 80 -30 18 -11 56 -25 83 -32 28 -7 71 -22 96
-35 26 -13 68 -28 95 -35 27 -7 73 -25 103 -41 30 -15 67 -28 84 -28 17 0 49
-11 71 -24 23 -13 71 -32 106 -41 36 -9 80 -25 98 -36 18 -10 60 -26 95 -35
34 -8 77 -24 96 -35 18 -11 56 -25 85 -31 28 -6 68 -19 89 -30 21 -10 75 -28
119 -39 45 -11 98 -29 118 -39 19 -10 61 -23 92 -29 31 -5 83 -21 116 -35 33
-14 90 -30 127 -36 37 -6 93 -21 124 -34 31 -13 79 -27 106 -31 28 -4 77 -18
110 -31 33 -12 101 -30 151 -39 50 -8 117 -24 149 -35 32 -11 99 -27 149 -35
50 -8 116 -23 148 -34 31 -11 101 -25 155 -31 54 -6 132 -22 173 -35 41 -13
120 -29 175 -35 55 -6 129 -20 164 -31 36 -11 108 -24 160 -30 93 -11 213 -31
296 -50 22 -5 118 -16 213 -24 95 -8 202 -22 239 -30 66 -15 130 -20 633 -50
140 -9 316 -22 390 -30 193 -21 1082 -31 1395 -16 132 7 290 16 350 21 61 5
169 13 240 19 72 6 217 15 324 21 107 6 246 19 310 30 64 11 197 26 296 35 99
8 203 21 230 30 28 8 122 24 210 35 88 11 193 29 234 40 41 11 116 25 165 31
50 5 123 21 161 34 39 12 111 28 161 34 50 6 118 20 150 31 32 12 102 27 154
35 52 8 126 26 163 40 37 14 93 28 125 32 31 3 80 16 107 29 28 12 87 29 132
37 44 9 99 25 121 36 22 11 71 25 108 31 38 6 93 22 123 35 29 14 79 29 111
34 32 5 82 21 112 35 29 13 82 30 118 36 35 6 82 22 105 35 22 13 60 26 85 30
25 4 70 19 100 35 30 15 75 31 100 35 25 4 63 18 85 30 22 13 65 28 95 35 30
7 73 23 95 35 22 13 64 28 94 35 30 7 79 26 109 41 30 16 63 29 75 29 11 0 43
13 71 28 28 16 73 34 100 41 27 7 61 21 76 31 15 10 49 24 76 31 27 7 65 23
84 36 20 12 60 30 90 39 30 9 62 22 71 30 8 8 40 22 70 33 30 10 70 28 89 39
19 11 53 26 75 32 22 7 56 23 75 36 19 12 53 27 74 34 22 7 60 26 85 41 25 16
52 29 60 29 9 0 30 9 46 21 17 11 57 33 90 50 33 16 71 36 85 43 14 8 43 23
65 34 22 11 72 36 110 57 39 21 88 46 110 57 22 11 51 26 65 34 14 9 48 26 77
39 28 13 54 29 58 35 3 6 34 24 68 41 108 53 164 84 182 99 9 8 39 26 65 40
118 61 169 90 175 99 3 6 26 19 51 31 25 11 59 31 76 45 16 14 36 25 43 25 7
0 27 11 43 25 17 14 46 32 64 40 19 7 41 21 48 30 8 9 35 27 61 41 26 13 50
28 54 34 4 6 29 22 56 35 27 14 49 29 49 34 0 5 14 14 31 21 17 7 49 28 71 47
22 18 45 33 52 33 6 0 27 13 46 30 19 16 40 29 45 30 6 0 26 13 45 29 19 15
51 36 70 46 19 10 50 30 67 44 85 68 100 79 122 91 13 6 50 33 83 58 32 26 73
57 91 69 78 54 249 185 334 256 24 20 48 37 53 37 5 0 43 28 84 63 76 63 130
106 220 174 78 61 586 499 716 619 19 18 49 45 66 61 258 237 619 593 794 783
58 62 116 126 130 140 14 15 59 64 100 109 41 45 90 99 109 119 18 20 75 87
126 147 51 61 112 130 134 155 23 25 54 61 71 80 16 19 50 59 74 87 25 29 64
79 88 110 23 32 65 86 93 119 70 86 106 132 137 179 15 22 44 60 63 85 34 44
45 58 123 166 20 28 57 77 82 109 80 103 99 129 126 175 26 42 41 62 105 142
15 18 36 51 48 73 12 22 33 56 46 75 13 19 34 49 45 65 12 17 35 52 53 79 18
27 44 68 60 90 15 23 35 54 45 69 44 73 103 164 119 187 10 13 27 40 38 60 35
63 59 102 93 151 17 27 32 53 32 58 0 6 13 25 29 43 16 18 36 50 45 71 9 22
27 52 41 69 14 16 25 35 25 42 0 6 15 35 33 63 59 95 72 115 107 179 97 176
129 251 150 349 12 55 26 125 31 155 9 59 0 140 -26 224 -8 27 -15 59 -15 71
0 11 -16 52 -35 91 -19 38 -35 74 -35 81 0 11 -26 46 -116 154 -74 89 -396
402 -604 588 -52 47 -107 96 -122 110 -48 46 -105 95 -158 136 -29 22 -88 69
-131 105 -44 36 -99 81 -124 100 -25 19 -65 51 -90 70 -24 19 -63 49 -85 65
-22 17 -61 46 -85 65 -65 52 -127 96 -155 110 -14 7 -40 25 -57 39 -18 14 -48
38 -65 52 -18 15 -51 36 -73 48 -42 23 -92 56 -137 91 -15 11 -42 27 -61 35
-19 8 -48 25 -63 38 -16 13 -43 29 -61 36 -18 7 -38 20 -45 28 -6 8 -33 25
-58 38 -25 13 -52 31 -59 39 -8 9 -33 25 -56 35 -23 10 -46 24 -50 30 -4 7
-30 23 -58 37 -29 13 -66 34 -84 47 -17 12 -51 33 -74 47 -23 14 -68 42 -99
63 -32 20 -65 37 -73 37 -9 0 -31 13 -49 29 -18 15 -50 34 -70 40 -20 7 -53
25 -72 40 -20 16 -51 32 -70 35 -18 4 -41 15 -51 26 -9 10 -40 27 -69 36 -28
9 -60 25 -72 35 -11 11 -42 26 -69 36 -27 9 -64 27 -83 40 -19 12 -40 23 -46
23 -11 0 -135 58 -237 111 -31 16 -63 29 -72 29 -8 0 -45 16 -81 35 -37 19
-72 35 -79 35 -7 0 -44 15 -83 34 -39 18 -86 37 -105 41 -19 4 -54 18 -79 31
-25 13 -67 28 -93 34 -27 6 -67 20 -90 32 -23 11 -69 27 -101 35 -33 7 -73 22
-90 33 -17 10 -61 25 -97 34 -37 8 -84 24 -105 35 -22 11 -73 27 -114 35 -41
8 -100 26 -130 40 -30 14 -68 26 -84 26 -16 0 -68 13 -115 30 -48 16 -118 34
-157 39 -38 6 -99 21 -134 34 -36 13 -105 29 -153 36 -49 7 -116 21 -150 32
-34 10 -118 26 -187 34 -69 9 -157 24 -195 35 -39 11 -129 25 -200 30 -72 6
-204 22 -295 36 -246 37 -826 58 -1380 50 -463 -7 -859 -21 -985 -36 -44 -5
-125 -16 -180 -24 -55 -8 -172 -20 -260 -26 -88 -6 -218 -22 -290 -35 -71 -13
-161 -26 -200 -30 -117 -10 -215 -26 -249 -40 -18 -8 -82 -19 -142 -25 -60 -6
-149 -22 -199 -35 -49 -13 -134 -31 -187 -40 -53 -8 -119 -23 -145 -34 -27
-10 -88 -24 -137 -30 -48 -6 -120 -22 -160 -35 -39 -14 -107 -29 -151 -35 -44
-6 -107 -22 -140 -35 -33 -13 -94 -29 -134 -35 -41 -7 -95 -21 -120 -32 -26
-11 -81 -27 -123 -34 -42 -8 -98 -23 -124 -35 -26 -12 -77 -26 -113 -32 -36
-6 -83 -19 -104 -30 -21 -10 -75 -27 -120 -37 -45 -10 -96 -25 -112 -33 -17
-9 -63 -23 -104 -32 -40 -9 -99 -27 -130 -40 -31 -13 -76 -27 -101 -31 -25 -4
-76 -20 -115 -37 -38 -16 -90 -32 -115 -35 -25 -3 -70 -18 -100 -33 -30 -15
-75 -30 -100 -34 -25 -4 -60 -15 -78 -26 -18 -11 -66 -29 -106 -40 -41 -11
-89 -28 -108 -39 -18 -10 -57 -24 -86 -30 -30 -6 -72 -22 -95 -35 -23 -13 -66
-29 -95 -35 -29 -6 -70 -20 -90 -30 -21 -11 -66 -27 -100 -35 -34 -9 -76 -25
-94 -36 -19 -10 -58 -24 -88 -31 -30 -6 -80 -24 -110 -39 -30 -15 -71 -31 -90
-35 -19 -4 -56 -18 -81 -31 -26 -13 -68 -28 -95 -35 -27 -7 -61 -20 -75 -30
-14 -10 -48 -23 -75 -30 -27 -6 -74 -24 -104 -39 -31 -15 -80 -33 -109 -39
-30 -6 -68 -20 -85 -30 -17 -11 -60 -27 -96 -36 -35 -9 -76 -25 -91 -36 -15
-11 -50 -24 -78 -29 -28 -5 -76 -22 -108 -38 -32 -16 -76 -32 -98 -36 -22 -4
-58 -18 -80 -30 -22 -13 -62 -29 -90 -35 -27 -7 -68 -23 -90 -35 -22 -13 -62
-29 -90 -35 -27 -7 -68 -23 -90 -36 -22 -13 -58 -27 -80 -31 -22 -3 -65 -19
-95 -34 -30 -15 -76 -32 -102 -39 -26 -6 -62 -20 -80 -30 -18 -11 -55 -25 -83
-32 -27 -6 -68 -22 -91 -35 -22 -12 -63 -28 -90 -35 -27 -6 -68 -22 -90 -35
-23 -13 -63 -28 -90 -34 -27 -6 -65 -22 -85 -35 -20 -13 -54 -27 -75 -31 -22
-4 -64 -19 -94 -34 -30 -15 -71 -31 -90 -35 -19 -4 -60 -20 -90 -35 -30 -16
-71 -31 -90 -35 -19 -4 -60 -20 -90 -35 -30 -16 -75 -31 -100 -35 -25 -4 -63
-18 -85 -31 -22 -13 -65 -28 -95 -35 -30 -6 -73 -22 -96 -35 -23 -13 -67 -29
-100 -35 -32 -6 -77 -21 -99 -34 -22 -13 -64 -28 -93 -34 -29 -6 -74 -22 -101
-36 -27 -13 -69 -27 -93 -31 -24 -4 -72 -19 -108 -34 -36 -16 -83 -31 -105
-35 -22 -4 -85 -22 -141 -41 -56 -19 -111 -34 -122 -34 -12 0 -47 -11 -77 -25
-31 -13 -93 -31 -138 -40 -44 -8 -92 -22 -105 -31 -12 -8 -67 -24 -120 -34
-53 -10 -120 -28 -148 -39 -28 -11 -88 -25 -135 -31 -46 -6 -104 -20 -129 -31
-25 -11 -88 -27 -140 -35 -52 -8 -120 -23 -150 -33 -30 -10 -95 -24 -145 -31
-49 -6 -139 -24 -200 -40 -60 -16 -146 -32 -190 -35 -44 -4 -134 -17 -200 -30
-69 -14 -217 -30 -350 -40 -126 -8 -252 -20 -280 -25 -135 -24 -383 -33 -741
-26 -203 3 -396 10 -429 15 -120 18 -233 31 -355 41 -69 5 -159 19 -200 31
-41 11 -124 27 -185 34 -60 8 -130 23 -155 34 -25 11 -86 26 -136 34 -50 8
-108 24 -130 35 -21 11 -66 25 -99 32 -33 7 -81 23 -107 36 -26 13 -71 29
-100 35 -29 6 -69 21 -88 34 -19 12 -57 28 -84 34 -27 7 -63 21 -79 33 -15 11
-49 27 -75 34 -26 8 -63 25 -82 38 -19 12 -48 26 -65 30 -16 4 -45 19 -62 32
-18 14 -52 32 -75 40 -23 8 -52 23 -63 33 -11 11 -37 26 -58 35 -22 9 -52 27
-69 41 -16 14 -36 25 -43 25 -7 0 -32 16 -55 35 -23 19 -47 35 -54 35 -6 0
-27 13 -46 28 -19 16 -52 37 -72 47 -21 9 -38 21 -38 26 0 5 -21 20 -47 34
-27 14 -79 50 -118 80 -251 193 -398 312 -488 395 -96 87 -461 454 -564 566
-83 89 -233 267 -308 363 -41 53 -86 109 -141 178 -17 21 -38 52 -47 70 -10
18 -23 36 -31 40 -12 7 -41 47 -91 127 -11 18 -32 48 -47 67 -16 20 -28 39
-28 43 0 4 -16 26 -35 49 -19 22 -35 46 -35 53 0 7 -16 31 -35 54 -19 23 -35
47 -35 54 0 6 -13 27 -29 46 -15 19 -33 52 -40 72 -7 20 -19 42 -28 50 -9 7
-25 33 -36 58 -11 25 -27 53 -36 63 -21 25 -64 98 -99 172 -16 33 -36 66 -45
73 -9 7 -19 26 -22 42 -4 16 -20 46 -36 66 -16 20 -34 54 -39 75 -6 21 -15 41
-22 45 -6 4 -24 36 -40 73 -17 36 -36 73 -43 81 -7 8 -20 38 -29 67 -10 28
-24 57 -32 64 -8 6 -22 37 -31 68 -8 31 -26 70 -39 86 -13 17 -28 51 -33 75
-6 25 -24 72 -41 104 -16 32 -30 66 -30 75 0 9 -16 47 -35 85 -19 39 -35 79
-35 91 0 11 -13 47 -29 80 -16 33 -33 78 -36 100 -4 22 -18 61 -31 86 -13 25
-30 76 -38 113 -9 36 -24 83 -35 104 -10 21 -25 67 -31 102 -7 36 -23 90 -36
121 -12 30 -28 87 -35 125 -6 38 -20 90 -30 116 -10 25 -25 86 -34 135 -9 48
-25 111 -35 139 -10 29 -26 101 -35 160 -8 60 -27 154 -40 209 -13 55 -29 144
-35 198 -6 54 -18 122 -26 150 -8 29 -23 85 -33 125 -11 41 -26 81 -34 90 -8
10 -24 36 -35 60 -24 50 -58 93 -129 165 -114 115 -178 156 -358 229 -75 30
-88 32 -220 34 -77 1 -151 0 -165 -3z m22055 -5587 c66 -8 208 -20 315 -26
107 -6 227 -18 265 -26 103 -22 227 -41 335 -53 53 -6 121 -19 152 -30 31 -11
96 -24 145 -30 49 -6 123 -22 163 -36 41 -14 103 -30 139 -36 36 -6 91 -22
122 -35 30 -12 87 -28 125 -34 38 -7 84 -21 102 -31 18 -10 68 -28 112 -38 44
-11 90 -27 102 -35 13 -8 52 -22 88 -31 36 -9 80 -25 99 -36 18 -11 56 -25 85
-30 28 -6 74 -24 101 -39 28 -15 66 -31 85 -35 19 -4 59 -21 89 -36 30 -16 61
-29 69 -29 8 0 35 -12 59 -26 24 -14 68 -34 98 -44 30 -10 71 -30 92 -44 21
-14 43 -26 50 -26 7 0 42 -16 79 -35 36 -19 71 -35 77 -35 7 0 32 -14 57 -30
25 -16 52 -30 60 -30 9 0 40 -15 69 -34 29 -19 64 -37 78 -41 14 -3 40 -17 58
-30 17 -14 47 -30 66 -36 19 -7 43 -20 54 -30 11 -10 38 -25 60 -34 21 -9 53
-28 70 -41 18 -13 37 -24 42 -24 6 0 33 -15 60 -34 26 -18 58 -36 70 -40 12
-4 38 -20 58 -36 21 -17 46 -30 55 -30 10 0 36 -15 58 -32 39 -32 62 -47 148
-98 24 -14 54 -35 66 -47 13 -11 37 -28 53 -37 32 -18 79 -49 135 -91 19 -14
53 -38 75 -52 50 -33 107 -74 162 -116 23 -18 77 -57 119 -87 42 -30 96 -71
120 -90 24 -19 64 -51 89 -70 68 -52 136 -108 173 -141 18 -16 36 -29 40 -29
4 0 46 -38 95 -84 93 -90 99 -104 73 -167 -8 -19 -28 -51 -45 -73 -17 -21 -31
-44 -31 -51 0 -7 -7 -18 -16 -26 -9 -7 -29 -39 -45 -70 -16 -32 -33 -60 -39
-64 -6 -4 -22 -27 -36 -53 -40 -75 -71 -125 -94 -152 -21 -24 -60 -82 -106
-158 -12 -19 -27 -38 -34 -42 -7 -4 -22 -23 -34 -42 -11 -20 -38 -59 -59 -89
-20 -30 -52 -75 -70 -100 -73 -105 -215 -294 -239 -320 -10 -10 -29 -35 -43
-56 -13 -21 -43 -60 -65 -88 -22 -27 -51 -66 -65 -85 -14 -19 -43 -57 -65 -85
-22 -27 -52 -68 -67 -90 -16 -22 -68 -88 -118 -146 -49 -59 -131 -155 -182
-215 -50 -60 -113 -132 -140 -160 -26 -28 -79 -86 -118 -129 -38 -43 -79 -88
-90 -99 -12 -12 -95 -99 -185 -195 -196 -208 -406 -414 -550 -541 -139 -123
-150 -133 -185 -166 -32 -31 -220 -194 -356 -310 -165 -140 -254 -216 -274
-233 -11 -10 -33 -26 -50 -36 -16 -11 -47 -33 -67 -50 -20 -16 -56 -45 -80
-63 -24 -18 -63 -48 -86 -67 -24 -19 -48 -35 -52 -35 -5 0 -29 -17 -53 -37
-25 -21 -68 -54 -96 -73 -53 -36 -114 -81 -166 -123 -16 -13 -44 -31 -61 -40
-17 -9 -37 -23 -44 -32 -8 -9 -30 -25 -49 -36 -20 -11 -63 -40 -96 -64 -33
-25 -78 -54 -100 -66 -22 -12 -55 -35 -73 -50 -18 -16 -37 -29 -42 -29 -6 0
-29 -15 -54 -32 -42 -32 -67 -48 -152 -98 -23 -14 -50 -33 -61 -42 -10 -9 -34
-23 -53 -32 -19 -9 -49 -26 -66 -39 -44 -31 -135 -86 -233 -142 -29 -16 -66
-40 -81 -53 -16 -12 -44 -29 -63 -37 -20 -8 -39 -19 -42 -25 -4 -6 -32 -23
-63 -39 -143 -72 -172 -88 -190 -104 -10 -9 -37 -23 -61 -32 -23 -8 -54 -23
-67 -34 -14 -11 -47 -27 -74 -36 -27 -9 -54 -22 -60 -30 -7 -8 -37 -24 -68
-35 -30 -12 -67 -29 -81 -39 -14 -10 -44 -24 -66 -31 -22 -7 -56 -23 -75 -36
-19 -12 -53 -27 -75 -34 -22 -7 -50 -21 -61 -32 -12 -11 -43 -26 -70 -34 -27
-8 -65 -25 -86 -39 -20 -13 -49 -27 -65 -31 -15 -4 -50 -19 -78 -34 -27 -15
-63 -31 -80 -34 -16 -4 -47 -18 -67 -31 -20 -14 -58 -30 -85 -36 -26 -6 -71
-25 -99 -40 -28 -16 -58 -29 -66 -29 -8 0 -45 -16 -84 -35 -38 -19 -78 -35
-90 -35 -12 0 -45 -13 -75 -28 -30 -16 -76 -34 -102 -41 -27 -6 -70 -23 -95
-36 -26 -13 -65 -27 -87 -31 -22 -4 -67 -19 -100 -35 -33 -15 -78 -31 -100
-35 -22 -4 -61 -17 -87 -30 -26 -14 -78 -31 -115 -39 -38 -7 -89 -23 -114 -34
-25 -11 -76 -28 -113 -36 -36 -9 -83 -24 -104 -35 -20 -10 -65 -24 -99 -30
-34 -6 -88 -22 -120 -36 -32 -15 -87 -30 -123 -35 -36 -5 -90 -20 -120 -33
-30 -14 -90 -29 -133 -35 -43 -6 -95 -20 -117 -31 -21 -11 -86 -26 -142 -34
-57 -8 -125 -24 -150 -35 -26 -11 -95 -26 -155 -35 -59 -8 -125 -22 -145 -30
-21 -9 -88 -23 -150 -31 -62 -8 -158 -26 -213 -40 -55 -13 -163 -31 -240 -39
-77 -8 -183 -24 -235 -35 -52 -11 -167 -25 -255 -31 -88 -7 -206 -20 -263 -31
-56 -10 -191 -23 -300 -29 -108 -5 -291 -15 -407 -21 -674 -35 -772 -36 -1240
-9 -192 11 -429 24 -526 30 -96 5 -237 19 -312 30 -75 11 -201 24 -279 30
-150 11 -226 22 -318 45 -30 8 -112 19 -182 25 -70 6 -160 19 -202 30 -41 11
-141 29 -223 39 -81 11 -164 26 -184 35 -19 8 -87 22 -150 31 -63 10 -145 27
-184 40 -38 12 -101 26 -140 30 -38 4 -108 19 -155 35 -47 15 -112 31 -145 35
-33 4 -89 18 -124 31 -35 13 -93 29 -128 34 -36 6 -92 22 -125 36 -33 14 -85
30 -116 35 -31 6 -73 19 -93 29 -20 11 -67 26 -105 35 -38 8 -96 26 -129 40
-33 13 -84 29 -113 35 -30 5 -72 21 -95 34 -23 13 -62 27 -87 31 -25 4 -63 17
-85 30 -23 13 -70 31 -105 40 -35 9 -83 28 -106 41 -22 13 -50 24 -60 24 -11
0 -51 16 -90 35 -38 19 -76 35 -85 35 -10 0 -41 13 -71 29 -30 15 -78 34 -106
41 -29 6 -63 21 -76 31 -14 11 -50 28 -80 39 -30 10 -66 26 -80 35 -14 9 -45
21 -68 27 -24 5 -59 20 -79 33 -20 13 -62 31 -92 40 -30 9 -61 22 -67 30 -6 8
-40 23 -75 35 -35 12 -69 28 -76 36 -6 8 -35 21 -65 30 -29 8 -64 24 -79 36
-14 11 -46 26 -71 34 -24 7 -59 24 -77 37 -17 14 -45 27 -62 31 -16 4 -47 19
-69 32 -21 14 -59 32 -85 40 -26 7 -56 23 -65 33 -10 11 -30 23 -46 26 -15 3
-51 22 -81 40 -29 19 -61 35 -70 35 -10 0 -30 11 -46 24 -16 14 -54 36 -85 49
-30 14 -59 30 -62 36 -4 6 -24 18 -44 27 -20 8 -46 24 -57 34 -11 10 -36 26
-55 34 -19 8 -50 26 -69 40 -19 14 -40 26 -47 26 -6 0 -31 16 -55 35 -24 19
-49 35 -56 35 -7 0 -27 13 -45 29 -18 15 -43 32 -56 36 -13 4 -38 19 -55 34
-18 16 -49 34 -69 40 -21 7 -44 21 -51 32 -8 10 -29 25 -49 33 -19 8 -41 22
-48 31 -8 9 -34 28 -59 41 -47 25 -85 51 -157 104 -23 16 -46 30 -52 30 -7 0
-29 16 -51 35 -21 19 -43 35 -49 35 -5 0 -28 15 -51 33 -22 17 -59 46 -81 62
-23 17 -60 46 -84 65 -24 19 -56 43 -72 53 -33 20 -83 54 -134 92 -19 15 -60
44 -90 65 -59 42 -86 63 -273 208 -69 53 -270 222 -315 263 -31 29 -195 174
-327 289 -71 62 -141 125 -156 139 -14 14 -74 71 -134 126 -154 142 -359 348
-614 621 -41 43 -98 104 -126 134 -29 30 -103 114 -164 185 -61 72 -127 146
-145 165 -46 49 -164 188 -208 246 -70 93 -99 129 -163 207 -36 43 -70 88 -76
100 -7 12 -24 37 -38 54 -14 18 -42 53 -61 78 -19 25 -46 60 -60 78 -14 17
-39 52 -55 76 -63 92 -81 117 -97 136 -27 31 -64 86 -94 138 -15 26 -31 47
-35 47 -5 0 -17 17 -28 38 -11 21 -27 45 -36 52 -9 8 -28 34 -41 59 -28 53
-62 103 -98 147 -13 16 -32 49 -41 72 -10 23 -21 42 -26 42 -5 0 -20 21 -34
48 -14 26 -36 61 -48 78 -22 32 -39 59 -87 139 -14 23 -35 54 -48 70 -12 15
-22 33 -22 41 0 7 -11 25 -24 41 -14 16 -36 55 -50 86 -14 31 -29 57 -34 57
-5 0 -20 25 -32 55 -12 30 -28 60 -36 66 -8 7 -24 34 -35 60 -12 27 -27 53
-35 59 -7 7 -18 28 -25 48 -7 20 -24 55 -39 77 -15 22 -32 56 -39 76 -6 20
-20 44 -30 54 -11 9 -22 29 -26 43 -3 15 -21 52 -39 82 -19 30 -37 66 -41 80
-4 14 -16 36 -26 49 -18 22 -26 61 -13 61 5 0 110 -88 214 -180 74 -66 258
-214 340 -275 23 -16 61 -47 86 -67 25 -21 49 -38 53 -38 4 0 16 -8 27 -19 11
-10 38 -31 60 -45 93 -64 138 -95 143 -103 3 -4 40 -30 81 -57 41 -27 86 -57
100 -67 14 -11 41 -28 61 -38 20 -11 50 -31 66 -45 16 -14 41 -28 55 -31 14
-4 36 -17 49 -31 12 -13 38 -29 58 -35 20 -7 50 -22 66 -34 17 -13 50 -33 74
-46 24 -13 73 -41 110 -61 36 -20 82 -44 101 -52 19 -9 49 -23 65 -32 53 -30
78 -42 170 -84 50 -23 112 -53 140 -67 27 -14 72 -32 100 -40 27 -8 57 -22 67
-30 9 -8 42 -21 74 -30 32 -8 77 -25 99 -38 22 -12 65 -28 95 -35 30 -7 75
-23 100 -35 25 -12 69 -28 98 -34 29 -6 71 -20 93 -32 23 -11 75 -27 116 -35
41 -8 96 -23 120 -34 25 -11 85 -27 134 -35 49 -9 109 -24 134 -35 25 -11 98
-26 163 -34 64 -8 151 -24 192 -35 41 -11 158 -27 260 -36 102 -9 223 -23 270
-30 136 -23 433 -35 885 -35 465 1 737 11 865 35 47 9 177 22 289 30 112 9
247 24 300 35 53 11 152 27 221 35 69 8 148 22 175 30 28 9 115 25 194 35 79
11 174 29 210 41 36 11 109 27 161 34 52 8 118 24 147 35 28 10 82 24 120 30
37 6 109 24 158 39 50 16 112 32 140 36 27 4 65 15 85 25 19 10 76 27 125 38
50 11 113 29 140 40 28 11 79 25 114 32 36 6 85 22 111 35 25 13 68 26 95 30
28 4 75 18 105 31 30 13 85 30 123 39 37 8 85 24 106 35 21 10 70 26 109 34
39 8 82 22 96 32 15 9 57 23 94 31 37 7 87 24 112 37 25 13 64 26 88 30 23 3
71 20 105 36 34 16 84 34 112 40 27 6 63 20 80 30 17 11 59 26 93 34 34 8 77
23 95 35 18 11 58 26 88 32 30 6 73 22 96 35 23 13 65 29 95 35 29 6 67 20 84
30 17 10 60 26 95 35 35 9 84 26 109 39 25 12 68 28 95 34 28 7 64 21 80 31
17 10 53 24 80 31 28 6 70 22 95 34 25 13 65 28 90 35 25 7 65 22 90 35 25 12
68 30 95 38 28 9 72 27 99 41 27 14 57 26 65 26 9 0 41 13 72 30 31 16 78 34
105 40 27 6 61 19 75 30 15 10 54 26 86 34 33 9 80 27 104 40 24 13 65 29 91
35 26 6 62 20 80 30 18 11 56 25 83 32 28 7 74 25 104 41 30 15 60 28 69 28 8
0 49 16 92 35 43 19 86 35 96 35 11 0 39 12 64 26 25 15 76 35 114 46 38 10
82 28 97 39 15 10 51 24 79 29 29 6 67 19 85 30 17 11 56 25 86 31 30 6 75 22
100 35 25 12 74 30 110 39 35 9 78 25 94 35 17 10 59 26 94 35 36 9 81 25 100
34 20 10 60 24 89 31 30 7 73 23 95 35 23 13 69 29 102 35 33 7 76 21 96 31
20 10 66 25 103 33 36 9 84 25 105 35 21 11 68 27 105 35 36 9 84 25 105 35
21 11 68 27 105 35 36 9 83 24 104 35 21 10 67 25 102 32 36 6 86 22 111 35
25 12 74 28 109 34 35 6 84 22 109 35 25 12 71 26 101 30 30 4 82 18 114 32
33 13 92 31 133 39 40 7 90 22 111 33 22 11 78 27 126 36 47 9 105 25 129 35
23 10 80 25 127 33 47 9 108 25 137 36 29 11 96 27 150 35 54 8 115 22 136 31
21 8 86 22 144 31 125 17 139 20 218 44 33 10 114 24 179 30 65 7 151 20 190
31 39 10 127 24 196 29 69 6 186 22 260 35 171 30 195 33 420 45 102 6 248 17
325 25 77 8 172 17 210 19 39 2 318 2 620 0 420 -2 578 -6 670 -18z"/>
  </g>
</svg>