<svg xmlns="http://www.w3.org/2000/svg" viewBox="0 0 4096.000000 4096.000000">
  <g transform="translate(0.000000,4096.000000) scale(0.100000,-0.100000)" fill="#f4f5f7" stroke="#f4f5f7" stroke-width="40" stroke-linejoin="round" stroke-linecap="round">
    <path d="M19690 36109 c-528 -10 -963 -29 -1375 -60 -71 -5 -265 -18 -430 -29
-310 -20 -422 -30 -610 -55 -60 -8 -198 -24 -305 -35 -107 -11 -296 -33 -420
-50 -124 -16 -279 -36 -345 -45 -212 -28 -237 -32 -395 -59 -131 -24 -378 -72
-1010 -197 -58 -12 -179 -39 -270 -61 -91 -22 -199 -48 -240 -58 -158 -38
-501 -129 -795 -210 -82 -23 -179 -50 -215 -60 -136 -36 -642 -196 -715 -226
-33 -13 -63 -24 -67 -24 -4 0 -99 -34 -210 -76 -112 -42 -255 -95 -318 -118
-167 -62 -507 -194 -565 -221 -27 -12 -60 -26 -73 -29 -13 -4 -67 -28 -120
-53 -53 -25 -151 -69 -217 -98 -134 -59 -333 -153 -535 -254 -253 -126 -419
-224 -650 -379 -102 -69 -212 -145 -245 -169 -181 -131 -253 -184 -283 -205
-50 -35 -138 -105 -243 -193 -52 -44 -115 -96 -139 -115 -105 -84 -344 -299
-555 -500 -55 -52 -217 -196 -360 -320 -142 -124 -304 -266 -359 -316 -56 -51
-139 -122 -186 -160 -47 -37 -163 -133 -259 -213 -185 -156 -228 -190 -529
-419 -332 -253 -346 -264 -402 -311 -30 -26 -107 -85 -170 -131 -219 -160
-345 -255 -455 -340 -227 -178 -446 -340 -618 -460 -23 -16 -190 -141 -367
-275 -88 -67 -291 -215 -413 -302 -18 -13 -46 -33 -63 -45 -17 -13 -60 -43
-94 -68 -34 -25 -75 -54 -90 -65 -51 -37 -152 -110 -174 -125 -22 -16 -232
-172 -395 -294 -52 -39 -119 -89 -150 -110 -31 -22 -94 -68 -141 -102 -47 -35
-98 -72 -115 -84 -207 -147 -474 -352 -620 -474 -254 -214 -456 -401 -583
-541 -79 -86 -234 -276 -298 -365 -127 -177 -290 -462 -363 -635 -117 -279
-161 -454 -192 -760 -16 -165 -6 -582 20 -780 24 -180 38 -244 89 -395 67
-197 159 -401 244 -540 44 -74 147 -220 212 -302 146 -186 399 -443 696 -707
97 -87 392 -325 492 -397 24 -17 104 -76 178 -131 218 -162 608 -420 790 -523
41 -24 102 -59 135 -78 275 -161 652 -362 906 -485 215 -104 230 -111 350
-165 35 -16 93 -43 129 -60 352 -164 510 -232 905 -383 44 -17 107 -41 140
-54 96 -37 179 -67 525 -189 179 -63 386 -136 460 -164 166 -61 480 -166 660
-222 74 -23 225 -71 335 -107 219 -71 615 -181 1160 -324 305 -79 739 -185
1110 -269 72 -17 152 -40 178 -52 27 -12 62 -39 78 -59 41 -52 103 -188 361
-789 27 -63 83 -212 125 -330 41 -118 86 -244 98 -280 61 -170 219 -664 265
-825 86 -300 120 -425 144 -535 13 -58 43 -186 65 -285 38 -166 78 -363 102
-509 6 -32 7 -71 4 -86 -11 -49 -55 -84 -155 -122 -52 -20 -126 -46 -165 -58
-79 -24 -479 -172 -540 -200 -36 -16 -200 -84 -603 -251 -78 -33 -243 -106
-365 -163 -517 -241 -685 -331 -1182 -630 -316 -190 -446 -275 -635 -414 -63
-47 -134 -99 -158 -116 -125 -89 -330 -272 -514 -457 -190 -192 -405 -431
-499 -554 -21 -27 -57 -75 -80 -105 -144 -186 -331 -518 -433 -769 -43 -107
-107 -346 -138 -520 -24 -134 -30 -205 -34 -371 -6 -216 3 -323 45 -560 46
-256 149 -569 255 -773 90 -172 230 -407 314 -525 15 -22 42 -61 61 -88 81
-114 268 -331 426 -493 154 -157 390 -369 520 -467 28 -20 86 -65 130 -98 44
-34 90 -68 102 -76 12 -8 67 -49 123 -90 56 -41 141 -101 188 -132 151 -100
448 -276 687 -408 33 -18 94 -52 135 -75 121 -68 501 -255 690 -339 483 -216
656 -285 1250 -496 91 -32 210 -75 265 -95 164 -60 590 -190 944 -290 260 -73
793 -206 981 -245 80 -17 192 -41 250 -55 103 -24 229 -49 605 -120 105 -20
234 -45 288 -56 53 -11 166 -30 250 -44 83 -14 217 -36 297 -50 80 -13 242
-38 360 -55 118 -17 258 -37 310 -45 52 -8 136 -20 185 -25 50 -5 209 -26 355
-45 146 -19 366 -44 490 -55 124 -12 232 -23 240 -25 8 -3 107 -14 220 -25
187 -18 329 -30 755 -60 83 -6 195 -15 250 -21 205 -20 612 -40 1210 -60 238
-7 656 -10 1235 -6 1159 7 1707 27 2350 87 58 5 170 14 250 20 323 22 942 88
1265 135 94 14 242 34 330 45 88 11 228 31 310 45 83 13 224 36 315 50 91 15
210 36 265 47 55 11 186 35 290 53 258 45 489 89 680 130 88 19 189 39 225 45
90 15 647 145 885 206 157 41 886 250 1100 316 240 74 620 203 820 279 143 55
379 149 435 174 30 13 89 38 130 56 41 17 107 47 147 65 40 19 74 34 77 34 8
0 673 331 841 419 255 134 566 305 645 356 290 187 380 250 621 434 239 183
432 354 657 581 61 62 193 217 282 330 151 194 351 512 459 729 55 112 131
299 172 425 41 123 85 309 113 471 8 50 20 158 26 240 9 122 8 180 -4 310 -17
178 -68 446 -120 630 -45 162 -132 385 -207 530 -130 253 -265 456 -532 794
-215 274 -606 654 -917 892 -113 86 -412 287 -570 383 -25 15 -90 54 -145 88
-203 124 -642 355 -771 407 -27 10 -123 54 -214 96 -179 83 -525 235 -534 235
-4 0 -25 9 -49 20 -74 34 -478 176 -887 312 -406 134 -388 127 -426 164 -30
27 -34 38 -34 81 0 110 221 1114 294 1334 8 24 28 98 45 164 17 66 56 203 86
305 31 102 68 230 84 285 50 176 121 392 232 700 283 788 318 864 422 917 22
11 79 28 126 38 47 10 145 31 216 48 72 17 186 43 255 58 69 15 222 52 340 82
232 59 260 66 510 135 91 25 300 82 465 128 387 106 447 123 705 202 354 109
767 250 1005 344 85 34 162 61 385 138 181 62 405 144 510 185 58 23 134 52
170 65 114 41 531 205 640 252 58 25 173 76 255 113 83 37 222 100 310 140
154 69 568 273 785 388 58 30 161 87 230 127 69 39 148 84 175 99 74 42 169
97 228 133 29 18 65 39 81 48 40 24 285 196 391 277 93 70 236 184 372 297
157 130 423 384 600 572 99 107 198 214 218 239 20 25 54 66 76 92 66 76 227
295 301 408 83 126 201 364 256 515 77 212 112 395 133 698 13 186 6 438 -16
577 -24 147 -79 361 -135 518 -84 240 -245 550 -406 782 -128 185 -329 429
-448 544 -156 150 -330 299 -506 432 -102 76 -195 146 -207 154 -12 8 -83 60
-158 115 -149 109 -216 157 -315 226 -278 195 -489 347 -564 405 -48 38 -145
115 -216 170 -150 119 -218 170 -434 325 -87 63 -171 123 -186 134 -15 11 -40
29 -56 40 -31 22 -380 286 -534 404 -140 108 -429 326 -530 401 -210 156 -407
307 -565 435 -62 50 -159 126 -216 170 -57 44 -158 125 -225 180 -142 117
-620 490 -1037 808 -205 157 -342 283 -741 681 -232 232 -466 457 -520 501
-55 44 -131 107 -170 140 -120 102 -214 176 -386 301 -208 153 -227 165 -385
259 -71 43 -150 90 -175 106 -79 48 -907 459 -926 459 -3 0 -29 11 -57 24
-189 89 -596 253 -872 353 -524 190 -1021 356 -1325 444 -379 109 -541 154
-650 179 -63 15 -250 61 -415 103 -165 41 -320 78 -345 82 -25 4 -92 18 -150
32 -58 13 -159 35 -225 48 -66 13 -186 37 -266 54 -80 17 -193 37 -250 46 -57
8 -183 29 -279 45 -488 83 -882 139 -1130 160 -69 6 -136 13 -150 15 -43 8
-325 33 -555 50 -121 8 -301 22 -400 30 -508 41 -964 62 -1675 75 -562 11
-906 11 -1510 -1z m1845 -1894 c1141 -45 1136 -44 1785 -100 417 -35 699 -63
778 -75 37 -6 154 -22 261 -36 177 -22 259 -35 596 -95 61 -10 155 -26 210
-34 55 -9 127 -22 160 -30 33 -8 116 -24 185 -35 193 -32 628 -117 795 -157
83 -19 238 -58 345 -85 107 -27 220 -56 250 -63 149 -37 706 -204 950 -285
528 -176 773 -264 955 -343 481 -208 633 -269 808 -322 126 -38 184 -66 263
-126 118 -91 308 -233 331 -249 11 -8 65 -46 120 -84 54 -39 121 -86 148 -105
359 -251 521 -378 649 -511 47 -49 101 -113 119 -142 123 -192 213 -480 238
-762 14 -157 2 -290 -36 -390 -49 -130 -156 -308 -266 -441 -65 -80 -216 -229
-334 -331 -124 -108 -336 -263 -505 -370 -353 -224 -478 -295 -780 -442 -408
-199 -567 -266 -1203 -501 -457 -170 -935 -314 -1487 -449 -328 -80 -576 -137
-740 -167 -74 -14 -174 -34 -221 -45 -48 -11 -138 -27 -200 -36 -63 -8 -177
-28 -254 -44 -77 -15 -221 -40 -320 -54 -99 -14 -214 -31 -255 -37 -41 -6 -91
-14 -110 -19 -19 -5 -114 -18 -210 -30 -96 -11 -238 -29 -315 -40 -121 -17
-381 -49 -525 -65 -25 -3 -135 -12 -245 -20 -110 -9 -263 -22 -340 -30 -153
-15 -510 -37 -1010 -60 -536 -26 -1513 -38 -2110 -26 -291 6 -611 15 -710 21
-99 6 -353 17 -565 26 -212 8 -446 21 -520 29 -213 23 -329 33 -570 50 -232
16 -382 31 -644 65 -83 10 -239 28 -346 40 -107 11 -267 32 -355 45 -88 14
-203 29 -255 35 -102 11 -256 37 -410 69 -52 11 -158 29 -235 41 -151 23 -562
102 -790 151 -77 17 -180 39 -230 49 -49 10 -128 28 -175 39 -47 12 -215 53
-375 92 -159 39 -300 75 -313 80 -12 5 -75 22 -140 40 -64 17 -184 51 -267 76
-182 54 -650 211 -795 265 -159 60 -428 167 -488 194 -29 13 -56 24 -61 24
-13 0 -317 132 -466 203 -169 81 -345 174 -470 250 -167 102 -405 257 -490
321 -202 151 -463 401 -611 585 -140 176 -245 409 -274 609 -17 115 -8 457 14
535 35 126 137 306 259 457 34 41 104 118 157 170 113 112 344 313 450 391
114 84 322 218 453 293 190 109 232 131 417 225 172 87 642 311 653 311 3 0
79 34 169 76 90 42 204 92 253 112 170 66 730 259 850 293 39 11 93 29 122 39
157 58 877 253 1358 369 138 33 625 126 835 160 69 11 186 32 260 46 147 27
392 64 795 120 143 20 305 42 360 50 125 18 596 68 895 94 443 40 638 52 1340
81 590 25 582 25 1395 28 448 1 793 -3 1040 -13z m-13733 -4592 c15 -16 38
-53 52 -83 24 -54 130 -255 175 -335 44 -76 204 -310 315 -459 148 -198 236
-299 425 -486 312 -310 630 -560 1011 -795 52 -32 111 -68 130 -80 80 -50 286
-168 445 -255 94 -51 175 -96 180 -100 18 -14 367 -187 475 -235 58 -26 161
-71 230 -100 69 -29 199 -86 290 -125 210 -91 344 -143 685 -266 217 -79 308
-109 485 -162 335 -101 396 -118 725 -202 105 -27 316 -81 470 -121 154 -39
330 -82 392 -94 62 -13 136 -30 165 -38 52 -15 256 -57 573 -116 377 -71 565
-104 720 -125 61 -8 202 -28 315 -45 113 -16 248 -34 300 -40 52 -6 203 -24
335 -41 132 -16 337 -36 455 -45 118 -8 283 -22 365 -30 174 -17 513 -41 770
-55 99 -5 212 -12 250 -15 154 -10 250 -15 480 -25 132 -6 303 -15 380 -20 77
-5 336 -15 575 -21 455 -11 1322 -5 1610 11 91 5 257 14 370 20 540 28 1317
73 1450 85 36 3 88 8 115 10 28 2 127 11 220 19 94 8 237 20 318 26 81 6 189
17 240 25 51 7 191 25 312 40 200 24 320 40 765 105 80 11 206 32 280 45 74
13 191 34 260 45 238 39 596 109 875 170 102 23 554 140 635 165 25 8 135 37
245 64 236 60 425 110 435 116 4 2 58 18 121 35 203 55 662 210 944 320 44 17
105 40 135 51 50 18 163 66 635 271 362 158 748 365 1135 610 91 57 200 126
243 153 44 28 94 61 112 75 19 14 77 57 131 95 216 155 534 427 700 596 136
140 253 277 371 434 200 266 292 418 436 714 49 102 102 198 115 214 15 16 36
27 51 27 33 0 74 -25 186 -114 49 -40 135 -106 190 -147 287 -216 254 -191
451 -344 71 -55 147 -114 168 -130 22 -17 62 -48 91 -70 193 -150 829 -625
900 -672 22 -14 99 -70 170 -123 72 -53 184 -135 250 -182 66 -47 155 -112
197 -144 42 -33 102 -77 134 -99 53 -38 80 -57 164 -120 218 -163 325 -247
437 -342 56 -47 287 -220 353 -265 207 -140 362 -251 437 -313 33 -27 92 -75
129 -105 203 -163 419 -386 519 -536 76 -114 159 -279 189 -374 46 -143 59
-232 53 -359 -5 -127 -22 -203 -68 -300 -40 -86 -99 -167 -205 -281 -78 -85
-267 -259 -373 -345 -20 -16 -115 -97 -212 -180 -356 -304 -512 -416 -877
-632 -73 -43 -204 -121 -290 -174 -227 -138 -358 -212 -501 -284 -151 -76
-880 -425 -887 -425 -3 0 -53 -23 -112 -51 -59 -28 -138 -64 -177 -79 -38 -15
-108 -45 -155 -65 -47 -20 -155 -64 -240 -98 -85 -33 -189 -73 -230 -89 -110
-43 -263 -98 -550 -198 -140 -49 -311 -109 -380 -135 -285 -107 -548 -186
-1155 -350 -93 -26 -233 -64 -310 -85 -187 -52 -515 -128 -975 -226 -69 -14
-197 -44 -285 -65 -88 -21 -207 -47 -265 -59 -58 -11 -139 -29 -180 -40 -41
-11 -145 -31 -230 -45 -85 -14 -172 -30 -192 -36 -36 -9 -135 -28 -398 -74
-74 -13 -182 -33 -240 -44 -58 -11 -161 -27 -230 -36 -69 -8 -141 -20 -160
-25 -32 -9 -282 -45 -575 -85 -66 -9 -165 -25 -220 -35 -55 -11 -158 -27 -230
-35 -71 -8 -224 -28 -340 -45 -115 -16 -354 -45 -530 -65 -176 -19 -329 -37
-340 -40 -20 -4 -325 -35 -555 -55 -69 -6 -215 -22 -325 -35 -229 -28 -571
-61 -725 -70 -58 -3 -224 -15 -370 -25 -334 -24 -560 -37 -870 -50 -135 -6
-353 -15 -485 -20 -664 -27 -1028 -33 -2365 -34 -1225 -1 -1494 2 -1835 17
-220 9 -503 22 -630 27 -663 29 -660 29 -1095 64 -102 8 -232 17 -290 21 -96
6 -406 32 -655 55 -56 5 -175 18 -265 29 -91 11 -203 22 -250 26 -95 7 -238
24 -475 54 -88 11 -257 30 -375 41 -118 12 -282 29 -365 39 -82 10 -231 28
-330 40 -99 12 -277 38 -396 57 -119 19 -263 41 -320 48 -140 19 -616 98 -814
136 -88 16 -236 43 -330 60 -93 16 -280 52 -415 79 -669 135 -807 164 -1125
242 -88 21 -218 52 -290 69 -121 28 -213 51 -625 159 -85 22 -238 65 -340 96
-102 31 -227 67 -279 81 -139 37 -456 131 -536 158 -38 13 -218 72 -400 131
-535 174 -714 237 -1065 373 -157 61 -465 190 -665 280 -537 240 -723 327
-955 445 -297 152 -451 235 -620 337 -80 47 -201 119 -270 160 -194 113 -448
276 -569 364 -339 246 -515 393 -702 583 -142 145 -211 227 -297 355 -57 83
-110 205 -122 281 -15 87 -8 285 14 372 45 182 147 378 279 534 107 126 310
333 417 426 52 46 111 97 130 115 65 59 284 226 591 450 132 96 482 356 531
394 15 12 46 35 70 52 131 94 635 473 813 612 28 22 131 99 230 173 99 73 207
156 240 184 33 28 130 103 215 166 243 181 421 312 470 347 118 83 225 162
295 217 187 146 250 194 410 314 94 70 193 142 220 159 63 40 103 41 137 5z
m5423 -10739 c121 -14 308 -38 415 -54 107 -16 256 -36 330 -45 266 -30 298
-34 490 -59 107 -14 260 -30 340 -36 80 -6 213 -18 295 -26 979 -96 1496 -136
1985 -154 277 -10 305 -12 725 -35 143 -8 325 -17 405 -20 80 -3 222 -10 315
-15 353 -20 1537 -33 2365 -27 1168 9 1878 27 2375 62 116 8 338 19 495 25
305 12 446 20 715 45 94 8 235 20 315 25 80 6 226 17 325 25 99 9 293 24 430
35 138 11 306 27 375 34 69 8 193 20 275 26 83 6 215 20 295 31 80 11 237 31
350 44 113 14 250 31 305 39 267 37 633 87 747 101 96 12 136 14 166 5 68 -18
68 -52 6 -226 -82 -229 -163 -472 -274 -819 -135 -423 -147 -465 -263 -905
-93 -356 -170 -736 -222 -1099 -20 -135 -42 -284 -50 -331 -14 -82 -55 -475
-76 -725 -21 -250 -27 -733 -18 -1395 10 -731 7 -817 -37 -950 -66 -197 -224
-344 -583 -540 -73 -40 -189 -99 -257 -131 -327 -155 -901 -369 -1259 -468
-134 -37 -567 -145 -650 -161 -33 -7 -92 -21 -132 -31 -40 -10 -152 -32 -250
-49 -98 -17 -234 -41 -303 -55 -69 -13 -177 -32 -240 -40 -63 -9 -175 -27
-247 -41 -130 -23 -258 -41 -498 -69 -66 -8 -178 -21 -250 -29 -181 -21 -438
-44 -645 -55 -527 -31 -679 -35 -1210 -35 -424 0 -711 6 -1090 22 -283 12
-558 26 -610 32 -253 25 -307 31 -465 50 -93 11 -249 29 -345 40 -154 18 -297
38 -675 94 -55 8 -167 28 -250 44 -82 16 -197 37 -255 47 -137 22 -459 96
-630 145 -74 21 -151 41 -170 45 -124 24 -725 219 -960 312 -433 170 -627 265
-855 416 -178 119 -216 149 -318 250 -96 95 -151 169 -187 250 -34 77 -44 198
-31 412 20 364 22 413 22 885 0 291 -6 599 -16 795 -16 332 -38 622 -54 741
-6 38 -21 168 -35 289 -14 121 -32 256 -40 300 -9 44 -25 143 -37 220 -11 77
-31 185 -44 240 -13 55 -33 152 -45 215 -47 252 -202 855 -334 1300 -24 83
-109 336 -240 717 -39 115 -66 208 -66 233 0 37 3 42 33 55 17 8 48 12 67 9
19 -2 134 -16 255 -30z m-1274 -5273 c28 -22 26 31 19 -666 -4 -371 -2 -411
18 -555 26 -183 50 -290 97 -422 65 -186 131 -317 253 -503 107 -162 388 -460
567 -602 183 -145 429 -325 505 -370 41 -25 98 -59 125 -76 185 -114 514 -281
735 -373 30 -12 105 -43 165 -69 211 -89 273 -111 655 -234 156 -50 329 -100
630 -184 271 -76 409 -110 570 -143 63 -13 162 -35 220 -49 117 -27 554 -111
785 -151 160 -27 511 -79 635 -94 329 -40 559 -63 825 -85 171 -14 360 -29
420 -35 61 -5 247 -14 415 -21 364 -14 1854 -7 2120 10 226 14 744 57 930 77
80 8 237 28 350 44 113 16 246 33 295 39 50 6 126 18 170 26 44 8 159 28 255
45 163 29 469 86 690 130 130 26 481 103 615 135 104 25 295 77 540 146 252
72 651 213 955 337 259 107 613 279 773 376 285 173 454 286 643 432 147 114
313 274 455 439 113 131 254 348 334 510 75 154 156 389 184 535 69 363 83
507 100 1026 7 213 10 246 27 275 32 54 64 51 255 -25 194 -77 333 -134 409
-169 30 -13 120 -54 200 -90 555 -249 1102 -546 1479 -802 82 -56 252 -176
321 -227 118 -86 256 -208 371 -324 172 -177 351 -388 437 -517 85 -128 156
-272 179 -365 20 -82 22 -258 4 -362 -25 -139 -95 -340 -177 -502 -75 -149
-253 -385 -428 -567 -126 -130 -407 -376 -526 -459 -25 -17 -79 -57 -120 -87
-234 -173 -531 -353 -870 -526 -294 -151 -922 -432 -1195 -534 -213 -80 -947
-317 -1100 -355 -38 -10 -194 -54 -345 -98 -151 -44 -378 -105 -505 -136 -126
-31 -291 -72 -365 -91 -74 -18 -188 -43 -253 -54 -65 -12 -144 -27 -175 -35
-31 -8 -124 -26 -207 -40 -82 -14 -206 -37 -275 -51 -69 -14 -179 -34 -245
-45 -66 -10 -174 -30 -240 -44 -66 -14 -210 -39 -320 -56 -110 -17 -240 -37
-290 -45 -155 -26 -286 -44 -400 -55 -60 -6 -168 -19 -240 -30 -150 -23 -257
-34 -515 -55 -102 -8 -232 -19 -290 -24 -58 -6 -141 -13 -185 -16 -44 -3 -145
-12 -225 -20 -216 -21 -664 -48 -1010 -60 -91 -3 -196 -8 -235 -11 -166 -11
-878 -24 -1320 -24 -475 0 -961 10 -1435 30 -135 5 -355 14 -490 20 -256 11
-509 27 -705 45 -27 3 -108 10 -180 15 -71 6 -152 13 -180 15 -27 3 -165 14
-305 25 -140 11 -293 25 -340 30 -47 5 -141 17 -210 25 -69 8 -190 22 -270 30
-80 9 -194 24 -255 35 -113 20 -391 63 -525 80 -41 6 -136 21 -210 35 -74 13
-182 31 -240 40 -58 9 -181 31 -275 50 -93 18 -244 45 -335 60 -91 15 -210 37
-265 50 -55 13 -120 26 -145 30 -54 9 -564 132 -740 179 -69 18 -240 66 -380
106 -140 40 -284 80 -320 90 -36 9 -103 29 -150 43 -47 14 -134 39 -195 56
-188 52 -541 172 -785 266 -52 20 -129 49 -170 65 -86 32 -488 202 -695 293
-268 118 -680 331 -928 479 -122 73 -466 302 -557 370 -159 119 -189 143 -320
258 -162 142 -254 235 -390 395 -176 206 -299 412 -364 609 -81 243 -65 442
55 691 47 99 155 265 236 365 113 139 313 332 578 556 187 159 690 508 936
650 69 39 160 93 201 118 105 63 570 299 828 418 118 55 250 118 292 139 103
52 369 167 438 190 30 10 65 18 76 18 12 1 32 -8 45 -18z"/>
  </g>
</svg>