<svg xmlns="http://www.w3.org/2000/svg" viewBox="0 0 4096.000000 4096.000000">
  <g transform="translate(0.000000,4096.000000) scale(0.100000,-0.100000)" fill="#f4f5f7" stroke="none">
    <path d="M19950 35639 c-146 -4 -438 -13 -650 -19 -212 -6 -450 -17 -530 -24
-80 -8 -233 -17 -340 -21 -107 -4 -251 -13 -320 -20 -69 -8 -222 -21 -340 -30
-118 -9 -260 -22 -315 -30 -55 -7 -138 -16 -185 -20 -79 -5 -215 -21 -515 -60
-66 -9 -178 -22 -250 -30 -71 -8 -149 -19 -172 -25 -23 -6 -103 -17 -177 -25
-74 -8 -163 -21 -198 -29 -35 -8 -92 -17 -128 -21 -36 -3 -108 -15 -160 -25
-52 -10 -122 -22 -155 -25 -33 -4 -96 -15 -140 -25 -44 -10 -111 -21 -150 -25
-38 -4 -88 -13 -110 -20 -22 -7 -79 -18 -126 -24 -48 -6 -109 -18 -135 -26
-27 -7 -86 -19 -132 -25 -45 -6 -100 -17 -122 -25 -22 -8 -68 -17 -102 -21
-35 -4 -81 -13 -102 -21 -22 -7 -71 -18 -110 -24 -39 -6 -91 -17 -116 -25 -25
-7 -79 -20 -120 -28 -80 -14 -180 -38 -270 -62 -30 -8 -91 -23 -135 -33 -149
-34 -220 -52 -285 -71 -36 -11 -91 -24 -123 -30 -32 -5 -68 -16 -80 -25 -12
-8 -34 -15 -49 -15 -15 0 -57 -11 -95 -24 -37 -13 -90 -28 -118 -34 -27 -6
-70 -17 -95 -25 -25 -8 -65 -20 -90 -27 -25 -6 -83 -23 -130 -37 -47 -13 -121
-35 -165 -48 -44 -13 -102 -31 -130 -40 -27 -9 -88 -27 -135 -41 -47 -14 -104
-34 -128 -45 -23 -10 -56 -19 -73 -19 -16 0 -44 -7 -62 -17 -18 -9 -61 -24
-97 -34 -75 -20 -148 -44 -205 -69 -22 -10 -56 -21 -75 -25 -19 -4 -51 -15
-70 -25 -19 -9 -52 -20 -74 -24 -21 -4 -57 -15 -80 -25 -22 -10 -63 -26 -91
-35 -27 -10 -79 -29 -115 -42 -36 -14 -87 -33 -115 -44 -102 -38 -183 -69
-282 -109 -56 -23 -107 -41 -112 -41 -6 0 -25 -9 -43 -20 -18 -11 -40 -20 -48
-20 -9 0 -34 -9 -55 -20 -22 -11 -53 -24 -70 -29 -47 -15 -179 -71 -189 -82
-6 -5 -17 -9 -27 -9 -9 0 -37 -11 -63 -25 -26 -14 -52 -25 -57 -25 -6 0 -40
-14 -77 -31 -37 -17 -85 -39 -107 -48 -22 -10 -65 -30 -95 -43 -30 -14 -75
-34 -100 -46 -25 -11 -70 -31 -100 -45 -30 -14 -89 -40 -130 -57 -79 -33 -603
-293 -775 -384 -55 -30 -137 -73 -182 -97 -46 -24 -104 -56 -130 -71 -27 -15
-66 -36 -88 -48 -22 -12 -62 -34 -90 -50 -27 -16 -68 -38 -90 -50 -54 -28
-122 -66 -166 -93 -40 -24 -193 -113 -237 -137 -15 -8 -41 -25 -59 -38 -17
-12 -35 -22 -41 -22 -5 0 -16 -7 -23 -17 -8 -9 -27 -22 -44 -30 -16 -8 -50
-27 -75 -43 -47 -30 -102 -64 -149 -90 -15 -9 -40 -26 -56 -38 -15 -12 -33
-22 -40 -22 -7 0 -19 -7 -26 -17 -8 -9 -27 -22 -44 -30 -16 -7 -50 -29 -75
-48 -25 -19 -52 -38 -60 -42 -8 -4 -88 -57 -178 -117 -90 -61 -189 -128 -220
-148 -77 -51 -209 -146 -426 -308 -191 -143 -233 -172 -281 -193 -52 -24 -59
-28 -107 -55 -27 -15 -130 -69 -230 -121 -101 -51 -205 -106 -233 -122 -27
-16 -68 -38 -90 -49 -22 -11 -60 -34 -85 -50 -25 -16 -63 -39 -85 -50 -22 -12
-59 -32 -82 -45 -24 -14 -62 -36 -85 -49 -95 -55 -135 -78 -173 -101 -22 -13
-58 -33 -80 -45 -22 -11 -60 -34 -85 -50 -25 -17 -58 -37 -75 -45 -16 -9 -50
-29 -75 -45 -25 -17 -60 -37 -79 -46 -18 -8 -45 -23 -60 -33 -14 -10 -42 -28
-61 -39 -104 -65 -211 -135 -254 -169 -28 -21 -64 -47 -82 -58 -39 -24 -154
-104 -209 -144 -39 -29 -156 -112 -199 -141 -24 -17 -152 -114 -254 -192 -72
-55 -329 -268 -374 -309 -14 -13 -35 -31 -45 -40 -146 -124 -329 -295 -518
-484 -82 -83 -170 -173 -194 -200 -25 -28 -74 -82 -110 -121 -147 -157 -322
-366 -389 -464 -9 -14 -38 -53 -63 -87 -26 -34 -90 -129 -144 -210 -54 -82
-105 -159 -115 -173 -17 -25 -72 -119 -122 -208 -14 -26 -54 -103 -88 -172
-34 -69 -66 -132 -71 -140 -5 -8 -16 -31 -24 -50 -8 -19 -24 -52 -35 -72 -11
-20 -20 -43 -20 -50 0 -7 -7 -26 -16 -43 -9 -16 -27 -57 -39 -90 -13 -33 -35
-91 -50 -130 -14 -38 -34 -97 -44 -130 -10 -33 -22 -69 -28 -80 -6 -11 -14
-40 -18 -65 -4 -25 -13 -56 -20 -70 -7 -14 -18 -52 -25 -85 -6 -33 -20 -89
-30 -125 -24 -87 -66 -320 -80 -450 -7 -58 -16 -143 -22 -190 -6 -47 -10 -209
-10 -360 0 -201 4 -301 15 -370 9 -52 21 -147 27 -210 6 -63 17 -135 25 -160
8 -25 17 -70 20 -100 4 -30 14 -80 22 -110 9 -30 24 -89 34 -130 31 -127 84
-302 119 -390 9 -25 23 -61 30 -80 41 -114 81 -216 110 -275 10 -22 32 -69 48
-105 39 -85 89 -187 110 -225 9 -16 39 -70 66 -120 27 -49 68 -119 91 -155 23
-36 45 -75 49 -86 3 -12 15 -29 26 -39 11 -10 20 -22 20 -26 0 -10 104 -167
178 -269 264 -361 460 -590 786 -915 155 -154 324 -316 376 -360 52 -43 102
-86 110 -95 20 -22 240 -204 261 -216 9 -5 38 -28 65 -51 46 -40 98 -81 242
-190 34 -26 86 -66 115 -88 28 -22 63 -48 77 -58 60 -41 98 -68 135 -96 32
-23 267 -183 435 -294 14 -9 50 -33 80 -53 30 -21 71 -47 90 -59 55 -34 109
-68 185 -117 39 -25 84 -53 100 -62 29 -16 71 -41 148 -88 21 -13 52 -30 69
-40 16 -9 37 -23 46 -31 9 -8 28 -18 42 -22 14 -4 34 -15 45 -25 11 -10 34
-25 50 -33 17 -9 48 -26 70 -37 22 -12 63 -35 90 -51 28 -16 68 -38 90 -50 22
-11 84 -43 137 -72 54 -29 195 -101 315 -161 237 -118 245 -121 271 -136 9 -5
33 -16 52 -25 19 -8 42 -19 50 -24 8 -6 47 -24 85 -41 39 -18 77 -36 85 -41 8
-5 22 -12 30 -16 46 -19 77 -34 90 -42 8 -5 40 -20 70 -34 30 -13 87 -39 125
-57 77 -35 158 -72 220 -100 22 -9 65 -29 95 -43 30 -14 66 -28 80 -32 14 -4
41 -16 60 -26 19 -11 42 -19 50 -19 8 0 29 -9 45 -20 17 -11 37 -20 45 -20 8
0 42 -14 75 -30 33 -16 67 -30 75 -30 8 0 29 -9 45 -20 17 -11 39 -20 50 -20
11 0 34 -9 52 -19 17 -11 46 -24 65 -29 18 -6 71 -27 118 -47 47 -20 108 -44
135 -52 28 -9 59 -22 70 -28 11 -7 36 -16 55 -20 19 -4 49 -16 66 -26 17 -10
40 -19 50 -19 11 0 43 -11 72 -25 30 -14 61 -25 70 -25 9 0 34 -9 57 -20 23
-11 64 -27 91 -34 27 -8 85 -28 129 -46 44 -17 104 -38 133 -45 29 -7 59 -18
65 -23 7 -6 35 -16 62 -23 28 -6 67 -20 87 -30 21 -11 46 -19 57 -19 12 0 49
-11 83 -24 35 -13 81 -28 103 -34 22 -6 60 -17 85 -25 25 -8 68 -23 95 -32 28
-9 73 -22 100 -29 28 -7 64 -20 80 -28 17 -8 50 -18 74 -22 24 -4 63 -15 87
-26 23 -11 49 -20 56 -20 7 0 49 -11 93 -24 44 -14 121 -36 170 -51 50 -14
110 -33 135 -41 25 -9 70 -21 100 -28 55 -13 103 -26 255 -72 44 -13 100 -27
125 -30 25 -4 54 -11 65 -17 11 -6 54 -19 95 -28 41 -10 95 -24 120 -32 57
-18 158 -44 235 -61 33 -7 83 -20 110 -29 28 -9 79 -21 115 -27 35 -7 72 -16
82 -21 10 -5 44 -14 75 -20 32 -5 85 -18 118 -29 33 -10 84 -22 114 -25 30 -4
68 -13 85 -20 17 -7 66 -18 110 -25 43 -6 97 -18 120 -26 22 -8 75 -19 116
-25 41 -5 80 -15 87 -22 10 -10 13 -324 13 -1592 0 -1260 -2 -1580 -12 -1587
-7 -4 -22 -8 -33 -8 -11 -1 -38 -8 -60 -16 -22 -9 -64 -22 -93 -29 -29 -7 -59
-18 -65 -23 -7 -6 -35 -16 -62 -23 -28 -7 -63 -21 -80 -31 -16 -10 -38 -18
-48 -18 -10 0 -40 -11 -67 -25 -27 -14 -55 -25 -62 -25 -7 0 -35 -12 -63 -25
-27 -14 -57 -25 -65 -25 -9 0 -25 -7 -38 -15 -12 -9 -41 -22 -64 -29 -47 -15
-129 -48 -193 -76 -22 -10 -74 -33 -115 -50 -100 -42 -163 -72 -220 -101 -8
-4 -46 -22 -85 -39 -65 -29 -84 -39 -125 -62 -8 -4 -26 -12 -40 -18 -14 -5
-32 -14 -40 -19 -8 -6 -53 -29 -100 -51 -149 -73 -382 -202 -560 -310 -49 -30
-110 -67 -140 -84 -14 -8 -65 -42 -115 -75 -49 -34 -115 -78 -145 -98 -30 -21
-80 -56 -110 -80 -30 -23 -72 -55 -93 -70 -21 -16 -52 -41 -70 -56 -18 -16
-48 -41 -67 -55 -104 -79 -217 -177 -313 -271 -146 -143 -338 -373 -432 -519
-82 -128 -109 -174 -154 -267 -70 -145 -88 -185 -96 -215 -4 -14 -13 -35 -21
-46 -7 -12 -20 -48 -28 -80 -8 -33 -21 -84 -30 -114 -25 -95 -57 -331 -56
-430 0 -100 31 -337 57 -430 8 -30 20 -80 27 -111 8 -30 19 -66 25 -78 7 -12
19 -44 26 -69 8 -26 24 -65 35 -87 11 -21 20 -44 20 -50 0 -5 16 -39 35 -75
19 -36 44 -84 56 -107 11 -23 27 -47 35 -54 8 -6 14 -15 14 -19 0 -8 107 -172
118 -180 4 -3 27 -32 52 -65 25 -33 47 -62 50 -65 3 -3 34 -39 70 -80 149
-174 455 -454 677 -621 140 -104 236 -174 269 -194 18 -11 59 -38 91 -59 32
-21 74 -49 93 -61 19 -12 49 -30 65 -41 17 -10 42 -25 57 -34 15 -8 54 -30 85
-49 54 -33 72 -42 163 -92 186 -102 237 -130 250 -134 16 -6 50 -23 85 -42 66
-37 432 -209 462 -217 11 -4 27 -13 33 -21 7 -8 19 -15 28 -15 14 0 110 -42
172 -75 14 -8 44 -20 65 -29 22 -8 72 -27 110 -41 39 -15 94 -36 124 -47 29
-10 63 -25 75 -33 11 -7 37 -16 56 -20 19 -4 45 -13 57 -21 11 -7 43 -19 70
-25 26 -7 59 -18 73 -25 14 -8 50 -22 80 -33 82 -28 119 -41 188 -67 34 -13
70 -24 80 -24 9 0 33 -8 52 -19 19 -10 55 -22 80 -26 25 -4 57 -14 72 -21 15
-8 53 -20 85 -28 33 -7 68 -18 78 -25 11 -6 47 -17 80 -25 33 -8 80 -21 105
-29 85 -29 215 -66 254 -72 21 -3 52 -12 70 -20 17 -7 58 -20 91 -29 33 -8 89
-22 125 -31 36 -9 94 -25 130 -35 193 -57 239 -69 285 -75 27 -4 65 -13 85
-20 19 -8 64 -19 100 -25 36 -7 79 -18 96 -25 17 -7 60 -16 95 -20 35 -4 88
-15 117 -26 29 -10 74 -21 100 -25 26 -3 79 -14 117 -25 39 -10 97 -21 130
-25 33 -4 77 -13 97 -20 21 -7 75 -18 120 -24 46 -6 106 -17 133 -25 28 -8 91
-19 140 -25 50 -6 114 -17 142 -26 29 -8 97 -19 151 -24 54 -5 111 -14 126
-20 15 -5 82 -17 149 -25 67 -8 138 -20 157 -26 19 -5 85 -16 145 -24 61 -7
153 -21 205 -29 154 -25 309 -47 405 -57 50 -6 135 -17 190 -25 55 -9 143 -20
195 -25 157 -15 282 -29 345 -38 33 -5 133 -14 222 -20 89 -6 185 -16 213 -21
28 -5 162 -17 298 -25 136 -9 272 -20 302 -25 30 -5 163 -13 295 -20 132 -6
287 -15 345 -20 152 -13 631 -29 1210 -40 316 -6 706 -5 1045 0 545 10 783 19
1240 45 138 8 300 15 360 15 61 0 160 7 220 15 61 8 198 19 305 25 107 6 267
20 355 30 88 11 212 22 275 25 63 4 171 15 240 25 69 10 170 21 225 25 55 3
131 13 169 21 38 8 122 19 185 24 64 5 148 16 186 24 39 8 120 20 180 26 61 6
133 17 160 25 28 7 88 17 135 20 47 4 112 13 145 21 33 8 94 19 135 24 70 9
167 25 380 65 47 9 112 21 145 26 33 6 94 17 135 26 41 8 102 20 135 25 33 5
98 18 145 28 47 11 117 24 155 30 39 5 88 16 110 23 22 8 67 17 100 21 33 4
81 14 106 22 25 8 82 21 125 29 43 7 108 21 144 30 36 9 83 21 105 26 22 5 69
16 105 25 36 9 85 20 110 26 25 6 83 22 130 35 47 13 112 30 145 38 33 8 89
24 125 35 36 11 90 26 120 34 30 8 96 26 145 41 50 14 117 33 151 40 33 8 80
23 105 34 24 12 55 21 69 21 14 0 38 7 55 16 16 8 52 20 80 26 27 6 62 17 77
24 15 8 53 20 85 28 32 8 72 21 88 30 17 9 39 16 50 16 11 0 40 10 65 21 25
12 65 27 90 34 25 7 74 25 110 38 36 14 88 33 115 43 28 9 75 28 106 41 31 12
64 23 72 23 9 0 31 9 49 19 18 10 48 22 67 26 19 4 48 16 65 26 17 10 39 19
48 19 10 0 44 12 75 26 32 14 76 34 98 44 22 10 71 32 109 49 37 17 73 31 78
31 5 0 21 9 35 20 14 11 32 20 40 20 14 0 131 51 163 71 8 5 26 14 40 20 83
36 184 86 315 155 33 18 96 51 140 74 44 23 98 52 120 65 22 12 60 34 85 49
51 29 129 74 168 96 15 9 41 24 57 34 17 11 46 29 65 41 48 30 146 95 184 123
36 26 87 62 133 94 35 26 104 78 162 123 22 17 53 41 71 55 149 116 328 274
443 394 128 132 271 308 362 446 62 94 58 88 129 214 63 112 100 193 121 266
7 25 20 59 29 75 9 17 16 37 16 46 0 9 11 51 25 93 14 42 25 91 25 109 0 18 9
74 20 126 27 129 27 326 0 481 -30 169 -61 295 -90 370 -10 25 -26 66 -35 92
-9 26 -21 50 -26 53 -5 4 -9 14 -9 23 -1 23 -88 195 -146 288 -10 16 -29 46
-40 65 -32 51 -97 136 -208 272 -93 116 -298 327 -417 429 -68 59 -276 227
-309 251 -33 23 -87 61 -130 92 -117 84 -178 125 -300 203 -116 74 -198 124
-230 140 -14 7 -47 26 -75 42 -27 16 -68 38 -90 50 -22 11 -80 43 -130 70 -79
44 -237 123 -390 196 -28 13 -55 24 -61 24 -6 0 -22 8 -35 19 -13 10 -38 22
-56 25 -17 4 -37 14 -44 22 -6 8 -31 19 -55 25 -24 6 -49 17 -55 25 -6 8 -17
14 -23 14 -6 0 -40 14 -76 31 -103 50 -143 67 -170 74 -14 4 -38 15 -55 25
-16 10 -45 21 -64 25 -19 4 -48 16 -65 26 -17 10 -38 19 -46 19 -8 0 -37 11
-65 25 -27 13 -56 25 -64 25 -8 0 -33 9 -55 19 -47 22 -139 56 -207 76 -26 7
-60 20 -77 29 -17 9 -38 16 -46 16 -9 0 -44 11 -78 24 -35 13 -76 28 -92 32
l-29 9 2 1570 c2 1458 3 1571 19 1587 11 10 62 24 137 37 118 20 159 30 340
77 50 13 99 24 111 24 11 0 45 8 75 19 30 10 77 21 104 25 28 4 77 15 110 26
33 10 89 26 125 35 217 53 337 85 390 102 25 8 74 21 110 28 36 7 81 20 100
28 19 8 58 18 85 22 28 4 62 14 77 21 15 8 59 21 98 29 39 8 84 22 100 30 16
8 38 15 50 15 18 0 77 17 225 65 28 9 79 23 114 31 35 8 75 21 90 28 14 8 53
19 85 25 32 6 64 15 70 20 6 5 34 15 61 21 28 7 73 20 100 30 72 27 141 49
215 70 36 10 83 26 105 34 22 8 51 15 65 16 14 0 42 9 62 20 21 11 57 23 80
26 24 4 59 15 78 24 19 9 57 23 85 29 27 7 55 17 61 22 7 5 34 16 60 24 80 23
176 56 220 76 22 11 46 19 52 19 6 0 40 11 74 24 35 13 79 29 98 36 39 14 79
29 355 135 39 15 88 33 110 41 22 9 58 24 81 35 22 10 47 19 55 19 8 0 28 9
46 19 17 11 46 24 65 29 18 6 71 27 118 47 47 20 102 43 123 50 21 8 48 21 60
30 12 8 28 15 36 15 13 0 32 8 172 74 31 14 60 26 64 26 4 0 33 12 64 26 61
29 99 46 206 94 137 62 180 82 195 91 8 5 22 12 30 15 43 17 248 113 270 126
8 4 31 15 50 24 19 9 131 64 248 122 117 59 225 113 240 120 15 7 34 17 42 23
8 5 29 16 45 23 30 14 276 148 305 166 8 5 71 41 140 80 69 39 145 84 170 100
25 16 59 37 76 47 17 10 53 31 80 46 27 15 69 41 94 57 25 16 59 35 75 43 17
8 36 21 44 30 7 10 18 17 23 17 6 0 24 10 41 23 17 12 39 27 48 32 9 6 29 19
45 29 16 11 58 38 94 61 67 43 77 49 170 112 30 20 79 52 109 72 29 20 67 46
85 59 17 12 47 33 66 47 19 13 67 47 105 75 69 49 108 78 172 122 47 34 138
105 223 173 41 34 82 66 91 71 9 5 36 26 60 46 24 20 89 74 144 120 55 45 105
87 110 94 6 6 57 51 114 99 169 144 510 477 693 676 143 156 365 430 493 609
30 41 61 84 70 95 9 11 23 32 33 46 9 15 38 58 63 95 102 154 183 284 229 367
8 16 55 108 104 205 49 97 97 193 107 213 11 20 19 42 19 49 0 7 11 36 24 64
36 78 67 157 77 199 5 20 18 54 29 75 11 20 20 45 20 54 0 10 11 46 24 80 13
35 29 83 36 108 6 25 18 70 26 100 8 30 23 84 34 120 10 36 22 90 26 120 3 30
13 73 21 95 7 21 18 85 24 140 5 55 17 136 27 180 15 69 17 138 17 490 -1 276
-5 430 -13 470 -6 33 -19 110 -27 170 -8 61 -21 130 -29 155 -8 25 -19 80 -25
123 -6 43 -16 87 -21 98 -6 10 -15 45 -21 76 -9 51 -40 160 -71 248 -5 17 -18
57 -28 90 -9 33 -25 74 -34 90 -9 17 -16 36 -16 43 0 7 -9 32 -19 55 -11 24
-23 56 -27 72 -4 17 -18 50 -31 74 -12 24 -23 50 -23 58 0 8 -9 31 -20 51 -10
20 -33 69 -50 107 -17 39 -36 77 -41 85 -5 8 -14 26 -19 40 -6 14 -15 34 -22
45 -7 11 -31 56 -53 100 -23 44 -49 94 -60 110 -47 77 -63 102 -81 129 -10 16
-23 36 -29 45 -5 9 -19 29 -30 46 -11 16 -24 37 -30 46 -10 16 -44 65 -87 125
-13 18 -41 58 -63 90 -22 32 -62 86 -90 121 -27 34 -70 90 -95 123 -25 34 -56
74 -70 89 -14 15 -68 77 -120 137 -155 177 -205 231 -360 389 -176 180 -396
389 -543 516 -104 90 -354 299 -407 339 -14 11 -65 53 -115 93 -49 40 -116 90
-149 112 -32 22 -71 49 -86 60 -15 11 -80 56 -145 100 -111 76 -137 94 -211
147 -55 40 -176 122 -209 143 -18 11 -46 29 -61 39 -119 79 -148 98 -177 111
-18 8 -52 28 -77 45 -25 16 -59 36 -76 44 -17 8 -35 19 -38 25 -4 6 -26 20
-49 31 -23 11 -60 31 -82 45 -22 13 -58 33 -80 45 -22 11 -60 33 -85 50 -25
16 -58 36 -75 44 -16 9 -52 29 -80 46 -27 16 -68 39 -90 50 -22 12 -65 37 -95
56 -30 19 -68 41 -85 49 -16 9 -43 23 -60 31 -16 8 -37 19 -45 24 -8 6 -35 21
-60 34 -25 13 -58 31 -75 40 -16 9 -35 16 -41 16 -6 0 -17 6 -23 14 -7 8 -49
33 -94 56 -45 23 -104 55 -132 70 -51 29 -57 33 -110 57 -16 7 -48 24 -70 37
-22 14 -56 34 -77 45 -20 11 -38 24 -40 29 -1 5 -32 29 -66 53 -98 68 -116 81
-171 124 -133 104 -160 123 -211 155 -30 19 -84 56 -120 82 -109 79 -291 202
-342 230 -16 9 -40 26 -52 37 -12 12 -26 21 -31 21 -5 0 -38 20 -74 43 -36 24
-88 58 -116 75 -27 17 -57 38 -65 46 -9 8 -27 20 -40 25 -31 14 -98 54 -174
104 -31 20 -59 37 -63 37 -4 0 -16 9 -27 19 -12 11 -58 38 -104 61 -45 23 -85
46 -88 51 -3 5 -20 16 -37 24 -18 8 -50 26 -72 40 -22 13 -59 34 -81 47 -23
13 -63 36 -90 51 -141 80 -231 129 -339 183 -16 8 -37 19 -45 25 -8 5 -33 18
-55 30 -22 11 -62 33 -90 49 -27 15 -90 49 -140 75 -82 42 -124 64 -165 86
-36 20 -108 57 -140 73 -19 10 -42 22 -50 27 -8 5 -26 14 -40 20 -14 6 -54 25
-90 41 -36 17 -85 40 -110 51 -25 11 -66 30 -91 43 -26 13 -52 24 -59 24 -7 0
-24 9 -39 19 -15 11 -40 23 -57 27 -16 4 -41 15 -56 25 -14 11 -32 19 -40 19
-7 0 -33 11 -58 24 -25 13 -58 26 -75 30 -16 4 -37 13 -45 21 -8 7 -31 18 -51
24 -20 6 -53 20 -74 31 -22 11 -45 20 -53 20 -7 0 -30 9 -50 20 -20 11 -71 33
-112 50 -41 17 -92 39 -112 50 -20 11 -44 20 -53 20 -9 0 -37 11 -63 25 -26
14 -55 25 -65 25 -10 0 -39 11 -65 25 -26 14 -52 25 -59 25 -12 0 -117 39
-178 66 -70 31 -163 66 -198 75 -20 5 -54 18 -75 29 -20 11 -45 20 -55 20 -10
0 -39 11 -65 25 -26 14 -54 25 -63 25 -10 0 -41 11 -71 25 -29 14 -61 25 -71
25 -10 0 -34 8 -55 19 -20 10 -55 21 -77 25 -22 4 -50 14 -61 21 -12 8 -50 21
-85 30 -35 9 -69 21 -74 25 -6 5 -33 14 -60 20 -28 6 -72 19 -100 29 -27 11
-90 31 -140 45 -49 15 -110 34 -135 42 -25 8 -67 21 -95 28 -27 7 -60 18 -72
24 -12 7 -48 18 -80 26 -32 8 -78 22 -103 30 -118 40 -207 66 -226 66 -11 0
-53 11 -92 25 -39 14 -79 25 -87 25 -9 0 -40 9 -70 19 -29 10 -73 22 -97 26
-24 4 -61 15 -83 25 -22 10 -65 21 -95 25 -30 4 -75 15 -100 25 -25 9 -67 20
-95 24 -27 4 -77 15 -110 25 -80 25 -174 48 -265 66 -41 9 -95 22 -120 30 -25
7 -77 19 -116 24 -39 6 -88 17 -110 24 -21 8 -65 17 -98 21 -32 4 -80 14 -108
22 -27 9 -86 22 -131 29 -45 8 -107 21 -137 30 -30 8 -68 15 -85 15 -17 0 -58
7 -90 16 -58 15 -169 36 -360 69 -49 8 -128 24 -175 35 -47 11 -124 25 -173
30 -48 6 -99 15 -113 20 -14 6 -82 17 -152 25 -70 9 -158 22 -197 29 -38 8
-104 17 -145 20 -41 4 -124 15 -185 26 -60 11 -155 24 -210 30 -55 5 -125 14
-155 20 -30 5 -113 15 -185 20 -71 6 -146 15 -165 20 -19 5 -98 14 -175 20
-77 6 -185 18 -239 26 -55 8 -194 21 -311 29 -116 8 -292 21 -391 29 -98 9
-264 20 -369 25 -104 6 -300 17 -435 25 -264 16 -1425 48 -1655 45 -77 -1
-259 -6 -405 -10z m1700 -1250 c157 -5 321 -14 365 -19 44 -5 195 -14 335 -20
140 -6 307 -17 370 -25 63 -8 189 -19 280 -25 91 -6 212 -17 270 -25 58 -8
174 -19 259 -25 85 -6 188 -17 230 -25 42 -8 121 -17 176 -20 55 -4 145 -15
200 -25 55 -10 136 -21 180 -24 44 -3 130 -15 190 -26 118 -21 251 -41 435
-65 63 -8 142 -22 175 -30 34 -8 101 -19 150 -25 50 -5 111 -16 136 -24 25 -8
77 -17 115 -21 38 -4 103 -15 144 -25 41 -10 95 -21 120 -25 25 -3 81 -15 125
-25 44 -10 105 -22 135 -25 30 -4 75 -13 100 -20 25 -8 77 -19 115 -25 39 -5
108 -19 155 -30 134 -31 218 -50 315 -69 50 -10 102 -23 116 -29 14 -5 52 -13
85 -17 32 -4 74 -14 92 -21 19 -8 64 -19 100 -25 37 -6 87 -19 112 -29 25 -10
70 -20 101 -24 30 -4 68 -13 83 -21 15 -8 55 -19 89 -25 34 -6 85 -19 112 -29
28 -10 72 -22 100 -26 27 -4 61 -13 75 -20 14 -7 51 -18 82 -24 32 -5 70 -17
85 -25 16 -8 51 -17 78 -21 28 -4 62 -13 76 -21 14 -7 55 -19 90 -28 35 -8 78
-22 94 -30 17 -9 39 -16 50 -16 20 0 133 -35 230 -71 28 -10 73 -25 100 -33
74 -21 166 -55 195 -70 14 -7 43 -17 65 -21 22 -4 58 -15 80 -25 22 -10 56
-21 75 -25 19 -4 52 -16 72 -26 21 -11 44 -19 52 -19 9 0 44 -11 78 -24 70
-26 107 -40 188 -67 30 -11 63 -24 74 -30 10 -6 42 -18 70 -26 28 -8 56 -19
63 -25 7 -5 34 -16 60 -23 46 -13 125 -42 188 -71 17 -7 48 -20 70 -28 67 -24
148 -56 191 -77 22 -10 47 -19 55 -19 8 0 29 -9 47 -20 18 -11 38 -20 45 -20
6 0 35 -11 62 -25 28 -13 56 -25 63 -25 7 0 43 -14 80 -31 37 -17 81 -36 97
-44 31 -13 111 -49 200 -90 75 -34 178 -82 290 -135 55 -26 145 -69 200 -94
55 -26 109 -52 120 -58 36 -20 49 -27 150 -75 17 -8 37 -19 45 -24 8 -5 26
-14 40 -20 14 -6 36 -17 50 -24 14 -8 66 -35 115 -60 50 -25 131 -68 180 -95
50 -27 106 -58 125 -68 60 -33 292 -166 348 -199 20 -13 56 -31 78 -42 23 -11
45 -24 49 -30 3 -6 21 -18 38 -26 18 -8 52 -29 77 -45 25 -16 56 -36 70 -42
14 -7 39 -22 55 -32 17 -11 47 -30 68 -43 20 -12 56 -35 80 -50 23 -14 59 -37
80 -50 83 -52 115 -72 171 -109 32 -21 73 -48 91 -59 40 -24 156 -104 210
-144 22 -17 54 -37 70 -46 17 -8 48 -29 70 -45 22 -17 58 -43 80 -58 142 -99
170 -119 198 -140 18 -12 48 -33 67 -47 19 -14 51 -36 70 -50 57 -41 101 -72
166 -117 56 -39 141 -103 299 -222 33 -25 103 -77 155 -115 52 -38 111 -82
130 -96 85 -64 318 -236 400 -295 118 -85 182 -133 196 -145 29 -25 243 -183
322 -237 18 -13 48 -34 67 -48 19 -14 50 -36 70 -50 20 -14 51 -36 70 -50 19
-14 50 -36 70 -50 20 -14 46 -33 58 -42 62 -49 112 -87 167 -128 142 -106 350
-267 484 -375 61 -49 128 -103 148 -118 39 -29 349 -286 358 -296 3 -3 39 -35
80 -71 301 -260 679 -641 926 -935 58 -69 210 -262 239 -305 61 -87 182 -270
202 -305 12 -22 33 -57 45 -79 48 -80 75 -131 136 -254 35 -70 72 -144 83
-164 10 -20 19 -43 19 -50 0 -7 11 -34 25 -60 14 -26 25 -55 25 -65 0 -11 9
-36 19 -57 11 -21 24 -60 30 -87 6 -28 18 -63 26 -78 8 -16 19 -58 25 -94 5
-35 17 -80 24 -99 8 -19 20 -79 25 -134 6 -54 15 -123 21 -153 12 -65 14 -411
1 -411 -11 0 -51 92 -51 117 0 10 -9 35 -19 56 -10 20 -22 49 -26 64 -6 25
-41 106 -68 158 -6 11 -21 40 -34 65 -14 25 -35 63 -49 85 -13 22 -33 58 -45
80 -28 55 -51 93 -129 210 -36 55 -69 107 -73 115 -4 8 -21 33 -37 55 -17 22
-38 51 -48 65 -25 37 -177 225 -246 305 -56 65 -367 378 -467 471 -42 39 -403
338 -444 369 -11 8 -40 31 -65 51 -115 95 -330 251 -424 309 -40 24 -78 49
-131 85 -22 15 -69 47 -105 70 -36 24 -77 51 -91 61 -15 10 -42 25 -60 33 -19
9 -54 29 -79 46 -25 16 -61 39 -80 50 -19 11 -53 32 -75 45 -22 14 -57 32 -77
41 -21 10 -38 21 -38 26 0 5 -19 18 -42 29 -24 11 -61 31 -83 44 -22 14 -58
34 -80 46 -22 11 -62 34 -90 49 -27 16 -68 38 -90 50 -22 11 -62 33 -90 49
-27 15 -84 44 -125 65 -41 21 -86 44 -100 52 -59 33 -385 190 -505 244 -38 17
-92 42 -120 55 -27 13 -72 33 -100 46 -27 12 -72 32 -100 45 -118 54 -164 74
-175 74 -11 0 -25 7 -138 63 -28 15 -58 27 -64 27 -7 0 -35 11 -63 24 -85 41
-167 76 -179 76 -6 0 -32 11 -58 25 -26 14 -54 25 -62 25 -8 0 -36 11 -62 25
-26 14 -55 25 -66 25 -10 0 -41 11 -68 25 -27 14 -55 25 -63 25 -7 0 -29 8
-50 19 -20 10 -53 22 -73 25 -19 4 -50 16 -67 27 -18 10 -41 19 -52 19 -11 0
-42 11 -70 25 -27 13 -59 25 -70 25 -11 0 -42 11 -70 25 -27 13 -58 25 -69 25
-10 0 -33 8 -50 19 -17 10 -49 22 -71 26 -22 4 -53 15 -70 25 -16 9 -48 21
-70 25 -21 4 -53 14 -69 22 -17 9 -53 22 -81 29 -63 16 -165 50 -227 75 -26
10 -54 19 -63 19 -9 0 -37 9 -63 19 -26 10 -94 33 -152 51 -58 17 -127 40
-155 50 -27 10 -68 22 -90 26 -22 4 -52 13 -68 21 -15 7 -53 19 -85 24 -31 6
-69 18 -85 26 -16 8 -56 21 -90 28 -34 8 -82 20 -107 28 -49 16 -102 30 -195
54 -33 8 -85 23 -115 33 -30 11 -75 22 -100 26 -25 3 -65 14 -90 24 -25 9 -67
21 -95 25 -27 4 -62 13 -76 21 -15 7 -46 16 -70 20 -24 3 -79 17 -122 30 -43
13 -88 24 -100 24 -12 1 -40 8 -62 16 -22 8 -80 21 -130 29 -113 18 -125 30
-125 124 0 36 -5 82 -10 101 -6 19 -17 75 -25 124 -8 49 -21 99 -29 111 -8 12
-18 40 -21 61 -4 21 -16 53 -26 70 -11 17 -19 37 -19 43 0 11 -79 155 -145
265 -114 191 -256 359 -454 536 -40 36 -83 75 -96 87 -23 20 -130 104 -213
166 -49 37 -110 79 -134 93 -10 6 -29 21 -42 33 -12 11 -26 21 -30 21 -4 0
-22 11 -40 25 -18 14 -37 25 -43 25 -5 0 -18 9 -28 20 -10 11 -23 20 -29 20
-7 0 -36 16 -66 35 -30 20 -77 47 -105 61 -52 26 -99 51 -125 66 -8 5 -37 20
-65 33 -27 14 -57 29 -65 34 -8 6 -28 16 -45 24 -16 7 -39 18 -50 24 -11 6
-47 23 -80 38 -33 14 -81 37 -108 51 -26 13 -53 24 -60 24 -7 0 -33 11 -59 25
-26 14 -54 25 -62 25 -8 0 -36 11 -62 25 -26 14 -53 25 -60 25 -7 0 -34 11
-60 25 -26 14 -54 25 -63 25 -9 0 -29 9 -46 20 -16 11 -36 20 -44 20 -8 0 -33
9 -55 19 -82 39 -172 73 -213 82 -24 4 -53 15 -65 23 -13 8 -43 20 -68 26 -25
6 -54 17 -65 24 -11 8 -45 19 -74 25 -30 6 -60 16 -67 22 -7 6 -40 17 -74 25
-34 8 -73 20 -88 28 -15 7 -47 16 -71 20 -24 4 -56 13 -72 22 -16 8 -55 20
-87 25 -31 6 -68 17 -82 24 -14 7 -55 19 -90 25 -35 6 -76 18 -90 25 -14 7
-48 16 -75 20 -28 4 -70 15 -95 25 -25 10 -67 20 -93 24 -26 4 -71 15 -100 25
-29 10 -74 21 -102 25 -27 4 -79 16 -115 26 -36 10 -92 22 -125 25 -33 4 -75
13 -93 21 -18 7 -68 18 -112 24 -44 6 -94 17 -112 24 -18 8 -74 19 -124 25
-51 6 -109 17 -130 25 -22 7 -70 17 -109 21 -38 4 -101 15 -140 25 -38 10
-104 21 -145 25 -41 4 -100 13 -130 21 -30 8 -97 19 -148 24 -51 6 -125 17
-165 25 -40 8 -115 20 -167 25 -52 6 -126 17 -165 25 -38 8 -129 19 -200 25
-72 5 -145 14 -163 19 -18 5 -94 15 -169 21 -76 6 -205 20 -288 30 -82 11
-206 22 -275 26 -69 3 -172 12 -230 20 -58 8 -208 19 -335 24 -126 6 -277 14
-335 20 -297 28 -562 34 -1545 34 -975 -1 -1272 -7 -1590 -34 -60 -5 -209 -14
-330 -20 -121 -6 -247 -15 -280 -20 -33 -5 -161 -16 -285 -25 -124 -8 -252
-19 -285 -25 -33 -6 -121 -15 -195 -21 -74 -5 -189 -19 -255 -29 -66 -11 -140
-20 -165 -20 -25 0 -88 -7 -140 -15 -52 -8 -135 -20 -185 -26 -49 -5 -137 -19
-195 -29 -58 -11 -145 -24 -195 -30 -49 -6 -108 -15 -130 -21 -22 -6 -83 -17
-135 -24 -52 -8 -111 -19 -130 -24 -19 -6 -73 -16 -120 -22 -47 -6 -116 -19
-155 -29 -38 -10 -99 -21 -135 -25 -35 -4 -81 -13 -102 -21 -21 -7 -74 -18
-118 -24 -44 -6 -94 -17 -112 -24 -18 -8 -60 -17 -93 -21 -33 -5 -84 -16 -113
-26 -30 -10 -77 -22 -105 -25 -29 -4 -70 -13 -92 -21 -22 -8 -71 -21 -110 -29
-38 -8 -119 -28 -180 -45 -60 -16 -139 -37 -175 -45 -36 -7 -73 -19 -83 -24
-9 -6 -49 -17 -88 -25 -38 -8 -82 -21 -97 -29 -15 -8 -46 -17 -67 -21 -22 -4
-59 -16 -81 -26 -23 -10 -61 -21 -85 -25 -24 -4 -57 -14 -74 -22 -16 -8 -52
-21 -80 -28 -69 -18 -196 -62 -209 -73 -6 -5 -29 -12 -51 -16 -22 -4 -53 -14
-69 -22 -16 -8 -52 -23 -80 -33 -145 -52 -171 -63 -190 -76 -11 -8 -28 -14
-37 -14 -9 0 -37 -11 -63 -25 -26 -14 -53 -25 -60 -25 -7 0 -34 -11 -60 -25
-26 -14 -54 -25 -62 -25 -7 0 -35 -11 -61 -24 -27 -14 -73 -36 -103 -49 -69
-31 -300 -144 -320 -157 -8 -6 -26 -15 -40 -21 -14 -5 -46 -22 -72 -37 -26
-15 -85 -47 -130 -70 -46 -24 -90 -50 -99 -58 -8 -8 -19 -14 -24 -14 -5 0 -25
-11 -44 -23 -47 -31 -297 -198 -325 -217 -75 -51 -324 -269 -447 -393 -131
-131 -269 -293 -269 -316 0 -5 -7 -14 -15 -21 -15 -13 -58 -86 -115 -195 -20
-38 -42 -79 -48 -90 -27 -48 -83 -199 -103 -275 -21 -84 -49 -254 -49 -300 0
-68 -19 -85 -111 -100 -41 -7 -90 -19 -109 -26 -19 -7 -64 -20 -100 -28 -36
-8 -92 -22 -125 -31 -33 -9 -105 -28 -160 -41 -55 -14 -131 -34 -170 -45 -38
-10 -95 -25 -125 -33 -30 -7 -84 -21 -120 -30 -65 -16 -150 -41 -245 -71 -27
-9 -78 -23 -113 -31 -34 -7 -76 -20 -91 -29 -16 -8 -48 -17 -72 -21 -24 -3
-62 -14 -84 -24 -22 -10 -67 -25 -100 -33 -33 -8 -73 -19 -90 -25 -36 -13
-108 -37 -190 -62 -33 -10 -82 -26 -110 -36 -48 -16 -124 -42 -230 -78 -27
-10 -79 -26 -115 -36 -79 -22 -151 -47 -205 -70 -22 -10 -56 -21 -75 -25 -19
-4 -44 -13 -55 -21 -11 -7 -42 -18 -68 -25 -26 -6 -64 -20 -85 -30 -20 -11
-44 -19 -53 -19 -9 0 -41 -11 -71 -25 -29 -14 -61 -25 -71 -25 -10 0 -39 -11
-65 -25 -26 -14 -58 -25 -71 -25 -13 0 -38 -9 -55 -19 -17 -10 -47 -22 -66
-26 -19 -4 -45 -13 -56 -20 -20 -13 -52 -26 -193 -76 -30 -10 -59 -23 -65 -28
-6 -4 -29 -14 -51 -21 -22 -7 -49 -19 -60 -26 -11 -7 -39 -17 -61 -23 -23 -6
-47 -18 -54 -26 -7 -8 -19 -15 -27 -15 -14 0 -115 -41 -198 -79 -85 -40 -182
-81 -192 -81 -6 0 -16 -6 -22 -14 -7 -8 -24 -17 -39 -20 -15 -3 -52 -18 -82
-33 -67 -32 -123 -58 -170 -78 -19 -8 -42 -18 -50 -23 -8 -5 -40 -20 -70 -34
-97 -45 -275 -130 -290 -139 -8 -5 -37 -21 -65 -34 -27 -14 -57 -29 -65 -33
-52 -30 -79 -43 -110 -57 -19 -9 -42 -20 -50 -25 -8 -5 -51 -28 -95 -51 -44
-23 -107 -57 -140 -75 -33 -19 -73 -41 -90 -50 -16 -9 -52 -29 -80 -44 -27
-16 -63 -36 -80 -44 -16 -9 -55 -32 -85 -51 -30 -19 -69 -42 -87 -50 -17 -8
-34 -19 -38 -25 -4 -6 -21 -17 -38 -25 -18 -8 -75 -41 -127 -75 -52 -33 -104
-65 -115 -70 -18 -9 -50 -30 -131 -84 -16 -11 -51 -34 -79 -52 -27 -18 -79
-53 -115 -79 -36 -25 -94 -66 -130 -91 -77 -53 -105 -74 -234 -174 -53 -41
-109 -84 -124 -95 -36 -27 -296 -242 -352 -291 -65 -57 -223 -206 -315 -299
-229 -228 -467 -507 -560 -654 -5 -8 -28 -43 -51 -76 -22 -33 -60 -96 -85
-139 -106 -190 -141 -253 -155 -286 -8 -19 -19 -42 -24 -50 -6 -8 -17 -31 -25
-50 -9 -19 -24 -53 -34 -75 -32 -68 -71 -175 -71 -194 0 -10 -8 -29 -19 -42
l-19 -23 -7 33 c-14 65 19 529 45 631 10 41 25 102 34 135 27 113 93 309 120
360 9 17 16 36 16 43 0 7 9 30 20 50 11 20 58 116 106 212 113 230 117 238
240 425 32 50 61 95 64 101 3 6 15 24 28 40 13 16 46 58 73 94 28 36 63 81 79
100 15 19 51 64 80 100 28 36 86 103 129 150 42 47 95 105 116 130 75 85 231
243 426 429 252 240 256 244 440 398 86 72 165 139 176 149 10 11 47 42 82 69
34 28 116 93 181 145 65 52 161 129 215 170 53 41 134 104 180 140 46 36 113
88 149 115 37 28 84 64 106 80 21 17 55 41 75 55 20 14 42 30 48 35 42 34 95
72 117 83 14 7 43 26 65 43 38 28 79 57 135 96 14 9 45 33 70 53 25 20 55 42
66 50 12 8 61 45 110 82 217 163 243 182 309 228 20 14 63 45 95 70 32 25 74
55 92 68 18 13 77 55 130 95 141 104 230 169 338 247 96 70 121 88 221 163 31
23 91 67 133 97 43 30 93 66 111 80 19 14 50 36 70 50 20 14 51 36 69 50 36
27 56 41 97 68 38 24 166 113 199 137 15 11 40 29 56 39 16 11 52 34 79 53 91
61 100 66 170 111 79 51 158 101 268 169 88 54 124 77 149 95 15 10 29 18 32
18 2 0 34 18 71 41 37 22 84 50 104 62 20 11 54 31 76 43 22 13 60 35 85 49
58 33 102 58 222 129 54 31 108 61 120 67 13 6 46 23 73 39 28 16 95 52 150
79 55 28 141 73 190 101 50 27 101 54 115 60 14 5 32 15 40 20 8 6 31 17 50
25 19 9 42 20 50 25 8 6 31 17 50 25 19 9 42 20 50 25 8 6 26 15 40 21 163 73
281 128 535 249 61 29 133 63 160 76 28 13 57 24 65 24 8 0 33 12 55 25 22 14
49 25 60 25 11 0 30 6 41 14 11 8 47 24 80 36 142 51 161 59 189 74 17 9 36
16 43 16 7 0 35 11 62 25 27 14 55 25 62 25 7 0 27 7 43 16 17 9 53 24 80 34
28 10 82 30 120 45 39 15 90 33 115 42 25 8 59 21 75 28 17 8 55 23 85 33 101
36 125 44 175 64 28 11 68 24 90 29 21 6 44 14 50 19 5 4 37 16 70 25 33 10
65 21 70 25 6 5 33 14 60 20 28 6 70 19 95 29 58 23 129 48 205 71 89 28 155
49 205 66 25 9 70 22 100 30 30 7 80 22 110 33 30 11 65 20 78 21 13 0 36 7
52 15 16 8 58 22 92 29 35 8 81 21 103 30 22 8 50 15 62 16 12 0 45 9 73 20
28 11 79 26 113 34 107 25 190 47 252 66 33 11 87 24 120 29 33 5 76 16 95 24
19 8 59 18 89 21 30 4 64 12 75 18 12 7 59 19 106 29 47 9 114 24 150 32 36 9
119 28 185 42 66 14 149 33 185 42 36 9 103 21 150 28 47 7 106 20 130 28 25
8 85 20 134 26 49 7 97 16 105 21 9 4 64 15 122 24 59 8 118 20 133 26 14 5
68 14 119 20 50 6 112 18 137 25 25 8 90 20 145 26 55 6 119 17 141 24 23 8
77 17 120 20 44 4 116 16 161 26 44 11 116 22 160 25 43 4 116 14 163 24 47
10 128 22 180 25 52 4 127 14 165 21 39 8 139 21 224 30 84 8 157 17 162 19 4
3 113 15 241 25 128 11 260 24 293 29 33 6 139 15 235 21 96 6 234 17 305 25
72 8 236 19 365 25 129 6 282 14 340 20 177 15 367 22 800 30 482 9 1458 4
1870 -11z m5 -2133 c132 -9 350 -20 485 -26 135 -6 301 -17 369 -26 69 -8 206
-19 305 -24 100 -6 228 -17 286 -25 58 -8 169 -19 247 -25 78 -6 173 -17 210
-24 37 -8 106 -17 153 -21 47 -4 135 -15 195 -25 61 -10 139 -21 175 -24 36
-4 115 -15 175 -26 61 -11 153 -26 205 -35 182 -29 225 -36 305 -52 44 -8 121
-21 170 -29 50 -8 114 -21 143 -30 29 -8 81 -19 115 -23 54 -8 126 -23 282
-62 22 -5 74 -16 115 -24 41 -9 105 -24 141 -35 36 -11 75 -20 87 -20 11 0 56
-11 99 -24 43 -13 96 -27 118 -30 22 -4 69 -16 105 -27 144 -46 187 -58 220
-64 34 -6 81 -20 220 -65 36 -11 90 -27 120 -34 58 -15 116 -34 218 -72 34
-13 69 -24 77 -24 8 0 43 -11 77 -24 35 -13 79 -29 98 -36 19 -7 64 -23 100
-37 36 -14 83 -31 105 -39 22 -8 56 -23 75 -33 19 -10 46 -22 60 -26 14 -4 50
-18 80 -32 30 -14 73 -34 95 -43 88 -40 261 -122 275 -131 8 -5 33 -18 55 -29
22 -10 51 -26 65 -35 14 -8 36 -20 50 -25 14 -6 45 -24 70 -40 25 -17 60 -37
79 -46 18 -8 45 -23 60 -33 14 -10 78 -53 141 -95 63 -42 129 -87 145 -99 65
-48 163 -133 214 -186 77 -81 161 -183 161 -197 0 -6 8 -22 19 -35 10 -13 31
-55 47 -94 27 -66 29 -78 29 -215 0 -132 -2 -148 -22 -183 -13 -21 -23 -44
-23 -50 -1 -23 -70 -121 -152 -214 -77 -88 -291 -274 -383 -334 -130 -84 -191
-122 -285 -173 -58 -31 -112 -61 -120 -66 -8 -5 -55 -30 -105 -55 -49 -25 -97
-49 -105 -55 -8 -5 -46 -23 -85 -40 -38 -18 -95 -43 -125 -56 -30 -14 -72 -34
-92 -45 -20 -10 -43 -19 -50 -19 -7 0 -34 -11 -60 -25 -26 -14 -53 -25 -60
-25 -7 0 -35 -11 -63 -25 -27 -13 -58 -25 -69 -25 -10 0 -33 -8 -50 -19 -17
-10 -53 -24 -79 -30 -27 -6 -59 -18 -70 -26 -12 -7 -40 -17 -62 -21 -22 -4
-56 -15 -75 -25 -20 -9 -54 -21 -75 -25 -22 -3 -51 -12 -65 -19 -14 -7 -54
-20 -89 -29 -36 -9 -69 -20 -75 -25 -6 -5 -33 -12 -61 -16 -27 -4 -70 -15 -95
-25 -25 -10 -72 -25 -105 -33 -94 -24 -175 -46 -240 -67 -33 -10 -80 -22 -105
-25 -25 -4 -61 -14 -80 -22 -19 -8 -63 -19 -98 -24 -34 -5 -89 -18 -122 -29
-33 -11 -73 -20 -90 -20 -16 0 -56 -9 -88 -20 -31 -11 -91 -24 -132 -29 -41
-6 -93 -16 -115 -24 -22 -8 -70 -18 -105 -21 -36 -4 -88 -14 -115 -21 -28 -8
-96 -21 -150 -30 -55 -8 -121 -21 -146 -29 -25 -8 -77 -17 -115 -21 -38 -4
-90 -13 -117 -20 -26 -8 -93 -19 -150 -25 -56 -6 -128 -17 -160 -25 -31 -8
-108 -19 -170 -25 -61 -6 -128 -15 -147 -20 -19 -5 -84 -14 -145 -20 -60 -7
-137 -16 -170 -21 -33 -5 -125 -16 -205 -24 -80 -9 -199 -22 -265 -31 -66 -8
-221 -21 -344 -30 -124 -8 -254 -19 -290 -24 -36 -6 -176 -15 -311 -20 -135
-6 -337 -18 -450 -27 -156 -12 -412 -17 -1065 -20 -539 -3 -944 -1 -1085 6
-124 6 -317 15 -430 21 -113 5 -295 14 -405 20 -110 5 -261 16 -335 24 -74 8
-220 20 -325 26 -104 6 -210 15 -235 20 -25 5 -110 14 -190 20 -80 6 -183 17
-230 25 -47 8 -143 19 -215 25 -71 6 -161 17 -200 25 -38 8 -117 20 -175 25
-58 6 -130 17 -160 25 -30 7 -102 18 -159 24 -57 6 -131 18 -165 25 -33 8
-104 22 -156 30 -100 17 -187 33 -335 65 -49 11 -112 23 -140 26 -27 3 -81 15
-120 25 -38 10 -97 22 -130 26 -33 4 -84 15 -114 25 -30 11 -69 19 -87 19 -19
0 -62 9 -96 20 -35 10 -97 26 -138 35 -106 21 -194 43 -270 65 -66 19 -153 43
-225 62 -22 6 -69 19 -105 30 -36 11 -90 26 -120 34 -30 7 -76 20 -102 28 -89
29 -143 47 -203 66 -104 32 -159 52 -197 71 -20 11 -46 19 -56 19 -10 0 -40
11 -66 25 -26 14 -55 25 -64 25 -9 0 -39 12 -67 25 -27 14 -56 25 -64 25 -8 0
-32 9 -55 19 -134 63 -175 81 -182 81 -4 0 -25 9 -48 20 -23 10 -57 26 -76 34
-19 9 -42 20 -50 25 -8 5 -49 25 -90 45 -41 20 -82 41 -90 46 -8 5 -31 17 -50
25 -19 9 -57 29 -85 45 -27 16 -61 34 -75 39 -14 6 -32 15 -40 21 -8 5 -28 17
-45 26 -16 9 -61 37 -100 62 -38 25 -88 57 -110 71 -51 33 -202 158 -284 236
-35 33 -94 98 -132 144 -72 89 -153 239 -164 305 -4 22 -6 76 -6 121 1 67 7
98 34 171 18 49 42 104 52 123 50 85 211 258 345 367 47 39 96 78 110 87 14 9
50 33 80 53 30 21 81 54 113 75 32 22 72 46 90 54 18 9 50 27 72 40 22 14 64
37 93 52 76 40 380 191 427 213 22 10 70 32 107 49 37 17 73 31 80 31 7 0 27
9 44 19 17 10 46 22 65 26 19 4 51 16 71 26 21 11 45 19 55 19 10 0 41 11 68
25 28 13 57 25 67 25 9 0 40 11 70 25 29 14 61 25 71 25 10 0 39 9 65 19 69
28 169 60 232 75 30 7 64 17 75 23 11 6 49 17 85 23 36 7 77 19 92 27 15 7 58
20 95 27 38 8 91 22 118 31 143 46 212 65 233 65 12 0 48 9 80 19 31 11 86 25
122 31 35 6 73 16 83 21 10 6 55 17 100 24 45 8 93 19 107 25 14 6 61 16 105
24 44 7 109 21 145 29 146 34 279 61 342 68 36 4 87 14 111 23 25 8 76 18 114
22 37 3 106 14 153 24 47 10 119 22 160 25 41 4 118 15 170 25 52 11 145 24
205 30 61 6 126 15 146 21 20 5 106 16 190 24 85 8 172 20 194 25 22 6 112 15
200 20 88 6 201 17 250 25 50 8 173 19 275 25 189 11 226 14 340 30 36 5 189
14 340 20 151 6 327 15 390 21 206 19 712 27 1425 23 462 -2 782 -9 940 -18z
m-10641 -3523 c8 -10 50 -63 94 -118 44 -55 120 -139 169 -186 91 -90 282
-254 343 -295 19 -13 49 -34 66 -46 54 -40 209 -143 219 -147 6 -2 23 -13 40
-25 34 -24 48 -32 161 -95 43 -24 86 -50 94 -57 8 -7 51 -31 95 -54 44 -22 87
-44 95 -49 21 -12 192 -93 275 -131 39 -17 88 -40 110 -50 22 -11 69 -31 105
-45 36 -15 89 -38 118 -51 29 -13 58 -24 64 -24 6 0 30 -9 52 -19 44 -21 104
-44 176 -67 25 -8 61 -23 80 -33 19 -10 52 -21 74 -25 21 -4 57 -16 80 -26 41
-19 87 -35 201 -70 59 -19 130 -42 190 -62 17 -6 62 -19 100 -29 39 -10 86
-25 105 -33 53 -21 191 -63 230 -71 19 -3 60 -14 90 -24 30 -10 78 -23 105
-29 28 -6 75 -17 105 -25 111 -30 186 -49 250 -62 36 -7 101 -23 144 -34 44
-12 91 -21 106 -21 15 0 47 -7 71 -16 24 -8 86 -22 137 -29 51 -8 101 -19 112
-25 11 -6 57 -15 102 -21 46 -5 107 -17 136 -25 30 -8 93 -20 140 -25 48 -5
109 -16 137 -24 27 -8 93 -19 145 -24 53 -6 109 -15 125 -21 17 -5 84 -17 149
-25 65 -8 146 -22 180 -29 34 -8 104 -17 156 -21 52 -4 120 -13 150 -21 30 -7
127 -20 215 -29 88 -8 178 -19 200 -25 22 -5 108 -14 191 -20 83 -5 189 -17
235 -25 46 -8 162 -19 258 -25 95 -5 228 -17 295 -25 66 -8 220 -19 341 -25
121 -6 256 -15 300 -20 77 -9 551 -28 800 -33 l120 -2 5 -2789 c4 -2018 2
-2793 -6 -2804 -9 -13 -28 -14 -115 -8 -57 4 -162 13 -234 21 -71 8 -186 17
-255 20 -69 4 -169 13 -224 21 -54 8 -151 19 -215 24 -65 5 -151 16 -191 25
-41 9 -115 20 -165 25 -51 5 -130 19 -176 30 -46 11 -100 20 -119 20 -20 0
-67 9 -105 19 -39 10 -95 22 -125 26 -30 4 -82 15 -115 25 -33 10 -80 21 -105
25 -25 4 -67 16 -93 26 -26 11 -59 19 -73 19 -14 0 -58 11 -97 24 -40 13 -90
27 -112 31 -22 4 -59 15 -82 26 -23 10 -51 19 -63 19 -11 0 -47 11 -80 25 -33
14 -67 25 -77 25 -10 0 -34 8 -53 19 -19 10 -51 22 -70 26 -19 4 -50 16 -68
26 -18 10 -38 19 -44 19 -26 0 -310 130 -396 181 -21 12 -61 38 -91 58 -29 20
-64 43 -77 52 -44 29 -111 95 -137 135 -33 51 -42 104 -24 146 8 18 35 57 61
85 47 52 153 139 185 151 9 3 32 17 51 30 19 12 62 36 97 53 34 16 65 34 68
39 3 4 20 12 37 16 18 3 43 14 57 22 22 15 54 28 180 73 30 10 59 23 65 28 6
5 34 16 62 24 28 8 65 22 82 31 17 9 40 16 51 16 11 0 40 9 63 19 59 27 160
60 237 77 35 8 75 21 90 28 14 8 46 17 71 21 25 3 68 15 95 24 28 10 74 21
104 25 30 4 63 12 73 17 10 6 62 19 116 29 53 11 122 27 152 35 30 8 75 15
100 15 25 0 62 9 83 19 20 10 49 22 64 26 42 10 121 67 179 127 63 65 121 147
130 185 4 15 16 48 27 71 16 39 18 62 14 195 -3 138 -6 158 -31 215 -36 84
-79 145 -151 217 -65 65 -107 95 -200 141 -59 29 -63 29 -215 28 -118 -1 -166
-5 -200 -18 -24 -9 -76 -21 -115 -26 -38 -6 -104 -19 -145 -29 -117 -31 -199
-51 -280 -68 -41 -8 -86 -21 -100 -28 -14 -7 -48 -16 -75 -20 -28 -4 -66 -16
-87 -26 -20 -10 -56 -21 -80 -25 -23 -4 -56 -14 -73 -22 -16 -8 -52 -21 -80
-28 -74 -19 -174 -53 -221 -75 -23 -10 -50 -19 -60 -19 -10 0 -41 -12 -69 -25
-27 -14 -57 -25 -65 -25 -8 0 -30 -9 -48 -20 -18 -11 -38 -20 -46 -20 -7 0
-33 -11 -57 -23 -24 -13 -57 -27 -73 -31 -16 -4 -41 -16 -54 -27 -14 -10 -30
-19 -36 -19 -11 0 -31 -10 -166 -83 -41 -22 -88 -48 -105 -57 -16 -8 -43 -24
-60 -35 -16 -10 -50 -31 -75 -46 -73 -45 -152 -103 -275 -200 -147 -115 -339
-325 -430 -471 -108 -173 -175 -355 -196 -538 -13 -104 -2 -292 21 -365 10
-33 21 -77 25 -99 6 -36 21 -74 66 -171 10 -22 23 -51 28 -65 14 -36 107 -176
172 -262 100 -129 273 -284 462 -413 112 -76 221 -143 270 -166 12 -6 45 -24
72 -40 45 -26 77 -42 125 -62 8 -4 22 -11 30 -16 25 -16 146 -71 156 -71 5 0
20 -9 34 -20 14 -11 32 -20 41 -20 9 0 37 -11 63 -25 26 -14 55 -25 64 -25 9
0 37 -11 62 -24 25 -13 61 -27 80 -31 19 -4 51 -16 70 -26 19 -11 45 -19 58
-19 12 0 39 -8 60 -19 20 -10 63 -24 94 -31 32 -6 60 -15 63 -20 3 -5 31 -14
63 -20 31 -6 77 -19 102 -30 25 -10 65 -21 90 -25 25 -4 56 -13 70 -20 14 -7
59 -20 100 -28 81 -16 172 -37 290 -69 41 -10 109 -23 152 -28 43 -5 86 -14
97 -19 11 -6 67 -17 125 -26 59 -8 130 -21 159 -29 28 -8 93 -17 142 -21 50
-4 119 -13 155 -21 35 -8 130 -21 210 -29 80 -7 166 -18 191 -24 25 -6 113
-15 195 -20 82 -6 207 -17 277 -26 169 -19 713 -37 1162 -36 455 0 980 16
1155 35 74 8 210 20 301 26 92 6 182 15 200 21 19 5 103 17 187 25 85 8 178
21 207 29 29 7 91 16 137 20 46 3 112 13 148 22 36 8 108 21 160 29 52 7 120
20 150 29 30 8 68 15 85 15 17 0 67 11 111 24 43 13 106 27 139 31 33 4 71 13
85 20 14 7 56 18 94 24 38 7 81 18 95 26 15 7 49 16 76 20 28 4 66 14 85 22
19 9 60 21 90 28 30 8 75 20 100 29 51 18 118 39 205 66 33 10 92 31 130 45
39 15 90 35 115 44 25 9 68 27 95 40 28 12 73 33 100 46 55 25 342 168 402
200 21 12 52 29 68 40 84 52 105 65 159 101 32 21 68 46 80 54 40 27 146 113
228 185 43 39 118 117 166 175 80 96 105 130 157 214 30 49 95 180 95 191 0 6
9 28 20 50 11 22 20 49 20 61 0 11 10 47 21 80 17 46 23 89 26 194 8 234 -28
401 -129 605 -53 106 -73 141 -89 161 -7 9 -18 24 -24 33 -36 60 -65 96 -157
195 -107 114 -286 268 -403 346 -37 25 -79 55 -95 68 -15 12 -32 22 -38 22 -5
0 -21 9 -35 20 -30 24 -90 57 -287 156 -80 41 -151 74 -157 74 -7 0 -27 9 -45
20 -18 11 -40 20 -48 20 -8 0 -31 9 -51 19 -36 19 -145 62 -269 106 -36 12
-81 28 -100 35 -19 7 -55 19 -80 26 -25 8 -65 22 -90 30 -25 9 -68 21 -96 28
-28 8 -60 19 -72 25 -12 6 -52 18 -89 25 -37 8 -88 21 -113 29 -67 22 -176 48
-260 63 -41 8 -95 21 -120 29 -25 8 -77 19 -115 24 -39 6 -88 17 -110 24 -22
8 -71 18 -110 22 -38 4 -106 15 -150 25 -44 10 -123 21 -175 25 -52 3 -124 13
-160 21 -36 8 -123 19 -195 25 -71 5 -146 14 -165 19 -40 10 -186 25 -410 40
-85 6 -201 15 -257 20 -57 5 -156 10 -220 11 -65 1 -126 6 -136 11 -16 8 -17
68 -15 1096 l3 1087 95 2 c344 8 769 25 845 33 50 6 189 15 310 20 121 6 274
17 340 25 66 8 201 20 301 25 99 5 219 16 265 24 46 8 152 20 234 26 83 5 168
15 190 20 22 5 108 16 190 25 83 8 180 21 215 29 36 8 106 17 155 21 50 4 133
15 185 25 52 10 124 21 160 25 36 3 88 12 115 20 28 7 93 18 145 25 52 6 118
17 145 25 28 8 91 19 140 25 50 5 111 16 136 24 26 8 73 17 105 21 33 4 79 13
104 21 25 7 86 20 135 28 50 8 104 20 120 26 17 7 59 16 95 21 36 5 94 18 130
28 36 11 87 22 113 26 26 3 63 13 81 20 18 8 64 19 101 25 37 6 79 17 94 24
14 8 49 17 76 21 28 4 73 16 100 26 28 9 66 20 85 24 39 7 169 47 245 75 28
10 67 21 87 25 21 3 57 15 80 25 24 11 53 20 65 20 13 0 51 11 85 24 77 28
148 53 208 72 25 7 83 28 130 45 47 17 105 38 130 46 25 8 63 23 85 33 22 10
56 23 75 30 84 29 157 59 185 74 17 9 36 16 43 16 7 0 30 9 50 19 20 11 62 31
92 45 30 13 87 38 125 56 39 17 77 36 85 41 8 5 26 14 40 20 51 23 165 80 180
89 8 6 26 15 40 21 14 6 48 23 75 39 28 16 70 41 95 55 25 14 54 31 65 37 11
7 36 22 55 34 19 11 61 39 93 60 33 21 76 50 98 64 136 88 308 218 419 318 77
69 269 260 305 304 11 13 36 47 55 76 19 28 41 54 48 57 7 2 40 -4 72 -15 33
-11 73 -20 90 -20 16 0 56 -9 87 -20 32 -10 89 -24 127 -30 38 -6 77 -15 87
-20 10 -6 48 -16 86 -24 37 -8 84 -21 103 -29 19 -8 60 -18 90 -22 30 -4 66
-13 80 -20 14 -7 51 -18 83 -25 33 -6 75 -18 94 -26 19 -8 59 -20 89 -25 30
-6 73 -19 97 -29 23 -11 55 -20 70 -20 15 0 45 -9 65 -19 21 -11 60 -22 87
-26 28 -4 62 -13 76 -21 14 -7 59 -22 100 -33 112 -30 240 -67 274 -79 17 -5
68 -21 115 -36 47 -14 108 -32 135 -41 28 -9 75 -23 105 -30 30 -8 64 -19 75
-25 11 -6 49 -19 85 -29 85 -25 154 -49 210 -71 25 -10 61 -21 80 -25 19 -4
44 -13 55 -21 11 -7 47 -19 80 -28 74 -19 204 -63 219 -75 6 -5 27 -12 46 -16
19 -4 49 -15 66 -25 17 -10 47 -21 65 -25 19 -4 45 -14 57 -22 13 -8 47 -21
75 -30 29 -8 57 -19 62 -23 6 -5 35 -17 65 -28 30 -11 75 -27 100 -36 25 -9
61 -25 81 -36 20 -11 44 -20 53 -20 9 0 38 -11 64 -25 26 -14 54 -25 62 -25 8
0 29 -9 46 -19 17 -10 46 -22 65 -26 19 -4 50 -16 69 -26 19 -10 69 -32 110
-49 74 -30 102 -42 211 -94 31 -14 60 -26 64 -26 7 0 96 -39 138 -61 37 -20
56 -29 172 -83 66 -32 127 -61 135 -66 8 -5 49 -25 90 -45 41 -20 83 -40 92
-45 29 -16 170 -92 258 -137 77 -41 242 -131 280 -153 23 -13 267 -153 298
-170 15 -8 52 -30 82 -49 30 -19 64 -39 75 -45 20 -11 317 -210 378 -254 18
-12 48 -33 67 -46 19 -14 64 -45 100 -71 36 -25 76 -53 90 -62 14 -10 37 -26
51 -38 14 -11 41 -31 59 -45 19 -14 124 -99 234 -190 277 -227 643 -594 749
-750 155 -228 172 -255 245 -406 87 -178 117 -253 132 -334 6 -30 18 -77 28
-105 14 -43 17 -89 17 -315 0 -258 -1 -268 -28 -375 -36 -142 -87 -304 -97
-310 -4 -3 -11 -17 -14 -32 -8 -31 -103 -222 -138 -277 -97 -150 -131 -198
-221 -317 -83 -109 -203 -241 -392 -433 -136 -139 -482 -435 -686 -589 -35
-27 -100 -75 -144 -109 -44 -33 -96 -71 -115 -84 -19 -13 -49 -34 -66 -46 -17
-13 -83 -58 -145 -100 -63 -43 -136 -94 -164 -113 -27 -19 -55 -35 -61 -35 -6
0 -17 -7 -25 -16 -7 -8 -29 -24 -48 -35 -45 -25 -99 -58 -137 -83 -16 -11 -59
-39 -95 -63 -36 -23 -70 -43 -76 -43 -6 0 -17 -7 -24 -17 -8 -9 -27 -22 -44
-30 -16 -7 -61 -33 -100 -58 -38 -24 -75 -44 -81 -45 -6 0 -17 -6 -23 -14 -7
-8 -49 -33 -94 -56 -45 -23 -127 -66 -182 -96 -55 -30 -113 -61 -130 -69 -16
-9 -75 -40 -130 -69 -107 -58 -863 -437 -955 -479 -30 -14 -84 -37 -120 -52
-64 -26 -112 -47 -221 -99 -31 -14 -61 -26 -67 -26 -6 0 -32 -11 -58 -25 -26
-14 -54 -25 -63 -25 -10 0 -21 -4 -26 -9 -12 -12 -142 -67 -203 -86 -24 -7
-48 -18 -55 -23 -11 -9 -34 -18 -167 -66 -25 -9 -53 -21 -64 -27 -10 -6 -37
-17 -60 -24 -22 -7 -79 -30 -126 -50 -47 -20 -104 -42 -128 -50 -24 -7 -48
-18 -55 -23 -7 -5 -34 -17 -62 -25 -91 -29 -170 -57 -195 -71 -14 -7 -49 -19
-78 -26 -28 -6 -54 -16 -57 -21 -3 -5 -25 -13 -48 -19 -23 -6 -62 -19 -87 -30
-50 -21 -114 -42 -209 -70 -35 -11 -69 -24 -75 -29 -7 -6 -36 -16 -66 -22 -29
-6 -71 -20 -94 -30 -23 -10 -50 -19 -61 -19 -12 0 -38 -9 -59 -19 -21 -11 -61
-25 -89 -31 -28 -6 -55 -15 -61 -19 -6 -5 -36 -16 -66 -24 -53 -15 -72 -21
-210 -67 -36 -11 -90 -27 -120 -34 -30 -8 -76 -21 -102 -30 -27 -9 -69 -23
-95 -32 -27 -9 -77 -22 -112 -30 -35 -8 -75 -21 -90 -28 -15 -8 -49 -19 -76
-25 -45 -9 -121 -32 -210 -62 -29 -10 -154 -45 -245 -69 -25 -6 -74 -20 -110
-31 -36 -11 -92 -26 -125 -34 -127 -29 -192 -46 -250 -65 -33 -10 -78 -22
-100 -25 -22 -4 -67 -15 -100 -26 -73 -22 -165 -45 -265 -65 -41 -9 -90 -22
-108 -30 -18 -8 -64 -19 -101 -24 -37 -5 -83 -16 -102 -24 -19 -8 -66 -19
-104 -25 -39 -6 -101 -20 -140 -30 -38 -11 -82 -20 -96 -20 -15 -1 -53 -9 -85
-20 -33 -10 -86 -22 -118 -26 -33 -4 -71 -11 -85 -17 -14 -5 -69 -18 -121 -28
-52 -10 -124 -25 -160 -34 -71 -17 -191 -41 -285 -57 -33 -5 -112 -20 -175
-34 -63 -13 -144 -28 -180 -34 -89 -14 -218 -38 -320 -61 -47 -10 -112 -22
-145 -25 -33 -4 -87 -14 -119 -22 -33 -8 -100 -19 -150 -24 -50 -6 -116 -16
-146 -24 -30 -8 -102 -19 -160 -25 -58 -6 -130 -17 -160 -25 -30 -8 -109 -19
-174 -25 -65 -6 -130 -16 -143 -21 -13 -5 -94 -16 -180 -24 -85 -9 -183 -22
-217 -30 -33 -7 -101 -16 -151 -20 -49 -3 -142 -15 -205 -25 -63 -10 -160 -21
-215 -25 -55 -3 -138 -13 -185 -21 -47 -8 -166 -21 -265 -29 -99 -7 -243 -21
-320 -29 -77 -8 -212 -20 -300 -26 -88 -6 -198 -15 -245 -20 -47 -5 -202 -14
-345 -20 -143 -6 -298 -15 -345 -20 -209 -24 -1574 -54 -2100 -47 -748 10
-1368 27 -1565 42 -104 8 -311 19 -460 25 -148 6 -333 17 -410 25 -77 8 -216
19 -310 25 -93 6 -215 17 -270 25 -55 8 -170 19 -255 24 -85 6 -193 17 -240
25 -47 8 -146 19 -220 25 -75 6 -169 17 -210 25 -41 8 -122 17 -180 21 -58 3
-134 13 -170 21 -36 8 -117 19 -180 25 -63 5 -160 18 -215 28 -55 11 -135 22
-178 25 -43 3 -104 12 -135 21 -32 8 -109 19 -172 25 -63 6 -140 17 -170 25
-30 7 -91 16 -135 20 -44 4 -116 15 -160 25 -44 10 -107 21 -140 25 -33 3 -83
13 -111 20 -28 8 -84 19 -125 25 -41 5 -112 19 -159 29 -47 11 -119 24 -160
30 -87 11 -202 33 -351 67 -58 13 -117 24 -131 24 -14 0 -54 9 -89 19 -35 10
-100 24 -143 31 -43 7 -96 18 -117 25 -21 8 -67 17 -101 21 -35 4 -81 13 -102
21 -22 7 -71 18 -110 24 -39 6 -97 19 -129 30 -31 10 -69 19 -84 19 -15 0 -68
11 -117 24 -143 38 -216 56 -291 72 -38 8 -88 21 -110 29 -22 7 -62 17 -90 20
-27 3 -77 15 -110 25 -33 11 -87 26 -120 34 -94 22 -144 36 -225 61 -41 13
-93 26 -115 30 -21 4 -51 13 -65 20 -14 7 -44 16 -65 20 -50 9 -262 69 -405
115 -36 11 -93 27 -128 35 -35 8 -73 20 -85 27 -12 6 -47 17 -77 24 -56 13
-97 25 -230 69 -42 14 -84 25 -94 25 -9 0 -38 9 -64 19 -54 22 -148 53 -242
80 -36 10 -87 27 -115 37 -89 31 -255 87 -325 109 -87 26 -146 47 -201 71 -31
13 -64 24 -72 24 -9 0 -36 8 -59 19 -85 37 -154 63 -193 73 -22 5 -49 15 -60
22 -11 7 -43 18 -70 24 -28 6 -68 20 -90 32 -21 11 -47 20 -58 20 -10 0 -39
11 -65 25 -26 14 -52 25 -59 25 -7 0 -36 11 -65 24 -29 13 -69 29 -88 36 -19
7 -53 19 -75 26 -22 8 -56 23 -76 34 -20 11 -44 20 -53 20 -9 0 -39 11 -66 25
-27 14 -57 25 -67 25 -10 0 -32 9 -50 19 -17 11 -46 24 -65 29 -56 17 -204 79
-288 122 -19 9 -48 21 -64 24 -16 4 -41 16 -54 27 -14 10 -32 19 -40 19 -8 0
-39 11 -69 25 -29 14 -77 36 -106 50 -30 14 -61 25 -69 25 -8 0 -27 9 -41 20
-14 11 -31 20 -37 20 -7 0 -33 11 -59 23 -25 13 -70 36 -99 50 -28 15 -58 27
-65 27 -7 0 -28 11 -47 25 -19 14 -40 25 -47 25 -10 0 -77 35 -153 80 -8 5
-46 23 -85 40 -38 17 -77 35 -85 40 -8 5 -53 28 -100 51 -47 23 -92 47 -100
54 -8 7 -32 18 -52 24 -20 7 -41 18 -48 26 -6 7 -23 16 -38 20 -15 3 -36 15
-47 25 -11 10 -31 21 -45 25 -14 4 -36 16 -49 26 -13 11 -29 19 -37 19 -7 0
-25 10 -41 23 -15 12 -63 40 -106 62 -43 22 -99 52 -125 67 -26 14 -60 33 -77
42 -16 9 -52 29 -80 45 -27 17 -66 39 -86 50 -19 11 -41 27 -48 35 -8 9 -19
16 -25 16 -6 0 -36 18 -66 40 -30 22 -66 45 -80 52 -14 6 -33 18 -43 27 -9 8
-25 19 -35 25 -10 6 -33 20 -51 31 -45 27 -163 103 -235 151 -100 67 -288 198
-351 245 -22 16 -52 38 -66 47 -33 22 -153 117 -402 322 -134 109 -276 238
-423 385 -197 196 -367 383 -412 455 -9 14 -35 48 -57 75 -40 49 -145 200
-145 209 0 2 -17 33 -38 67 -66 111 -95 177 -167 384 -9 28 -22 73 -27 100 -6
28 -16 71 -24 97 -39 131 -44 515 -8 643 9 33 20 78 24 100 8 44 63 214 79
242 6 10 18 34 26 53 14 30 64 125 129 241 67 119 177 269 307 415 80 91 301
311 435 434 111 102 386 326 467 379 12 8 32 24 44 34 12 11 31 25 41 31 19
11 46 30 162 111 70 49 301 203 363 241 20 13 56 36 80 51 23 14 54 34 68 44
15 10 42 25 60 33 19 9 54 29 79 46 25 16 63 39 85 50 22 11 58 31 80 45 22
13 58 34 80 45 22 12 61 33 87 48 26 15 87 48 135 73 49 25 104 54 123 64 64
34 84 44 300 151 237 117 242 120 268 133 43 23 129 60 152 67 14 4 36 15 49
25 13 11 32 19 42 19 11 0 40 11 66 24 91 46 160 76 174 76 8 0 24 7 36 15 12
9 39 22 60 30 21 7 76 30 123 50 47 20 99 41 115 46 17 5 48 17 70 28 22 10
56 24 75 31 19 6 64 23 100 37 36 14 94 35 129 48 35 14 69 29 75 35 5 5 17
10 27 10 9 0 37 11 63 25 26 14 55 25 64 25 9 0 40 11 67 25 28 13 57 25 65
25 8 0 38 11 65 25 28 13 59 25 70 25 11 0 36 8 55 19 19 10 51 22 70 26 19 4
49 13 65 21 29 13 134 50 225 79 107 34 178 58 222 76 26 10 55 19 65 19 10 0
50 11 88 24 39 13 108 35 155 49 152 45 264 79 337 103 39 13 79 24 88 24 9 0
29 7 45 15 16 8 58 22 92 29 35 8 83 21 108 29 25 8 65 20 90 27 25 6 83 23
130 37 224 65 261 76 350 98 52 13 113 28 135 34 93 26 163 43 210 53 28 6 86
21 130 34 44 13 103 26 130 29 28 4 61 13 75 20 33 19 47 18 64 -2z m10464
-5977 c64 -8 178 -17 252 -21 74 -3 198 -14 275 -25 77 -10 191 -24 252 -30
62 -6 124 -15 138 -20 13 -5 71 -14 129 -20 57 -6 126 -17 152 -25 27 -8 91
-19 142 -25 52 -6 108 -17 127 -24 18 -8 64 -19 102 -25 38 -6 87 -17 109 -24
21 -8 62 -17 89 -21 28 -4 77 -16 110 -26 72 -23 190 -56 265 -75 70 -17 176
-52 215 -71 17 -7 52 -18 78 -24 27 -6 58 -17 70 -24 12 -8 38 -17 57 -21 19
-4 49 -16 66 -26 17 -10 38 -19 46 -19 8 0 36 -11 62 -25 26 -14 52 -25 57
-25 10 0 132 -54 159 -71 8 -5 26 -14 40 -19 14 -6 34 -15 45 -22 11 -6 40
-23 65 -36 123 -66 290 -201 319 -259 6 -12 11 -46 11 -76 0 -49 -4 -61 -39
-104 -36 -46 -128 -126 -205 -178 -51 -35 -233 -135 -245 -135 -6 0 -32 -11
-58 -24 -97 -48 -230 -103 -296 -121 -26 -7 -54 -18 -61 -24 -7 -6 -37 -16
-67 -22 -30 -6 -70 -20 -89 -30 -19 -11 -46 -19 -60 -19 -14 0 -38 -7 -54 -15
-27 -14 -100 -36 -241 -71 -33 -9 -87 -24 -120 -34 -33 -10 -80 -21 -105 -25
-25 -4 -71 -15 -103 -26 -31 -10 -67 -19 -80 -19 -13 0 -58 -9 -101 -20 -43
-12 -115 -25 -160 -31 -44 -6 -103 -16 -131 -24 -27 -8 -97 -19 -155 -25 -58
-6 -118 -15 -135 -20 -29 -8 -143 -22 -290 -35 -38 -4 -89 -11 -112 -16 -24
-5 -141 -16 -260 -24 -120 -8 -305 -22 -410 -31 -106 -9 -200 -14 -208 -10
-13 5 -15 129 -15 1080 0 591 3 1082 7 1092 6 15 18 16 125 10 65 -4 171 -13
236 -20z m-8028 -6328 c47 -5 123 -18 170 -28 47 -11 122 -24 168 -30 45 -6
99 -17 120 -24 20 -7 78 -17 127 -20 50 -4 124 -16 165 -26 41 -10 112 -22
158 -25 51 -5 88 -13 97 -22 13 -13 15 -342 15 -2589 l0 -2574 -24 0 c-13 0
-34 8 -47 18 -13 10 -62 38 -109 61 -79 40 -120 62 -181 101 -13 9 -31 20 -40
25 -87 53 -159 105 -257 184 -127 101 -271 237 -305 287 -21 30 -72 106 -124
185 -12 19 -23 43 -23 52 0 10 -10 37 -22 60 l-23 42 -3 2160 c-1 1188 0 2166
3 2174 4 9 13 11 28 6 12 -4 60 -12 107 -17z m14200 -10 c1 -7 0 -973 0 -2147
-1 -1903 -2 -2138 -16 -2175 -9 -22 -22 -63 -30 -90 -7 -27 -20 -56 -27 -65
-7 -9 -19 -29 -25 -44 -24 -57 -122 -175 -235 -284 -63 -61 -128 -119 -144
-129 -15 -10 -48 -34 -73 -54 -25 -20 -58 -45 -74 -55 -59 -41 -112 -75 -150
-97 -21 -13 -46 -28 -55 -33 -54 -34 -161 -95 -191 -109 -19 -9 -46 -23 -60
-31 -31 -18 -77 -19 -82 -2 -2 6 0 354 4 772 4 418 7 1571 5 2563 -2 1737 -1
1804 16 1817 10 7 58 16 105 19 48 4 121 15 162 25 41 11 109 22 150 26 41 4
102 13 135 22 33 8 103 19 155 24 52 6 122 17 155 26 55 14 162 28 243 32 19
0 32 -4 32 -11z m-11605 -358 c66 -10 172 -21 235 -25 63 -4 149 -13 190 -21
41 -8 149 -19 240 -24 91 -6 226 -17 300 -26 74 -8 234 -19 355 -24 121 -5
297 -17 390 -25 94 -8 298 -20 455 -25 157 -5 391 -16 520 -24 129 -8 532 -20
895 -27 953 -17 2206 -1 2794 35 130 8 338 18 463 21 126 4 265 11 310 15 46
5 218 16 383 24 165 9 352 23 415 31 63 8 189 19 280 25 91 5 201 16 245 24
44 8 132 17 195 21 63 4 158 13 210 21 151 24 302 35 315 24 10 -8 11 -641 8
-2753 -3 -1508 -9 -2746 -13 -2750 -4 -5 -27 -11 -51 -14 -24 -3 -55 -11 -69
-18 -14 -7 -54 -18 -90 -25 -36 -6 -86 -20 -112 -31 -26 -10 -62 -19 -80 -19
-18 -1 -51 -8 -73 -16 -22 -9 -80 -24 -130 -34 -49 -10 -115 -26 -145 -34 -30
-9 -63 -16 -73 -16 -17 0 -137 -26 -327 -70 -47 -11 -116 -24 -155 -29 -38 -5
-83 -14 -98 -20 -15 -6 -69 -16 -120 -21 -51 -6 -117 -17 -147 -25 -30 -8
-102 -19 -160 -25 -58 -6 -136 -17 -175 -25 -38 -8 -119 -19 -180 -25 -60 -6
-148 -17 -195 -25 -47 -8 -152 -19 -234 -25 -83 -6 -170 -15 -195 -20 -26 -5
-118 -13 -206 -20 -88 -6 -236 -18 -329 -26 -395 -36 -1263 -51 -1971 -35
-286 7 -594 19 -685 27 -91 8 -239 19 -330 24 -91 5 -213 16 -271 24 -58 9
-168 20 -245 26 -76 5 -184 17 -239 25 -55 8 -158 22 -230 30 -123 14 -192 24
-415 61 -52 9 -140 22 -195 30 -55 7 -127 20 -160 28 -33 8 -87 18 -120 21
-33 4 -89 15 -124 26 -35 10 -78 19 -96 19 -18 0 -75 11 -126 24 -52 13 -115
26 -141 30 -26 3 -74 15 -107 26 -33 11 -72 20 -85 20 -14 0 -47 7 -73 16 -26
9 -82 25 -123 34 -41 10 -88 22 -105 28 -31 11 -173 46 -260 64 -27 6 -53 14
-57 17 -4 3 -8 1239 -8 2746 -1 1507 -1 2746 -1 2754 1 11 20 12 104 7 56 -4
156 -15 222 -26z m13020 -3910 c23 -11 50 -20 61 -20 10 0 33 -9 49 -20 17
-11 36 -20 43 -20 16 0 141 -52 194 -80 20 -11 42 -20 49 -20 7 0 36 -11 66
-25 29 -14 77 -36 106 -50 30 -14 61 -25 69 -25 8 0 27 -9 41 -20 14 -11 29
-20 33 -20 8 0 127 -54 154 -70 8 -5 78 -41 155 -80 77 -39 163 -84 190 -100
65 -37 119 -67 175 -96 25 -14 59 -33 75 -44 17 -11 50 -31 75 -45 25 -14 65
-39 90 -55 25 -16 56 -35 70 -40 14 -6 33 -19 43 -28 10 -9 34 -25 53 -37 151
-89 393 -283 532 -425 84 -86 234 -269 266 -325 10 -16 30 -52 47 -80 31 -54
49 -91 49 -104 0 -5 9 -28 19 -52 11 -24 25 -88 32 -142 10 -78 10 -119 0
-204 -7 -63 -20 -121 -31 -142 -10 -20 -35 -70 -54 -111 -46 -96 -62 -121
-162 -255 -108 -145 -247 -286 -410 -413 -130 -102 -157 -122 -164 -122 -4 0
-25 -14 -46 -30 -22 -17 -48 -37 -59 -46 -11 -8 -58 -39 -105 -69 -47 -30 -96
-62 -110 -72 -13 -10 -36 -24 -50 -31 -14 -6 -45 -25 -70 -42 -25 -16 -56 -35
-70 -41 -14 -6 -32 -15 -40 -20 -8 -5 -35 -20 -60 -34 -25 -14 -52 -29 -60
-35 -8 -5 -27 -15 -41 -22 -39 -19 -121 -63 -144 -76 -19 -10 -242 -117 -365
-175 -30 -14 -68 -29 -85 -33 -16 -4 -41 -15 -54 -26 -13 -10 -31 -18 -40 -18
-9 0 -37 -11 -63 -25 -26 -14 -53 -25 -60 -25 -7 0 -34 -11 -60 -25 -26 -14
-53 -25 -60 -25 -7 0 -26 -7 -43 -16 -16 -9 -52 -24 -80 -34 -27 -10 -81 -30
-120 -45 -38 -15 -90 -34 -115 -42 -25 -8 -63 -22 -85 -32 -22 -10 -56 -22
-75 -26 -19 -4 -44 -14 -56 -21 -12 -8 -43 -21 -70 -28 -27 -8 -71 -22 -99
-31 -27 -10 -79 -28 -115 -40 -36 -12 -87 -30 -115 -39 -27 -10 -75 -24 -105
-31 -30 -7 -75 -20 -100 -29 -25 -8 -83 -27 -130 -40 -47 -14 -107 -33 -135
-41 -27 -9 -84 -24 -125 -34 -41 -9 -84 -22 -95 -28 -11 -6 -42 -14 -70 -18
-27 -4 -71 -16 -96 -25 -25 -10 -67 -21 -95 -25 -27 -4 -65 -14 -84 -22 -19
-8 -70 -21 -112 -29 -42 -8 -92 -21 -110 -28 -18 -8 -58 -17 -88 -21 -30 -4
-71 -14 -90 -21 -19 -8 -69 -20 -110 -28 -41 -8 -100 -21 -130 -30 -30 -9 -72
-16 -92 -16 -21 0 -64 -9 -95 -19 -32 -11 -94 -24 -138 -30 -44 -5 -96 -16
-115 -24 -19 -8 -64 -18 -100 -22 -36 -3 -96 -15 -135 -25 -38 -10 -104 -22
-145 -26 -41 -3 -95 -13 -120 -21 -25 -7 -83 -18 -130 -24 -46 -5 -107 -16
-135 -24 -27 -8 -93 -19 -145 -25 -52 -6 -121 -18 -152 -26 -32 -8 -103 -19
-158 -24 -55 -5 -126 -16 -158 -24 -31 -8 -97 -18 -147 -21 -49 -4 -137 -15
-195 -25 -58 -10 -143 -22 -190 -25 -47 -3 -139 -15 -205 -25 -66 -10 -163
-21 -215 -25 -52 -3 -140 -13 -194 -21 -55 -8 -170 -19 -255 -25 -86 -5 -212
-17 -280 -24 -69 -8 -219 -20 -335 -25 -116 -6 -278 -17 -361 -25 -82 -8 -316
-19 -520 -25 -203 -6 -449 -16 -545 -22 -233 -16 -1653 -16 -1885 0 -93 7
-321 17 -505 22 -184 6 -406 17 -493 25 -87 8 -261 19 -388 25 -127 5 -233 12
-237 14 -14 8 -190 25 -372 36 -102 6 -228 18 -280 25 -52 8 -142 17 -200 20
-58 4 -154 15 -215 25 -60 10 -155 21 -210 25 -55 3 -147 14 -205 25 -58 10
-142 21 -187 25 -45 3 -123 15 -175 25 -51 11 -109 20 -128 20 -19 0 -95 11
-170 24 -219 40 -319 57 -419 72 -51 8 -116 20 -145 28 -28 8 -79 17 -114 21
-34 3 -95 14 -135 24 -39 11 -97 22 -127 25 -30 4 -93 15 -140 26 -78 17 -150
32 -300 60 -30 6 -84 18 -120 27 -36 8 -105 24 -155 34 -81 16 -121 25 -260
59 -22 6 -69 17 -105 25 -36 9 -92 24 -125 35 -33 10 -80 22 -105 26 -25 3
-57 13 -72 20 -15 8 -58 21 -95 28 -38 8 -86 21 -108 30 -22 8 -50 15 -63 16
-13 0 -44 9 -70 20 -26 11 -67 24 -92 30 -25 5 -74 19 -110 30 -134 45 -156
51 -217 65 -34 7 -74 20 -90 28 -15 8 -46 18 -68 22 -22 4 -51 13 -65 20 -26
14 -119 46 -204 70 -27 8 -68 24 -91 35 -23 11 -48 20 -57 20 -9 0 -40 11 -70
25 -29 14 -61 25 -72 25 -10 0 -33 9 -50 19 -17 10 -47 22 -66 26 -19 4 -49
16 -66 26 -17 10 -40 19 -50 19 -11 0 -41 12 -69 25 -27 14 -56 25 -63 25 -7
0 -34 11 -60 25 -26 14 -54 25 -62 25 -8 0 -30 9 -48 20 -18 11 -38 20 -45 20
-7 0 -39 13 -72 30 -33 16 -67 30 -76 30 -8 0 -24 7 -35 15 -10 8 -37 20 -59
26 -21 6 -50 19 -63 30 -14 10 -30 19 -36 19 -9 0 -222 104 -266 130 -8 5 -28
16 -45 24 -86 43 -114 59 -155 86 -25 16 -63 39 -85 50 -22 12 -58 32 -80 45
-22 13 -56 34 -75 45 -19 12 -60 36 -90 55 -30 19 -65 39 -77 44 -11 5 -24 15
-28 21 -3 5 -23 19 -43 30 -33 18 -62 38 -167 115 -15 11 -69 54 -119 95 -51
41 -107 86 -126 100 -60 45 -156 143 -234 240 -42 52 -82 102 -89 110 -21 23
-82 117 -139 210 -38 62 -72 164 -88 262 -15 96 -15 119 -3 210 9 67 22 121
38 153 14 28 25 55 25 61 0 10 38 80 83 154 54 87 213 280 301 363 28 27 123
108 211 181 167 137 214 171 385 281 36 23 78 50 94 61 44 28 117 71 151 89
17 8 37 19 45 25 8 5 26 15 40 21 14 6 46 22 72 37 84 48 262 147 288 160 14
6 32 16 40 21 8 5 29 16 45 24 17 7 39 18 50 24 38 21 152 73 161 73 5 0 20 9
34 20 14 11 31 20 39 20 8 0 38 11 68 25 29 14 77 36 106 50 30 14 60 25 68
25 8 0 29 9 47 20 18 11 38 20 45 20 7 0 30 9 52 20 21 11 54 25 74 31 20 6
50 20 67 30 17 11 39 19 48 19 10 0 41 11 69 25 29 13 71 27 93 31 41 6 42 5
52 -27 6 -19 18 -81 27 -139 20 -127 50 -243 99 -380 22 -61 44 -109 90 -199
58 -113 73 -140 86 -157 7 -8 20 -28 29 -44 9 -16 34 -55 56 -86 134 -188 316
-383 488 -522 129 -105 276 -220 319 -250 64 -45 163 -111 198 -132 19 -11 53
-32 75 -45 22 -13 60 -35 85 -50 25 -14 63 -37 85 -50 22 -13 58 -34 80 -45
22 -12 63 -34 90 -50 28 -16 61 -34 75 -39 14 -6 33 -16 43 -21 35 -20 53 -29
122 -60 39 -17 86 -39 105 -49 19 -10 49 -21 65 -25 17 -4 37 -14 45 -21 8 -7
33 -18 55 -24 22 -6 58 -20 80 -31 21 -11 46 -20 55 -20 9 0 25 -7 38 -15 12
-9 45 -24 74 -34 29 -11 82 -30 118 -44 67 -25 85 -32 205 -74 39 -14 93 -33
120 -43 91 -32 179 -61 230 -74 28 -7 64 -20 80 -28 17 -9 52 -19 79 -23 27
-3 67 -15 90 -25 23 -9 68 -25 101 -33 106 -27 149 -39 195 -54 25 -8 77 -21
115 -29 39 -7 86 -20 105 -28 20 -8 62 -17 95 -21 33 -3 78 -13 101 -21 23 -8
74 -21 115 -28 41 -8 103 -21 139 -30 70 -17 198 -42 295 -58 33 -5 101 -18
150 -29 50 -10 128 -24 175 -30 47 -5 108 -16 135 -24 28 -8 95 -19 150 -24
55 -6 132 -17 170 -25 39 -7 111 -17 160 -21 50 -3 142 -15 205 -25 63 -10
176 -22 250 -25 74 -4 180 -13 235 -21 55 -8 186 -19 290 -24 105 -6 253 -17
330 -25 77 -8 286 -20 465 -25 179 -6 399 -15 490 -20 213 -13 733 -13 970 0
102 5 340 14 530 20 190 5 404 17 475 25 72 8 218 19 325 24 107 6 242 17 300
25 58 8 157 18 220 21 63 3 169 15 235 25 66 10 158 21 205 25 47 3 114 13
150 21 36 8 112 19 170 25 58 6 128 17 155 25 28 7 91 18 140 23 50 5 126 19
169 30 44 12 95 21 113 21 18 0 76 11 129 25 53 14 109 25 124 25 15 0 47 7
71 16 24 8 86 21 138 29 51 8 98 19 105 24 6 6 43 15 81 21 39 6 97 19 130 30
33 10 80 22 105 25 25 4 56 13 70 20 14 7 45 16 70 20 25 4 65 15 90 25 25 10
72 25 105 33 79 21 189 52 245 71 86 29 145 48 210 66 36 10 103 33 150 50 47
17 106 37 131 45 26 7 60 20 77 29 17 9 37 16 44 16 8 0 31 9 52 19 21 11 56
26 79 35 23 8 80 31 127 51 47 20 101 41 120 47 19 5 42 16 50 23 8 7 29 17
45 21 17 4 50 17 75 30 25 13 50 24 56 24 11 0 95 38 134 61 8 4 56 29 105 54
96 50 163 86 235 128 25 15 59 33 77 42 17 8 34 19 38 25 3 6 23 19 43 31 55
30 104 60 152 94 24 17 53 37 65 45 12 8 41 29 65 45 23 17 52 37 64 45 60 41
304 246 362 304 23 23 59 57 80 77 78 71 200 217 302 361 36 51 114 186 151
263 18 39 42 86 52 106 11 20 19 45 19 56 0 10 8 34 19 53 10 20 24 62 31 94
6 32 18 72 25 90 8 17 17 61 20 96 11 107 34 232 45 245 9 10 20 10 58 -1 25
-8 65 -23 87 -34z"/>
  </g>
</svg>