<svg xmlns="http://www.w3.org/2000/svg" viewBox="0 0 4096.000000 4096.000000">
  <g transform="translate(0.000000,4096.000000) scale(0.100000,-0.100000)" fill="#f4f5f7" stroke="none">
    <path d="M38505 40209 c-123 -7 -153 -12 -247 -43 -59 -20 -113 -36 -120 -36
-18 0 -194 -88 -253 -126 -27 -18 -65 -45 -84 -61 -19 -15 -49 -37 -67 -48
-67 -41 -239 -204 -545 -517 -173 -178 -358 -368 -410 -423 -52 -55 -179 -183
-282 -285 -179 -177 -3101 -3086 -3142 -3129 -11 -11 -461 -462 -1000 -1000
-539 -539 -993 -995 -1010 -1012 -16 -18 -84 -85 -149 -148 -132 -129 -3822
-3820 -4366 -4368 -190 -191 -505 -505 -700 -698 -195 -192 -405 -402 -466
-465 -61 -63 -462 -464 -892 -890 -430 -426 -945 -939 -1144 -1140 -200 -201
-914 -916 -1589 -1590 -674 -674 -1277 -1281 -1340 -1350 -136 -149 -193 -200
-222 -200 -14 0 -54 34 -117 99 -52 54 -288 295 -525 536 -431 437 -665 672
-1668 1666 -296 294 -658 655 -805 803 -147 148 -427 428 -622 622 -431 429
-914 912 -1740 1742 -344 345 -949 950 -1345 1344 -396 394 -926 924 -1177
1179 -251 255 -762 768 -1135 1140 -2259 2253 -4435 4424 -5060 5050 -398 398
-916 918 -1152 1154 -236 237 -579 579 -762 760 -183 182 -416 418 -519 525
-377 393 -532 543 -615 595 -17 11 -47 34 -68 52 -20 18 -43 33 -51 33 -8 0
-28 11 -44 25 -17 14 -56 37 -88 51 -32 14 -68 33 -81 44 -12 10 -40 21 -60
25 -21 3 -90 23 -153 43 l-115 37 -285 0 -285 0 -75 -29 c-41 -15 -102 -34
-135 -42 -89 -22 -319 -141 -421 -219 -55 -41 -217 -187 -228 -204 -5 -8 -24
-30 -42 -50 -69 -76 -92 -108 -119 -161 -15 -30 -35 -64 -45 -75 -10 -11 -27
-47 -39 -79 -12 -33 -30 -71 -41 -85 -10 -15 -23 -55 -30 -88 -6 -34 -22 -87
-36 -118 -34 -79 -48 -226 -41 -460 5 -191 8 -207 56 -350 11 -33 23 -76 26
-96 3 -21 17 -54 32 -75 14 -21 31 -56 39 -76 13 -38 90 -170 126 -218 141
-187 169 -216 533 -565 115 -110 293 -285 395 -390 102 -104 707 -712 1345
-1350 639 -638 1291 -1293 1451 -1455 159 -162 663 -664 1118 -1115 456 -451
946 -939 1089 -1085 144 -146 369 -373 502 -504 682 -678 1422 -1412 1594
-1581 106 -104 303 -305 439 -445 241 -251 483 -493 998 -1001 142 -141 352
-350 465 -465 113 -115 320 -322 460 -461 140 -138 920 -921 1734 -1739 814
-817 1635 -1640 1824 -1828 646 -641 3166 -3161 3229 -3229 41 -43 62 -75 60
-87 -3 -18 -1074 -1099 -1928 -1946 -228 -226 -594 -590 -812 -810 -219 -219
-703 -703 -1075 -1075 -373 -372 -804 -804 -959 -960 -233 -235 -2521 -2526
-2690 -2693 -28 -28 -454 -451 -946 -941 -491 -489 -918 -913 -948 -941 -65
-61 -431 -433 -511 -519 -30 -33 -264 -265 -518 -515 -255 -250 -520 -513
-590 -585 -69 -71 -294 -296 -499 -500 -206 -203 -433 -431 -505 -505 -73 -74
-350 -352 -617 -617 -560 -558 -514 -511 -1142 -1143 -266 -267 -510 -511
-543 -541 -33 -31 -243 -240 -466 -465 -223 -225 -429 -431 -458 -459 -29 -27
-305 -304 -615 -615 -309 -311 -589 -591 -622 -622 -32 -31 -104 -103 -160
-160 -55 -57 -123 -124 -150 -149 -57 -54 -346 -355 -398 -415 -55 -63 -136
-177 -136 -191 0 -7 -13 -27 -29 -45 -16 -18 -36 -55 -45 -82 -9 -27 -27 -67
-40 -90 -13 -22 -29 -66 -36 -96 -7 -30 -23 -80 -36 -111 -31 -75 -44 -190
-44 -384 0 -186 14 -312 40 -371 10 -23 25 -75 35 -115 9 -41 27 -93 41 -117
14 -23 31 -60 39 -83 8 -22 27 -59 43 -82 16 -23 41 -62 56 -87 52 -88 91
-135 200 -244 113 -112 204 -184 286 -226 25 -12 58 -33 73 -46 16 -13 35 -24
42 -24 7 0 43 -16 78 -34 36 -19 89 -41 119 -50 29 -8 86 -26 126 -40 47 -17
104 -29 155 -32 45 -3 107 -7 137 -9 30 -2 124 1 208 6 118 7 170 15 225 33
40 13 101 32 137 41 36 9 82 28 103 41 22 14 56 32 77 39 21 7 61 28 88 47 27
18 62 41 78 50 109 66 251 198 659 608 215 215 862 863 1438 1438 577 576
1236 1235 1465 1465 230 230 956 957 1615 1615 659 658 1386 1386 1615 1616
229 230 641 642 915 915 275 273 828 827 1230 1231 403 404 973 975 1268 1270
295 294 617 618 716 720 99 102 1512 1514 3139 3139 1627 1625 2993 2992 3034
3037 88 96 242 234 261 234 7 0 162 -150 344 -332 182 -183 481 -482 665 -665
184 -183 463 -462 620 -620 157 -159 488 -491 736 -738 249 -248 494 -493 546
-545 426 -429 1126 -1127 1423 -1420 369 -363 781 -776 961 -961 55 -57 300
-303 545 -545 244 -243 536 -535 649 -651 113 -115 348 -348 523 -519 316
-306 448 -439 688 -687 68 -71 184 -188 257 -260 73 -73 314 -314 535 -537
221 -223 532 -533 691 -690 262 -258 1540 -1536 2351 -2353 177 -177 451 -451
610 -609 160 -157 421 -419 580 -581 160 -162 439 -440 620 -619 182 -178 456
-453 610 -609 154 -157 467 -470 695 -696 228 -225 471 -468 540 -539 69 -72
312 -315 540 -541 228 -225 451 -450 495 -498 145 -160 901 -909 975 -965 39
-30 86 -67 103 -81 18 -14 48 -34 67 -44 19 -10 49 -28 66 -41 17 -13 49 -30
71 -38 22 -8 59 -26 82 -40 22 -15 65 -31 93 -37 29 -6 94 -24 143 -41 88 -31
95 -32 311 -36 248 -5 366 6 459 43 33 13 82 29 110 35 27 6 57 17 65 25 9 8
45 28 80 45 75 36 182 102 231 144 19 15 54 44 79 65 67 55 219 211 246 254
14 21 39 58 57 82 49 67 83 125 103 175 10 25 28 60 40 78 12 18 27 55 33 83
6 27 18 63 26 79 28 54 45 144 56 290 13 189 -2 406 -36 496 -13 34 -31 97
-40 140 -9 43 -27 95 -39 114 -13 19 -29 53 -36 75 -7 22 -28 60 -46 84 -19
24 -34 50 -34 57 0 7 -17 33 -37 58 -21 24 -49 63 -63 86 -14 23 -539 558
-1167 1189 -629 630 -1150 1153 -1158 1161 -8 8 -321 321 -695 695 -374 374
-688 687 -697 695 -9 8 -215 214 -457 458 -243 244 -521 523 -619 620 -98 97
-411 410 -695 695 -284 285 -575 575 -646 645 -70 70 -348 348 -617 617 -269
270 -499 499 -511 510 -22 20 -814 807 -1448 1438 -195 194 -736 735 -1201
1203 -1032 1036 -1728 1731 -1966 1964 -98 96 -270 269 -383 384 -113 114
-943 945 -1845 1845 -1569 1566 -2328 2325 -2647 2647 -81 82 -204 205 -274
274 -70 69 -135 138 -144 154 -10 16 -16 36 -13 45 4 9 2167 2177 4807 4817
2641 2641 5173 5174 5628 5630 653 656 5835 5828 6478 6467 202 200 328 347
373 436 9 19 26 44 36 55 10 12 27 44 37 71 10 28 28 62 40 77 12 15 25 47 29
70 4 23 23 84 41 136 30 82 35 111 44 247 6 102 6 208 0 312 -11 159 -20 215
-47 266 -8 16 -20 59 -27 97 -8 41 -23 81 -38 101 -14 19 -33 57 -42 86 -10
28 -24 57 -32 64 -9 7 -27 36 -41 63 -14 28 -39 67 -55 86 -100 121 -195 222
-253 270 -37 30 -79 66 -94 80 -28 27 -110 77 -181 110 -75 35 -84 40 -117 61
-18 11 -65 29 -105 39 -40 10 -100 28 -133 40 -46 17 -88 23 -190 26 -71 3
-148 6 -170 7 -22 1 -103 -1 -180 -4z"/>
  </g>
</svg>