<svg xmlns="http://www.w3.org/2000/svg" viewBox="0 0 4096.000000 4096.000000">
  <g transform="translate(0.000000,4096.000000) scale(0.100000,-0.100000)" fill="#f4f5f7" stroke="none">
    <path d="M5090 35289 c-283 -13 -559 -54 -845 -125 -408 -102 -636 -184 -1020
-368 -374 -180 -693 -396 -1045 -712 -200 -179 -504 -504 -776 -829 -102 -121
-129 -158 -247 -341 -138 -213 -279 -482 -386 -733 -81 -189 -234 -654 -276
-836 -9 -38 -22 -97 -30 -130 -37 -162 -78 -448 -95 -655 -8 -95 -11 -3012
-11 -9985 0 -8624 2 -9878 15 -10072 20 -300 42 -458 93 -673 21 -89 110 -424
129 -485 81 -259 192 -521 357 -845 162 -316 294 -528 517 -825 185 -246 311
-388 483 -547 263 -243 487 -413 887 -675 190 -124 594 -322 885 -433 147 -56
401 -137 555 -176 246 -64 559 -116 810 -135 180 -13 15046 -12 15285 1 94 6
206 15 250 20 113 15 431 77 550 106 149 38 490 153 660 223 202 84 575 270
764 381 222 130 540 358 781 559 63 53 160 132 214 176 55 44 183 159 285 255
332 312 560 546 1054 1083 142 154 610 629 1228 1246 118 119 251 254 294 301
90 97 372 386 855 875 184 187 364 372 400 410 261 280 372 399 500 530 80 83
273 283 430 445 536 555 635 656 1146 1170 282 283 591 596 686 695 95 99 423
432 728 740 306 308 600 607 655 665 54 58 174 181 265 274 91 92 170 173 175
180 6 6 37 41 69 76 57 62 106 114 340 360 55 58 254 260 441 450 187 190 500
507 695 705 195 199 436 446 535 550 99 104 349 359 555 566 416 417 722 728
849 864 46 50 208 218 360 375 152 157 330 341 396 410 66 69 284 292 485 495
604 612 1266 1286 1480 1510 74 77 187 192 250 255 174 174 464 481 571 605
121 140 264 322 369 470 148 208 355 562 445 762 161 357 283 771 379 1283 26
144 38 218 64 413 14 108 16 364 20 2207 2 1489 0 2129 -8 2240 -18 244 -69
544 -136 790 -76 282 -185 590 -302 856 -158 359 -437 814 -700 1143 -64 79
-142 174 -175 210 -87 95 -257 261 -367 356 -156 135 -518 421 -625 494 -124
84 -287 176 -565 319 -391 201 -756 326 -1205 411 -175 33 -373 57 -560 66
-161 8 -30681 12 -30865 4z m30665 -1444 c542 -44 880 -133 1337 -349 100 -47
295 -154 383 -209 72 -45 276 -198 374 -281 123 -103 314 -294 421 -421 271
-320 481 -659 615 -995 96 -240 181 -529 219 -750 41 -239 41 -223 41 -2340 0
-1910 -1 -2041 -18 -2130 -22 -120 -87 -312 -138 -410 -21 -41 -74 -122 -118
-180 -117 -157 -249 -275 -481 -432 -188 -127 -282 -180 -497 -281 -299 -141
-747 -302 -1087 -393 -146 -39 -464 -112 -561 -128 -394 -68 -869 -123 -1455
-169 -118 -9 -1054 -12 -3890 -12 -3490 -1 -3745 -2 -3887 -18 -200 -23 -566
-91 -748 -138 -396 -104 -812 -258 -1120 -414 -186 -95 -507 -284 -649 -382
-411 -285 -826 -660 -1141 -1033 -152 -180 -296 -372 -407 -540 -157 -239
-210 -331 -347 -607 -175 -351 -275 -614 -377 -988 -72 -265 -117 -524 -166
-968 -22 -192 -22 -200 -29 -3817 -4 -2371 -10 -3689 -17 -3810 -6 -102 -15
-230 -21 -285 -6 -55 -18 -167 -26 -250 -29 -285 -47 -401 -96 -640 -108 -524
-158 -725 -248 -986 -55 -162 -160 -432 -215 -556 -54 -122 -211 -434 -264
-527 -49 -86 -163 -263 -231 -358 -145 -205 -382 -457 -567 -605 -164 -130
-369 -248 -505 -291 -51 -16 -511 -17 -7239 -20 -5044 -2 -7230 1 -7335 8
-246 18 -490 60 -725 126 -211 59 -387 134 -682 290 -377 200 -663 408 -929
675 -116 116 -288 310 -360 404 -269 354 -508 854 -613 1280 -35 141 -53 238
-77 410 -18 128 -22 224 -29 660 -4 281 -9 3181 -10 6445 -3 10861 -1 12957
10 13080 20 202 50 370 102 565 61 231 114 392 179 547 27 65 49 120 49 122 0
3 21 49 47 103 102 211 281 494 426 671 111 134 132 158 271 298 260 259 479
409 917 628 300 150 659 278 949 340 41 8 145 26 230 38 l155 23 1765 5 c971
3 7809 6 15195 8 12126 3 13448 2 13620 -13z m1564 -10554 c9 -6 11 -16 6 -32
-4 -13 -134 -152 -289 -309 -155 -157 -329 -337 -386 -400 -58 -63 -249 -261
-425 -440 -381 -386 -711 -723 -971 -990 -557 -572 -1024 -1048 -1534 -1565
-196 -198 -417 -423 -491 -500 -362 -376 -1055 -1083 -2044 -2085 -215 -217
-521 -530 -680 -695 -369 -381 -667 -686 -1171 -1195 -221 -223 -430 -436
-465 -475 -35 -38 -293 -308 -573 -600 -281 -291 -542 -564 -581 -605 -38 -41
-176 -181 -305 -311 -129 -129 -300 -302 -379 -385 -80 -82 -336 -345 -570
-584 -235 -239 -462 -473 -506 -520 -166 -177 -288 -303 -530 -550 -138 -140
-291 -297 -340 -349 -50 -52 -171 -178 -270 -280 -240 -248 -393 -407 -495
-516 -46 -49 -156 -164 -245 -255 -89 -91 -210 -217 -270 -281 -61 -63 -189
-189 -285 -280 -96 -90 -279 -269 -406 -397 -223 -225 -275 -272 -301 -272
-26 0 -11 62 56 242 120 319 185 540 280 943 115 489 222 1073 250 1367 6 57
15 148 20 203 10 97 32 431 47 700 4 72 6 1703 5 3625 -3 3857 -6 3604 60
4009 31 187 41 237 84 416 50 208 172 515 308 775 85 163 139 254 225 380 81
118 138 190 323 405 162 188 216 246 364 386 252 239 608 491 890 629 173 84
275 126 473 194 222 76 634 172 832 194 51 6 1034 10 2475 11 2936 1 4780 9
5150 21 286 10 444 22 825 65 118 13 244 26 280 30 76 7 312 37 520 66 202 29
535 97 790 163 118 30 220 55 225 55 6 1 16 -3 24 -8z"/>
    <path d="M39815 22280 c-181 -26 -359 -127 -461 -260 -54 -70 -118 -198 -138
-275 -29 -110 -38 -334 -34 -890 3 -535 3 -541 26 -605 13 -36 47 -108 75
-160 39 -70 73 -116 132 -175 92 -93 166 -134 294 -166 69 -17 105 -21 195
-17 90 4 128 10 199 35 48 17 113 46 143 64 113 68 222 197 289 343 61 131 65
178 71 811 5 490 4 584 -10 673 -35 228 -160 427 -335 537 -62 38 -162 71
-254 84 -86 12 -117 12 -192 1z"/>
    <path d="M36905 18455 c-74 -16 -166 -53 -225 -90 -44 -28 -275 -250 -480
-460 -58 -60 -235 -241 -395 -403 -159 -161 -321 -335 -359 -385 -74 -99 -135
-218 -157 -307 -7 -30 -13 -107 -14 -170 0 -94 4 -128 23 -185 38 -113 110
-224 211 -326 65 -64 140 -109 243 -146 59 -21 97 -27 199 -30 100 -4 138 -2
185 12 70 20 138 54 219 108 74 49 1135 1107 1224 1221 34 43 77 109 96 146
55 109 69 176 69 335 1 112 -3 151 -18 195 -53 156 -158 291 -294 378 -143 91
-240 122 -378 121 -49 0 -116 -6 -149 -14z"/>
    <path d="M39760 18454 c-85 -18 -230 -91 -302 -151 -78 -65 -155 -164 -194
-248 -61 -132 -64 -164 -75 -780 -11 -590 -7 -697 30 -826 25 -88 84 -205 137
-273 51 -64 133 -132 219 -181 83 -47 132 -63 232 -75 93 -12 200 -2 282 26
133 45 262 135 346 242 54 68 106 165 133 247 37 110 44 255 39 860 -4 644 -3
636 -82 801 -35 73 -60 108 -123 172 -65 66 -94 87 -172 125 -52 25 -126 53
-163 61 -82 19 -218 19 -307 0z"/>
    <path d="M33242 14734 c-77 -17 -192 -69 -281 -128 -80 -54 -147 -118 -552
-536 -557 -575 -624 -645 -659 -688 -49 -60 -106 -156 -130 -218 -24 -64 -40
-159 -40 -236 0 -70 22 -187 48 -253 30 -78 92 -178 155 -249 60 -68 162 -141
236 -170 68 -26 176 -46 251 -46 154 0 296 52 425 155 85 68 142 125 535 522
541 548 613 624 672 713 82 123 145 246 164 320 24 91 24 258 0 330 -59 176
-204 338 -381 425 -49 24 -123 51 -163 60 -88 18 -194 18 -280 -1z"/>
    <path d="M36925 14735 c-124 -23 -225 -73 -350 -173 -81 -65 -234 -218 -756
-752 -206 -212 -394 -410 -416 -440 -59 -78 -119 -195 -137 -265 -23 -86 -21
-243 4 -340 35 -138 130 -278 252 -370 75 -57 202 -118 276 -134 29 -6 90 -14
136 -17 105 -8 204 12 312 65 100 49 171 102 314 233 128 117 952 952 1023
1037 57 67 108 164 138 261 18 61 23 100 23 205 1 145 -10 193 -70 300 -50 91
-116 169 -200 235 -98 78 -221 138 -321 155 -94 17 -137 17 -228 0z"/>
    <path d="M39780 14663 c-66 -12 -160 -47 -220 -80 -119 -67 -261 -225 -318
-355 -53 -122 -63 -306 -52 -958 8 -462 11 -522 28 -585 41 -148 80 -225 162
-324 59 -71 150 -143 224 -177 29 -13 91 -34 137 -45 115 -30 232 -23 355 20
140 49 243 120 340 235 65 77 118 179 146 281 20 75 22 110 27 590 7 564 1
809 -23 900 -9 33 -34 96 -56 141 -74 152 -214 271 -385 330 -69 24 -98 28
-210 30 -71 1 -141 0 -155 -3z"/>
    <path d="M33230 11035 c-81 -19 -135 -40 -204 -82 -123 -75 -157 -108 -883
-849 -204 -208 -389 -401 -411 -429 -48 -60 -104 -162 -126 -227 -8 -25 -19
-81 -25 -125 -19 -153 24 -309 127 -460 81 -120 219 -223 357 -266 75 -24 221
-40 297 -33 90 8 211 48 278 91 79 50 207 170 551 515 383 384 652 666 718
753 63 83 123 206 153 312 15 56 22 105 21 165 -1 170 -60 309 -183 430 -80
79 -152 127 -247 165 -128 52 -303 68 -423 40z"/>
    <path d="M29575 11034 c-80 -20 -183 -61 -241 -96 -139 -83 -184 -126 -959
-919 -216 -220 -281 -292 -323 -362 -62 -100 -103 -196 -122 -285 -27 -130 10
-323 87 -450 51 -83 134 -175 206 -228 72 -53 182 -107 257 -124 30 -8 100
-14 155 -13 72 0 121 6 174 21 99 29 148 54 244 125 91 67 407 374 586 568
336 366 521 569 560 617 65 79 128 196 162 302 27 84 31 109 31 210 0 88 -5
130 -21 180 -29 92 -85 182 -161 257 -73 73 -168 133 -268 171 -58 22 -86 26
-207 28 -77 2 -149 0 -160 -2z"/>
    <path d="M36990 11034 c-125 -13 -259 -64 -376 -145 -55 -39 -219 -196 -575
-554 -273 -275 -520 -527 -549 -560 -130 -150 -193 -258 -225 -390 -13 -53
-16 -92 -12 -160 4 -49 16 -119 27 -154 40 -126 109 -240 192 -316 97 -91 211
-151 342 -180 105 -23 281 -17 381 15 77 24 178 76 240 123 22 17 159 150 305
297 504 508 832 853 888 937 80 117 131 322 117 467 -10 93 -34 175 -80 266
-27 54 -59 96 -114 150 -59 59 -97 86 -171 123 -52 26 -122 53 -155 61 -66 16
-180 25 -235 20z"/>
    <path d="M39815 10803 c-120 -9 -254 -54 -346 -115 -66 -44 -139 -123 -182
-196 -43 -73 -83 -213 -107 -372 -44 -296 -53 -348 -86 -495 -19 -82 -55 -233
-80 -335 -41 -164 -47 -197 -47 -295 0 -165 41 -299 131 -433 53 -77 153 -170
227 -209 83 -44 200 -80 282 -88 119 -12 287 35 402 111 114 76 219 206 297
369 104 217 166 453 215 811 14 110 22 236 26 409 5 231 4 257 -16 339 -35
148 -116 278 -225 360 -65 50 -177 102 -258 120 -68 16 -170 24 -233 19z"/>
    <path d="M37855 7663 c-89 -19 -245 -92 -398 -187 -57 -35 -144 -84 -193 -109
-88 -44 -255 -101 -449 -153 -209 -56 -342 -150 -455 -321 -58 -88 -97 -198
-112 -319 -9 -76 -8 -107 6 -190 22 -134 81 -254 169 -350 36 -39 94 -89 128
-112 36 -25 98 -54 146 -69 78 -24 92 -25 241 -21 109 4 184 12 247 26 134 31
343 97 490 155 148 58 568 265 665 329 83 54 206 176 257 255 22 34 53 102 69
150 25 77 29 102 28 198 -1 98 -5 121 -36 212 -19 55 -50 127 -69 160 -19 32
-70 94 -114 138 -61 61 -102 91 -170 127 -119 62 -223 88 -339 87 -50 -1 -100
-3 -111 -6z"/>
    <path d="M25198 7108 c-242 -24 -463 -179 -566 -398 -56 -119 -67 -173 -66
-310 1 -108 5 -136 28 -205 51 -150 148 -283 270 -369 74 -53 138 -81 231
-104 63 -15 142 -17 750 -17 628 0 685 1 744 18 135 38 251 105 334 192 61 64
124 166 151 247 14 40 30 116 37 168 26 215 -32 397 -174 547 -111 117 -236
187 -396 221 -65 14 -161 16 -676 17 -330 0 -630 -3 -667 -7z"/>
    <path d="M29370 7110 c-169 -4 -325 -13 -350 -19 -25 -6 -91 -34 -146 -62
-155 -76 -280 -191 -342 -314 -57 -114 -83 -284 -63 -413 22 -141 72 -245 170
-354 116 -129 254 -206 406 -228 57 -8 271 -10 735 -7 734 4 699 1 860 80 66
32 103 59 166 122 125 124 185 250 204 427 18 176 -28 353 -125 483 -67 90
-189 186 -299 234 -120 52 -136 54 -536 56 -206 1 -512 -1 -680 -5z"/>
    <path d="M32994 7111 c-106 -17 -211 -61 -319 -134 -125 -85 -213 -189 -262
-310 -26 -65 -53 -197 -53 -263 0 -23 7 -81 15 -130 11 -63 29 -116 60 -181
36 -73 61 -109 122 -171 89 -90 200 -160 308 -195 70 -22 74 -22 780 -22 699
0 711 0 780 22 93 28 139 48 199 87 97 62 207 192 255 300 51 116 72 283 52
402 -23 128 -97 281 -180 367 -53 57 -149 123 -237 163 -137 64 -159 65 -849
69 -341 2 -643 0 -671 -4z"/>
  </g>
</svg>