<svg xmlns="http://www.w3.org/2000/svg" viewBox="0 0 4096.000000 4096.000000">
  <g transform="translate(0.000000,4096.000000) scale(0.100000,-0.100000)" fill="#f4f5f7" stroke="#f4f5f7" stroke-width="40" stroke-linejoin="round" stroke-linecap="round">
    <path d="M33687 35844 c-3 -4 -6238 -7 -13854 -8 -10759 -2 -13871 -5 -13953
-14 -58 -7 -157 -17 -220 -23 -213 -20 -566 -83 -815 -145 -252 -63 -563 -172
-850 -296 -117 -51 -415 -202 -500 -253 -233 -140 -548 -370 -754 -548 -161
-140 -445 -432 -587 -603 -69 -84 -334 -439 -405 -544 -184 -272 -386 -634
-529 -950 -63 -140 -145 -347 -212 -535 -106 -300 -204 -688 -257 -1015 -50
-310 -69 -520 -80 -860 -5 -168 -8 -3327 -5 -7690 5 -8581 10 -11308 24
-11651 13 -330 55 -687 114 -960 51 -233 127 -509 189 -689 75 -215 169 -453
220 -560 173 -363 227 -469 317 -621 152 -257 286 -452 513 -743 162 -209 231
-287 419 -472 310 -308 519 -479 833 -686 103 -68 376 -226 485 -282 52 -27
100 -52 105 -56 21 -15 266 -125 395 -177 260 -106 401 -150 725 -227 256 -60
512 -107 715 -131 74 -9 281 -20 460 -26 209 -6 2478 -9 6360 -6 5559 3 6050
5 6230 20 545 47 853 100 1308 224 381 103 768 259 1072 430 241 137 265 151
465 282 111 72 291 201 410 295 61 47 163 128 229 179 266 207 388 320 748
692 150 154 358 368 462 475 105 108 310 321 455 475 146 154 311 327 366 385
56 58 160 168 231 245 248 269 856 910 1124 1185 19 20 86 90 149 156 242 253
627 651 891 919 398 405 808 828 936 964 38 41 126 134 195 205 186 194 289
303 354 376 149 166 608 647 1006 1055 107 110 260 268 339 350 80 83 226 233
325 335 99 102 335 345 525 540 190 195 469 481 620 635 152 154 348 354 436
444 87 91 189 194 225 230 72 72 639 666 864 907 77 82 252 263 389 401 137
139 253 257 256 263 4 6 123 129 266 273 241 244 861 879 929 951 17 18 154
160 305 317 278 288 374 388 490 514 35 39 123 131 194 205 117 121 378 394
587 615 42 44 121 129 175 189 144 159 548 601 683 746 321 346 675 700 1180
1179 170 162 406 421 617 677 497 605 707 906 902 1294 100 199 123 249 168
361 77 192 187 518 247 729 84 299 162 752 198 1160 16 179 24 2272 10 2695
-12 346 -54 844 -91 1075 -5 30 -14 98 -20 150 -28 232 -137 717 -227 1010
-67 219 -210 581 -331 843 -70 151 -255 470 -389 672 -161 241 -341 487 -435
592 -150 168 -402 415 -543 533 -108 90 -148 120 -375 282 -219 155 -296 205
-490 316 -186 107 -233 131 -460 234 -471 214 -881 341 -1350 417 -352 58
-735 81 -1321 81 -207 0 -378 -3 -382 -6z m943 -1509 c265 -14 585 -62 830
-124 142 -36 359 -108 505 -168 117 -47 384 -179 500 -246 84 -48 252 -160
355 -236 135 -100 317 -259 443 -389 69 -70 140 -145 159 -167 44 -52 149
-184 168 -212 8 -12 58 -81 111 -155 86 -120 176 -259 231 -357 68 -120 187
-374 228 -486 10 -27 35 -92 54 -143 65 -171 162 -525 215 -782 32 -157 64
-400 87 -660 22 -259 36 -1103 31 -1965 -4 -737 -6 -799 -25 -930 -39 -264
-79 -427 -156 -648 -53 -151 -177 -413 -255 -537 -22 -36 -52 -85 -67 -110
-68 -112 -243 -330 -387 -479 -229 -239 -430 -394 -762 -589 -144 -85 -406
-203 -645 -292 -26 -10 -212 -66 -310 -93 -173 -49 -631 -141 -780 -157 -131
-13 -475 -37 -650 -45 -80 -3 -1900 -10 -4045 -15 -3312 -8 -3923 -12 -4050
-24 -347 -34 -557 -70 -895 -153 -239 -58 -593 -169 -750 -235 -225 -95 -295
-129 -560 -271 -133 -71 -315 -185 -530 -330 -258 -175 -615 -482 -905 -778
-263 -269 -513 -579 -702 -874 -203 -316 -321 -531 -453 -825 -173 -384 -363
-980 -430 -1345 -43 -232 -50 -275 -70 -430 -50 -376 -49 -326 -43 -4345 4
-2647 2 -3804 -5 -3920 -14 -200 -45 -449 -78 -625 -45 -236 -180 -740 -249
-930 -20 -55 -47 -129 -59 -165 -38 -106 -174 -416 -242 -550 -87 -170 -122
-232 -221 -395 -198 -323 -369 -542 -617 -791 -233 -233 -373 -341 -613 -476
-68 -38 -159 -85 -201 -104 -132 -60 -340 -126 -482 -151 l-135 -24 -1090 -10
c-599 -5 -3340 -8 -6090 -6 l-5000 2 -165 27 c-332 53 -651 137 -885 233 -198
81 -200 82 -356 160 -151 76 -305 167 -444 263 -92 64 -289 212 -355 266 -80
66 -269 257 -389 392 -209 235 -305 360 -430 558 -319 503 -518 985 -640 1556
-28 130 -68 409 -80 560 -6 69 -12 330 -15 580 -11 845 -16 5211 -17 12025 0
4522 4 6832 11 6935 12 183 23 280 56 490 87 552 215 966 444 1437 164 336
350 621 576 883 97 113 340 353 440 436 241 200 527 395 764 522 216 115 569
251 825 317 275 72 450 95 780 104 298 8 28356 4 28515 -4z m1506 -11300 c7
-17 -16 -52 -115 -170 -101 -120 -292 -320 -821 -860 -108 -110 -297 -310
-421 -445 -123 -135 -271 -294 -329 -354 -58 -60 -127 -134 -155 -165 -27 -31
-262 -270 -521 -531 -259 -261 -513 -518 -565 -571 -146 -149 -450 -470 -539
-569 -8 -10 -89 -93 -180 -186 -92 -93 -211 -216 -265 -274 -54 -58 -225 -233
-380 -390 -332 -337 -502 -514 -684 -710 -74 -80 -229 -243 -345 -364 -115
-120 -246 -258 -290 -306 -224 -245 -496 -530 -721 -756 -367 -368 -626 -636
-865 -893 -68 -73 -194 -206 -280 -295 -85 -89 -213 -224 -285 -301 -122 -131
-243 -256 -810 -834 -279 -285 -245 -249 -411 -432 -75 -83 -144 -159 -153
-168 -123 -128 -434 -455 -528 -556 -67 -71 -158 -166 -203 -210 -45 -44 -163
-165 -263 -270 -99 -104 -278 -291 -397 -415 -119 -124 -250 -261 -290 -305
-41 -44 -174 -183 -296 -310 -121 -126 -283 -297 -360 -380 -76 -82 -242 -253
-369 -381 -295 -297 -808 -823 -915 -939 -46 -49 -156 -166 -245 -260 -88 -93
-212 -228 -275 -300 -116 -133 -515 -558 -673 -717 -49 -49 -102 -95 -118
-103 l-29 -16 0 35 c0 38 25 110 118 337 119 292 245 710 316 1054 36 174 52
268 80 470 33 240 44 352 55 590 6 122 8 1586 5 3752 -3 2227 -1 3661 6 3845
12 379 37 584 105 888 56 251 138 520 241 787 64 168 90 225 181 408 84 167
127 242 226 390 112 168 175 252 286 385 139 166 161 191 311 341 176 176 287
271 537 460 300 225 701 443 1048 569 50 18 113 41 140 51 28 10 64 21 80 25
17 3 65 17 107 30 90 27 329 78 478 101 95 15 478 17 4085 24 2189 4 4003 10
4030 13 28 3 113 11 190 17 438 33 883 90 1280 164 39 7 96 13 128 14 42 1 59
-3 63 -14z"/>
    <path d="M39303 22365 c-136 -37 -273 -140 -405 -304 -32 -40 -69 -94 -82
-120 -13 -25 -38 -90 -55 -145 -25 -78 -35 -133 -47 -275 -12 -134 -15 -260
-11 -531 4 -277 8 -370 21 -424 49 -212 199 -386 411 -479 33 -14 91 -31 129
-38 80 -13 197 -7 270 16 141 43 296 147 386 258 88 108 146 255 169 427 5 41
13 224 17 405 5 232 3 363 -5 440 -26 235 -121 436 -277 584 -44 42 -109 93
-142 113 -79 48 -208 88 -275 87 -29 0 -76 -7 -104 -14z"/>
    <path d="M36100 18445 c-126 -28 -263 -115 -440 -278 -345 -320 -602 -568
-705 -684 -131 -146 -238 -318 -285 -458 -11 -33 -26 -100 -32 -150 -9 -75 -9
-109 5 -205 14 -92 25 -131 56 -195 71 -148 188 -256 353 -329 107 -47 174
-60 313 -60 120 0 137 3 223 32 52 18 126 53 165 78 94 61 333 301 695 699
139 153 335 399 386 486 57 95 100 198 117 276 17 80 15 216 -4 290 -33 125
-119 258 -226 347 -59 50 -158 103 -244 133 -57 20 -96 26 -192 29 -81 3 -141
-1 -185 -11z"/>
    <path d="M39250 18287 c-36 -12 -93 -38 -125 -57 -73 -43 -238 -205 -289 -283
-53 -79 -93 -187 -111 -298 -10 -61 -19 -227 -26 -474 -11 -392 -6 -498 27
-644 41 -179 198 -367 371 -442 120 -53 253 -68 382 -45 155 28 348 145 444
271 88 116 137 234 162 390 21 126 38 711 25 843 -5 57 -15 122 -21 145 -22
87 -61 184 -99 248 -107 181 -265 309 -437 353 -89 23 -223 20 -303 -7z"/>
    <path d="M32325 14594 c-117 -25 -194 -60 -310 -142 -50 -36 -205 -181 -418
-392 -186 -184 -382 -383 -435 -443 -181 -202 -262 -335 -303 -497 -18 -71
-21 -103 -16 -205 6 -137 28 -222 84 -323 142 -255 485 -409 773 -348 97 21
168 51 248 104 120 80 240 190 427 393 98 107 184 199 190 204 22 19 276 318
362 426 173 216 243 365 243 517 0 204 -104 415 -273 552 -78 64 -204 126
-293 145 -63 13 -231 19 -279 9z"/>
    <path d="M36144 14526 c-94 -18 -135 -32 -219 -74 -149 -74 -278 -187 -715
-622 -256 -255 -361 -376 -437 -505 -50 -85 -103 -220 -118 -300 -18 -92 -19
-204 -4 -277 17 -78 57 -175 100 -239 57 -85 161 -175 254 -219 131 -63 182
-74 335 -75 113 0 148 4 215 24 192 56 311 134 549 362 104 99 363 375 481
514 189 221 342 467 376 605 19 78 14 229 -10 323 -11 42 -39 110 -62 150 -53
91 -155 192 -250 248 -41 24 -109 53 -153 66 -100 29 -246 37 -342 19z"/>
    <path d="M39257 14286 c-104 -37 -173 -83 -267 -177 -133 -134 -205 -270 -244
-462 -25 -120 -39 -364 -40 -677 -1 -236 2 -301 17 -375 11 -55 34 -123 59
-174 31 -66 57 -101 121 -166 63 -63 101 -92 162 -122 105 -53 190 -73 306
-73 222 0 433 111 571 300 82 113 139 282 158 469 13 135 13 682 -1 774 -43
297 -239 557 -502 669 -61 26 -87 31 -172 34 -86 3 -110 1 -168 -20z"/>
    <path d="M28465 10746 c-180 -42 -268 -101 -497 -333 -396 -402 -475 -486
-639 -683 -72 -86 -159 -218 -196 -297 -52 -112 -67 -189 -66 -343 0 -108 4
-148 20 -197 33 -99 91 -192 167 -269 78 -78 164 -130 271 -166 61 -20 89 -23
210 -22 121 1 152 5 228 28 105 31 202 79 277 135 98 74 260 238 531 541 42
47 114 127 160 179 141 157 257 302 298 371 60 101 76 164 74 305 0 66 -8 152
-16 192 -21 96 -75 219 -132 298 -51 71 -153 159 -230 198 -27 13 -84 35 -125
47 -95 28 -250 36 -335 16z"/>
    <path d="M32325 10740 c-131 -36 -280 -126 -465 -283 -129 -108 -529 -507
-635 -632 -127 -150 -248 -321 -291 -412 -55 -118 -76 -209 -78 -348 0 -73 4
-142 13 -175 7 -30 31 -93 52 -139 33 -70 53 -98 122 -165 138 -136 270 -189
472 -189 127 0 219 21 341 77 199 93 394 268 741 671 213 247 436 517 471 569
79 118 112 218 112 346 0 104 -14 181 -50 275 -55 143 -156 256 -306 341 -108
61 -165 76 -304 80 -101 3 -139 0 -195 -16z"/>
    <path d="M36160 10700 c-149 -31 -278 -106 -485 -283 -103 -88 -535 -533 -662
-682 -63 -74 -152 -200 -195 -275 -34 -59 -84 -191 -97 -258 -14 -68 -14 -211
0 -288 25 -141 94 -268 198 -367 78 -73 147 -113 261 -149 63 -19 96 -23 205
-23 108 0 143 4 205 24 95 29 205 86 295 153 94 70 384 361 526 528 207 244
368 454 456 595 47 74 91 193 105 279 9 59 9 94 -1 157 -15 98 -46 188 -92
266 -44 75 -158 189 -234 235 -33 20 -96 49 -140 64 -64 22 -102 28 -190 30
-60 2 -130 -1 -155 -6z"/>
    <path d="M39339 10290 c-119 -30 -242 -104 -338 -203 -78 -81 -122 -141 -167
-230 -53 -104 -88 -208 -122 -357 -35 -153 -87 -508 -104 -707 -15 -173 -2
-288 46 -407 40 -101 74 -152 152 -229 69 -69 181 -127 291 -151 91 -20 221
-20 314 -1 40 9 107 31 148 50 147 66 248 160 322 298 68 127 117 321 193 757
48 275 56 389 35 537 -13 93 -38 173 -86 270 -74 151 -214 277 -384 343 -69
27 -100 34 -174 36 -49 2 -106 -1 -126 -6z"/>
    <path d="M37138 6931 c-120 -26 -200 -54 -363 -126 -77 -34 -201 -85 -275
-114 -272 -105 -316 -124 -390 -167 -160 -92 -265 -220 -321 -392 -30 -92 -31
-103 -26 -217 6 -137 23 -199 89 -310 53 -90 166 -202 243 -242 125 -64 261
-89 402 -73 134 15 559 127 813 215 340 118 588 305 696 524 38 79 64 184 64
267 0 40 -9 105 -21 150 -31 119 -81 207 -169 295 -59 60 -93 85 -161 117
-123 60 -220 83 -369 88 -97 3 -145 0 -212 -15z"/>
    <path d="M24519 6610 c-58 -5 -143 -18 -188 -30 -160 -43 -335 -153 -421 -265
-68 -89 -119 -209 -139 -330 -21 -131 -22 -179 -6 -259 18 -87 57 -173 113
-250 81 -111 253 -218 432 -269 47 -14 137 -30 200 -37 161 -17 850 -18 955
-1 102 17 222 54 305 96 78 40 192 134 255 211 55 68 119 197 135 275 8 35 11
98 8 165 -4 86 -11 125 -33 184 -46 125 -115 218 -218 296 -125 94 -286 150
-512 178 -105 13 -357 28 -680 40 -55 2 -148 0 -206 -4z"/>
    <path d="M28725 6613 c-140 -11 -334 -39 -414 -60 -147 -37 -284 -103 -374
-179 -57 -48 -137 -152 -168 -219 -36 -78 -59 -193 -59 -297 0 -131 33 -240
106 -355 68 -106 153 -182 274 -243 87 -44 159 -68 260 -86 69 -13 166 -16
525 -15 242 1 478 6 525 11 128 16 235 46 330 95 95 49 176 114 239 190 55 66
93 133 126 225 22 59 29 98 33 185 3 82 0 127 -12 175 -36 144 -123 273 -244
363 -78 57 -208 115 -320 142 -213 52 -615 85 -827 68z"/>
    <path d="M32670 6614 c-301 -39 -416 -64 -560 -126 -106 -46 -175 -92 -251
-167 -50 -51 -76 -88 -111 -161 -26 -52 -51 -119 -57 -148 -16 -78 -14 -248 4
-317 23 -90 76 -193 133 -261 136 -162 331 -249 615 -273 169 -14 831 -14 955
0 161 19 346 95 451 184 151 129 240 296 257 481 12 133 -43 320 -128 433 -59
78 -109 124 -186 169 -143 84 -315 133 -575 162 -168 20 -477 33 -547 24z"/>
  </g>
</svg>