<svg xmlns="http://www.w3.org/2000/svg" viewBox="0 0 4096.000000 4096.000000">
  <g transform="translate(0.000000,4096.000000) scale(0.100000,-0.100000)" fill="#f4f5f7" stroke="none">
    <path d="M15315 37139 c-196 -6 -275 -15 -450 -48 -27 -6 -122 -15 -210 -21
-108 -8 -188 -19 -245 -35 -47 -14 -132 -29 -190 -35 -117 -13 -164 -22 -228
-44 -23 -9 -82 -20 -130 -26 -48 -6 -127 -24 -177 -40 -49 -17 -123 -34 -163
-40 -40 -5 -91 -19 -114 -31 -22 -11 -77 -27 -122 -36 -44 -8 -99 -25 -122
-38 -22 -13 -72 -29 -110 -36 -38 -6 -89 -22 -114 -35 -25 -12 -74 -30 -110
-38 -36 -8 -94 -28 -130 -45 -36 -17 -77 -31 -91 -31 -14 0 -50 -13 -80 -28
-30 -16 -76 -34 -102 -41 -27 -6 -65 -23 -85 -36 -20 -13 -59 -29 -87 -35 -27
-6 -72 -24 -100 -39 -27 -16 -66 -32 -85 -36 -19 -4 -55 -20 -80 -35 -25 -16
-65 -34 -89 -40 -25 -6 -59 -23 -76 -36 -18 -13 -55 -31 -82 -39 -28 -8 -56
-22 -63 -29 -6 -8 -40 -24 -75 -36 -34 -11 -71 -30 -81 -41 -9 -11 -41 -26
-70 -35 -28 -8 -60 -24 -69 -34 -10 -11 -40 -27 -67 -35 -28 -8 -65 -28 -84
-45 -19 -16 -42 -30 -51 -30 -8 0 -42 -18 -75 -40 -33 -22 -65 -40 -72 -40 -6
-1 -27 -14 -46 -30 -19 -17 -39 -30 -46 -30 -6 0 -29 -14 -50 -31 -22 -17 -54
-37 -73 -45 -18 -8 -49 -27 -67 -44 -19 -16 -41 -30 -48 -30 -8 0 -33 -16 -56
-35 -23 -19 -48 -35 -55 -35 -7 0 -31 -15 -53 -32 -22 -18 -53 -41 -68 -51
-56 -34 -96 -62 -132 -93 -21 -17 -53 -39 -72 -49 -19 -10 -50 -30 -67 -44
-18 -14 -53 -42 -78 -61 -25 -19 -64 -52 -87 -72 -22 -21 -44 -38 -48 -38 -5
0 -26 -15 -48 -32 -22 -18 -63 -51 -92 -73 -29 -22 -71 -57 -93 -77 -22 -21
-44 -38 -49 -38 -6 0 -42 -28 -82 -63 -39 -35 -82 -71 -95 -80 -41 -28 -234
-211 -446 -423 -205 -206 -277 -282 -400 -420 -38 -43 -106 -117 -150 -165
-101 -111 -197 -225 -220 -264 -10 -16 -24 -35 -31 -40 -7 -6 -37 -44 -67 -85
-85 -115 -119 -158 -155 -198 -19 -20 -40 -52 -48 -71 -8 -18 -29 -51 -47 -72
-51 -60 -73 -91 -95 -135 -11 -22 -28 -46 -37 -54 -9 -8 -25 -30 -35 -50 -10
-20 -26 -43 -36 -51 -9 -7 -25 -33 -35 -57 -11 -24 -33 -60 -49 -80 -17 -20
-30 -42 -30 -48 0 -6 -10 -19 -21 -30 -12 -10 -32 -42 -44 -70 -13 -28 -28
-55 -34 -58 -6 -4 -25 -34 -41 -66 -16 -32 -35 -62 -41 -65 -6 -4 -20 -28 -31
-54 -10 -25 -28 -55 -38 -66 -11 -11 -26 -41 -35 -65 -9 -24 -24 -54 -35 -65
-11 -11 -26 -40 -35 -65 -8 -24 -26 -57 -39 -74 -12 -17 -28 -48 -35 -68 -7
-20 -25 -55 -41 -77 -16 -22 -33 -59 -36 -82 -4 -22 -18 -54 -31 -69 -13 -16
-32 -54 -43 -86 -11 -32 -26 -65 -34 -73 -8 -9 -24 -46 -36 -83 -12 -37 -28
-72 -36 -79 -8 -6 -21 -37 -30 -68 -9 -31 -27 -73 -40 -93 -13 -20 -29 -59
-34 -85 -6 -26 -22 -66 -35 -89 -13 -23 -33 -73 -44 -113 -11 -40 -29 -86 -39
-104 -11 -18 -25 -57 -31 -87 -7 -30 -23 -77 -37 -103 -14 -27 -29 -73 -35
-103 -5 -29 -21 -78 -34 -107 -14 -29 -31 -88 -40 -131 -8 -44 -24 -97 -35
-118 -11 -22 -25 -74 -31 -116 -7 -42 -22 -103 -35 -134 -13 -31 -30 -98 -38
-148 -9 -50 -27 -124 -41 -165 -14 -40 -29 -113 -35 -162 -5 -48 -20 -129 -34
-178 -14 -50 -30 -140 -35 -200 -5 -61 -21 -157 -34 -215 -15 -64 -29 -168
-36 -265 -11 -149 -16 -191 -42 -335 -21 -121 -30 -406 -26 -861 3 -406 6
-483 21 -539 9 -36 24 -75 32 -87 11 -18 24 -23 59 -23 35 0 51 6 80 31 20 18
58 37 91 46 32 8 71 25 88 37 17 13 54 31 82 40 29 9 59 25 68 35 10 11 38 24
64 31 26 6 59 23 73 36 14 14 50 31 79 39 29 8 63 23 75 35 12 12 44 28 71 36
26 8 57 23 68 33 28 25 61 41 83 41 10 0 42 15 71 34 29 19 68 37 86 40 18 3
48 18 66 31 19 14 53 30 75 36 22 6 55 22 72 35 18 14 52 31 75 40 61 21 136
74 149 106 6 15 9 47 7 70 -6 56 8 283 27 428 8 63 19 192 25 285 7 107 20
211 36 280 13 61 29 157 35 214 10 111 14 132 47 251 11 41 27 120 36 175 8
55 24 120 35 145 11 25 25 83 32 130 6 47 23 110 37 140 13 30 28 81 32 115 4
33 19 89 33 125 15 36 33 95 42 133 8 37 25 86 36 110 12 23 28 68 36 100 7
32 24 78 38 101 13 23 29 66 36 96 6 30 21 71 34 91 13 20 29 56 35 80 7 24
25 67 40 94 16 28 32 67 35 88 4 21 18 50 30 65 12 15 30 50 39 79 10 28 25
62 35 75 10 13 26 46 35 75 10 28 26 63 36 76 10 13 28 47 38 75 11 28 29 63
41 78 11 15 25 43 31 64 6 21 24 54 40 75 17 21 30 43 30 49 0 7 14 34 32 62
18 27 40 66 50 88 10 21 29 51 43 68 14 16 25 34 25 40 0 6 11 25 24 42 13 17
35 55 50 84 14 28 30 52 35 52 4 0 20 21 35 48 15 26 45 72 67 102 61 84 111
157 145 212 16 27 35 52 40 56 5 4 21 23 34 42 13 19 32 44 41 55 66 77 88
104 109 135 14 19 34 46 47 60 12 14 86 99 165 190 213 246 445 488 613 640
83 74 162 147 176 160 15 14 46 41 68 60 23 19 57 49 75 65 18 17 57 48 86 70
29 22 73 57 97 78 24 20 48 37 53 37 5 0 30 18 57 40 104 86 117 96 148 115
18 11 56 37 86 58 94 66 123 86 169 117 25 17 61 42 80 55 19 13 53 34 75 46
22 12 54 31 70 43 17 12 44 28 62 35 17 7 41 23 53 37 13 13 39 29 59 35 20 7
50 22 66 35 17 12 47 29 68 38 22 9 52 27 69 41 16 14 38 25 47 25 10 0 37 14
61 31 23 17 60 37 82 45 22 7 53 25 69 39 17 13 49 29 71 36 23 6 56 22 74 35
18 14 50 30 71 35 21 6 58 24 83 39 25 16 66 34 92 40 26 7 52 18 58 26 7 7
41 23 77 35 36 12 82 32 100 45 19 13 51 26 72 30 20 3 59 19 87 34 28 16 69
32 90 35 21 4 75 22 119 40 44 18 102 36 130 40 27 4 70 17 95 30 26 13 83 30
127 39 44 8 102 27 128 41 26 14 62 25 79 25 43 0 142 25 196 48 25 11 92 25
150 32 58 7 125 21 150 32 27 12 97 26 175 35 72 8 181 26 243 39 74 16 188
29 335 39 122 9 269 22 327 31 217 32 932 35 1165 5 105 -14 247 -28 420 -41
77 -6 185 -22 240 -35 55 -13 153 -28 217 -34 68 -7 135 -19 160 -30 56 -23
76 -28 179 -41 47 -5 121 -23 165 -39 43 -15 106 -31 139 -35 33 -4 85 -18
115 -32 30 -14 90 -32 134 -40 43 -7 94 -23 114 -34 19 -12 66 -27 103 -35 38
-8 87 -24 108 -35 21 -10 74 -29 117 -40 42 -12 90 -30 104 -40 15 -11 52 -25
81 -31 30 -6 70 -21 90 -34 20 -13 59 -30 86 -38 28 -9 68 -26 89 -40 22 -14
57 -31 79 -37 22 -7 56 -23 76 -36 20 -12 54 -27 75 -33 21 -6 55 -21 74 -34
19 -13 52 -29 72 -36 20 -7 52 -22 71 -35 18 -13 58 -35 88 -50 29 -15 84 -44
121 -64 37 -20 94 -52 127 -69 33 -18 63 -37 66 -43 4 -6 30 -22 59 -34 29
-13 56 -30 59 -39 3 -8 28 -22 55 -31 27 -9 60 -28 72 -41 13 -14 29 -25 37
-25 7 0 30 -15 50 -34 21 -18 54 -41 73 -51 19 -10 48 -28 63 -41 16 -13 34
-24 42 -24 7 0 19 -7 26 -17 8 -9 37 -31 64 -50 28 -18 75 -51 105 -73 30 -21
78 -55 105 -74 28 -20 69 -50 92 -68 45 -36 138 -109 187 -148 18 -14 43 -35
57 -47 13 -12 47 -41 74 -63 60 -50 169 -147 284 -254 109 -101 384 -380 416
-422 14 -18 47 -56 74 -86 27 -29 70 -78 95 -108 96 -112 122 -142 151 -174
28 -30 49 -58 139 -178 19 -25 42 -60 51 -77 8 -17 20 -31 25 -31 5 0 38 -44
75 -97 109 -161 113 -167 137 -197 13 -16 34 -48 48 -71 49 -81 65 -108 96
-154 17 -26 34 -56 38 -69 4 -12 23 -40 42 -63 19 -22 34 -47 34 -53 0 -7 13
-31 29 -53 16 -22 32 -50 36 -64 4 -13 18 -38 31 -55 13 -18 34 -56 47 -85 13
-30 31 -60 40 -67 9 -8 23 -37 31 -66 9 -29 25 -61 36 -71 11 -10 26 -39 34
-64 7 -26 25 -64 40 -85 14 -21 31 -57 37 -79 6 -22 21 -54 34 -71 13 -17 28
-51 35 -75 6 -24 23 -61 36 -81 14 -21 32 -64 41 -96 8 -32 25 -70 38 -85 12
-15 26 -49 30 -75 4 -26 20 -70 35 -98 16 -28 33 -77 39 -110 6 -32 20 -73 31
-91 11 -18 29 -71 39 -117 10 -45 27 -101 38 -123 11 -22 28 -79 37 -127 9
-48 28 -111 41 -140 13 -29 28 -88 34 -131 6 -43 17 -90 25 -105 22 -42 34
-99 46 -206 6 -54 21 -122 32 -150 12 -31 27 -116 39 -215 11 -91 28 -193 39
-228 12 -39 26 -134 35 -241 8 -97 22 -222 30 -276 26 -173 35 -351 35 -711 0
-230 -5 -410 -15 -525 -9 -96 -18 -182 -20 -190 -8 -28 -24 -184 -35 -330 -7
-99 -20 -183 -40 -264 -17 -66 -30 -141 -30 -167 0 -62 -25 -190 -44 -227 -8
-16 -20 -67 -26 -114 -5 -47 -21 -117 -34 -156 -14 -40 -32 -111 -41 -158 -9
-48 -27 -108 -39 -133 -13 -25 -27 -71 -31 -101 -4 -30 -22 -89 -41 -131 -19
-42 -34 -87 -34 -99 0 -12 -16 -57 -35 -100 -19 -43 -35 -87 -35 -98 0 -11
-14 -46 -30 -77 -17 -32 -35 -79 -41 -104 -6 -25 -24 -69 -40 -98 -16 -29 -32
-70 -35 -93 -4 -22 -19 -60 -35 -83 -15 -23 -33 -64 -39 -91 -6 -27 -24 -65
-39 -85 -16 -20 -33 -57 -38 -83 -10 -44 -23 -66 -85 -142 -16 -19 -28 -46
-28 -60 0 -36 24 -80 57 -105 28 -21 70 -72 120 -146 15 -22 42 -57 60 -78 18
-20 33 -43 33 -51 0 -8 11 -28 25 -45 14 -16 33 -52 42 -78 9 -26 26 -62 39
-79 13 -18 28 -54 34 -80 6 -27 20 -61 31 -77 11 -15 29 -63 40 -107 11 -45
28 -98 39 -118 18 -34 53 -193 81 -372 13 -79 26 -1088 19 -1440 -4 -191 -2
-263 7 -288 11 -31 16 -33 50 -30 34 3 41 8 60 46 12 24 29 55 38 68 9 14 23
44 31 67 8 22 21 48 29 57 8 9 29 43 46 76 17 32 42 80 57 105 15 26 41 70 57
99 17 28 40 66 52 83 12 18 31 52 43 77 11 25 30 54 40 65 10 11 26 37 35 58
9 21 29 57 45 79 17 23 30 47 30 54 0 7 11 25 24 41 13 15 33 48 46 73 13 25
33 58 46 73 13 16 24 34 24 41 0 7 16 35 35 62 19 27 35 54 35 61 0 7 13 27
28 45 16 18 41 58 56 88 47 95 80 155 101 186 20 29 41 66 102 184 18 34 38
69 45 77 16 20 70 114 99 173 12 25 34 63 49 85 41 60 67 105 92 155 11 25 33
61 48 80 16 19 33 51 39 71 6 20 22 46 35 58 14 13 27 35 31 49 4 15 17 41 30
58 13 18 35 56 48 85 13 30 31 60 40 67 9 8 21 30 28 50 6 20 19 46 29 57 10
11 28 40 40 65 12 25 33 59 46 77 13 17 24 36 24 41 0 5 18 37 40 70 22 33 40
64 40 70 0 6 11 24 25 40 13 16 33 49 44 73 10 24 28 52 39 63 12 10 27 35 33
55 7 20 27 58 46 85 18 26 33 53 33 59 0 5 11 25 25 42 13 18 35 57 48 88 14
30 30 58 36 62 7 4 23 31 35 60 13 29 29 56 35 60 7 4 23 30 37 58 35 72 75
143 112 201 18 28 32 56 32 63 0 7 13 27 28 45 16 18 35 49 42 68 13 32 43 81
97 162 13 18 34 56 47 85 14 28 30 54 37 58 6 4 22 33 36 63 13 31 35 69 49
85 13 16 24 34 24 41 0 7 14 34 31 60 32 48 60 96 101 176 13 25 35 61 51 81
15 20 27 41 27 46 0 6 15 33 34 60 18 26 36 58 40 70 4 13 22 44 40 70 18 27
38 62 45 80 7 18 20 38 28 45 9 7 24 33 35 58 11 25 28 54 38 65 11 11 26 36
34 55 8 19 29 55 46 80 16 25 30 50 30 56 0 6 14 30 31 54 17 23 36 57 41 74
6 17 22 46 35 64 13 17 29 47 35 65 6 17 26 54 45 81 18 26 33 54 33 60 0 7
13 30 29 52 15 21 34 56 40 76 7 20 19 42 27 49 9 7 25 31 36 53 12 23 31 55
43 71 13 17 30 47 39 68 9 22 27 52 40 68 14 16 28 39 32 51 4 12 22 45 40 71
19 27 34 54 34 61 0 6 12 29 27 51 33 47 71 116 112 203 17 34 35 62 41 62 6
0 21 24 34 53 13 28 36 67 50 86 14 19 26 40 26 46 0 6 13 29 29 51 16 21 37
58 46 82 10 23 21 42 27 42 5 0 20 24 34 54 13 30 31 59 39 66 8 6 40 64 72
127 66 132 114 195 134 176 18 -18 55 -80 88 -150 17 -35 35 -63 41 -63 6 0
22 -26 36 -57 13 -32 31 -65 39 -74 9 -8 28 -39 43 -67 78 -146 92 -171 102
-177 6 -4 22 -30 36 -58 13 -29 45 -86 69 -127 25 -41 54 -94 65 -117 11 -23
31 -55 43 -70 13 -15 29 -44 37 -63 7 -19 21 -44 31 -55 10 -11 28 -43 40 -70
12 -28 29 -58 38 -69 19 -22 70 -111 105 -183 14 -28 30 -54 37 -58 6 -4 20
-28 31 -54 11 -25 30 -59 42 -76 12 -16 28 -46 36 -65 7 -19 23 -48 35 -65 12
-16 34 -55 49 -85 42 -85 74 -142 97 -173 11 -15 26 -45 34 -66 7 -22 27 -58
44 -81 17 -24 31 -48 31 -55 0 -6 12 -27 26 -46 14 -19 35 -54 46 -79 11 -25
27 -53 36 -64 20 -21 70 -109 106 -183 14 -28 30 -54 37 -58 6 -4 22 -31 35
-60 12 -29 28 -56 35 -60 6 -4 20 -28 31 -54 12 -25 30 -59 42 -75 28 -40 79
-129 110 -191 13 -28 32 -57 41 -65 9 -8 28 -37 41 -65 13 -27 45 -84 69 -125
25 -41 53 -91 63 -110 9 -19 29 -51 43 -70 14 -19 34 -54 44 -77 10 -24 22
-43 27 -43 5 0 20 -26 34 -57 14 -31 36 -70 50 -86 13 -16 24 -34 24 -41 0 -7
14 -32 31 -56 17 -23 36 -57 41 -74 6 -17 22 -46 35 -63 13 -18 31 -52 39 -75
8 -23 23 -52 34 -63 10 -11 29 -45 43 -75 13 -30 31 -61 40 -68 9 -8 21 -30
28 -50 6 -20 24 -55 39 -77 44 -65 110 -180 110 -192 0 -6 11 -25 25 -41 14
-17 34 -51 45 -76 12 -25 25 -48 30 -51 6 -4 22 -30 37 -58 14 -29 36 -65 49
-80 13 -16 24 -35 24 -42 0 -7 11 -27 25 -43 14 -17 35 -52 46 -79 12 -26 29
-57 39 -68 17 -20 64 -102 107 -187 13 -26 28 -50 34 -54 6 -4 22 -32 36 -63
14 -31 33 -65 43 -76 11 -11 26 -38 35 -60 10 -22 25 -49 35 -60 11 -11 27
-38 36 -60 9 -22 26 -53 38 -70 11 -16 31 -51 42 -76 12 -26 27 -50 34 -54 6
-4 21 -30 34 -58 12 -29 30 -58 39 -65 9 -8 23 -35 32 -62 9 -27 23 -54 31
-61 9 -7 29 -40 45 -73 16 -34 47 -90 69 -126 22 -36 52 -87 66 -115 15 -27
37 -63 50 -78 13 -16 24 -34 24 -41 0 -7 16 -35 35 -62 19 -27 35 -54 35 -60
0 -7 15 -34 33 -60 19 -27 39 -65 46 -86 7 -20 19 -39 27 -42 8 -3 27 -34 43
-68 15 -35 35 -69 44 -76 9 -8 28 -37 42 -65 34 -70 77 -141 97 -164 8 -10 26
-42 38 -70 12 -29 26 -53 30 -53 4 0 18 -21 30 -47 12 -26 33 -61 46 -78 13
-18 29 -47 36 -66 6 -19 22 -48 35 -65 12 -17 28 -46 35 -65 6 -19 23 -50 38
-69 14 -19 34 -56 44 -82 10 -26 22 -50 27 -54 5 -3 23 -32 39 -64 16 -32 34
-61 40 -65 6 -4 24 -34 40 -68 17 -34 46 -87 65 -117 19 -30 48 -82 66 -115
17 -33 38 -64 45 -70 7 -5 22 -30 33 -55 10 -25 31 -60 45 -79 14 -19 26 -40
26 -47 0 -6 15 -34 33 -60 18 -27 39 -63 46 -81 7 -17 21 -39 32 -48 10 -10
25 -39 34 -65 9 -26 25 -56 37 -66 11 -11 29 -39 40 -64 11 -25 27 -54 37 -65
10 -11 23 -33 28 -50 6 -16 27 -54 47 -84 20 -29 36 -57 36 -62 0 -5 16 -32
35 -60 19 -28 35 -57 35 -64 0 -8 11 -27 25 -43 13 -16 34 -51 46 -78 11 -27
27 -56 35 -65 15 -16 57 -91 95 -169 12 -25 32 -60 46 -78 13 -17 29 -47 35
-65 6 -17 26 -54 45 -81 18 -26 33 -54 33 -61 0 -7 13 -29 29 -49 17 -21 35
-54 42 -74 11 -37 33 -75 97 -175 19 -28 40 -67 48 -86 8 -20 23 -45 34 -56
10 -11 27 -40 38 -65 11 -25 26 -51 35 -58 8 -7 21 -27 28 -45 7 -18 27 -53
45 -80 18 -26 36 -58 40 -70 3 -12 17 -33 30 -47 13 -14 30 -45 39 -69 8 -24
26 -55 39 -68 14 -14 28 -38 31 -54 4 -16 17 -42 29 -57 13 -15 34 -49 48 -77
38 -77 79 -148 99 -170 10 -11 27 -41 38 -66 11 -25 30 -58 42 -73 12 -15 31
-46 44 -69 72 -136 88 -163 110 -189 13 -15 26 -41 30 -57 3 -15 17 -39 30
-51 13 -13 31 -44 40 -71 9 -26 23 -53 31 -60 9 -7 30 -39 47 -72 78 -144 106
-196 137 -252 18 -33 46 -85 62 -115 16 -30 37 -64 48 -75 10 -11 30 -45 45
-75 48 -99 80 -158 97 -177 8 -10 27 -41 42 -70 14 -28 31 -55 37 -59 6 -3 22
-31 36 -62 13 -30 33 -67 44 -81 38 -50 99 -146 99 -157 0 -6 10 -24 23 -39
24 -31 69 -107 116 -199 17 -33 38 -67 46 -76 8 -9 20 -31 26 -49 6 -18 27
-55 45 -83 19 -27 34 -55 34 -62 0 -7 12 -28 26 -47 14 -19 35 -54 45 -78 11
-24 31 -57 44 -73 14 -16 25 -35 25 -43 0 -7 16 -36 35 -64 19 -28 35 -54 35
-58 0 -5 12 -26 27 -48 15 -22 39 -65 55 -97 15 -31 31 -59 37 -62 5 -4 22
-30 36 -59 44 -87 74 -140 103 -182 16 -22 34 -54 41 -72 7 -17 21 -39 32 -48
10 -10 25 -39 34 -65 9 -26 27 -57 40 -70 13 -13 30 -39 36 -59 7 -20 27 -58
46 -85 18 -26 33 -52 33 -57 0 -5 15 -31 33 -58 35 -54 57 -89 102 -166 38
-67 63 -107 100 -164 17 -25 39 -65 49 -88 10 -24 23 -43 27 -43 4 0 21 -29
38 -64 17 -35 35 -67 41 -71 6 -4 24 -34 40 -68 49 -100 124 -234 170 -302 14
-22 32 -56 40 -75 7 -19 21 -44 30 -55 10 -11 26 -36 35 -55 10 -19 44 -79 77
-133 32 -53 56 -102 53 -107 -4 -7 -2365 -10 -7006 -10 -6056 0 -7004 -2
-7034 -14 -23 -10 -37 -24 -42 -43 -4 -15 -8 -368 -8 -784 0 -816 -1 -800 52
-820 12 -4 3524 -9 7805 -9 l7783 -1 90 31 c50 17 132 51 183 77 75 37 108 61
170 124 91 92 141 159 160 214 7 22 23 55 34 72 11 18 28 74 39 125 34 166 20
368 -34 475 -13 26 -32 72 -41 100 -10 29 -22 56 -28 59 -6 4 -25 39 -43 79
-19 40 -38 76 -44 79 -6 4 -20 28 -31 54 -11 25 -27 53 -35 62 -8 9 -22 36
-30 60 -9 25 -26 56 -39 70 -13 14 -32 41 -41 60 -10 19 -28 49 -40 65 -12 17
-28 47 -34 67 -7 20 -19 42 -28 50 -9 7 -25 33 -36 57 -11 25 -33 63 -48 84
-16 22 -29 48 -29 58 0 10 -14 34 -30 53 -17 18 -37 53 -45 77 -9 24 -24 53
-34 64 -10 11 -31 43 -45 70 -34 63 -61 109 -96 160 -15 22 -33 57 -39 78 -7
21 -23 45 -36 53 -13 9 -29 31 -35 50 -7 19 -22 47 -35 62 -12 15 -30 44 -39
65 -9 22 -27 52 -41 69 -14 16 -25 35 -25 43 0 7 -15 35 -33 61 -18 27 -39 65
-47 84 -7 19 -19 42 -26 50 -7 8 -29 47 -49 85 -81 153 -95 179 -109 194 -7 9
-19 32 -25 52 -6 20 -23 46 -36 59 -13 13 -31 44 -40 70 -9 26 -25 56 -37 66
-11 11 -29 39 -39 63 -11 24 -30 56 -44 72 -13 16 -26 38 -30 49 -3 11 -22 43
-41 71 -19 28 -34 57 -34 64 0 7 -10 25 -22 40 -23 29 -61 92 -116 196 -17 30
-37 61 -46 68 -8 7 -18 26 -21 42 -4 17 -20 45 -36 64 -16 18 -36 52 -44 76
-8 23 -24 48 -34 56 -11 7 -25 30 -31 51 -7 20 -24 53 -40 72 -15 19 -36 55
-47 80 -11 25 -27 51 -36 58 -9 8 -21 30 -28 50 -6 20 -20 46 -30 57 -10 11
-29 46 -43 77 -14 31 -30 59 -36 63 -6 4 -24 35 -41 70 -16 35 -36 68 -44 75
-8 7 -15 18 -15 25 0 7 -15 35 -33 61 -19 27 -39 65 -46 85 -6 20 -20 44 -31
54 -11 10 -27 38 -36 64 -10 25 -27 57 -40 71 -12 14 -29 42 -38 63 -9 22 -27
52 -41 69 -14 16 -25 35 -25 43 0 7 -18 39 -39 71 -22 33 -42 71 -46 86 -4 14
-17 36 -30 48 -13 12 -33 46 -45 76 -12 30 -27 54 -32 54 -5 0 -16 16 -24 36
-8 20 -31 59 -50 86 -19 28 -34 56 -34 63 0 7 -13 29 -30 50 -16 21 -34 54
-40 75 -5 20 -20 45 -31 56 -12 10 -30 39 -40 63 -11 24 -31 57 -44 73 -14 16
-25 35 -25 43 0 7 -16 36 -35 64 -19 28 -35 55 -35 60 0 5 -15 31 -34 59 -19
27 -42 66 -50 87 -9 20 -27 50 -41 67 -14 16 -25 35 -25 42 0 7 -13 31 -30 54
-16 22 -36 58 -45 79 -9 21 -25 47 -35 58 -10 11 -27 38 -36 60 -9 22 -27 52
-39 67 -13 15 -29 44 -35 65 -7 21 -23 49 -35 63 -13 14 -27 37 -30 52 -4 15
-22 49 -41 75 -19 26 -34 55 -34 64 0 8 -12 31 -26 50 -14 19 -35 54 -46 79
-10 25 -28 54 -38 65 -10 11 -28 43 -40 70 -11 28 -27 55 -34 60 -7 6 -37 55
-66 110 -29 55 -60 109 -70 120 -10 11 -27 41 -38 66 -11 25 -31 58 -45 73
-14 15 -29 41 -32 58 -4 16 -19 44 -34 61 -15 18 -35 51 -45 74 -10 23 -27 50
-37 59 -10 9 -24 33 -30 53 -7 20 -24 52 -40 71 -15 19 -30 46 -34 60 -4 14
-19 41 -34 60 -25 33 -56 87 -102 180 -12 25 -32 59 -44 75 -13 17 -28 46 -34
66 -7 20 -20 44 -30 54 -11 9 -29 40 -41 68 -13 29 -32 62 -44 73 -11 12 -29
45 -39 73 -10 28 -22 51 -28 51 -6 0 -19 21 -31 48 -11 26 -31 61 -43 78 -13
16 -31 48 -40 69 -9 22 -25 49 -35 60 -10 11 -27 38 -36 60 -9 22 -29 55 -45
73 -16 18 -29 38 -29 46 0 7 -16 35 -35 62 -19 27 -35 54 -35 59 0 6 -13 29
-29 51 -15 21 -34 56 -40 76 -7 20 -19 42 -28 49 -8 7 -28 40 -44 73 -16 33
-35 66 -43 75 -8 9 -21 33 -30 55 -16 37 -38 76 -103 176 -17 27 -36 65 -43
84 -6 19 -18 40 -26 47 -9 7 -29 38 -45 68 -17 31 -50 90 -75 131 -24 41 -53
95 -64 119 -11 24 -31 57 -45 73 -13 16 -28 44 -34 63 -5 18 -20 49 -34 67
-13 18 -33 53 -44 78 -11 25 -27 51 -36 58 -9 8 -21 30 -28 50 -6 20 -23 53
-38 72 -14 19 -34 53 -44 75 -10 22 -26 49 -36 60 -10 11 -24 36 -30 56 -7 20
-21 45 -33 55 -11 11 -29 39 -39 63 -11 24 -31 57 -44 73 -14 16 -25 35 -25
42 0 7 -16 33 -34 57 -19 24 -38 54 -41 68 -4 14 -19 41 -34 60 -15 20 -33 52
-41 71 -7 19 -23 46 -36 60 -12 14 -31 45 -42 70 -11 25 -26 51 -35 58 -9 8
-21 30 -28 50 -7 20 -27 59 -46 86 -18 26 -33 54 -33 62 0 7 -13 28 -29 46
-15 18 -34 50 -40 71 -7 21 -23 50 -35 65 -23 28 -64 96 -99 167 -12 22 -31
52 -43 67 -12 15 -28 44 -35 65 -6 21 -25 53 -40 70 -15 18 -33 51 -39 73 -6
22 -19 48 -29 57 -18 18 -63 95 -109 188 -14 28 -35 64 -47 80 -12 17 -25 42
-29 57 -3 14 -17 40 -31 56 -13 16 -34 51 -45 77 -11 26 -32 61 -45 77 -14 16
-25 35 -25 42 0 7 -13 32 -30 54 -16 23 -30 46 -30 50 0 5 -20 40 -45 78 -25
37 -45 74 -45 80 0 7 -11 25 -24 41 -13 15 -33 48 -46 73 -13 25 -33 58 -46
73 -13 16 -24 35 -24 42 0 7 -11 27 -25 43 -13 16 -34 51 -45 77 -11 26 -31
60 -44 76 -14 16 -27 42 -31 58 -3 16 -17 40 -30 53 -13 13 -35 48 -50 78 -39
82 -68 132 -97 171 -14 18 -33 52 -42 74 -10 22 -25 49 -35 60 -10 11 -26 40
-35 65 -10 25 -26 54 -37 66 -19 20 -57 87 -102 179 -14 28 -32 57 -40 64 -9
7 -24 34 -33 59 -10 26 -27 58 -39 72 -12 14 -35 50 -49 80 -54 109 -82 159
-98 177 -10 10 -25 37 -34 58 -9 22 -26 54 -38 70 -12 17 -30 49 -40 73 -11
23 -23 42 -28 42 -4 0 -21 27 -37 60 -16 32 -38 71 -50 86 -12 15 -21 32 -21
38 0 6 -18 37 -40 70 -22 32 -40 63 -40 69 0 6 -11 25 -25 43 -14 18 -34 54
-45 80 -11 26 -32 60 -45 76 -14 16 -25 35 -25 43 0 7 -16 36 -35 64 -19 28
-35 55 -35 60 0 5 -15 31 -34 58 -18 26 -36 59 -40 71 -4 13 -20 38 -36 55
-15 18 -34 51 -41 75 -7 24 -21 49 -30 56 -10 7 -27 34 -39 60 -11 27 -29 59
-40 73 -10 13 -24 41 -31 61 -7 20 -27 59 -46 86 -18 26 -33 52 -33 57 0 5
-16 32 -35 60 -19 28 -35 56 -35 63 0 6 -15 33 -34 59 -19 26 -37 60 -41 74
-3 15 -17 40 -31 56 -14 16 -32 46 -40 66 -8 19 -23 45 -34 56 -10 11 -26 38
-35 60 -9 22 -26 51 -39 65 -13 14 -28 40 -35 59 -6 19 -19 43 -29 54 -20 22
-70 108 -106 182 -13 28 -31 57 -39 64 -9 7 -24 34 -33 59 -10 26 -30 61 -45
79 -15 17 -32 49 -39 70 -7 21 -20 46 -29 57 -19 21 -70 111 -102 176 -12 25
-32 60 -46 78 -13 17 -29 47 -35 65 -6 17 -23 46 -38 62 -15 17 -33 47 -39 67
-7 20 -19 42 -28 50 -9 7 -27 37 -40 67 -14 30 -35 68 -49 84 -13 16 -24 34
-24 41 0 7 -14 34 -31 62 -18 27 -36 63 -42 79 -6 17 -23 46 -38 65 -15 19
-31 49 -35 65 -4 17 -17 44 -30 61 -13 18 -34 56 -47 87 -14 30 -30 58 -37 62
-6 4 -21 28 -32 54 -10 25 -28 55 -38 66 -10 11 -28 41 -40 67 -12 26 -28 52
-35 58 -8 6 -21 33 -30 60 -9 26 -22 51 -30 54 -8 3 -27 31 -44 63 -16 32 -38
67 -50 77 -12 11 -21 24 -21 30 0 10 -53 66 -160 170 -19 19 -46 37 -60 41
-14 4 -40 19 -59 33 -18 13 -59 33 -90 43 -31 10 -82 27 -113 38 -46 17 -81
21 -170 21 -88 -1 -125 -5 -168 -21 -30 -11 -82 -29 -114 -39 -32 -10 -71 -30
-85 -43 -14 -14 -37 -28 -51 -32 -59 -18 -242 -206 -269 -276 -5 -14 -17 -31
-26 -39 -9 -8 -30 -40 -46 -71 -16 -32 -33 -60 -38 -64 -6 -3 -20 -27 -31 -53
-12 -26 -29 -56 -40 -67 -10 -11 -25 -38 -35 -60 -9 -22 -25 -49 -35 -60 -11
-11 -26 -40 -35 -64 -8 -24 -28 -59 -45 -77 -16 -19 -30 -43 -30 -53 0 -9 -16
-40 -35 -67 -19 -27 -35 -54 -35 -60 0 -7 -16 -35 -35 -63 -19 -28 -35 -54
-35 -59 0 -5 -13 -27 -29 -49 -15 -21 -37 -60 -49 -85 -11 -25 -25 -49 -31
-52 -6 -4 -25 -35 -42 -69 -17 -34 -47 -92 -67 -129 -20 -37 -50 -91 -66 -120
-15 -29 -36 -62 -46 -73 -10 -11 -23 -36 -29 -56 -6 -20 -20 -45 -30 -56 -11
-11 -31 -45 -46 -74 -15 -30 -35 -63 -45 -74 -10 -11 -21 -31 -25 -45 -9 -29
-74 -143 -105 -182 -11 -15 -27 -45 -35 -68 -8 -23 -28 -58 -45 -76 -16 -19
-30 -41 -30 -48 0 -8 -15 -36 -34 -63 -18 -26 -37 -60 -41 -73 -4 -14 -16 -34
-26 -45 -10 -11 -29 -45 -43 -76 -13 -31 -31 -59 -39 -62 -8 -3 -23 -27 -33
-54 -9 -26 -28 -59 -40 -73 -13 -14 -29 -41 -35 -60 -6 -19 -24 -51 -40 -71
-15 -20 -31 -48 -34 -62 -4 -14 -22 -49 -41 -78 -19 -29 -34 -57 -34 -61 0 -5
-16 -31 -35 -59 -19 -28 -35 -57 -35 -65 0 -7 -14 -29 -30 -48 -17 -18 -37
-53 -45 -76 -8 -23 -26 -55 -40 -72 -14 -16 -25 -35 -25 -42 0 -7 -15 -34 -32
-62 -38 -57 -66 -108 -103 -182 -14 -30 -31 -52 -37 -50 -9 3 -11 95 -9 369 3
415 -12 818 -35 946 -29 164 -33 198 -48 359 -8 89 -26 208 -40 265 -14 57
-30 148 -36 201 -5 54 -19 119 -29 146 -11 26 -27 95 -36 152 -9 58 -27 132
-40 165 -12 33 -28 94 -33 135 -6 42 -22 105 -36 141 -14 36 -32 103 -40 147
-9 45 -25 100 -36 123 -12 22 -28 73 -35 113 -8 40 -25 94 -38 122 -14 27 -30
73 -36 103 -6 30 -21 69 -32 87 -11 18 -27 66 -35 106 -8 40 -26 89 -38 109
-13 19 -29 62 -36 95 -6 32 -24 82 -39 109 -16 28 -31 68 -35 90 -4 22 -19 56
-32 76 -14 20 -31 60 -39 88 -7 27 -22 62 -34 77 -12 15 -28 50 -36 78 -8 27
-26 66 -39 86 -12 19 -31 58 -40 87 -9 28 -23 57 -31 63 -8 6 -22 33 -31 58
-10 26 -30 65 -44 87 -15 22 -31 51 -35 65 -4 14 -22 50 -39 80 -47 81 -72
128 -105 196 -16 34 -34 65 -41 69 -6 4 -20 28 -31 52 -11 25 -31 59 -44 75
-14 16 -25 35 -25 43 0 7 -15 35 -33 62 -18 27 -39 63 -46 80 -7 17 -22 40
-33 50 -11 10 -30 41 -43 68 -12 28 -32 59 -44 69 -11 11 -21 24 -21 30 0 6
-18 33 -40 60 -22 26 -40 54 -40 61 0 13 -33 58 -99 136 -17 19 -39 57 -50 82
-11 26 -25 47 -30 47 -5 0 -23 21 -40 48 -56 83 -100 145 -109 151 -5 3 -17
22 -27 41 -9 19 -30 49 -46 65 -15 17 -47 53 -69 80 -23 28 -55 66 -71 85 -16
19 -66 78 -110 130 -112 133 -283 319 -474 514 -60 62 -131 135 -157 162 -85
90 -376 366 -465 441 -94 80 -120 101 -151 122 -19 13 -44 33 -57 45 -13 11
-46 38 -72 59 -26 21 -69 54 -94 75 -26 20 -73 55 -105 77 -32 22 -69 52 -83
68 -14 15 -31 27 -38 27 -6 0 -33 18 -58 40 -25 22 -50 40 -55 40 -5 0 -30 18
-55 40 -25 22 -50 40 -55 40 -4 0 -27 16 -50 35 -23 19 -47 35 -54 35 -7 0
-23 12 -37 26 -13 14 -39 32 -58 40 -18 8 -47 25 -65 40 -35 29 -87 65 -130
91 -15 10 -42 28 -60 40 -17 13 -50 32 -73 43 -23 11 -55 31 -70 44 -15 12
-43 28 -61 34 -19 7 -49 25 -68 42 -19 16 -43 30 -54 30 -10 0 -32 12 -49 26
-17 14 -55 35 -84 46 -28 11 -61 28 -72 38 -11 10 -45 28 -76 39 -31 12 -64
30 -74 41 -10 11 -37 25 -59 31 -23 6 -57 21 -76 35 -20 13 -57 30 -84 38 -27
8 -58 24 -70 35 -11 11 -44 25 -71 31 -28 6 -70 24 -95 40 -25 15 -64 31 -87
35 -24 4 -60 18 -80 32 -21 14 -66 34 -100 44 -35 10 -76 27 -91 38 -16 11
-49 25 -74 30 -25 6 -71 24 -102 41 -32 16 -68 30 -81 30 -13 0 -49 14 -81 31
-32 17 -80 35 -107 40 -26 5 -78 22 -115 38 -37 16 -94 32 -127 36 -33 4 -89
20 -125 35 -36 16 -94 34 -129 40 -36 6 -83 21 -105 32 -21 11 -80 27 -130 34
-50 8 -125 26 -166 39 -41 14 -120 32 -176 40 -55 8 -127 24 -159 35 -33 11
-118 27 -189 35 -72 9 -161 25 -198 36 -40 11 -152 28 -270 39 -112 11 -255
28 -318 40 -77 13 -198 23 -365 30 -281 11 -928 11 -1260 -1z"/>
    <path d="M11579 27950 c-40 -5 -89 -20 -125 -38 -32 -16 -75 -33 -94 -37 -19
-4 -51 -17 -70 -29 -40 -24 -131 -73 -210 -111 -30 -15 -62 -33 -70 -40 -8 -7
-40 -23 -72 -35 -31 -11 -61 -27 -68 -35 -6 -8 -35 -21 -63 -31 -29 -9 -65
-26 -82 -38 -16 -13 -50 -30 -74 -40 -25 -10 -56 -25 -70 -35 -14 -10 -43 -24
-63 -30 -20 -7 -54 -23 -74 -37 -20 -14 -57 -33 -83 -43 -25 -10 -64 -30 -85
-44 -21 -15 -46 -27 -55 -27 -10 0 -37 -13 -62 -29 -25 -15 -62 -34 -82 -40
-20 -7 -53 -24 -73 -37 -20 -14 -61 -34 -90 -45 -28 -11 -57 -26 -64 -34 -6
-8 -35 -22 -63 -31 -29 -9 -65 -27 -82 -40 -16 -12 -49 -27 -71 -33 -23 -6
-53 -20 -67 -31 -15 -12 -52 -30 -83 -40 -32 -11 -65 -27 -74 -35 -9 -8 -45
-26 -80 -40 -35 -14 -70 -31 -79 -39 -9 -8 -41 -24 -73 -36 -31 -11 -61 -27
-68 -35 -6 -8 -35 -22 -63 -31 -29 -9 -64 -27 -79 -40 -15 -12 -44 -28 -65
-34 -21 -7 -58 -25 -83 -40 -25 -15 -61 -33 -81 -39 -20 -6 -51 -23 -70 -36
-18 -14 -50 -30 -71 -35 -20 -6 -50 -21 -65 -34 -16 -13 -48 -29 -73 -36 -24
-6 -58 -23 -75 -36 -17 -13 -50 -30 -74 -39 -23 -8 -54 -23 -69 -33 -15 -11
-50 -27 -79 -36 -28 -10 -64 -26 -78 -38 -14 -11 -46 -26 -71 -34 -24 -7 -59
-24 -77 -37 -17 -14 -50 -30 -72 -37 -22 -7 -53 -22 -70 -35 -16 -12 -53 -30
-82 -39 -28 -9 -57 -23 -63 -31 -6 -8 -42 -26 -80 -40 -38 -14 -74 -33 -80
-41 -7 -7 -35 -21 -63 -29 -27 -8 -64 -26 -81 -39 -18 -13 -49 -29 -70 -34
-21 -6 -53 -23 -72 -37 -19 -14 -56 -33 -83 -41 -27 -8 -54 -21 -61 -29 -6 -8
-37 -24 -67 -35 -30 -11 -69 -31 -86 -44 -18 -13 -50 -29 -73 -35 -22 -6 -49
-20 -59 -31 -10 -11 -43 -27 -72 -36 -29 -9 -66 -26 -81 -39 -15 -13 -48 -28
-72 -35 -25 -6 -54 -21 -66 -31 -12 -11 -45 -29 -74 -40 -29 -11 -67 -31 -84
-44 -17 -13 -48 -26 -69 -30 -20 -4 -53 -20 -73 -36 -20 -16 -51 -31 -70 -35
-18 -3 -55 -21 -81 -40 -26 -19 -55 -34 -64 -34 -8 0 -37 -14 -64 -31 -27 -17
-68 -37 -92 -44 -23 -7 -57 -25 -74 -39 -17 -14 -49 -29 -71 -32 -22 -4 -53
-18 -69 -31 -16 -14 -50 -31 -76 -39 -26 -8 -59 -25 -73 -38 -14 -13 -45 -30
-70 -36 -24 -7 -57 -23 -73 -36 -15 -13 -47 -29 -70 -35 -23 -6 -57 -22 -75
-36 -19 -14 -56 -31 -83 -38 -27 -7 -62 -24 -78 -38 -16 -13 -49 -29 -73 -35
-24 -6 -53 -21 -63 -32 -10 -11 -43 -27 -72 -36 -29 -9 -66 -26 -81 -39 -15
-13 -46 -28 -69 -34 -23 -6 -56 -23 -72 -37 -16 -13 -52 -31 -79 -39 -27 -8
-57 -24 -67 -35 -10 -11 -42 -27 -71 -36 -28 -8 -60 -24 -70 -35 -9 -11 -42
-26 -71 -35 -29 -9 -66 -26 -81 -39 -15 -13 -48 -28 -72 -35 -25 -6 -56 -22
-70 -35 -14 -12 -50 -30 -81 -39 -30 -8 -64 -25 -74 -36 -10 -11 -40 -27 -67
-35 -27 -8 -63 -26 -79 -39 -16 -14 -49 -30 -71 -37 -23 -6 -58 -22 -77 -35
-20 -13 -54 -29 -76 -35 -22 -6 -51 -22 -65 -35 -14 -13 -46 -30 -70 -37 -25
-8 -62 -25 -83 -40 -21 -14 -52 -29 -70 -32 -18 -4 -46 -18 -63 -31 -17 -13
-55 -32 -84 -43 -29 -11 -60 -27 -69 -35 -9 -9 -37 -23 -61 -31 -25 -9 -61
-27 -80 -40 -20 -14 -57 -31 -84 -39 -27 -8 -58 -23 -70 -34 -11 -11 -39 -25
-61 -32 -22 -7 -56 -23 -75 -36 -20 -13 -56 -30 -82 -38 -25 -7 -61 -25 -79
-39 -19 -14 -51 -30 -72 -35 -20 -6 -51 -22 -68 -36 -16 -14 -49 -31 -72 -37
-23 -6 -54 -22 -70 -35 -15 -13 -47 -28 -69 -35 -23 -6 -55 -21 -72 -34 -17
-13 -56 -33 -88 -45 -31 -11 -61 -27 -68 -35 -6 -8 -28 -19 -48 -26 -20 -6
-64 -27 -98 -45 -33 -19 -68 -34 -76 -34 -8 0 -35 -13 -59 -30 -24 -16 -62
-35 -84 -41 -22 -6 -54 -24 -72 -39 -17 -15 -45 -31 -61 -35 -16 -3 -40 -17
-53 -31 -13 -14 -42 -33 -64 -43 -49 -22 -212 -179 -250 -241 -15 -25 -36 -53
-46 -63 -10 -9 -23 -36 -29 -60 -7 -23 -23 -62 -37 -86 -22 -38 -27 -63 -34
-160 -11 -170 -10 -12200 1 -12288 5 -40 20 -94 33 -120 13 -27 32 -72 42
-101 9 -29 24 -56 31 -59 8 -3 24 -24 36 -47 24 -49 187 -211 247 -246 23 -14
60 -39 82 -57 21 -17 52 -34 68 -38 16 -3 41 -17 54 -31 14 -13 47 -31 75 -39
27 -8 56 -23 63 -32 8 -9 37 -26 65 -39 28 -12 68 -34 89 -48 21 -14 45 -26
55 -26 9 0 36 -14 60 -31 23 -17 56 -36 72 -41 16 -6 52 -26 80 -44 27 -19 58
-34 67 -34 9 0 35 -13 57 -29 21 -15 57 -34 79 -41 22 -7 46 -17 53 -23 12 -9
96 -54 217 -115 28 -13 62 -33 77 -44 15 -10 45 -25 66 -32 22 -8 57 -26 79
-40 21 -14 54 -31 73 -37 19 -7 47 -22 62 -35 15 -12 44 -28 65 -34 21 -7 53
-23 70 -37 18 -13 51 -30 74 -38 22 -8 52 -23 67 -33 15 -11 47 -29 72 -41 25
-13 81 -42 125 -66 44 -24 105 -55 135 -70 30 -14 61 -32 70 -40 9 -8 36 -21
60 -30 24 -8 57 -26 74 -39 17 -12 47 -28 67 -35 20 -6 51 -23 69 -36 18 -13
49 -30 69 -36 20 -7 57 -27 83 -44 26 -18 59 -36 75 -39 15 -4 39 -18 53 -31
14 -13 44 -28 67 -34 23 -7 55 -22 70 -35 15 -13 45 -29 65 -35 20 -7 48 -21
62 -32 15 -11 54 -31 88 -45 33 -13 69 -30 78 -39 9 -8 35 -21 59 -30 24 -8
56 -26 72 -40 17 -13 47 -29 68 -35 21 -5 50 -19 64 -30 14 -11 46 -29 72 -40
26 -11 58 -29 72 -40 13 -10 41 -24 61 -31 20 -6 52 -22 69 -36 18 -13 52 -31
75 -39 23 -8 52 -23 63 -34 11 -11 40 -26 63 -34 23 -8 57 -26 75 -40 17 -13
50 -29 71 -35 22 -5 51 -21 65 -35 14 -13 48 -31 74 -40 27 -9 63 -27 80 -40
18 -13 47 -28 65 -34 18 -6 47 -22 65 -34 18 -13 54 -33 82 -46 27 -13 57 -29
65 -36 8 -8 33 -19 55 -26 22 -7 54 -23 70 -35 17 -13 52 -32 80 -44 27 -12
56 -28 65 -36 9 -8 35 -21 59 -30 24 -8 56 -26 72 -39 16 -14 45 -29 64 -35
18 -5 49 -20 67 -34 18 -14 50 -30 71 -35 21 -6 54 -23 73 -37 18 -14 53 -32
76 -41 23 -8 50 -21 59 -30 9 -8 40 -24 69 -35 29 -11 67 -30 84 -43 17 -13
46 -28 63 -34 18 -6 48 -22 65 -36 18 -13 51 -29 74 -35 22 -6 49 -20 59 -31
9 -10 38 -27 64 -36 25 -10 61 -28 78 -41 18 -13 52 -31 75 -39 23 -8 52 -23
63 -34 11 -11 41 -26 65 -35 25 -9 56 -23 70 -33 28 -19 114 -65 208 -111 35
-17 75 -40 89 -51 14 -11 33 -20 42 -20 9 0 45 -18 81 -40 36 -22 72 -40 80
-40 8 0 32 -14 54 -30 21 -16 55 -35 75 -41 20 -7 50 -22 66 -34 17 -12 51
-29 77 -39 25 -9 52 -23 58 -31 7 -8 37 -24 67 -35 30 -11 69 -31 86 -44 18
-13 48 -28 67 -35 19 -6 46 -22 60 -35 14 -13 43 -29 65 -36 22 -7 54 -23 70
-35 17 -13 48 -28 70 -35 22 -7 54 -22 70 -35 17 -12 55 -34 85 -48 30 -15 66
-34 80 -42 14 -8 45 -24 70 -35 25 -11 56 -27 70 -35 14 -8 43 -23 65 -34 42
-20 169 -86 220 -114 17 -9 35 -17 41 -17 6 0 29 -12 50 -27 21 -14 62 -35 89
-45 28 -11 59 -28 70 -38 11 -11 40 -26 63 -34 23 -8 57 -26 75 -40 17 -13 51
-29 73 -35 23 -6 48 -19 55 -28 8 -9 41 -28 74 -43 33 -15 66 -34 73 -43 7 -9
26 -19 42 -22 15 -3 50 -20 76 -37 27 -17 66 -37 87 -44 21 -8 52 -25 68 -38
16 -13 45 -30 66 -36 21 -7 53 -24 71 -37 18 -14 48 -29 66 -34 19 -5 51 -21
72 -35 21 -15 56 -33 77 -40 21 -8 52 -25 68 -38 16 -13 45 -30 66 -37 21 -6
51 -22 66 -35 15 -13 44 -28 63 -33 20 -5 50 -21 68 -35 18 -14 45 -28 60 -32
15 -3 48 -21 74 -39 26 -17 65 -38 87 -45 22 -7 51 -21 65 -31 14 -9 55 -25
90 -34 36 -9 97 -27 137 -41 60 -20 93 -24 205 -26 124 -1 138 0 200 26 36 14
92 33 124 42 32 8 66 21 74 29 9 8 43 24 75 35 33 11 69 29 80 40 12 11 43 27
71 37 27 9 63 26 79 38 17 13 47 28 68 35 21 6 50 23 66 36 16 13 48 31 72 39
24 9 50 22 59 29 8 8 41 26 73 40 32 14 69 34 83 45 14 11 42 25 62 32 20 7
53 23 72 35 19 13 51 29 70 35 19 6 50 23 68 36 18 14 49 29 67 34 19 6 48 21
64 35 16 13 47 31 69 38 22 8 57 26 79 40 21 14 54 31 73 37 19 7 47 22 62 35
15 12 44 28 65 35 21 6 52 23 69 35 17 13 46 29 65 35 19 7 46 21 61 31 15 10
51 30 80 44 29 14 85 43 123 65 39 21 94 50 124 64 29 14 67 36 85 49 17 14
51 30 76 36 24 7 57 22 72 35 15 13 50 31 77 40 27 9 55 22 61 30 7 8 37 24
67 35 30 11 69 31 86 44 18 13 49 29 70 34 20 6 51 22 68 36 16 14 47 30 68
36 21 5 55 24 76 40 21 17 45 30 55 30 9 0 36 14 60 31 23 17 60 37 81 44 22
8 54 25 72 38 17 13 47 29 66 36 19 6 55 24 80 40 25 16 57 32 71 36 14 4 39
18 55 31 17 12 48 27 71 33 23 6 55 24 72 41 20 18 47 32 73 36 22 4 53 17 69
30 15 13 49 33 75 44 26 11 58 29 72 40 13 10 41 24 61 31 20 6 49 22 63 36
15 13 47 30 73 38 25 8 61 25 79 39 17 13 50 29 73 35 22 6 49 20 59 31 9 10
38 27 64 37 25 9 60 28 78 41 17 13 47 27 66 33 19 5 52 21 73 36 22 14 52 30
69 36 16 6 48 23 70 38 22 15 54 31 70 35 17 4 44 17 61 30 17 13 53 32 80 42
27 10 67 31 88 45 21 15 46 27 55 27 9 0 42 18 75 40 32 22 63 40 69 40 6 0
24 11 41 23 17 13 54 32 82 41 29 9 59 25 69 36 9 10 37 26 62 34 24 8 58 26
74 40 16 14 47 30 68 36 21 5 55 24 76 40 21 17 46 30 55 30 9 0 35 12 56 27
21 14 62 35 89 46 28 10 57 25 65 32 8 7 44 26 80 42 36 16 71 37 79 46 7 9
32 22 54 28 22 6 54 21 71 33 17 13 46 28 65 35 19 6 48 22 66 35 17 13 49 29
71 35 21 6 57 25 78 41 22 17 47 30 56 30 10 0 35 12 56 27 21 14 64 37 94 50
30 14 66 33 80 42 14 10 40 23 57 29 18 6 48 22 65 35 18 13 49 30 68 37 19 7
47 21 61 31 14 10 50 28 80 39 30 12 63 30 75 41 11 10 42 26 70 35 27 9 58
25 69 35 11 10 40 26 65 37 25 11 63 31 84 46 21 14 46 26 55 26 9 0 41 15 70
34 29 19 65 37 79 41 15 4 41 17 58 30 17 13 55 33 84 44 29 11 60 27 69 35 9
9 36 22 60 31 23 8 55 24 71 35 16 11 47 27 70 35 23 8 55 26 71 39 16 13 45
30 66 36 21 7 53 23 71 37 17 13 47 29 65 35 17 6 46 21 62 34 17 12 55 34 85
49 30 14 89 44 130 66 41 23 93 50 115 61 22 11 60 33 85 48 25 15 61 33 81
39 20 7 45 21 54 31 10 11 37 25 59 31 23 6 57 23 77 39 20 16 56 34 80 40 24
7 56 23 72 36 15 13 44 28 63 33 20 5 51 22 70 36 18 14 55 32 80 40 26 7 56
23 68 34 12 11 41 27 66 36 24 8 59 27 77 41 19 14 50 30 68 35 19 6 48 21 64
35 16 13 48 31 72 39 24 9 50 22 59 29 8 8 40 25 70 39 30 13 64 34 74 46 11
11 25 21 31 21 7 0 39 18 71 40 33 22 63 40 68 40 26 0 243 206 268 255 11 22
29 51 40 65 10 14 26 53 34 85 9 33 28 80 42 105 l27 45 0 6205 0 6205 -26 50
c-14 28 -34 73 -43 102 -9 28 -24 57 -32 64 -9 7 -25 31 -36 53 -28 56 -211
234 -263 257 -23 10 -48 26 -56 35 -7 8 -31 25 -53 36 -23 12 -54 31 -71 43
-16 13 -47 28 -67 33 -20 6 -56 24 -80 40 -24 17 -59 33 -79 36 -20 4 -44 15
-54 26 -10 11 -42 29 -72 40 -30 11 -71 31 -91 45 -20 14 -43 25 -50 25 -17 0
-72 28 -97 50 -11 10 -43 23 -71 30 -29 6 -62 22 -74 35 -12 13 -44 29 -72 35
-27 7 -61 23 -76 35 -15 13 -47 28 -72 35 -24 6 -58 23 -75 36 -18 13 -55 31
-82 39 -27 8 -58 24 -68 35 -10 11 -41 27 -69 35 -28 9 -71 29 -95 45 -24 17
-54 30 -67 30 -13 0 -38 13 -56 29 -18 15 -56 36 -84 45 -29 9 -59 25 -69 36
-10 11 -41 26 -69 34 -29 9 -61 25 -71 36 -10 11 -42 27 -71 36 -28 8 -60 24
-70 35 -9 11 -42 26 -71 35 -29 9 -66 26 -81 38 -15 13 -50 31 -79 40 -28 9
-57 23 -63 31 -6 8 -33 22 -58 31 -26 10 -61 30 -78 44 -17 15 -49 30 -71 33
-22 4 -57 20 -77 36 -20 16 -55 32 -77 36 -23 4 -55 20 -73 36 -18 15 -51 32
-74 37 -23 6 -55 21 -72 36 -17 14 -50 31 -73 37 -23 6 -56 24 -74 39 -17 15
-50 31 -72 35 -22 4 -56 19 -75 35 -20 15 -55 32 -79 38 -24 6 -52 21 -62 32
-10 11 -44 28 -74 37 -31 8 -69 26 -84 39 -15 13 -47 29 -70 35 -23 6 -54 22
-70 35 -16 13 -49 29 -73 35 -24 6 -61 24 -81 40 -20 16 -54 32 -75 36 -22 3
-53 17 -69 30 -16 14 -50 31 -74 39 -25 7 -61 25 -79 39 -19 14 -52 31 -73 37
-21 6 -50 21 -66 34 -15 13 -47 28 -70 35 -23 6 -58 23 -78 39 -20 16 -53 32
-73 36 -21 3 -51 18 -67 31 -16 14 -49 31 -73 38 -24 8 -63 27 -87 44 -23 17
-50 31 -59 31 -10 0 -35 12 -56 27 -21 14 -66 37 -98 49 -33 13 -67 31 -76 39
-9 8 -39 22 -67 30 -27 8 -58 24 -68 35 -10 11 -42 27 -71 36 -28 8 -59 23
-69 34 -10 11 -40 27 -69 36 -28 9 -64 27 -79 40 -15 13 -47 29 -70 35 -23 6
-60 24 -82 39 -22 16 -56 31 -75 35 -19 4 -51 20 -71 35 -20 16 -56 34 -80 40
-24 7 -56 23 -72 36 -15 13 -45 28 -65 34 -21 5 -53 21 -72 35 -19 14 -53 30
-75 36 -22 6 -55 22 -73 36 -19 14 -56 31 -84 39 -28 7 -63 24 -77 38 -14 13
-43 28 -65 32 -21 3 -53 19 -70 34 -17 16 -51 33 -76 40 -24 7 -57 23 -73 36
-15 13 -47 29 -70 35 -23 6 -56 23 -73 39 -18 15 -49 30 -74 34 -23 3 -58 19
-78 35 -21 16 -50 32 -67 35 -16 4 -48 20 -70 35 -22 16 -58 34 -80 41 -22 7
-49 21 -60 31 -11 9 -46 27 -77 39 -31 11 -67 29 -80 39 -13 10 -46 26 -74 35
-29 9 -60 26 -69 36 -10 11 -37 25 -59 31 -23 6 -59 23 -81 39 -22 15 -57 32
-78 38 -21 6 -53 22 -71 35 -17 14 -48 29 -69 35 -20 6 -55 24 -79 40 -24 17
-62 33 -84 37 -25 4 -51 16 -64 30 -13 14 -46 31 -75 40 -28 8 -64 24 -79 36
-15 12 -47 27 -72 35 -24 7 -59 24 -77 37 -17 14 -50 30 -71 37 -22 7 -60 26
-85 41 -25 16 -52 29 -61 29 -10 0 -37 13 -61 30 -24 16 -62 35 -83 41 -22 6
-55 23 -75 38 -20 15 -54 33 -76 39 -22 6 -56 23 -74 36 -19 14 -50 31 -70 37
-20 6 -50 22 -67 35 -18 13 -53 28 -79 34 -27 6 -61 21 -76 35 -16 13 -45 29
-66 36 -20 6 -57 25 -82 40 -25 16 -53 29 -62 29 -9 0 -39 15 -65 33 -27 19
-72 42 -101 51 -28 9 -57 23 -63 31 -7 8 -37 24 -68 35 -32 12 -64 28 -72 35
-9 8 -38 24 -65 36 -28 12 -61 30 -74 40 -13 11 -42 24 -65 30 -22 6 -61 23
-86 39 -25 15 -56 31 -70 35 -14 3 -55 20 -92 36 -100 45 -286 60 -469 39z
m223 -1739 c13 -11 44 -24 68 -31 24 -7 57 -23 73 -36 15 -13 46 -28 67 -34
21 -6 53 -22 69 -36 16 -13 52 -31 79 -39 27 -8 57 -24 67 -35 9 -10 41 -26
69 -34 29 -9 61 -24 70 -35 10 -11 47 -30 81 -41 34 -11 70 -29 79 -39 10 -10
38 -24 63 -31 25 -7 57 -23 72 -35 14 -12 51 -30 82 -38 30 -9 64 -26 74 -37
10 -11 37 -25 59 -31 23 -6 57 -22 78 -35 20 -14 57 -32 82 -39 25 -8 62 -25
83 -40 21 -14 56 -30 78 -36 22 -6 52 -22 68 -35 15 -13 44 -28 63 -33 19 -5
56 -23 82 -39 26 -16 61 -33 77 -37 17 -3 44 -17 61 -30 17 -13 53 -33 80 -43
27 -10 67 -31 88 -45 21 -15 46 -27 55 -27 9 0 41 -16 71 -35 30 -19 62 -35
71 -35 9 0 36 -13 60 -30 24 -16 62 -35 84 -41 22 -6 55 -22 74 -36 18 -14 54
-32 79 -39 25 -8 60 -25 78 -39 18 -14 48 -28 66 -31 18 -4 49 -19 68 -34 19
-15 53 -33 75 -40 22 -7 54 -22 70 -35 17 -12 48 -28 70 -35 21 -7 56 -25 77
-40 21 -15 57 -32 81 -38 24 -6 51 -20 61 -31 10 -11 41 -28 70 -37 28 -9 61
-25 72 -36 12 -11 43 -26 70 -34 27 -8 65 -25 84 -38 19 -12 53 -29 75 -36 22
-7 52 -22 68 -32 15 -11 54 -30 87 -43 33 -13 72 -32 87 -43 16 -10 42 -22 58
-26 17 -4 50 -20 75 -35 25 -16 61 -34 80 -41 19 -7 49 -23 65 -35 17 -12 46
-27 65 -34 19 -6 52 -23 72 -36 21 -14 59 -33 85 -43 26 -10 66 -31 87 -45 21
-15 46 -27 55 -27 10 0 35 -13 57 -29 21 -15 55 -33 74 -40 19 -6 51 -22 70
-35 19 -12 53 -29 75 -36 22 -7 58 -25 80 -41 22 -15 59 -32 81 -38 23 -6 52
-20 66 -30 14 -11 48 -29 77 -40 29 -11 61 -27 70 -35 9 -9 37 -23 61 -31 25
-9 61 -26 80 -39 19 -13 51 -28 71 -35 20 -6 51 -23 70 -36 18 -14 52 -30 74
-36 22 -6 55 -22 72 -35 18 -14 51 -31 73 -39 22 -8 59 -25 82 -38 24 -14 61
-30 83 -37 22 -7 56 -23 75 -36 19 -13 54 -30 77 -38 22 -8 58 -26 80 -39 21
-14 56 -30 78 -37 22 -7 49 -21 61 -31 11 -10 42 -26 70 -36 27 -9 63 -26 79
-38 17 -12 46 -28 65 -34 19 -6 51 -22 70 -35 19 -12 55 -30 79 -40 24 -9 55
-26 68 -36 13 -10 46 -26 73 -35 27 -9 53 -22 60 -30 6 -7 36 -23 68 -36 31
-12 71 -33 87 -45 17 -12 41 -25 55 -29 14 -4 45 -20 70 -35 25 -15 56 -31 70
-35 14 -4 46 -20 71 -36 25 -16 67 -35 94 -43 26 -8 57 -24 69 -35 11 -10 44
-28 71 -39 28 -10 68 -31 89 -45 21 -15 46 -27 55 -27 9 0 41 -16 71 -35 30
-19 62 -35 71 -35 9 0 34 -12 55 -27 21 -14 61 -35 88 -45 28 -11 62 -28 77
-39 15 -11 46 -26 68 -34 23 -8 56 -25 74 -39 17 -13 51 -29 73 -35 23 -6 53
-20 67 -31 15 -12 50 -29 80 -39 68 -24 110 -45 126 -65 19 -22 0 -42 -47 -51
-20 -4 -46 -15 -58 -26 -11 -10 -49 -30 -84 -44 -35 -14 -71 -31 -80 -40 -9
-8 -35 -21 -59 -30 -23 -8 -55 -24 -71 -35 -16 -11 -47 -27 -70 -35 -23 -8
-55 -26 -71 -39 -16 -14 -53 -31 -82 -40 -29 -9 -62 -25 -72 -36 -10 -11 -41
-27 -69 -35 -27 -8 -60 -24 -72 -36 -12 -11 -45 -26 -74 -34 -29 -8 -65 -25
-79 -39 -14 -13 -46 -30 -71 -36 -24 -7 -57 -23 -73 -36 -15 -13 -47 -29 -70
-35 -23 -6 -54 -21 -69 -34 -15 -13 -49 -31 -77 -40 -27 -8 -57 -25 -66 -36
-10 -10 -40 -26 -67 -34 -26 -7 -63 -25 -80 -39 -18 -13 -50 -28 -72 -31 -21
-4 -53 -20 -71 -36 -17 -15 -50 -32 -73 -37 -23 -6 -55 -21 -72 -36 -17 -14
-49 -30 -71 -36 -23 -6 -59 -24 -81 -40 -21 -16 -53 -32 -71 -36 -17 -3 -47
-19 -67 -35 -19 -15 -52 -31 -73 -34 -20 -4 -53 -20 -72 -35 -19 -15 -55 -33
-79 -39 -24 -6 -57 -21 -73 -34 -15 -13 -48 -31 -73 -39 -25 -8 -62 -27 -83
-41 -21 -14 -52 -29 -70 -33 -18 -3 -44 -17 -59 -30 -15 -12 -52 -30 -82 -38
-29 -9 -59 -23 -66 -32 -18 -21 -64 -44 -89 -44 -11 0 -33 -12 -50 -26 -17
-14 -54 -35 -83 -46 -28 -10 -62 -28 -76 -39 -14 -10 -42 -24 -64 -30 -22 -5
-58 -23 -80 -39 -21 -16 -54 -32 -71 -35 -18 -4 -47 -19 -66 -32 -18 -14 -53
-32 -78 -39 -24 -7 -58 -25 -74 -38 -17 -14 -49 -31 -72 -37 -23 -6 -54 -21
-69 -34 -15 -13 -49 -31 -77 -40 -27 -8 -57 -25 -66 -35 -10 -11 -37 -25 -59
-31 -23 -6 -59 -23 -81 -39 -22 -15 -59 -33 -82 -39 -23 -6 -55 -22 -70 -35
-16 -13 -48 -29 -73 -36 -24 -6 -57 -22 -74 -35 -17 -12 -49 -28 -71 -35 -22
-7 -53 -23 -70 -36 -16 -12 -49 -27 -72 -33 -23 -6 -65 -27 -93 -46 -29 -19
-60 -35 -70 -35 -9 0 -35 -12 -56 -26 -21 -15 -59 -34 -84 -42 -25 -8 -59 -26
-76 -38 -17 -13 -49 -30 -73 -39 -23 -8 -54 -24 -68 -35 -14 -11 -44 -25 -66
-31 -22 -6 -55 -22 -73 -36 -18 -13 -55 -31 -81 -39 -26 -8 -59 -25 -73 -38
-14 -13 -48 -31 -77 -40 -28 -10 -57 -23 -63 -31 -6 -8 -35 -22 -63 -31 -28
-9 -69 -30 -91 -46 -21 -15 -46 -28 -56 -28 -9 0 -38 -14 -64 -30 -26 -17 -69
-39 -95 -49 -25 -10 -64 -30 -85 -44 -21 -15 -46 -27 -55 -27 -9 0 -41 -16
-71 -35 -30 -19 -61 -35 -70 -35 -9 0 -40 -16 -70 -35 -30 -19 -62 -35 -71
-35 -9 0 -34 -12 -55 -27 -21 -14 -61 -35 -88 -45 -27 -10 -63 -30 -80 -43
-17 -13 -44 -27 -61 -30 -16 -4 -51 -20 -76 -36 -25 -16 -61 -34 -80 -40 -19
-7 -46 -22 -61 -35 -15 -12 -52 -30 -82 -38 -29 -9 -59 -22 -66 -31 -6 -8 -37
-24 -68 -35 -32 -12 -73 -32 -93 -45 -20 -13 -51 -27 -70 -33 -19 -5 -56 -23
-83 -41 -28 -17 -57 -31 -65 -31 -9 0 -41 -16 -71 -35 -30 -19 -62 -35 -71
-35 -9 0 -34 -12 -55 -27 -21 -14 -61 -34 -88 -44 -27 -10 -59 -27 -70 -38
-12 -11 -41 -27 -64 -35 -23 -8 -57 -26 -75 -40 -17 -13 -48 -27 -67 -31 -19
-4 -52 -20 -73 -37 -21 -16 -55 -34 -74 -40 -20 -5 -53 -23 -72 -39 -20 -15
-59 -34 -87 -40 -43 -10 -59 -9 -105 6 -30 10 -70 28 -89 41 -19 12 -54 27
-77 34 -23 6 -55 22 -72 35 -16 14 -48 32 -72 40 -24 9 -51 22 -60 31 -9 8
-41 24 -70 35 -29 11 -65 29 -80 40 -15 11 -46 26 -68 34 -23 8 -56 25 -74 38
-17 13 -53 30 -79 37 -26 7 -62 23 -80 36 -18 14 -50 29 -72 35 -22 6 -53 21
-68 34 -15 13 -52 30 -81 39 -29 9 -62 25 -72 36 -10 11 -40 27 -67 35 -26 7
-63 25 -80 38 -18 14 -51 30 -73 37 -22 7 -55 24 -73 37 -18 14 -49 29 -67 34
-19 6 -47 20 -62 33 -15 13 -51 31 -80 40 -28 9 -57 23 -63 31 -7 8 -36 23
-64 34 -29 11 -70 31 -91 45 -21 14 -56 31 -78 37 -22 6 -57 22 -76 35 -20 13
-54 29 -76 35 -22 6 -54 21 -71 34 -17 13 -49 28 -72 34 -22 7 -55 23 -71 37
-16 13 -52 31 -79 39 -27 8 -57 24 -67 35 -10 11 -37 25 -59 31 -23 6 -59 23
-81 38 -22 16 -58 34 -80 41 -22 7 -53 23 -68 36 -15 13 -45 28 -65 34 -21 5
-53 21 -71 35 -19 13 -50 30 -70 36 -20 7 -54 25 -76 40 -22 16 -59 32 -83 38
-23 5 -57 20 -76 34 -18 14 -46 29 -62 33 -16 3 -49 19 -74 35 -25 16 -65 35
-88 43 -23 9 -57 26 -75 40 -17 13 -46 27 -64 31 -18 3 -49 18 -70 32 -21 14
-58 33 -83 41 -25 9 -63 28 -84 44 -21 15 -47 28 -56 28 -10 0 -34 12 -55 26
-21 14 -61 34 -90 45 -29 11 -60 28 -70 39 -10 11 -40 27 -66 34 -26 8 -64 26
-85 40 -22 13 -60 30 -86 36 -26 7 -54 20 -64 31 -9 10 -39 26 -68 35 -28 9
-64 27 -81 40 -16 12 -49 27 -71 33 -23 6 -58 24 -78 40 -20 16 -51 33 -69 36
-18 4 -47 18 -65 32 -17 13 -54 31 -80 38 -27 8 -57 24 -67 34 -9 11 -40 28
-69 37 -28 9 -60 25 -71 35 -11 9 -46 27 -77 39 -32 12 -60 25 -63 30 -6 10
-201 106 -235 115 -14 4 -45 20 -70 35 -25 15 -62 33 -83 40 -21 6 -50 22 -65
34 -15 12 -46 28 -69 34 -23 7 -55 24 -72 38 -16 13 -49 30 -73 38 -24 7 -60
24 -81 39 -21 14 -52 29 -70 32 -18 4 -46 18 -64 31 -17 13 -56 33 -86 44 -30
11 -60 27 -67 35 -6 8 -34 21 -61 30 -27 9 -62 27 -77 40 -15 13 -46 28 -68
34 -23 6 -59 23 -80 38 -22 14 -60 32 -86 38 -26 7 -59 23 -74 34 -15 12 -51
28 -79 37 -29 8 -61 24 -70 34 -10 11 -40 27 -67 35 -27 8 -63 26 -79 39 -16
14 -49 30 -72 37 -23 6 -51 19 -62 29 -27 24 -54 36 -96 44 -20 3 -46 18 -59
31 -13 14 -42 30 -64 36 -23 6 -59 23 -81 39 -22 15 -59 33 -81 39 -23 6 -49
20 -59 31 -9 10 -46 29 -80 40 -34 11 -70 29 -79 39 -10 11 -37 24 -62 30 -24
6 -54 22 -66 36 -12 13 -44 31 -73 39 -28 9 -61 26 -74 40 -12 13 -41 29 -64
35 -23 5 -57 22 -76 36 -19 14 -44 25 -56 25 -12 0 -30 6 -40 14 -17 12 -18
16 -5 31 15 19 145 85 166 85 6 0 19 9 29 20 9 10 38 27 64 36 25 10 64 30 86
45 22 15 58 32 81 38 22 6 49 20 59 31 10 11 41 27 68 35 27 8 64 25 81 38 17
13 51 31 76 39 25 8 63 27 84 42 21 14 46 26 55 26 10 0 39 14 67 32 27 17 68
37 92 44 23 7 57 24 75 38 17 13 49 29 70 34 21 6 54 23 73 37 18 14 51 32 71
39 21 8 63 27 93 43 30 16 64 32 75 36 11 4 34 18 52 31 18 13 49 26 71 29 22
4 48 17 62 32 13 14 45 32 71 39 26 8 66 28 89 45 24 17 51 31 60 31 10 0 35
12 56 27 21 14 60 34 85 44 26 10 69 32 95 49 26 16 55 30 64 30 9 0 36 13 61
29 25 15 61 33 80 40 19 6 54 25 79 41 25 16 52 30 61 30 9 0 34 12 55 27 21
14 61 35 88 45 28 11 63 28 78 40 16 11 45 24 65 30 20 5 51 21 68 34 18 13
52 30 76 37 24 8 66 28 93 45 28 18 57 32 67 32 9 0 34 12 55 26 21 15 59 34
84 42 25 8 59 26 77 39 17 13 49 29 70 35 21 5 53 21 70 34 18 14 53 31 78 39
25 7 60 24 78 38 18 13 50 30 72 37 22 7 52 21 66 31 14 10 51 27 81 39 31 11
61 27 68 35 6 8 35 22 63 31 29 9 66 28 84 41 17 13 49 29 70 34 21 6 54 23
74 39 19 15 52 33 72 38 20 6 51 21 69 35 18 13 51 30 73 37 22 7 54 24 72 37
17 13 49 29 70 35 21 5 53 21 70 34 18 14 53 31 77 38 24 7 59 25 77 38 19 14
55 32 81 42 25 9 52 23 58 31 6 8 35 21 63 31 29 9 61 25 73 35 11 11 42 26
70 36 27 9 63 26 79 39 17 12 48 27 70 33 22 6 57 22 78 36 21 14 57 33 80 41
23 8 58 25 77 38 19 13 49 27 67 31 18 3 49 20 69 36 20 16 53 33 73 39 20 5
52 21 70 35 19 13 58 31 86 40 29 8 58 21 65 30 6 8 37 24 68 35 30 12 67 30
82 40 15 10 52 28 82 40 31 11 61 27 68 35 6 8 35 22 63 31 29 9 66 27 82 39
17 13 47 28 67 34 20 7 48 21 62 32 15 11 54 31 88 45 33 13 69 30 78 39 9 8
35 21 58 29 23 9 57 26 75 40 17 13 50 29 72 35 22 6 56 22 74 35 19 14 55 32
81 41 26 9 56 25 65 35 10 11 37 25 59 31 23 6 59 23 82 39 22 16 54 32 70 36
16 3 49 19 74 34 25 15 62 33 82 39 20 7 48 21 62 32 14 11 50 28 81 39 31 11
67 28 81 39 14 11 49 27 77 37 29 9 62 25 75 35 13 10 40 23 60 30 20 6 53 23
72 39 19 15 53 33 75 40 22 7 51 20 65 29 51 33 166 89 186 90 12 0 32 -8 46
-18z m-9323 -5430 c14 -10 46 -24 71 -31 24 -7 57 -23 73 -36 15 -13 45 -28
66 -34 21 -5 46 -19 56 -30 9 -10 38 -27 64 -36 25 -10 61 -28 78 -41 18 -13
51 -30 73 -38 22 -8 56 -25 77 -39 21 -15 42 -26 48 -26 6 0 37 -15 68 -34 31
-19 74 -40 94 -46 21 -7 58 -25 83 -40 25 -15 62 -33 82 -39 20 -7 47 -20 60
-30 13 -9 46 -26 73 -36 28 -10 60 -26 72 -35 12 -9 43 -25 70 -35 26 -10 68
-31 92 -47 25 -15 52 -28 61 -28 9 0 39 -15 68 -34 29 -19 69 -37 87 -40 19
-4 47 -17 62 -30 15 -13 46 -29 68 -36 22 -6 56 -22 75 -34 19 -12 85 -46 145
-75 61 -29 121 -59 135 -67 14 -7 45 -23 70 -34 25 -12 54 -26 65 -33 49 -28
251 -127 260 -127 5 0 30 -14 55 -30 25 -16 61 -35 80 -41 19 -7 48 -21 63
-31 15 -11 51 -28 79 -39 28 -10 61 -28 73 -39 11 -11 43 -27 70 -37 27 -9 64
-26 82 -39 19 -13 51 -28 71 -35 20 -7 53 -22 72 -35 19 -13 49 -26 65 -30 17
-3 50 -19 75 -35 25 -16 64 -35 86 -42 22 -8 57 -26 78 -41 21 -14 44 -26 51
-26 7 0 39 -14 71 -31 33 -17 76 -37 97 -45 21 -7 51 -23 67 -34 16 -11 46
-27 67 -34 21 -7 56 -25 77 -40 21 -14 55 -30 75 -36 20 -5 52 -21 70 -35 19
-13 50 -30 70 -36 20 -6 51 -22 68 -36 18 -13 50 -30 70 -37 21 -7 60 -28 88
-45 27 -17 56 -31 66 -31 9 0 34 -12 55 -27 21 -14 58 -32 82 -39 23 -7 57
-24 75 -38 17 -13 50 -29 72 -35 22 -6 56 -22 75 -36 19 -14 52 -30 74 -36 22
-6 54 -22 72 -35 18 -14 50 -30 71 -36 21 -5 53 -21 71 -35 18 -13 54 -32 80
-40 26 -9 61 -26 77 -38 17 -13 46 -28 66 -34 20 -6 51 -23 70 -36 18 -14 52
-30 74 -36 22 -6 52 -20 68 -31 15 -11 55 -30 89 -44 34 -13 69 -31 78 -39 9
-8 37 -21 62 -29 25 -7 61 -25 79 -38 19 -14 52 -31 74 -38 22 -7 54 -22 70
-35 17 -12 53 -30 82 -39 28 -9 57 -23 63 -31 6 -8 33 -22 58 -31 26 -10 59
-26 75 -37 15 -10 53 -29 85 -41 31 -13 75 -35 96 -49 21 -15 46 -27 55 -27 9
0 41 -16 71 -35 30 -19 62 -35 71 -35 9 0 35 -14 58 -31 24 -17 62 -36 86 -44
24 -7 57 -22 73 -33 16 -12 54 -30 84 -42 31 -11 61 -27 68 -35 6 -8 33 -21
60 -30 27 -9 60 -25 74 -36 13 -11 44 -26 67 -35 24 -8 64 -27 89 -43 25 -16
57 -31 71 -35 14 -3 43 -17 63 -31 21 -14 61 -34 88 -45 28 -10 58 -26 67 -34
9 -9 37 -22 61 -31 24 -8 57 -26 74 -39 17 -12 49 -29 71 -36 22 -7 55 -23 72
-37 18 -13 54 -30 79 -38 26 -7 56 -23 68 -34 12 -12 43 -27 69 -35 27 -8 62
-25 80 -39 18 -13 50 -30 72 -37 22 -7 54 -23 70 -35 17 -12 51 -29 77 -39 25
-9 52 -24 59 -33 7 -8 36 -25 64 -38 27 -13 67 -40 89 -60 36 -34 38 -39 32
-78 -4 -23 -9 -2368 -12 -5211 -2 -2843 -7 -5173 -11 -5178 -10 -17 -75 0
-102 26 -15 14 -46 32 -70 40 -23 9 -56 27 -73 41 -16 14 -49 30 -73 36 -24 6
-54 22 -66 35 -12 13 -41 29 -63 35 -22 6 -57 24 -76 39 -19 15 -49 31 -67 34
-18 4 -48 20 -68 36 -20 16 -50 32 -68 35 -18 4 -48 19 -67 34 -19 15 -50 33
-69 39 -19 7 -49 24 -68 38 -18 14 -48 30 -66 36 -17 6 -48 23 -67 38 -20 15
-50 31 -68 35 -18 3 -50 22 -73 41 -22 19 -52 34 -65 34 -13 0 -38 13 -56 29
-18 16 -52 34 -75 40 -23 6 -56 23 -72 37 -17 14 -48 30 -68 36 -21 5 -53 21
-70 34 -18 14 -51 31 -74 39 -22 8 -54 26 -70 39 -16 13 -45 30 -66 36 -21 7
-47 21 -58 31 -11 9 -46 27 -77 39 -32 12 -61 26 -64 32 -4 6 -32 21 -62 35
-31 13 -67 33 -80 44 -14 10 -42 24 -63 29 -21 6 -52 22 -69 36 -17 14 -51 32
-75 40 -25 7 -60 24 -78 37 -17 14 -48 30 -68 36 -20 6 -51 23 -69 36 -19 14
-39 25 -45 25 -6 0 -37 16 -70 35 -32 20 -69 38 -82 41 -14 4 -45 21 -71 39
-26 17 -59 35 -73 38 -14 4 -43 18 -65 33 -21 15 -56 33 -76 40 -21 7 -53 25
-72 39 -18 14 -48 30 -67 37 -19 6 -48 22 -66 35 -17 13 -47 29 -67 34 -19 5
-49 21 -65 35 -16 13 -51 31 -77 39 -26 7 -58 25 -73 38 -14 14 -42 29 -62 35
-20 5 -55 24 -79 41 -24 17 -48 31 -54 31 -7 0 -36 15 -65 34 -29 19 -65 37
-79 41 -15 4 -41 17 -58 30 -17 13 -53 33 -80 43 -27 10 -67 31 -88 45 -21 15
-46 27 -55 27 -9 0 -38 16 -65 35 -27 19 -55 35 -61 35 -6 0 -31 13 -56 29
-25 15 -63 34 -85 41 -21 7 -52 23 -69 35 -16 13 -52 32 -80 44 -27 12 -56 28
-65 35 -8 7 -36 20 -62 29 -26 9 -62 27 -80 40 -18 13 -48 29 -65 35 -18 6
-48 22 -65 36 -18 13 -51 29 -74 35 -22 6 -51 22 -64 36 -12 13 -39 30 -59 36
-20 6 -56 24 -81 39 -25 15 -62 33 -82 39 -20 7 -42 19 -50 28 -7 9 -38 27
-68 40 -30 14 -62 31 -70 39 -9 7 -35 20 -58 28 -23 9 -57 26 -75 39 -17 14
-49 30 -70 37 -21 6 -51 23 -66 36 -16 14 -51 31 -76 39 -26 7 -57 23 -69 34
-12 11 -41 27 -64 35 -23 8 -57 26 -75 39 -17 14 -48 30 -68 36 -20 6 -51 23
-70 36 -18 14 -50 30 -71 35 -20 6 -50 22 -67 36 -16 13 -51 31 -77 39 -26 7
-58 25 -73 39 -14 13 -44 29 -67 35 -22 6 -49 20 -59 31 -9 10 -38 27 -64 36
-25 10 -57 27 -71 40 -14 12 -45 28 -69 34 -24 6 -60 24 -80 40 -20 15 -53 33
-73 39 -20 7 -48 21 -61 31 -13 11 -49 28 -79 40 -31 11 -63 29 -72 39 -9 10
-37 24 -61 31 -24 7 -54 23 -66 36 -13 13 -41 29 -63 35 -23 6 -56 22 -74 36
-18 14 -50 29 -70 35 -20 5 -48 21 -62 34 -14 13 -44 30 -68 38 -23 8 -57 27
-76 41 -18 14 -48 30 -67 37 -19 6 -47 21 -64 33 -16 12 -46 28 -65 35 -19 7
-44 22 -56 32 -12 10 -45 28 -75 39 -30 11 -61 27 -69 34 -9 8 -38 24 -64 36
-27 11 -69 34 -94 50 -25 16 -54 29 -63 29 -9 0 -36 15 -58 34 -23 19 -55 37
-71 41 -17 4 -37 17 -45 29 -13 20 -15 664 -15 5130 0 2809 2 5112 6 5117 8
14 23 11 53 -10z m18616 10 c7 -12 7 -10225 -1 -10244 -3 -8 -24 -23 -47 -33
-23 -11 -53 -29 -68 -42 -15 -12 -44 -28 -66 -36 -21 -7 -76 -35 -123 -61 -47
-27 -107 -60 -135 -73 -27 -14 -63 -35 -80 -47 -16 -12 -42 -25 -57 -29 -14
-3 -40 -17 -56 -31 -16 -13 -51 -34 -77 -45 -26 -11 -59 -29 -73 -40 -14 -11
-45 -25 -68 -31 -23 -6 -53 -22 -65 -35 -13 -14 -46 -31 -75 -40 -28 -8 -59
-23 -69 -34 -10 -11 -39 -27 -66 -35 -28 -9 -62 -27 -77 -39 -15 -13 -45 -29
-67 -36 -22 -7 -52 -23 -67 -36 -15 -12 -44 -28 -65 -34 -21 -7 -54 -25 -74
-40 -19 -15 -52 -33 -72 -38 -21 -6 -51 -22 -68 -36 -16 -14 -49 -31 -72 -37
-23 -6 -57 -24 -75 -40 -18 -16 -41 -29 -51 -29 -10 0 -38 -13 -62 -30 -24
-16 -65 -37 -90 -45 -26 -9 -55 -25 -65 -36 -9 -11 -41 -26 -70 -35 -28 -8
-60 -24 -69 -34 -10 -11 -41 -27 -68 -35 -27 -8 -65 -26 -83 -40 -19 -14 -53
-33 -76 -41 -23 -8 -52 -23 -63 -34 -11 -11 -40 -26 -63 -34 -24 -9 -56 -25
-72 -36 -15 -11 -50 -29 -76 -41 -27 -11 -58 -28 -69 -38 -11 -10 -37 -24 -57
-30 -20 -7 -47 -21 -61 -31 -13 -10 -48 -30 -78 -44 -30 -14 -65 -32 -79 -40
-14 -8 -45 -25 -70 -37 -126 -62 -168 -84 -195 -104 -16 -13 -48 -28 -70 -35
-22 -7 -49 -21 -60 -30 -11 -10 -44 -28 -74 -39 -30 -11 -63 -29 -75 -39 -12
-11 -39 -25 -61 -32 -22 -7 -54 -24 -71 -36 -17 -13 -46 -29 -65 -35 -19 -7
-49 -23 -66 -36 -18 -13 -52 -31 -75 -39 -23 -8 -52 -23 -63 -34 -11 -10 -44
-28 -74 -39 -30 -11 -63 -29 -75 -39 -12 -11 -39 -25 -61 -32 -22 -7 -55 -24
-73 -37 -18 -14 -49 -29 -69 -35 -20 -5 -53 -23 -72 -38 -20 -16 -53 -32 -74
-36 -21 -3 -51 -17 -67 -30 -15 -14 -47 -31 -70 -39 -23 -8 -55 -26 -71 -40
-17 -13 -49 -29 -72 -36 -23 -6 -53 -21 -67 -34 -14 -14 -45 -31 -70 -40 -24
-9 -54 -24 -65 -35 -11 -11 -40 -26 -63 -34 -23 -8 -57 -26 -75 -39 -17 -13
-47 -29 -66 -36 -19 -6 -50 -23 -68 -37 -19 -14 -51 -31 -71 -36 -20 -6 -49
-20 -63 -32 -15 -13 -42 -28 -60 -35 -19 -7 -47 -20 -64 -29 -16 -9 -53 -27
-80 -41 -28 -15 -64 -35 -80 -47 -17 -12 -46 -26 -65 -33 -19 -6 -51 -22 -70
-35 -19 -12 -53 -29 -75 -36 -22 -7 -53 -22 -70 -34 -16 -12 -46 -29 -65 -36
-19 -8 -59 -29 -89 -47 -30 -18 -61 -33 -68 -33 -7 0 -27 -13 -45 -29 -18 -15
-49 -33 -69 -40 -20 -6 -51 -23 -69 -36 -19 -14 -42 -25 -51 -25 -9 0 -40 -15
-68 -34 -28 -19 -67 -40 -88 -47 -20 -6 -57 -25 -82 -40 -25 -16 -50 -29 -56
-29 -6 0 -35 -16 -65 -35 -30 -19 -62 -35 -70 -35 -9 0 -40 -16 -70 -35 -30
-20 -69 -39 -87 -44 -17 -5 -47 -20 -65 -33 -18 -14 -54 -32 -80 -42 -25 -9
-52 -23 -58 -31 -7 -8 -37 -24 -68 -35 -32 -12 -66 -30 -77 -40 -11 -11 -41
-26 -65 -35 -24 -9 -54 -24 -65 -35 -11 -11 -40 -26 -63 -34 -23 -8 -57 -26
-75 -39 -17 -14 -50 -30 -72 -37 -22 -7 -53 -23 -68 -36 -15 -13 -47 -29 -70
-36 -23 -6 -57 -24 -74 -39 -18 -16 -50 -33 -71 -39 -21 -5 -47 -19 -57 -30
-9 -10 -39 -27 -66 -35 -28 -9 -63 -28 -79 -41 -16 -14 -51 -31 -78 -39 -27
-8 -57 -24 -67 -35 -10 -11 -36 -25 -57 -30 -21 -6 -53 -24 -72 -40 -36 -32
-83 -46 -104 -32 -8 5 -13 20 -12 33 0 13 3 2364 5 5224 4 5168 5 5200 24
5226 12 16 41 34 69 43 27 9 64 28 83 42 18 13 51 29 72 35 21 5 59 23 84 40
26 16 54 29 62 29 9 0 40 15 71 34 30 19 73 39 96 45 22 6 49 20 59 31 9 10
39 26 65 35 26 9 62 27 81 41 18 13 51 29 73 35 22 6 54 22 72 35 18 14 48 29
67 35 19 5 51 22 71 38 19 16 55 33 79 39 24 6 52 21 62 32 10 11 40 27 67 35
26 7 63 26 82 40 19 14 51 31 72 37 21 5 53 21 71 35 17 14 53 31 80 39 26 8
56 23 68 34 12 11 42 26 67 34 25 7 61 25 79 39 19 14 50 29 69 35 19 5 57 23
84 41 28 17 57 31 67 31 9 0 34 12 55 27 21 14 62 35 89 45 28 11 59 28 71 39
11 10 41 25 66 33 25 7 61 25 79 39 19 13 48 28 65 31 17 4 55 23 85 41 29 19
60 35 69 35 9 0 40 16 70 35 30 19 62 35 70 35 9 0 37 14 62 30 25 17 66 36
91 44 25 7 60 25 78 39 19 13 48 28 66 32 18 3 49 18 69 31 20 14 61 34 90 45
28 11 57 26 64 34 6 8 34 21 61 30 27 9 63 28 79 41 15 14 49 31 74 38 25 8
57 23 72 35 15 11 43 25 64 31 20 6 54 21 75 35 20 14 59 34 86 44 26 10 60
28 75 40 15 11 43 25 64 31 21 6 54 24 75 40 21 17 47 30 59 30 12 0 46 16 76
35 30 19 62 35 71 35 8 0 37 14 63 31 27 17 72 39 101 50 29 11 58 26 65 34 7
8 37 24 68 35 30 12 68 31 83 44 15 13 43 26 62 30 19 3 42 15 52 26 10 11 40
27 67 35 26 7 63 26 82 40 19 14 52 31 73 37 21 6 56 23 78 38 22 16 59 34 81
39 23 6 47 18 55 27 17 20 63 44 87 44 10 0 39 14 64 30 25 17 66 36 91 44 25
7 60 25 78 38 19 14 50 31 69 37 19 6 51 22 70 35 19 12 53 29 75 36 22 7 53
23 68 36 15 13 47 28 69 35 23 6 55 21 72 34 17 12 49 28 71 35 22 7 58 25 80
41 22 15 58 32 81 38 22 6 49 20 59 31 9 10 40 27 69 36 28 9 60 24 71 34 28
24 60 40 83 40 11 0 36 11 57 25 20 14 60 34 87 45 28 10 58 26 68 35 9 8 45
26 80 40 35 14 73 34 84 44 12 11 40 24 63 30 23 7 55 22 70 35 16 13 45 28
65 34 21 6 51 20 67 31 16 12 49 28 72 36 24 9 58 27 76 41 19 14 51 30 71 36
20 6 51 21 68 35 18 13 48 28 67 34 19 5 52 21 73 35 21 15 59 33 85 40 25 8
54 23 64 34 10 11 41 27 69 35 28 9 69 28 91 44 22 16 54 32 72 35 18 4 49 19
70 33 20 14 56 31 80 38 23 7 57 25 74 39 17 14 50 31 74 37 24 6 51 19 61 30
9 10 39 26 68 35 28 9 65 27 82 40 18 13 50 28 73 33 22 5 55 18 73 30 37 23
44 25 53 12z"/>
  </g>
</svg>