<svg xmlns="http://www.w3.org/2000/svg" viewBox="0 0 4096.000000 4096.000000">
  <g transform="translate(0.000000,4096.000000) scale(0.100000,-0.100000)" fill="#f4f5f7" stroke="none">
    <path d="M19810 40509 c-457 -19 -836 -40 -950 -53 -69 -8 -179 -17 -245 -21
-66 -3 -160 -12 -210 -20 -49 -8 -124 -16 -165 -20 -71 -5 -185 -20 -500 -65
-74 -11 -157 -22 -185 -26 -27 -3 -94 -14 -147 -25 -53 -10 -112 -19 -130 -19
-18 0 -69 -9 -113 -19 -44 -10 -109 -22 -145 -26 -36 -3 -87 -12 -115 -20 -27
-7 -72 -16 -100 -20 -27 -3 -86 -14 -130 -25 -44 -10 -105 -23 -135 -28 -55
-10 -136 -28 -260 -58 -36 -9 -90 -20 -120 -24 -30 -4 -77 -15 -105 -23 -55
-18 -145 -41 -247 -62 -37 -8 -82 -21 -100 -28 -18 -8 -57 -17 -87 -21 -30 -4
-66 -13 -80 -21 -15 -7 -49 -16 -76 -20 -28 -4 -67 -14 -87 -22 -20 -8 -63
-21 -95 -28 -122 -29 -190 -48 -233 -65 -25 -10 -62 -21 -84 -24 -21 -4 -52
-13 -70 -21 -17 -7 -71 -25 -121 -40 -49 -15 -108 -34 -130 -42 -22 -8 -62
-21 -90 -28 -27 -7 -72 -21 -100 -30 -27 -10 -61 -21 -75 -25 -29 -9 -73 -25
-145 -50 -86 -31 -148 -51 -199 -66 -27 -7 -68 -23 -91 -34 -23 -11 -49 -20
-58 -20 -9 0 -34 -9 -54 -20 -21 -11 -46 -20 -57 -20 -10 0 -33 -9 -50 -19
-17 -10 -47 -22 -66 -26 -19 -4 -40 -11 -46 -16 -10 -9 -29 -16 -179 -68 -33
-12 -64 -26 -69 -31 -6 -6 -16 -10 -24 -10 -14 0 -95 -32 -177 -70 -22 -10
-51 -22 -65 -25 -14 -4 -39 -16 -56 -26 -17 -11 -37 -19 -43 -19 -7 0 -38 -12
-69 -26 -31 -14 -75 -34 -97 -44 -22 -10 -65 -30 -96 -44 -31 -14 -63 -26 -71
-26 -9 0 -21 -7 -28 -15 -7 -8 -17 -15 -24 -15 -6 0 -34 -11 -63 -25 -29 -14
-79 -37 -110 -51 -32 -14 -65 -30 -73 -35 -8 -5 -22 -12 -30 -15 -40 -17 -147
-66 -160 -75 -8 -5 -26 -14 -40 -20 -121 -54 -530 -257 -640 -317 -30 -17 -89
-48 -130 -69 -84 -44 -118 -62 -140 -75 -8 -5 -33 -17 -55 -28 -23 -10 -44
-23 -49 -27 -7 -7 -114 -68 -191 -109 -16 -9 -51 -28 -76 -42 -105 -60 -276
-159 -318 -184 -25 -15 -59 -34 -76 -42 -16 -9 -50 -30 -75 -46 -25 -16 -56
-36 -70 -42 -25 -13 -36 -20 -150 -93 -36 -23 -92 -59 -125 -80 -33 -21 -93
-60 -133 -87 -41 -26 -76 -48 -78 -48 -2 0 -32 -19 -66 -42 -34 -24 -74 -49
-90 -58 -15 -8 -78 -49 -140 -91 -62 -41 -124 -83 -138 -92 -14 -9 -50 -34
-80 -57 -30 -22 -86 -61 -124 -87 -38 -27 -84 -59 -104 -73 -19 -14 -45 -32
-57 -40 -48 -33 -103 -72 -155 -110 -30 -23 -66 -48 -80 -58 -14 -9 -50 -36
-80 -59 -75 -58 -82 -63 -190 -145 -52 -39 -118 -90 -147 -112 -29 -23 -93
-72 -143 -111 -123 -95 -216 -169 -475 -380 -236 -192 -267 -219 -529 -454
-94 -84 -200 -177 -236 -206 -80 -64 -191 -168 -475 -445 -236 -231 -248 -243
-484 -485 -155 -159 -225 -234 -352 -376 -37 -41 -80 -88 -95 -105 -29 -31
-106 -116 -155 -170 -21 -24 -145 -171 -200 -239 -8 -9 -24 -27 -35 -40 -12
-13 -84 -99 -160 -192 -75 -92 -143 -172 -149 -178 -16 -13 -239 -289 -295
-365 -25 -33 -53 -70 -63 -82 -56 -71 -161 -209 -222 -293 -38 -53 -94 -126
-123 -163 -29 -37 -60 -80 -70 -96 -9 -16 -33 -49 -52 -75 -19 -26 -44 -60
-56 -76 -11 -17 -42 -61 -68 -99 -117 -168 -255 -374 -271 -405 -9 -19 -21
-39 -26 -45 -5 -6 -32 -47 -61 -91 -90 -140 -141 -219 -165 -256 -12 -19 -23
-40 -23 -46 0 -6 -7 -16 -15 -23 -9 -7 -32 -40 -51 -74 -20 -34 -57 -97 -84
-141 -27 -44 -58 -96 -70 -115 -11 -19 -24 -42 -29 -50 -5 -8 -33 -58 -62
-110 -29 -52 -63 -110 -76 -129 -12 -18 -34 -56 -48 -85 -14 -28 -35 -67 -47
-86 -38 -62 -67 -114 -88 -155 -11 -22 -41 -78 -67 -125 -59 -108 -131 -246
-150 -285 -8 -16 -18 -37 -23 -45 -5 -8 -34 -67 -65 -130 -31 -63 -60 -123
-65 -132 -33 -60 -156 -321 -280 -593 -10 -22 -32 -69 -48 -105 -17 -36 -47
-101 -67 -145 -20 -44 -45 -98 -55 -120 -10 -22 -33 -74 -50 -115 -17 -41 -37
-88 -45 -105 -8 -16 -17 -43 -21 -60 -4 -16 -16 -43 -26 -60 -10 -16 -18 -39
-18 -50 0 -11 -9 -33 -20 -50 -11 -16 -20 -37 -20 -45 0 -8 -11 -37 -25 -65
-13 -27 -25 -56 -25 -63 0 -7 -9 -30 -20 -52 -11 -22 -20 -47 -20 -57 0 -11
-9 -36 -19 -57 -11 -21 -23 -52 -27 -69 -3 -18 -14 -48 -24 -67 -18 -35 -28
-62 -57 -150 -8 -25 -24 -70 -35 -100 -11 -30 -28 -77 -37 -105 -10 -27 -25
-72 -35 -100 -9 -27 -23 -70 -31 -95 -13 -42 -23 -72 -66 -195 -10 -27 -29
-90 -44 -140 -15 -49 -35 -112 -45 -140 -36 -102 -126 -413 -154 -535 -7 -30
-20 -80 -29 -110 -9 -30 -27 -100 -40 -155 -14 -55 -30 -120 -37 -145 -6 -25
-16 -65 -21 -90 -6 -25 -19 -76 -29 -115 -28 -106 -60 -242 -75 -320 -7 -38
-17 -81 -23 -95 -5 -14 -13 -52 -17 -85 -4 -33 -11 -68 -17 -78 -5 -10 -14
-46 -19 -80 -5 -34 -18 -100 -28 -147 -11 -47 -24 -114 -29 -150 -27 -175 -44
-271 -58 -331 -8 -37 -19 -104 -24 -150 -4 -46 -15 -122 -24 -169 -17 -92 -42
-272 -57 -415 -6 -49 -19 -148 -29 -220 -11 -71 -22 -173 -25 -225 -4 -52 -13
-138 -21 -190 -7 -52 -18 -178 -24 -280 -6 -102 -15 -221 -20 -265 -5 -44 -14
-192 -20 -330 -5 -137 -12 -290 -15 -340 -16 -249 -22 -677 -14 -995 11 -474
37 -1081 49 -1155 5 -33 15 -141 20 -240 6 -99 17 -220 25 -270 8 -49 17 -142
20 -205 4 -63 15 -169 25 -235 10 -66 22 -156 25 -200 3 -44 12 -109 20 -145
7 -36 16 -105 20 -155 4 -49 16 -130 26 -180 10 -49 19 -108 19 -130 0 -22 9
-76 19 -120 10 -44 22 -111 26 -150 3 -38 15 -103 26 -144 10 -41 19 -86 19
-100 0 -15 8 -55 18 -91 11 -36 22 -93 26 -128 4 -34 13 -80 21 -102 8 -22 17
-68 21 -102 3 -35 12 -77 19 -95 8 -17 19 -66 25 -108 6 -42 18 -91 25 -108 7
-18 16 -54 20 -82 4 -27 15 -77 25 -110 23 -78 47 -173 65 -255 8 -36 26 -105
39 -155 14 -49 32 -117 41 -150 8 -33 22 -82 30 -110 8 -27 21 -75 29 -105 8
-30 20 -75 26 -100 7 -25 21 -72 31 -105 10 -34 23 -81 28 -105 6 -25 28 -98
50 -164 23 -65 41 -123 41 -129 0 -7 8 -34 19 -62 28 -76 51 -145 66 -200 15
-55 39 -126 67 -197 10 -26 18 -55 18 -65 0 -10 7 -31 16 -48 9 -16 22 -50 30
-75 12 -42 26 -80 90 -247 14 -38 32 -86 40 -108 8 -22 19 -49 26 -60 6 -11
15 -33 19 -50 4 -16 24 -68 44 -115 20 -47 52 -125 71 -175 19 -49 41 -102 49
-117 8 -14 15 -32 15 -40 0 -7 12 -35 25 -63 14 -27 25 -57 25 -65 0 -8 9 -28
20 -45 11 -16 20 -36 20 -43 0 -12 18 -56 65 -157 7 -16 28 -64 45 -105 34
-81 49 -113 105 -235 20 -44 53 -114 72 -155 19 -41 38 -82 44 -90 5 -8 12
-22 15 -30 10 -29 43 -97 171 -353 70 -142 134 -270 141 -285 7 -15 17 -34 22
-42 5 -8 30 -55 55 -105 25 -49 56 -108 68 -130 13 -22 43 -76 67 -120 24 -44
52 -96 62 -115 11 -19 29 -51 41 -71 12 -20 54 -92 92 -159 39 -67 80 -138 92
-158 12 -20 31 -53 42 -72 29 -48 43 -70 66 -105 27 -40 41 -64 60 -100 9 -16
29 -50 44 -75 16 -25 55 -90 87 -145 31 -55 65 -111 74 -125 10 -14 43 -65 75
-115 32 -49 72 -110 88 -135 57 -85 192 -283 212 -310 11 -15 46 -67 78 -114
32 -47 77 -111 100 -141 23 -30 65 -87 92 -126 28 -38 84 -115 125 -171 41
-55 84 -113 95 -128 59 -83 243 -318 444 -568 74 -92 162 -201 195 -242 60
-75 202 -240 286 -335 25 -27 71 -79 102 -115 31 -36 73 -84 95 -106 21 -23
74 -81 118 -130 284 -315 857 -898 1100 -1120 67 -60 163 -147 214 -194 52
-47 115 -105 141 -130 26 -25 91 -83 145 -130 54 -47 119 -103 144 -126 25
-23 100 -85 166 -139 66 -53 138 -114 160 -134 50 -46 355 -294 470 -381 47
-36 123 -94 170 -130 46 -36 101 -77 122 -93 40 -29 45 -32 140 -105 67 -52
213 -158 248 -182 26 -17 132 -91 221 -152 34 -24 106 -73 160 -111 54 -37
131 -89 169 -117 39 -27 84 -57 100 -66 17 -9 68 -41 115 -72 47 -30 101 -65
120 -77 19 -12 60 -38 90 -57 30 -19 69 -43 85 -52 17 -9 50 -30 75 -46 25
-17 59 -37 75 -45 17 -9 50 -29 75 -45 25 -17 59 -37 75 -46 17 -8 50 -27 76
-42 25 -15 79 -46 120 -70 40 -24 81 -47 89 -52 104 -60 169 -97 185 -106 11
-6 40 -23 65 -37 25 -15 63 -35 85 -47 22 -11 76 -40 120 -65 44 -24 98 -54
120 -65 22 -11 54 -28 70 -37 68 -37 202 -106 345 -178 63 -31 123 -61 133
-66 24 -13 45 -23 97 -47 25 -11 90 -41 145 -67 55 -26 129 -61 165 -77 36
-17 85 -39 110 -51 25 -11 65 -30 90 -40 25 -11 63 -28 85 -38 22 -10 63 -28
90 -39 28 -12 73 -33 100 -45 28 -13 61 -27 75 -31 14 -3 31 -11 38 -17 17
-13 115 -55 162 -69 19 -5 40 -14 45 -18 6 -4 48 -22 95 -40 47 -17 102 -40
122 -51 20 -10 43 -19 50 -19 8 0 30 -9 51 -19 20 -10 49 -22 64 -26 16 -3 46
-14 68 -24 43 -20 84 -35 155 -58 25 -8 65 -23 90 -32 56 -23 102 -39 160 -58
25 -8 59 -21 75 -28 31 -15 75 -30 240 -85 55 -18 120 -41 145 -51 25 -10 60
-21 79 -25 18 -3 52 -15 75 -25 22 -10 49 -19 59 -19 11 0 33 -7 50 -15 18 -8
55 -21 82 -29 53 -15 117 -36 200 -66 28 -10 70 -23 95 -30 25 -6 74 -20 110
-30 36 -11 92 -26 125 -35 33 -9 89 -25 125 -35 103 -30 180 -51 243 -65 32
-7 75 -20 95 -28 20 -8 59 -18 87 -22 27 -4 61 -13 75 -20 14 -7 45 -16 70
-20 25 -3 74 -15 110 -25 97 -27 196 -51 277 -66 40 -7 80 -17 90 -22 10 -5
41 -13 68 -16 28 -4 75 -14 105 -22 30 -9 88 -22 130 -29 87 -15 198 -38 321
-65 47 -11 99 -20 115 -20 16 0 58 -7 94 -15 36 -8 110 -22 165 -30 55 -7 129
-21 165 -29 36 -9 83 -16 105 -16 22 0 69 -7 105 -16 63 -15 134 -25 410 -59
74 -9 194 -25 265 -35 72 -10 175 -22 230 -25 55 -4 145 -13 200 -20 55 -8
192 -19 305 -25 113 -6 237 -15 275 -21 39 -5 187 -14 330 -19 143 -5 406 -15
585 -21 255 -10 392 -10 635 0 171 7 423 16 560 21 138 5 318 16 400 24 83 8
213 18 290 21 77 3 181 13 230 20 50 8 146 17 215 21 69 3 157 12 195 20 39 7
122 18 185 24 63 6 149 17 190 25 41 8 109 19 150 24 74 9 161 23 375 61 61
11 137 22 170 25 33 4 83 13 110 20 28 8 75 17 105 20 30 4 87 15 125 25 39
10 96 21 129 25 32 4 75 13 96 20 21 7 64 17 96 21 33 4 88 15 124 25 36 11
79 19 96 19 17 0 50 7 75 15 24 8 78 21 119 29 80 15 181 38 270 63 30 9 82
22 115 29 63 13 135 32 245 64 112 33 183 51 246 64 34 7 67 17 74 21 8 5 45
16 84 26 39 9 85 22 101 27 81 29 164 54 200 61 22 4 56 15 75 23 19 9 76 28
125 43 195 59 251 78 283 91 18 8 50 18 70 23 20 6 75 24 122 41 47 17 105 37
130 44 25 7 61 20 80 29 19 8 69 27 110 42 41 15 96 36 122 46 26 11 53 19 60
19 7 1 31 9 53 20 22 11 46 19 52 20 14 0 127 43 189 71 23 11 47 19 54 19 8
0 32 8 54 18 71 32 150 63 186 74 19 6 44 17 55 24 11 8 27 14 36 14 9 0 37
11 63 25 26 14 51 25 56 25 5 0 49 18 97 41 131 61 202 94 258 119 28 12 73
32 100 45 28 12 73 33 100 45 44 20 154 71 280 131 22 10 72 32 110 50 85 38
497 244 563 281 26 15 54 30 62 33 8 3 26 12 40 20 14 8 48 25 75 39 28 14 66
36 85 48 19 12 51 30 70 40 19 10 71 38 115 63 44 24 96 53 115 63 19 11 53
29 75 41 22 13 58 33 80 47 22 13 58 33 80 44 22 11 58 31 80 45 22 13 58 33
80 45 22 11 60 34 85 50 25 16 52 33 60 37 8 3 45 26 81 50 36 24 69 43 73 43
3 0 52 30 108 67 57 36 119 76 138 88 41 26 234 152 335 218 66 44 225 152
318 215 23 16 67 45 97 65 30 20 80 55 110 77 30 22 66 48 80 57 14 9 45 33
70 53 46 36 54 42 150 107 30 20 63 44 72 52 9 9 33 27 53 41 20 14 74 54 120
90 46 36 125 97 176 135 117 89 465 370 544 440 33 29 89 77 125 106 36 29 85
71 110 94 25 22 79 69 119 105 41 36 122 107 180 159 58 52 140 124 181 160
305 269 927 891 1280 1280 47 51 101 110 120 130 32 33 159 178 250 285 19 23
68 79 110 126 42 47 94 108 116 135 21 28 41 52 44 55 3 3 17 21 31 40 15 19
37 47 50 62 13 15 66 80 116 145 216 276 270 346 311 400 24 32 98 132 165
221 67 90 132 178 145 195 12 18 33 48 47 67 14 19 54 76 90 125 59 83 197
283 271 394 17 25 56 84 87 131 32 47 72 108 90 135 19 28 54 82 78 120 24 39
50 80 56 90 7 11 22 36 33 55 11 19 34 55 50 80 16 25 36 59 45 75 8 17 28 50
45 75 40 61 115 187 183 303 20 36 37 70 37 75 0 5 7 15 16 22 8 8 22 27 30
44 8 17 24 49 37 71 13 22 49 90 81 150 53 100 114 211 158 290 9 17 30 59 47
95 18 36 36 72 42 80 5 8 16 31 24 50 9 19 20 42 25 50 6 8 15 26 20 40 6 14
25 52 42 85 49 91 191 380 233 470 71 155 85 185 109 238 13 28 43 93 65 142
23 50 50 108 60 130 47 100 61 133 76 175 40 108 52 137 68 167 9 18 17 38 17
44 0 7 8 31 19 53 20 45 85 209 108 271 8 22 23 58 34 81 10 22 19 46 19 52 0
6 9 31 19 54 11 24 31 77 46 118 15 41 35 94 46 118 10 23 19 50 19 59 0 9 8
34 19 57 21 48 47 122 66 187 7 26 20 60 29 77 9 17 16 38 16 47 0 9 9 37 19
63 24 59 59 166 70 212 5 19 19 64 32 100 12 36 30 88 39 115 10 28 25 73 35
100 9 28 23 77 30 110 8 33 20 78 29 100 8 22 15 50 16 61 0 12 7 41 16 65 8
24 22 71 29 104 23 97 44 176 65 245 34 116 52 184 65 250 6 36 19 88 28 115
21 68 46 169 58 235 5 30 16 76 24 101 9 25 22 79 30 120 7 41 18 92 24 114
13 55 40 193 56 290 7 44 20 109 28 145 24 102 48 227 62 325 7 50 20 117 29
150 9 32 16 80 16 105 0 25 7 74 15 110 8 36 22 121 30 190 9 69 22 157 30
197 8 40 15 96 15 125 0 29 8 98 19 153 10 55 22 154 25 220 4 66 14 158 21
205 8 47 17 144 20 215 4 72 13 189 21 260 7 72 18 238 24 370 6 132 15 310
21 395 16 251 22 1015 10 1200 -6 91 -15 307 -21 480 -6 173 -20 412 -30 530
-11 118 -22 265 -25 325 -4 61 -12 151 -20 200 -7 50 -16 131 -20 180 -3 50
-14 151 -25 225 -11 74 -24 167 -29 205 -28 213 -43 316 -52 365 -6 30 -15 89
-20 130 -5 41 -17 111 -26 155 -9 44 -21 118 -28 165 -13 96 -37 222 -65 355
-33 156 -52 248 -62 305 -5 30 -15 78 -23 105 -8 28 -17 70 -20 95 -4 25 -15
77 -25 115 -35 132 -61 240 -69 285 -4 25 -15 68 -24 95 -28 88 -67 240 -67
263 0 12 -9 48 -19 79 -11 32 -23 78 -26 103 -4 25 -13 56 -20 70 -7 14 -16
41 -19 60 -7 37 -38 146 -63 220 -8 25 -21 70 -28 100 -7 30 -21 78 -31 105
-9 28 -24 73 -34 100 -9 28 -27 79 -39 115 -12 36 -26 81 -31 101 -5 19 -16
49 -25 65 -8 16 -15 38 -15 49 0 11 -7 33 -15 49 -8 16 -22 53 -31 83 -9 30
-22 66 -30 81 -8 15 -14 35 -14 44 0 10 -9 37 -19 60 -11 24 -26 63 -34 88
-27 83 -39 115 -58 152 -10 20 -19 45 -19 55 0 10 -11 41 -25 68 -13 28 -25
57 -25 65 0 8 -9 32 -20 53 -11 20 -20 45 -20 54 0 10 -7 32 -16 48 -9 17 -24
53 -34 80 -10 28 -28 75 -40 105 -12 30 -31 78 -41 105 -9 28 -25 64 -33 80
-9 17 -16 37 -16 45 0 8 -9 29 -20 45 -11 17 -20 37 -20 46 0 9 -11 37 -25 63
-14 26 -25 51 -25 56 0 5 -18 49 -41 97 -41 89 -76 166 -109 238 -10 22 -30
67 -45 100 -15 33 -39 85 -52 115 -14 30 -29 62 -34 70 -5 8 -12 22 -15 30 -8
19 -187 387 -227 465 -16 33 -36 74 -44 90 -8 17 -19 39 -25 50 -6 11 -39 73
-72 137 -34 65 -82 157 -108 205 -26 49 -56 106 -68 128 -11 22 -31 58 -43 80
-13 22 -41 72 -62 110 -21 39 -45 81 -54 95 -9 14 -22 36 -29 50 -7 14 -35 61
-61 105 -58 94 -156 260 -189 318 -12 23 -28 48 -35 56 -7 9 -18 27 -25 41
-13 28 -14 29 -102 165 -36 55 -71 109 -77 120 -47 79 -97 156 -109 166 -8 6
-14 15 -14 20 0 9 -39 69 -112 175 -24 34 -73 106 -110 160 -37 55 -88 128
-113 164 -25 36 -56 81 -69 100 -40 59 -184 252 -309 413 -26 34 -54 71 -63
82 -8 11 -36 48 -62 82 -26 34 -58 78 -72 98 -14 20 -52 71 -85 113 -33 42
-80 102 -103 134 -24 31 -54 68 -67 82 -24 25 -190 223 -358 425 -49 58 -101
120 -116 136 -66 74 -179 203 -205 235 -15 19 -65 73 -110 120 -45 47 -145
155 -221 240 -128 143 -604 625 -755 765 -36 33 -130 121 -210 197 -80 75
-190 174 -245 220 -55 45 -110 92 -121 103 -80 76 -283 257 -364 325 -36 30
-78 67 -95 83 -16 16 -49 43 -73 60 -23 18 -166 131 -317 252 -249 200 -320
256 -425 331 -19 14 -107 80 -195 146 -88 66 -176 131 -195 144 -19 13 -49 34
-66 46 -18 13 -72 50 -120 83 -49 33 -91 63 -92 68 -2 4 -34 28 -70 52 -37 25
-92 63 -122 85 -30 22 -91 64 -135 93 -44 30 -91 61 -105 70 -127 86 -191 127
-195 127 -3 0 -18 8 -33 18 -15 11 -45 30 -67 44 -22 14 -71 45 -110 69 -38
24 -79 50 -90 57 -45 28 -108 68 -133 84 -15 10 -36 23 -47 30 -68 43 -164
104 -187 119 -15 11 -31 19 -36 19 -5 0 -21 9 -34 20 -14 11 -57 36 -94 56
-38 20 -87 47 -109 60 -22 13 -62 36 -90 51 -27 15 -63 36 -80 45 -16 9 -48
26 -70 38 -22 11 -58 31 -80 44 -40 25 -84 49 -152 86 -21 11 -45 24 -53 30
-8 5 -28 15 -45 23 -16 8 -68 35 -115 61 -47 25 -121 64 -165 86 -44 23 -91
47 -105 55 -14 7 -36 18 -50 24 -14 6 -32 15 -40 21 -8 5 -26 14 -40 20 -14 5
-32 14 -40 19 -8 6 -28 16 -45 24 -16 7 -39 18 -50 25 -11 6 -47 23 -80 37
-33 15 -67 30 -75 36 -8 5 -25 14 -37 19 -13 6 -33 14 -45 20 -13 5 -30 14
-38 19 -8 5 -60 30 -115 56 -55 25 -122 56 -150 69 -27 13 -77 36 -110 51 -33
14 -73 33 -88 41 -16 8 -34 14 -40 14 -6 0 -40 14 -76 31 -36 17 -79 37 -96
44 -121 55 -145 65 -157 65 -7 0 -26 9 -43 20 -16 11 -36 20 -44 20 -8 0 -37
11 -65 24 -101 47 -147 66 -159 66 -6 0 -25 7 -42 16 -16 9 -52 24 -80 34
-114 41 -142 52 -181 71 -22 10 -46 19 -53 19 -6 0 -29 9 -51 20 -22 11 -47
20 -57 20 -10 0 -31 7 -48 16 -16 9 -50 22 -75 30 -25 7 -83 27 -130 44 -47
17 -105 37 -130 44 -53 17 -128 42 -190 66 -72 27 -141 51 -195 65 -69 20
-290 93 -347 116 -26 11 -57 19 -70 19 -13 0 -43 9 -67 20 -24 11 -52 20 -62
20 -10 0 -47 9 -81 20 -35 10 -90 26 -123 35 -33 8 -80 20 -105 26 -25 7 -81
22 -125 34 -131 37 -202 55 -390 100 -38 9 -104 25 -145 35 -127 31 -252 58
-315 69 -33 6 -85 18 -115 26 -30 8 -63 15 -74 15 -11 0 -56 9 -101 19 -116
28 -278 59 -370 71 -44 6 -102 17 -129 25 -27 8 -65 15 -85 15 -20 0 -67 7
-106 16 -38 9 -117 21 -175 29 -58 7 -157 20 -220 29 -218 31 -415 55 -495 61
-44 3 -116 12 -160 20 -44 8 -165 19 -270 25 -104 5 -217 15 -250 20 -33 6
-172 15 -310 20 -137 6 -367 17 -510 25 -174 10 -420 14 -740 13 -264 -1 -559
-5 -655 -9z m1265 -1059 c231 -6 482 -18 559 -26 76 -8 211 -19 300 -24 88 -5
208 -16 266 -24 58 -8 159 -17 225 -21 66 -4 156 -13 200 -21 44 -8 127 -19
185 -25 58 -5 121 -14 140 -19 19 -5 91 -16 160 -25 69 -8 154 -22 190 -30 36
-8 81 -15 101 -15 20 0 69 -8 110 -19 41 -10 107 -22 147 -25 40 -4 85 -11
100 -17 24 -8 80 -19 307 -60 33 -5 89 -17 125 -26 36 -9 97 -21 135 -29 39
-7 90 -20 114 -28 24 -9 56 -16 72 -16 16 0 57 -9 91 -19 35 -10 117 -31 183
-46 66 -15 149 -36 185 -45 36 -10 85 -23 110 -28 98 -22 238 -60 258 -71 11
-6 32 -11 46 -11 14 0 49 -9 78 -19 29 -11 69 -22 88 -26 33 -6 110 -29 210
-62 25 -8 70 -20 101 -27 31 -7 62 -17 69 -21 8 -5 41 -16 74 -26 108 -31 189
-58 276 -89 47 -17 99 -35 115 -40 17 -4 68 -23 115 -40 47 -17 110 -40 140
-50 92 -31 184 -66 207 -78 12 -7 30 -12 40 -12 10 0 41 -12 68 -25 28 -14 58
-25 67 -25 9 0 19 -4 23 -10 3 -5 34 -18 68 -29 99 -32 170 -58 202 -75 17 -9
37 -16 45 -16 8 0 30 -9 48 -20 18 -11 38 -20 45 -20 6 0 35 -11 62 -25 28
-13 56 -25 63 -25 6 0 29 -9 49 -20 21 -11 43 -20 50 -20 6 0 33 -11 59 -25
26 -14 55 -25 64 -25 10 0 23 -6 29 -14 7 -8 27 -18 44 -22 18 -3 48 -14 67
-24 19 -10 55 -26 80 -37 25 -12 72 -33 105 -48 33 -15 78 -35 100 -45 22 -10
83 -38 135 -63 52 -25 106 -51 120 -56 14 -6 32 -15 40 -21 8 -5 31 -16 50
-25 19 -8 42 -19 50 -24 8 -5 105 -54 215 -108 110 -55 209 -104 220 -111 11
-6 34 -17 50 -25 17 -8 68 -35 115 -60 47 -26 119 -63 160 -83 40 -21 89 -48
108 -60 19 -13 57 -35 86 -49 28 -14 69 -37 91 -50 22 -13 58 -33 80 -45 22
-11 72 -40 110 -65 39 -24 86 -54 105 -65 19 -12 53 -32 75 -45 22 -13 56 -33
75 -45 48 -28 65 -38 145 -89 39 -24 88 -55 110 -69 22 -14 52 -33 67 -44 15
-10 30 -18 33 -18 4 0 21 -11 39 -25 18 -14 36 -25 39 -25 6 0 78 -46 160
-102 50 -35 230 -153 312 -206 44 -28 87 -58 95 -65 8 -7 36 -27 62 -43 26
-16 77 -49 112 -74 191 -134 242 -170 308 -218 40 -29 99 -72 131 -95 100 -72
237 -176 377 -289 148 -118 171 -137 214 -170 76 -60 425 -343 451 -366 49
-45 197 -174 240 -211 22 -18 94 -84 160 -145 66 -62 205 -191 310 -287 398
-365 963 -953 1395 -1454 47 -54 92 -105 100 -114 8 -9 62 -72 119 -141 57
-69 109 -129 115 -135 18 -16 219 -264 280 -345 30 -41 63 -85 73 -97 10 -12
29 -38 43 -58 14 -19 52 -71 85 -114 33 -43 83 -109 110 -145 28 -37 68 -90
90 -119 23 -29 59 -78 80 -111 22 -32 49 -71 60 -86 37 -51 160 -233 258 -380
53 -80 104 -156 115 -170 10 -14 46 -70 81 -125 35 -55 72 -111 82 -125 10
-14 37 -56 59 -95 23 -38 54 -90 70 -115 16 -25 34 -54 40 -65 6 -11 24 -40
40 -65 16 -25 57 -94 92 -154 35 -60 75 -130 90 -155 15 -25 30 -53 34 -61 4
-8 49 -90 101 -181 51 -92 93 -170 93 -175 0 -4 6 -15 14 -23 8 -9 42 -70 77
-136 134 -259 193 -373 226 -440 19 -38 39 -79 45 -90 6 -11 15 -27 19 -35 9
-18 73 -155 118 -255 18 -38 41 -88 51 -110 11 -22 36 -76 56 -120 41 -92 87
-192 114 -250 10 -22 33 -74 50 -115 52 -124 70 -163 90 -202 11 -20 20 -43
20 -50 0 -7 9 -30 20 -51 11 -20 20 -43 20 -49 0 -7 12 -35 25 -63 14 -27 25
-57 25 -65 0 -8 9 -28 20 -45 11 -16 20 -36 20 -44 0 -8 8 -32 19 -55 29 -65
71 -175 71 -189 0 -7 9 -30 20 -52 11 -21 23 -55 26 -74 4 -20 15 -52 25 -71
11 -19 19 -43 19 -53 0 -10 8 -34 19 -55 10 -20 22 -53 26 -72 4 -19 16 -52
26 -72 11 -21 19 -44 19 -53 0 -9 8 -35 19 -58 10 -23 22 -58 26 -77 4 -19 14
-44 21 -55 7 -11 16 -40 20 -65 4 -25 15 -61 26 -80 10 -19 18 -45 18 -58 0
-12 7 -39 16 -60 9 -20 22 -59 29 -87 7 -27 20 -71 29 -97 39 -118 48 -146 61
-198 8 -30 26 -95 40 -145 14 -49 33 -117 41 -150 9 -33 24 -86 35 -117 10
-32 19 -69 19 -83 0 -14 7 -39 15 -54 8 -16 21 -57 28 -92 18 -82 45 -193 58
-244 6 -22 19 -80 29 -130 36 -171 51 -240 70 -320 10 -44 21 -106 24 -139 4
-32 11 -67 16 -77 6 -10 15 -54 20 -98 6 -44 17 -98 25 -120 8 -22 17 -69 21
-103 3 -35 15 -96 25 -137 10 -41 19 -89 19 -105 1 -17 7 -65 15 -106 8 -41
21 -128 30 -193 8 -65 19 -135 24 -155 6 -20 15 -86 20 -145 6 -59 17 -143 26
-185 8 -42 19 -138 24 -213 6 -75 15 -156 20 -180 5 -24 15 -125 21 -224 5
-99 15 -207 20 -240 5 -33 17 -217 25 -410 8 -192 20 -431 25 -530 12 -230 12
-749 0 -975 -5 -96 -14 -310 -20 -475 -6 -165 -19 -383 -30 -485 -10 -102 -22
-237 -25 -300 -3 -63 -11 -135 -16 -160 -6 -24 -16 -118 -24 -208 -8 -90 -19
-181 -24 -201 -5 -20 -15 -97 -21 -171 -6 -74 -16 -151 -21 -170 -5 -19 -14
-78 -20 -130 -6 -52 -19 -137 -30 -189 -10 -51 -19 -107 -19 -124 0 -16 -9
-69 -19 -116 -11 -47 -24 -113 -30 -146 -24 -150 -43 -254 -56 -307 -8 -32
-20 -91 -25 -130 -6 -40 -17 -95 -25 -123 -8 -27 -21 -84 -29 -125 -28 -142
-37 -185 -56 -260 -11 -41 -24 -101 -29 -133 -6 -31 -15 -65 -20 -75 -5 -9
-12 -39 -16 -67 -4 -27 -14 -66 -22 -85 -8 -19 -20 -62 -28 -95 -8 -33 -20
-80 -28 -105 -8 -25 -20 -65 -26 -90 -7 -25 -24 -83 -37 -130 -14 -47 -32
-112 -39 -146 -8 -33 -21 -74 -30 -90 -8 -16 -15 -39 -15 -51 0 -11 -9 -45
-19 -75 -11 -29 -31 -93 -46 -143 -15 -49 -36 -115 -46 -145 -10 -30 -21 -71
-25 -90 -3 -19 -15 -52 -25 -72 -11 -21 -19 -47 -19 -59 0 -11 -7 -35 -14 -52
-21 -46 -55 -144 -70 -202 -7 -28 -21 -65 -30 -82 -9 -18 -16 -40 -16 -50 0
-10 -8 -34 -19 -53 -10 -19 -22 -51 -26 -70 -4 -19 -14 -48 -23 -65 -8 -16
-19 -43 -23 -60 -4 -16 -17 -55 -29 -85 -13 -30 -32 -77 -42 -105 -36 -89 -61
-149 -85 -202 -13 -28 -23 -57 -23 -62 0 -6 -9 -28 -20 -48 -11 -21 -20 -44
-20 -51 0 -7 -9 -30 -20 -50 -11 -20 -31 -65 -45 -99 -45 -112 -76 -187 -95
-228 -10 -22 -39 -89 -65 -150 -26 -60 -55 -128 -65 -150 -10 -22 -29 -62 -41
-90 -65 -149 -246 -518 -314 -640 -24 -44 -62 -116 -84 -160 -86 -170 -260
-496 -343 -640 -10 -16 -27 -48 -38 -70 -12 -22 -32 -58 -45 -80 -13 -22 -34
-56 -45 -75 -11 -19 -31 -52 -43 -72 -12 -20 -41 -70 -65 -110 -23 -40 -74
-120 -112 -178 -38 -58 -75 -116 -82 -130 -15 -29 -32 -56 -107 -169 -31 -46
-60 -91 -66 -100 -5 -9 -19 -29 -31 -46 -11 -16 -24 -37 -27 -45 -9 -19 -39
-65 -150 -227 -132 -194 -198 -287 -297 -418 -33 -44 -72 -96 -85 -115 -55
-77 -336 -454 -377 -504 -12 -16 -54 -66 -93 -111 -38 -45 -134 -160 -213
-256 -180 -220 -389 -465 -437 -514 -12 -11 -88 -94 -170 -185 -219 -241 -330
-356 -604 -630 -349 -348 -466 -459 -751 -710 -47 -41 -87 -78 -90 -81 -3 -4
-25 -23 -50 -44 -25 -21 -72 -61 -105 -90 -221 -195 -856 -711 -1025 -833 -25
-18 -88 -64 -140 -102 -52 -37 -110 -79 -128 -92 -18 -13 -57 -41 -87 -63 -30
-22 -69 -50 -87 -63 -18 -12 -71 -51 -118 -85 -47 -34 -110 -78 -140 -98 -54
-35 -155 -102 -252 -166 -26 -18 -52 -33 -57 -33 -5 0 -15 -7 -22 -16 -7 -9
-22 -20 -34 -25 -11 -5 -34 -20 -51 -32 -35 -25 -136 -88 -234 -147 -19 -11
-47 -28 -62 -38 -52 -34 -143 -87 -163 -95 -11 -4 -22 -12 -25 -16 -3 -5 -18
-16 -35 -25 -16 -9 -50 -30 -75 -46 -25 -16 -58 -36 -75 -45 -16 -9 -46 -26
-67 -38 -20 -12 -67 -39 -105 -60 -37 -21 -75 -42 -83 -48 -8 -5 -33 -18 -55
-29 -22 -11 -77 -40 -122 -65 -46 -25 -120 -65 -165 -90 -46 -25 -101 -54
-123 -65 -22 -11 -80 -42 -130 -69 -49 -27 -126 -67 -170 -90 -44 -23 -87 -46
-95 -51 -8 -5 -46 -24 -85 -43 -38 -18 -79 -39 -90 -45 -11 -7 -31 -16 -45
-22 -14 -5 -32 -14 -40 -19 -27 -17 -330 -157 -475 -221 -27 -11 -68 -30 -90
-40 -22 -10 -62 -29 -90 -40 -70 -31 -153 -68 -200 -91 -22 -10 -44 -19 -49
-19 -5 0 -27 -9 -50 -20 -37 -17 -99 -43 -241 -101 -27 -12 -68 -29 -90 -40
-22 -10 -44 -19 -50 -19 -5 0 -32 -12 -60 -25 -27 -14 -57 -25 -65 -25 -8 0
-28 -9 -45 -20 -16 -11 -38 -20 -47 -20 -9 0 -38 -11 -64 -25 -26 -14 -57 -25
-70 -25 -13 0 -26 -4 -29 -10 -3 -5 -32 -17 -63 -26 -31 -9 -66 -23 -77 -30
-11 -8 -29 -14 -40 -14 -11 0 -44 -11 -73 -25 -30 -14 -64 -25 -76 -25 -12 0
-31 -7 -42 -14 -12 -8 -43 -20 -70 -27 -27 -7 -58 -18 -69 -25 -11 -6 -38 -15
-60 -19 -21 -4 -52 -13 -67 -21 -15 -8 -51 -19 -80 -25 -29 -7 -62 -18 -73
-25 -11 -7 -40 -16 -65 -20 -25 -4 -54 -11 -65 -17 -11 -6 -47 -18 -80 -28
-33 -9 -73 -21 -90 -27 -16 -6 -61 -19 -100 -30 -38 -11 -99 -30 -135 -42 -36
-11 -90 -27 -120 -35 -186 -47 -246 -64 -380 -104 -36 -10 -92 -24 -125 -31
-33 -7 -68 -16 -77 -21 -10 -5 -50 -16 -90 -24 -40 -7 -98 -21 -128 -29 -30
-9 -67 -16 -83 -16 -15 0 -41 -7 -56 -14 -15 -8 -52 -18 -82 -21 -30 -4 -75
-13 -100 -21 -25 -8 -82 -21 -125 -28 -43 -8 -108 -21 -144 -29 -67 -16 -131
-29 -235 -48 -33 -6 -94 -18 -135 -26 -41 -8 -102 -19 -135 -25 -33 -5 -89
-15 -125 -23 -36 -8 -112 -20 -170 -26 -58 -5 -130 -16 -160 -24 -30 -7 -95
-17 -145 -20 -49 -4 -124 -13 -165 -21 -41 -8 -136 -19 -210 -24 -74 -6 -169
-17 -210 -25 -41 -8 -129 -17 -195 -20 -66 -4 -172 -13 -235 -20 -63 -8 -214
-19 -335 -25 -121 -6 -283 -16 -360 -22 -195 -17 -1603 -18 -1775 -1 -69 7
-226 17 -350 23 -124 6 -250 15 -280 20 -30 6 -147 17 -260 25 -113 8 -221 19
-240 24 -19 6 -94 15 -166 21 -72 6 -164 17 -205 24 -41 8 -114 17 -164 21
-49 3 -117 13 -150 20 -33 8 -107 19 -164 25 -57 5 -129 17 -160 24 -31 8 -87
17 -125 21 -38 4 -85 13 -105 20 -20 7 -66 16 -101 20 -36 3 -100 15 -144 26
-43 10 -93 19 -110 19 -17 0 -56 7 -86 15 -30 8 -82 20 -115 26 -33 6 -88 19
-123 30 -34 10 -76 19 -92 19 -17 0 -56 9 -87 19 -32 11 -80 23 -108 26 -27 4
-76 15 -108 26 -31 10 -67 19 -80 19 -21 0 -63 11 -242 66 -44 13 -87 24 -95
24 -8 0 -42 8 -75 19 -61 19 -144 41 -245 65 -30 7 -77 20 -105 29 -115 37
-153 49 -205 62 -30 7 -69 21 -85 29 -17 9 -41 16 -53 16 -13 0 -39 7 -56 15
-18 9 -55 21 -82 28 -61 15 -68 37 -25 79 36 36 162 206 285 388 22 32 151
213 193 270 10 13 68 94 130 180 61 85 123 171 138 190 77 103 114 155 155
215 25 36 54 77 65 89 11 13 40 54 65 91 25 37 63 90 85 118 22 29 48 63 58
77 9 14 37 54 62 90 24 36 62 90 85 120 22 30 51 71 65 90 13 19 60 85 104
145 44 61 89 124 101 140 12 17 60 83 108 147 48 65 101 140 117 168 17 27 33
50 36 50 3 0 24 28 47 62 80 120 117 174 155 223 71 93 202 270 242 328 22 32
61 88 88 125 26 37 64 92 84 122 21 30 55 78 78 107 22 28 69 92 105 142 36
51 76 107 90 126 14 19 40 56 59 82 36 49 63 87 167 228 32 44 74 103 93 130
19 28 62 87 95 132 34 46 88 121 121 168 33 47 106 150 163 228 56 78 119 167
140 197 20 30 65 93 99 140 35 47 73 100 85 118 13 18 34 48 48 67 14 19 45
63 70 97 48 69 116 162 257 356 51 70 103 142 115 160 13 18 41 57 63 85 22
29 54 72 70 95 16 24 59 85 96 135 37 51 83 115 103 142 20 28 67 93 105 145
38 52 79 109 91 125 11 17 49 68 83 115 34 47 70 96 79 110 9 14 35 50 58 80
22 30 51 71 64 90 14 19 45 64 71 100 25 36 57 81 70 100 13 19 58 82 99 140
41 58 92 129 113 159 21 29 49 68 63 87 14 18 36 49 50 69 14 20 45 63 70 95
25 33 59 79 77 102 30 41 385 536 435 606 13 18 41 57 63 87 22 30 72 100 110
155 39 56 86 122 106 148 20 26 61 83 90 127 30 44 81 116 113 160 32 44 72
98 88 120 16 22 59 81 96 132 37 50 85 117 107 148 22 32 51 72 65 91 14 18
36 49 50 69 14 20 43 60 65 90 22 30 60 84 85 120 47 70 68 98 138 192 43 58
140 193 177 247 11 16 29 41 40 56 11 15 49 69 85 119 36 50 76 106 90 125
115 154 230 313 308 426 9 14 51 70 92 125 41 55 94 127 117 160 24 33 62 86
85 119 24 32 62 86 86 120 23 33 53 77 67 96 14 19 35 49 47 67 13 17 38 51
56 75 28 37 69 93 232 323 12 17 43 62 70 100 27 39 55 77 62 85 8 8 32 41 54
74 64 96 115 167 194 275 109 148 148 202 175 241 14 19 43 60 65 90 38 53
100 140 145 206 11 16 38 52 58 80 32 41 79 106 229 315 10 13 40 56 68 94 28
39 73 102 100 140 27 39 57 79 65 90 9 11 49 67 90 125 41 58 99 139 129 180
30 41 66 91 80 110 56 79 102 144 121 170 11 15 38 54 59 86 22 33 44 64 50
69 7 6 28 35 49 65 20 30 68 98 107 150 60 81 98 135 180 254 8 12 96 134 195
270 99 136 187 258 195 270 8 12 40 55 70 96 31 41 63 86 72 100 67 99 440
623 508 715 90 120 280 386 347 485 20 30 53 75 73 100 20 25 53 70 73 100 20
30 66 96 102 145 63 87 89 123 137 192 13 17 39 52 58 78 47 62 110 147 140
190 14 20 36 51 50 69 14 19 32 44 40 56 8 12 38 53 65 91 28 39 79 111 115
160 36 50 112 155 170 232 115 155 114 154 182 253 26 38 65 94 88 124 39 53
65 90 112 157 13 17 38 51 56 75 68 89 160 217 235 326 43 62 84 120 92 130
32 39 191 260 207 287 47 84 70 147 79 215 14 109 2 211 -34 299 -24 57 -46
90 -97 141 -61 62 -156 130 -183 130 -7 0 -32 10 -57 22 l-45 21 -3506 -2
c-3211 -2 -3506 -1 -3519 13 -11 14 -10 20 9 39 11 13 21 32 21 42 0 10 9 37
19 59 19 40 31 70 73 186 11 30 23 60 28 65 4 6 13 26 19 46 6 20 20 53 31 74
11 22 20 47 20 57 0 9 4 20 10 23 5 3 16 27 24 53 8 26 21 61 30 77 9 17 16
37 16 45 0 8 9 31 19 51 10 19 24 51 29 70 13 42 86 235 132 349 12 30 28 73
36 95 8 22 18 48 24 57 5 9 25 59 45 110 19 51 41 107 49 123 26 60 58 141 68
175 6 19 17 44 24 55 8 11 14 26 14 35 0 9 9 33 20 55 11 21 25 54 31 74 6 20
15 41 19 46 5 6 17 35 28 65 11 30 25 71 32 90 7 19 21 53 30 75 10 22 41 101
69 175 28 74 58 148 66 163 8 16 15 34 15 41 0 6 9 30 20 51 11 22 24 54 29
70 5 17 26 68 46 115 20 47 40 99 45 116 4 18 15 42 24 55 9 13 16 32 16 43 0
10 9 37 20 60 10 23 47 111 81 196 33 85 70 178 81 205 27 68 66 171 84 220 8
22 21 52 29 67 8 14 15 32 15 40 0 8 9 31 20 53 11 22 20 44 20 51 0 6 11 32
25 58 14 26 25 52 25 58 0 7 8 30 18 52 35 78 64 151 72 182 4 17 14 44 23 60
8 16 27 63 42 104 15 41 35 94 46 118 10 23 19 48 19 55 0 6 11 35 25 62 13
28 25 56 25 62 0 12 20 59 66 159 13 28 24 57 24 65 0 8 6 23 14 34 7 11 18
36 24 55 11 36 42 115 74 186 10 22 18 47 18 55 0 8 9 29 20 47 11 18 20 38
20 45 0 6 11 35 25 62 13 28 25 55 25 60 0 6 9 28 19 50 11 22 41 96 66 165
26 69 58 150 71 181 13 31 24 62 24 68 0 6 9 28 20 48 11 21 20 43 20 49 0 10
13 42 60 149 14 31 36 89 65 165 9 25 25 63 36 86 10 22 19 47 19 55 0 8 7 25
16 38 9 13 20 37 25 55 7 28 40 115 74 191 7 17 16 41 20 55 4 14 14 34 21 45
8 11 14 26 14 34 0 8 9 33 19 55 19 40 32 72 65 166 9 25 22 56 30 70 7 14 19
43 26 65 7 22 19 49 26 60 8 11 14 25 14 33 0 7 10 37 23 65 13 29 34 77 46
107 13 30 32 74 42 98 10 23 19 48 19 55 0 6 11 35 25 62 13 28 25 58 25 68 0
10 9 35 20 57 11 22 20 45 20 52 0 7 7 27 16 43 9 17 24 53 34 80 39 109 52
142 69 180 17 38 39 91 80 193 11 26 31 73 45 106 14 32 26 66 26 75 0 9 9 30
20 46 11 17 20 39 20 50 0 11 11 43 25 70 13 28 25 55 25 60 0 6 9 28 20 50
11 22 19 47 20 55 0 8 9 30 20 48 11 18 20 38 20 45 0 7 11 33 25 59 14 26 25
53 25 60 1 7 9 31 20 53 11 22 19 43 20 47 0 4 11 32 25 62 14 30 25 60 25 67
0 7 8 31 19 53 10 23 32 79 50 126 17 47 38 97 46 112 8 14 15 32 15 40 0 7 8
29 19 48 10 19 24 53 31 75 7 22 19 49 26 60 8 11 14 26 14 35 0 8 7 29 16 45
9 17 23 53 31 80 8 28 18 55 23 60 4 6 15 34 24 62 10 29 21 55 26 58 4 3 11
20 14 38 3 18 15 51 26 72 11 22 20 45 20 52 0 7 9 27 20 45 11 18 20 40 20
48 0 8 7 29 16 45 9 17 24 53 34 80 10 28 28 75 40 105 12 30 31 80 42 110 11
30 23 60 28 65 4 6 13 26 18 45 6 19 27 73 47 120 20 47 40 97 45 112 5 15 15
40 23 55 22 42 67 161 67 178 0 8 9 29 20 47 11 18 20 40 20 48 0 8 12 38 25
65 14 28 25 56 25 63 0 8 6 26 14 40 24 44 66 144 66 156 0 6 11 34 25 61 13
28 25 57 25 65 0 8 9 30 20 48 11 18 20 38 20 44 0 6 9 30 19 52 19 39 32 72
66 169 8 23 21 53 29 67 7 14 19 42 26 63 7 22 18 51 26 65 8 15 14 34 14 42
0 8 9 32 20 52 27 52 42 190 30 286 -11 89 -49 172 -110 246 -45 54 -157 146
-178 146 -7 0 -32 10 -55 22 -37 19 -57 22 -172 22 -130 -1 -130 -1 -208 -38
-139 -67 -213 -148 -407 -440 -18 -28 -119 -166 -178 -244 -44 -59 -48 -65
-129 -169 -51 -66 -117 -155 -300 -408 -135 -187 -205 -282 -326 -443 -49 -64
-104 -139 -122 -167 -19 -27 -70 -97 -114 -155 -149 -197 -225 -299 -269 -362
-60 -85 -195 -269 -286 -388 -36 -47 -82 -109 -103 -137 -21 -29 -47 -64 -58
-77 -11 -14 -30 -39 -43 -58 -65 -93 -125 -178 -157 -223 -20 -27 -78 -108
-130 -180 -51 -71 -99 -137 -107 -145 -7 -8 -31 -40 -53 -70 -22 -30 -64 -87
-95 -127 -30 -40 -66 -88 -80 -108 -14 -20 -45 -63 -70 -95 -25 -33 -62 -83
-83 -112 -21 -29 -95 -127 -163 -218 -69 -91 -133 -178 -142 -193 -9 -16 -44
-64 -77 -107 -61 -81 -164 -219 -200 -270 -11 -16 -54 -73 -95 -127 -41 -54
-88 -117 -105 -140 -16 -24 -43 -60 -58 -80 -15 -21 -44 -63 -65 -93 -20 -31
-55 -79 -77 -108 -22 -29 -61 -80 -87 -115 -26 -34 -56 -73 -67 -87 -11 -14
-52 -68 -90 -120 -38 -52 -74 -99 -78 -105 -9 -10 -85 -118 -113 -160 -23 -35
-130 -180 -180 -245 -25 -33 -56 -75 -70 -95 -14 -20 -54 -74 -90 -120 -36
-46 -103 -136 -150 -200 -47 -64 -103 -140 -126 -169 -22 -28 -46 -61 -53 -73
-6 -12 -48 -72 -94 -132 -45 -61 -113 -154 -152 -206 -38 -53 -77 -104 -85
-115 -8 -11 -26 -35 -40 -55 -14 -19 -56 -78 -95 -130 -38 -52 -108 -146 -155
-210 -47 -64 -103 -139 -125 -168 -22 -29 -49 -65 -60 -81 -11 -16 -29 -41
-40 -56 -11 -15 -49 -69 -84 -121 -36 -52 -68 -98 -73 -104 -4 -5 -18 -23 -32
-40 -71 -90 -333 -445 -476 -645 -112 -157 -246 -338 -328 -444 -112 -145 -93
-118 -197 -267 -27 -40 -70 -98 -95 -130 -74 -96 -278 -370 -332 -447 -13 -18
-43 -60 -68 -92 -56 -74 -117 -156 -175 -235 -91 -123 -131 -177 -170 -228
-23 -29 -59 -78 -80 -111 -39 -57 -100 -145 -150 -216 -29 -41 -65 -90 -230
-310 -146 -195 -224 -302 -345 -475 -56 -79 -74 -104 -110 -151 -14 -18 -43
-58 -65 -89 -22 -30 -62 -84 -90 -119 -27 -36 -68 -90 -90 -120 -59 -83 -86
-120 -266 -361 -90 -121 -171 -229 -179 -241 -8 -12 -36 -53 -62 -90 -26 -38
-83 -116 -127 -174 -44 -58 -96 -127 -116 -155 -91 -124 -174 -239 -220 -305
-27 -39 -80 -112 -117 -163 -36 -51 -77 -107 -90 -125 -13 -19 -43 -60 -68
-93 -25 -32 -63 -84 -85 -114 -22 -31 -60 -83 -85 -115 -74 -97 -129 -172
-168 -226 -20 -28 -71 -97 -112 -153 -41 -56 -86 -118 -100 -136 -14 -19 -44
-61 -68 -92 -24 -32 -83 -112 -132 -178 -49 -66 -108 -145 -130 -175 -134
-178 -312 -419 -355 -480 -27 -38 -68 -95 -90 -125 -22 -30 -54 -73 -71 -97
-17 -24 -85 -114 -150 -202 -114 -151 -199 -266 -236 -317 -10 -13 -65 -89
-123 -169 -58 -80 -117 -161 -130 -180 -13 -19 -42 -60 -65 -90 -22 -30 -48
-66 -57 -80 -10 -14 -36 -48 -58 -77 -22 -28 -58 -77 -80 -108 -22 -31 -58
-79 -81 -108 -22 -29 -80 -108 -130 -176 -49 -68 -106 -147 -127 -175 -20 -28
-48 -67 -62 -86 -14 -19 -36 -51 -50 -70 -14 -19 -36 -51 -50 -70 -14 -19 -43
-60 -65 -90 -23 -30 -48 -66 -58 -80 -9 -14 -41 -57 -72 -95 -64 -81 -86 -111
-135 -180 -19 -27 -48 -68 -64 -90 -84 -113 -123 -179 -146 -246 -20 -60 -25
-93 -25 -179 0 -83 4 -116 21 -160 43 -111 74 -161 144 -228 78 -74 109 -94
205 -132 l65 -25 3030 0 c2908 0 3030 -1 3033 -18 2 -10 -2 -25 -10 -34 -7 -9
-18 -37 -25 -62 -12 -48 -34 -114 -63 -191 -27 -69 -51 -140 -66 -190 -7 -25
-27 -83 -44 -130 -17 -47 -38 -107 -45 -135 -8 -27 -28 -88 -45 -135 -17 -47
-37 -105 -45 -130 -25 -82 -48 -144 -65 -180 -10 -19 -21 -51 -25 -70 -4 -19
-13 -44 -20 -55 -7 -11 -16 -36 -20 -55 -4 -19 -16 -52 -26 -72 -11 -21 -19
-45 -19 -54 0 -10 -8 -36 -19 -58 -20 -45 -45 -115 -66 -187 -7 -26 -20 -60
-28 -75 -8 -16 -18 -45 -22 -64 -4 -19 -13 -44 -20 -56 -7 -11 -20 -45 -28
-75 -8 -29 -27 -85 -42 -124 -15 -38 -33 -91 -40 -117 -7 -25 -19 -56 -25 -68
-6 -12 -18 -43 -25 -68 -23 -79 -45 -145 -66 -190 -10 -23 -19 -50 -19 -58 0
-9 -7 -30 -14 -47 -17 -35 -47 -121 -76 -212 -39 -124 -80 -242 -107 -305 -9
-19 -21 -55 -28 -80 -8 -25 -28 -83 -45 -130 -17 -47 -35 -98 -40 -115 -23
-74 -54 -163 -71 -201 -11 -22 -19 -48 -19 -58 0 -10 -7 -32 -15 -49 -8 -18
-21 -52 -29 -77 -8 -25 -29 -83 -46 -130 -17 -47 -37 -105 -45 -130 -18 -60
-44 -135 -65 -190 -26 -69 -40 -109 -61 -175 -26 -84 -58 -176 -69 -200 -6
-11 -17 -40 -24 -65 -25 -75 -56 -163 -70 -195 -7 -16 -26 -68 -41 -115 -15
-47 -36 -104 -46 -127 -11 -23 -19 -49 -19 -57 0 -9 -9 -35 -19 -58 -22 -47
-47 -121 -63 -183 -6 -22 -17 -56 -25 -75 -9 -19 -22 -55 -29 -80 -7 -25 -27
-83 -44 -130 -17 -47 -37 -105 -44 -130 -7 -25 -18 -54 -24 -65 -6 -11 -18
-41 -26 -67 -38 -115 -49 -146 -67 -190 -10 -26 -19 -54 -19 -63 0 -9 -9 -33
-20 -55 -11 -22 -20 -47 -20 -57 0 -10 -7 -31 -15 -47 -8 -15 -21 -51 -29 -80
-8 -28 -26 -80 -39 -116 -14 -36 -31 -81 -37 -100 -50 -141 -64 -180 -81 -218
-10 -23 -19 -51 -19 -62 0 -11 -9 -39 -19 -62 -35 -80 -71 -178 -71 -196 0 -9
-7 -30 -16 -47 -8 -16 -29 -73 -45 -125 -17 -52 -39 -117 -49 -145 -10 -27
-23 -66 -29 -85 -15 -51 -50 -152 -61 -175 -12 -24 -46 -122 -64 -185 -8 -25
-21 -58 -30 -75 -9 -16 -16 -38 -16 -48 0 -10 -7 -32 -17 -50 -9 -18 -22 -52
-29 -77 -7 -25 -27 -83 -44 -130 -17 -47 -37 -105 -44 -130 -17 -53 -42 -128
-66 -190 -21 -54 -46 -129 -65 -190 -18 -56 -55 -163 -90 -255 -15 -38 -33
-91 -40 -116 -7 -26 -20 -60 -28 -75 -8 -16 -18 -45 -22 -64 -4 -19 -13 -44
-20 -56 -7 -11 -20 -45 -28 -75 -8 -29 -27 -85 -42 -124 -14 -38 -32 -90 -39
-115 -7 -25 -19 -56 -25 -69 -7 -12 -19 -44 -26 -69 -23 -79 -46 -145 -66
-188 -10 -23 -19 -50 -19 -60 0 -11 -8 -35 -19 -54 -10 -19 -21 -53 -25 -75
-4 -22 -13 -49 -21 -61 -7 -11 -20 -45 -28 -75 -8 -29 -20 -70 -27 -89 -7 -19
-20 -57 -30 -85 -10 -27 -25 -70 -33 -95 -8 -25 -20 -61 -27 -80 -7 -19 -23
-64 -35 -100 -12 -36 -28 -81 -35 -100 -6 -19 -16 -47 -21 -62 -5 -16 -14 -43
-20 -60 -6 -18 -18 -53 -26 -78 -8 -25 -23 -64 -34 -88 -10 -23 -19 -52 -19
-63 0 -11 -7 -34 -16 -51 -9 -17 -22 -51 -29 -77 -14 -50 -38 -121 -65 -191
-25 -65 -49 -138 -64 -190 -7 -25 -19 -57 -26 -70 -7 -14 -17 -38 -21 -55 -4
-16 -22 -68 -40 -115 -17 -47 -37 -106 -44 -131 -7 -26 -20 -60 -28 -75 -8
-16 -18 -45 -22 -64 -4 -19 -16 -51 -26 -70 -11 -19 -19 -41 -19 -50 0 -8 -8
-37 -19 -65 -31 -83 -52 -147 -66 -200 -7 -27 -20 -67 -29 -87 -9 -21 -16 -45
-16 -55 0 -10 -8 -34 -19 -53 -10 -19 -21 -53 -25 -75 -4 -22 -13 -49 -21 -61
-7 -11 -20 -45 -28 -75 -15 -53 -24 -79 -87 -249 -18 -47 -35 -99 -40 -117 -4
-18 -17 -56 -28 -85 -11 -29 -25 -69 -32 -88 -6 -19 -23 -64 -37 -100 -13 -36
-29 -81 -34 -100 -6 -19 -18 -57 -28 -85 -43 -118 -61 -182 -61 -216 0 -46
-19 -64 -46 -44 -10 8 -27 15 -36 15 -10 0 -41 11 -70 24 -59 26 -122 52 -213
86 -33 12 -85 33 -115 47 -30 14 -73 33 -95 43 -175 79 -272 120 -283 120 -5
0 -15 6 -21 14 -7 8 -24 17 -39 21 -15 3 -49 17 -77 30 -27 12 -72 33 -100 45
-120 53 -321 147 -345 161 -8 5 -31 16 -50 24 -19 9 -42 19 -50 24 -35 19
-217 111 -240 121 -14 6 -65 33 -115 60 -49 27 -148 79 -220 115 -71 37 -170
88 -220 115 -49 27 -126 68 -170 90 -44 23 -98 52 -120 65 -22 13 -53 31 -70
40 -16 9 -52 29 -80 45 -27 15 -63 36 -80 44 -16 9 -50 29 -75 46 -25 16 -54
34 -65 40 -11 6 -40 24 -65 40 -25 17 -59 37 -77 45 -17 8 -34 19 -38 25 -4 6
-21 17 -38 25 -18 8 -52 28 -77 45 -25 16 -55 34 -68 40 -12 5 -35 18 -50 28
-15 11 -72 48 -127 84 -171 111 -268 174 -314 204 -24 16 -52 34 -61 39 -10 6
-26 17 -35 25 -9 8 -25 19 -35 25 -9 5 -37 24 -60 40 -24 17 -53 37 -65 45
-73 50 -106 73 -155 110 -84 61 -113 82 -176 124 -33 22 -79 56 -104 77 -25
20 -55 39 -68 43 -12 4 -27 16 -32 27 -6 10 -16 19 -21 19 -6 0 -24 10 -40 23
-15 12 -67 51 -114 87 -111 83 -266 209 -349 280 -23 20 -59 49 -81 65 -21 16
-48 38 -59 50 -11 11 -59 52 -107 90 -211 171 -410 339 -475 402 -95 90 -135
126 -219 198 -136 117 -364 337 -690 665 -311 314 -372 378 -497 520 -61 69
-124 141 -142 160 -236 257 -508 578 -652 770 -23 30 -58 73 -78 95 -20 22
-53 61 -74 88 -183 234 -252 324 -320 420 -15 21 -45 61 -67 90 -22 29 -48 63
-57 77 -10 14 -35 50 -58 80 -22 30 -57 80 -77 110 -21 30 -63 89 -93 130 -30
41 -73 102 -95 136 -40 62 -108 162 -165 242 -16 23 -30 47 -30 52 0 6 -8 18
-17 28 -17 17 -40 50 -95 137 -13 22 -33 54 -44 70 -22 35 -40 66 -65 114 -10
19 -22 37 -27 40 -8 6 -67 105 -104 174 -9 18 -21 37 -25 42 -18 22 -73 112
-73 120 0 5 -7 16 -16 26 -9 10 -23 31 -32 48 -18 33 -94 161 -129 220 -12 20
-31 54 -43 76 -11 22 -41 76 -66 120 -25 44 -54 98 -65 120 -11 22 -42 81 -68
130 -51 95 -375 739 -385 765 -3 8 -10 22 -16 30 -5 8 -16 31 -25 50 -8 19
-19 42 -24 50 -5 8 -19 38 -31 65 -24 54 -61 136 -90 200 -10 22 -33 74 -50
115 -41 97 -52 123 -84 191 -14 31 -26 62 -26 70 0 8 -9 29 -20 47 -11 18 -20
38 -20 45 0 6 -11 35 -25 62 -13 28 -25 56 -25 63 0 6 -9 29 -20 49 -11 21
-20 46 -20 56 0 10 -11 39 -25 65 -14 26 -25 54 -25 62 0 8 -9 29 -20 45 -11
17 -20 37 -20 45 0 8 -12 38 -25 65 -14 28 -25 56 -25 63 0 6 -9 29 -20 49
-11 21 -20 46 -20 56 0 11 -8 36 -18 56 -21 40 -47 111 -67 182 -7 26 -20 60
-29 77 -9 17 -16 39 -16 49 0 10 -11 42 -25 71 -14 30 -25 64 -25 75 0 12 -9
36 -20 52 -11 17 -20 41 -20 55 0 14 -8 41 -19 60 -10 19 -22 51 -26 70 -4 19
-16 54 -26 77 -11 23 -19 49 -19 59 0 15 -33 126 -62 209 -5 17 -15 48 -20 70
-6 22 -17 60 -25 85 -8 25 -18 65 -23 90 -5 25 -18 69 -29 98 -12 29 -21 64
-21 78 0 14 -7 38 -15 53 -8 16 -19 56 -24 89 -5 34 -15 70 -20 81 -6 11 -17
48 -25 83 -8 35 -29 117 -46 183 -18 66 -38 149 -45 185 -7 36 -19 87 -29 113
-9 26 -16 61 -16 77 0 16 -7 50 -16 75 -8 25 -22 81 -29 123 -8 42 -22 102
-30 132 -8 30 -15 66 -15 80 0 14 -8 57 -19 95 -18 68 -42 194 -63 340 -6 39
-19 103 -29 143 -11 40 -19 89 -19 110 0 20 -7 64 -14 97 -8 33 -19 101 -25
150 -6 50 -20 151 -31 225 -35 243 -51 373 -61 490 -6 63 -17 160 -25 215 -8
55 -19 188 -24 295 -5 107 -14 231 -20 275 -6 44 -15 188 -20 320 -6 132 -15
335 -20 450 -22 475 -3 1490 35 1900 9 88 20 232 26 320 5 88 14 187 19 220 5
33 14 112 20 175 6 63 17 158 26 210 8 52 19 147 24 210 6 63 15 131 20 150 5
19 16 91 25 160 8 69 22 154 30 190 8 36 15 81 15 100 0 19 9 69 19 110 10 41
21 104 25 140 4 36 13 85 21 110 8 25 19 82 24 128 6 45 15 90 20 100 5 10 15
55 21 100 6 45 17 99 24 120 7 20 16 63 20 96 4 32 14 76 21 97 8 22 19 67 25
102 5 34 17 85 25 112 8 28 21 79 30 115 36 149 53 217 63 245 11 29 29 101
57 220 8 33 21 80 30 104 8 24 15 55 15 70 1 14 8 44 16 66 9 22 22 65 29 95
8 30 21 78 30 105 40 120 47 143 59 190 7 28 19 64 28 80 8 17 19 48 22 69 4
21 13 48 21 60 7 12 15 37 19 56 3 19 15 58 25 85 22 61 47 135 66 195 16 54
41 128 65 190 23 60 39 105 57 160 8 25 23 61 34 81 10 20 19 45 19 55 0 11 9
33 19 50 10 17 22 45 26 62 3 17 22 68 42 114 19 46 39 97 44 113 5 17 18 48
29 70 11 21 20 46 20 55 0 8 9 29 20 45 11 17 20 37 20 46 0 9 12 43 26 75 14
33 34 82 46 109 11 28 28 68 38 90 10 22 42 94 71 160 28 66 70 156 91 200 22
44 48 98 58 120 84 181 132 281 197 410 42 83 91 182 110 220 19 39 52 104 72
145 21 41 55 107 76 145 21 39 47 86 57 105 10 19 31 57 46 83 15 26 44 80 66
120 21 40 45 79 52 88 8 8 14 19 14 23 0 4 19 40 42 79 63 108 69 118 116 198
60 103 74 127 168 274 10 17 25 41 32 55 6 14 25 45 42 70 16 25 40 62 52 84
23 39 28 48 62 101 11 17 29 46 41 65 44 69 256 386 298 445 23 33 67 94 98
135 30 41 62 86 72 100 89 130 112 163 149 216 24 34 70 96 103 139 68 88 122
158 215 281 36 47 94 122 130 168 36 45 76 98 90 116 135 181 590 713 795 929
45 47 141 151 214 231 170 185 708 719 916 908 88 80 167 153 176 161 19 20
117 106 339 301 41 36 95 83 120 106 72 65 389 324 470 384 18 14 97 75 174
137 221 175 433 339 490 378 16 11 41 29 56 40 26 19 118 86 184 132 108 78
427 297 587 404 63 41 140 93 172 115 104 69 142 93 162 104 11 6 45 28 75 50
30 22 58 40 62 40 4 0 28 15 54 33 25 17 53 36 63 42 61 36 93 56 149 93 34
23 66 42 70 42 4 0 37 20 74 44 36 24 79 50 95 58 39 20 75 41 93 54 8 6 51
31 95 54 44 24 98 54 120 67 22 12 54 30 70 38 17 8 53 28 80 44 28 16 86 48
130 71 44 23 121 64 170 91 50 27 101 53 115 59 14 5 32 14 40 19 24 16 248
131 335 173 44 22 87 43 95 49 8 5 26 14 40 20 23 10 92 43 241 113 31 14 59
26 63 26 6 0 36 14 222 101 34 16 66 29 70 29 5 0 34 12 64 26 108 51 135 63
160 70 14 4 41 15 60 25 19 11 40 19 47 19 7 0 30 9 50 20 21 11 45 20 53 20
8 0 38 12 65 25 28 14 57 25 65 25 9 0 24 6 35 14 11 7 36 18 55 24 19 6 73
27 120 47 47 20 99 40 115 45 17 4 46 14 65 22 84 37 148 61 185 69 21 6 44
14 51 20 6 5 34 16 60 23 60 17 137 44 184 64 19 8 55 20 80 27 25 7 68 21 95
31 104 37 153 53 240 79 50 15 104 31 120 37 17 5 46 14 65 20 66 18 165 47
215 63 28 9 77 22 110 29 33 7 70 18 81 24 12 6 50 18 85 26 119 28 194 47
224 58 17 5 64 18 105 28 41 10 107 25 145 34 39 9 90 23 115 31 25 7 74 19
110 25 35 6 73 16 83 22 11 5 54 16 96 24 77 13 145 28 301 63 47 11 108 23
135 26 28 3 70 12 95 20 25 7 85 19 133 25 48 6 98 15 111 19 12 5 64 14 115
20 51 6 117 18 148 26 31 8 93 17 137 21 45 3 125 14 178 25 53 10 116 19 140
19 24 0 97 9 163 19 66 11 174 25 240 31 66 6 172 17 235 25 63 8 147 15 185
15 39 0 120 7 180 15 178 23 1216 57 1510 49 83 -2 339 -9 570 -14z m3243
-6937 c-36 -75 -88 -200 -88 -215 0 -7 -7 -22 -15 -32 -8 -11 -15 -27 -15 -35
0 -9 -7 -29 -16 -46 -9 -16 -24 -52 -34 -80 -27 -77 -50 -137 -66 -170 -7 -16
-20 -48 -27 -70 -23 -63 -87 -227 -103 -260 -8 -16 -18 -43 -23 -60 -5 -16
-26 -68 -46 -115 -20 -47 -43 -104 -52 -127 -8 -24 -19 -45 -24 -49 -5 -3 -9
-12 -9 -21 0 -9 -9 -35 -19 -57 -11 -23 -26 -59 -35 -81 -8 -22 -22 -60 -31
-85 -9 -25 -25 -63 -36 -86 -10 -22 -19 -47 -19 -55 0 -8 -9 -27 -20 -44 -11
-16 -20 -36 -20 -44 0 -8 -9 -33 -19 -55 -11 -23 -26 -59 -34 -81 -8 -22 -27
-71 -42 -110 -14 -38 -33 -90 -41 -114 -7 -24 -19 -50 -25 -57 -6 -7 -15 -28
-19 -46 -5 -18 -23 -67 -40 -108 -39 -89 -64 -152 -80 -200 -7 -19 -20 -51
-28 -70 -16 -36 -37 -89 -67 -170 -9 -25 -25 -63 -36 -86 -10 -22 -19 -47 -19
-55 0 -8 -9 -27 -20 -44 -11 -16 -20 -37 -20 -45 0 -9 -9 -33 -19 -54 -11 -21
-23 -52 -27 -69 -4 -18 -13 -42 -21 -54 -8 -12 -19 -37 -23 -55 -8 -33 -36
-105 -72 -184 -10 -22 -18 -46 -18 -52 0 -7 -9 -29 -20 -49 -11 -21 -20 -45
-20 -53 0 -8 -12 -37 -25 -65 -14 -27 -25 -57 -25 -65 0 -9 -6 -24 -14 -35 -7
-11 -18 -36 -24 -55 -11 -36 -42 -115 -74 -186 -10 -22 -18 -46 -18 -53 0 -6
-9 -29 -19 -49 -25 -49 -61 -140 -71 -178 -4 -18 -15 -42 -24 -55 -9 -13 -16
-30 -16 -38 0 -7 -9 -32 -19 -55 -40 -85 -71 -159 -71 -170 0 -6 -7 -24 -16
-41 -9 -16 -24 -52 -34 -80 -22 -62 -43 -115 -109 -275 -29 -69 -56 -138 -61
-155 -5 -16 -19 -48 -30 -70 -11 -21 -20 -46 -20 -55 0 -8 -9 -28 -20 -45 -11
-16 -20 -38 -20 -49 0 -10 -9 -35 -20 -55 -11 -20 -26 -54 -34 -76 -32 -93
-40 -113 -62 -166 -13 -31 -24 -63 -24 -70 0 -8 -9 -27 -20 -44 -11 -16 -20
-39 -20 -50 0 -11 -9 -37 -20 -58 -11 -20 -20 -42 -20 -49 0 -6 -9 -30 -19
-52 -11 -23 -26 -59 -34 -81 -8 -22 -25 -65 -37 -95 -12 -30 -33 -82 -45 -115
-13 -33 -33 -85 -45 -115 -12 -30 -30 -75 -40 -100 -9 -25 -22 -56 -28 -70 -6
-14 -23 -56 -37 -95 -14 -38 -37 -94 -50 -123 -14 -29 -25 -58 -25 -65 0 -7
-9 -29 -20 -50 -11 -20 -20 -44 -20 -53 0 -9 -9 -33 -20 -53 -11 -20 -26 -54
-34 -76 -8 -22 -24 -65 -36 -95 -12 -30 -30 -78 -40 -106 -10 -28 -23 -60 -29
-70 -6 -10 -18 -38 -26 -61 -34 -95 -47 -130 -66 -169 -10 -22 -19 -46 -19
-52 0 -6 -9 -31 -19 -54 -11 -24 -31 -77 -46 -118 -30 -83 -57 -149 -92 -227
-13 -28 -23 -57 -23 -63 0 -7 -7 -24 -15 -38 -8 -15 -22 -46 -30 -69 -34 -97
-47 -130 -66 -169 -10 -22 -19 -47 -19 -55 0 -8 -9 -27 -20 -44 -11 -16 -20
-37 -20 -45 0 -8 -7 -28 -16 -45 -9 -16 -24 -52 -34 -80 -23 -64 -49 -130 -90
-225 -17 -41 -35 -88 -39 -105 -5 -16 -15 -46 -24 -65 -8 -19 -29 -73 -47
-120 -17 -47 -35 -94 -40 -105 -5 -11 -23 -58 -41 -105 -17 -47 -42 -113 -55
-147 -13 -34 -24 -68 -24 -75 0 -8 -5 -19 -11 -25 -5 -5 -23 -54 -40 -108 -30
-101 -36 -181 -19 -245 23 -85 47 -158 65 -190 11 -19 52 -67 90 -105 71 -71
165 -130 234 -146 20 -5 1553 -9 3408 -9 2080 0 3374 -4 3378 -9 3 -5 -5 -21
-17 -35 -13 -14 -34 -42 -48 -61 -34 -49 -67 -94 -118 -162 -73 -97 -126 -170
-150 -205 -12 -18 -53 -75 -90 -125 -37 -51 -87 -123 -112 -159 -25 -36 -56
-81 -70 -99 -14 -19 -52 -72 -85 -120 -33 -47 -80 -113 -105 -145 -25 -33 -61
-81 -80 -107 -19 -26 -38 -50 -41 -53 -3 -3 -12 -16 -19 -30 -7 -14 -28 -43
-46 -66 -35 -42 -82 -109 -180 -254 -31 -47 -60 -87 -63 -90 -4 -3 -25 -31
-46 -64 -22 -32 -50 -72 -63 -90 -12 -17 -33 -47 -47 -66 -39 -55 -95 -131
-155 -210 -51 -67 -136 -185 -194 -270 -58 -83 -117 -165 -201 -280 -87 -118
-150 -206 -200 -280 -13 -19 -42 -60 -64 -90 -40 -55 -106 -148 -145 -205 -12
-16 -46 -64 -77 -105 -63 -86 -123 -170 -176 -250 -32 -48 -59 -84 -92 -126
-4 -5 -14 -21 -21 -35 -7 -13 -29 -44 -50 -69 -20 -25 -54 -71 -76 -104 -42
-63 -63 -92 -124 -176 -23 -30 -52 -71 -65 -90 -14 -19 -43 -60 -65 -90 -22
-30 -61 -84 -86 -120 -24 -36 -69 -99 -99 -140 -29 -41 -77 -109 -106 -150
-79 -112 -300 -414 -325 -443 -6 -6 -28 -37 -50 -68 -21 -31 -79 -111 -129
-179 -101 -138 -112 -153 -174 -242 -25 -34 -60 -85 -79 -113 -20 -27 -54 -75
-76 -105 -23 -30 -55 -75 -71 -100 -17 -25 -55 -79 -85 -120 -31 -41 -65 -88
-75 -104 -11 -16 -29 -41 -40 -56 -11 -15 -40 -56 -65 -90 -25 -34 -54 -75
-65 -90 -11 -15 -38 -54 -59 -86 -22 -33 -46 -66 -53 -74 -8 -8 -27 -35 -44
-60 -16 -25 -55 -79 -85 -120 -29 -41 -71 -100 -92 -130 -20 -30 -64 -89 -97
-132 -33 -42 -80 -107 -105 -143 -25 -36 -63 -90 -85 -120 -22 -29 -62 -85
-90 -124 -27 -39 -68 -96 -90 -126 -22 -30 -50 -69 -63 -87 -13 -18 -55 -76
-93 -128 -37 -52 -78 -108 -89 -125 -11 -16 -61 -84 -110 -150 -49 -66 -99
-135 -112 -153 -27 -38 -59 -82 -155 -212 -76 -104 -140 -194 -288 -410 -24
-36 -62 -90 -85 -120 -22 -30 -48 -66 -57 -80 -10 -14 -36 -48 -58 -77 -22
-28 -50 -67 -63 -85 -13 -18 -55 -76 -93 -128 -37 -52 -78 -108 -89 -125 -12
-16 -57 -79 -101 -140 -44 -60 -91 -126 -103 -145 -13 -19 -48 -68 -77 -108
-30 -40 -83 -113 -119 -163 -36 -49 -101 -138 -145 -198 -44 -59 -104 -141
-133 -182 -29 -41 -92 -129 -140 -196 -48 -67 -107 -152 -132 -188 -25 -37
-78 -110 -118 -163 -40 -53 -84 -113 -97 -132 -14 -19 -36 -51 -50 -70 -14
-19 -36 -51 -50 -70 -14 -19 -43 -60 -65 -90 -23 -30 -62 -86 -88 -124 -26
-38 -56 -81 -67 -96 -18 -26 -60 -83 -121 -170 -55 -77 -142 -195 -184 -250
-25 -33 -56 -75 -70 -95 -14 -19 -43 -60 -65 -90 -22 -30 -51 -70 -65 -90 -14
-20 -36 -51 -50 -69 -14 -19 -32 -44 -40 -56 -8 -12 -35 -50 -60 -84 -47 -64
-98 -137 -155 -221 -19 -27 -53 -75 -75 -105 -23 -30 -93 -127 -157 -215 -63
-88 -134 -186 -157 -217 -35 -50 -137 -189 -194 -267 -37 -50 -109 -153 -152
-216 -25 -37 -56 -81 -70 -100 -14 -19 -45 -64 -70 -100 -25 -37 -63 -90 -86
-118 -34 -43 -117 -155 -219 -297 -21 -28 -109 -155 -135 -195 -15 -21 -72
-100 -195 -269 -33 -45 -73 -102 -90 -126 -16 -25 -48 -68 -70 -96 -41 -53
-112 -153 -130 -183 -5 -9 -64 -88 -130 -175 -66 -87 -130 -172 -142 -189 -12
-18 -40 -57 -62 -87 -60 -82 -92 -126 -152 -215 -65 -95 -166 -235 -229 -316
-25 -32 -63 -83 -85 -114 -22 -30 -52 -71 -67 -91 -15 -19 -29 -40 -31 -47 -2
-7 -8 -8 -13 -4 -4 4 -1 22 9 40 18 35 51 126 72 199 7 25 19 57 26 69 6 12
17 45 25 73 15 60 41 135 66 192 10 22 18 46 18 54 0 8 9 32 19 54 11 23 24
57 30 76 5 19 22 67 37 105 14 39 33 90 41 115 9 25 24 63 34 86 11 22 19 48
19 58 0 9 8 33 19 54 10 20 22 55 26 77 3 21 13 51 20 65 7 14 16 41 20 60 4
19 13 49 21 65 14 33 47 126 69 195 8 25 28 83 45 130 17 47 37 107 45 133 7
26 18 54 24 60 5 7 15 31 20 52 16 64 51 167 72 211 10 23 19 52 19 65 0 14 7
34 14 45 8 12 20 43 27 70 7 27 18 58 25 69 6 11 15 36 19 55 4 19 14 48 22
64 8 15 21 49 28 75 23 78 46 144 66 187 10 23 19 48 19 57 0 9 9 36 19 59 33
75 71 178 71 193 0 8 8 34 19 57 24 56 49 131 66 193 7 28 19 66 27 85 19 44
46 121 63 180 7 25 20 59 29 75 9 17 16 39 16 50 0 12 9 38 19 59 11 21 23 52
27 69 3 18 15 49 25 69 11 21 19 48 19 60 0 13 7 33 14 44 8 12 20 43 27 70 7
27 18 61 25 75 7 15 18 44 23 65 6 22 24 77 41 124 17 47 38 105 45 130 7 25
20 59 29 75 9 17 16 38 16 48 0 10 7 32 16 49 9 17 22 51 29 77 15 50 48 144
90 256 15 39 33 90 40 115 7 25 19 61 27 80 21 48 46 124 65 190 8 30 18 60
23 65 4 6 15 35 23 65 23 82 46 150 68 196 10 23 19 49 19 58 0 9 7 31 17 49
9 18 22 52 29 77 7 25 25 77 39 115 40 106 75 205 90 255 8 25 28 83 45 130
17 47 37 105 45 130 8 25 28 83 45 130 17 47 37 107 45 133 7 26 18 53 23 60
5 7 13 28 17 47 4 19 13 49 21 65 16 36 51 133 69 195 7 25 20 59 29 75 9 17
16 39 16 49 0 11 8 38 19 60 19 41 41 102 67 186 7 25 27 83 44 130 18 47 38
108 45 135 8 28 19 59 24 70 13 25 48 125 66 185 7 25 19 61 28 80 20 48 47
126 62 180 7 25 20 59 29 75 9 17 16 39 16 50 0 11 7 34 16 50 9 17 22 50 30
75 15 51 50 150 89 255 14 39 32 90 39 115 7 25 19 56 25 69 7 12 19 44 26 69
18 62 52 159 71 199 7 17 14 38 14 47 0 9 8 33 19 54 10 20 22 53 26 72 4 19
16 52 26 72 11 21 19 45 19 55 0 10 7 31 15 47 8 15 21 51 29 80 16 56 40 127
66 196 24 62 49 137 66 190 7 25 27 83 44 130 17 47 38 105 46 130 7 25 18 54
24 65 10 22 42 113 65 185 20 65 54 162 65 185 6 11 16 40 24 65 8 25 27 77
41 115 15 39 33 91 40 117 8 25 19 57 26 69 6 13 18 44 25 69 15 52 39 125 64
190 56 148 85 252 94 342 14 126 -46 293 -142 400 -63 70 -181 136 -280 157
-39 8 -841 11 -2924 11 -1579 0 -2873 1 -2875 3 -2 3 14 28 36 58 22 30 49 68
61 84 17 26 121 167 293 400 24 33 73 99 108 148 35 48 96 130 134 182 39 53
99 136 135 185 36 50 124 169 195 265 242 325 260 349 290 395 30 45 82 116
245 335 47 63 137 184 200 270 63 86 122 165 130 176 8 10 38 51 65 90 28 39
100 138 160 220 61 82 142 192 180 245 39 53 77 104 85 115 8 10 26 35 40 54
14 20 43 60 65 88 22 29 56 75 75 102 19 28 40 57 47 65 13 16 197 265 299
402 33 46 76 106 95 133 19 28 52 73 74 102 98 128 282 377 320 433 16 25 48
68 70 97 22 28 51 68 65 88 14 20 45 63 70 95 75 100 128 171 198 268 37 52
97 135 134 185 36 51 76 106 88 122 12 17 82 111 155 210 74 99 143 194 155
210 11 17 48 68 83 115 34 47 75 106 92 130 16 25 36 52 45 61 8 9 47 60 85
113 39 54 99 136 135 184 36 48 79 106 95 129 17 24 42 60 58 80 15 21 43 61
62 88 30 45 162 225 182 250 8 10 106 141 260 350 41 55 105 143 143 195 38
52 76 104 85 115 8 11 27 37 42 57 16 21 48 64 71 95 51 68 171 233 204 281
13 18 31 43 40 55 51 63 122 158 198 262 47 63 117 158 155 210 39 52 81 110
95 130 14 20 43 60 65 90 22 30 72 97 110 150 39 53 95 128 126 168 31 40 72
95 91 123 19 28 40 57 47 65 21 24 154 205 201 274 38 55 290 396 440 595 22
30 52 71 66 90 14 19 65 89 114 155 49 66 98 134 110 150 98 138 212 292 290
394 65 86 159 216 215 296 26 39 60 84 74 102 14 17 54 69 88 115 59 77 105
141 258 350 83 113 156 213 205 278 75 100 184 249 250 341 79 110 209 285
370 499 45 60 165 225 202 278 13 18 52 71 88 117 153 199 255 335 350 470 36
51 160 219 173 235 7 8 26 35 43 60 121 177 167 239 177 240 5 0 7 -3 5 -7z"/>
    <path d="M20140 36340 c-91 -4 -286 -13 -435 -19 -148 -6 -333 -18 -410 -26
-77 -8 -216 -20 -310 -26 -93 -5 -192 -14 -220 -20 -27 -5 -104 -14 -170 -20
-66 -5 -145 -14 -175 -20 -30 -5 -109 -16 -175 -23 -113 -13 -173 -22 -375
-61 -47 -9 -128 -22 -180 -30 -52 -7 -122 -20 -155 -28 -33 -9 -87 -20 -120
-25 -111 -18 -230 -43 -276 -57 -25 -8 -78 -19 -118 -25 -40 -6 -81 -15 -92
-21 -11 -5 -52 -16 -92 -24 -82 -16 -173 -39 -265 -66 -34 -11 -71 -19 -82
-19 -11 0 -46 -9 -77 -19 -32 -10 -87 -26 -123 -35 -181 -46 -206 -53 -225
-63 -11 -6 -40 -14 -65 -18 -25 -4 -57 -14 -72 -21 -15 -8 -51 -19 -80 -25
-29 -6 -58 -15 -64 -20 -6 -5 -34 -14 -64 -20 -29 -6 -71 -20 -94 -30 -23 -10
-49 -19 -59 -19 -11 0 -33 -7 -50 -15 -18 -8 -54 -21 -82 -29 -67 -19 -141
-44 -195 -65 -25 -10 -61 -24 -80 -31 -19 -7 -64 -23 -100 -37 -36 -14 -91
-33 -123 -43 -32 -10 -64 -23 -70 -28 -7 -5 -28 -13 -47 -17 -19 -4 -46 -13
-60 -21 -14 -8 -44 -21 -67 -29 -105 -37 -130 -47 -158 -60 -83 -39 -145 -65
-155 -65 -6 0 -32 -11 -58 -25 -26 -14 -54 -25 -62 -25 -8 0 -28 -9 -45 -20
-16 -11 -36 -20 -43 -20 -12 0 -64 -22 -168 -71 -23 -10 -44 -19 -47 -19 -4 0
-46 -18 -94 -41 -94 -43 -172 -80 -213 -98 -14 -6 -32 -15 -40 -20 -8 -5 -28
-16 -45 -24 -16 -7 -39 -18 -50 -24 -11 -6 -31 -16 -45 -22 -14 -6 -32 -15
-40 -21 -8 -5 -49 -26 -90 -46 -116 -55 -134 -64 -150 -75 -8 -5 -33 -18 -55
-29 -22 -11 -47 -24 -55 -28 -34 -20 -77 -43 -115 -62 -22 -11 -47 -24 -55
-29 -8 -6 -67 -38 -130 -73 -64 -35 -129 -71 -145 -80 -17 -10 -48 -27 -70
-38 -22 -11 -58 -31 -80 -45 -22 -13 -50 -29 -63 -34 -12 -6 -35 -19 -50 -30
-15 -10 -87 -54 -159 -97 -73 -44 -152 -91 -175 -106 -24 -15 -59 -37 -78 -48
-42 -24 -48 -28 -175 -109 -112 -72 -237 -155 -329 -219 -33 -23 -87 -60 -120
-81 -71 -47 -88 -59 -132 -91 -18 -14 -49 -36 -69 -50 -20 -14 -60 -43 -90
-65 -30 -22 -71 -51 -90 -65 -20 -14 -74 -54 -120 -90 -46 -36 -111 -85 -145
-110 -33 -25 -84 -63 -113 -86 -28 -22 -92 -71 -142 -109 -90 -69 -440 -357
-610 -501 -135 -115 -356 -315 -484 -439 -307 -296 -546 -534 -669 -665 -75
-80 -188 -201 -253 -270 -64 -69 -145 -159 -180 -200 -35 -41 -75 -86 -88
-100 -43 -47 -559 -686 -621 -770 -25 -33 -65 -87 -90 -120 -25 -32 -56 -75
-70 -95 -14 -20 -38 -53 -54 -73 -15 -20 -39 -53 -52 -72 -13 -19 -34 -49 -46
-67 -95 -132 -246 -352 -273 -395 -5 -9 -37 -56 -69 -105 -33 -48 -79 -118
-103 -155 -23 -38 -63 -98 -87 -135 -24 -38 -60 -97 -81 -133 -21 -36 -47 -81
-58 -100 -11 -19 -29 -51 -39 -70 -11 -19 -32 -57 -49 -85 -16 -27 -34 -61
-40 -75 -5 -13 -16 -31 -22 -38 -7 -8 -28 -43 -47 -77 -19 -35 -69 -123 -110
-196 -78 -139 -132 -242 -195 -369 -20 -41 -41 -82 -46 -90 -5 -8 -14 -26 -19
-40 -6 -14 -15 -34 -22 -45 -28 -48 -158 -321 -158 -332 0 -3 -21 -49 -46
-102 -25 -53 -54 -114 -64 -136 -9 -22 -30 -67 -45 -100 -45 -100 -62 -137
-90 -205 -15 -36 -38 -88 -51 -115 -13 -28 -24 -58 -24 -67 0 -9 -4 -20 -10
-23 -5 -3 -16 -27 -24 -53 -17 -54 -53 -145 -72 -184 -8 -14 -14 -32 -14 -38
0 -7 -11 -38 -24 -69 -12 -31 -29 -72 -35 -91 -7 -19 -24 -64 -38 -100 -13
-36 -31 -87 -38 -115 -8 -27 -19 -59 -24 -70 -14 -27 -49 -128 -67 -195 -9
-30 -19 -59 -24 -65 -4 -5 -15 -35 -23 -65 -8 -30 -27 -93 -42 -140 -54 -173
-121 -408 -170 -595 -8 -33 -24 -89 -34 -125 -46 -162 -86 -323 -107 -438 -7
-40 -18 -80 -23 -90 -5 -10 -15 -55 -21 -101 -6 -46 -16 -95 -21 -109 -6 -15
-17 -66 -25 -114 -7 -47 -18 -97 -23 -110 -5 -14 -15 -69 -21 -123 -6 -54 -16
-109 -21 -122 -5 -13 -16 -79 -24 -146 -9 -67 -22 -156 -30 -197 -8 -41 -14
-90 -15 -109 0 -19 -9 -84 -20 -145 -30 -171 -50 -325 -65 -511 -8 -93 -19
-201 -25 -239 -6 -37 -15 -161 -20 -275 -5 -113 -15 -267 -22 -341 -18 -189
-18 -1339 0 -1505 7 -66 17 -205 22 -310 5 -104 16 -246 24 -315 16 -125 38
-320 57 -500 6 -52 18 -142 29 -200 10 -58 21 -138 25 -179 4 -40 11 -85 16
-100 6 -14 16 -69 24 -121 14 -103 37 -225 62 -335 9 -38 22 -104 29 -145 6
-41 19 -104 27 -140 42 -174 50 -210 62 -270 12 -64 36 -167 56 -245 6 -22 15
-60 20 -85 10 -44 41 -157 78 -290 10 -36 24 -85 30 -110 7 -25 23 -83 37
-130 14 -47 32 -112 40 -144 8 -33 21 -71 28 -85 7 -14 16 -44 20 -66 4 -22
15 -62 26 -90 10 -27 30 -90 45 -140 15 -49 36 -111 46 -137 11 -26 19 -53 19
-60 1 -7 9 -31 20 -53 11 -22 19 -49 20 -60 0 -12 9 -38 19 -59 11 -21 23 -52
26 -69 4 -18 13 -41 20 -52 6 -11 19 -42 28 -70 16 -51 48 -138 87 -235 12
-30 29 -73 37 -95 14 -38 33 -84 73 -170 25 -55 69 -152 90 -200 10 -22 30
-65 44 -95 14 -30 26 -62 26 -70 0 -9 6 -24 14 -35 7 -11 17 -31 21 -45 13
-42 131 -291 282 -595 90 -182 133 -264 201 -385 18 -30 40 -71 50 -90 11 -19
32 -57 47 -85 25 -44 68 -123 136 -250 33 -62 58 -106 84 -150 13 -22 32 -53
41 -70 21 -38 163 -277 186 -313 10 -15 25 -40 33 -55 22 -38 283 -425 433
-641 23 -33 53 -77 66 -96 13 -19 49 -69 79 -110 31 -41 77 -104 104 -140 26
-36 82 -108 123 -160 41 -52 88 -112 103 -133 16 -21 36 -45 46 -55 9 -9 44
-53 76 -97 143 -190 298 -380 455 -555 47 -53 108 -123 136 -155 154 -180 216
-248 388 -430 335 -353 612 -622 1019 -988 200 -180 388 -335 789 -653 174
-139 652 -496 782 -586 26 -18 74 -51 106 -73 95 -66 313 -210 415 -273 22
-14 52 -33 67 -44 15 -10 31 -18 36 -18 5 0 15 -7 22 -15 6 -8 42 -31 78 -52
120 -69 214 -125 257 -153 17 -11 48 -29 70 -41 22 -12 65 -39 96 -60 136 -92
273 -158 354 -170 33 -5 97 -6 143 -3 65 5 98 14 150 39 37 18 89 52 115 75
51 45 107 118 144 185 24 45 52 180 46 222 -20 135 -46 213 -99 291 -46 67
-145 147 -267 218 -38 21 -85 49 -105 61 -21 12 -51 29 -69 37 -17 9 -34 20
-38 26 -4 6 -21 17 -38 25 -18 8 -52 28 -77 45 -25 16 -52 33 -60 37 -8 4 -39
23 -69 42 -29 20 -61 40 -70 46 -9 5 -32 19 -51 31 -19 11 -80 50 -135 86 -55
36 -120 77 -145 92 -25 15 -79 51 -120 81 -41 30 -91 64 -110 75 -42 25 -66
40 -160 105 -119 82 -168 118 -275 202 -29 24 -56 43 -60 43 -3 0 -32 21 -64
48 -32 26 -98 76 -145 112 -150 112 -368 286 -455 362 -45 40 -120 105 -166
143 -178 151 -464 406 -593 530 -310 297 -605 601 -815 840 -58 66 -122 138
-144 161 -128 137 -443 507 -443 522 0 4 -27 36 -60 72 -33 36 -60 68 -60 72
0 4 -30 45 -68 92 -37 47 -78 101 -92 121 -14 20 -34 47 -45 61 -11 13 -31 40
-45 59 -14 20 -43 60 -65 88 -22 29 -54 72 -70 97 -16 25 -45 64 -64 88 -19
23 -50 67 -70 96 -20 29 -67 100 -106 156 -69 101 -91 133 -150 225 -16 25
-49 70 -72 100 -24 29 -43 57 -43 61 0 4 -19 37 -43 73 -23 36 -47 73 -52 82
-6 9 -26 41 -46 70 -19 30 -38 61 -42 69 -4 8 -21 35 -37 60 -16 25 -36 59
-45 75 -9 17 -27 48 -40 70 -14 22 -33 56 -43 75 -9 19 -25 46 -34 60 -22 33
-71 122 -170 310 -24 47 -49 94 -55 105 -6 11 -16 31 -22 45 -7 14 -23 43 -36
65 -27 45 -284 560 -338 675 -19 41 -48 104 -65 140 -55 119 -92 208 -92 222
0 8 -4 18 -9 24 -11 11 -58 125 -73 174 -5 19 -14 40 -19 46 -5 6 -18 35 -28
65 -38 108 -44 125 -62 167 -11 23 -19 48 -19 55 0 6 -7 26 -16 42 -9 17 -25
55 -34 85 -10 30 -30 87 -45 125 -53 141 -72 195 -110 305 -12 36 -28 81 -35
100 -7 19 -19 60 -27 90 -8 30 -20 69 -28 85 -7 17 -17 48 -21 70 -4 22 -15
59 -26 83 -10 24 -18 54 -18 68 0 13 -7 41 -16 63 -8 22 -22 66 -29 98 -30
128 -46 190 -62 238 -9 28 -22 79 -29 115 -12 61 -31 144 -55 235 -6 22 -19
82 -29 133 -11 51 -22 97 -25 103 -4 5 -13 47 -21 92 -8 45 -21 107 -29 137
-8 30 -15 70 -15 90 0 19 -8 65 -19 101 -10 36 -22 95 -26 130 -4 35 -13 87
-20 114 -8 28 -19 94 -25 147 -6 54 -16 112 -21 130 -5 18 -14 80 -20 138 -5
58 -16 139 -24 180 -8 41 -19 136 -25 210 -6 74 -15 155 -20 180 -5 25 -14
124 -20 220 -5 96 -18 243 -27 325 -14 126 -17 255 -17 805 0 441 4 696 12
780 7 69 17 199 22 290 17 259 46 588 67 730 8 58 21 157 28 222 8 64 19 134
24 155 6 22 16 86 21 142 6 56 15 114 21 128 5 15 14 59 19 99 5 40 18 112 29
161 22 102 49 242 62 327 5 33 18 93 28 135 11 42 24 99 30 126 15 75 38 171
60 255 26 99 39 149 61 240 24 99 49 188 61 225 6 17 19 59 29 95 10 36 22 79
28 95 6 17 23 71 38 120 15 50 33 106 41 125 7 19 20 60 28 90 14 58 36 124
65 200 10 25 30 79 45 120 15 41 35 94 46 118 10 23 19 50 19 59 0 9 9 34 19
57 10 23 31 75 46 116 15 41 35 93 45 115 10 22 28 67 40 100 24 63 71 178 95
230 22 47 51 114 85 195 17 41 41 95 52 120 12 25 29 63 39 85 35 78 121 261
151 320 17 33 37 74 45 90 8 17 18 37 24 45 5 8 14 26 19 40 6 14 14 32 20 40
5 8 22 40 38 70 15 30 46 87 67 125 21 39 57 105 79 147 53 99 334 595 356
628 9 14 37 57 62 95 25 39 75 117 113 175 38 58 87 134 110 170 107 166 259
388 356 520 26 36 58 80 71 98 22 32 76 103 216 285 70 93 430 538 441 547 4
3 42 48 86 100 316 378 948 1023 1355 1386 66 59 315 273 349 300 13 10 31 26
40 35 16 16 393 321 441 357 250 189 404 302 468 345 18 12 60 42 95 66 34 24
88 63 121 85 32 23 75 53 95 68 20 15 45 32 56 37 12 5 27 16 34 25 7 9 18 16
24 16 6 0 18 7 28 16 10 9 31 23 48 32 16 10 70 44 118 76 48 33 120 79 158
104 39 25 82 53 97 63 15 11 30 19 32 19 5 0 78 44 162 97 21 14 73 45 139 83
73 42 188 110 217 128 79 50 361 206 418 231 14 6 32 15 40 20 26 16 629 316
710 353 25 11 66 31 91 44 26 13 54 24 62 24 8 0 20 6 26 13 6 8 28 19 50 25
21 7 44 19 51 27 7 8 19 15 28 15 14 0 83 30 164 71 20 10 43 19 50 19 7 0 36
12 63 25 28 14 56 25 63 25 7 0 30 9 50 19 36 19 186 79 267 107 22 8 51 20
65 28 14 8 41 17 60 21 19 4 51 16 70 26 19 11 44 19 55 19 11 0 36 8 55 19
19 10 51 21 71 25 19 3 53 15 74 26 22 11 48 20 60 20 11 1 38 9 60 20 22 11
49 20 60 20 11 0 39 9 61 19 23 10 57 22 75 26 19 3 57 15 84 25 46 17 101 34
300 92 39 12 95 29 125 39 30 10 73 21 95 25 22 4 51 12 65 19 14 7 48 16 75
20 28 5 73 16 102 26 29 10 74 21 100 25 26 3 56 11 65 16 10 5 44 13 75 19
32 5 92 18 133 28 103 27 247 59 295 66 22 3 78 15 125 25 47 10 114 23 150
28 118 18 391 64 575 98 50 9 146 22 215 29 69 7 150 17 180 23 30 6 123 16
207 22 83 5 196 16 250 24 54 8 163 17 243 21 80 3 208 13 285 21 187 20 1192
30 1560 16 327 -13 801 -48 980 -73 44 -6 148 -12 230 -12 139 -2 154 0 205
23 142 63 248 156 304 268 28 56 38 91 46 162 14 120 0 200 -52 301 -52 102
-136 186 -235 235 -64 31 -93 39 -192 50 -64 7 -150 18 -191 24 -41 6 -145 15
-230 21 -85 5 -209 16 -275 24 -66 8 -248 19 -405 25 -157 6 -366 15 -465 20
-200 10 -543 10 -795 0z"/>
    <path d="M28350 34195 c-105 -18 -176 -57 -267 -145 -86 -83 -126 -163 -155
-304 -10 -51 -4 -101 26 -207 23 -81 61 -144 130 -214 68 -69 103 -92 326
-220 63 -37 135 -79 160 -95 54 -34 68 -43 156 -94 36 -21 85 -51 108 -66 22
-15 68 -44 101 -65 126 -80 313 -208 475 -325 54 -39 144 -103 205 -144 17
-12 37 -27 45 -34 18 -14 115 -89 200 -152 81 -61 271 -209 345 -269 33 -28
110 -89 170 -137 61 -47 115 -92 120 -98 6 -7 55 -50 110 -96 85 -72 133 -113
189 -165 6 -6 65 -60 131 -120 135 -124 125 -115 231 -214 103 -97 384 -373
454 -448 201 -212 405 -433 451 -488 19 -22 48 -56 65 -75 120 -135 199 -229
335 -395 85 -104 168 -208 184 -230 16 -22 57 -74 90 -116 33 -42 92 -120 130
-174 39 -53 104 -142 145 -197 131 -175 298 -418 388 -563 14 -22 33 -52 44
-67 10 -15 18 -29 18 -31 0 -2 28 -47 63 -98 65 -98 111 -173 225 -370 23 -41
47 -81 52 -89 5 -8 35 -61 67 -118 32 -56 68 -119 80 -140 13 -20 32 -55 43
-77 11 -22 43 -80 70 -130 27 -49 54 -101 59 -115 6 -14 15 -32 20 -40 15 -24
193 -384 245 -495 26 -55 58 -125 73 -155 45 -97 62 -134 88 -200 26 -63 44
-104 85 -192 10 -24 31 -72 46 -108 14 -36 37 -90 50 -121 13 -31 24 -62 24
-68 0 -7 5 -22 12 -34 12 -23 34 -80 68 -177 11 -30 30 -84 44 -120 13 -36 30
-81 36 -100 7 -19 21 -55 31 -80 22 -56 46 -129 65 -195 7 -27 20 -66 29 -85
8 -19 19 -53 24 -75 5 -22 16 -60 24 -85 9 -25 23 -67 32 -95 9 -27 22 -72 30
-100 8 -27 25 -88 38 -135 13 -47 29 -95 35 -107 7 -12 12 -32 12 -45 0 -13 8
-52 19 -88 39 -130 71 -257 71 -278 0 -12 9 -48 19 -79 11 -32 23 -80 26 -108
4 -27 15 -76 26 -108 10 -31 19 -72 19 -90 0 -17 9 -59 19 -92 10 -33 22 -89
26 -125 4 -35 13 -81 20 -101 7 -20 16 -67 20 -105 4 -38 13 -96 22 -128 8
-33 19 -100 24 -150 6 -50 16 -116 24 -146 7 -30 17 -91 20 -135 4 -44 13
-109 21 -145 8 -35 19 -123 25 -195 6 -71 14 -149 20 -172 5 -23 16 -129 24
-236 8 -107 20 -230 26 -273 5 -43 14 -185 19 -314 5 -129 14 -358 21 -509 12
-278 12 -276 -21 -1073 -5 -124 -14 -255 -19 -290 -6 -34 -17 -155 -26 -268
-8 -113 -19 -225 -24 -250 -5 -25 -14 -101 -20 -170 -6 -69 -15 -139 -20 -157
-5 -17 -14 -83 -21 -145 -6 -62 -18 -142 -26 -178 -7 -36 -18 -102 -24 -147
-5 -46 -16 -109 -24 -140 -8 -32 -17 -89 -21 -127 -4 -38 -13 -85 -20 -105 -7
-20 -15 -61 -19 -91 -6 -51 -18 -105 -62 -295 -9 -38 -22 -99 -30 -135 -14
-68 -35 -152 -65 -260 -21 -76 -45 -171 -63 -255 -8 -33 -19 -73 -25 -90 -7
-16 -18 -57 -26 -90 -7 -33 -20 -78 -29 -100 -8 -22 -15 -50 -16 -63 0 -13 -6
-36 -14 -51 -8 -15 -22 -54 -30 -87 -15 -60 -33 -120 -65 -209 -43 -121 -53
-153 -65 -200 -7 -27 -20 -64 -29 -82 -9 -18 -17 -39 -17 -48 0 -10 -7 -31
-14 -48 -19 -40 -53 -138 -71 -200 -8 -26 -21 -57 -29 -69 -9 -12 -16 -32 -16
-43 0 -11 -12 -42 -25 -70 -14 -27 -25 -57 -25 -65 0 -8 -9 -28 -20 -45 -11
-16 -20 -37 -20 -45 0 -8 -12 -37 -25 -65 -14 -27 -25 -56 -25 -63 0 -7 -9
-30 -19 -50 -34 -68 -71 -149 -71 -158 0 -5 -9 -27 -19 -49 -23 -47 -60 -130
-91 -200 -11 -27 -30 -68 -40 -90 -10 -22 -37 -80 -60 -130 -52 -112 -276
-557 -300 -595 -5 -8 -41 -73 -80 -145 -39 -71 -75 -137 -80 -145 -5 -8 -48
-85 -96 -170 -48 -85 -101 -177 -119 -205 -18 -27 -39 -62 -46 -77 -21 -41
-90 -160 -109 -188 -10 -14 -30 -46 -46 -72 -109 -175 -158 -250 -222 -341
-99 -140 -133 -188 -198 -287 -32 -47 -71 -104 -88 -127 -17 -23 -42 -58 -56
-78 -14 -20 -36 -51 -50 -70 -14 -18 -63 -86 -110 -150 -47 -64 -103 -140
-126 -168 -22 -29 -45 -59 -50 -68 -5 -9 -27 -37 -49 -64 -22 -26 -57 -68 -78
-94 -21 -25 -58 -68 -81 -96 -24 -27 -90 -107 -147 -176 -155 -187 -250 -297
-398 -464 -281 -313 -751 -795 -971 -995 -63 -58 -119 -110 -125 -116 -34 -38
-414 -369 -573 -499 -21 -16 -92 -75 -159 -130 -67 -55 -173 -139 -235 -187
-244 -189 -278 -215 -339 -261 -163 -122 -255 -188 -454 -320 -323 -216 -362
-242 -430 -282 -33 -20 -94 -58 -135 -86 -41 -27 -88 -56 -105 -65 -16 -8 -52
-29 -80 -46 -134 -83 -592 -343 -700 -398 -22 -11 -68 -36 -102 -55 -151 -84
-195 -108 -308 -163 -217 -107 -292 -142 -307 -142 -9 0 -21 -7 -28 -15 -7 -8
-18 -15 -24 -15 -7 0 -34 -11 -62 -24 -69 -33 -127 -59 -214 -96 -87 -37 -150
-65 -202 -91 -20 -11 -43 -19 -50 -19 -7 0 -35 -12 -63 -25 -27 -14 -57 -25
-65 -25 -9 0 -24 -6 -35 -14 -11 -7 -38 -19 -60 -26 -22 -7 -49 -19 -60 -26
-11 -8 -26 -14 -33 -14 -14 0 -101 -34 -177 -70 -22 -11 -53 -22 -70 -26 -16
-4 -43 -16 -60 -26 -16 -10 -38 -18 -48 -18 -10 0 -34 -8 -55 -19 -20 -10 -56
-22 -79 -26 -24 -4 -45 -11 -48 -16 -3 -4 -25 -13 -48 -19 -23 -6 -62 -19 -87
-29 -64 -26 -139 -51 -185 -62 -22 -5 -61 -18 -87 -29 -26 -11 -56 -20 -68
-20 -12 0 -42 -8 -68 -19 -26 -10 -74 -25 -107 -34 -33 -8 -91 -25 -130 -37
-38 -12 -101 -29 -140 -39 -38 -10 -95 -25 -125 -34 -30 -9 -91 -25 -135 -36
-44 -11 -116 -29 -160 -40 -44 -11 -98 -23 -120 -27 -22 -3 -69 -14 -105 -24
-108 -30 -201 -51 -286 -66 -45 -7 -93 -18 -107 -23 -14 -5 -54 -13 -89 -16
-34 -4 -94 -15 -133 -25 -38 -10 -99 -22 -135 -25 -36 -4 -103 -16 -150 -26
-47 -10 -101 -19 -121 -19 -20 0 -70 -7 -110 -15 -91 -18 -360 -51 -574 -70
-88 -8 -218 -21 -290 -29 -71 -8 -202 -18 -290 -21 -88 -4 -200 -11 -250 -17
-49 -5 -355 -13 -680 -17 -585 -7 -590 -7 -638 -30 -122 -57 -234 -161 -284
-261 -21 -43 -37 -93 -45 -148 -9 -66 -9 -99 2 -163 7 -48 25 -106 43 -143 36
-71 141 -180 214 -221 26 -15 84 -38 128 -52 l80 -24 514 0 c449 0 841 11 921
26 14 3 122 9 240 15 118 6 244 15 280 21 35 5 130 16 210 24 80 8 188 21 240
30 52 8 113 15 136 15 22 0 63 6 90 14 27 8 92 19 144 25 52 6 118 15 145 21
28 6 79 15 115 21 36 6 103 20 150 30 47 10 101 19 120 19 20 0 63 7 95 16 33
8 100 22 150 30 49 8 109 21 133 29 23 8 59 15 80 15 20 1 55 8 77 16 22 8 74
21 115 29 41 8 100 20 130 28 60 17 115 30 230 58 41 10 93 25 115 33 22 8 52
15 67 16 15 0 50 9 78 20 28 11 63 20 78 20 15 1 45 8 67 16 22 9 65 21 95 29
30 7 72 20 92 29 21 9 45 16 55 16 10 0 31 7 47 15 17 9 50 20 75 26 25 5 69
18 96 28 65 24 139 49 195 66 60 18 135 44 190 65 25 10 75 29 113 44 37 14
76 26 87 26 10 0 22 4 25 10 3 5 32 17 63 26 31 9 62 21 69 26 7 5 31 16 55
23 64 21 249 91 310 119 21 9 43 16 50 16 7 0 27 9 43 20 17 11 37 20 45 20 8
0 38 12 65 25 28 14 57 25 65 25 8 0 29 9 45 20 17 11 36 20 43 20 13 0 37 11
209 91 45 21 93 41 107 45 14 3 30 12 37 20 6 8 16 14 22 14 12 0 63 24 317
147 186 90 234 115 425 214 66 35 140 73 165 86 25 13 81 44 125 69 44 24 94
51 112 59 17 8 35 20 38 26 4 6 26 19 49 30 22 11 59 31 81 44 22 13 56 34 75
45 36 21 87 52 150 90 51 30 109 65 154 92 40 24 49 29 101 62 17 11 46 29 65
41 48 30 396 256 490 318 63 42 166 112 258 178 35 24 73 51 85 59 12 8 45 33
74 55 29 22 77 58 108 80 31 22 83 60 115 85 33 25 87 65 120 90 62 46 169
127 205 155 11 8 52 39 90 67 92 68 219 173 325 268 47 42 139 121 205 175
150 124 179 149 400 360 99 95 227 214 284 266 58 52 145 135 195 185 118 118
424 439 551 579 55 60 105 114 111 120 41 39 218 245 429 500 239 288 273 329
316 385 11 14 39 50 62 80 53 67 255 336 279 370 9 14 35 50 58 80 22 30 61
86 87 124 27 38 57 81 68 96 46 64 154 222 225 330 42 63 84 126 93 140 92
137 147 222 171 265 9 17 30 50 46 75 16 25 36 59 45 75 32 61 53 95 65 110 7
8 20 28 29 45 18 32 94 162 128 219 12 20 31 54 42 76 12 22 25 47 31 55 5 8
41 74 80 145 39 72 75 137 80 145 5 8 20 35 33 60 44 86 155 297 166 316 9 17
103 212 205 425 20 42 36 81 36 86 0 6 6 16 14 22 8 7 17 24 20 39 6 25 18 52
66 155 11 23 20 47 20 52 0 6 8 26 19 45 10 19 22 46 26 60 4 14 18 50 32 80
47 103 52 115 83 190 17 41 37 89 45 105 25 58 57 140 67 174 5 19 16 44 23
55 7 12 16 37 20 56 4 19 13 46 21 60 16 28 40 94 59 160 7 25 22 65 34 90 11
25 21 51 21 58 0 8 7 28 15 45 8 18 21 55 29 82 15 51 34 110 66 200 40 114
52 152 61 194 5 24 13 49 18 55 9 11 35 100 67 231 8 33 20 74 25 90 6 17 17
59 24 95 7 36 19 83 27 105 8 22 18 62 23 90 4 27 13 61 20 75 7 14 16 52 20
85 4 33 13 75 21 93 7 19 19 64 25 100 6 37 15 74 20 83 5 9 13 50 20 90 6 41
19 103 30 138 10 35 19 78 19 95 0 18 7 56 16 86 9 29 22 89 29 134 12 76 21
125 62 336 9 47 20 119 24 160 5 41 16 104 24 140 8 36 19 108 25 160 6 52 17
129 25 170 7 41 14 100 14 130 1 30 10 116 20 190 10 74 22 189 25 255 4 66
13 172 21 235 30 236 44 1225 25 1860 -8 295 -33 630 -70 940 -40 346 -52 431
-76 575 -9 50 -20 124 -26 165 -5 41 -18 116 -28 165 -11 50 -22 119 -26 155
-4 35 -12 80 -19 100 -7 19 -15 62 -19 95 -4 33 -15 98 -26 145 -24 108 -47
216 -65 305 -8 39 -21 92 -30 119 -8 27 -15 61 -15 75 -1 14 -8 44 -16 66 -8
22 -21 72 -28 110 -29 147 -104 432 -156 590 -11 33 -20 70 -20 83 0 13 -9 44
-19 70 -10 26 -31 88 -46 137 -16 50 -38 118 -51 153 -13 34 -24 70 -24 80 0
10 -5 23 -11 29 -6 6 -19 40 -29 75 -27 94 -50 160 -65 188 -7 14 -16 41 -20
60 -4 19 -16 54 -26 77 -11 23 -19 48 -19 55 0 7 -11 36 -25 63 -13 28 -25 58
-25 67 0 10 -9 32 -20 50 -11 18 -20 40 -20 48 0 8 -7 29 -16 45 -9 17 -24 53
-34 80 -10 28 -28 75 -40 105 -12 30 -29 73 -37 95 -8 22 -23 58 -34 81 -10
22 -19 46 -19 53 0 6 -9 29 -19 49 -39 77 -71 150 -71 163 0 8 -9 25 -20 39
-11 14 -20 31 -20 37 0 7 -18 52 -41 100 -23 49 -55 117 -71 153 -39 83 -158
330 -169 350 -4 8 -38 74 -74 145 -36 72 -88 171 -115 220 -27 50 -54 101 -59
115 -6 14 -15 32 -21 40 -5 8 -19 32 -30 53 -50 93 -63 117 -101 187 -23 41
-47 82 -54 90 -8 8 -19 26 -25 40 -6 14 -22 43 -35 65 -13 22 -34 56 -45 75
-11 19 -34 55 -50 80 -16 25 -34 54 -40 65 -6 11 -24 40 -40 65 -16 25 -39 61
-50 80 -12 19 -31 51 -43 71 -12 20 -47 74 -78 120 -51 78 -78 119 -104 160
-10 16 -69 108 -93 145 -56 87 -53 82 -122 179 -134 191 -559 759 -598 801
-15 15 -149 180 -185 227 -12 16 -29 36 -37 45 -8 9 -60 71 -114 137 -55 66
-106 127 -115 136 -9 9 -45 49 -81 89 -227 258 -361 400 -660 699 -152 152
-316 315 -365 362 -85 81 -349 321 -444 405 -25 21 -54 48 -65 60 -26 25 -558
462 -684 561 -85 66 -255 193 -327 243 -20 14 -46 33 -58 42 -12 10 -80 60
-152 112 -71 52 -153 113 -182 135 -28 23 -56 41 -62 41 -5 0 -22 10 -38 23
-15 12 -36 27 -44 32 -9 6 -54 35 -100 66 -46 31 -109 72 -139 92 -30 20 -88
59 -127 86 -40 27 -84 56 -97 63 -14 7 -61 36 -106 63 -44 28 -96 59 -115 70
-19 11 -68 40 -110 65 -42 25 -91 53 -109 62 -18 9 -38 23 -45 32 -8 9 -21 16
-31 16 -9 0 -29 9 -43 20 -14 11 -28 20 -32 20 -3 0 -30 11 -58 24 -29 14 -87
29 -130 35 -43 6 -81 11 -85 10 -4 -1 -41 -7 -82 -14z"/>
  </g>
</svg>