<svg xmlns="http://www.w3.org/2000/svg" viewBox="0 0 4096.000000 4096.000000">
  <g transform="translate(0.000000,4096.000000) scale(0.100000,-0.100000)" fill="#f4f5f7" stroke="#f4f5f7" stroke-width="40" stroke-linejoin="round" stroke-linecap="round">
    <path d="M19750 39889 c-146 -4 -373 -15 -505 -23 -217 -15 -328 -25 -610 -55
-49 -5 -180 -17 -290 -26 -110 -10 -288 -28 -395 -41 -107 -14 -249 -31 -315
-39 -127 -16 -360 -51 -560 -86 -66 -11 -201 -34 -300 -50 -99 -16 -207 -36
-240 -44 -33 -7 -105 -21 -160 -30 -55 -9 -156 -30 -225 -46 -69 -16 -174 -41
-235 -55 -60 -15 -155 -37 -210 -51 -55 -14 -156 -38 -225 -54 -132 -31 -438
-117 -630 -176 -63 -19 -299 -96 -525 -170 -420 -138 -560 -189 -860 -313
-194 -80 -275 -114 -321 -136 -28 -13 -54 -24 -57 -24 -11 0 -278 -116 -442
-193 -180 -84 -579 -279 -670 -328 -33 -18 -143 -77 -245 -133 -102 -55 -203
-109 -225 -121 -22 -12 -76 -41 -120 -65 -107 -57 -566 -319 -685 -390 -52
-31 -174 -107 -270 -168 -96 -61 -217 -137 -268 -169 -127 -79 -882 -582
-1062 -707 -80 -56 -155 -108 -167 -116 -155 -105 -422 -301 -537 -395 -338
-276 -434 -360 -791 -690 -77 -72 -187 -173 -245 -225 -143 -128 -1047 -1033
-1146 -1146 -43 -50 -167 -191 -276 -315 -108 -123 -238 -276 -289 -339 -151
-186 -281 -350 -341 -430 -31 -41 -102 -131 -158 -200 -192 -236 -341 -444
-559 -780 -52 -80 -165 -250 -250 -378 -86 -128 -165 -247 -175 -265 -11 -18
-65 -102 -119 -187 -246 -383 -264 -414 -450 -750 -114 -207 -208 -374 -218
-386 -5 -6 -29 -51 -55 -100 -25 -49 -65 -125 -89 -169 -70 -132 -271 -535
-300 -605 -46 -107 -184 -450 -215 -530 -16 -41 -63 -158 -105 -260 -42 -102
-87 -214 -100 -250 -13 -36 -60 -164 -105 -285 -45 -121 -113 -310 -152 -420
-39 -110 -88 -252 -111 -315 -22 -63 -52 -155 -68 -205 -15 -49 -55 -175 -89
-280 -33 -104 -90 -293 -126 -420 -36 -126 -83 -291 -104 -365 -21 -74 -48
-178 -60 -230 -12 -52 -33 -138 -47 -190 -14 -52 -40 -166 -59 -255 -19 -88
-45 -209 -59 -270 -14 -60 -39 -185 -55 -277 -16 -92 -39 -207 -49 -255 -11
-48 -32 -173 -46 -278 -14 -104 -32 -233 -40 -285 -14 -89 -56 -459 -105 -930
-12 -113 -23 -207 -25 -210 -9 -15 -51 -791 -66 -1235 -12 -351 -7 -1126 10
-1435 14 -247 38 -588 50 -700 54 -503 129 -1112 147 -1184 2 -12 18 -109 34
-216 16 -107 42 -265 58 -350 16 -85 37 -202 47 -260 21 -125 80 -410 135
-645 22 -93 46 -202 54 -240 25 -118 185 -676 298 -1035 44 -140 97 -311 118
-380 22 -69 51 -159 65 -200 15 -41 60 -172 100 -290 89 -261 244 -694 289
-810 19 -47 47 -114 64 -150 16 -36 46 -103 67 -150 20 -47 61 -136 91 -198
30 -62 54 -115 54 -117 0 -6 163 -365 200 -440 16 -33 56 -116 88 -185 113
-237 249 -506 362 -710 62 -113 116 -209 120 -215 5 -5 43 -77 85 -160 80
-156 122 -227 363 -613 183 -294 561 -869 642 -977 14 -18 54 -75 90 -125 128
-180 187 -260 305 -415 66 -86 127 -166 135 -179 107 -156 558 -708 839 -1025
194 -220 895 -939 1029 -1055 37 -32 103 -93 147 -135 152 -145 387 -360 560
-513 45 -39 178 -148 276 -225 57 -45 153 -123 214 -173 60 -50 150 -122 200
-160 49 -38 133 -103 185 -144 52 -42 142 -111 200 -153 58 -42 182 -133 275
-203 142 -105 301 -218 425 -303 95 -64 248 -169 265 -181 19 -13 212 -139
385 -251 41 -26 127 -82 190 -123 361 -236 367 -240 455 -287 39 -21 137 -78
218 -127 82 -48 180 -105 220 -124 39 -20 103 -56 142 -79 38 -23 151 -86 250
-140 99 -54 185 -101 190 -105 6 -5 127 -66 270 -138 293 -146 668 -323 795
-375 164 -67 215 -89 265 -112 28 -12 93 -38 145 -58 52 -20 167 -64 255 -97
369 -142 1159 -396 1655 -531 263 -72 364 -98 435 -114 39 -8 171 -39 295 -68
124 -30 308 -73 410 -96 102 -23 253 -57 335 -76 243 -55 734 -143 945 -170
69 -9 202 -27 295 -40 178 -25 632 -72 1215 -125 251 -23 501 -31 1090 -37
475 -4 704 -2 1005 11 215 9 460 23 545 31 85 8 254 24 375 36 493 47 889 98
1585 204 259 40 697 123 848 161 53 13 151 36 217 50 66 14 183 43 260 64 77
21 181 48 230 60 50 12 133 35 185 50 52 16 194 56 315 90 121 33 267 76 325
95 58 18 168 52 245 75 326 97 819 268 1080 373 229 93 711 303 990 432 115
53 685 337 785 391 180 97 449 249 675 383 117 68 134 79 260 158 44 28 109
68 145 89 36 21 133 83 216 139 143 95 269 176 338 220 227 141 668 449 861
600 72 56 193 148 270 206 133 99 459 356 536 423 20 17 77 65 128 105 50 41
109 90 129 109 20 19 105 91 187 161 83 71 166 143 185 161 19 18 116 105 215
193 237 211 526 491 788 762 190 198 378 397 452 480 15 17 41 45 59 64 17 19
83 96 146 171 63 75 174 205 245 287 72 83 168 199 215 258 47 60 91 115 99
122 13 14 526 699 648 866 67 91 539 798 613 916 25 39 72 113 106 164 33 51
81 126 106 167 25 41 64 104 86 140 35 56 77 127 175 300 11 19 29 51 40 70
11 19 62 114 114 210 53 96 110 200 128 230 56 94 289 552 395 775 102 215
122 258 238 510 193 420 298 667 445 1045 128 330 152 396 245 680 168 510
231 714 291 945 33 127 74 282 91 345 29 108 92 376 145 622 13 59 26 111 28
115 5 8 90 452 102 533 4 25 18 99 30 165 13 66 33 185 45 265 11 80 25 168
30 195 20 103 88 658 105 860 4 39 15 142 25 230 33 283 67 800 80 1235 13
414 13 1226 0 1365 -6 61 -14 200 -20 310 -9 186 -17 308 -40 595 -18 233 -83
753 -135 1085 -14 88 -37 239 -50 335 -41 292 -91 561 -175 945 -45 202 -250
1028 -305 1230 -64 233 -194 642 -305 965 -81 234 -194 543 -229 627 -11 26
-70 179 -132 338 -61 160 -122 311 -135 337 -13 26 -35 75 -48 110 -13 35 -58
134 -100 220 -41 87 -92 197 -112 245 -97 235 -552 1158 -664 1348 -30 50 -80
140 -113 200 -33 61 -70 126 -83 145 -12 19 -52 89 -89 155 -38 66 -82 143
-100 170 -101 159 -159 250 -210 335 -32 52 -72 118 -90 145 -18 28 -63 99
-101 158 -38 60 -109 166 -159 236 -141 200 -156 221 -210 301 -28 41 -79 113
-114 160 -34 47 -83 114 -108 150 -56 78 -384 514 -519 690 -53 69 -152 189
-220 267 -68 78 -167 195 -222 260 -169 203 -256 298 -581 638 -292 306 -519
533 -716 715 -78 73 -311 290 -445 417 -72 67 -373 323 -497 420 -43 34 -147
117 -231 185 -85 68 -166 132 -181 143 -15 11 -76 58 -136 105 -60 47 -193
144 -295 217 -102 72 -212 151 -245 176 -33 24 -105 72 -160 107 -55 35 -125
82 -155 104 -79 59 -449 308 -570 384 -36 22 -121 69 -190 104 -69 35 -182
104 -251 154 -69 50 -154 107 -190 127 -35 21 -116 69 -179 107 -105 64 -270
155 -610 334 -218 116 -581 296 -710 353 -69 30 -147 66 -175 78 -65 30 -374
166 -540 238 -128 55 -549 226 -673 273 -35 13 -83 33 -105 43 -98 44 -579
207 -1007 340 -74 23 -182 57 -240 76 -94 30 -364 102 -585 157 -44 11 -126
33 -183 49 -56 16 -198 50 -315 75 -117 25 -246 53 -287 63 -129 32 -500 109
-605 125 -55 9 -163 27 -240 41 -168 30 -294 49 -475 70 -74 8 -218 27 -320
40 -102 14 -381 44 -620 66 -698 65 -882 76 -1425 88 -487 11 -710 11 -1065 0z
m1555 -2278 c77 -6 237 -20 355 -31 118 -10 280 -24 360 -30 80 -6 177 -15
215 -20 149 -19 374 -50 470 -65 55 -8 152 -22 215 -30 63 -9 165 -25 225 -36
222 -40 273 -49 420 -73 154 -25 464 -89 730 -151 83 -20 188 -44 235 -55 47
-11 135 -33 195 -50 61 -16 157 -41 215 -56 101 -25 171 -45 460 -135 74 -23
191 -58 260 -79 126 -38 439 -143 650 -220 63 -22 153 -54 200 -70 171 -57
751 -294 961 -393 325 -152 736 -354 904 -444 94 -50 195 -104 225 -120 85
-45 230 -127 285 -161 28 -17 91 -54 140 -83 291 -170 721 -453 1185 -779 82
-58 179 -125 215 -150 36 -25 96 -68 133 -95 37 -28 99 -73 137 -100 65 -46
296 -215 393 -288 82 -62 167 -131 222 -181 30 -28 136 -118 234 -201 278
-232 397 -338 586 -521 281 -271 668 -660 776 -779 277 -305 602 -680 760
-878 368 -459 438 -552 683 -903 88 -126 168 -240 178 -254 10 -14 47 -70 82
-125 74 -117 163 -253 202 -311 24 -35 172 -278 218 -357 9 -16 39 -68 67
-115 51 -88 83 -145 159 -282 95 -172 212 -382 270 -485 35 -61 74 -133 88
-160 13 -28 72 -142 129 -255 58 -113 131 -261 163 -330 107 -231 117 -255
190 -415 39 -88 89 -200 110 -250 39 -95 89 -207 137 -315 17 -36 48 -108 70
-160 22 -52 51 -122 66 -155 81 -188 283 -773 347 -1005 14 -52 37 -135 52
-185 40 -139 159 -616 219 -875 65 -283 125 -585 159 -800 15 -91 37 -230 50
-310 26 -161 50 -337 94 -695 52 -420 65 -557 91 -935 10 -157 27 -393 36
-525 13 -196 15 -341 10 -795 -3 -305 -9 -607 -15 -670 -5 -63 -17 -216 -25
-340 -25 -344 -45 -587 -57 -674 -6 -44 -19 -152 -29 -240 -24 -209 -66 -529
-84 -647 -51 -322 -98 -573 -143 -759 -8 -36 -28 -123 -43 -195 -119 -566
-256 -1086 -422 -1600 -82 -255 -223 -665 -240 -699 -6 -10 -23 -53 -38 -95
-66 -177 -113 -289 -268 -646 -173 -397 -286 -649 -326 -725 -13 -25 -27 -56
-31 -70 -10 -33 -267 -549 -310 -620 -62 -105 -74 -126 -136 -240 -174 -324
-447 -784 -667 -1125 -89 -137 -361 -544 -385 -575 -10 -14 -56 -77 -100 -140
-70 -99 -143 -195 -282 -371 -16 -21 -58 -73 -93 -116 -35 -43 -105 -129 -155
-192 -184 -227 -241 -291 -646 -730 -146 -157 -418 -439 -605 -626 -370 -369
-383 -382 -591 -565 -77 -68 -142 -126 -145 -129 -8 -10 -272 -245 -390 -347
-125 -108 -463 -373 -730 -571 -36 -27 -94 -71 -130 -99 -36 -28 -101 -75
-145 -104 -44 -30 -114 -79 -155 -110 -109 -82 -428 -291 -630 -412 -96 -58
-227 -138 -290 -178 -210 -133 -899 -520 -1145 -643 -326 -164 -523 -259 -625
-303 -47 -19 -130 -55 -185 -79 -55 -24 -147 -64 -205 -88 -58 -25 -121 -52
-140 -61 -118 -53 -397 -165 -548 -220 -680 -247 -1163 -407 -1642 -545 -272
-78 -809 -207 -1130 -270 -392 -78 -491 -95 -699 -121 -125 -16 -332 -43 -461
-60 -220 -29 -368 -43 -735 -70 -82 -6 -215 -18 -295 -26 -252 -26 -635 -37
-1060 -30 -223 3 -488 13 -590 21 -102 8 -306 24 -455 35 -235 19 -393 36
-750 81 -44 5 -120 16 -170 24 -49 8 -157 21 -240 30 -82 9 -195 25 -250 35
-55 11 -194 35 -310 55 -115 19 -257 47 -315 61 -58 14 -168 38 -245 55 -77
16 -268 63 -425 105 -157 41 -330 86 -385 99 -187 44 -669 189 -925 277 -80
28 -176 61 -215 73 -103 34 -488 169 -580 204 -160 60 -271 103 -300 117 -16
7 -59 24 -95 38 -119 44 -478 188 -575 231 -16 7 -88 38 -160 69 -71 31 -138
61 -147 66 -10 6 -89 42 -175 81 -184 82 -479 233 -612 313 -52 31 -95 56 -98
56 -2 0 -32 17 -66 39 -34 21 -132 78 -217 126 -85 48 -213 125 -285 170 -71
45 -224 140 -340 211 -115 71 -325 210 -465 308 -328 231 -286 200 -591 429
-523 392 -695 527 -878 687 -47 41 -133 116 -191 165 -316 271 -503 445 -859
799 -217 215 -470 477 -563 583 -93 106 -209 236 -259 290 -146 158 -434 502
-609 728 -41 54 -88 114 -105 136 -16 21 -45 58 -62 81 -18 24 -67 87 -109
141 -41 55 -142 196 -223 315 -81 120 -171 251 -200 292 -114 162 -397 596
-484 741 -119 199 -347 597 -347 607 0 2 -29 54 -64 116 -82 142 -313 599
-372 736 -25 58 -74 170 -109 250 -35 80 -84 195 -110 255 -26 61 -60 139 -77
175 -16 36 -50 117 -74 180 -25 63 -53 135 -64 160 -20 48 -132 332 -182 465
-157 412 -252 696 -383 1140 -26 88 -53 179 -61 202 -7 23 -22 75 -33 115 -10
40 -42 156 -69 258 -28 102 -54 203 -57 225 -4 22 -19 90 -35 150 -31 118
-118 476 -144 590 -64 283 -118 599 -175 1020 -140 1029 -156 1259 -156 2265
0 749 7 927 55 1340 12 111 38 385 50 530 9 117 46 398 75 570 9 52 27 169 40
260 13 91 35 224 50 295 14 72 43 218 65 325 98 491 219 976 335 1340 18 58
47 152 63 210 64 222 124 429 152 515 91 290 123 386 144 440 12 33 35 92 49
130 106 280 180 468 217 550 10 22 42 94 70 160 29 66 110 243 181 393 71 151
129 275 129 278 0 3 137 316 175 399 8 17 44 95 80 175 36 80 106 220 156 312
49 92 89 170 89 173 0 8 110 199 161 282 22 34 39 65 39 68 0 9 90 161 163
275 33 52 70 111 82 130 46 72 261 400 358 545 115 173 291 423 427 609 85
115 440 566 540 685 146 174 250 294 294 341 65 69 181 198 366 410 156 178
758 786 930 939 58 52 110 100 116 107 6 8 40 37 76 66 96 78 289 239 403 338
173 149 320 265 685 540 69 52 150 115 180 140 73 61 105 85 240 187 63 48
131 99 151 114 105 81 407 277 759 494 236 145 412 256 430 271 17 13 327 186
470 262 153 80 358 183 465 234 55 26 154 73 220 104 227 107 542 244 710 307
39 15 129 50 200 78 189 75 676 250 880 317 33 11 150 50 260 86 219 73 382
121 665 197 102 27 235 63 295 79 61 17 155 39 210 51 55 11 118 27 141 34 22
7 107 27 190 44 82 17 214 44 294 61 80 17 215 42 300 55 85 14 198 34 250 45
52 11 185 31 295 45 110 14 268 37 352 50 84 14 196 30 250 35 54 6 150 17
213 24 63 8 162 17 220 21 58 4 195 15 305 26 192 19 458 35 690 42 243 8
1398 -2 1530 -12z"/>
    <path d="M23042 34549 c-79 -9 -197 -46 -282 -89 -84 -43 -226 -140 -312 -214
-99 -84 -235 -243 -319 -371 -136 -207 -141 -214 -341 -555 -31 -52 -95 -153
-142 -223 -86 -129 -360 -513 -490 -687 -39 -52 -78 -105 -86 -116 -8 -12 -64
-91 -125 -175 -60 -84 -175 -248 -255 -365 -126 -185 -194 -278 -398 -543 -24
-31 -117 -166 -208 -301 -90 -135 -190 -281 -222 -325 -32 -44 -89 -125 -127
-180 -58 -84 -218 -309 -404 -569 -24 -33 -69 -97 -100 -141 -30 -44 -82 -117
-115 -162 -34 -45 -79 -108 -101 -139 -22 -31 -101 -139 -175 -238 -75 -100
-142 -191 -150 -203 -8 -11 -53 -74 -99 -140 -47 -65 -120 -167 -163 -228 -43
-60 -121 -168 -173 -240 -166 -227 -492 -692 -650 -925 -83 -124 -212 -308
-286 -410 -74 -102 -142 -196 -151 -210 -9 -14 -91 -128 -182 -255 -91 -126
-174 -243 -186 -260 -11 -16 -42 -61 -68 -98 -26 -37 -101 -143 -168 -235 -66
-92 -160 -225 -209 -297 -49 -71 -105 -152 -126 -180 -37 -51 -123 -175 -295
-430 -53 -77 -137 -197 -187 -267 -51 -70 -123 -171 -160 -225 -38 -54 -95
-136 -128 -183 -33 -47 -75 -105 -94 -130 -18 -25 -73 -103 -122 -175 -48 -71
-122 -175 -163 -230 -42 -55 -103 -136 -136 -180 -56 -74 -256 -351 -304 -420
-11 -16 -50 -70 -86 -120 -37 -49 -112 -155 -167 -235 -55 -80 -153 -219 -218
-310 -64 -91 -140 -199 -168 -240 -28 -41 -86 -123 -129 -181 -97 -135 -420
-581 -447 -619 -11 -15 -60 -80 -110 -145 -108 -141 -117 -153 -240 -330 -53
-77 -129 -187 -170 -245 -40 -58 -121 -175 -180 -260 -190 -277 -215 -313
-264 -379 -48 -64 -129 -185 -301 -444 -120 -182 -237 -351 -329 -479 -31 -42
-85 -118 -121 -168 -36 -50 -77 -109 -92 -130 -115 -160 -211 -360 -240 -500
-17 -79 -19 -121 -15 -250 4 -127 10 -170 30 -235 27 -87 81 -203 130 -275 88
-130 216 -244 369 -328 117 -64 194 -92 327 -119 115 -23 150 -26 391 -27 146
0 897 5 1670 11 773 7 1984 15 2692 18 945 4 1293 3 1309 -5 11 -7 27 -26 34
-43 15 -37 9 -90 -30 -287 -14 -69 -41 -215 -60 -325 -19 -110 -43 -243 -53
-295 -11 -52 -25 -131 -31 -175 -7 -44 -30 -170 -51 -280 -21 -110 -46 -243
-55 -295 -9 -52 -34 -185 -55 -295 -21 -110 -42 -220 -45 -245 -4 -25 -24
-130 -46 -235 -22 -104 -51 -255 -65 -335 -13 -80 -35 -188 -48 -240 -13 -52
-29 -133 -35 -180 -7 -47 -20 -130 -31 -185 -33 -172 -70 -374 -96 -525 -13
-79 -31 -171 -39 -205 -19 -82 -41 -199 -60 -325 -8 -58 -24 -145 -35 -195
-10 -49 -24 -124 -31 -165 -6 -41 -29 -160 -51 -265 -21 -104 -56 -280 -78
-390 -21 -110 -43 -221 -49 -246 -13 -55 -66 -349 -155 -854 -37 -211 -49
-276 -92 -495 -14 -74 -34 -187 -44 -250 -10 -63 -29 -176 -43 -250 -14 -74
-31 -169 -37 -210 -6 -41 -20 -113 -30 -160 -64 -295 -83 -387 -100 -485 -49
-284 -82 -460 -110 -572 -26 -110 -41 -187 -86 -443 -8 -47 -15 -148 -16 -225
-2 -208 22 -326 105 -510 47 -105 114 -209 187 -288 95 -104 242 -193 400
-241 128 -39 219 -49 365 -43 231 10 428 72 600 187 44 29 132 105 195 169
129 130 236 263 430 536 41 58 86 121 100 140 14 18 45 64 70 100 25 37 69
101 99 143 30 43 114 165 186 272 283 419 353 522 492 720 79 113 171 241 204
285 52 70 187 258 229 319 36 52 218 307 259 363 92 123 167 228 216 298 28
40 81 117 119 171 39 54 89 126 112 159 22 33 71 103 107 155 37 52 81 120
100 150 18 31 105 155 193 275 88 121 166 230 174 241 8 12 51 72 95 134 44
61 89 125 100 140 11 16 58 83 105 150 92 133 133 190 283 392 54 73 177 243
274 378 97 135 220 304 273 375 53 72 120 164 148 205 50 71 212 299 422 592
53 73 103 144 112 158 56 84 254 361 383 535 45 61 105 144 133 185 58 83 100
143 382 544 107 152 217 307 243 344 27 37 82 117 123 177 40 61 88 130 106
155 17 25 78 113 134 197 57 84 120 176 140 205 172 247 291 414 364 513 37
50 87 118 111 153 24 35 65 94 91 130 27 37 91 130 143 207 52 77 121 176 153
220 32 45 76 106 98 137 21 31 86 123 144 204 57 82 136 196 175 254 86 127
128 187 303 440 247 355 331 475 442 630 22 30 91 127 154 215 114 159 202
282 346 480 41 57 104 147 140 199 95 141 255 372 364 526 487 690 548 777
636 911 129 195 246 366 341 499 152 212 263 386 318 497 28 57 66 154 84 215
31 108 32 120 32 288 0 158 -3 186 -28 284 -31 122 -84 243 -147 336 -24 35
-81 102 -129 149 -184 186 -425 284 -732 298 -63 3 -311 0 -550 -6 -537 -15
-5328 -32 -5374 -20 -45 13 -59 50 -53 142 3 39 19 137 36 217 44 210 98 492
127 665 45 267 87 491 145 775 11 52 36 183 55 290 19 107 41 220 48 250 33
125 109 500 162 799 19 107 49 258 65 335 17 78 42 202 55 276 13 74 31 167
40 205 9 39 29 146 45 238 17 93 36 194 44 225 8 32 33 154 55 272 23 118 53
267 66 330 14 63 36 176 49 250 25 135 49 254 126 620 23 107 52 251 66 320
13 69 39 202 58 295 19 94 51 256 71 360 20 105 40 204 46 220 5 17 23 107 39
200 17 94 39 208 49 255 11 47 38 173 61 280 22 107 49 229 60 270 10 41 26
122 35 180 9 58 21 122 26 143 6 21 31 136 55 255 140 666 157 778 158 1022 1
124 -4 186 -17 250 -25 115 -86 258 -154 360 -68 101 -183 217 -279 281 -123
83 -337 163 -474 179 -97 11 -154 11 -258 -1z m-2004 -6155 c3 -39 -30 -223
-83 -459 -13 -60 -33 -168 -44 -240 -23 -144 -38 -224 -74 -395 -14 -63 -28
-142 -32 -175 -4 -33 -18 -107 -31 -165 -13 -58 -42 -197 -64 -310 -21 -113
-48 -250 -59 -305 -11 -55 -34 -179 -51 -275 -17 -96 -36 -193 -42 -215 -6
-22 -25 -121 -44 -220 -18 -99 -49 -256 -69 -350 -19 -93 -44 -219 -55 -278
-12 -60 -34 -168 -50 -240 -16 -73 -56 -274 -90 -447 -34 -173 -77 -391 -96
-485 -20 -93 -46 -231 -59 -305 -13 -74 -36 -196 -50 -270 -45 -235 -53 -282
-69 -405 -19 -140 -20 -287 -5 -388 21 -134 87 -290 179 -427 46 -68 150 -167
228 -216 144 -93 336 -158 545 -185 69 -9 744 -13 2652 -16 2472 -3 2561 -4
2585 -21 52 -39 38 -81 -84 -250 -51 -72 -121 -174 -256 -375 -8 -12 -55 -76
-105 -142 -77 -101 -153 -205 -260 -355 -11 -15 -55 -79 -98 -141 -42 -63
-143 -206 -223 -319 -80 -113 -156 -221 -169 -240 -13 -19 -50 -71 -82 -115
-32 -44 -65 -90 -73 -102 -58 -82 -141 -199 -185 -258 -28 -38 -80 -110 -114
-160 -209 -304 -395 -568 -480 -685 -102 -139 -121 -165 -197 -275 -113 -161
-375 -532 -502 -708 -40 -56 -80 -113 -90 -127 -9 -14 -37 -52 -63 -85 -25
-33 -120 -163 -209 -290 -90 -126 -187 -261 -215 -300 -126 -174 -174 -240
-278 -390 -62 -88 -130 -185 -153 -215 -41 -55 -117 -165 -249 -360 -73 -107
-112 -164 -164 -235 -16 -22 -60 -85 -97 -140 -38 -55 -123 -176 -188 -270
-66 -93 -132 -188 -148 -210 -15 -22 -68 -96 -117 -165 -49 -69 -99 -138 -111
-155 -12 -16 -69 -96 -128 -177 -59 -81 -134 -187 -167 -235 -113 -165 -194
-282 -232 -335 -31 -44 -138 -204 -276 -413 -31 -47 -75 -107 -173 -236 -39
-52 -90 -123 -115 -158 -51 -73 -55 -79 -169 -238 -47 -65 -111 -157 -143
-205 -58 -87 -107 -138 -132 -138 -8 0 -19 10 -26 22 -14 27 -5 150 21 272 11
48 36 181 55 295 20 113 51 283 70 376 18 94 41 215 50 270 10 55 26 138 37
185 11 47 30 146 43 220 14 74 31 169 38 210 50 265 79 422 97 540 12 74 28
160 35 190 7 30 19 89 25 130 6 41 30 170 51 285 46 244 75 404 94 529 8 49
25 145 39 215 14 69 34 180 45 246 11 66 40 219 64 340 25 121 57 279 71 350
25 131 38 194 122 605 65 316 84 457 90 670 5 142 2 209 -10 288 -17 111 -54
214 -117 329 -68 123 -153 220 -274 313 -67 52 -202 115 -300 140 -117 30
-225 40 -470 43 -206 2 -1812 -11 -3889 -33 -567 -6 -917 -5 -949 1 -27 5 -57
14 -65 21 -20 17 -10 76 19 121 127 192 414 599 524 742 92 120 255 348 434
606 24 35 63 89 85 119 22 30 78 111 125 180 47 69 110 159 141 200 31 41 98
136 148 210 95 140 201 290 247 350 15 19 72 100 127 180 54 80 127 183 161
229 144 195 373 520 559 796 141 209 251 368 298 432 50 68 169 238 249 353
28 41 68 98 89 126 20 29 77 110 126 180 50 71 108 154 131 184 23 30 75 102
116 160 40 58 94 132 119 165 25 33 52 70 60 82 8 12 85 116 170 233 140 190
271 372 318 440 9 14 91 125 182 247 184 247 237 320 445 608 79 110 170 236
202 280 47 65 230 320 323 450 122 171 177 251 305 440 82 121 174 254 205
295 31 41 87 119 125 173 39 55 87 122 107 150 21 29 56 79 79 112 54 79 120
146 139 143 10 -2 16 -17 18 -44z"/>
  </g>
</svg>