<svg xmlns="http://www.w3.org/2000/svg" viewBox="0 0 4096.000000 4096.000000">
  <g transform="translate(0.000000,4096.000000) scale(0.100000,-0.100000)" fill="#f4f5f7" stroke="#f4f5f7" stroke-width="40" stroke-linejoin="round" stroke-linecap="round">
    <path d="M9145 32293 c-49 -2 -178 -10 -285 -18 -652 -51 -1452 -211 -1925
-387 -233 -86 -533 -209 -695 -285 -52 -25 -135 -63 -185 -85 -359 -160 -614
-290 -864 -441 -51 -31 -95 -57 -98 -57 -18 0 -469 -328 -739 -538 -109 -84
-437 -355 -529 -436 -49 -44 -101 -89 -115 -100 -70 -59 -327 -317 -428 -431
-64 -71 -126 -141 -138 -155 -50 -56 -96 -112 -210 -255 -183 -230 -204 -260
-452 -623 -155 -226 -361 -594 -485 -867 -134 -293 -206 -452 -232 -515 -94
-231 -238 -643 -318 -910 -90 -303 -184 -757 -237 -1150 -66 -489 -86 -822
-76 -1280 6 -298 30 -664 55 -850 6 -41 20 -149 31 -240 25 -205 90 -558 130
-705 10 -38 28 -113 40 -165 31 -133 151 -528 211 -690 161 -440 192 -514 343
-840 92 -197 147 -304 233 -455 22 -38 58 -101 80 -140 102 -180 131 -227 191
-320 85 -129 438 -632 499 -711 27 -33 81 -104 120 -156 206 -269 735 -808
1059 -1077 133 -111 402 -320 515 -401 101 -73 382 -257 469 -307 19 -11 71
-42 115 -70 44 -27 163 -93 265 -147 102 -55 203 -109 225 -121 68 -37 382
-180 556 -253 178 -75 293 -120 545 -212 282 -103 876 -278 1497 -440 422
-110 533 -140 842 -228 116 -33 311 -85 433 -116 123 -31 308 -80 410 -110
103 -30 241 -68 307 -86 66 -18 170 -45 230 -62 242 -65 776 -200 1160 -292
127 -31 264 -65 305 -76 183 -48 711 -183 765 -194 88 -20 378 -99 550 -151
83 -25 182 -54 220 -64 39 -11 178 -49 310 -85 240 -65 419 -108 700 -166 344
-71 452 -95 678 -151 261 -65 490 -125 842 -224 127 -35 406 -109 620 -164
215 -55 476 -123 580 -151 105 -29 240 -65 300 -80 230 -59 380 -100 669 -184
165 -48 302 -89 306 -91 3 -2 111 -30 240 -63 542 -139 721 -187 1090 -291
183 -52 933 -244 1410 -361 201 -49 408 -101 460 -115 52 -14 226 -59 385
-100 160 -41 369 -95 465 -121 96 -25 218 -56 270 -69 52 -12 345 -86 650
-162 305 -77 633 -159 727 -182 95 -23 264 -67 375 -98 112 -30 275 -75 363
-99 195 -54 590 -154 985 -249 208 -50 652 -162 775 -195 61 -16 142 -37 180
-45 39 -8 147 -35 240 -60 320 -85 520 -137 635 -165 63 -15 187 -47 275 -70
88 -23 219 -57 290 -76 72 -19 198 -52 280 -74 83 -22 204 -53 270 -70 66 -17
158 -41 205 -55 47 -13 222 -63 390 -110 168 -47 357 -101 420 -120 63 -19
151 -44 195 -55 244 -66 395 -106 525 -140 80 -21 195 -52 255 -68 229 -62
463 -124 540 -143 44 -11 132 -35 195 -54 63 -19 160 -45 215 -59 143 -35 534
-137 825 -215 718 -193 851 -223 1230 -275 282 -39 345 -45 615 -56 172 -7
326 -7 495 0 278 11 348 18 617 60 302 47 524 95 783 169 190 54 339 106 495
170 55 23 129 54 165 68 83 34 349 170 436 223 107 65 201 140 314 253 130
129 208 210 340 357 57 63 109 120 115 125 36 31 392 433 440 497 11 15 45 59
76 100 86 113 126 171 216 323 131 221 291 542 418 845 86 203 183 516 225
730 12 57 23 107 25 110 8 13 65 380 79 510 41 369 44 715 10 1054 -23 240
-64 534 -84 616 -11 41 -29 122 -41 180 -47 229 -177 625 -295 897 -65 149
-205 430 -312 623 -102 184 -312 489 -495 717 -158 198 -385 428 -687 696
-215 190 -362 301 -500 374 -189 101 -244 135 -310 192 -197 170 -304 234
-665 396 -186 83 -283 130 -505 246 -333 173 -786 414 -805 429 -14 10 -552
298 -805 430 -113 59 -225 119 -250 133 -25 14 -110 61 -190 103 -80 42 -172
92 -205 109 -33 18 -105 56 -160 85 -55 29 -104 56 -110 60 -5 4 -75 42 -155
85 -80 43 -163 89 -185 101 -195 108 -314 175 -400 224 -22 13 -123 68 -224
122 -101 54 -213 116 -250 137 -36 21 -183 100 -326 176 -308 163 -344 183
-585 312 -185 99 -327 175 -450 240 -36 19 -101 54 -145 78 -160 86 -242 129
-342 181 -57 30 -138 74 -180 99 -92 54 -72 44 -259 140 -82 43 -201 106 -264
140 -63 34 -196 104 -295 155 -209 108 -662 350 -1000 535 -82 45 -206 113
-275 150 -211 114 -232 126 -335 185 -55 31 -156 85 -225 120 -69 34 -129 66
-135 70 -5 4 -59 33 -120 65 -60 31 -141 74 -180 95 -125 67 -266 140 -495
258 -124 63 -237 123 -252 134 -14 10 -28 18 -31 18 -8 0 -195 112 -293 175
-47 31 -212 119 -366 196 -154 77 -315 159 -357 183 -42 23 -134 73 -206 111
-71 37 -134 71 -140 75 -5 4 -75 41 -155 83 -80 41 -170 88 -200 105 -30 16
-152 79 -270 139 -118 61 -264 137 -325 170 -60 33 -137 75 -170 93 -33 17
-64 36 -70 40 -5 4 -39 23 -75 42 -64 35 -135 74 -500 277 -295 165 -476 264
-600 329 -63 33 -135 71 -160 85 -25 14 -182 99 -350 190 -330 178 -544 295
-740 404 -69 39 -161 90 -205 115 -44 25 -129 71 -190 103 -60 32 -172 91
-247 131 -75 41 -139 74 -141 74 -3 0 -133 68 -289 152 -155 83 -317 169 -358
191 -41 21 -129 67 -195 102 -66 35 -156 82 -200 105 -44 23 -111 59 -150 79
-38 21 -110 59 -160 86 -294 156 -736 391 -830 440 -60 32 -141 75 -180 95
-38 20 -176 91 -305 157 -129 66 -262 135 -295 153 -33 18 -89 49 -125 68 -36
19 -112 60 -170 92 -58 31 -136 73 -175 92 -86 43 -246 128 -260 138 -14 11
-328 181 -455 248 -58 30 -144 76 -191 103 -48 27 -90 49 -94 49 -4 0 -20 9
-36 21 -17 12 -233 123 -482 248 -512 258 -787 399 -867 446 -30 18 -136 74
-235 125 -99 51 -193 101 -210 110 -36 21 -375 196 -495 256 -406 201 -589
281 -1055 459 -66 26 -154 59 -195 75 -85 33 -321 120 -520 193 -74 27 -190
66 -257 87 -225 72 -775 196 -1013 230 -80 12 -152 23 -160 25 -8 3 -67 11
-130 19 -407 52 -840 72 -1245 59z m760 -2283 c195 -13 522 -53 705 -86 215
-40 612 -136 735 -179 22 -8 137 -48 255 -89 356 -124 496 -179 801 -317 96
-43 441 -218 538 -273 89 -50 262 -140 566 -296 121 -62 225 -116 230 -121 6
-4 118 -62 250 -129 457 -233 614 -316 862 -457 61 -34 114 -63 116 -63 3 0
40 -20 83 -43 44 -24 156 -83 249 -132 94 -48 215 -111 270 -140 55 -29 161
-84 235 -122 74 -39 155 -82 180 -95 25 -14 110 -60 190 -103 80 -42 150 -81
155 -85 15 -11 140 -78 470 -250 300 -157 480 -253 526 -282 13 -9 105 -60
204 -114 349 -189 481 -262 605 -334 148 -86 245 -141 320 -182 30 -17 80 -45
110 -63 91 -55 338 -189 445 -243 110 -55 477 -253 505 -272 14 -9 39 -24 55
-32 30 -15 170 -89 325 -173 195 -105 516 -256 715 -335 104 -41 223 -106 338
-184 179 -122 452 -277 827 -469 107 -55 218 -112 246 -127 29 -15 139 -74
245 -130 242 -128 417 -223 584 -315 72 -40 195 -107 275 -150 80 -43 226
-123 325 -178 99 -55 198 -109 220 -120 22 -11 130 -68 240 -127 110 -59 245
-131 300 -160 55 -29 114 -60 130 -70 17 -10 57 -32 90 -50 33 -18 123 -68
200 -110 77 -42 176 -97 220 -122 44 -25 107 -60 140 -78 33 -18 103 -56 155
-85 52 -29 176 -94 275 -145 99 -51 254 -134 345 -185 91 -51 221 -121 290
-157 69 -36 249 -131 400 -211 151 -79 320 -166 375 -193 122 -59 650 -340
685 -364 14 -9 54 -33 90 -52 36 -19 88 -49 117 -66 29 -17 121 -69 205 -115
84 -47 187 -104 228 -127 133 -75 151 -85 415 -225 143 -76 332 -177 420 -225
88 -48 198 -108 245 -132 172 -91 375 -201 385 -208 6 -5 73 -41 150 -80 125
-65 284 -149 515 -273 41 -22 104 -57 140 -77 88 -51 291 -155 830 -427 250
-127 527 -267 615 -313 204 -106 666 -357 880 -478 44 -25 186 -99 315 -165
250 -128 506 -264 735 -392 77 -42 253 -138 390 -212 138 -74 279 -152 315
-173 36 -21 128 -70 205 -110 239 -124 324 -170 505 -273 96 -55 195 -111 220
-125 211 -119 272 -152 277 -152 3 0 30 -15 61 -34 32 -18 91 -53 132 -77 111
-64 293 -184 395 -259 120 -90 284 -245 414 -393 185 -211 313 -405 459 -692
133 -262 267 -635 316 -875 53 -265 61 -348 60 -625 -2 -264 -13 -426 -40
-570 -35 -191 -49 -249 -96 -398 -88 -283 -159 -441 -289 -644 -167 -260 -375
-501 -559 -647 -308 -245 -692 -439 -1045 -530 -182 -46 -426 -83 -615 -91
-166 -8 -466 7 -620 30 -174 26 -576 118 -910 208 -113 31 -243 65 -290 75
-103 24 -428 108 -925 241 -166 45 -884 223 -1410 351 -372 90 -471 115 -740
185 -99 26 -234 60 -300 75 -66 16 -205 52 -310 80 -104 28 -260 69 -345 91
-85 22 -204 53 -265 69 -60 16 -243 63 -405 103 -162 41 -344 89 -405 105
-135 37 -365 97 -1415 366 -162 41 -362 94 -445 116 -82 22 -283 74 -445 116
-162 41 -298 78 -303 81 -5 3 -77 22 -160 43 -84 21 -260 67 -392 103 -133 37
-313 84 -400 106 -235 57 -811 206 -955 246 -69 19 -188 51 -265 70 -223 56
-683 176 -940 246 -200 54 -853 217 -1620 404 -126 31 -527 130 -890 220 -687
171 -724 180 -919 221 -150 32 -398 104 -496 144 -80 33 -341 104 -605 165
-88 20 -200 47 -250 60 -49 14 -191 49 -315 79 -124 31 -295 76 -380 101 -85
26 -211 62 -280 81 -69 18 -197 54 -285 79 -88 25 -212 59 -275 74 -184 47
-453 117 -610 161 -80 22 -201 55 -270 74 -69 19 -267 73 -440 120 -173 47
-403 109 -510 137 -107 29 -289 78 -405 111 -195 56 -700 186 -1015 263 -74
18 -196 49 -270 69 -74 20 -234 61 -355 92 -121 30 -274 70 -340 89 -66 19
-253 68 -415 109 -446 114 -775 200 -875 229 -199 57 -930 252 -1055 282 -36
8 -114 29 -175 45 -60 17 -222 59 -360 95 -256 65 -294 75 -545 143 -397 108
-893 269 -1115 362 -38 16 -126 52 -195 81 -113 46 -406 192 -455 226 -11 8
-63 40 -116 71 -272 162 -770 533 -1059 788 -206 182 -364 353 -527 570 -226
301 -336 452 -379 517 -81 125 -91 140 -149 237 -62 105 -299 581 -363 730
-186 435 -310 855 -401 1360 -44 246 -65 391 -81 575 -34 380 -28 916 14 1270
41 346 106 655 237 1115 45 158 86 279 163 485 36 94 302 632 381 770 34 61
75 133 90 160 96 177 353 542 574 815 196 243 330 388 476 516 70 62 233 191
315 249 15 11 66 47 112 80 137 99 333 231 493 333 89 57 329 190 475 263 165
83 372 173 535 233 55 21 127 48 160 61 152 58 468 157 595 185 30 7 119 27
196 46 78 18 213 44 300 58 150 23 203 30 519 61 162 16 598 18 810 5z"/>
    <path d="M9340 26014 c-107 -13 -361 -71 -465 -105 -212 -70 -479 -215 -656
-356 -77 -61 -213 -201 -291 -299 -123 -154 -250 -377 -328 -574 -52 -129
-117 -379 -136 -520 -24 -179 -15 -433 22 -655 33 -199 101 -410 184 -575 40
-81 123 -214 181 -290 88 -118 226 -266 345 -372 150 -133 236 -195 394 -288
112 -67 215 -114 354 -164 143 -52 164 -57 346 -87 100 -16 182 -21 320 -22
160 -1 205 3 334 26 252 46 346 74 536 159 147 66 290 151 399 236 81 63 277
251 331 317 82 99 181 251 255 390 63 119 99 203 139 325 62 187 91 330 108
538 9 111 9 179 -1 298 -29 377 -145 728 -339 1029 -185 286 -410 504 -704
682 -221 134 -427 215 -701 274 -131 28 -160 31 -367 34 -124 2 -241 1 -260
-1z"/>
  </g>
</svg>