<svg xmlns="http://www.w3.org/2000/svg" viewBox="0 0 4096.000000 4096.000000">
  <g transform="translate(0.000000,4096.000000) scale(0.100000,-0.100000)" fill="#f4f5f7" stroke="none">
    <path d="M9949 34016 c-2 -2 -67 -7 -144 -11 -77 -3 -167 -12 -200 -20 -33 -7
-94 -16 -135 -20 -41 -3 -104 -13 -140 -21 -36 -8 -103 -21 -150 -29 -47 -7
-98 -19 -115 -25 -16 -6 -52 -16 -80 -21 -27 -5 -79 -18 -115 -28 -90 -26
-281 -68 -365 -81 -107 -16 -278 -38 -510 -65 -115 -14 -226 -27 -245 -30 -56
-9 -183 -35 -190 -40 -4 -3 -25 -7 -46 -10 -55 -9 -76 -15 -104 -35 -14 -9
-41 -23 -60 -30 -19 -7 -96 -54 -170 -103 -74 -50 -153 -98 -175 -108 -43 -19
-247 -74 -330 -89 -145 -26 -324 -73 -360 -95 -22 -13 -79 -62 -126 -108 -67
-64 -106 -93 -170 -125 -46 -22 -116 -49 -155 -60 -40 -11 -80 -25 -90 -30
-11 -6 -41 -13 -69 -17 -27 -5 -68 -14 -90 -22 -42 -15 -163 -92 -185 -118 -7
-8 -57 -56 -111 -106 l-99 -91 -117 -35 c-65 -19 -139 -46 -164 -59 -54 -27
-152 -113 -185 -164 -78 -117 -103 -146 -154 -172 -14 -7 -36 -20 -50 -28 -14
-9 -45 -24 -69 -34 -98 -38 -259 -170 -303 -248 -13 -23 -58 -64 -114 -105
-50 -37 -109 -78 -131 -91 -56 -34 -176 -153 -267 -264 -44 -54 -96 -108 -115
-121 -58 -39 -164 -148 -195 -202 -48 -82 -82 -120 -181 -200 -52 -42 -100
-86 -106 -98 -6 -12 -39 -51 -74 -87 -35 -36 -98 -118 -141 -183 -43 -66 -95
-133 -117 -150 -131 -105 -200 -189 -231 -283 -15 -45 -67 -140 -85 -154 -4
-3 -22 -25 -41 -49 -19 -24 -54 -57 -78 -72 -43 -27 -85 -72 -130 -135 -12
-18 -36 -72 -53 -120 -17 -49 -40 -107 -51 -129 -12 -21 -41 -99 -67 -172 -42
-121 -51 -139 -106 -201 -33 -37 -86 -89 -117 -115 -69 -58 -109 -133 -137
-257 -68 -304 -134 -494 -181 -522 -12 -7 -33 -34 -46 -61 -14 -26 -40 -57
-59 -70 -21 -13 -47 -45 -64 -77 -16 -30 -36 -68 -45 -85 -9 -16 -18 -46 -22
-65 -3 -19 -14 -80 -24 -135 -10 -55 -23 -136 -29 -180 -22 -159 -136 -597
-176 -675 -50 -97 -105 -224 -120 -275 -9 -33 -23 -80 -32 -105 -8 -25 -19
-67 -25 -95 -5 -27 -21 -102 -35 -165 -22 -101 -26 -153 -34 -415 -5 -165 -12
-703 -15 -1195 -5 -761 -4 -942 10 -1210 10 -173 24 -376 32 -450 9 -74 21
-205 28 -290 8 -85 17 -164 21 -175 4 -11 18 -42 30 -70 12 -27 27 -66 34 -86
6 -20 25 -57 41 -83 17 -26 30 -50 30 -53 0 -4 18 -37 40 -74 51 -86 94 -204
114 -310 40 -222 66 -370 76 -434 24 -156 76 -304 142 -409 21 -33 38 -65 38
-72 0 -8 11 -21 25 -30 25 -17 96 -118 133 -191 12 -23 30 -79 41 -125 11 -45
26 -103 34 -128 8 -25 20 -70 27 -100 7 -30 26 -90 42 -132 27 -71 39 -87 149
-200 109 -112 124 -132 170 -228 28 -58 67 -141 86 -185 65 -150 113 -225 198
-310 45 -44 99 -107 120 -140 21 -33 64 -114 96 -179 64 -131 112 -195 261
-347 92 -94 160 -182 186 -241 6 -16 29 -47 50 -70 22 -24 49 -62 61 -85 22
-45 50 -69 147 -126 33 -20 81 -58 105 -84 25 -27 78 -101 118 -166 l74 -118
112 -75 c106 -70 172 -132 268 -253 15 -19 80 -70 145 -112 64 -43 131 -90
148 -104 18 -14 47 -32 66 -40 35 -14 147 -119 223 -208 22 -26 62 -62 90 -81
27 -19 131 -75 230 -125 168 -85 184 -96 240 -158 144 -161 190 -193 350 -241
205 -62 328 -126 415 -216 25 -26 63 -56 85 -67 22 -10 65 -34 95 -53 57 -36
250 -106 291 -106 57 0 329 -108 353 -140 11 -16 220 -150 233 -150 4 0 23
-11 42 -24 47 -32 193 -78 356 -111 72 -15 159 -35 195 -45 36 -10 101 -28
145 -40 43 -12 100 -33 124 -46 25 -13 50 -24 55 -24 13 0 131 -76 184 -118
50 -40 104 -67 228 -115 69 -27 111 -36 184 -41 109 -8 270 -33 309 -47 14 -6
64 -19 111 -29 142 -30 262 -77 367 -145 54 -35 109 -72 123 -83 14 -11 55
-36 90 -55 48 -26 98 -42 190 -61 69 -13 157 -28 195 -31 80 -8 204 -37 385
-89 134 -38 272 -105 363 -174 74 -57 112 -76 229 -116 106 -36 232 -60 373
-70 44 -4 121 -16 170 -27 119 -27 300 -85 350 -111 22 -11 58 -29 80 -40 22
-11 61 -42 87 -68 86 -87 186 -115 558 -160 52 -7 109 -16 125 -21 17 -5 105
-20 196 -33 145 -22 177 -30 245 -64 110 -54 134 -68 232 -140 93 -68 160
-102 201 -102 14 0 41 -9 58 -20 26 -16 122 -40 253 -65 8 -1 67 -8 130 -14
63 -7 147 -20 185 -31 39 -10 118 -29 177 -43 74 -18 128 -38 173 -64 35 -21
86 -49 113 -63 26 -14 61 -35 76 -48 16 -12 50 -28 75 -36 25 -8 85 -30 134
-49 48 -20 129 -43 180 -52 50 -8 115 -20 142 -25 28 -5 133 -23 235 -40 239
-39 301 -53 382 -84 73 -28 221 -107 311 -167 67 -44 200 -92 302 -110 39 -6
106 -20 150 -30 44 -10 97 -19 117 -19 40 0 230 -36 394 -75 57 -14 130 -38
162 -53 31 -16 71 -35 89 -41 17 -7 41 -24 54 -37 13 -14 47 -32 76 -40 29 -8
55 -20 59 -25 9 -15 137 -76 196 -93 103 -29 244 -55 368 -66 142 -12 247 -30
404 -67 119 -28 196 -58 261 -103 24 -16 85 -48 136 -70 52 -23 105 -52 119
-65 14 -13 48 -30 75 -39 28 -8 82 -26 120 -40 49 -17 120 -29 233 -40 158
-16 494 -76 529 -94 10 -5 43 -15 73 -21 31 -7 102 -38 165 -73 60 -34 126
-70 145 -81 19 -10 42 -25 50 -32 32 -27 104 -57 161 -66 33 -5 74 -18 92 -29
17 -11 46 -20 62 -20 17 0 72 -9 123 -19 52 -11 137 -25 190 -31 367 -41 401
-50 670 -184 116 -58 218 -106 225 -106 6 0 32 -10 57 -21 77 -36 231 -80 330
-95 52 -8 158 -22 235 -30 214 -23 266 -31 315 -48 67 -25 213 -87 226 -97 17
-14 132 -76 213 -116 70 -34 217 -84 366 -123 39 -10 129 -26 200 -35 294 -36
373 -49 439 -71 38 -13 78 -24 88 -24 11 0 45 -13 76 -30 31 -16 77 -39 102
-50 41 -17 75 -36 263 -139 130 -72 320 -112 667 -141 127 -11 323 -55 410
-92 25 -11 71 -28 102 -38 31 -10 64 -25 73 -34 19 -19 101 -76 109 -76 3 0
29 -16 56 -36 84 -60 276 -101 847 -179 57 -7 155 -28 218 -45 89 -25 133 -44
198 -85 45 -29 107 -63 137 -76 30 -12 69 -33 85 -45 17 -13 51 -27 75 -33 25
-6 63 -16 85 -24 67 -24 311 -74 490 -102 94 -14 193 -32 220 -40 28 -8 82
-21 122 -29 39 -8 82 -21 95 -30 13 -8 46 -24 74 -34 28 -11 91 -45 141 -75
111 -66 246 -124 321 -136 31 -6 116 -23 187 -39 72 -17 159 -33 195 -37 101
-10 318 -44 395 -62 39 -8 99 -26 135 -39 36 -12 82 -26 103 -29 21 -4 52 -17
70 -29 18 -12 52 -30 77 -41 25 -11 83 -41 130 -67 194 -108 252 -126 495
-158 250 -34 635 -105 700 -130 16 -6 50 -26 76 -45 26 -19 72 -46 101 -61 29
-15 66 -37 81 -50 16 -13 38 -24 50 -24 12 0 49 -13 82 -28 90 -43 233 -71
565 -112 315 -39 460 -69 540 -110 53 -27 146 -69 293 -131 38 -16 80 -38 93
-48 35 -28 197 -76 339 -101 70 -12 203 -25 320 -30 110 -6 304 -15 430 -21
127 -6 451 -12 720 -12 664 -2 1107 19 1315 62 25 5 88 17 140 27 52 9 120 26
150 37 59 21 196 107 245 154 17 15 46 38 65 50 49 30 224 87 365 118 66 14
148 35 183 46 69 23 136 71 227 163 33 34 76 74 95 90 19 16 89 55 155 87 250
122 317 169 393 274 61 84 154 186 192 209 19 12 64 34 100 49 80 34 118 78
197 229 61 118 160 243 222 280 35 21 111 98 111 112 0 3 16 31 36 62 49 77
108 206 130 284 9 36 32 97 50 135 34 72 56 108 135 217 60 82 126 205 156
293 28 82 60 268 68 398 4 51 13 119 21 152 8 33 25 139 39 235 14 96 29 200
35 230 23 125 41 390 38 540 -4 140 -8 168 -41 290 -20 74 -41 178 -47 230
-25 242 -31 289 -44 384 -8 56 -20 144 -26 196 -11 100 -53 293 -73 338 -6 15
-32 58 -57 95 -25 37 -54 83 -65 100 -11 18 -32 48 -47 67 -39 51 -101 165
-131 241 -15 36 -38 108 -52 160 -51 183 -79 264 -103 304 -14 22 -75 90 -137
150 -78 76 -121 127 -140 165 -15 30 -33 62 -40 70 -8 8 -23 40 -35 70 -37 93
-105 185 -183 246 -102 79 -145 136 -230 301 -19 38 -72 99 -175 201 -82 81
-156 159 -165 174 -10 16 -65 74 -124 130 -58 57 -177 173 -263 259 -89 89
-189 177 -231 205 -41 27 -96 74 -124 104 -89 98 -198 201 -229 217 -75 38
-329 201 -410 263 -22 17 -58 58 -81 93 -23 34 -60 78 -82 98 -22 20 -93 63
-157 94 -108 53 -123 65 -194 142 -42 46 -93 107 -115 136 -35 47 -55 60 -195
132 -161 82 -172 90 -303 232 -77 83 -153 137 -267 190 -54 24 -116 59 -140
76 -90 66 -169 136 -225 200 -62 71 -171 152 -302 224 -86 47 -138 96 -206
196 -29 43 -67 81 -114 114 -38 28 -88 56 -110 63 -22 7 -60 24 -85 38 -58 33
-188 141 -237 196 -21 23 -67 62 -102 87 -77 54 -211 139 -217 139 -3 0 -46
24 -97 54 -100 59 -128 84 -227 195 -94 107 -120 130 -192 170 -35 20 -108 61
-162 91 -90 50 -102 61 -166 145 -38 49 -91 108 -117 130 -26 23 -84 56 -128
75 -148 62 -222 114 -323 225 -61 67 -112 113 -145 131 -29 15 -71 41 -94 58
-51 39 -95 64 -154 91 -54 24 -180 126 -232 190 -21 25 -62 62 -90 83 -67 50
-182 116 -230 133 -49 17 -192 130 -211 166 -8 15 -47 60 -88 99 -71 69 -156
127 -228 154 -19 8 -63 33 -98 58 -67 47 -179 157 -187 183 -3 9 -46 49 -96
89 -68 54 -120 85 -201 121 -61 26 -125 59 -142 73 -18 14 -93 82 -167 153
-112 106 -144 131 -189 147 -68 24 -162 70 -216 107 -22 15 -71 68 -107 117
-37 50 -87 108 -111 129 -24 21 -106 69 -182 108 -107 53 -148 79 -179 114
-22 25 -56 62 -75 82 -19 20 -53 58 -75 83 -22 26 -70 65 -106 86 -36 22 -68
40 -72 40 -17 0 -175 80 -187 95 -7 9 -30 25 -49 35 -31 16 -121 94 -239 207
-51 49 -154 120 -203 139 -58 24 -155 80 -201 118 -21 17 -64 70 -95 119 -46
71 -68 94 -117 126 -34 21 -110 62 -169 92 -98 49 -120 65 -220 164 -115 115
-165 154 -258 204 -30 16 -61 36 -68 45 -7 8 -47 32 -89 53 -51 25 -105 64
-162 117 -47 44 -108 101 -137 127 -28 26 -71 58 -95 69 -23 12 -52 30 -63 39
-29 25 -92 60 -149 83 -71 28 -118 69 -180 157 -85 121 -152 173 -256 201 -97
26 -171 76 -289 194 -62 63 -145 138 -184 167 -39 29 -115 74 -168 100 -131
65 -221 128 -306 212 -39 40 -82 82 -95 94 -13 12 -35 35 -50 51 -14 16 -74
52 -132 80 -58 28 -133 69 -165 92 -33 22 -80 66 -105 98 -73 96 -148 157
-254 209 -157 76 -250 133 -279 171 -47 63 -149 156 -204 188 -30 17 -85 49
-123 70 -198 112 -309 191 -344 245 -35 56 -143 137 -271 203 -70 36 -145 79
-167 96 -21 17 -100 90 -174 163 -134 131 -156 146 -304 213 -43 20 -158 94
-192 124 -16 14 -51 50 -79 80 -82 89 -186 175 -243 199 -29 12 -83 32 -121
45 -81 27 -160 88 -248 192 -34 40 -77 83 -95 97 -56 41 -160 94 -219 111 -31
9 -62 23 -70 32 -7 9 -33 29 -58 46 -25 17 -92 77 -147 134 -103 104 -225 194
-320 234 -68 30 -179 105 -201 136 -63 92 -170 182 -255 216 -29 12 -73 36
-98 54 -25 18 -80 49 -122 69 -92 44 -222 154 -268 225 -18 28 -52 62 -81 81
-27 17 -96 51 -152 74 -137 57 -211 108 -343 239 -115 114 -153 141 -269 193
-60 27 -144 71 -185 98 -41 26 -116 90 -166 140 -51 51 -112 106 -136 124 -23
17 -70 39 -103 50 -61 20 -159 67 -229 112 -21 13 -96 80 -165 149 -105 103
-139 130 -196 157 -285 131 -283 129 -479 316 -39 38 -90 80 -114 94 -23 14
-81 40 -128 58 -97 39 -156 79 -269 185 -45 41 -108 95 -140 120 -33 24 -78
59 -100 78 -28 23 -75 44 -165 72 -69 22 -148 53 -177 70 -28 16 -100 77 -160
135 -59 59 -128 121 -153 139 -52 39 -128 78 -185 96 -22 7 -94 41 -161 76
-91 48 -136 79 -185 127 -35 35 -76 77 -90 93 -38 44 -122 85 -223 109 -128
31 -279 76 -292 87 -7 5 -38 22 -70 39 -78 39 -148 90 -221 157 -72 67 -143
100 -296 137 -479 116 -496 123 -691 267 -43 32 -99 70 -123 85 -74 43 -241
83 -413 98 -148 13 -235 24 -380 45 -36 5 -117 16 -180 25 -167 22 -297 44
-360 61 -30 8 -127 28 -215 44 -88 17 -185 35 -215 41 -30 6 -78 19 -105 30
-28 10 -64 19 -81 19 -17 0 -56 5 -85 11 -197 38 -307 50 -561 59 -279 10
-551 13 -559 6z m616 -2066 c88 -6 348 -41 520 -70 33 -5 112 -14 175 -20 63
-5 201 -21 305 -35 184 -25 315 -38 480 -49 44 -3 103 -9 130 -15 28 -6 110
-22 183 -36 107 -20 152 -35 221 -69 52 -27 114 -68 153 -104 66 -60 111 -85
218 -124 65 -23 212 -60 325 -82 104 -19 244 -60 292 -85 21 -10 57 -37 80
-58 91 -84 197 -168 236 -186 23 -10 49 -24 57 -32 9 -8 72 -33 140 -56 69
-23 166 -62 215 -87 71 -36 107 -64 170 -127 44 -45 110 -103 148 -129 63 -44
164 -96 188 -96 28 0 214 -82 251 -112 23 -18 96 -86 161 -150 96 -96 131
-124 191 -153 40 -19 82 -35 93 -35 12 0 47 -17 79 -38 33 -21 79 -50 104 -64
25 -15 88 -65 140 -113 136 -125 177 -156 259 -195 246 -117 253 -122 316
-196 33 -40 75 -90 93 -113 28 -34 67 -58 224 -136 114 -57 208 -111 232 -133
23 -21 56 -49 73 -62 18 -13 45 -41 60 -63 25 -35 44 -49 173 -117 19 -10 97
-48 173 -85 109 -53 152 -80 203 -128 36 -33 88 -91 115 -128 33 -43 62 -71
82 -79 18 -6 87 -39 154 -73 135 -67 229 -133 349 -246 43 -41 97 -85 119 -99
22 -14 63 -40 90 -58 28 -17 61 -35 75 -39 14 -4 65 -28 114 -52 73 -37 105
-61 185 -141 53 -53 117 -114 143 -135 26 -21 110 -69 188 -108 134 -68 143
-74 218 -157 157 -176 225 -229 367 -288 105 -43 168 -80 215 -126 14 -14 62
-65 106 -114 87 -95 153 -141 255 -178 95 -35 207 -99 267 -151 29 -26 70 -72
91 -103 22 -31 59 -76 83 -99 34 -33 65 -51 140 -77 54 -19 122 -51 152 -70
30 -19 101 -82 158 -139 57 -57 128 -122 159 -145 31 -23 100 -61 155 -83 54
-23 114 -52 134 -65 19 -13 51 -35 71 -48 20 -14 65 -57 100 -97 96 -110 128
-137 199 -172 125 -62 266 -146 313 -187 26 -23 68 -69 93 -102 67 -87 164
-163 241 -189 34 -11 110 -52 167 -90 102 -68 157 -121 190 -186 20 -41 75
-85 156 -127 236 -122 340 -178 340 -184 0 -4 21 -20 46 -36 29 -19 56 -47 75
-81 16 -28 39 -61 52 -73 33 -31 123 -86 248 -152 58 -30 128 -72 157 -93 29
-22 70 -66 92 -100 22 -34 55 -72 73 -85 62 -44 153 -99 217 -132 36 -18 88
-49 115 -69 28 -20 63 -45 78 -54 16 -10 43 -39 60 -64 41 -58 181 -160 316
-230 58 -30 113 -60 121 -67 8 -7 33 -20 55 -30 22 -9 53 -35 70 -58 17 -22
49 -54 73 -71 23 -17 42 -34 42 -38 0 -4 20 -29 44 -56 32 -36 65 -58 118 -82
174 -77 237 -115 307 -186 39 -38 87 -93 109 -120 62 -80 122 -126 238 -184
121 -60 209 -126 330 -248 108 -108 190 -167 270 -193 87 -29 215 -118 329
-229 126 -122 187 -170 247 -193 76 -28 136 -73 208 -153 24 -27 81 -86 126
-130 62 -61 103 -91 170 -125 124 -62 221 -126 258 -169 17 -20 68 -75 113
-122 61 -63 100 -94 145 -115 34 -16 87 -42 117 -58 31 -16 74 -38 96 -49 52
-26 127 -89 251 -213 99 -98 106 -103 224 -154 67 -30 142 -69 165 -87 24 -18
65 -63 93 -100 49 -67 165 -193 178 -193 3 0 27 -15 53 -34 26 -19 72 -44 102
-55 29 -12 73 -33 96 -49 23 -15 93 -76 156 -135 149 -140 219 -190 303 -217
100 -32 224 -125 305 -228 33 -42 84 -93 112 -112 29 -20 95 -57 147 -83 144
-72 228 -133 283 -208 67 -91 85 -110 146 -158 54 -42 142 -91 191 -106 74
-23 246 -171 291 -251 16 -28 37 -58 47 -66 9 -9 80 -48 157 -87 77 -40 172
-95 210 -122 39 -27 86 -60 106 -73 20 -14 47 -40 60 -58 56 -80 99 -124 135
-137 22 -7 46 -19 54 -26 8 -7 40 -26 70 -42 159 -88 197 -112 244 -158 28
-27 69 -76 91 -108 36 -52 51 -64 143 -113 57 -30 116 -63 130 -74 15 -12 55
-41 90 -67 34 -25 93 -79 130 -121 99 -112 112 -123 198 -171 43 -25 102 -61
129 -82 28 -20 74 -49 104 -64 32 -16 93 -65 150 -120 66 -64 136 -119 226
-176 72 -45 148 -93 170 -106 90 -52 151 -102 182 -149 19 -27 60 -78 92 -114
45 -51 69 -69 112 -84 80 -29 155 -73 234 -137 46 -37 79 -74 95 -104 13 -25
38 -58 54 -71 118 -95 131 -105 263 -176 61 -33 180 -125 228 -176 51 -55 222
-205 253 -221 13 -7 48 -21 78 -31 72 -25 187 -103 232 -158 20 -24 54 -56 76
-72 23 -15 72 -58 110 -95 38 -37 81 -74 95 -83 159 -99 194 -126 228 -180 20
-31 42 -62 47 -68 6 -7 29 -35 51 -64 35 -45 102 -103 218 -188 18 -13 45 -35
61 -50 33 -32 92 -120 118 -179 10 -23 23 -45 28 -48 6 -4 23 -31 38 -60 15
-30 65 -94 112 -142 118 -123 188 -223 227 -323 71 -179 87 -213 128 -263 23
-29 49 -65 58 -82 9 -16 33 -49 54 -72 64 -70 149 -254 188 -408 32 -126 40
-197 54 -525 6 -129 15 -289 20 -355 10 -118 4 -269 -18 -460 -5 -49 -17 -164
-26 -255 -9 -91 -25 -196 -36 -235 -23 -76 -84 -168 -149 -220 -31 -26 -117
-143 -170 -234 -78 -131 -143 -201 -279 -296 -84 -59 -144 -118 -186 -185 -39
-61 -103 -122 -155 -146 -25 -12 -76 -29 -115 -38 -150 -37 -243 -69 -310
-109 -38 -22 -74 -46 -80 -52 -18 -20 -179 -123 -219 -140 -22 -9 -73 -23
-114 -31 -40 -8 -78 -16 -82 -19 -23 -14 -181 -38 -305 -46 -299 -19 -559 -22
-918 -10 -376 12 -487 21 -587 46 -30 8 -73 16 -95 20 -70 10 -272 62 -302 77
-263 138 -287 149 -406 178 -67 17 -147 37 -177 45 -30 8 -116 23 -190 34
-252 36 -285 42 -425 72 -144 31 -198 53 -335 134 -69 41 -138 76 -215 110
-52 23 -266 86 -360 105 -49 10 -166 28 -260 40 -301 37 -279 32 -546 121
-129 42 -275 108 -319 144 -20 16 -186 70 -296 95 -184 44 -283 61 -423 75
-79 8 -171 21 -205 29 -33 8 -95 22 -136 31 -82 19 -261 93 -294 123 -12 10
-32 26 -46 35 -14 9 -47 32 -75 51 -27 18 -61 37 -75 41 -14 4 -43 15 -65 25
-100 45 -380 98 -600 114 -124 9 -264 36 -330 62 -33 14 -77 27 -98 31 -21 3
-53 15 -70 27 -18 12 -90 51 -161 86 -71 36 -165 83 -208 106 -50 25 -117 48
-176 62 -108 23 -302 50 -432 59 -82 5 -193 29 -330 71 -113 34 -313 120 -341
146 -27 25 -75 48 -217 101 -65 24 -132 38 -322 65 -83 12 -271 47 -316 59
-21 6 -73 15 -114 21 -103 16 -208 47 -252 76 -20 13 -72 43 -115 67 -43 24
-96 54 -118 67 -49 28 -164 77 -225 96 -45 14 -118 26 -390 65 -80 11 -201 29
-269 40 -203 33 -483 131 -612 215 -90 59 -165 91 -309 133 -108 32 -225 51
-435 71 -142 13 -306 44 -390 72 -90 31 -228 89 -247 106 -25 21 -201 125
-282 166 -38 20 -85 41 -105 46 -38 11 -187 33 -511 75 -237 30 -234 30 -345
67 -94 30 -151 60 -220 113 -23 17 -57 37 -76 44 -19 7 -56 24 -84 38 -84 44
-289 102 -430 123 -44 6 -134 20 -200 30 -66 10 -149 21 -185 25 -63 6 -227
45 -282 67 -16 6 -28 14 -28 18 0 4 -26 19 -57 33 -32 14 -69 33 -83 41 -47
28 -255 125 -300 140 -128 41 -329 80 -504 96 -54 6 -129 17 -165 26 -71 17
-209 62 -226 74 -5 3 -32 15 -60 25 -69 25 -195 92 -225 120 -37 34 -136 81
-242 114 -95 31 -225 54 -358 66 -41 3 -106 12 -145 20 -38 7 -119 21 -180 31
-60 9 -126 23 -145 31 -19 8 -57 22 -84 30 -57 17 -123 46 -261 114 -159 78
-334 144 -435 164 -19 4 -80 19 -135 35 -55 15 -163 35 -240 44 -247 30 -302
48 -520 166 -27 15 -86 50 -130 79 -44 28 -127 71 -185 95 -110 46 -136 51
-470 91 -222 26 -260 33 -283 48 -13 8 -59 29 -102 48 -118 48 -312 148 -360
184 -23 18 -70 41 -106 53 -94 30 -272 69 -369 81 -229 28 -314 42 -415 69
-147 39 -316 107 -390 157 -33 22 -94 56 -135 74 -99 44 -315 107 -415 122
-44 6 -127 22 -185 36 -58 14 -131 28 -162 33 -61 9 -183 62 -251 109 -23 15
-89 55 -147 88 -119 68 -256 114 -415 138 -163 24 -319 53 -349 65 -16 6 -80
22 -143 35 -90 19 -132 34 -201 72 -48 26 -104 55 -124 65 -21 9 -55 31 -76
48 -45 36 -236 111 -356 140 -45 11 -168 33 -273 50 -105 16 -212 37 -239 46
-136 46 -337 153 -440 235 -87 69 -214 127 -306 139 -89 11 -241 42 -407 81
-104 25 -139 38 -210 81 -48 28 -113 76 -146 105 -33 30 -85 70 -116 88 -50
31 -149 65 -189 65 -8 0 -31 8 -50 18 -19 10 -69 26 -110 36 -41 10 -117 31
-168 48 -76 24 -104 40 -157 85 -36 31 -81 77 -101 104 -30 41 -51 56 -122 90
-108 50 -190 91 -312 158 -96 52 -128 81 -226 203 -45 56 -109 101 -234 163
-93 47 -167 104 -203 158 -44 67 -189 201 -296 275 -70 48 -93 71 -137 137
-100 151 -148 207 -239 277 -99 77 -139 122 -192 215 -22 41 -61 86 -110 130
-42 38 -113 106 -159 153 -67 69 -94 106 -143 200 -33 63 -71 151 -86 195 -14
43 -36 98 -50 120 -13 23 -60 77 -105 121 -61 59 -89 95 -111 144 -17 36 -36
76 -43 90 -7 14 -21 50 -31 80 -10 30 -24 64 -31 76 -8 11 -22 45 -32 75 -11
29 -37 90 -59 134 -22 44 -48 101 -58 128 -10 27 -49 84 -90 132 -40 46 -78
99 -84 117 -7 18 -19 49 -27 68 -7 19 -20 85 -29 145 -14 99 -31 183 -81 397
-8 37 -44 140 -79 227 -35 88 -67 182 -71 208 -3 27 -27 92 -51 147 -42 92
-103 278 -103 315 0 9 -6 45 -15 81 -46 203 -61 432 -70 1045 -8 532 9 1078
46 1505 9 98 21 156 55 270 97 317 129 409 177 510 27 58 58 130 68 160 32 99
59 204 59 232 0 15 8 54 19 85 10 32 26 99 36 148 22 116 93 344 115 370 9 11
35 47 57 80 22 33 66 98 98 145 72 104 105 177 139 301 26 98 90 248 129 303
12 17 27 38 32 47 20 32 135 185 168 224 18 22 61 96 95 165 92 188 194 331
270 376 44 26 106 107 167 219 21 39 56 96 77 128 40 59 151 177 166 177 8 0
117 121 298 330 83 96 173 175 269 238 55 36 120 88 145 115 109 122 168 174
240 212 41 22 125 67 187 100 100 53 127 74 238 183 69 67 146 136 172 152 61
39 179 87 281 115 45 13 108 38 140 55 65 37 185 138 255 216 38 42 59 56 110
73 84 27 202 56 317 76 126 22 269 62 296 83 123 96 240 167 319 192 22 7 53
22 69 33 48 34 230 80 381 97 55 6 156 17 225 25 69 8 179 19 245 25 293 24
464 41 515 50 30 5 105 19 165 30 183 34 488 56 800 57 94 1 215 -2 270 -7z"/>
    <path d="M9455 28899 c-225 -10 -469 -44 -584 -81 -35 -11 -89 -35 -120 -52
-65 -37 -205 -121 -241 -145 -14 -9 -59 -29 -100 -45 -77 -29 -125 -45 -362
-122 -76 -24 -155 -56 -175 -70 -21 -14 -58 -49 -83 -78 -89 -104 -193 -182
-301 -223 -41 -16 -100 -46 -131 -67 -54 -35 -156 -146 -244 -266 -24 -33 -68
-73 -110 -101 -38 -26 -80 -58 -94 -71 -39 -39 -114 -136 -159 -209 -28 -45
-57 -76 -90 -98 -60 -38 -182 -168 -217 -230 -13 -24 -38 -90 -56 -145 -39
-126 -69 -189 -111 -224 -17 -15 -69 -63 -115 -106 -53 -52 -91 -98 -106 -130
-26 -55 -59 -180 -77 -291 -22 -139 -70 -362 -96 -440 -14 -44 -34 -96 -45
-115 -10 -19 -26 -50 -34 -68 -15 -34 -64 -260 -64 -297 0 -11 -11 -36 -24
-56 -32 -46 -56 -177 -65 -351 -8 -146 1 -403 18 -509 6 -35 11 -87 11 -116 0
-28 5 -64 11 -80 6 -15 17 -63 25 -107 19 -100 69 -239 106 -294 15 -24 37
-76 49 -115 11 -40 26 -94 34 -122 8 -27 19 -91 25 -141 5 -50 23 -154 39
-230 47 -220 75 -280 190 -399 43 -44 94 -102 113 -130 34 -48 78 -137 78
-158 0 -5 13 -37 29 -71 17 -33 43 -90 59 -127 51 -114 167 -269 229 -306 24
-14 51 -39 59 -55 8 -16 44 -61 80 -99 35 -39 64 -75 64 -81 0 -16 106 -153
139 -179 94 -77 178 -138 272 -199 77 -50 117 -83 143 -119 19 -28 53 -62 73
-76 21 -14 74 -52 118 -85 44 -33 96 -65 115 -71 19 -7 69 -27 110 -46 98 -46
215 -93 230 -93 20 0 92 -55 187 -143 50 -47 101 -90 112 -97 19 -10 149 -49
212 -64 43 -10 165 -26 314 -42 77 -8 174 -21 215 -29 41 -8 111 -20 155 -25
43 -6 110 -18 148 -26 37 -8 86 -14 108 -14 21 0 58 -4 81 -10 174 -38 526
-52 693 -26 50 7 137 19 195 26 58 6 125 16 150 22 25 5 86 16 135 23 148 23
277 45 285 50 4 3 99 14 211 24 147 14 219 26 259 41 103 40 184 85 226 126
23 23 59 54 80 70 22 15 53 40 69 55 29 25 107 59 280 119 79 28 216 95 291
143 49 31 84 69 119 130 30 52 117 135 180 171 22 13 64 31 94 42 64 22 168
114 200 175 12 23 38 62 57 88 58 75 164 181 203 201 20 10 57 38 83 62 33 30
53 60 67 98 45 128 107 253 149 302 16 18 38 50 50 71 12 21 45 64 72 95 70
81 93 115 144 220 46 95 76 179 76 216 0 32 48 183 85 266 18 41 36 86 40 100
20 70 91 219 121 252 35 39 57 100 95 268 33 148 38 189 48 445 6 132 13 281
17 330 7 104 -11 534 -27 645 -15 106 -54 300 -82 402 -15 55 -35 101 -53 124
-58 73 -124 191 -148 264 -14 41 -30 110 -35 153 -17 126 -58 274 -96 345 -19
37 -62 99 -95 137 -71 82 -138 182 -165 245 -18 41 -99 158 -174 250 -16 20
-41 60 -56 90 -38 74 -90 142 -125 160 -15 8 -93 85 -173 170 -79 85 -207 218
-283 296 -145 146 -219 203 -426 323 -76 44 -131 86 -192 146 -47 46 -100 92
-118 101 -38 20 -208 69 -269 78 -45 7 -139 45 -239 96 -179 92 -440 219 -470
229 -50 15 -222 49 -348 67 -84 13 -219 17 -622 19 -283 2 -609 -1 -725 -6z
m795 -1924 c259 -25 401 -50 491 -87 65 -26 94 -46 153 -103 79 -77 205 -153
309 -186 134 -44 253 -92 292 -119 22 -15 64 -54 93 -86 203 -224 188 -209
315 -327 44 -39 90 -90 103 -113 23 -39 55 -153 88 -314 9 -41 31 -106 50
-145 144 -295 166 -344 175 -405 6 -36 15 -80 20 -98 20 -68 46 -311 46 -422
-1 -63 -6 -153 -13 -200 -14 -90 -31 -201 -38 -235 -2 -11 -32 -69 -66 -130
-35 -60 -78 -146 -96 -190 -18 -44 -53 -158 -78 -254 -25 -96 -54 -193 -65
-217 -13 -27 -58 -77 -127 -140 -59 -53 -117 -115 -129 -138 -38 -67 -171
-193 -283 -268 -185 -123 -223 -151 -325 -249 l-100 -95 -113 -32 c-228 -65
-544 -97 -967 -97 -230 0 -328 6 -567 35 -160 20 -368 67 -433 99 -58 29 -107
76 -235 223 -35 41 -112 89 -175 108 -22 7 -70 28 -108 48 -81 42 -151 115
-208 216 -56 101 -114 172 -199 243 -58 49 -82 77 -109 130 -19 37 -40 95 -47
128 -7 33 -22 98 -34 145 -11 47 -28 130 -37 185 -8 55 -29 152 -45 215 -41
157 -59 272 -65 420 -4 103 0 154 21 290 14 91 31 215 37 275 6 61 17 135 25
165 7 30 20 93 29 140 13 77 93 331 126 405 14 30 222 277 274 325 15 14 37
45 50 70 13 25 35 56 49 69 15 14 37 43 51 65 32 54 120 138 170 163 22 11 72
31 110 43 39 13 117 46 175 75 58 28 125 59 150 69 25 9 56 26 70 37 164 130
234 175 319 207 79 28 265 48 676 71 17 0 104 -6 195 -14z"/>
  </g>
</svg>