<svg xmlns="http://www.w3.org/2000/svg" viewBox="0 0 4096.000000 4096.000000">
  <g transform="translate(0.000000,4096.000000) scale(0.100000,-0.100000)" fill="#f4f5f7" stroke="none">
    <path d="M4535 40369 c-122 -8 -183 -17 -415 -59 -89 -16 -198 -44 -300 -77
-25 -8 -76 -22 -115 -32 -38 -10 -83 -25 -100 -33 -16 -9 -46 -19 -65 -23 -34
-7 -105 -37 -225 -96 -33 -16 -65 -29 -71 -29 -6 0 -17 -7 -24 -14 -6 -8 -28
-20 -48 -27 -20 -6 -46 -19 -57 -28 -11 -10 -39 -26 -62 -36 -24 -10 -43 -21
-43 -25 0 -4 -21 -17 -47 -29 -27 -11 -68 -36 -93 -56 -25 -19 -56 -40 -70
-47 -14 -7 -39 -24 -57 -38 -17 -14 -50 -38 -73 -55 -346 -246 -706 -631 -962
-1028 -32 -50 -152 -269 -190 -347 -46 -94 -88 -192 -88 -205 0 -6 -11 -32
-23 -56 -13 -24 -27 -62 -31 -84 -4 -22 -15 -53 -24 -70 -31 -59 -138 -466
-147 -560 -4 -38 -15 -117 -26 -175 -12 -66 -23 -193 -29 -345 -14 -348 -14
-32624 1 -32863 6 -110 18 -203 29 -247 11 -38 22 -101 26 -140 4 -38 15 -91
25 -116 10 -26 25 -83 33 -128 9 -45 22 -94 30 -109 7 -15 19 -53 26 -84 6
-32 15 -60 21 -63 5 -3 16 -31 25 -62 9 -31 27 -77 40 -101 13 -25 24 -51 24
-58 0 -17 169 -348 203 -398 15 -21 27 -44 27 -51 0 -7 6 -18 14 -24 7 -6 34
-46 60 -89 26 -42 57 -91 69 -107 77 -107 143 -193 161 -211 12 -12 44 -48 71
-80 66 -78 166 -183 240 -254 150 -142 272 -250 325 -286 19 -14 53 -38 75
-54 45 -34 145 -101 220 -148 28 -17 61 -39 75 -49 62 -45 485 -253 514 -253
6 0 30 -9 51 -20 22 -12 69 -28 104 -36 35 -8 73 -21 85 -29 12 -8 46 -19 76
-25 30 -6 75 -19 100 -29 25 -10 63 -21 85 -25 22 -3 90 -17 150 -30 61 -14
171 -35 245 -48 l135 -23 15880 -3 c9634 -1 15919 2 15980 7 168 16 415 51
500 71 44 10 104 23 133 29 30 6 63 16 75 23 12 6 51 19 87 29 96 26 188 58
247 85 28 13 60 24 69 24 9 0 36 11 58 24 23 13 54 26 70 30 17 4 41 15 55 25
14 10 42 23 61 30 19 6 46 19 60 28 14 9 43 26 65 38 41 21 55 29 140 79 75
44 160 98 289 186 118 80 311 248 451 391 128 131 305 335 375 432 19 27 44
60 56 75 11 15 38 56 59 92 22 36 50 78 62 93 13 16 23 34 23 40 0 7 11 29 25
49 14 20 52 92 86 160 33 68 72 144 85 169 13 26 24 53 24 60 0 8 7 28 16 44
20 35 68 165 93 250 10 33 25 76 34 95 8 19 18 58 22 85 4 28 16 70 25 95 10
25 25 95 34 156 9 61 23 131 30 155 8 24 20 115 26 201 8 114 10 4628 10
16375 -1 9851 -5 16319 -10 16475 -8 196 -16 292 -35 403 -14 81 -25 161 -25
180 0 18 -9 63 -21 99 -11 37 -26 102 -34 146 -8 43 -20 91 -28 107 -8 15 -20
54 -27 86 -6 33 -23 82 -36 110 -13 29 -24 61 -24 72 0 11 -9 34 -19 51 -10
17 -22 45 -26 63 -4 18 -20 63 -37 100 -46 103 -89 195 -99 211 -5 8 -16 30
-25 49 -8 18 -23 45 -33 60 -10 14 -38 60 -62 101 -23 41 -52 87 -64 102 -11
14 -33 49 -50 78 -16 28 -50 77 -75 109 -25 32 -61 80 -80 106 -99 134 -452
487 -596 597 -112 85 -236 172 -308 216 -16 9 -40 26 -55 37 -14 11 -42 28
-61 38 -19 10 -57 31 -85 47 -53 30 -273 140 -365 183 -30 14 -75 31 -100 37
-25 6 -55 18 -68 26 -22 15 -72 30 -253 78 -47 13 -94 28 -105 33 -10 5 -73
18 -139 27 -66 10 -142 25 -170 34 -27 8 -111 20 -185 25 -169 12 -31796 18
-31985 6z m31900 -2341 c77 -17 161 -42 187 -54 26 -13 55 -24 65 -24 10 0 35
-11 55 -25 20 -14 41 -25 45 -25 4 0 26 -14 47 -30 22 -17 45 -30 52 -30 6 0
18 -7 25 -16 8 -9 30 -27 49 -39 95 -61 229 -203 325 -346 50 -72 115 -196
115 -217 0 -7 9 -30 19 -50 11 -21 25 -67 31 -103 6 -35 21 -95 33 -134 l22
-70 0 -16410 0 -16410 -22 -70 c-11 -38 -26 -94 -32 -123 -6 -29 -19 -69 -30
-90 -10 -20 -21 -49 -25 -64 -3 -15 -16 -43 -29 -62 -12 -19 -35 -58 -52 -86
-28 -48 -56 -87 -122 -169 -16 -19 -62 -68 -103 -110 -87 -89 -144 -135 -229
-186 -18 -11 -52 -32 -75 -47 -22 -15 -47 -28 -55 -28 -7 0 -34 -11 -60 -24
-49 -26 -150 -61 -216 -76 -22 -4 -87 -16 -145 -27 -102 -17 -595 -18 -15825
-18 l-15720 0 -130 23 c-163 29 -307 70 -355 102 -8 5 -31 16 -50 25 -32 13
-57 27 -159 90 -57 34 -103 73 -189 158 -80 78 -202 227 -202 246 0 5 -11 23
-25 39 -14 17 -31 45 -37 64 -6 18 -19 44 -30 57 -10 13 -18 28 -18 34 0 6
-13 40 -29 76 -15 36 -36 95 -45 131 -9 36 -22 83 -29 105 -9 31 -12 3578 -12
16430 l0 16390 28 120 c26 115 37 149 77 260 20 54 68 148 98 192 11 16 37 55
58 87 82 124 246 278 389 366 39 23 81 50 95 60 14 9 43 23 65 30 22 7 50 18
62 26 12 8 82 29 155 46 l133 33 15700 5 c8635 3 15763 4 15840 2 112 -2 168
-9 280 -34z"/>
    <path d="M20265 34700 c-28 -4 -85 -19 -127 -34 -42 -14 -83 -26 -91 -26 -8 0
-25 -8 -38 -18 -13 -11 -38 -23 -54 -29 -31 -11 -79 -40 -155 -95 -50 -36
-235 -217 -326 -319 -122 -135 -217 -240 -266 -291 -27 -29 -116 -129 -196
-222 -81 -94 -199 -227 -262 -296 -63 -70 -164 -182 -225 -250 -60 -68 -119
-133 -131 -144 -11 -12 -78 -88 -149 -171 -165 -193 -252 -290 -625 -700 -74
-81 -182 -203 -240 -270 -141 -164 -290 -334 -315 -359 -11 -12 -54 -59 -95
-106 -41 -47 -102 -114 -136 -150 -99 -106 -221 -244 -357 -404 -71 -83 -159
-185 -196 -226 -37 -41 -101 -113 -142 -160 -41 -47 -83 -94 -94 -106 -11 -11
-56 -60 -100 -109 -44 -49 -127 -141 -185 -204 -58 -64 -162 -181 -230 -261
-68 -80 -140 -163 -160 -185 -20 -22 -62 -67 -92 -100 -49 -54 -110 -122 -332
-370 -39 -44 -89 -100 -111 -125 -22 -25 -45 -49 -51 -55 -6 -5 -47 -50 -90
-100 -43 -49 -84 -94 -90 -100 -6 -5 -37 -42 -70 -81 -32 -39 -68 -82 -79 -95
-48 -58 -145 -225 -145 -252 0 -7 -12 -39 -25 -72 -37 -88 -58 -246 -52 -390
6 -157 23 -268 47 -316 11 -21 20 -44 20 -51 0 -15 76 -168 105 -213 103 -157
255 -299 424 -397 111 -65 195 -97 306 -120 55 -11 118 -24 140 -28 63 -14
184 -11 260 6 39 9 100 21 136 28 68 13 116 32 234 93 83 43 117 67 210 148
84 73 144 136 316 330 72 83 160 182 194 220 34 39 95 108 136 155 40 47 98
112 129 145 30 34 98 108 151 165 53 58 156 175 229 260 73 85 136 157 140
160 4 3 53 59 110 125 58 66 176 199 265 296 192 211 259 286 395 444 57 66
147 167 199 225 142 155 258 285 331 370 35 41 76 87 90 101 31 32 53 58 110
129 46 56 173 200 248 280 23 25 59 66 80 91 38 48 70 74 79 66 2 -3 4 -146 3
-319 -2 -172 -2 -3097 -1 -6500 l2 -6187 24 -118 c45 -216 111 -351 258 -528
79 -95 223 -225 274 -247 15 -7 41 -23 56 -35 16 -13 36 -23 44 -23 9 0 35
-11 57 -24 23 -13 57 -27 76 -31 19 -4 60 -16 91 -26 71 -25 218 -35 384 -29
104 4 148 11 220 34 166 51 272 109 400 217 44 37 100 89 124 116 59 64 150
189 167 229 8 18 18 35 24 39 5 3 16 28 24 54 8 27 21 62 30 79 9 17 27 87 41
154 l24 123 3 6508 c2 5174 5 6507 15 6507 7 0 27 -17 45 -37 18 -20 47 -52
63 -69 96 -104 187 -207 306 -344 74 -85 144 -166 157 -180 29 -32 276 -311
407 -460 119 -136 344 -389 395 -445 158 -172 261 -287 350 -390 57 -66 108
-124 114 -130 6 -5 45 -48 85 -95 41 -47 77 -87 80 -90 3 -3 53 -59 111 -125
57 -66 113 -129 125 -141 19 -19 91 -97 183 -198 24 -26 97 -111 164 -189 67
-78 146 -169 177 -202 66 -71 113 -124 231 -260 48 -55 114 -125 146 -156 61
-57 176 -144 229 -171 17 -8 44 -22 60 -31 74 -40 157 -70 245 -88 212 -45
300 -46 475 -8 115 26 138 32 205 61 123 53 237 128 341 225 77 74 189 202
189 220 0 4 14 26 30 47 17 22 30 45 30 51 0 7 8 23 19 36 30 39 82 179 91
249 5 36 14 111 20 167 9 87 8 121 -10 247 -13 94 -27 160 -40 183 -11 21 -20
45 -20 53 0 32 -106 222 -153 275 -32 36 -71 82 -107 125 -58 70 -212 244
-225 255 -6 6 -40 44 -75 85 -35 41 -74 86 -86 100 -12 14 -48 55 -81 91 -136
155 -181 205 -228 255 -102 107 -205 222 -301 334 -55 63 -108 125 -119 136
-11 12 -45 50 -75 85 -30 35 -78 89 -105 119 -28 30 -84 93 -125 140 -40 47
-126 141 -191 210 -101 108 -179 196 -279 314 -14 16 -48 54 -75 85 -28 31
-82 92 -120 136 -39 44 -75 85 -81 90 -6 6 -67 75 -135 155 -68 80 -146 168
-174 196 -101 105 -144 152 -270 299 -71 83 -151 175 -179 205 -75 81 -132
146 -205 230 -36 41 -90 102 -120 135 -31 33 -94 103 -141 155 -47 51 -92 101
-102 111 -9 9 -71 82 -139 161 -129 150 -147 171 -201 228 -78 83 -281 312
-418 469 -30 35 -68 78 -85 95 -16 17 -64 69 -105 116 -41 46 -82 91 -90 99
-8 9 -64 72 -124 141 -60 69 -116 132 -125 142 -9 9 -34 36 -56 60 -254 278
-402 419 -476 452 -19 8 -45 21 -59 29 -80 44 -132 66 -166 73 -22 4 -55 15
-75 25 -19 9 -70 22 -113 28 -86 12 -333 13 -411 1z"/>
    <path d="M7235 13090 c-22 -5 -57 -16 -77 -24 -21 -9 -51 -16 -67 -16 -17 0
-51 -11 -77 -25 -26 -14 -53 -25 -60 -25 -17 0 -143 -67 -204 -108 -106 -72
-284 -260 -327 -347 -11 -22 -27 -53 -36 -70 -34 -64 -67 -144 -94 -230 -26
-87 -27 -98 -28 -305 0 -179 3 -222 17 -260 10 -25 22 -67 28 -95 5 -27 21
-72 34 -100 13 -27 29 -61 36 -75 11 -25 59 -105 95 -156 37 -54 122 -143 180
-189 21 -16 51 -40 66 -53 15 -12 43 -29 61 -37 19 -7 40 -21 48 -29 7 -9 17
-16 22 -16 5 0 37 -13 71 -29 89 -42 225 -81 325 -92 55 -6 4959 -8 13312 -7
12320 3 13228 4 13275 20 28 9 73 24 100 33 28 9 68 25 90 35 22 10 56 26 75
35 60 27 149 88 213 145 93 82 227 240 227 266 0 6 7 17 15 24 18 15 81 143
91 185 3 17 18 64 32 105 25 71 26 85 26 285 0 200 -1 213 -26 285 -15 41 -30
91 -33 110 -4 19 -15 46 -25 60 -9 14 -22 39 -27 55 -10 28 -29 60 -85 144
-72 105 -227 260 -323 323 -103 67 -252 133 -320 143 -27 4 -63 14 -80 23 -28
16 -976 17 -13270 18 -7282 1 -13258 -2 -13280 -6z"/>
  </g>
</svg>