<svg xmlns="http://www.w3.org/2000/svg" viewBox="0 0 4096.000000 4096.000000">
  <g transform="translate(0.000000,4096.000000) scale(0.100000,-0.100000)" fill="#f4f5f7" stroke="#f4f5f7" stroke-width="40" stroke-linejoin="round" stroke-linecap="round">
    <path d="M4645 39653 c-16 -1 -131 -7 -255 -13 -285 -12 -397 -27 -661 -84
-130 -28 -423 -119 -538 -167 -145 -60 -377 -184 -501 -268 -69 -46 -139 -96
-156 -110 -17 -14 -55 -44 -84 -66 -162 -122 -372 -326 -524 -510 -146 -176
-164 -202 -288 -410 -39 -65 -141 -274 -181 -370 -36 -87 -101 -293 -132 -415
-14 -58 -37 -179 -51 -270 -58 -385 -54 131 -55 -8610 -1 -11638 10 -23753 22
-23955 12 -225 32 -362 84 -586 72 -314 175 -572 339 -856 20 -35 52 -90 71
-124 19 -33 44 -73 56 -87 11 -15 60 -79 109 -143 160 -210 370 -421 585 -588
44 -34 88 -69 98 -77 92 -75 309 -201 512 -298 307 -147 692 -248 1070 -282
137 -12 2491 -14 16428 -14 11195 0 16305 3 16385 10 222 20 490 70 670 126
182 56 290 98 434 168 122 60 308 165 368 209 14 10 62 45 108 77 158 111 386
328 567 540 72 85 195 261 259 371 93 164 197 388 244 532 69 207 126 465 152
692 7 62 10 4442 8 14045 -2 18673 -2 18471 -21 18645 -37 329 -106 621 -209
879 -63 161 -153 324 -293 535 -127 192 -281 377 -469 563 -166 166 -280 259
-471 386 -167 111 -296 177 -520 269 -357 146 -669 218 -1048 244 -101 6
-5522 11 -16117 12 -8781 2 -15978 2 -15995 0z m17125 -2052 c7901 1 14484 1
14630 0 389 -3 482 -16 660 -94 168 -72 321 -183 433 -311 71 -81 159 -237
200 -352 33 -91 45 -159 57 -319 7 -86 10 -3509 8 -10040 -2 -11499 -2 -9720
1 -15700 2 -2618 7 -5049 11 -5403 14 -987 -3 -1218 -98 -1409 -85 -169 -164
-265 -311 -377 -124 -95 -309 -173 -466 -196 -44 -6 -228 -15 -410 -19 -181
-5 -2159 -9 -4395 -9 -2236 -1 -9360 -4 -15831 -7 -8275 -4 -11804 -2 -11890
5 -68 6 -163 20 -210 30 -93 20 -224 71 -317 122 -174 96 -365 315 -473 541
-44 94 -64 177 -80 344 -8 86 -12 2633 -15 9383 -3 5096 -5 12325 -5 16065 1
6115 2 6808 16 6875 23 108 32 135 83 235 56 112 96 170 177 260 162 182 380
307 605 350 57 11 178 21 300 26 113 4 824 5 1580 3 756 -3 7839 -4 15740 -3z"/>
    <path d="M20395 34615 c-134 -29 -253 -86 -353 -168 -60 -49 -242 -229 -601
-594 -156 -158 -633 -639 -1060 -1068 -427 -429 -864 -872 -971 -984 -107
-111 -292 -301 -410 -420 -118 -119 -307 -313 -420 -431 -112 -118 -285 -298
-384 -400 -98 -102 -215 -225 -259 -275 -43 -49 -89 -101 -101 -115 -45 -51
-116 -153 -155 -223 -80 -146 -108 -326 -77 -497 10 -51 27 -123 38 -159 24
-79 75 -183 128 -260 44 -63 154 -188 214 -242 125 -112 254 -183 416 -230
135 -39 260 -47 385 -25 177 31 315 102 469 244 104 95 672 665 1516 1521 300
304 565 565 589 582 25 16 57 29 72 29 62 0 57 311 64 -3896 4 -2633 9 -3867
16 -3929 30 -251 195 -501 438 -663 98 -66 250 -126 370 -148 100 -18 290 -18
384 0 94 18 238 66 315 105 82 42 207 137 275 210 31 34 76 90 98 123 55 80
122 227 142 308 42 175 42 171 42 2320 0 1130 -2 2829 -5 3776 -5 1849 -8
1754 44 1754 11 0 34 -9 51 -20 27 -18 475 -456 1110 -1085 127 -126 270 -265
316 -308 46 -43 203 -197 349 -341 281 -279 418 -403 514 -468 76 -51 206
-103 309 -124 60 -12 114 -15 207 -12 110 4 138 9 235 41 133 44 263 109 341
170 73 56 189 176 236 242 132 187 210 447 195 645 -8 96 -39 217 -78 300 -39
83 -130 219 -193 290 -91 101 -838 862 -1090 1110 -136 135 -312 310 -390 390
-77 80 -584 589 -1126 1131 -542 542 -1070 1076 -1175 1185 -183 191 -361 368
-435 431 -61 53 -157 113 -217 138 -75 30 -197 55 -265 54 -29 0 -80 -7 -113
-14z"/>
    <path d="M31800 19319 c-443 -4 -6025 -7 -12405 -7 -8470 -1 -11624 -4 -11690
-12 -162 -20 -265 -47 -363 -97 -170 -86 -309 -216 -405 -378 -95 -159 -137
-282 -157 -459 -19 -173 1 -321 64 -467 52 -120 158 -272 259 -371 49 -49 93
-88 97 -88 4 0 25 -14 46 -31 65 -53 193 -108 297 -130 95 -19 214 -19 12719
-24 6943 -3 12686 -7 12763 -9 175 -6 384 9 495 34 55 12 124 39 198 75 85 44
131 74 189 129 42 39 103 107 135 150 71 95 149 253 177 356 12 41 26 124 32
184 22 220 -17 413 -123 605 -59 106 -132 199 -221 279 -82 75 -221 161 -310
192 -156 55 -420 81 -787 78 -113 -1 -567 -5 -1010 -9z"/>
    <path d="M17996 14059 c-167 -22 -282 -62 -442 -156 -50 -30 -123 -84 -161
-121 -108 -102 -209 -242 -280 -386 -58 -120 -200 -449 -294 -686 -49 -124
-103 -256 -119 -295 -16 -38 -50 -124 -75 -190 -85 -220 -136 -349 -174 -440
-21 -49 -53 -128 -71 -175 -51 -129 -128 -315 -171 -413 -21 -48 -39 -90 -39
-94 0 -6 -67 -157 -180 -403 -72 -156 -130 -289 -130 -296 0 -3 -32 -76 -71
-162 -39 -87 -91 -206 -116 -267 -25 -60 -79 -186 -120 -280 -41 -93 -99 -231
-128 -305 -29 -74 -64 -157 -78 -185 -14 -27 -48 -104 -77 -170 -28 -66 -86
-194 -127 -285 -132 -289 -150 -331 -229 -515 -42 -99 -100 -234 -129 -301
-58 -130 -146 -357 -164 -420 -7 -22 -16 -75 -21 -119 -18 -147 15 -303 91
-432 19 -32 75 -99 124 -149 77 -78 104 -98 185 -138 52 -25 131 -56 175 -68
62 -16 110 -21 215 -22 110 -1 150 3 220 22 129 34 241 93 314 165 91 89 184
239 290 467 32 69 76 161 96 205 46 98 93 199 132 285 71 155 181 372 208 409
17 22 49 51 72 63 l43 23 1380 0 1380 0 47 -23 c27 -13 56 -36 66 -50 32 -46
69 -122 137 -281 81 -190 71 -169 199 -443 161 -345 252 -495 378 -619 101
-101 261 -176 423 -199 164 -23 415 -6 550 37 129 41 232 116 318 232 53 72
112 202 128 279 17 88 6 221 -25 314 -25 76 -125 304 -256 588 -40 85 -91 198
-115 250 -23 52 -83 186 -134 298 -50 111 -91 205 -91 207 0 3 -15 37 -34 77
-18 40 -59 136 -91 213 -95 232 -177 420 -270 620 -20 44 -43 94 -50 110 -7
17 -38 84 -68 150 -30 66 -70 156 -90 200 -19 44 -50 114 -69 155 -19 41 -56
122 -83 180 -26 58 -58 130 -72 160 -76 164 -123 271 -123 276 0 4 -13 34 -30
68 -16 33 -77 174 -135 311 -58 138 -110 259 -115 270 -45 95 -187 443 -395
970 -69 176 -135 340 -145 365 -11 25 -46 113 -79 197 -143 363 -268 559 -441
694 -75 59 -190 125 -275 157 -100 39 -134 47 -262 67 -111 16 -218 18 -327 4z
m171 -2364 c25 -18 41 -51 155 -325 49 -118 95 -228 102 -245 28 -59 139 -322
178 -420 22 -55 49 -118 59 -141 10 -22 28 -65 39 -95 19 -49 122 -283 202
-463 41 -92 58 -150 58 -201 0 -59 -23 -83 -89 -95 -65 -12 -1396 -13 -1459
-1 -57 11 -92 45 -92 88 0 34 80 248 195 518 35 83 76 179 90 215 69 169 316
787 354 885 73 190 94 236 119 266 26 32 56 37 89 14z"/>
    <path d="M10295 14009 c-146 -11 -429 -60 -607 -104 -370 -92 -671 -214 -973
-392 -83 -49 -309 -199 -362 -240 -198 -152 -374 -318 -517 -483 -84 -98 -104
-123 -250 -324 -214 -294 -363 -574 -495 -929 -91 -245 -184 -682 -210 -992
-14 -153 -14 -437 -1 -585 21 -231 74 -529 135 -749 98 -354 254 -680 493
-1031 196 -288 379 -495 622 -706 159 -137 242 -200 395 -302 77 -51 149 -98
160 -106 41 -27 332 -176 385 -196 30 -11 73 -29 95 -39 75 -34 260 -100 365
-130 272 -78 525 -127 815 -158 346 -36 842 -14 1175 53 215 43 519 121 670
173 182 62 270 100 490 210 246 123 402 214 600 348 145 98 294 239 344 324
72 125 97 238 115 529 12 188 36 1435 36 1850 -1 249 -3 283 -22 357 -32 118
-69 186 -155 281 -99 111 -240 178 -425 203 -63 8 -368 12 -1057 11 -534 0
-1002 -3 -1040 -7 -93 -9 -175 -30 -252 -65 -69 -31 -153 -90 -200 -141 -72
-78 -147 -211 -180 -319 -21 -69 -29 -225 -15 -306 7 -38 28 -105 47 -149 78
-179 177 -286 341 -369 45 -23 111 -45 175 -59 98 -21 127 -22 610 -22 496 0
507 0 534 -21 15 -11 37 -33 48 -48 20 -27 21 -39 21 -389 0 -351 -1 -364 -23
-417 -12 -30 -32 -67 -44 -82 -24 -28 -113 -77 -233 -129 -120 -53 -325 -129
-445 -166 -298 -91 -368 -107 -550 -123 -156 -13 -417 1 -552 29 -142 30 -367
106 -503 170 -302 144 -534 321 -755 577 -148 171 -271 374 -346 573 -14 35
-31 76 -39 92 -20 38 -70 234 -95 372 -42 227 -43 540 -4 757 23 129 79 326
123 436 85 214 150 334 250 465 24 30 61 79 84 109 54 72 276 294 351 350 210
160 317 223 531 317 107 47 175 67 346 104 124 27 171 32 339 36 153 4 220 2
310 -11 294 -43 449 -84 700 -183 133 -52 247 -111 415 -213 140 -86 249 -138
360 -173 104 -32 183 -40 273 -27 160 23 367 132 486 255 131 136 205 253 258
405 30 87 33 105 32 215 0 108 -3 127 -28 188 -16 37 -46 96 -68 130 -55 84
-205 230 -308 298 -200 133 -423 254 -590 321 -41 16 -79 33 -85 37 -15 11
-250 93 -400 140 -71 23 -191 54 -265 70 -202 44 -497 89 -655 101 -162 12
-620 11 -780 -1z"/>
    <path d="M22190 13890 c-47 -4 -105 -13 -130 -20 -133 -36 -280 -134 -379
-251 -66 -79 -134 -208 -158 -299 -11 -45 -17 -109 -17 -205 -1 -120 2 -151
22 -215 32 -101 103 -220 182 -303 115 -123 219 -191 336 -220 138 -35 235
-39 888 -36 617 4 642 3 680 -15 28 -14 44 -32 58 -63 18 -41 19 -104 18
-2385 0 -1289 -3 -2372 -6 -2408 -3 -36 -1 -126 5 -201 12 -157 40 -260 98
-357 105 -176 309 -310 533 -349 60 -11 125 -14 225 -10 112 4 158 10 230 32
50 14 126 45 170 68 60 32 103 65 172 134 81 81 98 104 141 195 27 57 56 128
63 158 12 46 14 460 14 2570 0 2512 0 2515 20 2550 12 19 36 43 55 55 34 19
55 20 745 26 710 7 792 11 930 45 180 46 358 197 478 406 15 25 41 88 59 140
30 85 32 103 32 213 0 103 -4 131 -27 200 -63 190 -214 372 -377 455 -83 42
-175 72 -265 86 -75 12 -482 14 -2400 12 -1270 0 -2348 -4 -2395 -8z"/>
    <path d="M29380 13889 c-118 -4 -240 -12 -270 -19 -30 -7 -92 -30 -137 -51
-63 -30 -99 -56 -151 -108 -37 -38 -88 -102 -113 -143 -47 -76 -69 -133 -89
-228 -8 -40 -11 -883 -10 -3089 l0 -3035 21 -78 c46 -171 174 -320 344 -403
149 -72 -29 -67 2335 -66 2280 2 2262 2 2395 52 137 53 239 135 329 267 86
125 146 312 146 454 0 104 -22 200 -68 300 -104 222 -296 373 -533 419 -50 10
-418 13 -1654 13 -1580 1 -1590 1 -1625 21 -19 12 -43 36 -52 55 -16 32 -18
80 -18 562 0 338 4 545 11 577 14 65 58 107 126 117 26 4 624 5 1328 1 1366
-6 1373 -6 1515 43 85 28 172 86 248 163 73 74 122 145 169 245 81 173 83 357
7 548 -39 99 -107 198 -199 289 -116 115 -220 166 -409 202 -83 16 -200 17
-1381 18 -1197 0 -1292 1 -1321 17 -17 9 -40 34 -50 55 -18 35 -19 75 -25 543
-3 278 -2 538 2 578 7 78 22 109 73 146 l28 21 1451 -4 c1484 -4 1628 -1 1785
35 127 29 294 130 380 231 93 108 157 263 181 437 14 96 2 185 -39 299 -47
130 -163 278 -295 378 -86 65 -235 122 -351 134 -84 9 -3786 12 -4084 4z"/>
  </g>
</svg>