<svg xmlns="http://www.w3.org/2000/svg" viewBox="0 0 4096.000000 4096.000000">
  <g transform="translate(0.000000,4096.000000) scale(0.100000,-0.100000)" fill="#f4f5f7" stroke="none">
    <path d="M19975 40469 c-60 -4 -227 -13 -370 -18 -143 -6 -305 -17 -360 -25
-55 -8 -161 -17 -235 -21 -74 -3 -189 -15 -255 -25 -66 -11 -156 -22 -200 -26
-44 -3 -107 -12 -140 -19 -33 -8 -112 -19 -175 -25 -63 -6 -135 -17 -160 -25
-25 -7 -76 -16 -115 -20 -38 -3 -104 -14 -145 -24 -41 -11 -100 -22 -130 -25
-30 -4 -91 -15 -135 -26 -44 -10 -105 -23 -135 -28 -50 -9 -123 -25 -235 -52
-22 -6 -69 -17 -105 -25 -36 -9 -92 -24 -125 -35 -33 -10 -82 -21 -110 -25
-27 -4 -61 -13 -75 -20 -14 -7 -55 -19 -90 -25 -35 -6 -76 -18 -90 -25 -14 -7
-48 -16 -75 -20 -28 -4 -62 -14 -76 -21 -14 -7 -52 -20 -85 -28 -60 -15 -123
-34 -204 -62 -25 -9 -72 -22 -105 -31 -33 -8 -65 -19 -71 -23 -5 -5 -37 -16
-70 -24 -81 -21 -181 -54 -230 -77 -23 -10 -50 -19 -60 -19 -11 0 -35 -8 -54
-19 -19 -10 -51 -22 -70 -26 -19 -4 -49 -16 -66 -26 -17 -10 -38 -19 -47 -19
-18 0 -159 -54 -199 -75 -14 -8 -33 -15 -40 -15 -8 0 -37 -11 -64 -25 -27 -14
-53 -25 -59 -25 -5 0 -32 -11 -60 -25 -27 -13 -54 -25 -59 -25 -5 0 -34 -12
-65 -26 -87 -41 -130 -60 -211 -95 -41 -17 -91 -40 -110 -50 -19 -11 -40 -19
-47 -19 -12 0 -75 -30 -143 -67 -14 -8 -33 -17 -42 -20 -9 -3 -115 -55 -235
-115 -120 -61 -231 -117 -248 -125 -16 -8 -37 -18 -45 -23 -8 -5 -51 -28 -95
-50 -44 -23 -85 -46 -91 -51 -6 -5 -37 -23 -70 -40 -32 -17 -75 -41 -94 -53
-46 -28 -60 -37 -155 -91 -44 -25 -100 -59 -125 -75 -25 -17 -59 -37 -77 -45
-17 -8 -34 -19 -38 -25 -4 -6 -21 -17 -38 -26 -50 -24 -97 -51 -115 -66 -9 -8
-28 -20 -42 -26 -14 -7 -44 -25 -66 -40 -23 -15 -82 -53 -130 -86 -49 -32 -98
-64 -109 -72 -11 -8 -36 -25 -55 -38 -19 -14 -64 -45 -100 -71 -36 -25 -81
-57 -100 -70 -19 -14 -49 -35 -66 -47 -18 -13 -58 -41 -90 -62 -33 -22 -63
-45 -69 -51 -5 -6 -34 -28 -64 -48 -29 -20 -74 -54 -100 -75 -25 -21 -57 -45
-71 -55 -14 -9 -65 -48 -115 -87 -49 -38 -130 -101 -180 -139 -87 -68 -340
-275 -400 -330 -17 -15 -109 -98 -205 -185 -96 -87 -211 -190 -255 -230 -107
-95 -379 -367 -605 -605 -102 -107 -192 -202 -200 -211 -183 -200 -554 -632
-635 -738 -11 -14 -60 -77 -110 -139 -96 -120 -144 -183 -231 -303 -30 -41
-62 -84 -72 -95 -9 -11 -24 -30 -32 -42 -38 -55 -104 -148 -112 -157 -9 -11
-105 -150 -123 -178 -5 -8 -32 -48 -60 -88 -45 -65 -104 -153 -159 -236 -11
-16 -29 -45 -41 -64 -12 -19 -39 -62 -61 -95 -21 -33 -46 -72 -54 -87 -8 -15
-31 -54 -50 -85 -43 -72 -58 -99 -81 -141 -9 -18 -23 -39 -29 -47 -6 -8 -19
-29 -29 -47 -33 -62 -148 -269 -171 -308 -5 -8 -43 -78 -85 -155 -42 -77 -81
-147 -86 -155 -5 -8 -16 -31 -24 -50 -9 -19 -20 -42 -25 -50 -5 -8 -18 -33
-29 -55 -11 -22 -25 -47 -30 -55 -5 -8 -30 -60 -56 -115 -26 -55 -60 -127 -75
-160 -30 -62 -65 -140 -107 -235 -14 -30 -33 -73 -43 -95 -10 -22 -27 -62 -38
-90 -12 -27 -35 -84 -52 -125 -17 -41 -40 -96 -50 -122 -11 -27 -29 -69 -40
-95 -10 -27 -33 -80 -50 -120 -16 -39 -30 -77 -30 -83 0 -7 -9 -27 -19 -44
-10 -17 -22 -47 -26 -66 -4 -19 -11 -40 -16 -46 -9 -11 -21 -42 -68 -179 -12
-33 -28 -71 -35 -85 -7 -14 -17 -43 -20 -65 -4 -22 -14 -50 -22 -62 -7 -12
-18 -43 -24 -70 -6 -26 -19 -70 -29 -98 -29 -79 -51 -146 -66 -200 -7 -27 -21
-72 -30 -100 -8 -27 -26 -86 -39 -130 -14 -44 -36 -117 -50 -162 -14 -45 -26
-90 -26 -100 0 -9 -9 -44 -19 -77 -21 -65 -40 -139 -71 -276 -11 -47 -26 -110
-35 -140 -8 -30 -15 -64 -15 -76 0 -11 -8 -45 -19 -75 -10 -30 -21 -81 -26
-114 -4 -33 -13 -78 -20 -100 -8 -22 -21 -83 -29 -135 -9 -52 -22 -120 -31
-150 -8 -30 -15 -67 -15 -83 0 -16 -9 -63 -19 -105 -11 -43 -22 -106 -26 -142
-4 -36 -15 -101 -25 -145 -10 -44 -21 -111 -25 -150 -4 -38 -13 -99 -20 -136
-8 -36 -19 -123 -25 -195 -6 -71 -17 -167 -25 -214 -7 -47 -19 -170 -25 -275
-6 -104 -16 -221 -21 -260 -5 -38 -14 -185 -20 -325 -15 -341 -5 -1391 16
-1615 8 -88 19 -227 25 -310 6 -82 17 -195 25 -250 8 -55 19 -157 25 -227 5
-70 16 -160 24 -200 8 -40 18 -107 21 -148 4 -41 15 -120 25 -175 10 -55 22
-134 25 -175 4 -41 15 -106 25 -145 10 -38 21 -104 25 -145 3 -41 13 -94 20
-117 8 -23 19 -79 25 -125 5 -46 16 -104 24 -129 8 -26 17 -73 21 -105 4 -33
15 -88 25 -124 11 -36 23 -90 28 -120 5 -30 17 -84 26 -120 17 -72 37 -153 66
-275 10 -44 23 -98 28 -120 6 -22 18 -69 27 -105 9 -36 23 -92 30 -125 8 -33
23 -87 35 -119 11 -33 20 -68 20 -79 0 -11 11 -56 26 -101 40 -130 63 -209 70
-241 3 -16 14 -51 25 -77 10 -26 19 -56 19 -68 0 -12 9 -41 20 -64 11 -24 22
-63 26 -87 4 -24 15 -60 26 -79 10 -19 18 -46 18 -60 0 -14 12 -52 25 -85 14
-33 25 -64 25 -70 0 -12 44 -158 70 -230 25 -70 48 -140 70 -210 11 -33 27
-82 36 -110 25 -75 60 -176 74 -215 7 -19 21 -60 31 -90 11 -30 24 -64 29 -75
6 -11 16 -40 24 -65 8 -25 27 -76 41 -115 15 -38 34 -90 42 -115 8 -25 22 -61
32 -80 10 -19 22 -49 25 -67 4 -17 16 -48 27 -69 10 -21 19 -45 19 -52 0 -8 8
-31 19 -51 25 -49 61 -138 72 -181 6 -19 19 -51 29 -71 11 -20 20 -43 20 -50
0 -8 12 -36 25 -64 14 -27 25 -57 25 -66 0 -9 9 -27 19 -41 11 -13 23 -38 27
-54 4 -16 15 -45 26 -64 10 -19 18 -42 18 -50 0 -8 9 -29 19 -47 11 -17 24
-46 29 -65 6 -18 27 -71 47 -118 20 -47 43 -102 50 -123 8 -21 21 -48 30 -60
8 -12 15 -28 15 -36 0 -8 11 -37 24 -65 13 -28 36 -78 51 -111 15 -33 35 -78
45 -100 10 -22 29 -62 40 -90 61 -139 146 -321 367 -785 51 -106 59 -122 73
-147 5 -10 36 -74 70 -143 33 -69 65 -132 70 -140 5 -8 17 -31 25 -50 9 -19
21 -45 28 -58 7 -13 28 -56 48 -95 77 -152 169 -327 270 -515 24 -45 65 -122
91 -170 26 -48 68 -127 93 -177 25 -49 54 -103 63 -120 9 -16 59 -106 110
-200 51 -93 98 -177 103 -185 5 -8 19 -33 30 -55 11 -22 34 -62 50 -90 16 -27
36 -63 45 -80 9 -16 29 -52 45 -80 15 -27 40 -70 54 -95 14 -25 34 -58 44 -75
34 -56 124 -210 139 -239 8 -16 32 -54 52 -85 20 -31 43 -68 51 -82 8 -15 26
-48 42 -75 15 -27 44 -79 65 -115 20 -37 42 -73 48 -80 7 -8 19 -30 28 -49 9
-19 28 -54 44 -77 15 -23 45 -71 66 -105 33 -54 80 -128 133 -213 7 -11 20
-33 29 -50 14 -27 77 -126 124 -195 9 -14 33 -54 54 -90 36 -62 54 -92 120
-191 60 -91 200 -311 324 -506 50 -80 61 -97 296 -449 99 -148 190 -286 203
-306 36 -59 73 -114 135 -202 32 -44 65 -94 74 -111 9 -16 31 -48 48 -69 17
-22 40 -54 51 -72 23 -37 94 -140 160 -234 25 -36 67 -96 93 -134 26 -38 57
-83 70 -100 12 -17 33 -47 47 -66 14 -19 48 -66 76 -105 27 -38 70 -99 95
-135 24 -36 69 -99 99 -140 30 -41 59 -85 64 -97 6 -11 14 -24 20 -27 6 -4 27
-33 48 -64 20 -31 55 -80 78 -109 22 -28 50 -67 63 -85 13 -18 56 -77 95 -130
81 -109 170 -231 195 -266 10 -13 28 -39 42 -58 14 -18 35 -48 48 -66 98 -139
144 -204 199 -273 138 -177 289 -376 367 -485 30 -41 84 -113 121 -160 88
-113 205 -266 230 -301 22 -30 77 -102 170 -221 33 -42 74 -96 90 -119 17 -23
60 -80 98 -128 166 -212 228 -290 312 -396 50 -62 110 -139 135 -171 25 -33
119 -149 210 -260 91 -110 176 -215 190 -234 48 -63 152 -195 200 -255 208
-253 450 -545 472 -568 15 -16 46 -54 70 -85 64 -85 263 -327 338 -412 65 -74
214 -253 404 -485 54 -66 106 -127 115 -135 16 -14 161 -185 370 -433 51 -62
112 -133 135 -158 22 -25 80 -90 127 -145 48 -54 151 -173 230 -264 79 -91
171 -197 204 -235 65 -77 96 -112 171 -195 64 -71 317 -359 369 -420 86 -101
193 -221 310 -345 125 -134 564 -618 670 -741 33 -38 130 -143 216 -234 86
-91 176 -187 200 -214 24 -28 85 -95 134 -150 50 -56 108 -121 129 -146 22
-25 97 -104 167 -176 70 -73 131 -139 136 -148 5 -8 23 -18 40 -22 30 -6 38 0
161 127 109 114 237 253 480 524 24 28 77 84 116 125 116 123 280 302 317 345
36 44 211 237 244 271 11 11 38 40 60 65 55 62 255 280 280 305 38 39 101 109
180 199 170 195 202 231 254 289 30 34 61 68 70 77 52 51 204 223 302 339 62
74 118 140 125 145 6 6 18 20 25 32 8 12 40 50 71 85 31 35 74 84 95 109 21
26 85 100 143 165 58 66 164 189 235 274 71 85 132 157 136 160 3 3 49 55 100
116 52 61 159 187 240 280 317 368 1236 1477 1429 1724 52 67 104 132 115 145
11 12 32 38 47 56 189 235 321 399 403 504 55 70 173 217 262 328 237 295 259
323 447 571 145 191 228 299 255 332 29 34 54 67 91 119 14 20 54 73 90 119
36 46 90 118 120 161 30 42 75 103 100 135 25 33 56 75 70 95 14 20 48 65 75
100 28 35 82 107 120 160 39 52 102 139 142 193 39 53 82 112 95 130 13 18 41
57 64 85 22 29 56 75 74 102 19 28 51 70 70 95 20 25 44 56 53 70 21 30 47 68
132 185 35 50 86 122 112 160 26 39 115 165 198 280 83 116 159 223 170 239
11 16 29 41 40 56 11 15 65 94 120 175 55 81 119 175 143 209 100 144 277 405
307 452 17 27 62 93 129 189 8 11 39 58 70 105 31 47 63 96 73 110 9 14 36 55
60 93 105 164 131 204 149 231 10 16 23 36 29 45 5 9 20 30 32 48 13 17 23 36
23 41 0 5 9 17 20 27 11 10 22 27 26 39 4 11 15 32 24 46 78 114 287 439 299
465 14 30 109 186 125 204 7 9 30 45 50 81 21 36 50 85 66 110 16 25 47 77 70
115 23 39 54 90 70 115 16 25 47 77 70 115 23 39 57 95 75 125 19 30 39 64 44
75 6 11 26 45 46 75 19 30 40 66 46 80 5 14 17 32 25 41 8 9 23 32 33 50 17
32 91 159 138 237 12 20 29 51 38 67 8 17 29 53 45 80 17 28 38 66 47 85 9 19
23 42 29 50 7 8 31 51 54 95 43 82 75 140 116 210 13 22 33 58 44 80 12 22 34
63 49 90 16 28 48 86 71 130 23 44 52 98 66 120 26 44 49 87 118 220 26 50 61
115 78 145 28 51 382 747 415 815 8 17 18 38 24 48 21 39 30 58 104 212 42 88
81 167 86 175 5 8 12 22 15 30 10 25 54 120 99 215 76 161 103 219 174 380 10
22 27 60 39 85 11 25 35 79 52 120 49 112 65 149 94 211 14 31 26 63 26 71 0
8 9 27 20 41 11 14 20 30 20 37 0 14 53 140 81 191 10 20 19 43 19 50 0 8 11
35 25 61 14 26 25 52 25 59 0 6 9 30 19 53 40 85 71 159 71 170 0 6 7 25 16
41 9 17 24 53 34 80 10 28 29 79 43 115 14 36 37 97 51 135 15 39 36 93 46
120 10 28 30 79 44 115 31 83 67 176 101 265 15 39 34 95 42 124 8 30 21 64
28 75 7 12 16 37 20 56 4 19 15 53 25 75 10 23 21 54 25 70 3 17 14 50 24 75
25 62 50 136 66 191 7 26 20 60 29 77 9 17 16 39 16 49 1 10 8 36 16 58 9 22
24 67 34 100 11 33 26 83 35 110 19 60 55 175 83 270 12 39 28 93 37 120 9 28
21 70 27 95 12 54 51 190 79 280 12 35 25 84 29 110 5 25 15 65 23 90 17 51
43 150 59 225 5 28 17 70 25 95 8 25 21 77 28 115 7 39 20 99 29 135 28 117
48 204 58 255 5 28 16 77 24 110 8 33 21 101 29 150 8 50 19 100 25 113 6 13
15 56 20 95 6 40 19 108 30 152 10 44 21 110 25 147 3 37 12 85 20 108 8 23
17 71 21 108 3 37 14 105 24 152 10 47 21 117 25 155 3 39 13 103 21 144 8 41
22 140 30 220 8 80 19 168 24 195 5 26 15 121 20 210 6 88 17 197 25 241 20
116 40 729 39 1180 -1 464 -18 893 -45 1137 -10 97 -19 208 -20 245 0 37 -4
93 -9 123 -5 30 -16 116 -25 190 -9 74 -25 186 -36 248 -11 63 -24 155 -28
205 -5 51 -14 104 -19 118 -6 14 -15 67 -21 118 -6 50 -20 129 -31 174 -11 45
-20 92 -20 105 0 13 -11 71 -24 130 -13 59 -29 130 -35 157 -21 104 -34 162
-48 215 -8 30 -23 93 -33 140 -26 115 -47 202 -70 280 -10 36 -26 94 -35 130
-25 102 -52 201 -70 255 -9 28 -27 88 -41 135 -55 186 -68 228 -90 295 -13 39
-24 78 -24 88 0 10 -8 34 -19 55 -10 20 -24 61 -30 91 -6 30 -16 60 -22 67 -5
6 -16 34 -23 60 -8 27 -29 87 -46 134 -17 47 -38 105 -46 130 -7 25 -18 54
-24 65 -5 11 -19 46 -30 78 -42 120 -58 163 -74 192 -9 17 -16 36 -16 43 0 7
-11 34 -25 60 -14 26 -25 52 -25 58 0 12 -30 78 -71 156 -10 20 -19 42 -19 49
0 7 -11 35 -24 63 -23 48 -55 120 -95 211 -64 144 -106 233 -246 515 -128 257
-201 398 -248 480 -15 25 -36 63 -47 85 -11 22 -34 63 -51 90 -16 28 -36 64
-45 80 -8 17 -28 50 -44 75 -17 25 -36 59 -44 76 -8 17 -22 36 -30 44 -9 7
-16 18 -16 24 0 7 -22 47 -50 89 -27 42 -50 80 -50 84 0 4 -12 25 -27 47 -14
23 -36 57 -48 76 -12 19 -54 83 -93 143 -40 59 -72 111 -72 116 0 5 -6 16 -13
23 -7 7 -44 60 -82 117 -39 57 -79 115 -90 131 -11 15 -29 40 -40 56 -11 16
-41 58 -68 94 -26 36 -51 70 -55 75 -26 36 -81 111 -102 139 -14 19 -34 46
-45 62 -123 170 -416 535 -585 729 -43 50 -127 146 -187 215 -136 157 -201
227 -383 414 -401 411 -598 602 -820 792 -25 22 -64 56 -85 75 -137 125 -296
266 -335 298 -104 85 -274 220 -335 266 -85 64 -102 78 -151 117 -22 18 -68
53 -103 78 -34 25 -89 65 -121 90 -33 25 -75 56 -95 70 -20 14 -57 41 -83 61
-26 20 -61 45 -78 55 -30 18 -76 50 -140 96 -55 40 -176 122 -209 143 -18 11
-72 46 -119 78 -47 31 -90 57 -95 57 -4 0 -21 10 -36 22 -30 24 -70 47 -122
72 -17 9 -34 20 -38 26 -4 6 -21 17 -38 25 -18 9 -55 30 -84 48 -75 47 -177
108 -227 137 -24 14 -70 41 -103 59 -68 41 -162 92 -288 156 -49 25 -124 64
-165 86 -41 21 -80 39 -86 39 -6 0 -19 9 -29 20 -10 11 -22 20 -28 20 -5 0
-73 32 -151 70 -78 39 -147 70 -152 70 -5 0 -36 14 -69 30 -33 17 -65 30 -71
30 -6 0 -17 6 -23 14 -7 8 -26 18 -43 21 -16 4 -53 18 -82 32 -47 24 -77 37
-181 84 -22 9 -65 29 -95 43 -52 23 -78 34 -182 71 -24 9 -61 24 -83 34 -40
19 -59 26 -165 62 -30 11 -66 26 -80 33 -14 8 -41 17 -60 21 -19 4 -46 13 -60
21 -27 14 -107 44 -205 74 -87 27 -156 49 -190 62 -16 6 -59 18 -95 28 -36 10
-83 25 -105 33 -118 43 -199 68 -340 104 -33 8 -80 23 -105 33 -25 10 -69 21
-99 24 -30 4 -66 13 -80 20 -14 8 -46 17 -71 20 -25 4 -74 16 -110 26 -36 10
-94 26 -130 34 -36 9 -83 20 -105 26 -130 32 -179 42 -255 56 -47 8 -105 21
-130 28 -25 8 -83 20 -129 26 -46 6 -94 16 -108 21 -13 5 -72 15 -131 24 -59
8 -143 21 -187 29 -142 26 -418 65 -500 70 -44 4 -96 11 -115 16 -19 6 -123
17 -230 25 -107 9 -229 20 -270 25 -41 6 -190 15 -330 20 -140 6 -327 15 -415
20 -185 11 -798 11 -960 -1z m1090 -1990 c55 -5 212 -16 348 -24 137 -8 292
-21 345 -29 53 -8 140 -18 192 -21 52 -3 140 -14 195 -25 55 -10 136 -21 180
-25 44 -3 105 -12 135 -20 31 -8 101 -19 155 -25 55 -6 123 -17 150 -25 28 -8
86 -19 130 -24 44 -6 98 -17 120 -25 22 -8 56 -15 75 -16 19 0 62 -7 95 -16
33 -8 103 -24 156 -34 53 -10 106 -23 116 -29 11 -5 51 -15 88 -21 37 -6 80
-17 96 -25 15 -8 37 -15 49 -15 11 0 46 -9 78 -20 31 -12 77 -25 102 -30 54
-12 167 -46 235 -71 28 -10 72 -23 99 -29 27 -6 57 -15 68 -21 11 -6 45 -17
76 -25 31 -8 61 -19 67 -24 6 -5 29 -13 50 -19 49 -12 208 -67 232 -80 10 -5
38 -16 63 -24 67 -22 128 -46 176 -68 24 -10 50 -19 60 -19 9 0 31 -8 48 -19
17 -10 49 -24 71 -31 22 -7 45 -16 50 -20 6 -4 21 -11 35 -15 32 -9 130 -50
196 -81 28 -13 54 -24 58 -24 7 0 73 -29 161 -70 70 -33 648 -321 700 -350 28
-15 70 -38 95 -53 25 -14 63 -35 85 -46 22 -12 58 -32 80 -46 22 -13 54 -31
70 -40 17 -8 53 -29 80 -45 28 -16 70 -41 95 -55 25 -14 59 -34 75 -45 17 -11
47 -28 67 -40 20 -11 56 -32 80 -48 24 -16 70 -46 103 -67 75 -48 368 -243
405 -270 15 -11 40 -29 56 -40 16 -11 52 -38 81 -60 29 -22 84 -62 123 -90
165 -115 588 -451 755 -598 234 -208 501 -456 640 -593 179 -179 426 -438 532
-559 39 -44 83 -93 99 -110 15 -16 75 -86 134 -155 58 -69 114 -134 125 -145
11 -11 51 -61 90 -110 38 -50 90 -116 115 -147 25 -31 56 -73 70 -93 14 -20
48 -65 75 -100 50 -65 149 -201 206 -285 17 -25 57 -83 90 -130 114 -164 309
-459 309 -468 0 -5 6 -15 14 -21 8 -7 24 -31 36 -54 11 -23 43 -78 70 -122 27
-44 70 -118 97 -164 26 -46 58 -101 71 -122 53 -93 73 -129 113 -209 24 -47
46 -87 49 -90 3 -3 75 -144 159 -315 84 -170 161 -327 172 -347 10 -20 19 -42
19 -49 0 -7 12 -37 26 -68 14 -31 34 -74 44 -96 9 -22 29 -64 44 -93 14 -30
26 -60 26 -66 0 -7 11 -34 25 -60 14 -26 25 -52 25 -59 0 -7 7 -25 16 -42 9
-16 25 -55 36 -85 11 -30 28 -77 38 -105 42 -109 82 -222 97 -270 9 -27 21
-59 28 -70 7 -11 16 -38 20 -60 4 -21 15 -55 24 -75 10 -19 22 -53 26 -75 3
-21 13 -52 21 -67 8 -15 19 -50 25 -79 6 -29 20 -70 30 -93 10 -23 19 -52 19
-66 0 -14 8 -41 18 -60 11 -19 22 -55 26 -80 4 -25 15 -67 25 -95 20 -53 46
-148 63 -230 5 -27 18 -77 29 -110 10 -33 21 -80 24 -105 4 -25 15 -72 25
-105 10 -33 21 -82 25 -109 4 -26 15 -74 24 -105 10 -31 22 -87 26 -124 4 -38
13 -83 20 -101 7 -17 18 -72 23 -121 6 -50 15 -102 21 -117 6 -15 17 -84 26
-152 8 -69 20 -137 25 -152 6 -14 15 -72 20 -128 6 -55 17 -131 25 -167 8 -36
19 -131 25 -210 6 -79 17 -184 25 -234 8 -49 17 -144 20 -210 3 -66 14 -194
23 -285 14 -132 17 -265 17 -670 -1 -319 -5 -540 -13 -600 -6 -52 -16 -183
-22 -290 -6 -107 -18 -235 -26 -284 -8 -48 -19 -152 -24 -230 -5 -77 -16 -172
-25 -211 -8 -38 -17 -108 -20 -155 -4 -47 -15 -128 -25 -180 -10 -52 -22 -126
-25 -165 -4 -38 -15 -106 -26 -150 -10 -44 -19 -96 -19 -115 0 -19 -7 -64 -15
-100 -9 -36 -22 -108 -30 -160 -9 -52 -22 -117 -30 -145 -7 -27 -17 -77 -21
-110 -4 -33 -13 -77 -20 -99 -8 -21 -19 -68 -24 -105 -6 -36 -19 -100 -29
-141 -11 -41 -24 -97 -30 -125 -12 -60 -36 -156 -61 -245 -27 -93 -49 -174
-71 -260 -10 -41 -31 -118 -45 -170 -14 -52 -37 -135 -51 -185 -14 -49 -32
-117 -40 -150 -8 -33 -23 -82 -33 -110 -10 -27 -30 -90 -45 -140 -15 -49 -35
-112 -46 -140 -10 -27 -22 -66 -25 -85 -4 -19 -13 -46 -20 -60 -7 -14 -19 -50
-28 -80 -8 -30 -29 -93 -46 -140 -17 -47 -37 -110 -45 -141 -8 -30 -20 -69
-28 -85 -18 -36 -44 -111 -64 -183 -8 -30 -21 -64 -28 -75 -8 -12 -18 -39 -23
-61 -6 -22 -20 -65 -32 -95 -13 -30 -31 -77 -42 -105 -11 -27 -31 -74 -44
-103 -13 -29 -24 -58 -24 -65 0 -6 -11 -34 -25 -62 -13 -27 -25 -59 -25 -70 0
-11 -9 -33 -20 -50 -11 -16 -20 -39 -20 -50 0 -11 -11 -41 -25 -67 -14 -26
-25 -53 -25 -60 0 -7 -12 -35 -25 -63 -14 -27 -25 -57 -25 -65 0 -8 -9 -30
-20 -48 -11 -18 -20 -38 -20 -46 0 -7 -11 -34 -25 -60 -14 -26 -25 -52 -25
-58 0 -6 -9 -29 -19 -52 -11 -23 -31 -66 -45 -97 -14 -31 -26 -60 -26 -65 0
-5 -11 -31 -24 -59 -13 -27 -36 -79 -51 -115 -15 -36 -38 -88 -51 -116 -13
-28 -24 -56 -24 -63 0 -7 -9 -29 -20 -49 -17 -32 -67 -139 -84 -182 -3 -8 -10
-22 -15 -30 -14 -22 -71 -148 -71 -155 0 -4 -8 -19 -19 -33 -10 -15 -21 -40
-25 -56 -4 -16 -16 -41 -27 -54 -10 -14 -19 -32 -19 -42 0 -10 -9 -28 -19 -42
-11 -13 -24 -42 -30 -65 -6 -22 -18 -46 -26 -53 -8 -7 -15 -17 -15 -22 0 -6
-32 -76 -71 -157 -39 -80 -116 -238 -170 -351 -55 -113 -107 -218 -115 -235
-32 -59 -148 -282 -191 -365 -24 -47 -48 -92 -53 -100 -6 -8 -15 -26 -21 -40
-6 -14 -23 -47 -39 -75 -16 -27 -35 -61 -42 -75 -12 -24 -183 -339 -212 -390
-8 -14 -24 -43 -35 -65 -12 -22 -43 -80 -71 -130 -27 -49 -59 -108 -69 -130
-11 -22 -43 -78 -70 -125 -28 -47 -58 -98 -66 -115 -9 -16 -31 -55 -50 -85
-18 -30 -54 -91 -80 -135 -25 -44 -50 -87 -55 -95 -41 -63 -93 -150 -106 -175
-8 -16 -28 -50 -44 -75 -17 -25 -37 -58 -45 -75 -9 -16 -29 -50 -44 -75 -29
-45 -157 -264 -193 -330 -10 -19 -32 -55 -48 -80 -17 -25 -36 -59 -44 -76 -8
-17 -22 -36 -30 -44 -9 -7 -16 -18 -16 -25 0 -8 -11 -27 -25 -43 -14 -17 -25
-33 -25 -38 0 -4 -21 -39 -47 -78 -25 -39 -57 -88 -70 -108 -12 -21 -34 -55
-46 -75 -13 -21 -44 -69 -69 -108 -25 -38 -67 -105 -94 -148 -27 -43 -71 -113
-98 -155 -27 -42 -59 -93 -71 -112 -27 -44 -105 -165 -131 -204 -20 -31 -21
-32 -74 -114 -62 -97 -284 -428 -355 -531 -27 -39 -61 -89 -75 -111 -14 -22
-50 -77 -81 -122 -31 -46 -72 -108 -92 -138 -20 -30 -66 -98 -102 -150 -37
-52 -78 -113 -93 -135 -15 -22 -33 -47 -40 -55 -19 -24 -87 -119 -136 -190
-24 -36 -59 -86 -78 -110 -19 -25 -37 -52 -41 -60 -4 -8 -21 -33 -38 -55 -16
-22 -40 -56 -54 -75 -13 -19 -44 -64 -70 -100 -25 -36 -57 -81 -70 -100 -38
-53 -63 -88 -145 -200 -75 -101 -98 -133 -145 -200 -13 -19 -59 -81 -102 -137
-43 -57 -106 -140 -140 -185 -34 -46 -88 -118 -120 -160 -32 -43 -77 -104
-100 -135 -106 -147 -238 -326 -288 -390 -22 -28 -56 -73 -75 -100 -19 -26
-39 -53 -45 -59 -5 -7 -32 -42 -60 -78 -27 -37 -68 -90 -91 -119 -22 -29 -58
-77 -80 -108 -21 -30 -66 -91 -99 -134 -33 -44 -67 -89 -75 -102 -26 -38 -132
-175 -205 -265 -65 -81 -108 -136 -284 -363 -143 -185 -335 -427 -496 -625
-25 -30 -128 -158 -231 -285 -102 -126 -208 -257 -235 -290 -27 -33 -99 -122
-161 -198 -62 -76 -133 -162 -158 -191 -50 -58 -360 -430 -602 -722 -86 -104
-169 -203 -185 -220 -85 -94 -164 -185 -211 -243 -29 -36 -61 -75 -70 -86 -10
-11 -76 -90 -147 -175 -70 -85 -133 -159 -139 -165 -6 -5 -38 -41 -71 -79 -33
-38 -71 -81 -84 -95 -13 -14 -44 -51 -70 -81 -25 -30 -55 -64 -66 -76 -20 -20
-46 -50 -297 -343 -136 -159 -209 -242 -342 -388 -49 -54 -134 -151 -188 -216
-55 -65 -109 -128 -121 -140 -12 -13 -40 -43 -62 -67 -220 -249 -300 -335
-310 -338 -7 -2 -30 16 -52 39 -51 57 -154 170 -173 190 -41 43 -98 108 -177
201 -48 57 -92 108 -98 113 -7 6 -58 66 -116 135 -57 69 -121 145 -144 169
-22 24 -51 56 -65 71 -61 65 -103 113 -209 235 -62 72 -137 157 -166 190 -29
33 -90 105 -136 160 -76 91 -268 306 -295 330 -6 6 -100 118 -209 250 -109
132 -205 247 -214 256 -9 9 -25 27 -36 40 -11 13 -66 80 -124 149 -57 69 -109
130 -116 135 -7 6 -58 67 -114 135 -56 69 -113 137 -125 152 -108 126 -917
1108 -955 1158 -14 19 -64 82 -111 140 -48 58 -111 137 -140 175 -29 39 -60
77 -69 86 -9 9 -27 31 -41 49 -14 18 -79 100 -145 181 -145 180 -227 285 -280
358 -21 31 -68 92 -103 136 -35 44 -76 95 -90 114 -28 36 -83 102 -92 111 -3
3 -21 27 -40 53 -19 27 -50 65 -68 85 -19 20 -44 53 -58 72 -55 80 -146 203
-259 350 -77 101 -184 243 -205 274 -8 11 -44 58 -80 103 -36 45 -76 98 -90
118 -14 20 -45 63 -70 95 -25 32 -56 75 -70 95 -14 19 -45 62 -70 94 -25 33
-56 76 -70 95 -14 20 -45 63 -70 95 -60 78 -253 344 -312 429 -44 63 -69 98
-128 177 -33 44 -77 105 -97 135 -21 30 -54 75 -74 100 -39 48 -65 85 -215
305 -150 220 -182 266 -217 309 -18 23 -42 54 -52 70 -11 16 -30 43 -43 60
-27 38 -72 101 -92 131 -13 20 -38 56 -103 155 -9 14 -36 53 -59 86 -41 58
-73 106 -153 227 -19 28 -48 71 -65 94 -16 24 -36 55 -45 70 -9 16 -27 44 -41
63 -13 19 -29 42 -34 50 -6 8 -29 44 -53 79 -23 35 -46 71 -52 80 -5 9 -52 81
-104 161 -51 80 -104 161 -116 180 -12 19 -48 74 -81 122 -32 48 -66 101 -76
118 -9 17 -23 39 -32 49 -9 10 -16 23 -16 29 0 6 -10 23 -23 39 -12 15 -28 39
-35 53 -7 14 -37 63 -67 110 -30 47 -64 101 -75 120 -29 50 -42 71 -67 107
-13 17 -23 36 -23 41 0 5 -7 15 -15 22 -8 7 -33 45 -55 85 -22 40 -47 78 -55
85 -8 7 -15 16 -15 21 0 5 -17 34 -37 65 -42 62 -70 107 -108 174 -14 25 -34
59 -45 75 -11 17 -29 48 -41 70 -12 22 -27 46 -33 54 -15 18 -81 135 -106 188
-11 23 -25 45 -30 48 -6 4 -17 21 -25 38 -8 18 -31 57 -50 87 -19 30 -42 69
-50 85 -33 65 -49 93 -92 165 -24 41 -49 82 -54 90 -5 8 -18 34 -29 56 -11 23
-27 47 -35 54 -8 7 -15 17 -15 22 0 6 -20 42 -44 82 -25 39 -50 82 -56 96 -6
14 -24 48 -40 75 -16 28 -41 70 -55 95 -14 25 -29 52 -35 60 -5 8 -16 29 -24
45 -42 84 -60 117 -106 200 -28 50 -60 108 -70 130 -11 22 -45 85 -74 140 -30
55 -82 154 -117 220 -34 66 -85 164 -113 218 -68 130 -291 577 -351 702 -26
55 -70 147 -97 205 -27 58 -61 130 -76 160 -14 30 -29 62 -34 70 -4 8 -13 26
-19 40 -6 14 -25 54 -41 90 -17 36 -36 79 -43 95 -8 17 -25 55 -39 86 -14 31
-26 60 -26 65 0 5 -14 36 -30 69 -17 33 -30 65 -30 71 0 6 -6 17 -14 23 -8 7
-17 24 -20 39 -6 25 -31 82 -77 174 -11 20 -19 42 -19 49 0 11 -9 31 -74 170
-14 31 -26 62 -26 70 0 8 -6 24 -14 35 -8 11 -24 45 -36 75 -12 30 -30 74 -40
99 -10 25 -28 70 -40 100 -12 30 -30 73 -41 96 -10 22 -19 46 -19 53 0 7 -8
30 -18 50 -11 20 -26 56 -34 81 -34 99 -41 117 -59 155 -10 22 -23 58 -29 80
-6 22 -17 49 -25 59 -8 11 -15 27 -15 35 0 9 -11 39 -25 66 -13 28 -25 57 -25
65 0 8 -12 38 -25 65 -14 28 -25 57 -25 67 0 9 -11 40 -25 70 -14 29 -25 62
-25 73 0 11 -6 30 -14 41 -8 11 -19 40 -25 64 -7 25 -20 65 -30 90 -27 67 -51
139 -65 195 -7 28 -20 64 -29 81 -8 16 -19 48 -22 69 -4 22 -16 57 -26 77 -11
21 -19 45 -19 55 0 10 -11 50 -24 88 -13 39 -36 111 -50 160 -15 50 -34 110
-42 135 -8 25 -21 72 -29 105 -7 33 -21 77 -29 97 -9 21 -16 50 -16 65 0 15
-9 47 -20 70 -10 24 -23 67 -29 95 -5 29 -16 72 -25 95 -8 23 -18 63 -22 89
-4 26 -15 66 -24 88 -10 23 -21 65 -24 95 -4 30 -13 66 -20 80 -8 14 -19 58
-25 97 -6 39 -17 87 -25 106 -8 19 -18 59 -21 89 -4 30 -13 72 -20 94 -8 22
-21 76 -29 120 -8 44 -20 93 -26 109 -6 16 -15 62 -21 103 -6 41 -16 92 -24
113 -8 22 -19 76 -25 120 -6 44 -17 97 -24 118 -8 21 -17 71 -21 112 -3 41
-13 102 -22 134 -8 33 -19 100 -24 150 -6 50 -17 116 -24 147 -8 30 -19 105
-24 165 -6 60 -17 147 -25 194 -8 47 -20 148 -26 225 -6 77 -15 158 -20 180
-5 22 -14 121 -20 220 -6 99 -15 236 -21 305 -14 175 -29 554 -29 750 1 91 7
255 15 365 8 110 20 286 25 390 6 105 19 255 30 335 10 80 22 190 25 245 4 55
13 127 20 160 7 33 18 112 24 175 7 63 18 138 26 166 8 29 19 94 25 145 5 52
17 116 25 143 8 27 15 64 15 81 0 18 11 75 24 126 13 52 26 120 30 152 3 32
13 74 21 93 7 18 19 68 24 109 6 41 17 91 26 111 8 19 17 59 21 87 4 29 15 72
24 97 10 25 21 68 24 95 4 28 14 59 21 71 7 11 16 43 20 70 4 27 16 71 26 98
10 27 23 74 30 105 6 31 17 67 24 81 7 14 16 45 20 69 4 24 16 62 26 85 10 23
19 51 19 64 0 13 9 44 19 70 25 63 59 165 76 230 7 29 18 58 23 65 5 7 17 35
25 62 9 28 30 88 47 135 17 47 38 108 47 135 8 28 19 55 23 60 5 6 17 35 28
65 46 126 53 146 67 175 41 89 64 143 70 165 4 14 15 39 25 55 10 17 21 44 25
62 3 17 13 37 21 44 8 6 14 17 14 24 0 7 13 39 29 71 62 128 169 350 179 374
7 14 16 32 21 40 5 8 16 29 24 45 15 34 94 192 107 215 4 8 28 53 53 100 25
47 57 105 71 130 14 25 35 63 46 85 11 22 31 57 43 77 12 21 51 86 86 145 65
110 101 169 131 213 9 14 19 32 23 42 3 9 25 45 49 80 24 35 48 71 53 79 12
19 53 82 111 169 24 36 75 110 114 165 38 55 79 114 89 130 11 17 36 53 56 80
20 28 58 82 85 120 83 118 276 367 369 475 21 25 87 104 147 175 195 235 466
527 774 835 177 177 272 266 414 390 60 52 130 114 155 136 111 101 379 327
471 396 41 32 112 86 157 120 91 70 227 171 276 206 68 48 104 73 157 112 58
42 260 181 356 244 29 19 40 26 169 107 39 24 80 50 90 56 11 7 40 24 65 38
25 14 81 48 125 75 44 28 94 57 110 65 17 9 53 29 80 45 28 17 68 40 90 51 22
12 63 34 90 49 28 16 64 36 80 45 17 8 53 29 80 45 28 16 129 68 225 115 96
48 182 91 190 96 8 5 26 14 40 20 14 6 43 19 65 29 22 10 67 31 100 45 33 15
83 37 110 50 28 12 79 35 115 50 36 15 83 36 105 46 22 10 60 26 85 35 91 32
126 46 166 65 22 10 46 19 53 19 8 0 39 11 70 24 31 12 72 29 91 36 19 7 64
23 100 37 110 41 203 74 251 88 26 7 60 20 75 28 16 8 47 18 69 22 21 3 53 14
69 22 17 9 53 22 81 29 52 13 96 27 225 69 41 14 84 25 95 26 11 0 38 7 60 15
22 9 67 22 100 30 78 17 168 40 281 70 49 13 102 24 116 24 14 0 54 9 89 20
35 10 91 22 124 26 33 4 78 13 100 21 21 7 85 20 140 28 56 8 113 19 129 24
15 6 60 14 99 17 40 3 108 14 152 24 44 10 132 24 195 30 63 6 135 16 160 21
25 6 113 16 195 24 83 7 209 20 280 29 168 20 612 49 880 56 260 8 776 2 910
-11z"/>
    <path d="M20115 33170 c-49 -4 -169 -13 -265 -19 -96 -6 -211 -18 -255 -26
-44 -8 -127 -19 -185 -25 -58 -6 -127 -18 -155 -25 -27 -8 -91 -19 -142 -24
-51 -5 -100 -14 -110 -19 -10 -6 -54 -15 -98 -21 -44 -7 -96 -18 -116 -26 -20
-7 -65 -19 -100 -25 -35 -6 -85 -20 -111 -30 -26 -11 -58 -20 -73 -20 -14 0
-45 -9 -68 -19 -23 -11 -60 -22 -82 -26 -22 -4 -56 -15 -75 -25 -19 -10 -52
-20 -72 -24 -21 -4 -57 -16 -80 -26 -24 -11 -52 -20 -63 -20 -11 0 -37 -9 -57
-20 -21 -11 -55 -24 -75 -29 -44 -11 -132 -45 -185 -72 -20 -10 -42 -19 -49
-19 -7 0 -36 -11 -66 -25 -29 -14 -79 -37 -110 -51 -32 -14 -65 -30 -73 -35
-8 -5 -31 -16 -50 -24 -19 -9 -44 -21 -55 -27 -11 -6 -27 -15 -35 -20 -8 -4
-26 -13 -40 -19 -34 -14 -172 -89 -330 -179 -72 -41 -143 -81 -158 -89 -15 -7
-36 -21 -47 -30 -11 -9 -36 -24 -55 -34 -38 -18 -37 -18 -158 -97 -46 -30 -99
-64 -116 -75 -18 -11 -41 -28 -50 -37 -10 -10 -21 -18 -26 -18 -5 0 -15 -6
-22 -12 -7 -7 -36 -30 -63 -50 -97 -72 -178 -134 -259 -198 -46 -36 -98 -76
-116 -90 -151 -113 -512 -460 -750 -721 -101 -110 -344 -403 -385 -463 -11
-16 -30 -43 -43 -60 -12 -17 -33 -47 -47 -66 -13 -19 -45 -64 -70 -100 -60
-84 -97 -139 -110 -160 -5 -9 -32 -50 -59 -91 -78 -118 -93 -141 -123 -195
-15 -29 -43 -78 -62 -110 -103 -176 -331 -634 -331 -666 0 -7 -9 -28 -20 -46
-11 -18 -20 -38 -20 -45 0 -7 -11 -33 -25 -59 -14 -26 -25 -53 -25 -60 0 -7
-12 -35 -25 -63 -14 -27 -25 -57 -25 -65 0 -9 -6 -24 -14 -35 -8 -11 -21 -44
-30 -74 -9 -29 -20 -59 -25 -65 -5 -6 -16 -36 -24 -66 -14 -52 -27 -91 -67
-205 -17 -48 -31 -99 -66 -237 -8 -35 -24 -92 -34 -128 -10 -36 -22 -87 -25
-113 -4 -27 -13 -66 -20 -87 -7 -20 -16 -64 -20 -96 -4 -33 -13 -82 -21 -110
-7 -28 -21 -103 -29 -165 -8 -63 -19 -130 -25 -149 -6 -19 -15 -84 -20 -145
-6 -60 -18 -159 -27 -220 -15 -93 -17 -188 -17 -630 0 -364 3 -539 12 -585 6
-36 17 -114 23 -175 6 -60 17 -150 25 -200 8 -49 21 -130 29 -180 7 -49 20
-117 29 -150 9 -32 16 -71 16 -85 0 -14 7 -50 15 -80 9 -30 22 -89 30 -131 8
-42 24 -112 36 -155 88 -324 106 -386 130 -440 10 -23 21 -59 25 -80 4 -22 14
-55 24 -74 10 -19 20 -53 24 -75 4 -22 16 -55 27 -73 10 -18 19 -41 19 -50 0
-10 9 -36 20 -57 11 -22 25 -53 30 -70 14 -47 61 -158 76 -180 8 -11 14 -26
14 -33 0 -21 140 -312 220 -457 27 -49 53 -99 59 -110 5 -11 27 -49 50 -85 22
-36 57 -94 77 -129 20 -35 49 -82 64 -105 15 -22 43 -66 62 -96 19 -30 43 -68
54 -84 10 -16 27 -41 36 -55 10 -14 27 -42 38 -61 11 -19 31 -49 43 -65 12
-17 44 -62 71 -100 28 -39 52 -72 56 -75 3 -3 32 -41 65 -85 59 -80 123 -158
219 -269 28 -32 58 -68 66 -80 28 -40 105 -122 280 -296 186 -187 270 -266
390 -370 41 -35 80 -70 85 -76 16 -17 222 -185 249 -203 14 -9 60 -43 103 -77
43 -33 85 -63 93 -67 8 -4 33 -21 55 -38 71 -53 175 -124 260 -177 22 -14 52
-33 67 -44 15 -10 31 -18 36 -18 5 0 22 -10 37 -22 30 -23 69 -46 121 -71 17
-8 35 -20 38 -26 4 -6 22 -18 39 -26 18 -8 55 -28 82 -44 112 -66 452 -241
469 -241 6 0 22 -9 36 -20 14 -11 31 -20 38 -20 12 0 118 -46 166 -72 10 -5
44 -19 75 -30 31 -11 79 -28 107 -38 28 -10 65 -25 82 -34 17 -9 39 -16 49
-16 10 0 41 -11 68 -25 28 -13 59 -25 70 -25 11 0 39 -9 61 -19 23 -10 57 -22
75 -26 19 -3 57 -15 84 -25 67 -24 305 -92 395 -111 25 -6 79 -19 120 -29 41
-10 100 -23 130 -28 30 -6 91 -17 135 -26 188 -37 317 -57 425 -66 63 -6 167
-18 230 -27 96 -14 200 -17 640 -18 484 0 540 2 720 23 107 12 240 30 295 38
55 9 138 22 185 29 47 7 110 20 140 28 30 9 75 18 100 22 25 3 77 15 115 25
39 10 93 23 120 28 89 19 283 72 395 108 25 9 68 21 95 29 45 12 76 22 180 57
111 38 143 50 167 63 14 8 32 15 38 15 13 0 103 37 186 76 28 13 57 24 65 24
8 0 24 7 35 15 12 8 46 24 76 35 67 25 485 234 507 254 9 8 32 21 51 30 19 9
53 28 75 41 22 14 51 31 65 38 22 11 74 41 174 102 66 40 229 149 321 214 39
28 81 58 95 68 14 9 45 33 70 53 25 20 55 42 67 50 35 24 176 133 193 150 9 8
47 42 85 75 151 129 288 258 475 445 233 233 236 236 426 466 222 267 294 363
429 574 23 36 49 76 58 90 104 155 126 189 141 215 9 17 28 48 41 70 26 45 53
91 83 148 11 21 25 43 30 50 6 7 29 48 52 92 22 44 45 87 50 95 5 8 23 47 40
85 17 39 36 77 41 85 9 14 16 28 60 130 11 25 29 63 39 85 11 22 33 74 50 115
17 41 37 89 45 105 8 17 21 48 29 70 7 22 20 58 29 80 8 22 20 56 27 75 6 19
23 64 37 100 14 36 33 94 43 130 10 36 26 83 34 105 8 22 15 50 16 63 0 13 9
44 20 70 11 26 24 72 29 102 9 57 42 198 66 285 8 28 21 96 30 151 8 56 19
113 24 126 5 13 14 67 20 119 7 52 16 110 21 129 5 19 16 107 25 195 8 88 21
196 27 240 9 55 13 233 13 580 0 416 -3 521 -17 625 -9 69 -20 163 -23 210 -4
47 -13 121 -21 165 -8 44 -19 116 -24 160 -5 44 -18 118 -29 165 -11 47 -24
112 -29 145 -9 56 -29 149 -53 240 -6 22 -17 67 -26 100 -8 33 -23 89 -33 125
-11 36 -22 84 -25 107 -4 24 -10 45 -15 48 -4 3 -13 29 -20 57 -6 29 -20 73
-30 98 -10 25 -25 65 -33 90 -8 25 -26 74 -40 110 -14 36 -30 81 -37 100 -7
19 -24 58 -36 85 -13 28 -24 56 -24 63 0 7 -9 30 -20 50 -10 20 -28 57 -38 82
-11 25 -33 74 -50 110 -16 36 -33 76 -37 90 -4 14 -13 32 -20 40 -7 8 -16 26
-20 40 -4 14 -16 36 -26 49 -11 13 -19 31 -19 40 0 9 -6 25 -14 36 -7 11 -44
79 -81 150 -37 72 -80 153 -96 180 -16 28 -36 64 -44 81 -7 17 -21 36 -29 44
-9 7 -16 17 -16 23 0 6 -12 29 -27 51 -14 23 -36 57 -48 76 -48 77 -147 223
-217 320 -26 36 -57 80 -70 98 -123 174 -350 450 -483 587 -453 465 -558 563
-820 765 -53 41 -137 108 -187 148 -50 39 -95 72 -101 72 -5 0 -33 19 -61 43
-69 58 -231 168 -276 187 -14 6 -34 19 -45 28 -23 19 -54 38 -106 63 -19 10
-41 25 -49 33 -7 9 -17 16 -22 16 -5 0 -59 28 -119 63 -60 34 -122 68 -137 75
-15 7 -34 17 -42 23 -8 5 -33 18 -55 29 -22 10 -51 26 -65 33 -14 8 -36 20
-50 26 -14 6 -32 15 -40 20 -8 5 -46 24 -85 41 -38 17 -77 36 -85 41 -8 5 -26
14 -40 20 -14 6 -43 19 -65 29 -38 18 -58 26 -184 72 -30 11 -64 26 -75 34
-11 8 -30 14 -41 14 -11 0 -44 11 -73 25 -30 14 -63 25 -73 25 -11 0 -36 8
-57 19 -20 10 -55 22 -77 25 -21 4 -55 16 -75 25 -19 10 -54 21 -76 25 -23 3
-61 15 -85 26 -24 11 -55 20 -69 20 -14 1 -43 8 -65 16 -22 9 -76 24 -120 34
-44 10 -105 26 -135 34 -30 9 -67 16 -82 16 -14 0 -39 5 -55 11 -15 5 -73 17
-128 25 -55 8 -120 21 -145 29 -25 8 -95 19 -155 25 -61 5 -142 16 -180 24
-39 8 -117 17 -175 21 -58 3 -170 13 -249 21 -152 15 -648 17 -816 4z m776
-1979 c80 -5 164 -14 185 -20 21 -5 86 -15 144 -21 58 -6 138 -20 179 -31 41
-10 86 -19 101 -19 14 0 50 -7 80 -15 30 -8 87 -22 126 -30 77 -15 183 -47
254 -75 25 -10 65 -21 90 -25 25 -4 56 -13 70 -21 26 -14 114 -46 190 -68 25
-7 61 -21 80 -29 19 -9 69 -30 110 -48 79 -33 251 -112 285 -131 11 -6 56 -30
100 -52 44 -22 87 -45 95 -52 8 -6 44 -27 80 -46 126 -67 368 -228 585 -391
219 -163 493 -417 672 -622 58 -66 122 -138 142 -160 21 -22 62 -71 91 -110
29 -38 68 -88 86 -110 17 -22 70 -98 118 -170 47 -71 90 -135 96 -142 5 -6 19
-29 31 -49 11 -21 35 -60 53 -88 17 -28 37 -62 44 -76 7 -14 26 -47 42 -75 33
-59 114 -220 160 -320 17 -38 40 -86 51 -106 10 -20 19 -43 19 -50 0 -8 7 -27
16 -44 9 -16 24 -52 34 -80 10 -27 30 -81 45 -120 15 -38 35 -97 45 -130 10
-33 25 -76 33 -95 8 -19 18 -55 22 -80 4 -25 12 -54 18 -65 11 -20 31 -99 62
-245 9 -41 23 -102 32 -135 8 -33 21 -107 28 -165 8 -58 20 -143 29 -190 17
-97 36 -470 36 -702 0 -181 -26 -622 -41 -688 -6 -24 -16 -93 -24 -152 -8 -60
-21 -132 -29 -161 -8 -28 -18 -77 -22 -107 -3 -30 -13 -73 -21 -95 -8 -22 -20
-67 -28 -100 -13 -59 -30 -115 -61 -205 -8 -25 -21 -67 -29 -95 -21 -76 -55
-175 -76 -221 -11 -22 -19 -46 -19 -54 0 -7 -9 -31 -19 -54 -11 -23 -31 -66
-45 -97 -14 -31 -26 -59 -26 -63 0 -7 -64 -140 -80 -166 -5 -8 -16 -31 -26
-50 -23 -48 -59 -116 -94 -175 -16 -27 -32 -57 -36 -65 -4 -8 -28 -46 -52 -85
-25 -38 -55 -86 -67 -105 -33 -53 -91 -140 -123 -185 -15 -22 -46 -65 -68 -96
-52 -74 -184 -246 -220 -286 -16 -18 -51 -58 -78 -90 -79 -94 -419 -426 -549
-536 -122 -103 -216 -179 -273 -220 -97 -69 -354 -237 -362 -237 -5 0 -16 -7
-23 -17 -8 -9 -27 -22 -44 -30 -16 -7 -52 -27 -80 -43 -82 -49 -315 -168 -421
-217 -27 -12 -80 -36 -119 -54 -38 -17 -88 -40 -111 -50 -22 -11 -47 -19 -55
-19 -8 0 -23 -6 -34 -14 -11 -8 -43 -21 -70 -29 -28 -8 -63 -22 -80 -31 -16
-9 -39 -16 -50 -16 -11 0 -39 -9 -62 -20 -24 -10 -68 -24 -98 -29 -30 -6 -64
-15 -75 -21 -10 -5 -53 -17 -94 -25 -41 -7 -84 -19 -95 -25 -12 -6 -56 -15
-100 -20 -44 -6 -98 -17 -121 -25 -22 -8 -89 -19 -148 -25 -59 -6 -138 -17
-177 -25 -105 -20 -393 -37 -635 -37 -256 0 -564 17 -675 37 -44 7 -125 19
-180 25 -55 6 -133 20 -174 31 -41 10 -87 19 -103 19 -15 0 -54 9 -85 19 -32
10 -87 26 -123 35 -123 30 -155 38 -200 53 -25 8 -72 23 -105 33 -125 39 -161
52 -197 71 -20 10 -42 19 -48 19 -10 0 -104 38 -185 74 -115 52 -266 124 -320
153 -16 9 -39 21 -50 27 -11 5 -40 21 -65 35 -25 13 -58 32 -75 41 -16 8 -43
24 -60 34 -108 68 -193 122 -215 136 -8 6 -42 28 -75 50 -33 22 -87 58 -120
79 -75 50 -74 49 -225 173 -178 147 -191 159 -440 408 -233 232 -285 287 -358
380 -23 30 -74 95 -113 144 -39 49 -75 99 -80 110 -5 12 -25 41 -44 66 -19 25
-39 55 -44 67 -6 11 -14 24 -20 27 -5 4 -28 39 -51 79 -23 39 -57 97 -75 127
-78 129 -136 237 -213 396 -16 34 -37 72 -46 85 -9 13 -16 30 -16 39 0 8 -10
33 -21 55 -12 22 -25 51 -30 65 -4 14 -24 63 -44 110 -21 47 -43 105 -51 130
-17 58 -42 132 -65 195 -10 28 -21 66 -25 85 -3 19 -17 67 -30 107 -13 39 -24
79 -24 89 0 10 -9 47 -19 83 -20 65 -43 180 -61 296 -31 197 -44 287 -51 345
-4 36 -11 202 -15 370 -7 334 7 736 31 854 7 39 18 117 24 172 6 56 15 113 20
128 6 14 17 66 26 116 9 50 20 103 26 118 6 15 15 52 20 82 9 54 36 150 66
240 9 25 24 72 33 105 33 108 51 159 71 196 10 20 19 42 19 49 0 16 38 108
113 270 14 30 32 71 41 90 9 19 20 42 25 50 5 8 24 47 43 85 20 39 48 93 63
120 15 28 36 66 47 85 10 19 32 55 48 80 16 25 39 61 50 80 55 93 69 115 129
202 106 155 278 379 312 408 3 3 46 52 96 110 50 58 132 146 184 195 83 80
126 120 283 263 40 37 159 133 267 215 135 102 236 173 348 242 9 6 30 19 46
30 43 29 55 36 220 127 176 98 374 195 500 247 28 11 77 31 110 44 53 22 126
49 235 87 19 6 58 19 85 27 28 8 73 23 100 33 28 11 68 22 90 26 22 4 51 12
65 20 14 7 55 17 90 23 36 7 83 18 105 25 22 8 76 19 120 25 44 6 102 18 128
26 26 8 82 17 125 20 42 4 113 14 157 22 44 9 139 19 210 23 198 10 682 11
846 1z"/>
  </g>
</svg>