<svg xmlns="http://www.w3.org/2000/svg" viewBox="0 0 4096.000000 4096.000000">
  <g transform="translate(0.000000,4096.000000) scale(0.100000,-0.100000)" fill="#f4f5f7" stroke="none">
    <path d="M20305 39949 c-38 -10 -81 -19 -95 -19 -14 0 -47 -12 -75 -25 -27
-14 -56 -25 -63 -25 -13 0 -104 -48 -167 -89 -63 -41 -136 -103 -449 -386 -61
-55 -145 -129 -186 -165 -41 -36 -82 -72 -91 -80 -8 -8 -53 -49 -99 -90 -47
-41 -98 -88 -115 -105 -17 -16 -57 -52 -89 -80 -179 -154 -314 -273 -531 -469
-220 -199 -288 -261 -318 -286 -16 -14 -39 -34 -51 -46 -11 -11 -63 -55 -114
-98 -51 -43 -125 -107 -165 -143 -95 -86 -264 -241 -296 -273 -14 -13 -60 -53
-101 -89 -41 -35 -100 -87 -131 -115 -30 -28 -131 -118 -224 -201 -93 -82
-199 -177 -235 -210 -36 -33 -84 -76 -105 -95 -22 -20 -74 -67 -116 -105 -42
-39 -99 -90 -128 -115 -149 -128 -310 -269 -456 -400 -89 -81 -320 -294 -330
-306 -9 -9 -42 -38 -179 -155 -16 -13 -56 -49 -90 -79 -34 -30 -113 -100 -176
-155 -62 -55 -120 -107 -129 -116 -9 -10 -37 -34 -62 -55 -25 -22 -123 -109
-216 -194 -170 -155 -279 -253 -363 -325 -25 -22 -70 -62 -100 -90 -31 -27
-94 -84 -140 -125 -46 -41 -134 -120 -195 -175 -60 -55 -144 -129 -185 -165
-41 -36 -86 -76 -100 -90 -23 -23 -127 -115 -219 -196 -20 -17 -63 -56 -97
-85 -117 -105 -219 -194 -259 -229 -22 -19 -44 -40 -50 -47 -5 -6 -48 -44 -95
-84 -47 -39 -105 -91 -129 -113 -63 -58 -91 -84 -162 -146 -35 -30 -70 -62
-79 -70 -8 -8 -78 -71 -155 -139 -77 -68 -156 -138 -175 -156 -19 -17 -69 -60
-110 -95 -41 -35 -127 -112 -190 -170 -64 -58 -154 -139 -200 -180 -46 -41
-136 -122 -199 -180 -64 -58 -145 -130 -181 -160 -81 -68 -90 -75 -230 -201
-64 -57 -158 -142 -210 -188 -52 -46 -102 -91 -110 -100 -25 -25 -188 -171
-270 -241 -82 -69 -197 -171 -300 -265 -86 -80 -132 -121 -276 -251 -226 -204
-279 -252 -349 -310 -74 -61 -235 -203 -271 -238 -11 -12 -61 -57 -109 -101
-49 -44 -112 -101 -140 -126 -78 -71 -245 -219 -310 -274 -32 -27 -81 -70
-109 -95 -28 -25 -84 -75 -125 -110 -41 -36 -84 -74 -96 -85 -87 -81 -246
-224 -390 -351 -159 -139 -217 -190 -523 -463 -65 -57 -148 -133 -187 -170
-38 -37 -101 -93 -140 -126 -38 -32 -95 -82 -125 -109 -31 -28 -96 -87 -145
-131 -49 -44 -96 -87 -105 -95 -9 -8 -49 -44 -90 -79 -41 -36 -79 -70 -85 -75
-5 -6 -48 -45 -95 -86 -46 -41 -114 -103 -150 -136 -36 -34 -85 -79 -110 -99
-41 -34 -85 -73 -265 -235 -181 -163 -327 -292 -406 -360 -35 -30 -93 -82
-129 -115 -87 -81 -126 -116 -250 -225 -170 -150 -316 -281 -435 -390 -22 -20
-89 -78 -150 -130 -60 -51 -173 -150 -249 -219 -192 -173 -383 -346 -431 -390
-37 -35 -180 -158 -301 -261 -30 -25 -129 -115 -222 -200 -92 -85 -223 -204
-291 -265 -68 -60 -129 -115 -135 -120 -6 -6 -63 -55 -126 -110 -63 -54 -138
-119 -165 -144 -28 -25 -86 -77 -130 -116 -43 -38 -132 -119 -197 -180 -66
-60 -149 -136 -186 -169 -37 -32 -90 -79 -119 -105 -28 -25 -77 -68 -109 -96
-32 -27 -83 -72 -114 -100 -31 -27 -110 -97 -175 -155 -65 -58 -153 -137 -194
-176 -79 -75 -94 -88 -332 -293 -79 -68 -151 -130 -159 -137 -146 -127 -256
-241 -315 -328 -80 -116 -112 -179 -158 -311 -31 -88 -32 -93 -32 -270 0 -146
3 -186 16 -210 9 -16 22 -54 28 -84 6 -30 20 -68 30 -85 10 -17 22 -42 26 -55
16 -54 124 -199 214 -287 64 -64 98 -90 211 -164 68 -44 210 -101 300 -121 55
-12 335 -12 410 0 144 23 326 116 490 250 30 25 120 104 200 176 80 71 177
157 215 190 39 33 95 82 125 110 107 97 216 193 266 236 29 24 105 91 169 149
65 58 143 128 175 155 217 190 354 312 409 365 14 13 58 51 96 84 39 33 75 66
80 73 6 6 31 29 56 50 40 33 244 214 379 336 25 23 97 86 160 140 122 105 250
219 284 252 39 37 252 231 376 340 68 61 131 117 140 126 9 9 82 71 161 139
79 68 187 162 239 210 52 48 118 107 145 130 28 24 52 46 55 49 3 3 25 24 50
46 122 108 220 195 270 240 30 28 89 80 130 115 82 70 124 108 275 246 55 50
136 122 180 159 80 69 97 84 300 270 145 133 196 178 285 255 41 35 122 107
180 160 58 52 137 122 175 155 39 32 95 82 126 109 30 28 109 98 174 156 66
58 171 152 235 209 63 57 153 138 199 180 47 42 134 121 195 176 61 55 156
140 211 189 55 49 118 105 140 126 22 20 74 65 115 100 41 36 152 134 245 220
94 85 197 178 230 205 32 28 84 73 114 100 31 28 74 66 96 85 56 48 161 142
414 369 336 301 433 387 671 596 63 55 121 107 130 115 9 8 49 44 90 80 41 35
100 87 130 115 31 27 94 84 140 125 47 41 94 84 105 95 12 11 55 49 96 85 41
36 79 70 84 76 6 6 46 42 90 79 44 37 85 73 90 79 6 7 46 43 90 81 44 38 98
86 120 106 22 19 69 62 105 95 120 108 165 148 231 209 219 202 275 252 379
341 63 55 122 106 131 114 38 34 68 60 139 121 41 35 152 133 246 219 93 85
206 187 250 226 160 143 247 220 304 269 90 78 216 190 320 285 52 48 118 107
145 130 28 24 52 46 55 50 3 4 39 35 80 70 41 35 100 86 130 114 93 85 222
201 230 206 4 3 45 39 91 80 174 157 326 294 369 334 25 23 92 82 150 131 58
49 155 134 215 190 61 55 148 134 195 175 46 41 133 121 194 176 61 56 137
124 168 150 232 200 460 399 507 444 66 62 270 247 331 300 41 35 80 69 85 75
6 7 49 45 96 86 84 72 271 237 356 316 23 21 70 63 105 93 34 30 74 66 89 80
48 45 182 165 285 256 55 49 192 170 304 269 112 99 310 276 439 394 130 117
272 246 315 285 44 39 89 80 101 91 12 11 57 51 101 89 96 84 185 164 404 361
91 83 246 222 344 310 98 88 195 175 215 194 54 51 120 91 139 84 22 -8 163
-130 426 -368 61 -55 143 -127 181 -160 72 -61 103 -89 285 -256 90 -83 230
-205 294 -258 10 -9 31 -27 46 -41 15 -14 64 -59 110 -100 46 -41 111 -100
145 -130 34 -30 139 -125 235 -210 96 -85 199 -178 230 -206 30 -27 129 -115
220 -194 91 -79 167 -147 170 -150 3 -4 43 -40 90 -80 47 -40 128 -112 180
-160 52 -49 115 -105 140 -125 24 -20 49 -43 55 -49 5 -7 57 -53 115 -102 94
-80 287 -249 300 -264 3 -3 41 -36 85 -75 44 -38 177 -158 295 -266 118 -107
276 -247 350 -310 74 -63 157 -135 184 -159 28 -25 124 -112 216 -195 295
-267 343 -310 485 -430 140 -119 163 -139 304 -271 169 -156 211 -195 336
-304 122 -106 213 -187 360 -320 34 -30 97 -86 140 -125 85 -75 156 -140 245
-221 30 -28 89 -79 130 -114 41 -35 149 -131 238 -214 163 -150 234 -215 393
-355 46 -41 113 -102 149 -135 36 -34 114 -103 175 -155 131 -112 218 -189
380 -336 163 -148 272 -246 320 -287 22 -19 64 -56 94 -84 179 -163 294 -266
351 -314 36 -30 74 -64 86 -75 21 -21 108 -99 284 -255 124 -109 240 -213 325
-290 33 -30 92 -82 130 -115 39 -33 72 -63 75 -66 3 -3 28 -25 55 -49 66 -56
203 -180 229 -206 12 -11 71 -62 131 -114 61 -51 112 -96 115 -100 3 -4 28
-26 55 -50 28 -24 97 -87 155 -140 58 -54 128 -118 156 -142 113 -94 260 -222
269 -232 15 -17 189 -172 275 -245 41 -36 131 -117 200 -181 69 -65 175 -160
236 -211 104 -89 272 -234 429 -373 105 -93 129 -115 213 -194 78 -74 247
-226 447 -402 184 -162 397 -351 460 -409 158 -147 267 -244 292 -264 15 -12
30 -24 33 -28 3 -3 39 -34 80 -69 81 -69 119 -103 250 -227 47 -44 130 -120
185 -168 95 -84 193 -171 314 -280 31 -28 103 -90 161 -140 58 -49 110 -95
115 -101 18 -20 379 -347 441 -399 32 -27 84 -72 114 -100 31 -27 89 -80 130
-116 96 -84 262 -232 364 -323 76 -67 136 -123 251 -227 27 -26 86 -77 131
-115 44 -38 139 -120 210 -183 71 -62 158 -138 194 -170 35 -31 143 -128 240
-216 97 -88 218 -196 270 -240 52 -44 113 -98 135 -120 22 -22 90 -83 150
-135 61 -52 133 -115 160 -140 28 -25 86 -76 130 -115 44 -38 107 -95 140
-125 33 -31 107 -96 165 -145 58 -49 114 -98 125 -110 34 -33 162 -146 285
-250 126 -107 123 -104 230 -203 178 -165 276 -237 410 -305 30 -15 98 -42
150 -60 l95 -32 225 0 c212 0 228 1 285 23 89 35 183 83 240 122 118 81 266
233 332 339 35 57 103 197 103 212 0 8 10 39 23 69 20 51 22 71 22 250 0 168
-2 200 -18 230 -10 19 -22 54 -27 77 -9 37 -41 101 -105 207 -58 96 -134 193
-197 251 -56 52 -76 70 -193 169 -38 33 -79 69 -90 81 -12 11 -48 43 -80 72
-266 230 -347 302 -545 482 -307 279 -367 332 -426 382 -144 122 -398 350
-509 458 -56 55 -207 187 -319 281 -23 19 -113 100 -186 165 -30 28 -89 80
-130 115 -41 36 -77 68 -80 71 -3 3 -63 59 -135 124 -71 65 -146 133 -165 151
-19 18 -92 81 -161 141 -161 139 -291 254 -304 268 -5 7 -19 18 -31 26 -12 8
-70 59 -129 114 -60 55 -142 132 -184 170 -42 39 -87 81 -101 95 -14 14 -83
75 -155 135 -112 94 -348 306 -673 604 -46 42 -109 99 -140 126 -150 134 -198
181 -209 204 -9 20 -12 1104 -13 4826 0 3037 -4 4825 -10 4867 -12 80 -43 184
-76 254 -13 28 -24 57 -24 64 0 23 -68 125 -161 240 -52 64 -144 148 -211 193
-40 27 -180 97 -195 97 -6 0 -37 9 -70 19 -33 11 -117 24 -187 30 -176 15
-4964 15 -5177 0 -84 -6 -171 -17 -193 -25 -23 -9 -59 -20 -81 -25 -22 -5 -92
-35 -155 -67 -103 -51 -125 -67 -221 -162 -129 -128 -198 -235 -261 -405 -64
-174 -60 -76 -67 -1915 -4 -1247 -9 -1675 -17 -1675 -10 0 -136 108 -199 170
-11 12 -62 56 -113 99 -51 43 -177 155 -280 249 -103 95 -207 190 -232 212
-24 22 -69 63 -100 90 -30 28 -89 79 -130 114 -41 36 -79 69 -85 75 -5 6 -73
67 -150 135 -309 273 -461 410 -575 516 -36 33 -101 92 -145 130 -43 39 -94
84 -111 100 -18 17 -59 53 -91 80 -32 28 -85 75 -119 105 -33 30 -77 69 -96
85 -43 38 -169 150 -313 280 -60 55 -130 118 -155 139 -46 40 -218 198 -275
251 -17 17 -76 68 -130 115 -178 154 -280 243 -296 259 -40 39 -132 124 -224
206 -142 128 -327 296 -346 314 -17 17 -75 67 -204 178 -98 85 -159 139 -201
178 -18 17 -72 66 -120 110 -48 44 -113 103 -144 131 -30 27 -86 77 -125 110
-38 32 -76 66 -85 76 -8 9 -46 42 -85 74 -38 31 -93 78 -121 103 -28 25 -80
71 -115 101 -71 62 -186 165 -210 189 -43 44 -284 260 -434 391 -61 52 -135
118 -165 145 -30 28 -89 79 -130 114 -41 35 -129 114 -195 176 -66 62 -145
134 -175 160 -30 27 -73 65 -95 86 -63 58 -166 142 -210 171 -100 65 -252 133
-320 142 -27 4 -72 14 -99 22 -71 20 -243 17 -331 -7z m12748 -4198 c5 -5 10
-1501 11 -3326 3 -2866 1 -3318 -11 -3322 -9 -3 -34 13 -61 39 -26 25 -78 72
-117 104 -38 33 -82 71 -96 84 -160 154 -513 474 -689 625 -58 49 -107 92
-110 96 -3 3 -41 37 -85 75 -95 82 -159 141 -231 209 -29 28 -82 77 -119 110
-37 33 -93 83 -124 111 -31 28 -85 75 -121 105 -75 63 -73 62 -449 404 -239
218 -432 389 -525 465 -36 29 -121 105 -158 141 l-38 36 3 2022 c1 1515 5
2024 14 2029 16 10 2896 3 2906 -7z"/>
    <path d="M20305 32570 c-16 -5 -61 -18 -100 -29 -71 -21 -150 -52 -195 -77
-14 -7 -40 -21 -58 -29 -41 -20 -138 -93 -211 -160 -31 -29 -92 -83 -137 -121
-147 -125 -348 -306 -488 -439 -126 -120 -276 -257 -301 -276 -42 -33 -304
-263 -373 -327 -63 -59 -165 -154 -247 -227 -126 -114 -196 -177 -222 -202
-13 -12 -29 -26 -37 -30 -8 -5 -48 -37 -88 -73 -211 -189 -304 -273 -413 -375
-172 -160 -227 -209 -345 -309 -58 -49 -109 -94 -115 -100 -5 -6 -44 -40 -85
-76 -41 -36 -131 -117 -200 -180 -69 -63 -143 -131 -165 -150 -21 -19 -48 -44
-60 -55 -12 -11 -82 -73 -157 -137 -74 -64 -149 -130 -165 -145 -41 -40 -95
-88 -193 -172 -47 -40 -115 -101 -151 -135 -98 -93 -306 -283 -378 -346 -96
-83 -324 -286 -516 -460 -172 -155 -291 -263 -374 -336 -25 -21 -54 -48 -66
-59 -67 -62 -119 -109 -190 -170 -44 -38 -100 -88 -125 -110 -80 -75 -242
-220 -380 -340 -30 -27 -98 -87 -150 -135 -157 -143 -319 -290 -425 -384 -55
-49 -136 -121 -180 -160 -44 -39 -114 -103 -155 -141 -41 -39 -120 -111 -175
-160 -55 -50 -174 -158 -265 -240 -91 -83 -212 -191 -270 -240 -58 -49 -114
-98 -126 -110 -11 -11 -59 -54 -105 -95 -46 -41 -113 -102 -149 -136 -36 -33
-89 -82 -119 -110 -81 -73 -104 -95 -157 -145 -64 -59 -245 -216 -294 -254
-21 -16 -72 -61 -115 -100 -42 -38 -88 -81 -104 -95 -15 -14 -58 -54 -97 -90
-147 -138 -322 -298 -388 -355 -38 -33 -79 -69 -91 -80 -12 -11 -47 -42 -79
-70 -103 -90 -479 -430 -536 -485 -14 -13 -74 -67 -135 -119 -60 -52 -130
-113 -154 -136 -25 -22 -70 -63 -100 -91 -31 -28 -112 -102 -181 -164 -113
-102 -198 -181 -330 -304 -25 -24 -94 -85 -154 -137 -218 -189 -323 -282 -406
-359 -15 -14 -80 -72 -145 -130 -66 -58 -146 -130 -180 -160 -34 -30 -99 -89
-146 -130 -46 -41 -109 -98 -139 -125 -30 -28 -88 -80 -129 -115 -41 -36 -84
-74 -96 -85 -12 -11 -57 -51 -100 -90 -44 -38 -97 -88 -120 -109 -22 -21 -107
-98 -190 -171 -82 -72 -168 -149 -190 -171 -22 -21 -70 -64 -105 -94 -36 -30
-90 -77 -120 -105 -30 -27 -95 -86 -144 -130 -295 -265 -440 -408 -522 -520
-34 -46 -74 -111 -74 -120 0 -6 -11 -30 -24 -55 -13 -25 -26 -58 -30 -75 -4
-16 -17 -61 -29 -100 l-22 -70 0 -7580 0 -7580 22 -85 c11 -47 24 -121 28
-165 4 -44 15 -105 25 -136 11 -31 24 -84 29 -117 5 -33 16 -73 24 -89 8 -16
20 -54 26 -86 6 -31 16 -67 22 -79 7 -13 20 -48 30 -78 32 -102 63 -173 164
-380 77 -157 110 -217 130 -240 8 -9 15 -21 15 -27 0 -5 13 -31 30 -56 17 -26
43 -68 60 -94 67 -109 247 -334 390 -487 81 -86 216 -217 285 -273 33 -27 67
-58 75 -68 8 -10 31 -28 50 -42 19 -13 53 -37 75 -54 54 -40 99 -71 170 -118
33 -22 72 -49 86 -60 15 -12 35 -24 45 -28 11 -3 30 -14 44 -23 14 -10 66 -39
115 -65 50 -26 101 -54 115 -61 14 -8 32 -14 40 -14 8 0 26 -9 40 -20 14 -11
30 -20 35 -20 6 0 37 -13 70 -29 169 -81 292 -125 500 -177 33 -9 87 -24 120
-34 33 -11 101 -24 152 -30 51 -5 104 -15 120 -21 15 -5 75 -14 133 -20 149
-13 22687 -12 22802 1 48 6 119 17 158 25 39 8 84 15 98 15 15 0 52 7 82 16
30 8 93 24 139 35 46 11 91 24 101 29 9 5 48 18 86 29 95 27 203 66 239 85 17
9 35 16 41 16 15 0 114 45 272 124 148 73 193 97 252 136 25 17 58 38 74 48
15 9 57 38 92 65 36 26 67 47 70 47 5 0 118 86 170 129 17 14 46 37 64 51 37
27 403 390 435 431 11 14 34 41 50 60 69 79 178 229 220 300 17 28 39 63 50
77 11 15 28 43 38 62 9 19 31 55 47 80 16 25 50 86 75 137 25 51 50 95 54 98
5 2 12 17 15 32 4 16 18 51 31 78 41 86 85 193 85 207 0 7 9 30 20 50 11 21
23 57 26 80 4 24 15 65 26 92 10 27 25 86 33 131 8 44 21 98 28 120 8 22 17
79 21 127 4 48 14 111 22 140 8 29 19 134 24 233 7 120 10 2675 8 7615 l-3
7435 -21 60 c-12 33 -25 75 -29 94 -4 19 -18 54 -31 79 -13 25 -24 51 -24 57
0 14 -56 109 -85 144 -95 115 -151 174 -270 286 -76 72 -153 144 -170 160 -17
17 -76 68 -130 115 -54 47 -106 92 -115 100 -9 8 -34 30 -55 49 -44 37 -178
157 -265 236 -30 28 -89 80 -130 117 -41 36 -94 84 -116 105 -23 21 -79 72
-125 113 -46 41 -93 84 -105 95 -11 11 -58 54 -105 95 -46 41 -91 82 -99 90
-50 46 -114 103 -185 165 -44 38 -84 74 -90 80 -5 6 -44 40 -85 76 -41 35
-149 132 -240 214 -92 83 -188 170 -216 195 -27 24 -85 76 -129 114 -80 69
-126 109 -325 288 -163 146 -200 180 -249 227 -25 24 -81 75 -124 113 -43 38
-109 98 -145 132 -69 66 -77 73 -226 203 -50 43 -167 148 -261 233 -360 326
-450 406 -501 450 -93 80 -217 191 -295 264 -62 59 -210 197 -328 306 -66 61
-187 167 -316 277 -77 65 -162 139 -189 163 -150 136 -304 276 -321 294 -12
12 -59 55 -105 96 -46 41 -93 84 -105 95 -11 12 -69 63 -130 115 -60 52 -122
106 -136 120 -15 14 -50 45 -78 70 -28 25 -75 67 -104 94 -200 186 -404 373
-486 443 -74 63 -353 316 -486 438 -55 51 -122 111 -150 135 -27 23 -54 47
-60 54 -5 6 -58 53 -117 103 -58 50 -126 109 -150 131 -41 38 -283 254 -437
391 -41 36 -89 80 -107 96 -32 30 -52 48 -279 250 -109 98 -272 245 -299 270
-23 22 -165 143 -256 219 -52 43 -104 89 -115 101 -24 25 -343 316 -435 397
-36 31 -88 78 -117 105 -78 72 -160 143 -243 213 -41 34 -133 117 -204 184
-232 217 -280 262 -326 302 -25 21 -68 59 -95 84 -28 25 -79 70 -114 100 -35
30 -71 62 -80 71 -9 9 -65 58 -126 110 -60 51 -132 113 -159 138 -27 26 -61
57 -76 71 -15 14 -63 59 -106 100 -91 85 -225 207 -299 270 -27 24 -52 46 -55
50 -3 4 -54 49 -115 100 -60 52 -112 97 -115 101 -3 3 -43 39 -90 79 -84 72
-270 241 -319 290 -46 45 -213 193 -306 270 -49 41 -101 86 -115 100 -14 14
-59 55 -100 91 -189 167 -258 229 -296 265 -23 21 -79 73 -125 114 -46 41
-115 105 -154 141 -109 103 -230 199 -251 199 -6 0 -19 9 -29 20 -10 11 -23
20 -29 20 -6 0 -38 14 -71 30 -33 16 -68 30 -78 30 -10 0 -43 10 -75 21 -48
18 -83 22 -227 25 -93 2 -183 -1 -200 -6z m202 -2433 c4 -8 42 -42 83 -77 41
-35 98 -84 125 -109 28 -25 104 -93 170 -151 167 -147 231 -205 455 -411 69
-63 154 -139 190 -168 36 -30 72 -61 80 -70 8 -9 49 -45 90 -81 41 -35 82 -71
91 -80 9 -8 60 -53 114 -100 53 -47 171 -152 262 -235 235 -215 324 -295 443
-398 58 -50 107 -93 110 -97 3 -3 70 -62 150 -130 79 -69 154 -134 165 -145
190 -181 362 -336 564 -509 64 -54 118 -102 121 -106 3 -4 43 -40 90 -80 75
-65 114 -100 195 -175 12 -11 41 -38 66 -59 40 -36 165 -150 309 -282 30 -28
87 -77 125 -110 75 -64 149 -131 200 -179 17 -16 71 -66 120 -110 49 -44 164
-147 255 -229 246 -223 292 -264 408 -364 86 -74 292 -260 307 -277 6 -7 48
-45 95 -86 122 -107 153 -136 350 -314 97 -88 216 -196 265 -240 48 -44 94
-85 100 -92 7 -6 34 -31 61 -54 27 -23 78 -69 114 -103 36 -34 117 -106 180
-161 63 -55 122 -107 130 -115 9 -8 56 -51 105 -95 49 -44 139 -125 200 -180
60 -55 142 -127 180 -160 84 -72 182 -159 415 -370 96 -87 213 -192 260 -234
46 -42 112 -101 145 -131 34 -30 113 -100 175 -155 154 -136 223 -198 305
-276 39 -37 104 -95 145 -130 41 -35 122 -106 180 -159 58 -53 128 -116 156
-140 27 -25 97 -87 155 -139 57 -52 142 -128 189 -170 46 -42 107 -97 135
-122 27 -25 84 -74 125 -109 75 -64 187 -162 290 -255 30 -28 91 -82 135 -120
141 -123 285 -253 310 -280 12 -13 216 -192 324 -285 42 -36 96 -83 120 -105
25 -22 92 -82 150 -134 58 -52 140 -126 181 -164 253 -235 397 -366 505 -457
55 -46 120 -103 145 -126 25 -22 79 -72 120 -110 41 -37 77 -71 80 -74 3 -3
52 -48 110 -100 58 -52 141 -128 185 -170 44 -41 116 -107 160 -146 44 -39
111 -99 149 -133 37 -33 71 -61 75 -61 4 0 22 -18 39 -39 l32 -40 0 -7143 0
-7143 -20 -130 c-12 -71 -25 -150 -30 -175 -13 -64 -58 -191 -74 -209 -8 -9
-19 -35 -25 -58 -7 -23 -16 -45 -22 -49 -6 -3 -19 -25 -30 -48 -44 -93 -153
-237 -274 -359 -47 -48 -103 -99 -123 -112 -20 -13 -55 -38 -77 -54 -22 -17
-51 -36 -65 -43 -14 -7 -40 -23 -59 -35 -19 -13 -40 -23 -48 -23 -8 0 -27 -8
-41 -18 -15 -11 -49 -24 -75 -31 -27 -6 -59 -18 -70 -25 -12 -8 -90 -28 -173
-45 l-152 -31 -2468 0 c-1358 0 -2475 0 -2481 0 -10 0 -13 891 -13 4423 0
2903 -4 4470 -10 4562 -6 77 -17 167 -24 200 -8 33 -17 98 -21 145 -4 47 -15
121 -25 165 -10 44 -24 118 -30 163 -6 46 -16 96 -22 110 -5 15 -18 70 -29
122 -25 128 -58 258 -75 299 -8 18 -21 61 -29 95 -8 33 -23 86 -34 116 -11 30
-20 65 -21 78 0 12 -8 39 -19 60 -10 20 -22 53 -26 72 -4 19 -18 56 -31 82
-13 26 -24 54 -24 61 0 8 -11 34 -23 58 -13 24 -27 57 -31 72 -4 16 -27 72
-52 125 -25 54 -61 131 -80 172 -20 41 -40 82 -45 90 -5 8 -20 38 -34 65 -29
60 -112 208 -139 250 -11 17 -30 47 -43 68 -12 20 -34 54 -47 75 -14 20 -30
48 -35 62 -6 14 -19 36 -30 50 -10 14 -58 84 -105 155 -48 72 -103 153 -123
180 -43 60 -307 390 -339 425 -13 14 -43 45 -66 70 -24 25 -99 105 -167 178
-123 133 -400 391 -522 487 -135 107 -300 233 -345 265 -12 8 -41 29 -64 45
-23 17 -60 41 -80 55 -56 37 -89 60 -148 99 -58 39 -124 78 -187 111 -22 11
-65 36 -95 55 -30 19 -66 39 -80 45 -14 5 -32 14 -40 20 -40 25 -402 200 -416
200 -5 0 -31 12 -59 25 -27 14 -56 25 -63 25 -7 0 -34 11 -60 25 -26 14 -53
25 -60 25 -7 0 -35 11 -62 25 -27 14 -57 25 -67 25 -10 0 -35 9 -55 20 -20 11
-58 25 -85 31 -26 7 -64 20 -85 30 -20 10 -56 21 -80 25 -23 4 -59 15 -79 25
-20 10 -60 21 -90 25 -30 4 -87 17 -127 30 -40 13 -81 24 -91 24 -10 0 -42 8
-72 19 -30 10 -92 24 -139 30 -47 7 -119 21 -160 31 -41 10 -106 21 -145 24
-38 4 -119 16 -180 26 -128 23 -471 40 -782 40 -267 0 -582 -16 -688 -35 -44
-8 -142 -22 -217 -30 -75 -8 -149 -20 -164 -26 -16 -5 -71 -16 -124 -24 -96
-15 -194 -38 -330 -80 -41 -13 -93 -26 -115 -30 -22 -4 -60 -15 -85 -25 -25
-10 -63 -21 -85 -25 -21 -4 -55 -15 -75 -25 -20 -10 -54 -22 -75 -26 -22 -4
-62 -18 -90 -30 -27 -13 -59 -24 -70 -24 -11 0 -38 -12 -60 -25 -22 -14 -49
-25 -61 -25 -12 0 -42 -11 -68 -25 -26 -14 -53 -25 -60 -25 -7 0 -34 -11 -60
-25 -26 -14 -52 -25 -59 -25 -13 0 -54 -19 -267 -125 -148 -74 -205 -104 -265
-140 -22 -14 -56 -32 -75 -42 -19 -10 -48 -28 -63 -40 -16 -13 -33 -23 -39
-23 -6 0 -25 -11 -42 -24 -17 -13 -41 -26 -53 -30 -13 -4 -23 -11 -23 -16 0
-5 -15 -17 -32 -26 -18 -9 -45 -26 -59 -38 -15 -12 -39 -29 -55 -38 -49 -29
-68 -42 -101 -68 -17 -14 -47 -36 -67 -50 -120 -83 -401 -312 -576 -469 -105
-94 -287 -274 -366 -362 -180 -200 -421 -498 -544 -674 -14 -20 -36 -51 -50
-69 -14 -19 -34 -49 -45 -67 -28 -46 -57 -91 -79 -125 -64 -98 -108 -172 -183
-309 -25 -44 -48 -87 -53 -95 -20 -33 -140 -277 -140 -284 0 -7 -35 -85 -86
-191 -13 -28 -24 -55 -24 -60 0 -6 -12 -32 -25 -60 -14 -27 -25 -56 -25 -63 0
-7 -11 -34 -24 -60 -13 -26 -27 -62 -31 -81 -4 -18 -15 -48 -25 -65 -10 -17
-21 -49 -25 -71 -4 -21 -15 -56 -26 -77 -10 -20 -19 -44 -19 -53 0 -8 -11 -50
-25 -93 -30 -93 -61 -215 -85 -337 -10 -49 -23 -102 -29 -117 -5 -14 -15 -64
-21 -110 -6 -45 -18 -109 -26 -141 -8 -32 -24 -131 -35 -220 -11 -89 -25 -189
-31 -222 -7 -42 -12 -1401 -15 -4570 -2 -2480 -7 -4513 -11 -4517 -9 -9 -4948
-12 -4989 -2 -15 3 -46 12 -68 20 -22 8 -71 18 -108 23 -38 5 -85 18 -106 29
-20 11 -52 23 -71 27 -31 7 -109 41 -150 66 -8 5 -32 18 -52 29 -78 42 -197
131 -263 197 -145 144 -244 279 -325 443 -94 192 -121 270 -145 420 -10 58
-21 128 -25 155 -5 28 -9 3257 -9 7176 l-1 7125 28 36 c15 20 52 58 82 85 30
26 105 93 166 148 61 55 148 134 194 175 46 41 96 86 111 100 15 14 38 34 51
45 13 11 53 47 89 80 36 33 117 106 179 161 310 274 435 386 545 489 66 62
143 132 171 156 55 48 140 123 329 294 66 61 159 144 205 185 46 41 162 145
256 230 95 85 211 189 259 230 48 41 102 88 119 104 17 16 63 57 101 90 172
148 352 309 580 517 109 99 300 272 375 339 45 41 90 82 99 91 9 9 57 51 106
94 50 43 119 105 155 139 36 33 83 76 105 95 33 28 189 170 270 246 12 11 71
63 131 115 60 52 131 115 158 140 99 90 152 137 221 195 56 48 263 236 336
305 33 32 289 262 449 404 8 7 65 55 125 106 61 51 142 122 180 159 244 231
343 321 449 412 22 19 67 59 101 89 93 83 157 140 222 195 32 27 85 75 118
106 97 90 501 455 630 569 134 119 232 206 290 260 22 20 78 70 125 111 47 41
92 81 100 89 9 8 54 49 100 90 46 41 93 84 105 96 11 11 54 49 95 84 80 69
125 108 466 416 122 109 264 236 315 281 52 45 108 94 125 110 17 15 82 73
145 128 103 91 240 215 280 254 9 9 53 50 99 91 46 41 93 84 104 95 12 11 57
51 101 89 44 38 82 72 85 75 3 4 41 38 85 77 102 90 174 154 200 179 11 11 54
49 95 85 41 35 111 98 155 140 44 41 116 107 159 145 44 39 109 97 146 130 36
33 144 130 239 215 96 85 181 162 190 171 9 9 52 47 96 84 80 69 291 260 331
299 11 12 58 55 104 96 47 41 107 95 135 120 27 25 70 63 95 85 71 61 199 175
254 227 51 48 88 60 103 35z m193 -14327 c47 -6 168 -17 270 -25 102 -8 205
-22 230 -29 25 -8 88 -20 140 -27 52 -6 118 -19 145 -29 28 -10 70 -22 94 -25
24 -4 75 -18 112 -31 38 -13 77 -24 86 -24 10 0 41 -12 68 -25 28 -14 59 -25
71 -25 12 0 42 -11 68 -25 26 -14 53 -25 60 -25 7 0 35 -11 62 -25 27 -14 54
-25 60 -25 14 0 364 -178 384 -195 8 -7 25 -16 36 -19 12 -4 29 -15 39 -26 10
-11 24 -20 31 -20 7 0 25 -10 41 -23 15 -12 39 -28 53 -35 14 -7 41 -24 60
-38 19 -14 46 -33 58 -42 13 -9 40 -29 60 -44 21 -15 54 -40 75 -55 109 -80
319 -265 453 -398 139 -138 288 -309 374 -428 19 -27 44 -59 55 -72 27 -33 59
-79 97 -140 55 -89 78 -124 102 -162 14 -21 30 -49 36 -63 6 -14 26 -52 44
-85 36 -64 94 -178 131 -260 13 -27 34 -72 46 -100 13 -27 31 -70 40 -95 10
-25 32 -83 49 -130 17 -47 40 -114 50 -150 10 -36 25 -81 33 -100 8 -19 18
-57 22 -84 4 -28 15 -70 25 -95 9 -25 21 -73 24 -106 4 -33 18 -105 31 -160
13 -55 28 -156 34 -225 7 -69 16 -159 21 -200 5 -45 9 -1814 10 -4427 l0
-4353 -4199 0 c-3923 0 -4200 1 -4203 17 -2 9 0 1974 3 4367 4 3197 9 4367 17
4411 6 33 16 121 23 195 6 74 19 169 29 210 10 41 22 102 26 135 4 33 15 85
26 114 10 30 21 80 25 110 3 31 14 72 23 91 10 20 23 62 29 95 6 32 18 69 26
81 8 12 20 44 26 71 6 26 20 62 29 78 10 17 21 46 25 65 4 19 16 47 26 62 11
14 19 32 19 39 0 12 100 225 121 259 5 8 21 38 35 65 14 28 37 71 52 96 15 26
38 66 51 90 13 24 31 55 41 69 10 14 34 50 53 80 20 30 50 73 67 95 16 22 37
51 47 65 54 78 325 391 428 495 132 132 370 337 470 405 13 8 60 41 106 73 98
67 120 82 174 115 22 14 52 33 66 43 68 46 447 239 469 239 9 0 25 7 38 15 12
9 45 24 74 35 29 10 91 33 138 50 47 17 114 40 150 49 36 10 81 25 101 33 20
9 56 19 80 23 24 3 71 15 104 25 33 11 98 24 145 31 47 6 102 18 124 25 21 8
97 19 170 25 72 5 185 16 251 23 149 16 402 19 515 6z"/>
  </g>
</svg>