<svg xmlns="http://www.w3.org/2000/svg" viewBox="0 0 4096.000000 4096.000000">
  <g transform="translate(0.000000,4096.000000) scale(0.100000,-0.100000)" fill="#f4f5f7" stroke="#f4f5f7" stroke-width="40" stroke-linejoin="round" stroke-linecap="round">
    <path d="M19955 39173 c-33 -1 -170 -7 -305 -13 -135 -6 -351 -17 -480 -25
-129 -8 -318 -19 -420 -25 -650 -36 -1008 -61 -1080 -75 -14 -3 -95 -12 -180
-20 -152 -16 -530 -72 -800 -120 -334 -59 -830 -170 -1160 -261 -69 -19 -174
-49 -235 -65 -60 -17 -218 -62 -350 -100 -132 -39 -277 -82 -323 -95 -46 -13
-131 -39 -190 -58 -59 -19 -168 -53 -242 -76 -190 -59 -1039 -342 -1320 -440
-288 -101 -510 -186 -780 -300 -80 -34 -194 -82 -255 -107 -104 -42 -658 -286
-775 -340 -400 -186 -511 -244 -860 -453 -118 -70 -282 -167 -365 -216 -233
-137 -643 -385 -828 -503 -92 -58 -237 -149 -322 -201 -208 -128 -363 -232
-550 -369 -33 -24 -78 -57 -100 -73 -138 -99 -514 -382 -617 -465 -68 -54
-130 -103 -138 -110 -86 -68 -206 -165 -250 -203 -30 -25 -67 -55 -81 -66 -32
-23 -213 -180 -329 -283 -151 -135 -479 -450 -726 -696 -239 -239 -300 -302
-509 -529 -188 -205 -200 -218 -291 -327 -199 -237 -443 -526 -465 -550 -13
-14 -40 -45 -59 -69 -37 -46 -89 -110 -230 -281 -95 -114 -155 -192 -299 -384
-225 -300 -306 -416 -447 -635 -142 -221 -275 -426 -329 -510 -57 -88 -238
-388 -256 -425 -8 -16 -49 -91 -91 -165 -83 -150 -272 -513 -389 -750 -125
-253 -187 -388 -283 -623 -20 -48 -45 -106 -55 -130 -29 -64 -176 -442 -298
-767 -129 -344 -299 -885 -396 -1265 -206 -797 -272 -1086 -332 -1455 -13 -80
-28 -172 -34 -205 -10 -57 -42 -313 -62 -495 -17 -157 -68 -724 -78 -880 -13
-183 -27 -438 -43 -790 -16 -351 -16 -1533 0 -1905 7 -165 20 -446 27 -625 21
-478 75 -1045 152 -1585 14 -99 31 -225 38 -280 15 -117 87 -546 115 -690 50
-254 182 -904 209 -1031 47 -221 163 -675 240 -944 81 -284 170 -554 271 -830
39 -107 91 -249 115 -315 71 -198 229 -603 297 -762 34 -81 167 -357 294 -613
240 -481 344 -683 456 -880 36 -63 93 -164 127 -225 75 -132 96 -167 267 -445
148 -242 313 -493 448 -684 50 -70 104 -147 120 -170 189 -272 283 -402 410
-569 83 -110 169 -223 191 -253 90 -121 255 -333 335 -429 47 -56 126 -151
175 -211 154 -185 482 -559 624 -710 363 -385 586 -613 793 -809 342 -324 348
-330 494 -451 71 -60 170 -143 220 -185 169 -144 385 -313 890 -700 123 -93
369 -271 632 -454 258 -181 1027 -693 1217 -811 121 -75 236 -147 255 -159 54
-35 229 -134 395 -223 83 -44 184 -99 225 -121 84 -47 695 -351 705 -351 3 0
61 -25 128 -56 128 -59 451 -202 647 -286 63 -27 138 -60 165 -73 300 -139
748 -310 1405 -535 602 -205 1029 -327 1630 -464 213 -49 585 -124 890 -181
107 -20 215 -40 240 -45 128 -27 799 -132 955 -150 99 -11 207 -25 241 -30 65
-10 455 -51 714 -75 85 -7 245 -19 355 -24 110 -6 290 -16 400 -23 272 -16
1497 -16 1960 0 510 18 820 37 1170 73 50 5 146 14 215 19 69 6 188 19 265 30
77 11 181 24 230 30 100 11 391 55 680 101 486 79 1250 241 1800 384 99 26
198 51 220 56 22 5 74 20 115 34 41 13 140 42 220 65 80 23 179 52 220 65 41
13 136 42 210 65 217 67 639 213 845 291 105 39 217 82 250 94 180 67 700 283
880 365 39 18 117 52 175 77 58 24 170 74 250 110 80 36 190 86 245 110 133
60 583 290 873 447 129 69 235 126 237 126 5 0 331 192 450 265 61 38 151 92
200 122 50 30 113 68 140 85 28 17 91 56 140 86 184 113 560 367 718 484 89
66 181 135 204 152 23 17 67 49 99 71 141 99 403 300 553 424 90 75 187 154
215 176 71 55 287 235 371 310 39 34 113 99 165 145 244 213 403 361 845 787
296 286 371 362 704 723 74 80 148 159 164 175 71 72 615 713 692 816 200 263
325 434 462 629 56 80 110 156 120 170 29 40 271 416 328 510 28 47 105 171
170 275 166 268 222 362 318 537 183 333 446 842 557 1078 29 63 80 171 113
240 139 293 427 1004 599 1480 123 339 355 1057 474 1468 186 640 209 727 300
1147 73 341 116 560 160 820 119 710 174 1123 204 1550 6 88 16 205 21 260 5
55 16 289 25 520 19 498 21 1882 5 2360 -11 298 -41 840 -61 1090 -27 339
-118 972 -206 1430 -25 133 -30 158 -109 520 -108 500 -219 907 -365 1340
-272 806 -407 1153 -655 1689 -95 206 -460 945 -544 1101 -24 44 -49 91 -57
105 -7 14 -45 80 -84 148 -38 68 -70 125 -70 127 0 6 -249 421 -377 630 -61
99 -147 233 -192 299 -83 120 -265 379 -311 442 -141 191 -330 431 -476 606
-49 58 -121 148 -161 200 -80 104 -84 108 -250 300 -292 339 -446 513 -563
638 -214 229 -682 692 -970 960 -150 140 -280 262 -289 271 -9 9 -59 53 -111
100 -52 46 -97 86 -100 90 -10 12 -446 368 -551 449 -32 25 -113 88 -179 140
-67 52 -135 104 -150 115 -15 11 -70 50 -122 87 -51 37 -122 90 -158 118 -36
28 -90 68 -120 90 -30 22 -95 69 -145 105 -150 108 -426 296 -489 331 -16 9
-85 53 -155 98 -149 97 -447 277 -598 361 -60 34 -135 76 -168 95 -33 18 -107
59 -165 90 -58 32 -184 101 -280 155 -96 54 -193 106 -215 115 -22 10 -193 93
-380 185 -344 169 -442 215 -955 443 -168 75 -512 221 -605 257 -38 15 -106
42 -150 61 -94 39 -501 196 -595 229 -36 13 -137 51 -225 85 -368 141 -612
225 -930 320 -77 23 -167 50 -200 61 -78 24 -413 113 -690 184 -121 32 -260
68 -310 81 -608 162 -1263 301 -1715 364 -280 40 -576 79 -640 85 -36 4 -132
15 -215 26 -219 27 -682 67 -980 84 -575 32 -1277 55 -1625 53 -195 -1 -382
-3 -415 -5z m855 -1263 c693 -26 1162 -53 1435 -81 289 -30 445 -51 561 -78
71 -16 251 -46 399 -66 435 -58 555 -74 650 -85 130 -16 492 -75 695 -115 96
-19 258 -51 360 -71 216 -42 1125 -270 1405 -352 39 -12 129 -37 200 -58 232
-65 547 -161 680 -207 549 -188 971 -350 1370 -527 110 -48 274 -120 365 -160
229 -100 354 -157 579 -266 106 -52 195 -94 197 -94 5 0 519 -271 655 -345 57
-32 138 -76 179 -98 155 -83 598 -343 770 -452 25 -16 61 -38 80 -51 135 -85
473 -310 560 -372 115 -83 385 -281 440 -324 19 -15 130 -98 245 -184 183
-137 682 -547 905 -743 286 -252 698 -657 971 -956 100 -110 226 -247 279
-305 159 -174 507 -589 650 -775 41 -54 96 -123 121 -154 25 -31 74 -94 110
-140 35 -46 84 -109 107 -140 225 -290 661 -913 768 -1096 32 -55 81 -136 109
-180 81 -126 214 -361 362 -640 125 -234 382 -769 480 -995 111 -257 276 -671
358 -896 168 -462 251 -720 376 -1174 55 -200 210 -831 229 -930 10 -52 32
-162 48 -245 54 -266 108 -674 149 -1125 14 -159 18 -300 18 -765 0 -516 -2
-593 -23 -815 -26 -284 -45 -445 -73 -620 -81 -515 -137 -786 -273 -1310 -94
-363 -116 -438 -199 -690 -164 -493 -286 -813 -400 -1045 -27 -55 -55 -116
-62 -135 -7 -19 -37 -87 -68 -150 -30 -63 -73 -158 -97 -210 -57 -124 -241
-494 -284 -567 -18 -32 -51 -92 -73 -133 -33 -63 -106 -190 -196 -340 -142
-238 -372 -601 -502 -791 -132 -193 -494 -690 -637 -875 -141 -181 -487 -596
-618 -740 -346 -379 -766 -810 -920 -943 -47 -41 -119 -106 -160 -145 -136
-130 -343 -320 -479 -441 -74 -66 -213 -190 -309 -275 -217 -193 -435 -368
-813 -651 -299 -224 -356 -265 -514 -369 -22 -14 -65 -43 -95 -63 -30 -20 -91
-61 -135 -91 -200 -133 -511 -330 -620 -391 -66 -37 -266 -143 -445 -235 -179
-92 -371 -193 -427 -223 -56 -31 -146 -80 -200 -108 -54 -29 -123 -66 -153
-84 -84 -49 -635 -323 -805 -400 -504 -227 -775 -343 -1057 -451 -95 -36 -234
-90 -308 -119 -251 -99 -906 -323 -1200 -410 -308 -91 -717 -198 -1125 -295
-71 -17 -166 -40 -210 -51 -77 -18 -132 -31 -465 -104 -258 -56 -289 -62 -455
-94 -231 -44 -535 -96 -725 -125 -467 -71 -1090 -135 -1321 -136 -72 0 -91 3
-113 21 -20 15 -26 29 -26 57 0 20 5 53 10 73 13 48 89 396 145 669 24 118 62
292 83 385 22 94 54 240 72 325 17 85 45 211 60 280 16 69 50 222 75 340 25
118 52 240 60 270 8 30 31 127 51 215 19 88 47 207 60 264 14 57 34 149 44
205 40 207 72 290 122 317 11 6 124 26 250 45 272 40 392 62 622 110 210 44
215 45 561 133 297 76 571 150 670 181 33 10 125 37 205 60 289 84 916 287
1217 395 255 92 579 224 850 346 24 10 45 19 48 19 2 0 89 40 192 88 104 49
249 118 323 153 516 242 1156 596 1570 868 227 149 591 417 917 677 116 93
248 197 292 232 101 79 772 654 951 815 261 235 447 431 755 797 198 235 290
355 430 560 43 63 97 142 121 175 129 183 519 824 669 1100 116 213 313 616
422 865 141 320 251 656 362 1095 37 148 112 502 145 690 8 44 26 143 40 220
35 195 72 456 96 680 11 105 24 228 29 275 18 154 21 193 35 450 24 425 28
634 17 875 -23 466 -63 833 -127 1165 -35 183 -171 784 -201 890 -55 195 -164
544 -235 750 -74 214 -213 559 -325 805 -181 400 -394 788 -633 1158 -297 459
-402 612 -549 797 -42 52 -101 127 -131 166 -227 294 -369 461 -676 794 -263
287 -606 631 -816 820 -57 52 -139 126 -183 166 -86 78 -337 286 -512 425
-161 128 -332 254 -578 426 -121 85 -231 163 -245 173 -14 11 -47 33 -75 50
-27 17 -106 67 -175 112 -213 139 -394 248 -650 393 -85 49 -182 105 -215 125
-116 72 -253 145 -537 287 -159 78 -290 143 -292 143 -4 0 -178 80 -386 178
-404 189 -743 318 -1350 515 -583 189 -819 260 -1110 332 -102 26 -237 59
-301 75 -64 16 -169 41 -235 55 -620 134 -1155 223 -1589 265 -66 6 -183 18
-260 25 -225 23 -468 44 -640 55 -88 6 -223 15 -300 20 -77 5 -198 12 -270 15
-213 10 -988 7 -1155 -4 -727 -51 -885 -63 -1020 -81 -41 -5 -149 -17 -240
-25 -278 -25 -750 -81 -985 -115 -71 -10 -193 -29 -270 -40 -421 -64 -1177
-240 -1645 -382 -91 -28 -181 -55 -200 -60 -210 -57 -951 -312 -1195 -411 -60
-24 -190 -77 -288 -116 -98 -40 -213 -88 -255 -107 -42 -20 -153 -70 -247
-111 -156 -69 -479 -227 -600 -293 -27 -15 -80 -43 -116 -63 -36 -19 -153 -88
-260 -152 -107 -65 -207 -125 -222 -134 -62 -35 -586 -361 -702 -436 -44 -28
-138 -87 -210 -130 -218 -132 -384 -244 -524 -354 -46 -36 -111 -87 -145 -113
-403 -309 -795 -636 -1036 -863 -226 -212 -665 -661 -816 -835 -172 -197 -441
-518 -504 -600 -19 -25 -84 -107 -143 -183 -133 -168 -238 -314 -405 -562
-149 -222 -224 -347 -392 -655 -67 -124 -149 -272 -180 -330 -78 -142 -225
-438 -289 -585 -66 -150 -132 -314 -228 -570 -103 -274 -144 -394 -202 -597
-192 -664 -286 -1159 -358 -1893 -15 -151 -18 -279 -18 -795 1 -868 29 -1312
116 -1795 17 -93 37 -206 44 -250 61 -355 204 -902 329 -1256 119 -339 242
-630 397 -944 116 -235 127 -254 344 -615 172 -285 191 -317 327 -522 155
-235 192 -285 639 -868 78 -103 486 -581 615 -721 43 -48 243 -251 444 -452
261 -260 421 -411 561 -528 107 -90 272 -230 365 -310 176 -151 261 -221 404
-330 47 -36 137 -105 200 -154 105 -82 317 -227 436 -299 239 -145 290 -176
449 -266 55 -31 141 -81 190 -110 264 -155 813 -441 1015 -530 36 -15 124 -55
195 -88 223 -102 718 -312 830 -352 28 -10 97 -37 155 -60 121 -47 243 -93
530 -197 459 -166 538 -193 930 -313 425 -129 1007 -270 1555 -374 211 -40
317 -59 620 -107 92 -14 151 -43 172 -82 38 -75 237 -957 384 -1707 10 -52 30
-147 43 -210 13 -63 34 -162 46 -220 29 -140 68 -320 141 -645 77 -346 99
-460 99 -512 0 -33 -5 -46 -26 -62 -23 -18 -41 -21 -125 -21 -192 0 -999 89
-1479 164 -347 54 -856 155 -1285 254 -93 22 -197 45 -230 52 -93 18 -731 176
-915 227 -332 91 -422 119 -1160 360 -505 166 -777 262 -1100 391 -272 109
-316 128 -655 282 -22 10 -87 39 -145 65 -261 118 -953 473 -1210 621 -19 12
-87 49 -150 84 -63 35 -153 87 -200 115 -47 29 -148 88 -225 132 -186 106
-378 222 -495 298 -170 111 -264 172 -295 189 -81 44 -341 215 -504 331 -101
72 -217 154 -258 183 -117 82 -217 158 -353 266 -69 56 -127 103 -130 106 -3
3 -27 23 -55 45 -27 22 -75 62 -106 90 -30 27 -107 94 -170 147 -63 53 -127
109 -144 125 -16 16 -102 92 -190 169 -88 78 -340 323 -561 545 -418 421 -481
487 -679 709 -66 74 -143 159 -171 190 -44 48 -130 147 -295 341 -90 106 -353
435 -435 544 -91 121 -91 121 -217 289 -163 217 -648 951 -776 1174 -21 37
-69 121 -108 187 -138 239 -167 292 -327 603 -146 284 -317 643 -405 852 -18
41 -38 90 -46 108 -53 119 -175 445 -297 797 -167 480 -221 677 -307 1115 -87
442 -134 752 -200 1295 -46 382 -61 660 -61 1159 0 369 17 801 40 1011 20 180
69 546 89 656 11 63 25 150 31 194 6 44 20 121 30 170 10 50 24 122 30 160 13
88 68 344 115 540 20 83 43 179 51 215 36 154 137 508 206 720 80 248 127 391
148 445 11 28 40 106 64 175 115 324 295 757 518 1250 65 143 398 807 456 910
66 117 309 513 421 687 259 401 326 494 681 939 58 73 130 164 160 204 48 63
170 213 425 525 41 50 120 146 176 215 163 201 333 383 679 731 457 460 800
773 1210 1104 74 60 162 132 195 159 33 28 136 107 228 176 92 69 214 160 270
203 56 43 129 97 162 121 33 23 125 89 205 147 298 213 461 320 680 445 74 43
155 89 180 104 25 15 72 42 105 60 75 42 698 405 981 572 116 69 257 150 315
180 273 145 699 351 1014 491 621 275 883 377 1485 581 425 144 554 185 1295
404 178 53 509 140 755 199 243 59 684 153 850 183 399 71 635 112 785 135
208 32 364 58 500 82 224 39 335 53 710 88 190 18 1151 72 1390 78 242 7 668
5 875 -3z m446 -4680 c361 -13 750 -41 1209 -86 182 -18 697 -90 950 -133 194
-34 487 -91 620 -122 453 -106 896 -226 1245 -336 96 -30 198 -62 225 -70 79
-24 514 -186 700 -261 60 -24 521 -221 585 -249 25 -11 111 -50 192 -87 81
-36 149 -66 152 -66 7 0 262 -122 446 -214 374 -187 910 -489 1115 -626 39
-26 90 -59 115 -74 25 -15 65 -42 90 -60 25 -17 110 -76 190 -130 131 -89 412
-294 471 -344 13 -11 78 -64 144 -118 116 -95 335 -281 345 -294 3 -4 30 -28
60 -55 250 -218 743 -704 889 -875 155 -182 524 -659 654 -846 27 -38 100
-143 163 -233 63 -90 154 -225 203 -300 90 -139 241 -388 241 -396 0 -3 16
-30 36 -60 106 -166 383 -714 482 -955 33 -80 88 -210 122 -290 129 -302 221
-580 339 -1020 66 -251 152 -628 171 -755 6 -38 22 -131 35 -205 14 -74 34
-225 45 -335 12 -110 25 -238 31 -285 5 -47 12 -263 15 -480 8 -477 -2 -663
-62 -1145 -36 -299 -175 -960 -234 -1119 -12 -30 -28 -60 -37 -67 -13 -11 -18
-10 -33 8 -17 21 -39 107 -121 468 -95 415 -247 885 -396 1220 -84 190 -188
414 -213 460 -15 28 -81 156 -147 285 -158 309 -261 493 -449 798 -74 119
-279 427 -341 512 -34 47 -72 99 -83 115 -79 114 -220 292 -488 614 -250 301
-803 873 -1072 1110 -174 153 -494 424 -615 522 -111 90 -369 281 -500 373
-246 171 -641 430 -755 496 -127 73 -157 97 -179 143 -20 42 -22 65 -31 578
-13 708 -28 1198 -41 1323 -21 213 -64 384 -144 567 -107 246 -271 465 -463
617 -190 150 -392 243 -630 292 -259 52 -551 31 -830 -61 -107 -36 -264 -113
-370 -183 -135 -90 -298 -259 -415 -433 -121 -180 -211 -409 -241 -615 -19
-129 -36 -322 -36 -411 0 -84 -19 -134 -54 -143 -30 -7 -95 1 -176 22 -125 32
-284 67 -425 94 -82 16 -226 45 -320 65 -208 43 -465 88 -690 120 -94 13 -213
31 -265 39 -52 9 -171 25 -265 35 -93 11 -228 27 -300 35 -351 41 -908 83
-1300 97 -357 13 -812 6 -1170 -16 -340 -22 -614 -44 -750 -60 -578 -69 -676
-82 -1015 -136 -144 -23 -556 -105 -775 -154 -324 -74 -638 -156 -739 -195
-15 -5 -43 -10 -61 -10 -61 0 -67 19 -76 278 -9 271 -23 360 -81 542 -59 184
-145 362 -238 492 -65 91 -264 287 -346 340 -79 51 -201 115 -284 146 -96 37
-271 80 -388 97 -205 28 -439 15 -646 -35 -263 -63 -456 -175 -637 -368 -128
-136 -263 -358 -332 -547 -34 -91 -73 -233 -87 -313 -26 -147 -31 -300 -39
-1107 -6 -579 -13 -862 -20 -887 -7 -21 -23 -51 -37 -67 -14 -17 -78 -63 -142
-103 -220 -137 -734 -488 -1071 -732 -165 -120 -405 -317 -626 -516 -207 -186
-835 -815 -986 -986 -68 -77 -151 -172 -185 -210 -174 -199 -377 -448 -489
-600 -33 -45 -119 -160 -191 -255 -200 -266 -287 -394 -422 -619 -103 -172
-192 -331 -257 -460 -124 -246 -255 -510 -255 -515 0 -2 -15 -37 -34 -77 -102
-220 -175 -411 -318 -833 -141 -413 -140 -412 -259 -880 -45 -176 -88 -333
-96 -348 -8 -16 -20 -27 -26 -24 -27 9 -57 75 -95 214 -69 247 -146 619 -176
853 -33 254 -63 663 -76 1035 -13 394 10 918 56 1255 17 127 80 475 120 670
28 135 110 472 148 610 44 159 127 425 176 565 86 248 122 341 233 600 36 85
196 405 285 570 157 291 410 696 597 955 11 15 45 62 75 104 152 210 380 509
472 618 57 66 116 137 133 157 32 39 178 203 259 291 148 160 682 683 827 809
165 144 772 634 829 670 27 17 146 103 355 256 116 86 557 382 682 459 27 16
71 44 98 61 28 17 82 50 120 72 39 22 108 63 155 91 86 51 336 189 488 269 45
24 137 68 205 97 67 30 196 86 287 126 91 40 212 92 270 115 58 23 168 68 245
100 183 76 254 103 465 182 411 153 675 236 1140 363 290 79 314 85 710 179
418 99 1183 208 1825 261 138 11 300 24 360 30 161 14 572 39 785 49 264 11
1158 12 1466 1z m-6471 -3359 c96 -46 156 -113 195 -216 20 -53 24 -87 31
-310 5 -137 9 -1256 10 -2486 0 -1611 -3 -2259 -11 -2318 -38 -280 -158 -417
-361 -415 -49 1 -81 8 -125 28 -33 15 -72 39 -87 54 -37 35 -73 96 -87 150
-16 63 -17 5251 0 5312 13 50 58 120 104 161 47 43 120 68 201 68 57 1 81 -4
130 -28z m11545 -54 c30 -13 74 -41 97 -61 55 -48 100 -141 112 -231 6 -42 10
-1082 12 -2575 1 -1861 -1 -2519 -10 -2560 -26 -125 -110 -229 -217 -269 -74
-28 -175 -28 -251 1 -41 15 -75 38 -115 79 -32 32 -67 78 -77 103 -45 104 -46
112 -47 1126 -1 531 -3 1667 -5 2525 -3 1234 -1 1570 9 1608 19 75 51 133 95
178 44 44 74 62 152 91 68 25 170 19 245 -15z m-5215 -1402 c471 -40 686 -60
865 -81 274 -31 676 -82 709 -89 15 -3 112 -16 216 -30 105 -13 246 -34 315
-45 171 -29 522 -96 655 -126 390 -86 478 -107 565 -134 96 -30 134 -55 156
-105 5 -12 9 -753 9 -1755 l0 -1735 27 -140 c15 -77 43 -188 63 -245 53 -152
157 -342 248 -450 16 -19 70 -77 120 -128 142 -145 331 -263 570 -356 202 -80
393 -116 602 -116 306 1 621 98 877 271 119 81 296 257 371 370 133 200 237
474 276 724 29 187 34 315 38 1108 5 781 6 828 23 850 l18 22 54 -26 c45 -23
359 -252 524 -383 29 -23 81 -63 115 -91 93 -73 527 -445 617 -529 120 -112
570 -571 658 -671 89 -100 313 -368 386 -460 26 -33 85 -107 131 -165 104
-131 172 -227 324 -455 188 -281 211 -319 312 -505 82 -149 121 -230 216 -445
7 -16 41 -90 74 -163 70 -152 117 -261 194 -452 30 -74 76 -187 102 -250 26
-63 75 -200 111 -305 130 -389 198 -665 278 -1130 64 -372 106 -713 127 -1035
15 -241 7 -768 -15 -900 -20 -122 -49 -225 -84 -297 -33 -68 -132 -228 -202
-328 -99 -140 -428 -547 -577 -713 -81 -91 -386 -403 -558 -571 -147 -143
-192 -184 -450 -402 -357 -302 -425 -356 -672 -540 -142 -105 -274 -204 -293
-218 -37 -29 -368 -248 -480 -318 -182 -114 -578 -350 -695 -414 -33 -17 -109
-60 -170 -94 -149 -84 -335 -181 -404 -209 -31 -13 -94 -41 -141 -61 -164 -71
-299 -127 -495 -204 -71 -29 -143 -58 -160 -65 -138 -63 -535 -213 -840 -317
-159 -55 -312 -109 -340 -119 -101 -38 -587 -191 -809 -255 -364 -104 -885
-229 -1181 -284 -287 -53 -741 -117 -1080 -151 -311 -31 -445 -82 -545 -203
-24 -29 -55 -79 -71 -112 -34 -71 -79 -250 -149 -590 -29 -137 -65 -304 -80
-370 -15 -66 -31 -140 -35 -165 -4 -25 -20 -103 -35 -175 -16 -71 -43 -193
-59 -270 -17 -77 -42 -192 -56 -255 -38 -169 -73 -328 -105 -480 -15 -74 -37
-175 -48 -225 -12 -49 -42 -187 -67 -305 -26 -118 -53 -242 -60 -275 -8 -33
-28 -125 -45 -205 -17 -80 -44 -201 -60 -270 -16 -69 -43 -186 -59 -260 -43
-193 -106 -431 -124 -466 -20 -39 -44 -59 -92 -74 -30 -10 -95 -12 -261 -7
-256 7 -293 15 -323 76 -16 30 -78 299 -166 711 -32 151 -76 349 -110 505 -20
88 -47 211 -61 274 -13 62 -33 148 -44 190 -22 90 -54 230 -156 681 -41 184
-89 394 -105 465 -17 72 -41 177 -54 235 -13 58 -40 175 -60 260 -20 85 -49
214 -65 285 -72 332 -125 537 -170 654 -16 42 -50 105 -75 139 -80 110 -171
161 -353 197 -65 13 -211 31 -327 40 -363 28 -684 73 -1115 156 -360 70 -844
191 -1275 319 -52 16 -198 61 -580 181 -49 15 -178 58 -285 94 -107 37 -220
75 -250 85 -30 9 -127 45 -215 80 -394 152 -498 196 -862 361 -84 38 -154 69
-157 69 -8 0 -263 122 -421 202 -402 202 -841 453 -1146 655 -93 62 -164 113
-474 343 -209 155 -840 667 -880 714 -5 7 -53 50 -105 96 -222 198 -612 596
-885 905 -44 50 -82 92 -85 95 -3 3 -46 55 -96 115 -166 201 -512 693 -641
910 -54 91 -90 200 -102 311 -17 153 -34 663 -27 804 32 625 116 1187 253
1685 61 221 215 670 314 915 142 353 308 671 659 1265 58 98 137 215 266 395
46 63 93 130 106 148 23 33 153 200 283 367 86 109 301 366 385 460 257 288
344 380 509 546 176 176 250 244 581 539 96 86 209 183 250 216 215 171 577
437 637 468 45 23 80 21 95 -6 10 -18 13 -193 13 -838 0 -712 3 -833 18 -960
25 -206 39 -285 83 -455 38 -148 149 -385 235 -502 139 -189 260 -299 439
-400 123 -70 340 -143 483 -162 99 -14 371 -14 457 -1 248 39 510 142 719 282
103 70 277 241 353 349 91 128 163 272 197 391 36 125 44 165 76 383 14 94 31
188 37 210 8 29 13 481 17 1655 6 1594 6 1615 26 1643 11 15 36 36 56 47 32
17 265 88 404 123 33 9 94 24 135 35 41 11 140 34 220 52 80 17 192 42 250 55
258 57 714 137 1145 199 338 49 854 100 1185 116 174 8 1321 4 1435 -5z
m17079 -12080 c9 -24 -11 -151 -55 -344 -82 -365 -251 -940 -391 -1326 -22
-60 -53 -148 -70 -195 -37 -104 -145 -378 -271 -685 -180 -439 -340 -783 -584
-1250 -188 -359 -400 -754 -470 -875 -31 -52 -81 -138 -111 -190 -72 -125
-303 -490 -417 -660 -81 -121 -414 -582 -505 -701 -196 -255 -356 -447 -539
-649 -178 -194 -445 -485 -502 -545 -31 -33 -108 -114 -171 -180 -63 -66 -190
-201 -282 -300 -173 -185 -291 -302 -526 -524 -302 -284 -378 -352 -635 -565
-38 -32 -79 -65 -90 -75 -20 -16 -520 -416 -630 -503 -126 -100 -358 -266
-630 -453 -71 -49 -152 -105 -180 -125 -27 -20 -135 -90 -240 -155 -104 -65
-219 -137 -255 -160 -385 -248 -749 -456 -1195 -682 -88 -45 -212 -109 -275
-143 -63 -33 -146 -76 -185 -94 -38 -18 -117 -56 -175 -83 -58 -28 -193 -88
-300 -133 -107 -45 -235 -100 -285 -122 -49 -22 -128 -56 -175 -75 -119 -49
-180 -75 -295 -123 -102 -43 -180 -74 -340 -136 -323 -125 -508 -189 -760
-264 -77 -23 -210 -64 -295 -90 -85 -27 -173 -53 -195 -59 -22 -5 -87 -23
-145 -41 -115 -35 -672 -179 -815 -211 -49 -11 -144 -33 -210 -49 -248 -60
-336 -80 -535 -119 -248 -48 -425 -80 -670 -120 -272 -45 -839 -125 -965 -136
-38 -4 -113 -13 -165 -20 -162 -24 -260 -34 -410 -45 -80 -6 -219 -17 -310
-25 -91 -8 -239 -20 -330 -26 -251 -17 -1379 -23 -1743 -10 -308 12 -749 36
-837 46 -25 3 -144 12 -265 20 -121 9 -276 22 -345 30 -69 8 -181 19 -250 25
-69 6 -168 17 -220 25 -52 8 -169 24 -260 35 -330 41 -863 127 -1205 195 -390
77 -799 179 -1465 365 -255 71 -891 273 -1010 321 -25 10 -207 79 -405 153
-327 122 -615 235 -800 314 -348 149 -736 329 -1040 483 -287 145 -807 426
-940 507 -49 30 -175 108 -280 172 -104 64 -228 141 -275 169 -47 29 -129 80
-182 114 -109 70 -668 445 -798 537 -47 33 -96 68 -110 78 -94 65 -216 154
-275 201 -488 383 -964 783 -1265 1061 -185 170 -303 289 -509 510 -85 91
-191 203 -236 250 -44 47 -135 146 -202 220 -66 74 -198 222 -294 328 -254
283 -407 463 -574 677 -33 43 -96 123 -140 179 -81 102 -218 283 -245 323 -8
12 -49 68 -90 125 -41 56 -110 155 -154 218 -85 125 -440 660 -499 752 -47 74
-451 769 -504 868 -22 41 -63 117 -92 168 -67 122 -268 524 -332 665 -28 62
-65 141 -82 177 -16 36 -50 112 -74 170 -25 58 -69 164 -99 235 -98 232 -150
371 -295 790 -100 288 -123 357 -190 575 -151 490 -256 882 -266 993 -5 56 -3
67 10 67 20 0 60 -57 211 -304 70 -115 148 -241 174 -280 25 -39 55 -87 67
-106 12 -19 82 -125 155 -235 145 -218 339 -481 516 -700 477 -592 583 -721
673 -820 138 -151 204 -226 247 -280 90 -111 216 -249 463 -505 135 -140 291
-302 345 -360 142 -150 416 -420 591 -581 146 -134 260 -228 500 -414 64 -49
170 -133 235 -185 64 -52 181 -144 259 -205 522 -405 723 -554 926 -691 66
-45 140 -95 165 -113 48 -33 616 -412 710 -473 123 -80 283 -179 425 -262 83
-49 198 -118 257 -153 114 -68 363 -208 543 -305 117 -64 735 -375 945 -476
372 -179 765 -352 1105 -487 94 -37 224 -89 290 -115 66 -27 224 -88 350 -136
127 -48 264 -100 305 -116 155 -60 426 -152 789 -269 207 -66 426 -136 486
-156 144 -46 456 -133 675 -188 309 -77 501 -121 890 -204 108 -23 437 -83
740 -135 192 -33 757 -117 880 -131 30 -3 118 -15 195 -25 77 -11 214 -26 305
-35 91 -9 244 -25 340 -35 96 -11 245 -24 330 -30 85 -6 211 -15 280 -20 500
-41 546 -42 1130 -42 551 1 894 10 1265 32 88 5 296 16 463 25 166 8 346 20
400 25 53 5 192 19 307 30 252 25 668 78 935 121 306 48 713 117 850 144 69
13 211 41 315 60 306 58 761 167 1180 282 247 68 331 93 615 182 479 150 907
296 1220 416 96 36 225 84 285 106 61 22 135 51 165 64 30 14 147 61 260 106
113 45 237 94 275 109 39 15 106 44 150 65 44 20 118 52 165 72 242 100 530
240 1785 866 659 328 964 505 1387 804 68 47 220 152 338 232 223 150 243 164
356 245 107 76 344 252 635 471 175 132 319 244 430 337 271 226 686 586 783
678 55 52 141 133 191 180 236 221 683 680 916 939 160 178 560 656 789 941
46 58 87 107 90 110 10 9 146 185 185 240 22 30 60 80 85 111 81 100 261 348
388 534 105 153 281 459 464 805 148 279 185 341 217 367 21 16 28 16 35 -2z"/>
  </g>
</svg>