<svg xmlns="http://www.w3.org/2000/svg" viewBox="0 0 4096.000000 4096.000000">
  <g transform="translate(0.000000,4096.000000) scale(0.100000,-0.100000)" fill="#f4f5f7" stroke="none">
    <path d="M20330 39271 c-51 -7 -154 -41 -224 -73 -16 -7 -61 -30 -100 -51 -39
-20 -107 -55 -151 -77 -44 -22 -87 -45 -95 -50 -8 -5 -31 -17 -50 -25 -44 -20
-90 -43 -110 -56 -8 -5 -26 -14 -40 -19 -14 -6 -32 -14 -40 -19 -8 -6 -73 -40
-145 -76 -71 -37 -170 -88 -220 -114 -49 -27 -166 -88 -260 -135 -93 -48 -177
-91 -185 -96 -8 -5 -49 -25 -90 -46 -77 -38 -134 -67 -160 -84 -14 -8 -32 -17
-115 -57 -16 -8 -37 -18 -45 -24 -8 -5 -26 -14 -40 -19 -14 -6 -32 -15 -40
-20 -8 -6 -28 -16 -45 -24 -49 -22 -58 -26 -110 -55 -27 -16 -104 -56 -170
-90 -113 -59 -146 -76 -205 -108 -14 -7 -79 -40 -145 -74 -66 -33 -178 -92
-250 -129 -71 -38 -148 -78 -170 -90 -22 -11 -80 -42 -130 -69 -88 -48 -310
-163 -363 -189 -15 -7 -34 -17 -42 -22 -8 -5 -91 -48 -185 -95 -93 -48 -181
-93 -195 -100 -14 -7 -36 -18 -50 -24 -14 -6 -32 -15 -40 -20 -8 -6 -67 -35
-130 -67 -63 -31 -137 -69 -165 -85 -27 -15 -61 -33 -75 -38 -14 -6 -32 -15
-40 -21 -8 -5 -51 -28 -95 -51 -44 -22 -91 -47 -105 -54 -14 -7 -36 -18 -50
-24 -14 -6 -47 -25 -75 -41 -27 -16 -57 -32 -65 -35 -36 -16 -111 -53 -130
-66 -8 -5 -33 -18 -55 -29 -22 -11 -47 -24 -55 -28 -55 -32 -155 -84 -265
-138 -16 -8 -37 -19 -45 -24 -8 -5 -73 -39 -145 -75 -71 -36 -137 -70 -145
-75 -8 -6 -26 -15 -40 -20 -14 -6 -65 -33 -115 -60 -49 -27 -126 -68 -170 -90
-44 -23 -87 -45 -95 -50 -8 -5 -49 -25 -90 -45 -41 -20 -133 -68 -205 -105
-71 -38 -188 -99 -260 -135 -71 -36 -137 -70 -145 -75 -8 -5 -28 -15 -45 -23
-33 -16 -201 -103 -225 -116 -8 -5 -26 -14 -40 -20 -14 -6 -47 -25 -75 -41
-27 -16 -57 -32 -65 -35 -34 -15 -61 -28 -185 -94 -71 -38 -206 -108 -300
-156 -93 -48 -192 -100 -220 -114 -27 -15 -142 -75 -255 -133 -113 -59 -243
-127 -290 -152 -47 -25 -123 -65 -170 -89 -47 -25 -143 -75 -215 -111 -71 -37
-137 -72 -145 -76 -14 -8 -36 -19 -115 -57 -16 -8 -37 -19 -45 -24 -8 -5 -33
-18 -55 -29 -22 -11 -47 -24 -55 -29 -8 -5 -26 -14 -40 -20 -14 -6 -32 -15
-40 -21 -8 -5 -26 -15 -40 -21 -14 -5 -70 -34 -125 -63 -55 -30 -154 -82 -220
-116 -66 -34 -178 -93 -250 -130 -71 -37 -247 -128 -390 -200 -143 -73 -300
-154 -350 -181 -49 -26 -144 -75 -210 -109 -195 -101 -336 -175 -405 -213 -36
-20 -101 -55 -145 -78 -44 -22 -91 -47 -105 -54 -14 -7 -36 -18 -50 -24 -14
-7 -101 -52 -195 -101 -93 -49 -190 -100 -215 -113 -25 -13 -88 -46 -140 -74
-52 -28 -167 -87 -255 -133 -88 -45 -185 -95 -215 -112 -30 -16 -107 -56 -170
-89 -63 -33 -122 -64 -130 -69 -8 -5 -28 -15 -45 -23 -16 -8 -68 -35 -115 -61
-83 -45 -110 -58 -140 -70 -8 -4 -78 -40 -155 -80 -128 -68 -370 -193 -434
-224 -14 -7 -33 -17 -41 -22 -13 -8 -86 -44 -160 -79 -14 -7 -65 -34 -115 -61
-49 -27 -126 -67 -170 -90 -44 -22 -138 -72 -210 -110 -71 -38 -141 -75 -155
-81 -14 -6 -34 -16 -44 -21 -11 -6 -72 -37 -135 -71 -64 -33 -163 -85 -221
-115 -58 -30 -161 -84 -230 -120 -69 -35 -161 -84 -205 -108 -44 -24 -98 -53
-120 -64 -22 -11 -47 -24 -55 -29 -8 -5 -33 -18 -55 -29 -22 -10 -76 -39 -120
-62 -44 -24 -136 -72 -205 -107 -69 -35 -132 -68 -140 -73 -14 -8 -33 -18
-115 -57 -16 -8 -37 -18 -45 -23 -8 -5 -109 -57 -225 -115 -240 -123 -264
-135 -285 -147 -14 -8 -55 -29 -125 -64 -16 -8 -37 -19 -45 -25 -8 -5 -33 -18
-55 -29 -22 -11 -98 -51 -170 -89 -71 -38 -224 -118 -340 -177 -115 -58 -250
-128 -300 -155 -49 -28 -106 -57 -125 -65 -19 -9 -45 -25 -59 -35 -13 -10 -31
-19 -40 -19 -10 0 -23 -6 -29 -12 -14 -14 -167 -96 -437 -233 -93 -48 -183
-94 -200 -103 -52 -27 -68 -35 -140 -69 -38 -19 -77 -38 -85 -43 -8 -5 -49
-26 -90 -47 -41 -20 -86 -44 -100 -53 -89 -59 -111 -75 -160 -122 -125 -119
-225 -300 -264 -478 -20 -92 -21 -245 -1 -325 8 -33 15 -71 15 -85 0 -14 12
-47 25 -75 14 -27 25 -56 25 -63 0 -19 59 -121 107 -183 50 -67 155 -165 198
-185 17 -8 55 -30 85 -48 30 -19 67 -38 82 -41 15 -4 30 -10 33 -15 3 -5 45
-28 93 -53 90 -45 432 -221 652 -334 69 -36 166 -86 215 -113 50 -26 126 -67
170 -90 44 -23 121 -64 170 -91 50 -27 108 -58 130 -69 22 -11 47 -24 55 -28
8 -5 29 -16 45 -24 347 -179 538 -278 555 -289 8 -5 26 -13 40 -19 14 -5 32
-14 40 -19 8 -6 29 -16 45 -24 57 -27 374 -194 490 -257 84 -47 133 -73 164
-88 14 -7 33 -17 41 -22 8 -5 92 -48 185 -96 392 -199 744 -381 880 -453 94
-51 271 -144 415 -218 47 -24 92 -48 100 -53 8 -5 49 -26 90 -45 41 -20 152
-76 245 -124 94 -49 230 -119 303 -157 73 -38 172 -90 220 -116 48 -25 105
-56 127 -67 22 -12 76 -41 120 -65 44 -25 116 -64 160 -86 168 -88 220 -119
220 -130 0 -6 -40 -32 -90 -57 -49 -25 -99 -50 -110 -56 -44 -24 -198 -103
-223 -115 -15 -7 -34 -17 -42 -22 -8 -5 -51 -28 -95 -51 -73 -37 -204 -107
-295 -157 -32 -17 -94 -50 -293 -156 -42 -22 -117 -62 -165 -87 -48 -26 -204
-106 -347 -179 -143 -73 -323 -165 -400 -206 -154 -81 -186 -97 -230 -120 -16
-8 -37 -19 -45 -24 -8 -5 -53 -29 -100 -53 -47 -24 -125 -66 -175 -92 -98 -52
-221 -116 -330 -172 -38 -19 -77 -39 -85 -44 -8 -5 -73 -38 -145 -74 -71 -36
-137 -70 -145 -75 -8 -4 -44 -23 -80 -41 -36 -18 -87 -46 -115 -61 -27 -15
-61 -33 -75 -39 -14 -6 -32 -15 -40 -20 -14 -9 -47 -26 -125 -65 -16 -8 -37
-19 -45 -24 -8 -5 -53 -29 -100 -53 -47 -24 -143 -75 -215 -112 -132 -70 -517
-267 -635 -326 -36 -18 -105 -55 -155 -83 -49 -27 -153 -82 -230 -121 -77 -40
-178 -93 -225 -118 -47 -25 -161 -85 -255 -132 -93 -48 -181 -93 -195 -100
-14 -7 -36 -18 -50 -24 -14 -6 -32 -15 -40 -20 -8 -6 -49 -26 -90 -46 -41 -20
-93 -47 -115 -60 -22 -13 -56 -33 -75 -44 -62 -35 -260 -252 -260 -285 0 -7
-9 -24 -19 -38 -11 -13 -23 -38 -27 -54 -4 -16 -15 -45 -26 -64 -10 -19 -18
-48 -18 -65 0 -16 -7 -59 -16 -95 -43 -178 0 -405 115 -604 49 -84 156 -201
231 -253 50 -33 140 -84 270 -150 47 -24 144 -75 215 -114 72 -38 148 -78 170
-89 22 -11 47 -24 55 -28 8 -5 31 -17 50 -27 19 -9 110 -56 203 -104 92 -47
180 -92 195 -99 15 -7 34 -17 42 -22 8 -5 53 -29 100 -53 47 -24 117 -61 155
-82 39 -21 95 -52 125 -68 30 -15 96 -50 145 -77 105 -56 246 -129 284 -148
14 -7 33 -17 41 -23 8 -5 33 -18 55 -29 22 -11 47 -24 55 -29 8 -5 49 -26 90
-46 41 -20 127 -63 190 -95 63 -32 121 -61 130 -64 8 -3 56 -28 105 -56 50
-28 108 -60 130 -70 22 -11 58 -31 80 -45 22 -13 47 -27 55 -30 28 -12 55 -26
105 -55 28 -16 61 -34 75 -39 14 -6 32 -16 40 -21 8 -6 33 -19 55 -30 22 -11
47 -24 55 -29 8 -5 44 -24 80 -42 294 -148 741 -380 945 -489 98 -53 232 -123
280 -146 17 -8 37 -19 45 -24 8 -5 74 -39 145 -76 72 -37 188 -96 258 -133 71
-36 140 -72 155 -79 15 -7 34 -17 42 -22 8 -5 74 -39 145 -75 128 -66 150 -78
310 -164 44 -24 136 -73 205 -109 69 -36 145 -76 170 -89 25 -13 68 -36 95
-51 28 -15 50 -33 50 -41 0 -8 -14 -18 -31 -23 -17 -4 -37 -15 -44 -23 -7 -8
-18 -15 -24 -15 -11 0 -456 -222 -543 -272 -27 -15 -59 -32 -73 -38 -14 -7
-36 -18 -50 -25 -14 -7 -61 -32 -105 -54 -44 -23 -87 -45 -95 -50 -8 -4 -28
-15 -45 -24 -16 -9 -41 -22 -55 -28 -14 -6 -32 -15 -40 -20 -27 -15 -181 -95
-445 -229 -374 -190 -496 -254 -533 -277 -18 -11 -121 -65 -227 -119 -107 -55
-233 -119 -280 -144 -47 -25 -140 -73 -208 -108 -67 -34 -133 -69 -147 -76
-14 -8 -36 -19 -50 -25 -39 -19 -84 -41 -100 -51 -8 -5 -51 -28 -95 -50 -44
-23 -91 -47 -105 -55 -14 -8 -32 -17 -40 -20 -8 -3 -37 -19 -65 -35 -27 -15
-104 -56 -170 -90 -202 -105 -296 -154 -390 -204 -169 -92 -260 -139 -475
-248 -118 -61 -251 -130 -295 -154 -144 -78 -162 -88 -287 -152 -68 -34 -134
-69 -148 -77 -14 -8 -36 -20 -50 -26 -14 -5 -83 -41 -155 -79 -128 -68 -370
-193 -423 -218 -15 -7 -34 -17 -42 -22 -8 -5 -44 -24 -80 -41 -79 -38 -242
-131 -290 -165 -54 -39 -138 -122 -179 -178 -99 -134 -171 -363 -171 -538 0
-48 4 -98 10 -113 5 -14 14 -54 20 -89 13 -83 76 -232 129 -306 40 -55 111
-131 171 -181 49 -41 278 -179 297 -179 5 0 40 -17 78 -37 39 -19 84 -42 100
-50 17 -8 37 -19 45 -24 14 -8 43 -24 125 -65 17 -8 37 -19 45 -24 8 -5 53
-29 100 -53 149 -76 393 -203 455 -237 33 -18 114 -61 180 -95 109 -56 187
-98 330 -176 28 -15 109 -57 180 -94 72 -36 229 -117 350 -180 121 -63 231
-119 245 -125 14 -5 32 -14 40 -20 8 -5 51 -28 95 -50 44 -23 103 -54 130 -70
28 -16 61 -34 75 -40 14 -5 32 -14 40 -20 8 -5 53 -29 100 -53 47 -24 123 -64
170 -89 227 -120 348 -183 375 -195 17 -8 37 -18 45 -23 8 -5 74 -39 145 -75
72 -37 137 -71 145 -76 8 -5 26 -13 40 -19 14 -5 32 -14 40 -19 8 -6 29 -16
45 -24 56 -26 190 -99 205 -112 8 -7 25 -16 38 -20 13 -4 50 -22 82 -40 32
-18 69 -37 82 -40 13 -4 34 -15 48 -25 14 -10 59 -34 100 -54 41 -21 134 -68
205 -105 135 -72 377 -196 423 -219 15 -7 34 -17 42 -22 8 -5 74 -39 145 -75
72 -37 148 -77 170 -90 22 -13 47 -27 55 -31 38 -17 157 -75 170 -84 8 -5 29
-15 45 -23 17 -8 86 -44 155 -80 69 -36 184 -96 255 -132 72 -37 171 -89 220
-115 50 -26 167 -87 262 -136 95 -49 212 -110 260 -136 48 -26 99 -52 113 -57
14 -6 34 -16 45 -23 23 -13 39 -21 75 -37 14 -6 88 -44 165 -85 77 -40 194
-101 260 -135 66 -34 156 -82 200 -105 193 -104 410 -218 463 -244 15 -7 34
-17 42 -23 8 -5 26 -14 40 -19 14 -6 32 -14 40 -20 8 -5 54 -30 103 -55 198
-102 276 -144 547 -288 25 -13 86 -45 135 -72 50 -26 146 -77 215 -112 69 -35
132 -68 140 -73 8 -5 44 -23 80 -41 36 -18 88 -45 115 -60 64 -34 209 -110
244 -127 14 -7 33 -17 41 -22 14 -9 254 -131 308 -158 15 -7 34 -17 42 -23 8
-5 26 -14 40 -20 26 -11 32 -15 110 -57 25 -14 83 -45 130 -70 284 -149 343
-180 420 -219 47 -24 92 -48 100 -52 8 -5 26 -14 40 -20 36 -17 83 -41 100
-51 18 -10 268 -139 308 -158 15 -7 34 -17 42 -22 8 -5 53 -29 100 -53 47 -24
117 -61 155 -82 39 -21 95 -52 125 -67 30 -16 62 -33 70 -38 8 -6 26 -15 40
-21 14 -5 48 -23 75 -38 50 -29 194 -105 244 -129 14 -7 33 -17 41 -22 18 -11
262 -136 305 -157 17 -8 37 -18 45 -23 8 -4 128 -65 265 -135 138 -70 295
-151 350 -181 55 -29 114 -60 130 -69 17 -8 71 -37 120 -64 50 -28 146 -79
215 -114 69 -35 184 -95 255 -132 72 -38 144 -75 160 -82 17 -8 37 -18 45 -23
19 -12 186 -98 225 -117 17 -8 37 -18 45 -24 8 -5 26 -14 40 -19 14 -6 32 -14
40 -20 8 -5 51 -28 95 -51 44 -22 93 -48 110 -57 150 -84 299 -164 445 -239
208 -107 558 -288 685 -353 66 -34 161 -84 210 -111 50 -27 108 -58 130 -69
22 -11 81 -42 130 -69 50 -27 126 -68 170 -90 44 -23 139 -72 210 -111 72 -38
141 -74 155 -80 14 -5 36 -16 50 -24 14 -7 120 -62 235 -120 116 -59 217 -111
225 -117 8 -5 26 -14 40 -20 14 -6 48 -23 75 -39 28 -16 61 -34 75 -40 14 -5
32 -15 40 -20 8 -6 33 -20 55 -31 22 -11 63 -32 90 -47 28 -16 79 -43 115 -61
36 -18 72 -37 80 -41 8 -5 69 -37 135 -71 66 -33 143 -74 170 -89 28 -16 61
-34 75 -39 14 -6 32 -15 40 -21 8 -5 35 -20 60 -33 25 -12 97 -50 160 -84 471
-249 582 -304 670 -330 58 -18 117 -28 187 -31 84 -3 114 -1 172 17 38 11 74
21 81 21 13 0 101 39 185 83 33 17 80 42 105 55 25 12 52 26 60 31 8 5 46 24
83 42 38 19 112 57 165 86 53 28 129 68 167 88 39 21 111 59 160 85 50 27 167
87 260 134 94 48 211 109 260 135 101 55 170 92 465 243 113 59 248 129 300
156 52 28 154 80 225 117 72 36 193 99 270 140 77 41 147 77 155 80 34 15 57
27 95 49 22 14 76 43 120 66 44 23 121 64 170 90 50 27 101 54 115 59 14 6 32
15 40 21 8 5 56 30 105 55 50 25 149 77 220 114 192 101 294 154 324 169 14 7
33 17 41 22 8 5 56 30 105 54 50 25 126 66 170 90 44 25 116 64 160 87 44 23
143 74 220 114 77 40 194 101 260 135 66 35 161 84 210 111 50 26 167 86 260
134 94 47 211 108 260 135 50 26 167 87 260 135 94 47 177 90 185 96 8 5 26
14 40 19 14 6 66 33 115 60 50 27 126 68 170 90 241 125 379 197 405 212 8 5
31 15 50 23 19 9 42 20 50 25 8 6 33 19 55 30 22 11 63 33 90 50 48 28 76 43
140 76 17 8 37 19 45 24 8 5 51 27 95 50 44 23 125 65 180 95 55 29 232 119
392 201 360 183 469 240 538 277 17 9 44 24 60 33 17 8 71 37 120 64 84 44
323 168 384 198 14 7 33 17 41 22 8 5 74 39 145 76 72 37 188 96 258 133 71
36 140 72 155 79 15 7 34 17 42 23 8 5 33 18 55 29 22 11 47 24 55 29 8 5 29
16 45 24 17 8 71 36 120 62 108 58 553 288 620 321 17 8 37 19 45 25 8 5 31
16 50 24 19 9 42 20 50 25 20 13 65 37 175 94 50 26 97 51 105 56 8 4 44 23
80 41 91 46 230 119 287 150 27 15 84 45 128 68 44 23 87 46 95 51 8 6 26 15
40 21 14 5 84 41 155 79 72 38 189 98 260 135 72 36 137 70 145 75 8 5 29 15
45 23 58 28 393 204 510 268 28 16 61 33 75 38 14 6 32 15 40 21 8 5 51 28 95
50 44 22 87 44 95 50 8 5 29 15 45 23 68 32 181 89 195 97 8 5 92 48 185 96
156 79 211 108 380 199 33 18 114 61 180 95 66 34 201 104 300 155 99 52 275
142 390 201 116 59 251 128 300 154 50 27 127 68 172 92 46 23 103 54 128 68
25 14 119 63 210 110 90 47 186 97 212 112 26 15 59 32 73 37 14 6 32 15 40
21 8 5 53 29 100 53 47 24 94 48 105 54 11 6 31 16 45 22 14 6 66 34 115 61
50 27 97 52 105 55 8 3 44 22 80 40 36 19 88 46 115 60 28 13 86 45 130 70 44
25 91 49 105 55 14 5 32 14 40 19 8 5 94 50 190 99 96 49 216 111 265 137 50
26 104 54 120 62 17 8 37 18 45 23 8 6 51 28 95 50 169 86 413 216 426 226 8
6 25 15 39 19 14 4 32 13 40 20 8 7 31 20 50 29 50 24 93 46 110 57 8 5 33 18
55 29 22 11 47 24 55 30 8 5 26 14 40 20 14 5 32 14 40 19 8 6 29 16 45 24 17
8 68 35 115 61 47 25 103 55 125 66 22 11 47 24 55 30 8 5 26 15 40 21 14 5
48 23 75 39 28 16 61 34 75 39 14 6 32 15 40 21 8 5 49 26 90 45 41 20 82 40
90 46 8 5 26 14 40 20 14 6 32 15 40 20 8 5 33 18 55 30 51 28 148 105 201
161 44 45 120 153 145 203 9 17 20 39 26 50 6 11 22 52 36 90 22 63 32 109 52
265 8 60 -27 267 -59 353 -34 90 -106 205 -169 274 -83 90 -200 170 -382 263
-44 22 -87 45 -95 50 -8 5 -49 26 -90 45 -41 20 -115 58 -165 84 -49 27 -121
65 -160 85 -38 20 -92 50 -120 65 -27 16 -126 68 -220 116 -151 77 -206 106
-371 197 -23 13 -84 44 -135 70 -52 26 -119 60 -149 76 -51 27 -176 90 -238
120 -15 7 -34 17 -42 22 -8 5 -51 28 -95 51 -44 22 -102 53 -130 69 -48 26
-160 86 -217 116 -16 8 -40 20 -55 28 -16 8 -86 44 -158 81 -71 36 -166 86
-210 110 -126 69 -241 128 -365 190 -63 31 -122 61 -130 65 -14 9 -172 90
-229 118 -14 7 -33 17 -41 23 -8 5 -33 18 -55 29 -22 11 -47 24 -55 29 -8 5
-26 14 -40 20 -41 20 -84 41 -100 52 -8 5 -31 16 -50 24 -19 9 -42 20 -50 25
-8 5 -31 19 -50 30 -19 11 -42 25 -50 30 -8 6 -26 14 -40 20 -14 5 -32 14 -40
20 -8 5 -31 16 -50 25 -19 8 -42 19 -50 25 -8 5 -26 15 -40 20 -14 6 -47 24
-75 40 -27 16 -61 33 -75 39 -14 6 -32 16 -40 21 -8 6 -26 15 -40 20 -14 6
-32 15 -40 20 -8 6 -26 15 -40 21 -14 6 -34 16 -45 22 -11 6 -33 17 -50 24
-16 8 -37 19 -45 24 -8 5 -25 14 -37 19 -13 6 -33 14 -45 20 -13 5 -30 14 -38
18 -34 20 -296 155 -369 190 -14 7 -33 17 -41 22 -8 5 -109 57 -225 116 -115
59 -250 128 -300 155 -49 26 -119 62 -155 79 -64 30 -90 43 -140 70 -14 7 -31
16 -38 19 -8 3 -14 11 -15 16 -1 10 8 15 78 49 67 32 211 106 225 116 8 5 26
15 40 21 14 5 48 23 75 38 28 16 82 45 120 66 39 21 93 50 120 66 28 15 104
55 170 89 66 34 131 68 145 76 14 7 39 20 55 28 56 28 110 56 125 64 36 21
217 115 268 140 15 7 34 17 42 22 8 5 110 57 227 117 235 120 259 132 388 203
81 44 314 164 383 198 15 7 34 17 42 22 8 5 51 28 95 50 44 22 87 44 95 50 8
5 29 15 45 23 29 14 289 148 460 237 44 23 98 53 120 66 22 13 81 44 130 69
50 25 97 50 105 55 8 6 26 15 40 20 14 6 86 42 160 81 265 140 522 273 630
328 36 18 74 38 85 44 11 6 58 31 105 55 47 24 103 55 125 68 22 13 58 33 80
44 22 11 99 51 170 89 72 38 189 99 260 136 72 36 137 70 145 75 8 6 26 15 40
20 14 6 66 33 115 60 50 27 167 88 260 135 251 128 315 162 334 179 10 9 21
16 24 16 7 0 82 55 127 94 28 24 115 125 146 171 25 37 75 142 102 215 30 82
55 235 50 310 -3 36 -10 99 -17 140 -13 76 -60 212 -89 259 -53 87 -86 133
-128 180 -50 55 -172 158 -214 179 -14 7 -47 25 -73 40 -49 28 -154 81 -197
101 -14 6 -32 15 -40 20 -8 5 -26 14 -40 20 -35 17 -80 39 -110 55 -14 8 -54
28 -90 46 -36 18 -72 36 -80 41 -8 5 -51 27 -95 50 -44 23 -102 54 -130 70
-27 16 -61 33 -75 39 -14 5 -32 15 -40 20 -8 6 -33 19 -55 30 -22 11 -98 51
-170 90 -71 38 -166 87 -210 109 -44 22 -91 47 -105 55 -14 7 -36 19 -50 25
-36 17 -83 41 -100 51 -18 10 -261 136 -305 157 -16 8 -37 19 -45 24 -8 5 -33
18 -55 29 -22 11 -47 24 -55 30 -8 5 -26 15 -40 21 -14 5 -47 22 -73 37 -54
30 -164 87 -187 96 -8 3 -37 19 -65 35 -27 16 -79 43 -115 61 -36 18 -74 37
-85 43 -84 45 -130 69 -275 144 -91 47 -172 89 -180 94 -8 5 -31 16 -50 24
-40 18 -88 42 -110 55 -8 5 -69 36 -135 70 -114 58 -210 108 -390 206 -44 23
-114 59 -155 79 -41 19 -82 40 -90 45 -19 12 -148 78 -312 162 -70 36 -133 70
-140 76 -7 6 -27 14 -43 18 -17 4 -36 11 -43 17 -11 9 -200 107 -297 154 -16
8 -37 19 -45 24 -8 5 -28 16 -45 24 -16 9 -52 29 -80 45 -27 16 -69 38 -91 49
-23 11 -45 24 -48 30 -4 6 -14 11 -23 11 -8 0 -28 11 -45 25 -16 14 -38 25
-48 25 -10 0 -22 5 -26 11 -3 6 -25 19 -48 30 -22 10 -48 23 -56 28 -8 5 -28
16 -45 24 -16 8 -91 46 -165 85 -74 38 -204 104 -287 146 -84 42 -153 80 -153
85 0 5 73 46 163 91 89 44 198 101 242 125 44 25 98 54 120 65 22 11 47 24 55
30 8 5 26 15 40 21 14 5 66 32 115 59 50 27 131 70 180 95 50 26 149 77 220
115 72 38 141 74 155 80 14 5 32 14 40 19 8 5 110 57 225 116 116 59 233 119
260 135 28 16 86 47 130 70 44 23 161 84 260 135 99 52 216 113 260 135 44 22
87 45 95 50 8 6 26 15 40 21 14 5 48 23 75 39 28 16 61 34 75 39 14 6 32 16
40 21 8 6 33 19 55 30 22 11 47 24 55 29 8 6 50 27 94 48 115 56 129 63 146
73 8 6 31 18 50 28 195 105 369 196 418 220 15 7 34 17 42 22 8 5 69 37 135
70 66 34 161 84 210 111 50 26 106 55 125 64 19 8 42 19 50 24 8 5 67 35 130
67 63 32 126 67 139 76 13 10 29 18 36 18 10 0 235 119 285 151 8 5 33 18 55
29 22 11 99 52 170 90 72 38 141 75 155 81 14 6 34 16 45 22 79 42 195 102
220 114 17 8 37 18 45 23 15 9 144 76 205 106 17 8 37 19 45 24 8 5 51 28 95
51 44 22 103 54 130 69 28 16 57 32 65 35 36 15 77 37 105 55 17 11 46 28 66
39 46 25 196 173 235 231 59 90 123 235 135 310 33 206 33 218 10 355 -13 71
-29 138 -36 150 -7 11 -16 33 -19 49 -4 17 -16 42 -27 57 -10 15 -19 31 -19
36 0 4 -16 31 -35 58 -20 28 -43 61 -52 75 -26 39 -154 160 -193 182 -19 10
-53 30 -75 43 -22 13 -89 48 -150 78 -309 153 -510 255 -553 279 -26 14 -65
35 -87 47 -22 11 -76 40 -120 65 -44 25 -136 74 -205 109 -69 35 -165 86 -215
112 -49 26 -103 54 -120 62 -16 8 -37 19 -45 24 -8 5 -26 14 -40 20 -14 6 -32
15 -40 20 -8 5 -31 16 -50 24 -19 9 -42 20 -50 25 -8 6 -33 19 -55 30 -22 11
-47 24 -55 28 -26 15 -72 39 -155 82 -44 23 -120 63 -170 90 -49 27 -126 67
-170 90 -44 23 -102 55 -130 71 -27 16 -57 32 -65 35 -8 3 -26 11 -40 19 -26
14 -278 143 -476 243 -62 32 -143 72 -180 90 -106 52 -128 62 -144 72 -8 5
-51 28 -95 50 -44 23 -102 54 -130 69 -134 72 -204 110 -221 118 -10 6 -32 18
-49 27 -16 9 -48 26 -70 36 -22 11 -47 24 -55 30 -8 5 -26 14 -40 20 -14 5
-32 14 -40 20 -8 5 -26 15 -40 21 -14 5 -47 23 -75 39 -27 16 -61 34 -75 39
-14 6 -32 15 -40 21 -8 5 -53 29 -100 53 -47 24 -98 52 -115 61 -16 9 -35 16
-41 16 -6 0 -17 7 -24 15 -7 8 -20 15 -29 15 -9 0 -27 7 -41 14 -30 17 -72 40
-240 128 -69 36 -163 86 -210 111 -47 25 -121 64 -165 86 -44 23 -121 63 -171
90 -126 67 -204 107 -234 120 -14 6 -61 31 -105 55 -44 24 -111 59 -150 78
-175 88 -444 227 -497 257 -26 14 -87 47 -135 72 -48 25 -146 76 -218 114 -71
37 -168 88 -215 112 -47 25 -125 66 -175 93 -49 27 -101 53 -115 59 -14 6 -32
16 -40 21 -8 6 -26 15 -40 20 -14 6 -32 15 -40 20 -8 6 -26 15 -40 21 -43 20
-147 73 -197 101 -26 15 -59 32 -73 37 -14 6 -32 16 -40 21 -8 6 -33 19 -55
30 -22 11 -76 41 -120 65 -44 25 -96 52 -115 60 -19 9 -42 20 -50 25 -8 6 -33
19 -55 30 -22 11 -47 24 -55 28 -39 23 -84 47 -195 103 -120 61 -158 81 -205
106 -14 7 -142 72 -285 144 -275 139 -404 207 -426 225 -8 6 -25 15 -39 19
-14 4 -32 13 -40 20 -8 7 -71 40 -140 74 -69 35 -165 84 -215 110 -49 26 -119
62 -155 80 -36 18 -72 37 -80 42 -8 5 -55 29 -105 54 -49 26 -115 59 -145 75
-30 15 -68 34 -85 43 -16 8 -88 45 -160 82 -71 37 -143 74 -160 83 -16 8 -41
24 -54 34 -13 10 -31 18 -40 18 -10 0 -23 6 -29 13 -14 14 -228 127 -342 182
-41 20 -82 40 -90 45 -8 5 -51 28 -95 50 -71 37 -104 54 -155 81 -8 5 -51 27
-95 50 -44 23 -102 54 -130 70 -27 16 -58 31 -68 35 -30 11 -238 119 -293 151
-28 17 -62 34 -75 38 -13 4 -31 13 -39 20 -8 7 -31 20 -50 29 -50 24 -93 46
-110 57 -8 5 -33 18 -55 29 -22 11 -47 24 -55 29 -13 9 -194 99 -278 139 -15
7 -34 17 -42 22 -8 5 -53 29 -100 53 -123 63 -252 132 -275 145 -11 7 -31 16
-45 22 -14 5 -32 14 -40 20 -8 5 -31 16 -50 25 -19 8 -53 25 -75 38 -49 28
-151 81 -185 96 -14 6 -61 31 -105 55 -44 25 -114 61 -155 82 -41 21 -86 45
-100 55 -14 9 -40 20 -57 24 -18 3 -35 11 -38 16 -4 5 -48 29 -98 54 -51 25
-99 49 -107 54 -8 5 -44 23 -80 41 -36 17 -105 53 -155 80 -49 27 -126 67
-170 89 -44 22 -118 62 -165 88 -94 51 -317 167 -425 220 -38 19 -77 38 -85
44 -8 5 -26 14 -40 20 -14 7 -76 37 -138 68 -62 31 -125 62 -140 69 -15 7 -34
17 -42 23 -8 5 -26 14 -40 20 -14 6 -36 17 -50 24 -64 33 -195 101 -219 113
-14 7 -33 17 -41 23 -8 5 -26 14 -40 20 -14 6 -32 15 -40 20 -8 5 -33 18 -55
30 -22 11 -62 33 -90 48 -57 32 -138 74 -175 91 -14 6 -46 23 -73 38 -26 15
-107 58 -180 95 -72 37 -139 72 -147 76 -8 5 -26 14 -40 20 -14 6 -32 15 -40
19 -23 13 -64 35 -195 102 -66 34 -165 86 -220 116 -55 30 -111 58 -125 64
-14 5 -32 15 -40 20 -14 10 -35 20 -70 35 -8 3 -37 19 -65 35 -27 15 -84 45
-125 65 -41 20 -82 40 -90 46 -8 5 -26 14 -40 20 -14 6 -32 15 -40 20 -8 4
-49 25 -90 46 -41 21 -86 45 -99 55 -13 10 -31 18 -41 18 -9 0 -25 9 -34 19
-10 11 -30 22 -44 26 -15 4 -34 12 -42 20 -8 7 -32 18 -52 24 -20 7 -41 18
-48 26 -6 7 -23 16 -37 20 -15 3 -38 15 -51 26 -14 10 -32 19 -41 19 -9 0 -27
7 -40 16 -22 16 -144 81 -206 111 -16 8 -37 19 -45 24 -14 8 -43 24 -125 65
-16 8 -37 19 -45 24 -54 32 -421 210 -433 210 -8 0 -35 9 -61 21 -38 17 -73
21 -189 24 -78 2 -167 0 -197 -4z m264 -1927 c39 -19 112 -57 161 -84 50 -27
101 -54 115 -60 60 -27 155 -76 500 -257 189 -100 666 -346 715 -370 17 -8 37
-18 45 -23 8 -5 69 -37 135 -71 66 -33 131 -67 145 -75 14 -7 37 -19 52 -26
30 -14 240 -123 323 -167 28 -15 79 -42 115 -60 36 -18 72 -37 80 -41 8 -5 56
-30 105 -55 50 -25 97 -50 105 -55 8 -6 26 -14 40 -20 14 -5 32 -14 40 -19 8
-6 27 -16 41 -23 51 -25 215 -110 304 -158 113 -60 407 -211 500 -257 39 -19
77 -38 85 -43 8 -5 69 -37 135 -70 66 -33 131 -67 145 -74 14 -8 36 -19 50
-26 14 -6 66 -33 115 -59 50 -27 126 -67 170 -90 44 -23 121 -64 170 -90 50
-27 185 -96 300 -155 116 -59 217 -112 225 -116 8 -5 31 -16 50 -25 19 -9 58
-29 85 -44 28 -16 122 -66 210 -111 88 -46 223 -115 300 -156 77 -40 176 -91
220 -114 44 -22 87 -45 95 -50 8 -5 27 -15 42 -22 45 -21 287 -146 381 -196
48 -26 160 -85 250 -131 89 -46 173 -90 187 -97 14 -8 36 -19 50 -24 14 -6 66
-32 115 -59 50 -27 144 -77 210 -111 66 -34 161 -84 210 -110 50 -26 144 -76
210 -110 66 -34 183 -94 260 -135 77 -40 174 -89 215 -109 41 -20 82 -41 90
-46 8 -5 42 -22 75 -37 33 -15 72 -35 87 -43 16 -8 83 -43 151 -78 67 -35 129
-67 137 -72 8 -6 26 -15 40 -21 14 -6 48 -23 75 -39 28 -16 61 -34 75 -40 14
-5 32 -14 40 -20 8 -5 56 -30 105 -55 50 -26 128 -67 175 -92 137 -73 322
-169 510 -265 96 -49 182 -93 190 -98 22 -13 98 -51 130 -65 8 -3 38 -19 65
-35 28 -16 109 -58 180 -95 72 -37 189 -97 260 -135 72 -37 225 -116 340 -175
116 -58 273 -140 350 -180 77 -41 195 -102 262 -137 68 -35 144 -75 170 -89
27 -15 84 -45 128 -68 44 -23 121 -63 170 -89 50 -26 119 -63 155 -81 36 -18
72 -37 80 -41 8 -5 74 -39 145 -75 72 -37 137 -70 145 -75 8 -5 27 -15 41 -22
15 -7 66 -34 115 -59 49 -26 130 -68 179 -93 50 -26 97 -51 105 -57 8 -5 26
-14 40 -19 14 -6 61 -30 105 -54 125 -68 257 -137 290 -153 17 -8 37 -18 45
-23 8 -5 69 -37 135 -70 66 -34 183 -94 260 -135 77 -40 257 -132 400 -205
143 -72 319 -163 390 -201 72 -38 148 -78 170 -89 22 -11 63 -33 90 -48 85
-48 360 -190 595 -309 124 -63 232 -118 240 -123 8 -5 44 -23 80 -41 36 -17
106 -53 155 -80 50 -26 126 -67 170 -90 44 -22 121 -63 170 -90 50 -26 126
-66 170 -89 44 -22 87 -45 95 -50 8 -5 27 -15 42 -22 49 -23 293 -148 308
-158 8 -5 29 -15 45 -23 30 -13 66 -32 95 -49 8 -5 38 -20 65 -33 117 -59 185
-99 182 -109 -2 -6 -35 -28 -73 -49 -38 -22 -100 -57 -139 -78 -38 -22 -83
-46 -100 -54 -16 -9 -52 -29 -80 -45 -27 -16 -61 -34 -75 -40 -14 -5 -36 -17
-50 -25 -14 -8 -142 -73 -285 -145 -143 -72 -267 -135 -275 -140 -8 -6 -26
-14 -40 -20 -14 -5 -32 -14 -40 -19 -8 -6 -28 -16 -45 -24 -16 -8 -73 -37
-125 -64 -256 -135 -319 -169 -365 -194 -55 -30 -292 -153 -340 -176 -16 -8
-37 -18 -45 -23 -8 -5 -91 -48 -185 -96 -93 -47 -228 -117 -300 -155 -71 -38
-148 -78 -170 -89 -22 -11 -47 -24 -55 -29 -8 -6 -27 -16 -42 -23 -56 -27
-297 -152 -383 -198 -123 -66 -170 -91 -240 -127 -33 -16 -87 -44 -120 -62
-33 -17 -76 -38 -95 -46 -19 -9 -42 -20 -50 -25 -8 -5 -73 -39 -145 -75 -169
-85 -441 -229 -510 -270 -48 -29 -53 -31 -85 -45 -14 -6 -65 -33 -115 -60 -49
-27 -126 -67 -170 -89 -44 -23 -91 -47 -105 -55 -14 -7 -36 -19 -50 -25 -14
-6 -32 -15 -40 -20 -8 -6 -28 -17 -45 -25 -70 -35 -111 -56 -125 -64 -25 -14
-69 -37 -195 -102 -66 -34 -165 -85 -220 -115 -55 -29 -131 -69 -170 -89 -78
-40 -106 -55 -150 -79 -16 -9 -48 -25 -70 -36 -22 -11 -94 -50 -160 -86 -66
-36 -138 -74 -160 -85 -22 -11 -80 -42 -130 -69 -49 -28 -101 -55 -115 -62
-14 -6 -36 -17 -50 -24 -14 -7 -79 -41 -145 -74 -66 -34 -127 -66 -135 -71 -8
-4 -44 -23 -80 -41 -125 -64 -176 -90 -260 -136 -47 -25 -139 -73 -205 -108
-166 -87 -285 -149 -385 -203 -47 -24 -182 -94 -300 -154 -187 -96 -277 -143
-430 -226 -19 -11 -51 -27 -70 -36 -19 -10 -42 -21 -50 -26 -8 -5 -51 -27 -95
-50 -44 -22 -87 -45 -95 -50 -8 -5 -27 -15 -42 -22 -36 -17 -198 -101 -270
-140 -13 -7 -80 -41 -150 -77 -198 -103 -368 -192 -423 -222 -27 -15 -106 -56
-175 -91 -114 -59 -227 -118 -460 -240 -47 -25 -121 -64 -165 -88 -44 -23 -98
-52 -120 -62 -22 -11 -47 -24 -55 -29 -8 -5 -33 -18 -55 -29 -22 -11 -47 -24
-55 -29 -8 -6 -27 -16 -42 -23 -82 -40 -280 -143 -323 -168 -27 -16 -61 -34
-75 -41 -14 -6 -34 -16 -45 -22 -106 -56 -285 -149 -305 -158 -27 -11 -136
-65 -160 -79 -8 -5 -28 -15 -45 -23 -16 -7 -84 -42 -150 -77 -66 -35 -163 -85
-215 -112 -52 -27 -102 -53 -110 -58 -8 -5 -28 -16 -45 -24 -83 -41 -195 -100
-240 -125 -27 -16 -86 -48 -130 -71 -44 -23 -120 -63 -170 -90 -49 -27 -101
-54 -115 -59 -14 -6 -32 -16 -40 -21 -8 -6 -26 -15 -40 -20 -14 -6 -32 -14
-40 -20 -8 -5 -51 -28 -95 -50 -44 -23 -120 -63 -170 -90 -49 -26 -168 -88
-263 -137 -95 -48 -194 -100 -220 -114 -26 -15 -83 -45 -127 -68 -44 -23 -102
-55 -130 -71 -27 -16 -57 -32 -65 -35 -8 -4 -24 -11 -35 -18 -11 -6 -58 -30
-105 -54 -47 -24 -92 -48 -100 -53 -8 -5 -49 -25 -90 -46 -92 -45 -219 -111
-325 -169 -77 -42 -98 -53 -147 -75 -29 -13 -261 -135 -353 -185 -38 -21 -95
-52 -125 -67 -30 -16 -62 -33 -70 -38 -8 -6 -26 -15 -40 -21 -14 -5 -47 -23
-75 -38 -48 -26 -242 -128 -515 -268 -69 -36 -183 -96 -255 -134 -131 -69
-158 -83 -185 -93 -8 -3 -42 -21 -75 -40 -33 -18 -96 -52 -140 -75 -44 -23
-116 -61 -160 -86 -44 -24 -98 -53 -120 -64 -22 -12 -69 -37 -103 -56 -72 -39
-125 -45 -163 -17 -13 9 -54 33 -91 52 -37 19 -89 47 -115 62 -26 15 -66 37
-88 48 -22 11 -76 40 -120 65 -44 24 -100 55 -125 68 -25 13 -55 29 -67 35
-13 7 -33 17 -45 24 -13 6 -61 32 -108 56 -47 25 -123 65 -170 89 -47 24 -92
48 -100 53 -8 5 -28 16 -45 24 -82 41 -111 57 -125 65 -8 6 -90 47 -182 91
-93 45 -170 85 -173 90 -3 4 -17 11 -32 15 -14 3 -38 15 -51 26 -14 10 -32 19
-40 19 -9 0 -23 6 -31 14 -9 8 -49 31 -89 52 -40 22 -94 51 -120 66 -26 15
-58 32 -72 37 -14 6 -32 15 -40 21 -8 5 -53 29 -100 53 -96 50 -226 118 -345
182 -44 23 -114 59 -155 80 -41 20 -82 40 -90 45 -8 5 -91 48 -185 96 -93 47
-192 99 -220 115 -27 16 -63 35 -80 44 -16 8 -37 19 -45 24 -8 6 -28 17 -45
25 -77 39 -116 60 -200 106 -49 27 -144 77 -210 111 -66 33 -131 67 -145 74
-14 8 -32 17 -40 20 -8 3 -36 18 -63 33 -26 15 -143 76 -260 135 -116 59 -252
130 -302 158 -49 27 -108 58 -130 69 -22 11 -80 43 -130 70 -49 27 -101 54
-115 59 -14 6 -32 15 -40 21 -8 5 -53 29 -100 53 -47 24 -123 65 -170 91 -47
25 -96 51 -110 57 -14 6 -34 16 -45 22 -11 6 -33 17 -50 24 -16 8 -37 18 -45
23 -8 5 -89 46 -180 92 -91 45 -192 98 -225 116 -33 19 -94 52 -135 73 -41 22
-82 43 -90 48 -23 12 -66 35 -155 80 -44 23 -87 46 -95 51 -17 10 -62 33 -100
51 -27 12 -29 13 -145 76 -44 24 -98 52 -120 63 -22 11 -47 25 -55 30 -8 6
-26 15 -40 21 -14 6 -47 23 -75 39 -27 16 -66 38 -85 48 -19 10 -44 23 -55 30
-31 18 -131 62 -140 62 -5 0 -16 7 -25 15 -14 13 -113 67 -205 112 -16 8 -37
19 -45 24 -8 5 -33 18 -55 29 -22 11 -94 50 -160 85 -66 36 -136 72 -155 80
-19 9 -42 20 -50 25 -21 13 -78 44 -120 64 -19 10 -42 21 -50 26 -8 5 -69 37
-135 71 -105 53 -158 81 -240 126 -11 6 -31 16 -45 22 -14 6 -32 15 -40 20 -8
5 -26 14 -40 20 -14 6 -32 15 -40 21 -8 5 -26 15 -40 20 -14 6 -47 23 -75 39
-59 35 -202 109 -615 318 -168 85 -345 177 -395 203 -49 27 -101 53 -115 59
-14 6 -32 16 -40 21 -8 6 -33 19 -55 30 -22 11 -47 24 -55 30 -8 5 -26 15 -40
20 -14 6 -47 24 -75 40 -27 16 -104 56 -170 90 -66 34 -160 83 -210 110 -49
27 -101 54 -115 59 -14 6 -32 15 -40 21 -8 5 -51 28 -95 51 -97 49 -243 127
-305 162 -25 13 -81 43 -125 66 -44 23 -87 46 -95 51 -8 6 -26 15 -40 21 -14
5 -47 23 -75 39 -27 16 -61 34 -75 39 -14 6 -32 15 -40 21 -8 5 -53 29 -100
52 -153 78 -215 109 -240 123 -14 8 -61 32 -105 55 -44 23 -102 55 -130 71
-27 16 -57 32 -65 35 -24 9 -217 107 -305 155 -44 23 -100 54 -125 67 -25 13
-67 36 -95 52 -70 40 -172 90 -183 90 -5 0 -15 6 -21 14 -7 8 -50 33 -96 56
-46 22 -87 45 -90 50 -3 4 -18 11 -34 15 -16 3 -35 12 -41 20 -6 8 -24 17 -40
20 -15 3 -36 15 -45 25 -9 10 -30 22 -45 25 -16 3 -34 12 -40 20 -6 8 -25 17
-41 20 -16 4 -31 10 -34 15 -3 4 -62 36 -133 70 -70 34 -134 66 -142 71 -8 5
-26 14 -40 19 -14 6 -32 14 -40 20 -8 5 -51 28 -95 51 -44 23 -102 54 -130 70
-27 15 -61 33 -75 38 -14 6 -32 15 -40 20 -8 6 -71 39 -140 74 -69 35 -165 85
-215 112 -49 26 -128 68 -175 92 -47 24 -92 48 -100 53 -8 5 -27 15 -42 22
-49 24 -553 279 -568 288 -8 5 -49 25 -90 45 -41 20 -100 50 -130 66 -30 17
-107 58 -170 91 -63 34 -154 82 -202 107 -49 25 -118 61 -155 80 -38 18 -75
37 -83 42 -8 4 -75 38 -148 75 -73 37 -135 70 -137 75 -3 4 -20 11 -38 14 -17
4 -36 11 -42 15 -8 6 -146 79 -300 158 -16 9 -45 26 -63 39 -19 12 -57 34 -86
49 -28 14 -73 39 -101 54 -27 16 -61 35 -75 41 -42 22 -80 50 -80 60 0 5 10
14 23 19 12 6 45 23 72 39 48 27 153 82 185 96 8 3 56 28 105 55 50 27 149 78
220 115 72 36 137 70 145 75 8 5 27 15 42 22 67 33 221 113 293 153 44 25 98
54 120 65 22 11 47 24 55 29 8 6 29 17 45 25 82 41 111 57 125 65 8 5 49 26
90 45 41 20 82 40 90 45 16 11 59 33 100 52 14 6 34 16 45 22 11 6 58 30 105
54 47 24 92 48 100 53 8 5 27 15 42 22 67 32 281 144 363 188 50 27 108 59
130 70 22 11 47 24 55 29 8 6 27 16 41 23 23 11 121 62 224 116 17 8 39 20 50
25 11 6 79 41 150 78 72 37 207 106 300 154 159 81 208 107 245 126 8 4 74 38
145 74 72 37 150 78 175 92 25 14 101 55 170 91 69 36 161 85 205 108 44 24
121 63 170 88 50 26 97 51 105 56 8 5 29 15 45 23 17 7 89 44 160 82 72 37
144 74 160 82 17 8 37 18 45 23 8 5 71 38 140 73 69 35 148 76 175 92 63 35
197 105 395 208 85 44 229 118 320 165 91 47 208 107 260 134 52 27 102 53
110 58 17 10 62 33 100 51 14 6 32 15 40 20 8 4 56 29 105 54 50 24 131 67
180 94 50 28 144 77 210 111 66 33 127 65 135 70 8 5 29 16 45 24 84 42 111
57 125 66 8 5 49 25 90 45 41 20 82 40 90 44 8 5 38 20 65 34 28 14 71 36 96
49 25 14 55 28 65 32 11 4 60 29 109 55 50 27 144 77 210 111 66 34 143 75
170 90 28 15 86 46 130 69 44 23 87 46 95 51 8 5 27 15 42 22 15 7 66 34 115
59 48 25 97 50 108 56 11 5 34 17 50 26 34 19 266 137 297 152 12 6 53 27 92
47 39 20 130 66 201 102 72 36 171 88 220 115 50 27 124 67 165 89 41 21 116
61 165 87 50 26 187 97 305 158 290 148 382 196 400 207 8 5 27 15 42 22 59
28 364 187 633 329 94 49 188 98 210 109 22 11 47 24 55 29 8 6 27 16 42 23
49 23 380 193 513 263 72 37 144 74 160 82 17 8 37 19 45 24 8 5 26 14 40 20
14 6 32 15 40 20 8 5 33 18 55 29 22 11 47 24 55 30 8 5 26 15 40 20 14 6 70
35 125 64 55 30 154 82 220 115 66 34 127 66 135 71 21 13 69 37 110 55 19 8
42 20 50 25 8 6 26 15 40 20 14 6 32 14 40 20 8 5 53 29 100 53 158 81 345
179 420 219 231 124 301 160 578 300 166 84 321 163 345 176 102 55 315 167
472 247 94 48 211 108 260 135 50 26 144 75 210 109 66 34 127 66 135 71 8 5
49 25 90 45 41 19 82 40 90 45 8 5 49 25 90 45 41 20 82 40 90 45 8 5 27 15
42 22 15 7 66 34 115 59 48 26 169 88 268 139 99 51 215 111 258 134 43 23 90
47 105 54 15 7 34 17 42 23 8 5 31 16 50 24 19 9 42 20 50 25 8 6 26 15 40 21
14 6 34 16 45 22 11 6 31 16 45 24 43 23 98 16 174 -23z m-11604 -13889 c14
-7 62 -32 107 -54 45 -23 84 -45 87 -50 3 -5 18 -12 33 -16 16 -3 35 -13 43
-20 8 -7 89 -52 180 -98 91 -47 219 -113 285 -147 66 -34 163 -85 215 -113 52
-28 109 -57 125 -64 17 -8 37 -18 45 -23 24 -14 178 -94 260 -134 41 -21 82
-41 90 -46 8 -5 48 -26 88 -46 40 -20 101 -53 135 -74 34 -20 73 -41 87 -45
14 -4 36 -15 50 -24 22 -14 60 -33 140 -70 14 -6 84 -43 155 -81 72 -38 166
-88 210 -111 44 -23 121 -63 170 -90 50 -26 149 -78 220 -114 72 -37 171 -88
220 -114 50 -27 167 -88 260 -135 167 -85 270 -140 430 -226 44 -24 116 -62
160 -85 44 -23 130 -68 190 -100 61 -32 157 -82 215 -112 58 -30 112 -58 120
-64 8 -5 26 -14 40 -19 14 -6 48 -24 75 -40 28 -16 145 -77 260 -135 116 -59
251 -128 300 -155 50 -26 144 -76 210 -110 66 -34 161 -84 210 -111 50 -26
126 -66 170 -89 44 -22 121 -63 170 -90 50 -27 126 -67 170 -90 44 -22 161
-83 260 -135 203 -107 192 -101 225 -115 14 -6 88 -44 165 -85 77 -40 176 -92
220 -115 44 -22 103 -53 130 -68 49 -28 165 -89 420 -223 72 -37 164 -84 205
-104 41 -20 82 -40 90 -45 8 -5 69 -37 135 -71 66 -34 143 -74 170 -89 97 -52
312 -164 435 -227 69 -36 186 -96 260 -135 74 -38 191 -99 260 -135 69 -35
184 -95 255 -133 72 -38 185 -97 252 -132 68 -35 144 -75 170 -90 27 -15 59
-32 73 -37 14 -6 32 -16 40 -21 8 -6 33 -19 55 -30 22 -11 47 -24 55 -29 8 -6
27 -16 42 -23 15 -7 56 -30 93 -50 36 -21 71 -38 78 -38 7 0 18 -5 24 -11 5
-5 57 -34 114 -63 57 -29 154 -79 214 -111 61 -32 124 -64 140 -72 17 -8 37
-18 45 -24 8 -5 26 -14 40 -19 14 -6 32 -14 40 -20 21 -13 151 -81 375 -193
105 -52 226 -108 270 -124 75 -26 90 -28 225 -27 131 1 153 4 225 29 78 27
225 91 275 120 14 8 79 42 145 76 66 33 127 64 135 69 8 5 27 15 42 22 26 13
54 27 328 171 69 36 184 95 255 132 72 36 171 87 220 115 50 27 142 76 205
109 63 32 158 82 210 109 52 28 133 70 180 94 133 68 333 173 475 248 72 38
166 88 210 110 44 23 121 63 170 90 50 27 126 68 170 90 44 23 91 48 105 55
14 8 32 16 40 19 8 3 56 28 105 56 50 27 101 55 115 61 14 6 34 16 45 22 11 6
139 72 285 145 337 171 416 212 515 268 44 24 98 54 120 65 22 11 63 33 90 49
28 16 61 34 75 39 14 6 34 16 45 23 47 27 391 207 470 245 17 8 37 18 45 23 8
5 51 28 95 51 258 133 446 233 535 284 36 20 79 43 95 51 17 7 37 18 45 23 8
5 29 16 45 24 35 17 283 145 305 157 8 5 27 15 42 22 68 33 382 194 463 239
50 27 108 58 130 69 22 11 47 24 55 30 8 5 26 15 40 20 14 6 66 33 115 60 206
113 302 163 597 314 312 159 498 256 558 290 25 14 104 55 175 91 72 37 171
88 220 114 193 104 486 257 670 351 155 79 189 97 360 190 44 24 136 72 205
107 69 35 132 68 140 73 8 5 29 16 45 24 86 43 111 57 125 66 8 5 26 15 40 21
14 5 84 41 155 79 72 38 211 109 310 160 99 50 221 113 270 139 50 27 127 68
172 91 45 22 85 45 88 51 4 5 14 9 24 9 9 0 32 11 51 25 19 14 46 25 60 25 14
0 41 -11 60 -25 19 -14 41 -25 51 -25 9 0 27 -8 40 -18 13 -9 54 -33 91 -52
38 -19 89 -47 115 -62 27 -15 66 -36 88 -48 22 -11 76 -40 120 -63 103 -56
126 -68 150 -80 11 -6 79 -41 150 -78 72 -37 248 -127 392 -201 145 -73 302
-154 350 -180 49 -25 124 -65 168 -88 44 -22 139 -72 210 -110 72 -38 141 -75
155 -81 14 -6 36 -17 50 -24 14 -7 61 -32 105 -54 44 -23 87 -46 95 -51 17
-10 64 -34 100 -50 14 -7 36 -18 50 -25 14 -7 77 -38 140 -70 63 -31 122 -60
130 -66 14 -9 34 -18 70 -34 8 -3 38 -19 65 -36 28 -16 68 -38 90 -49 22 -11
76 -41 120 -65 44 -25 98 -55 120 -65 22 -11 47 -24 55 -29 8 -5 29 -16 45
-24 44 -21 287 -147 305 -157 8 -5 27 -15 42 -22 81 -39 586 -296 663 -337 50
-26 144 -76 210 -110 125 -64 131 -67 180 -95 27 -14 162 -84 218 -111 11 -5
52 -27 91 -47 39 -20 125 -64 191 -98 66 -34 161 -83 210 -110 50 -27 113 -60
141 -73 28 -14 54 -29 58 -35 8 -13 -53 -59 -139 -103 -98 -51 -236 -124 -330
-175 -44 -24 -98 -53 -120 -64 -22 -11 -47 -24 -55 -29 -8 -6 -27 -16 -42 -23
-50 -24 -552 -282 -578 -297 -8 -5 -26 -14 -40 -20 -23 -11 -65 -33 -100 -53
-8 -5 -29 -15 -46 -23 -17 -7 -36 -21 -44 -29 -7 -9 -18 -16 -24 -16 -6 0 -27
-8 -46 -19 -117 -62 -298 -156 -450 -233 -96 -49 -182 -94 -190 -99 -8 -5 -26
-13 -40 -19 -14 -5 -32 -14 -40 -19 -8 -6 -28 -16 -45 -24 -45 -22 -278 -142
-380 -197 -49 -26 -126 -66 -170 -89 -44 -23 -87 -46 -95 -51 -8 -5 -28 -16
-45 -24 -44 -21 -317 -163 -392 -204 -50 -26 -69 -36 -98 -49 -16 -8 -37 -19
-45 -24 -8 -5 -26 -14 -40 -20 -14 -6 -36 -17 -50 -25 -14 -7 -97 -50 -185
-95 -88 -45 -173 -89 -190 -98 -16 -9 -66 -36 -110 -60 -44 -24 -161 -86 -260
-137 -99 -51 -205 -106 -235 -123 -30 -17 -91 -49 -135 -71 -44 -23 -93 -48
-110 -57 -16 -9 -39 -21 -49 -26 -11 -5 -51 -25 -90 -44 -39 -20 -78 -39 -86
-44 -8 -5 -33 -18 -55 -29 -22 -11 -47 -24 -55 -29 -8 -5 -31 -17 -50 -27 -19
-9 -51 -25 -70 -36 -125 -68 -226 -122 -295 -157 -44 -23 -87 -46 -95 -51 -8
-5 -27 -15 -42 -22 -57 -28 -297 -152 -373 -193 -137 -73 -450 -238 -600 -315
-44 -23 -98 -52 -120 -66 -22 -13 -58 -33 -80 -44 -22 -11 -47 -24 -55 -29
-19 -13 -66 -36 -110 -56 -19 -8 -42 -20 -50 -25 -14 -8 -102 -54 -400 -207
-69 -36 -132 -68 -140 -73 -8 -5 -28 -15 -45 -23 -80 -38 -101 -49 -115 -57
-8 -5 -69 -36 -135 -70 -66 -34 -142 -75 -170 -90 -27 -15 -68 -37 -90 -49
-22 -11 -47 -24 -55 -29 -32 -19 -80 -44 -195 -102 -66 -34 -127 -65 -135 -70
-24 -14 -104 -54 -130 -64 -8 -4 -60 -30 -115 -60 -55 -30 -154 -81 -220 -115
-66 -34 -127 -66 -135 -71 -8 -5 -31 -16 -50 -25 -19 -8 -42 -19 -50 -24 -8
-6 -28 -17 -45 -25 -53 -26 -108 -55 -190 -101 -44 -24 -98 -54 -120 -65 -22
-11 -47 -24 -55 -29 -8 -6 -27 -16 -42 -23 -15 -7 -66 -34 -115 -59 -48 -26
-122 -63 -163 -84 -41 -20 -82 -41 -90 -45 -8 -5 -55 -30 -105 -56 -113 -59
-156 -82 -175 -94 -8 -6 -26 -15 -40 -21 -14 -5 -83 -41 -155 -79 -71 -38
-170 -89 -220 -115 -49 -25 -112 -59 -140 -75 -27 -16 -81 -45 -120 -65 -38
-20 -109 -58 -157 -83 -48 -26 -165 -87 -260 -135 -95 -49 -213 -110 -263
-136 -49 -26 -164 -86 -255 -133 -194 -100 -345 -181 -545 -289 -27 -15 -108
-58 -180 -95 -211 -108 -299 -154 -315 -164 -8 -6 -26 -15 -40 -20 -14 -6 -47
-23 -75 -39 -27 -16 -104 -56 -170 -90 -66 -34 -127 -66 -135 -71 -8 -5 -28
-15 -45 -23 -72 -34 -271 -140 -285 -152 -8 -7 -26 -16 -40 -20 -14 -4 -31
-12 -39 -18 -7 -7 -50 -30 -95 -53 -44 -23 -115 -60 -156 -82 -166 -87 -337
-177 -380 -199 -25 -13 -52 -28 -60 -33 -8 -6 -26 -15 -40 -21 -14 -5 -65 -32
-115 -59 -49 -27 -126 -68 -170 -90 -44 -23 -120 -64 -170 -91 -49 -27 -108
-58 -130 -69 -22 -11 -80 -42 -130 -68 -49 -27 -144 -77 -210 -111 -66 -35
-127 -67 -135 -72 -8 -5 -31 -15 -50 -24 -19 -8 -42 -19 -50 -25 -8 -5 -26
-15 -40 -20 -14 -6 -83 -42 -155 -80 -71 -38 -166 -88 -210 -111 -69 -36 -136
-71 -295 -157 -19 -10 -55 -30 -80 -44 -42 -23 -55 -30 -112 -60 -13 -6 -61
-31 -108 -55 -47 -24 -92 -48 -100 -53 -19 -11 -64 -34 -110 -56 -19 -9 -42
-22 -50 -29 -8 -7 -26 -16 -40 -20 -13 -4 -36 -16 -50 -26 -14 -10 -41 -21
-60 -24 -28 -5 -49 2 -110 34 -41 22 -115 61 -165 86 -49 25 -126 66 -170 90
-95 53 -138 76 -248 133 -45 24 -100 54 -122 67 -22 13 -51 29 -65 36 -27 12
-28 13 -145 76 -44 24 -96 50 -115 58 -19 9 -42 20 -50 25 -8 6 -33 19 -55 30
-22 11 -47 24 -55 29 -8 5 -26 14 -40 20 -14 6 -36 18 -50 26 -14 7 -54 27
-90 45 -36 17 -72 35 -80 40 -8 6 -26 15 -40 20 -14 6 -65 32 -115 60 -49 27
-108 59 -130 70 -22 11 -80 43 -130 70 -49 28 -108 60 -130 70 -22 11 -58 31
-80 45 -22 13 -51 29 -65 34 -14 6 -32 15 -40 21 -8 5 -53 29 -100 53 -459
236 -746 385 -780 407 -8 5 -28 16 -45 24 -72 36 -113 58 -160 85 -27 16 -86
48 -130 71 -44 23 -116 61 -160 86 -44 24 -91 49 -105 55 -14 6 -32 15 -40 20
-8 5 -55 30 -105 55 -49 25 -118 60 -152 77 -33 18 -70 37 -82 42 -11 6 -80
41 -153 79 -73 38 -171 89 -218 113 -47 24 -121 64 -165 88 -44 25 -98 54
-120 66 -22 12 -62 34 -90 50 -27 16 -61 33 -75 39 -14 5 -32 14 -40 20 -8 5
-51 28 -95 51 -44 23 -125 65 -180 95 -55 29 -131 69 -170 89 -38 20 -81 42
-95 50 -14 7 -36 18 -50 24 -14 6 -32 15 -40 21 -8 5 -44 23 -80 41 -36 17
-76 37 -90 45 -14 7 -37 19 -51 26 -85 41 -260 134 -389 206 -30 17 -91 50
-135 72 -84 44 -130 68 -155 82 -8 4 -55 28 -105 53 -49 25 -97 50 -105 55 -8
6 -26 15 -40 21 -14 5 -47 23 -75 38 -27 16 -86 47 -130 70 -44 23 -87 46 -95
51 -8 6 -26 14 -40 20 -14 5 -32 14 -40 20 -8 5 -31 16 -50 25 -19 8 -42 19
-50 25 -8 5 -26 14 -40 20 -14 5 -32 14 -40 19 -8 6 -28 17 -45 25 -60 31
-111 58 -150 82 -22 13 -58 33 -80 44 -22 11 -80 42 -130 69 -49 28 -101 55
-115 61 -14 5 -32 15 -40 20 -8 6 -33 19 -55 30 -22 11 -47 24 -55 28 -8 5
-28 15 -45 24 -16 8 -41 20 -55 28 -14 7 -34 18 -45 23 -146 76 -204 106 -280
147 -49 27 -97 52 -105 56 -42 19 -241 120 -285 144 -27 16 -63 36 -80 44 -16
9 -41 23 -55 31 -14 7 -32 17 -40 20 -8 3 -37 19 -65 35 -27 15 -86 47 -130
69 -44 23 -87 45 -95 50 -8 5 -67 35 -130 66 -63 31 -196 99 -295 151 -99 51
-238 123 -310 159 -71 36 -168 87 -215 112 -47 25 -101 54 -120 65 -19 10 -42
23 -50 28 -8 6 -26 15 -40 21 -14 5 -47 23 -75 39 -27 16 -61 34 -75 39 -14 6
-32 15 -40 21 -8 5 -55 30 -105 56 -106 54 -349 183 -460 244 -27 15 -86 46
-130 69 -44 23 -87 45 -95 50 -8 4 -35 18 -60 30 -43 22 -172 89 -360 189 -47
25 -161 84 -255 132 -207 107 -357 185 -450 235 -191 104 -474 252 -515 270
-19 9 -42 20 -50 25 -8 6 -26 15 -40 21 -14 6 -32 15 -40 20 -8 5 -33 19 -55
30 -22 11 -47 24 -55 29 -8 5 -27 15 -41 22 -60 30 -196 101 -219 114 -14 8
-36 19 -50 25 -30 12 -76 35 -110 54 -14 7 -61 32 -105 54 -44 23 -87 45 -95
50 -8 5 -26 14 -40 20 -14 6 -45 23 -70 37 -72 42 -203 113 -230 125 -14 6
-38 18 -55 26 -58 30 -180 94 -195 103 -8 5 -28 15 -45 23 -43 21 -287 146
-305 157 -8 5 -28 16 -45 24 -78 39 -111 56 -125 65 -8 5 -107 55 -220 111
-113 56 -245 124 -295 150 -49 27 -101 54 -115 59 -14 6 -32 16 -40 21 -8 6
-33 19 -55 30 -22 11 -47 24 -55 29 -8 6 -27 16 -41 23 -15 7 -66 33 -113 58
-48 25 -99 51 -114 58 -15 7 -38 19 -52 26 -14 8 -79 42 -145 75 -66 34 -127
66 -135 71 -8 5 -31 16 -50 25 -19 8 -42 19 -50 25 -8 5 -26 14 -40 20 -14 5
-32 14 -40 19 -8 6 -28 16 -45 24 -16 7 -61 31 -100 52 -38 21 -95 52 -125 68
-30 16 -73 40 -95 53 -22 12 -63 35 -91 49 -29 14 -69 37 -90 51 -21 14 -48
30 -61 35 -13 5 -23 16 -23 24 0 9 19 25 43 37 23 11 65 33 92 49 28 16 61 34
75 40 14 6 54 26 90 45 36 18 101 52 145 74 44 22 87 45 95 50 8 5 49 25 90
45 41 19 82 39 90 44 8 5 49 26 90 47 108 54 318 163 365 189 96 54 242 130
400 210 94 48 177 90 185 95 18 10 64 34 100 51 14 6 32 15 40 20 8 4 56 29
105 54 50 25 97 49 105 54 8 5 44 23 80 41 36 18 76 39 90 46 14 8 36 19 50
24 38 16 307 160 405 217 22 12 56 30 75 38 19 9 42 20 50 25 8 4 69 36 135
70 159 82 176 91 205 107 14 7 79 40 145 74 66 33 134 68 150 76 46 24 64 34
140 70 39 19 79 39 89 45 11 6 72 38 135 71 64 33 139 73 166 89 28 15 68 37
90 48 22 11 47 24 55 29 8 6 27 16 42 23 54 26 395 200 483 246 50 26 142 75
205 108 63 33 124 66 135 72 11 6 49 25 85 43 36 17 106 53 155 80 50 26 108
57 130 69 22 11 68 35 101 54 34 19 72 37 85 41 13 4 35 16 48 26 28 23 57 24
91 4z m-5 -7944 c64 -25 97 -42 220 -111 55 -31 138 -75 185 -98 47 -24 144
-74 215 -112 72 -38 141 -74 155 -80 14 -5 32 -14 40 -20 8 -5 53 -29 100 -53
47 -24 126 -65 175 -91 74 -40 283 -148 545 -283 25 -13 52 -28 60 -32 8 -5
33 -19 55 -30 175 -88 293 -150 370 -191 110 -60 105 -57 135 -70 14 -6 88
-45 165 -85 77 -41 176 -93 220 -115 44 -23 98 -52 120 -65 22 -13 76 -42 120
-64 44 -23 87 -46 95 -51 8 -5 29 -15 45 -23 17 -8 90 -46 163 -83 73 -38 145
-75 160 -82 15 -7 38 -19 52 -26 14 -8 79 -42 145 -76 66 -33 156 -81 200
-104 143 -77 411 -219 520 -275 44 -23 139 -73 210 -111 72 -38 207 -108 300
-155 94 -47 177 -90 185 -95 8 -5 31 -16 50 -26 62 -30 203 -104 285 -150 44
-24 98 -53 120 -64 22 -11 81 -42 130 -69 50 -27 126 -68 170 -90 44 -23 87
-45 95 -50 8 -5 26 -14 40 -20 14 -6 32 -15 40 -20 8 -6 27 -16 42 -23 54 -26
436 -226 698 -366 47 -25 123 -65 170 -90 47 -24 92 -50 100 -57 8 -7 26 -16
40 -20 14 -4 32 -13 40 -20 8 -7 31 -20 50 -29 19 -9 73 -37 120 -62 67 -37
276 -145 445 -231 11 -5 34 -17 50 -25 17 -9 107 -55 200 -103 94 -47 195
-100 225 -116 57 -32 132 -72 278 -151 48 -26 141 -74 207 -108 66 -34 183
-94 260 -135 77 -40 217 -112 310 -160 94 -47 177 -90 185 -95 8 -5 29 -15 45
-23 34 -16 169 -87 290 -153 44 -24 98 -53 120 -64 22 -11 47 -24 55 -30 8 -5
26 -15 40 -21 14 -5 48 -23 75 -39 28 -16 61 -34 75 -39 14 -6 32 -15 40 -21
8 -5 56 -30 105 -55 50 -25 126 -65 170 -90 44 -25 98 -54 120 -65 22 -11 47
-24 55 -28 34 -20 77 -43 115 -62 22 -11 47 -24 55 -30 8 -5 26 -14 40 -20 14
-5 32 -14 40 -20 8 -5 26 -15 40 -20 14 -6 70 -34 125 -64 237 -126 349 -176
440 -196 53 -12 271 -12 315 0 64 16 135 41 160 55 39 21 159 84 350 182 96
50 216 112 265 138 50 27 106 56 125 67 19 10 42 22 50 28 8 5 29 16 45 24 84
42 111 57 125 66 8 5 31 16 50 25 19 8 60 28 90 44 30 16 69 35 85 44 89 43
272 140 285 151 8 6 49 29 90 49 41 21 82 42 90 47 8 6 26 15 40 20 14 6 88
44 165 85 77 41 176 93 220 115 44 23 137 72 208 108 70 37 158 82 195 101
207 103 273 138 327 170 33 20 89 51 125 70 36 18 106 55 155 81 50 27 144 76
210 111 66 34 164 85 218 113 53 28 211 109 350 180 138 71 270 139 292 151
55 30 181 98 295 158 52 27 131 69 175 92 44 24 116 62 160 85 44 22 121 63
170 90 50 26 144 76 210 111 203 106 398 207 440 229 22 11 78 41 125 67 87
47 245 130 475 248 72 36 137 70 145 76 8 5 26 14 40 19 14 6 66 33 115 60 50
28 126 68 170 90 44 22 87 45 95 50 8 5 27 15 41 22 28 14 61 32 174 93 184
99 310 165 580 304 66 34 127 66 135 71 8 5 29 15 45 23 25 12 146 75 220 114
11 6 50 26 87 44 37 19 107 55 155 81 49 26 124 66 168 89 44 22 121 63 170
89 124 67 231 123 430 225 94 48 184 94 200 103 17 8 39 20 50 25 11 6 58 31
105 55 47 25 141 74 210 109 69 36 166 86 215 113 50 27 101 54 115 59 14 6
32 16 40 21 8 6 33 19 55 30 22 11 47 24 55 29 8 6 27 16 42 23 27 13 125 64
343 178 66 34 158 83 205 107 47 24 92 48 100 53 21 12 70 37 100 49 14 6 32
15 40 21 8 5 51 28 95 51 44 22 87 46 95 53 8 7 52 29 97 48 l81 36 74 -35
c83 -41 73 -35 198 -105 52 -30 106 -59 120 -66 14 -7 63 -33 110 -58 47 -26
99 -53 115 -61 17 -8 37 -18 45 -23 8 -5 56 -30 105 -54 104 -53 223 -114 245
-126 8 -5 132 -68 275 -140 143 -73 319 -163 390 -201 72 -37 189 -98 260
-134 72 -37 207 -106 300 -154 94 -49 231 -120 305 -158 74 -38 144 -74 155
-80 11 -6 31 -16 45 -22 14 -6 84 -42 155 -80 72 -39 207 -109 300 -156 94
-47 177 -91 185 -96 8 -5 26 -14 40 -20 14 -5 48 -23 75 -39 28 -16 61 -34 75
-39 14 -6 32 -15 40 -20 13 -9 148 -78 295 -152 22 -11 47 -25 55 -29 17 -11
123 -63 160 -80 14 -6 66 -33 115 -60 50 -27 149 -79 220 -116 193 -99 286
-148 430 -224 72 -38 166 -87 210 -109 44 -23 87 -46 95 -51 8 -6 26 -15 40
-21 14 -5 48 -22 75 -38 68 -37 281 -151 328 -174 23 -12 37 -26 35 -35 -3
-15 -9 -19 -60 -44 -62 -30 -220 -113 -303 -158 -49 -27 -101 -54 -115 -59
-14 -6 -32 -15 -40 -21 -8 -5 -49 -26 -90 -45 -41 -20 -82 -40 -90 -45 -8 -5
-51 -28 -95 -50 -44 -22 -87 -44 -95 -50 -8 -5 -28 -15 -45 -23 -42 -20 -269
-139 -330 -172 -74 -41 -204 -110 -345 -182 -69 -35 -132 -68 -140 -73 -8 -5
-27 -15 -42 -22 -15 -7 -103 -52 -195 -99 -180 -93 -227 -117 -258 -132 -117
-59 -378 -194 -445 -230 -47 -25 -119 -62 -160 -82 -41 -20 -82 -40 -90 -45
-8 -6 -33 -19 -55 -30 -22 -11 -47 -24 -55 -29 -8 -6 -27 -16 -41 -23 -43 -21
-193 -98 -209 -108 -8 -5 -28 -15 -45 -23 -39 -19 -285 -146 -305 -158 -8 -5
-31 -15 -50 -24 -19 -8 -73 -36 -120 -61 -47 -26 -101 -55 -120 -66 -19 -10
-73 -39 -120 -65 -47 -25 -98 -52 -115 -60 -16 -8 -37 -18 -45 -23 -8 -5 -91
-48 -185 -95 -158 -80 -206 -105 -245 -126 -8 -5 -35 -19 -60 -32 -25 -13
-105 -54 -178 -93 -73 -38 -142 -73 -153 -79 -12 -5 -49 -24 -82 -42 -34 -17
-98 -50 -142 -73 -44 -22 -102 -54 -130 -70 -27 -16 -61 -34 -75 -40 -14 -5
-32 -14 -40 -20 -8 -5 -71 -38 -140 -73 -179 -91 -439 -227 -550 -286 -52 -28
-153 -80 -225 -116 -71 -37 -170 -88 -220 -115 -49 -26 -108 -58 -130 -69 -22
-12 -76 -41 -120 -66 -44 -24 -120 -64 -170 -89 -49 -25 -97 -50 -105 -55 -8
-5 -26 -14 -40 -20 -14 -6 -32 -15 -40 -20 -8 -5 -28 -16 -45 -24 -16 -7 -39
-18 -50 -24 -11 -6 -31 -16 -45 -22 -14 -6 -32 -15 -40 -20 -8 -6 -28 -17 -45
-25 -84 -42 -111 -57 -125 -66 -8 -5 -49 -25 -90 -45 -41 -20 -82 -40 -90 -45
-8 -5 -31 -16 -50 -25 -19 -8 -43 -19 -52 -25 -29 -17 -49 -27 -138 -73 -144
-74 -244 -129 -260 -142 -8 -7 -26 -16 -40 -20 -14 -4 -31 -13 -39 -19 -8 -6
-49 -29 -93 -51 -224 -114 -437 -224 -553 -285 -123 -66 -142 -76 -197 -100
-13 -5 -30 -14 -38 -19 -16 -11 -59 -33 -100 -52 -28 -13 -33 -15 -139 -71
-42 -23 -81 -45 -87 -49 -17 -13 -203 -112 -514 -271 -180 -93 -371 -192 -635
-329 -71 -38 -152 -80 -180 -93 -27 -14 -86 -46 -130 -70 -77 -44 -102 -57
-135 -71 -8 -3 -37 -19 -65 -35 -27 -15 -126 -67 -220 -115 -93 -48 -210 -109
-260 -135 -49 -27 -101 -54 -115 -59 -14 -6 -32 -15 -40 -21 -8 -5 -58 -31
-110 -58 -102 -52 -225 -117 -250 -132 -8 -5 -28 -15 -45 -23 -16 -7 -57 -29
-90 -47 -33 -18 -103 -55 -155 -83 -52 -27 -124 -66 -160 -86 -36 -20 -139
-74 -230 -119 -91 -46 -172 -88 -180 -92 -8 -5 -28 -16 -45 -24 -86 -43 -111
-57 -125 -66 -8 -5 -26 -15 -40 -21 -14 -5 -47 -23 -75 -39 -27 -15 -68 -37
-90 -49 -22 -11 -47 -24 -55 -29 -27 -16 -74 -41 -195 -103 -66 -34 -160 -83
-210 -110 -49 -26 -126 -66 -170 -89 -44 -22 -143 -74 -220 -115 -77 -41 -151
-79 -165 -85 -14 -6 -47 -23 -75 -37 -80 -43 -220 -116 -360 -188 -71 -36
-148 -77 -170 -89 -22 -13 -76 -43 -120 -66 -44 -23 -120 -64 -170 -91 -49
-27 -101 -53 -115 -59 -14 -5 -32 -14 -40 -20 -8 -5 -55 -30 -105 -55 -49 -25
-97 -50 -105 -55 -8 -6 -26 -14 -40 -20 -14 -5 -32 -14 -40 -19 -8 -6 -27 -16
-42 -23 -15 -7 -82 -42 -150 -77 -68 -36 -143 -75 -168 -88 -25 -13 -52 -28
-60 -33 -8 -5 -28 -15 -45 -23 -28 -13 -120 -62 -240 -128 -27 -16 -86 -47
-130 -70 -44 -23 -120 -63 -170 -89 -370 -195 -423 -218 -440 -190 -3 5 -31
22 -63 38 -63 31 -240 124 -372 196 -47 25 -103 55 -125 66 -22 11 -76 40
-120 64 -44 24 -159 84 -255 133 -96 50 -246 127 -333 171 -87 45 -164 82
-171 82 -7 0 -21 9 -30 19 -10 11 -31 23 -46 26 -16 3 -34 12 -40 20 -6 8 -25
17 -41 20 -16 4 -31 10 -34 15 -3 4 -42 27 -87 50 -46 23 -89 47 -95 52 -7 5
-47 28 -90 50 -149 78 -228 120 -278 148 -62 36 -64 37 -95 50 -14 6 -65 33
-115 60 -49 26 -126 67 -170 89 -44 23 -87 46 -95 51 -8 5 -31 16 -50 25 -19
8 -42 19 -50 25 -8 5 -26 14 -40 20 -14 5 -32 14 -40 20 -8 5 -31 16 -50 25
-19 8 -42 19 -50 24 -8 6 -28 17 -45 25 -48 23 -182 93 -280 146 -49 26 -126
67 -170 90 -44 23 -120 64 -170 90 -49 27 -126 67 -170 90 -44 22 -98 52 -120
65 -22 13 -51 29 -65 36 -14 6 -32 15 -40 20 -8 5 -53 28 -100 52 -47 24 -94
48 -105 55 -11 6 -54 27 -95 48 -82 40 -197 100 -332 172 -48 26 -123 65 -165
88 -43 22 -87 46 -98 52 -11 7 -31 17 -45 22 -14 6 -47 23 -75 39 -27 16 -79
43 -115 60 -36 18 -72 36 -80 42 -8 5 -33 18 -55 29 -22 11 -47 24 -55 29 -8
5 -28 16 -45 24 -16 7 -73 36 -125 64 -52 28 -124 65 -160 83 -36 18 -72 36
-80 41 -8 5 -51 27 -95 50 -44 22 -120 63 -170 89 -49 27 -103 56 -120 65 -16
8 -52 29 -80 45 -27 16 -61 34 -75 40 -14 5 -32 14 -40 20 -8 5 -73 39 -145
76 -122 62 -207 107 -382 200 -39 22 -154 81 -255 132 -237 121 -375 193 -468
246 -41 23 -86 47 -100 54 -14 6 -32 16 -40 21 -8 6 -27 16 -42 23 -15 7 -66
34 -115 59 -86 44 -109 56 -155 81 -13 7 -59 31 -103 53 -44 23 -116 61 -160
85 -44 24 -123 65 -175 92 -52 27 -102 53 -110 57 -52 27 -85 44 -165 85 -49
26 -97 50 -105 55 -8 5 -22 12 -30 15 -8 3 -37 19 -65 36 -27 16 -61 34 -75
40 -14 5 -32 14 -40 20 -13 8 -110 59 -200 105 -14 6 -38 19 -55 28 -16 8 -84
43 -150 77 -66 35 -159 83 -207 109 -48 25 -127 67 -175 92 -48 25 -97 50
-108 56 -11 6 -72 36 -135 67 -63 31 -122 61 -130 66 -8 6 -26 15 -40 21 -14
5 -43 21 -65 34 -22 14 -58 34 -80 46 -22 11 -62 33 -90 48 -27 16 -126 67
-220 115 -93 47 -177 91 -185 96 -8 6 -26 15 -40 21 -14 5 -47 23 -75 39 -27
15 -81 45 -120 65 -38 20 -92 50 -120 65 -27 16 -61 34 -75 39 -14 6 -32 16
-40 21 -8 6 -26 15 -40 21 -14 6 -48 22 -75 35 -28 13 -54 24 -59 24 -5 0 -17
6 -25 14 -9 8 -47 30 -86 50 -38 20 -77 41 -85 46 -8 6 -26 15 -40 21 -14 5
-64 31 -112 57 -48 26 -167 88 -265 138 -98 51 -198 103 -223 117 -45 26 -72
40 -100 52 -8 3 -55 28 -105 54 -88 48 -285 148 -335 170 -14 6 -61 32 -105
56 -44 25 -120 66 -170 91 -49 24 -144 74 -210 109 -66 36 -136 72 -155 81
-19 9 -42 20 -50 25 -8 5 -33 18 -55 29 -22 11 -47 24 -55 29 -8 6 -27 16 -41
23 -50 24 -214 109 -229 117 -8 5 -26 14 -40 20 -14 6 -65 34 -115 61 -49 27
-101 54 -115 60 -14 5 -32 15 -40 20 -8 6 -26 14 -40 20 -14 5 -36 16 -50 24
-14 8 -101 53 -195 100 -93 48 -177 91 -185 96 -17 10 -63 33 -100 51 -14 6
-32 15 -40 20 -8 4 -49 24 -90 44 -41 20 -84 42 -95 47 -25 14 -44 23 -75 37
-14 6 -38 19 -55 28 -40 21 -82 43 -125 62 -14 7 -65 34 -115 61 -49 27 -148
79 -220 115 -71 36 -184 95 -250 130 -66 35 -139 75 -163 87 -23 13 -142 74
-265 136 -122 62 -229 117 -237 123 -8 5 -26 13 -40 19 -14 5 -32 14 -40 20
-8 5 -31 16 -50 25 -19 8 -42 19 -50 24 -8 5 -26 14 -40 20 -14 7 -45 24 -70
38 -55 32 -198 108 -262 140 -31 15 -48 30 -48 41 0 13 32 35 113 76 61 32
153 80 202 107 50 26 101 53 115 59 14 5 32 14 40 19 15 10 161 86 209 109 14
7 37 19 51 26 14 8 79 41 145 75 66 34 127 66 135 71 8 5 29 15 45 23 67 31
271 140 285 152 8 7 26 16 40 20 14 4 31 12 38 18 7 5 110 59 230 119 218 111
374 191 402 208 8 5 27 15 42 22 59 28 458 233 543 279 50 27 126 67 170 90
44 22 94 48 110 57 17 8 39 20 50 25 111 57 205 107 280 147 50 27 101 54 115
59 14 6 32 15 40 21 8 5 114 59 235 120 228 115 230 116 280 143 17 8 62 32
100 52 39 21 77 42 85 49 8 7 89 49 180 95 91 45 172 86 180 91 8 5 29 15 45
23 17 7 41 19 55 27 31 16 26 14 255 131 301 153 498 255 520 267 11 7 31 17
45 23 14 5 43 21 65 34 22 13 81 44 130 69 50 25 90 46 90 46 0 0 23 -9 50
-19z"/>
  </g>
</svg>