<svg xmlns="http://www.w3.org/2000/svg" viewBox="0 0 4096.000000 4096.000000">
  <g transform="translate(0.000000,4096.000000) scale(0.100000,-0.100000)" fill="#f4f5f7" stroke="none">
    <path d="M20100 35100 c-91 -4 -204 -13 -253 -19 -48 -6 -169 -16 -270 -21
-100 -5 -211 -16 -247 -23 -36 -8 -110 -18 -165 -22 -55 -4 -138 -15 -185 -25
-47 -10 -119 -21 -160 -25 -41 -4 -102 -15 -135 -25 -33 -10 -95 -23 -138 -30
-43 -6 -93 -18 -110 -25 -18 -7 -59 -16 -92 -20 -33 -4 -72 -14 -86 -21 -15
-7 -57 -18 -95 -24 -38 -6 -91 -19 -119 -29 -27 -11 -72 -24 -100 -29 -27 -6
-70 -17 -95 -26 -105 -36 -361 -116 -373 -116 -7 0 -28 -8 -47 -19 -19 -10
-50 -22 -69 -26 -19 -4 -54 -18 -79 -31 -25 -13 -53 -24 -62 -24 -10 0 -42
-11 -72 -25 -29 -14 -60 -25 -68 -25 -8 0 -37 -12 -65 -25 -27 -14 -58 -25
-67 -25 -9 0 -19 -4 -23 -9 -3 -5 -22 -15 -43 -21 -41 -13 -121 -48 -195 -86
-26 -13 -55 -24 -65 -24 -10 0 -33 -11 -52 -25 -19 -14 -43 -25 -55 -25 -12 0
-36 -11 -55 -25 -19 -14 -40 -25 -48 -25 -8 0 -26 -8 -40 -19 -15 -10 -44 -24
-64 -30 -20 -7 -41 -18 -48 -26 -6 -7 -23 -16 -38 -20 -15 -4 -34 -12 -42 -20
-8 -7 -31 -21 -51 -31 -37 -19 -101 -54 -174 -93 -22 -12 -65 -37 -95 -56 -30
-19 -68 -41 -85 -49 -16 -9 -50 -30 -75 -46 -25 -16 -60 -37 -79 -46 -18 -8
-45 -23 -60 -33 -43 -30 -174 -115 -192 -126 -31 -19 -283 -191 -321 -220 -14
-11 -38 -29 -53 -40 -16 -11 -55 -40 -88 -65 -33 -25 -67 -49 -75 -55 -65 -42
-327 -254 -438 -355 -33 -30 -107 -95 -163 -145 -238 -207 -411 -380 -703
-701 -215 -238 -335 -378 -441 -516 -50 -66 -64 -85 -162 -218 -33 -45 -72
-98 -87 -118 -15 -20 -35 -50 -44 -67 -9 -16 -31 -48 -49 -70 -17 -22 -40 -54
-51 -72 -10 -17 -35 -55 -55 -85 -59 -88 -74 -110 -84 -127 -5 -9 -20 -30 -32
-48 -13 -17 -23 -36 -23 -42 0 -5 -11 -22 -23 -38 -13 -15 -41 -59 -63 -96
-79 -137 -93 -163 -114 -202 -11 -22 -34 -62 -50 -90 -51 -88 -246 -490 -320
-660 -27 -63 -66 -148 -90 -200 -41 -85 -80 -184 -80 -200 0 -10 -9 -34 -19
-54 -11 -20 -27 -58 -36 -86 -9 -27 -23 -70 -32 -95 -8 -25 -23 -65 -33 -90
-11 -25 -22 -61 -26 -80 -3 -19 -12 -45 -20 -57 -8 -12 -19 -46 -25 -75 -6
-29 -17 -63 -25 -75 -8 -12 -19 -46 -25 -75 -7 -29 -18 -62 -25 -74 -8 -11
-19 -47 -25 -80 -6 -32 -17 -70 -24 -85 -8 -14 -17 -50 -21 -80 -4 -30 -15
-74 -24 -99 -10 -25 -21 -65 -25 -89 -4 -25 -15 -68 -25 -96 -10 -28 -21 -76
-24 -106 -4 -30 -14 -76 -21 -104 -8 -27 -21 -93 -29 -146 -9 -53 -21 -110
-27 -125 -6 -16 -17 -81 -24 -144 -8 -63 -21 -144 -29 -180 -9 -36 -15 -90
-16 -120 0 -30 -9 -113 -19 -185 -11 -71 -25 -213 -31 -315 -5 -102 -16 -232
-22 -290 -19 -161 -16 -743 4 -975 9 -104 20 -242 23 -305 4 -63 13 -146 21
-185 7 -38 18 -124 24 -189 6 -65 17 -151 25 -190 9 -39 20 -118 26 -175 5
-57 16 -115 23 -130 8 -14 17 -62 21 -106 4 -44 16 -103 25 -131 10 -29 21
-83 26 -120 4 -38 15 -87 24 -109 9 -22 20 -66 24 -98 4 -32 16 -77 27 -100
10 -23 19 -52 19 -65 0 -12 11 -53 24 -91 13 -37 27 -87 31 -111 4 -23 16 -61
26 -84 10 -23 19 -51 19 -63 0 -13 11 -51 24 -85 35 -93 56 -156 73 -217 8
-30 21 -64 28 -75 8 -12 17 -39 21 -61 4 -22 13 -49 21 -61 7 -11 20 -45 29
-75 9 -30 20 -59 25 -65 5 -6 18 -38 30 -70 11 -32 28 -79 37 -104 8 -25 24
-56 34 -69 10 -13 18 -32 18 -42 0 -10 13 -45 29 -76 16 -32 41 -85 56 -118
15 -33 31 -67 36 -75 5 -8 14 -26 21 -40 57 -125 223 -452 234 -461 8 -6 14
-19 14 -28 0 -9 14 -36 30 -60 17 -24 30 -49 30 -54 0 -6 7 -18 16 -28 18 -20
43 -63 73 -125 10 -23 24 -45 30 -49 6 -3 18 -21 26 -38 8 -18 33 -61 55 -96
22 -34 40 -66 40 -69 0 -3 11 -20 25 -38 14 -18 25 -36 25 -39 0 -3 11 -21 25
-39 14 -18 25 -38 25 -43 0 -6 7 -16 16 -24 9 -7 23 -27 32 -45 18 -35 147
-225 212 -314 22 -30 51 -71 65 -90 105 -145 353 -452 508 -629 302 -344 425
-481 557 -621 42 -45 162 -182 216 -245 95 -113 319 -416 411 -555 20 -30 47
-71 60 -91 12 -19 23 -40 23 -46 0 -6 7 -17 17 -24 9 -8 23 -27 30 -44 8 -16
28 -52 44 -80 16 -27 38 -68 48 -90 11 -22 27 -52 36 -67 39 -71 74 -141 139
-283 13 -27 35 -75 50 -106 14 -31 26 -62 26 -70 0 -8 7 -24 15 -37 15 -20 36
-74 72 -182 8 -25 22 -63 32 -85 10 -22 22 -56 26 -75 4 -19 16 -52 26 -72 11
-21 19 -48 19 -60 1 -13 10 -48 21 -78 11 -30 25 -81 30 -113 5 -32 16 -71 24
-87 8 -16 19 -61 25 -100 6 -39 17 -87 26 -108 8 -20 19 -73 25 -118 5 -45 16
-101 24 -125 9 -24 20 -87 25 -139 5 -52 14 -108 19 -125 14 -42 31 -174 32
-248 0 -34 6 -100 14 -147 8 -47 19 -215 25 -375 10 -271 12 -295 37 -370 15
-44 32 -87 39 -95 6 -8 19 -28 27 -45 22 -42 110 -133 160 -164 23 -15 74 -43
112 -62 l70 -34 4415 0 4415 0 60 30 c91 46 134 74 197 128 66 56 106 111 149
206 30 65 31 70 40 296 5 127 15 295 23 375 8 80 18 195 21 255 4 61 13 138
21 172 7 34 18 107 23 162 5 55 19 140 30 188 11 48 25 115 30 148 10 60 29
142 57 245 9 30 22 85 30 123 7 37 20 80 28 95 7 15 19 51 25 80 6 29 17 65
25 80 7 15 17 45 20 67 4 21 16 56 27 77 10 20 19 45 19 53 0 16 40 116 80
201 11 23 20 44 20 48 0 8 57 133 71 156 5 8 14 26 19 40 11 28 58 127 72 150
5 8 20 38 33 65 14 28 29 57 34 65 6 8 17 31 27 50 26 53 52 100 85 150 16 25
37 63 48 85 10 22 26 46 35 54 9 7 16 17 16 22 0 5 19 37 43 70 23 33 49 71
57 83 19 28 62 91 92 132 13 17 32 44 43 60 10 16 29 43 42 59 13 17 30 39 38
50 37 50 233 286 279 336 60 65 152 168 266 299 117 134 199 226 319 359 144
161 181 204 259 301 93 115 254 326 284 370 10 14 31 43 47 65 17 22 61 84 98
139 37 54 78 112 91 130 80 112 100 143 141 217 11 19 27 41 35 48 9 8 16 18
16 24 0 5 10 24 23 41 12 17 28 42 35 56 7 14 25 45 41 70 41 64 151 257 151
266 0 4 7 15 15 24 19 21 42 64 124 230 34 69 66 132 71 140 9 16 69 137 89
180 6 14 15 32 20 40 5 8 20 40 34 70 14 30 39 85 56 122 17 37 31 75 31 86 0
11 9 30 19 44 11 13 24 42 30 63 6 22 17 49 24 60 8 11 18 36 22 55 4 19 15
49 25 65 10 17 21 46 25 65 4 19 16 52 26 72 11 21 19 45 19 55 0 10 11 41 25
68 13 28 25 58 25 68 0 10 11 44 25 77 14 33 25 70 25 82 0 13 9 41 21 62 11
21 25 63 30 93 6 31 17 66 24 77 7 12 16 41 20 66 4 25 16 68 26 95 10 28 25
79 33 115 18 81 42 176 66 260 10 36 21 88 25 115 3 28 14 75 24 105 10 30 22
88 25 128 4 40 14 91 21 112 8 22 19 86 25 142 6 57 18 126 25 153 8 28 19
106 25 175 6 69 17 154 24 190 8 36 17 128 21 205 3 77 15 264 27 415 17 227
19 327 14 570 -3 162 -10 331 -16 375 -5 44 -14 172 -20 285 -6 113 -17 241
-25 285 -8 44 -19 133 -25 197 -5 64 -17 143 -25 175 -8 32 -18 90 -21 128 -3
39 -14 102 -25 140 -10 39 -21 95 -24 125 -4 30 -15 82 -25 115 -11 33 -22 83
-26 110 -4 28 -15 74 -25 104 -11 30 -19 67 -19 82 0 16 -9 52 -21 81 -11 29
-25 79 -30 112 -6 32 -16 71 -24 86 -8 15 -19 52 -24 81 -5 30 -18 77 -29 104
-29 74 -72 208 -72 225 0 8 -9 31 -19 51 -11 20 -23 54 -26 75 -4 22 -15 53
-26 71 -10 18 -21 49 -25 70 -3 21 -13 49 -21 61 -8 13 -23 48 -34 78 -10 30
-28 79 -39 109 -10 30 -26 65 -35 77 -8 13 -15 29 -15 38 0 8 -11 35 -24 60
-13 25 -26 58 -30 74 -4 16 -16 41 -27 54 -10 14 -19 31 -19 39 0 8 -11 36
-24 62 -13 25 -35 71 -49 101 -76 164 -130 277 -138 290 -9 14 -34 63 -75 145
-8 17 -19 37 -25 45 -5 8 -18 34 -28 56 -11 23 -24 45 -29 48 -6 3 -16 23 -23
44 -6 20 -18 45 -26 54 -15 17 -33 48 -73 123 -22 42 -54 96 -81 136 -9 13
-44 71 -78 129 -34 58 -85 137 -112 175 -61 85 -105 149 -154 221 -10 16 -31
43 -45 61 -14 17 -45 59 -70 93 -25 33 -60 80 -78 103 -37 48 -51 66 -92 122
-88 120 -275 343 -395 470 -62 66 -141 152 -175 190 -91 101 -421 426 -520
512 -164 143 -556 469 -634 528 -117 90 -145 110 -216 160 -66 46 -83 57 -134
91 -16 10 -39 26 -51 34 -12 8 -51 34 -86 57 -35 23 -73 50 -84 60 -11 10 -32
25 -47 33 -49 28 -103 60 -148 90 -25 16 -63 39 -85 50 -22 11 -60 34 -85 50
-25 17 -61 37 -80 46 -19 9 -39 22 -43 30 -4 8 -12 14 -17 14 -13 0 -48 16
-115 54 -99 55 -400 206 -412 206 -6 0 -16 7 -23 15 -7 8 -31 20 -54 26 -22 6
-48 17 -56 24 -8 7 -28 16 -45 20 -16 3 -55 18 -85 32 -87 41 -132 61 -175 79
-22 9 -67 27 -100 41 -33 14 -89 36 -125 50 -36 13 -94 36 -130 50 -36 13 -85
31 -110 40 -25 8 -58 21 -75 29 -16 8 -52 20 -80 28 -27 8 -70 21 -95 30 -70
24 -141 47 -185 58 -22 6 -60 17 -85 25 -25 8 -67 19 -95 25 -27 6 -70 18 -95
28 -25 10 -70 21 -100 25 -30 4 -77 15 -105 25 -27 10 -72 21 -100 25 -27 3
-79 15 -115 25 -36 10 -94 22 -130 25 -35 4 -83 14 -105 22 -22 9 -80 19 -130
24 -49 4 -117 15 -150 24 -32 9 -118 22 -190 30 -71 8 -152 19 -178 24 -27 6
-130 15 -230 21 -100 6 -211 15 -247 21 -164 26 -654 35 -1030 19z m1060
-1164 c58 -9 165 -20 238 -26 73 -6 168 -17 210 -26 42 -9 124 -22 182 -30 58
-7 123 -18 145 -23 22 -6 83 -17 135 -25 91 -15 145 -27 290 -62 36 -9 88 -21
115 -26 28 -6 79 -18 115 -28 36 -10 101 -28 145 -40 124 -32 206 -57 250 -74
22 -8 51 -15 65 -16 14 0 39 -8 55 -18 17 -11 48 -22 70 -26 22 -4 56 -15 75
-25 19 -10 52 -21 73 -25 21 -4 53 -16 70 -27 18 -10 41 -19 52 -19 11 0 38
-11 60 -25 22 -13 51 -25 65 -25 14 0 43 -12 65 -25 22 -14 46 -25 54 -25 8 0
32 -9 55 -19 117 -54 173 -79 196 -86 14 -4 32 -13 40 -20 8 -7 32 -18 52 -24
20 -7 42 -19 48 -27 7 -7 18 -14 24 -14 10 0 110 -49 191 -93 17 -9 35 -17 41
-17 6 0 19 -9 29 -20 10 -11 25 -20 34 -20 9 0 27 -8 41 -17 13 -10 41 -27 62
-38 48 -25 254 -145 328 -190 30 -19 62 -38 70 -42 8 -3 40 -23 70 -43 30 -21
87 -58 125 -83 39 -26 102 -69 140 -97 39 -27 81 -58 95 -67 59 -41 151 -113
240 -185 52 -43 106 -87 120 -97 261 -201 754 -674 980 -941 68 -80 126 -147
129 -150 4 -3 39 -48 79 -100 40 -52 98 -126 128 -165 30 -38 71 -92 90 -120
19 -27 48 -68 65 -90 38 -51 63 -86 121 -171 26 -38 61 -87 77 -109 17 -22 37
-54 45 -71 7 -17 19 -34 24 -38 9 -5 46 -64 129 -203 13 -21 32 -56 43 -78 12
-22 34 -62 50 -90 16 -27 38 -69 49 -91 10 -23 24 -45 29 -48 6 -3 13 -19 17
-35 3 -16 15 -37 26 -47 10 -9 19 -22 19 -27 0 -9 70 -154 90 -187 5 -8 23
-46 41 -85 17 -38 39 -86 49 -105 10 -19 21 -46 25 -60 4 -14 16 -36 26 -49
11 -13 19 -31 19 -40 0 -9 11 -37 25 -63 14 -26 25 -53 25 -60 0 -7 11 -34 25
-60 14 -26 25 -54 25 -63 0 -9 11 -37 25 -63 14 -26 25 -55 25 -64 0 -9 11
-38 25 -64 14 -26 25 -55 25 -66 0 -10 9 -36 19 -56 11 -21 22 -56 26 -77 4
-22 15 -58 25 -80 9 -22 24 -67 33 -100 44 -167 51 -193 67 -235 10 -25 21
-66 24 -91 4 -25 15 -68 25 -95 10 -27 22 -71 25 -99 4 -27 16 -76 27 -108 10
-31 19 -75 19 -97 0 -21 9 -62 20 -89 10 -28 24 -88 30 -135 6 -46 16 -102 24
-123 7 -21 16 -75 20 -121 4 -46 15 -127 25 -180 11 -53 22 -149 26 -212 4
-63 13 -158 21 -210 32 -202 42 -700 24 -1110 -5 -113 -13 -226 -19 -252 -6
-26 -16 -114 -21 -195 -6 -82 -17 -182 -25 -223 -8 -41 -22 -130 -29 -197 -8
-67 -20 -131 -26 -143 -6 -12 -16 -61 -21 -111 -5 -49 -18 -115 -29 -146 -11
-32 -20 -75 -20 -98 0 -22 -9 -71 -20 -110 -10 -38 -26 -101 -34 -140 -18 -84
-44 -189 -58 -230 -6 -16 -15 -48 -20 -70 -6 -22 -19 -67 -30 -100 -11 -33
-25 -82 -33 -110 -19 -70 -63 -195 -79 -225 -7 -14 -17 -42 -20 -64 -4 -21
-16 -55 -27 -75 -10 -20 -19 -43 -19 -52 0 -9 -11 -37 -25 -63 -14 -26 -25
-54 -25 -62 0 -8 -13 -40 -30 -71 -16 -31 -30 -62 -30 -70 0 -8 -6 -27 -14
-41 -32 -60 -76 -162 -76 -175 0 -8 -9 -25 -19 -39 -11 -13 -23 -38 -27 -54
-4 -16 -15 -38 -25 -49 -9 -11 -21 -33 -25 -50 -3 -16 -13 -37 -20 -45 -7 -9
-20 -34 -28 -55 -8 -22 -39 -87 -70 -145 -31 -58 -65 -124 -75 -146 -11 -23
-24 -45 -30 -49 -6 -3 -18 -21 -26 -38 -8 -18 -28 -54 -45 -82 -16 -27 -36
-65 -45 -83 -8 -18 -33 -58 -55 -90 -22 -31 -40 -60 -40 -65 0 -4 -19 -35 -42
-68 -42 -59 -52 -74 -92 -135 -11 -16 -25 -38 -33 -49 -25 -38 -108 -158 -131
-189 -12 -17 -33 -47 -47 -66 -14 -19 -35 -49 -47 -66 -13 -17 -32 -44 -43
-60 -11 -16 -38 -52 -60 -81 -22 -28 -65 -84 -95 -124 -62 -82 -256 -319 -274
-334 -17 -15 -506 -554 -540 -595 -16 -19 -66 -75 -111 -125 -77 -83 -101
-112 -173 -204 -15 -19 -38 -48 -52 -64 -14 -17 -48 -63 -77 -101 -28 -39 -58
-80 -67 -91 -42 -54 -63 -84 -161 -229 -58 -87 -105 -160 -105 -163 0 -3 -10
-18 -22 -33 -13 -15 -32 -43 -43 -61 -11 -18 -30 -49 -42 -69 -12 -19 -28 -46
-35 -60 -6 -14 -19 -36 -29 -50 -19 -30 -93 -165 -126 -232 -13 -27 -28 -48
-33 -48 -5 0 -13 -12 -16 -27 -4 -16 -17 -48 -30 -73 -13 -25 -24 -50 -24 -56
0 -6 -8 -22 -18 -35 -11 -13 -22 -37 -26 -53 -4 -16 -16 -41 -27 -54 -10 -14
-19 -32 -19 -41 0 -9 -9 -35 -21 -56 -11 -22 -27 -61 -35 -86 -8 -26 -21 -52
-29 -59 -8 -7 -15 -21 -15 -32 0 -11 -11 -46 -24 -77 -46 -109 -76 -192 -76
-209 0 -9 -12 -39 -25 -67 -14 -27 -25 -58 -25 -67 0 -10 -9 -37 -19 -60 -11
-24 -26 -70 -35 -103 -35 -141 -57 -222 -68 -255 -6 -19 -17 -62 -23 -95 -7
-33 -22 -96 -34 -139 -11 -44 -21 -91 -21 -105 0 -14 -7 -39 -15 -55 -8 -15
-21 -71 -29 -125 -8 -53 -22 -123 -30 -156 -9 -32 -16 -78 -16 -100 0 -23 -11
-108 -25 -190 -16 -97 -25 -192 -26 -271 0 -66 -4 -126 -8 -132 -5 -9 -232
-12 -885 -12 -484 -1 -882 3 -886 7 -11 13 8 637 25 783 8 74 20 223 25 330 6
107 17 233 24 280 8 47 17 132 21 190 4 58 15 159 25 225 10 66 24 165 30 220
7 55 18 125 25 155 7 30 16 87 20 125 4 39 13 95 20 125 8 30 19 96 25 145 7
50 20 123 31 164 10 41 19 89 19 106 0 17 9 63 20 103 11 40 25 108 31 150 6
42 17 91 24 108 7 17 18 64 25 105 7 41 21 100 31 131 10 32 19 71 19 87 0 17
7 52 16 78 9 26 25 82 35 123 19 81 60 226 77 275 23 65 54 163 66 212 8 28
21 62 30 75 9 12 16 33 16 45 0 12 11 51 24 85 31 84 54 151 76 223 9 33 27
80 38 105 12 25 22 54 22 65 0 11 9 38 20 60 11 22 19 48 20 58 0 10 9 35 19
55 11 21 23 56 27 77 3 22 14 56 24 75 10 19 21 53 24 75 4 22 16 54 26 70 9
17 21 48 25 70 4 22 15 54 25 70 9 17 21 47 24 69 4 21 16 55 27 75 10 20 19
45 19 56 0 11 11 44 25 73 14 30 25 61 25 70 0 10 12 40 25 67 14 28 25 59 25
70 0 11 9 37 20 58 11 21 25 61 31 89 6 28 20 69 30 92 10 23 19 51 19 64 0
13 8 37 17 55 9 18 24 59 34 92 23 79 48 151 70 201 10 23 21 59 24 80 4 22
15 53 25 70 9 16 20 48 24 70 4 21 14 49 22 61 8 12 19 46 25 75 6 29 20 67
30 84 10 17 19 42 19 56 0 13 9 41 20 63 11 21 23 55 26 74 4 20 14 50 22 66
9 17 23 57 33 90 23 79 48 151 70 201 10 23 21 59 25 80 4 22 15 55 25 74 9
20 21 54 25 75 3 22 15 56 25 75 9 20 20 54 24 75 4 22 15 51 24 65 10 14 21
43 25 65 4 21 16 55 25 75 10 19 23 57 30 83 6 27 18 59 25 70 8 12 17 42 20
67 4 25 14 55 22 68 8 12 19 48 25 80 6 31 16 66 23 77 7 11 16 38 20 60 4 21
14 51 21 65 7 14 21 54 30 89 9 35 25 79 36 99 10 20 19 48 19 62 0 14 8 41
19 60 10 19 23 59 30 88 6 29 17 63 25 75 8 12 18 40 21 62 4 22 16 54 25 70
10 17 21 48 25 70 4 22 15 54 24 70 10 17 21 50 25 74 3 23 13 53 21 65 14 21
36 109 52 209 7 45 -25 246 -43 267 -6 8 -19 32 -28 53 -23 57 -159 186 -236
224 -77 38 -200 73 -257 73 -22 0 -69 -9 -103 -20 -34 -11 -69 -20 -76 -20 -8
0 -41 -14 -75 -32 -70 -37 -189 -142 -213 -190 -10 -18 -24 -44 -31 -58 -24
-41 -65 -155 -65 -179 0 -12 -11 -47 -24 -79 -13 -31 -27 -73 -31 -92 -4 -19
-16 -49 -26 -66 -10 -17 -19 -45 -19 -62 0 -17 -5 -34 -11 -37 -12 -8 -49 23
-49 41 0 7 -21 39 -47 71 -27 32 -66 84 -88 116 -22 31 -52 74 -67 95 -15 20
-57 80 -94 132 -36 52 -79 113 -95 135 -16 22 -41 56 -54 75 -14 19 -35 49
-47 66 -13 17 -32 44 -43 60 -44 64 -148 196 -185 234 -49 51 -121 106 -151
115 -13 4 -31 14 -41 22 -24 22 -151 36 -255 29 -74 -5 -102 -12 -146 -35
-122 -64 -211 -152 -361 -356 -9 -11 -26 -33 -39 -50 -12 -16 -32 -43 -42 -59
-11 -16 -30 -43 -43 -60 -12 -17 -33 -47 -47 -66 -14 -19 -35 -49 -47 -66 -13
-17 -45 -64 -73 -104 -95 -138 -173 -240 -184 -240 -4 0 -23 21 -42 47 -18 26
-39 54 -47 63 -14 16 -50 65 -92 125 -14 20 -36 51 -50 70 -14 19 -36 50 -50
70 -14 20 -36 51 -50 70 -14 19 -36 50 -50 70 -14 20 -46 63 -72 97 -27 33
-48 65 -48 71 0 5 -9 19 -20 31 -11 12 -46 52 -77 90 -63 77 -112 125 -129
126 -6 0 -18 7 -25 16 -7 9 -47 32 -89 52 -75 36 -76 36 -210 36 -127 1 -139
-1 -195 -27 -71 -33 -128 -71 -170 -112 -36 -36 -131 -150 -163 -196 -13 -19
-64 -92 -113 -163 -50 -71 -97 -141 -105 -155 -8 -14 -28 -44 -45 -66 -16 -22
-41 -56 -54 -75 -34 -48 -70 -98 -100 -140 -14 -19 -35 -50 -46 -67 -12 -18
-26 -33 -33 -33 -10 0 -99 102 -162 185 -8 11 -28 37 -44 59 -17 21 -30 45
-30 52 0 7 -6 17 -13 21 -8 4 -22 22 -33 38 -10 17 -27 39 -36 49 -10 11 -18
23 -18 26 0 4 -31 49 -69 101 -38 52 -80 109 -93 127 -13 19 -34 46 -48 62
-14 15 -47 54 -75 86 -85 98 -142 144 -235 189 -72 35 -156 48 -255 42 -63 -5
-95 -13 -155 -41 -41 -19 -103 -59 -136 -88 -60 -51 -142 -145 -214 -245 -19
-26 -38 -50 -41 -53 -3 -3 -11 -15 -18 -27 -6 -13 -33 -51 -59 -86 -64 -87
-119 -163 -207 -287 -134 -190 -180 -252 -201 -275 -11 -12 -26 -36 -33 -54
-8 -18 -21 -31 -31 -31 -14 0 -21 13 -30 52 -6 29 -17 62 -24 73 -7 11 -19 45
-26 75 -7 30 -18 66 -25 80 -8 14 -16 44 -20 65 -4 22 -15 54 -25 70 -10 17
-20 42 -24 57 -12 52 -95 166 -156 216 -48 40 -147 102 -161 102 -5 0 -36 9
-69 21 -49 17 -77 20 -157 16 -73 -3 -115 -10 -163 -29 -58 -22 -83 -36 -175
-98 -38 -26 -115 -122 -145 -182 -37 -76 -64 -213 -57 -287 11 -97 35 -211 50
-234 8 -13 18 -43 22 -67 4 -25 15 -58 25 -75 10 -16 21 -46 25 -65 4 -19 16
-51 25 -70 10 -20 22 -54 25 -75 4 -22 16 -54 26 -71 11 -17 19 -42 19 -55 0
-13 10 -44 21 -69 12 -25 29 -72 39 -105 30 -98 51 -158 67 -195 9 -19 21 -57
28 -85 15 -56 36 -119 71 -213 13 -34 24 -71 24 -82 0 -10 11 -40 25 -66 14
-26 25 -57 25 -68 0 -12 8 -37 18 -56 11 -19 24 -57 31 -85 7 -27 17 -55 22
-62 6 -6 17 -40 25 -74 8 -35 19 -68 23 -73 5 -6 16 -36 25 -66 23 -81 56
-180 76 -225 10 -22 21 -55 25 -74 4 -18 16 -52 26 -75 10 -22 19 -51 19 -64
0 -13 11 -44 25 -70 14 -26 25 -58 25 -72 0 -14 11 -47 25 -75 13 -27 25 -59
25 -70 0 -11 8 -36 19 -55 10 -19 23 -59 30 -88 6 -29 17 -65 25 -80 7 -15 17
-43 21 -62 3 -19 15 -53 25 -75 22 -46 45 -115 66 -195 8 -30 21 -67 29 -81 8
-15 20 -51 26 -80 7 -30 18 -63 25 -74 7 -11 18 -43 24 -72 6 -28 20 -68 31
-89 10 -21 19 -47 19 -57 0 -10 11 -46 24 -80 14 -34 28 -75 32 -92 4 -16 16
-43 26 -60 10 -16 18 -39 18 -49 0 -11 9 -38 19 -60 11 -23 26 -67 35 -98 9
-31 20 -59 25 -63 5 -3 12 -24 16 -48 4 -23 15 -58 25 -77 10 -19 21 -51 24
-70 4 -19 15 -55 26 -80 10 -25 25 -65 33 -90 20 -60 35 -102 63 -178 13 -34
24 -70 24 -80 0 -9 9 -33 19 -53 11 -20 23 -54 27 -75 4 -21 18 -59 31 -83 12
-24 23 -53 23 -65 0 -12 9 -40 20 -64 10 -23 22 -59 26 -80 4 -20 14 -53 24
-72 9 -19 22 -57 29 -83 6 -27 18 -59 25 -70 8 -12 17 -42 21 -67 4 -25 13
-55 21 -67 8 -12 19 -46 25 -75 6 -29 19 -74 30 -100 10 -26 19 -56 19 -68 0
-12 11 -54 24 -93 13 -40 27 -90 31 -112 3 -22 15 -64 26 -93 10 -29 19 -66
19 -83 0 -17 9 -49 20 -73 10 -24 24 -72 30 -107 5 -35 19 -93 30 -127 11 -35
20 -75 20 -88 0 -13 11 -67 25 -120 14 -53 25 -115 25 -139 0 -23 9 -69 19
-102 10 -32 22 -95 26 -139 4 -43 13 -101 21 -127 7 -26 18 -96 25 -155 6 -59
19 -138 29 -177 10 -38 21 -108 25 -155 3 -47 13 -112 20 -146 8 -34 19 -130
25 -215 6 -85 13 -161 15 -169 12 -42 26 -177 35 -347 6 -103 18 -244 26 -313
16 -131 36 -829 24 -843 -9 -10 -1752 -9 -1761 1 -4 4 -12 84 -18 177 -6 94
-17 204 -25 245 -8 41 -17 118 -21 170 -3 52 -15 127 -25 165 -10 39 -22 97
-26 130 -3 33 -12 71 -19 85 -7 14 -18 54 -24 90 -7 36 -21 94 -32 130 -22 74
-41 149 -70 269 -11 46 -24 92 -29 101 -6 10 -15 42 -21 72 -7 29 -18 62 -25
73 -7 11 -18 43 -24 72 -6 28 -20 68 -31 89 -10 21 -19 47 -19 59 0 11 -8 36
-19 55 -10 19 -24 58 -30 87 -7 29 -19 57 -26 63 -7 6 -17 30 -20 52 -4 23
-18 61 -31 86 -13 25 -24 52 -24 61 0 9 -9 30 -20 46 -11 17 -20 37 -20 45 0
8 -11 37 -24 65 -13 27 -38 82 -56 120 -17 39 -36 77 -41 85 -5 8 -16 31 -24
50 -9 19 -20 42 -25 50 -6 8 -18 31 -26 50 -9 19 -25 45 -35 59 -10 13 -19 32
-19 41 0 10 -6 23 -14 29 -8 7 -24 31 -35 54 -12 23 -35 62 -51 87 -17 25 -37
59 -45 77 -8 17 -20 35 -26 39 -6 3 -17 21 -25 38 -8 17 -30 51 -49 76 -19 25
-42 57 -50 73 -9 15 -29 46 -46 70 -16 23 -49 71 -73 107 -24 36 -51 72 -60
79 -9 7 -16 18 -16 24 0 6 -10 21 -21 33 -12 13 -27 32 -33 43 -15 26 -120
157 -241 303 -55 65 -115 138 -134 161 -36 45 -177 202 -277 307 -57 60 -92
99 -214 235 -26 27 -84 95 -130 150 -47 55 -100 115 -118 134 -17 19 -47 54
-65 78 -17 24 -66 86 -107 138 -41 51 -86 110 -100 130 -14 20 -43 60 -66 88
-35 45 -104 141 -140 195 -13 20 -78 118 -98 147 -55 83 -94 142 -111 170 -11
18 -39 61 -62 96 -24 35 -43 67 -43 72 0 5 -11 22 -25 39 -14 16 -25 35 -25
43 0 7 -7 18 -15 25 -8 6 -31 45 -51 85 -20 41 -42 79 -49 85 -7 6 -16 22 -19
35 -4 14 -17 41 -31 61 -14 20 -25 42 -25 48 0 7 -11 27 -25 46 -14 19 -25 40
-25 48 0 8 -9 26 -19 41 -11 15 -23 39 -26 54 -4 14 -13 31 -21 38 -8 6 -19
31 -25 55 -6 24 -17 49 -25 55 -8 6 -19 30 -25 52 -6 23 -19 52 -30 65 -10 14
-19 32 -19 41 0 9 -9 31 -20 49 -11 19 -27 50 -34 70 -29 77 -58 148 -75 187
-19 40 -27 61 -62 165 -11 30 -23 62 -28 70 -4 8 -16 42 -26 75 -9 33 -21 65
-26 71 -5 7 -18 40 -28 75 -10 35 -24 78 -30 94 -31 88 -71 218 -71 233 0 9
-8 39 -19 67 -20 55 -42 134 -71 265 -11 47 -26 112 -35 145 -38 152 -65 285
-65 322 0 23 -9 69 -19 104 -11 35 -23 100 -26 144 -4 44 -15 127 -25 185 -11
58 -24 173 -29 255 -6 83 -17 191 -25 240 -20 128 -30 681 -17 935 6 113 15
230 20 260 5 30 14 132 20 225 6 94 20 215 31 270 10 55 24 141 30 190 6 50
17 113 25 140 7 28 16 81 20 119 4 37 15 93 26 124 10 30 19 72 19 94 0 21 9
64 19 95 11 32 22 78 26 103 3 25 15 74 25 110 20 66 39 135 67 245 8 33 23
81 34 106 10 25 21 66 25 90 4 24 14 58 24 74 10 17 21 48 25 70 3 21 15 56
26 77 10 20 19 46 19 56 0 11 11 40 25 66 14 26 25 55 25 64 0 9 11 40 25 67
13 28 25 56 25 64 0 8 11 37 24 65 57 124 76 167 76 178 0 9 10 32 60 138 4 8
12 24 18 35 6 11 28 56 48 100 21 44 46 91 56 104 10 13 18 34 18 47 0 12 5
26 11 29 5 4 21 30 34 58 14 29 47 93 75 142 27 50 59 108 70 130 11 22 31 58
44 80 14 22 32 54 41 70 10 17 38 62 63 100 25 39 55 86 67 105 68 111 83 133
153 234 26 37 56 82 66 100 11 17 38 54 60 83 23 28 52 68 66 88 34 49 154
201 279 354 193 236 552 618 746 793 103 93 372 322 424 361 30 22 67 52 83
66 15 14 44 37 64 51 19 14 61 45 92 70 31 25 70 54 86 65 62 42 74 51 116 80
23 17 57 39 75 50 17 11 51 34 74 50 24 17 56 37 72 46 16 9 36 22 44 29 8 7
28 20 44 29 49 27 104 60 151 91 25 17 59 36 75 44 17 8 60 32 96 54 37 23 82
48 100 57 19 8 54 27 79 42 25 14 86 47 135 73 50 26 99 52 110 58 11 6 36 18
55 27 19 8 42 19 50 24 25 16 123 59 150 67 14 4 36 15 49 25 13 11 31 19 40
19 9 0 39 11 66 25 28 13 60 25 71 25 12 0 33 9 47 20 14 11 46 24 71 29 25 5
52 13 59 20 13 10 47 23 172 66 28 10 68 26 90 36 22 10 58 23 80 28 22 5 65
18 95 29 77 27 190 60 355 104 22 6 75 21 118 34 43 13 89 24 103 24 13 0 56
11 96 24 40 13 96 27 125 30 28 4 68 13 89 22 20 8 78 20 128 25 50 6 109 16
131 23 22 8 67 16 100 20 33 3 134 17 225 31 161 23 530 62 660 69 36 2 279 2
540 0 366 -2 499 -6 580 -18z m-2718 -9528 c18 -25 60 -81 93 -125 61 -79 68
-89 117 -159 63 -90 252 -336 329 -430 78 -94 162 -171 204 -189 17 -7 54 -23
83 -36 47 -20 68 -23 195 -22 131 0 146 2 198 26 121 55 185 116 315 297 32
45 71 99 86 119 15 20 31 43 35 51 3 8 18 29 32 47 14 17 36 46 49 65 13 18
57 78 98 132 40 55 76 108 80 118 3 10 9 18 14 18 5 0 17 14 25 31 9 16 23 38
31 47 8 9 23 28 33 42 16 21 21 22 35 11 9 -7 16 -18 16 -23 0 -6 12 -25 28
-43 15 -18 38 -50 52 -70 14 -20 43 -60 66 -88 22 -29 57 -76 77 -106 20 -29
54 -74 76 -100 21 -25 44 -58 52 -72 8 -14 32 -49 54 -78 22 -28 61 -79 88
-114 87 -114 121 -153 175 -197 29 -25 67 -51 85 -59 18 -7 52 -23 77 -35 39
-18 62 -21 185 -20 125 0 144 3 180 22 22 12 48 22 57 22 23 0 131 82 168 128
16 20 62 78 102 127 40 50 88 113 107 140 35 51 163 224 281 383 36 48 81 111
99 140 19 28 41 52 48 52 8 0 22 -14 31 -31 9 -17 28 -46 42 -65 14 -18 36
-49 50 -69 14 -19 53 -72 88 -118 35 -45 74 -98 87 -117 95 -135 172 -238 245
-328 41 -52 82 -104 91 -118 9 -13 33 -39 55 -58 l39 -34 -23 -44 c-12 -25
-22 -56 -22 -70 0 -14 -11 -46 -25 -72 -14 -26 -25 -58 -25 -71 0 -14 -9 -44
-19 -67 -23 -50 -56 -150 -75 -225 -7 -29 -18 -59 -24 -66 -6 -7 -17 -38 -23
-68 -6 -30 -19 -70 -29 -89 -10 -19 -21 -51 -25 -70 -4 -19 -13 -44 -20 -56
-7 -11 -20 -45 -28 -75 -20 -68 -62 -191 -75 -215 -11 -21 -57 -157 -72 -214
-5 -19 -18 -53 -30 -75 -11 -21 -20 -48 -20 -60 0 -11 -9 -34 -19 -52 -11 -17
-23 -49 -27 -70 -4 -21 -14 -54 -24 -73 -10 -19 -21 -53 -24 -75 -4 -21 -16
-55 -26 -75 -9 -19 -21 -51 -25 -70 -4 -19 -15 -51 -25 -70 -9 -19 -20 -52
-24 -74 -4 -21 -16 -55 -27 -75 -10 -20 -19 -45 -19 -56 0 -11 -11 -44 -25
-73 -14 -30 -25 -62 -25 -73 0 -10 -11 -47 -24 -81 -30 -81 -44 -121 -63 -183
-8 -27 -23 -68 -34 -90 -10 -22 -23 -62 -29 -88 -6 -27 -17 -58 -24 -70 -8
-12 -17 -40 -21 -62 -4 -22 -15 -60 -25 -85 -24 -60 -58 -163 -74 -226 -7 -28
-20 -62 -29 -75 -9 -13 -17 -35 -17 -49 0 -14 -12 -47 -25 -75 -14 -27 -25
-59 -25 -70 0 -11 -11 -42 -25 -70 -13 -27 -25 -59 -25 -70 0 -11 -8 -36 -19
-55 -10 -19 -23 -57 -29 -85 -6 -27 -20 -68 -32 -90 -11 -21 -20 -47 -20 -57
0 -9 -9 -39 -19 -66 -11 -27 -25 -78 -31 -113 -6 -35 -17 -73 -24 -84 -8 -11
-17 -45 -21 -75 -4 -30 -14 -71 -22 -90 -8 -19 -19 -62 -24 -95 -5 -33 -18
-87 -29 -120 -18 -58 -33 -121 -66 -290 -8 -44 -24 -111 -34 -150 -10 -38 -22
-101 -25 -140 -4 -38 -13 -84 -20 -102 -7 -17 -18 -72 -24 -121 -6 -49 -18
-111 -26 -138 -8 -27 -20 -89 -25 -139 -6 -49 -17 -112 -26 -140 -8 -27 -19
-97 -24 -155 -5 -58 -16 -132 -24 -165 -8 -33 -18 -105 -21 -160 -4 -55 -14
-131 -22 -170 -8 -38 -21 -153 -28 -255 -8 -102 -21 -232 -29 -290 -8 -58 -17
-186 -21 -285 -3 -99 -13 -250 -21 -335 -8 -85 -18 -276 -22 -423 l-7 -268
-809 0 c-445 0 -810 2 -812 4 -2 2 -7 100 -10 218 -9 358 -45 924 -74 1189
-11 96 -22 218 -26 270 -3 52 -12 131 -19 175 -8 44 -19 132 -25 195 -6 63
-17 142 -26 175 -8 33 -20 102 -24 153 -5 51 -19 130 -30 176 -11 46 -20 100
-20 120 0 20 -11 79 -25 132 -14 53 -25 110 -25 127 0 17 -9 63 -19 101 -11
39 -25 107 -31 151 -7 44 -18 98 -25 120 -8 22 -18 74 -24 115 -6 42 -17 91
-24 110 -8 19 -18 64 -22 100 -4 36 -13 77 -21 92 -7 14 -20 64 -28 110 -8 45
-21 99 -29 118 -8 19 -17 59 -21 89 -4 29 -13 63 -21 75 -7 11 -19 50 -25 85
-6 35 -19 85 -29 110 -10 25 -21 62 -25 82 -3 19 -15 53 -26 74 -11 22 -20 51
-20 65 0 14 -12 48 -25 75 -14 28 -25 59 -25 70 0 11 -12 43 -25 70 -14 28
-25 59 -25 70 0 12 -9 38 -19 59 -11 21 -23 52 -26 69 -3 18 -14 52 -25 77
-17 43 -31 81 -67 195 -9 28 -24 68 -34 90 -9 22 -20 56 -24 75 -4 19 -16 52
-26 72 -11 21 -19 48 -19 60 0 13 -11 46 -25 73 -13 28 -25 58 -25 68 0 10
-11 44 -25 77 -14 33 -25 68 -25 78 0 10 -9 35 -20 57 -11 21 -23 55 -26 74
-4 20 -18 58 -30 86 -13 27 -24 58 -24 68 0 10 -11 39 -25 65 -14 26 -25 57
-25 69 0 12 -9 42 -19 65 -11 24 -26 63 -34 88 -8 25 -19 59 -25 75 -5 17 -17
50 -25 75 -8 25 -20 59 -25 75 -13 34 -34 101 -62 190 -34 109 -70 208 -79
219 -5 6 -16 38 -24 71 -17 66 -39 133 -69 210 -11 28 -24 68 -29 90 -6 21
-14 44 -19 50 -5 6 -16 36 -24 66 -8 30 -23 74 -35 99 -11 25 -21 54 -21 65 0
11 -8 36 -19 55 -10 19 -21 52 -25 74 -4 21 -16 55 -27 75 -10 20 -19 45 -19
56 0 11 -11 44 -25 73 -14 30 -25 63 -25 73 0 11 -11 42 -25 69 -14 27 -25 58
-25 68 0 10 -9 35 -20 57 -11 22 -20 45 -20 51 0 7 14 22 30 34 28 20 88 91
207 248 26 34 57 75 69 90 21 27 96 128 176 235 24 32 63 84 88 115 25 31 50
64 55 73 6 9 19 29 29 45 11 16 30 46 43 67 13 21 28 37 33 35 4 -2 23 -24 42
-50z"/>
    <path d="M18898 33733 c7 -3 16 -2 19 1 4 3 -2 6 -13 5 -11 0 -14 -3 -6 -6z"/>
    <path d="M18670 33690 c-11 -7 -4 -10 28 -10 23 0 42 5 42 10 0 13 -50 13 -70
0z"/>
    <path d="M22293 33683 c9 -2 23 -2 30 0 6 3 -1 5 -18 5 -16 0 -22 -2 -12 -5z"/>
    <path d="M22450 33640 c0 -5 7 -10 15 -10 8 0 15 5 15 10 0 6 -7 10 -15 10 -8
0 -15 -4 -15 -10z"/>
    <path d="M22668 33583 c6 -2 18 -2 25 0 6 3 1 5 -13 5 -14 0 -19 -2 -12 -5z"/>
    <path d="M23795 33200 c-4 -6 3 -10 14 -10 25 0 27 6 6 13 -8 4 -17 2 -20 -3z"/>
    <path d="M25120 32460 c0 -5 5 -10 10 -10 6 0 10 5 10 10 0 6 -4 10 -10 10 -5
0 -10 -4 -10 -10z"/>
    <path d="M25460 32220 c0 -5 4 -10 9 -10 6 0 13 5 16 10 3 6 -1 10 -9 10 -9 0
-16 -4 -16 -10z"/>
    <path d="M27270 30259 c0 -5 5 -7 10 -4 6 3 10 8 10 11 0 2 -4 4 -10 4 -5 0
-10 -5 -10 -11z"/>
    <path d="M27420 30030 c0 -11 5 -20 10 -20 6 0 10 9 10 20 0 11 -4 20 -10 20
-5 0 -10 -9 -10 -20z"/>
    <path d="M27470 29970 c0 -5 5 -10 10 -10 6 0 10 5 10 10 0 6 -4 10 -10 10 -5
0 -10 -4 -10 -10z"/>
    <path d="M28010 28900 c0 -5 5 -10 10 -10 6 0 10 5 10 10 0 6 -4 10 -10 10 -5
0 -10 -4 -10 -10z"/>
    <path d="M16528 25703 c6 -2 18 -2 25 0 6 3 1 5 -13 5 -14 0 -19 -2 -12 -5z"/>
    <path d="M21195 25500 c3 -5 8 -10 11 -10 2 0 4 5 4 10 0 6 -5 10 -11 10 -5 0
-7 -4 -4 -10z"/>
    <path d="M19700 25410 c0 -5 5 -10 10 -10 6 0 10 5 10 10 0 6 -4 10 -10 10 -5
0 -10 -4 -10 -10z"/>
    <path d="M17354 25066 c-8 -22 3 -33 18 -18 9 9 9 15 0 24 -9 9 -13 7 -18 -6z"/>
    <path d="M19440 25060 c0 -5 5 -10 10 -10 6 0 10 5 10 10 0 6 -4 10 -10 10 -5
0 -10 -4 -10 -10z"/>
    <path d="M12552 23735 c0 -16 2 -22 5 -12 2 9 2 23 0 30 -3 6 -5 -1 -5 -18z"/>
    <path d="M28362 23580 c0 -14 2 -19 5 -12 2 6 2 18 0 25 -3 6 -5 1 -5 -13z"/>
    <path d="M16420 23431 c0 -11 5 -23 10 -26 6 -3 10 3 10 14 0 11 -4 23 -10 26
-5 3 -10 -3 -10 -14z"/>
    <path d="M28261 23194 c0 -11 3 -14 6 -6 3 7 2 16 -1 19 -3 4 -6 -2 -5 -13z"/>
    <path d="M28212 23045 c0 -16 2 -22 5 -12 2 9 2 23 0 30 -3 6 -5 -1 -5 -18z"/>
    <path d="M16960 21870 c0 -5 5 -10 10 -10 6 0 10 5 10 10 0 6 -4 10 -10 10 -5
0 -10 -4 -10 -10z"/>
    <path d="M13381 21614 c0 -11 3 -14 6 -6 3 7 2 16 -1 19 -3 4 -6 -2 -5 -13z"/>
    <path d="M13470 21456 c0 -8 5 -18 10 -21 6 -3 10 1 10 9 0 8 -4 18 -10 21 -5
3 -10 -1 -10 -9z"/>
    <path d="M27470 21455 c0 -8 5 -15 10 -15 6 0 10 7 10 15 0 8 -4 15 -10 15 -5
0 -10 -7 -10 -15z"/>
    <path d="M17100 21406 c0 -9 5 -16 10 -16 6 0 10 4 10 9 0 6 -4 13 -10 16 -5
3 -10 -1 -10 -9z"/>
    <path d="M27420 21380 c0 -11 5 -20 10 -20 6 0 10 9 10 20 0 11 -4 20 -10 20
-5 0 -10 -9 -10 -20z"/>
    <path d="M13520 21376 c0 -9 5 -16 10 -16 6 0 10 4 10 9 0 6 -4 13 -10 16 -5
3 -10 -1 -10 -9z"/>
    <path d="M17210 21135 c0 -15 4 -24 10 -20 6 3 10 12 10 20 0 8 -4 17 -10 20
-6 4 -10 -5 -10 -20z"/>
    <path d="M17256 21033 c-9 -10 -7 -61 3 -67 10 -7 21 16 21 44 0 20 -13 33
-24 23z"/>
    <path d="M17356 20722 c-2 -4 -1 -14 5 -22 7 -12 9 -10 9 8 0 23 -5 28 -14 14z"/>
    <path d="M17451 20444 c0 -11 3 -14 6 -6 3 7 2 16 -1 19 -3 4 -6 -2 -5 -13z"/>
    <path d="M26535 20170 c-3 -5 -1 -10 4 -10 6 0 11 5 11 10 0 6 -2 10 -4 10 -3
0 -8 -4 -11 -10z"/>
    <path d="M17647 19904 c-10 -11 -8 -64 2 -64 14 0 23 37 14 55 -5 9 -12 12
-16 9z"/>
    <path d="M17702 19730 c0 -14 2 -19 5 -12 2 6 2 18 0 25 -3 6 -5 1 -5 -13z"/>
    <path d="M15035 19480 c3 -5 8 -10 11 -10 2 0 4 5 4 10 0 6 -5 10 -11 10 -5 0
-7 -4 -4 -10z"/>
    <path d="M15090 19400 c0 -5 9 -10 21 -10 11 0 17 5 14 10 -3 6 -13 10 -21 10
-8 0 -14 -4 -14 -10z"/>
    <path d="M25816 19361 c-4 -7 -5 -15 -2 -18 9 -9 19 4 14 18 -4 11 -6 11 -12
0z"/>
    <path d="M15280 19186 c0 -8 5 -18 10 -21 6 -3 10 1 10 9 0 8 -4 18 -10 21 -5
3 -10 -1 -10 -9z"/>
    <path d="M17941 18944 c0 -11 3 -14 6 -6 3 7 2 16 -1 19 -3 4 -6 -2 -5 -13z"/>
    <path d="M18037 18574 c-10 -11 -8 -44 2 -44 6 0 13 4 16 10 8 12 -9 43 -18
34z"/>
    <path d="M25170 18480 c0 -11 5 -20 10 -20 6 0 10 9 10 20 0 11 -4 20 -10 20
-5 0 -10 -9 -10 -20z"/>
    <path d="M15820 18405 c0 -8 5 -15 10 -15 6 0 10 7 10 15 0 8 -4 15 -10 15 -5
0 -10 -7 -10 -15z"/>
    <path d="M25121 18404 c0 -11 3 -14 6 -6 3 7 2 16 -1 19 -3 4 -6 -2 -5 -13z"/>
    <path d="M18093 18320 c0 -25 2 -35 4 -22 2 12 2 32 0 45 -2 12 -4 2 -4 -23z"/>
    <path d="M15865 18330 c-4 -6 -3 -16 3 -22 6 -6 12 -6 17 2 4 6 3 16 -3 22 -6
6 -12 6 -17 -2z"/>
    <path d="M25025 18220 c-3 -5 1 -10 9 -10 9 0 16 5 16 10 0 6 -4 10 -9 10 -6
0 -13 -4 -16 -10z"/>
    <path d="M15971 18154 c0 -11 3 -14 6 -6 3 7 2 16 -1 19 -3 4 -6 -2 -5 -13z"/>
    <path d="M18142 18145 c0 -16 2 -22 5 -12 2 9 2 23 0 30 -3 6 -5 -1 -5 -18z"/>
    <path d="M16071 17964 c0 -11 3 -14 6 -6 3 7 2 16 -1 19 -3 4 -6 -2 -5 -13z"/>
    <path d="M18282 17235 c0 -16 2 -22 5 -12 2 9 2 23 0 30 -3 6 -5 -1 -5 -18z"/>
    <path d="M22668 17214 c-5 -4 -8 -23 -8 -43 0 -25 3 -32 11 -24 6 6 9 25 7 43
-2 17 -6 28 -10 24z"/>
    <path d="M16511 16834 c0 -11 3 -14 6 -6 3 7 2 16 -1 19 -3 4 -6 -2 -5 -13z"/>
    <path d="M16550 16710 c0 -5 5 -10 10 -10 6 0 10 5 10 10 0 6 -4 10 -10 10 -5
0 -10 -4 -10 -10z"/>
    <path d="M16600 16510 c0 -25 4 -39 10 -35 6 3 10 19 10 35 0 16 -4 32 -10 35
-6 4 -10 -10 -10 -35z"/>
    <path d="M24340 16541 c0 -6 5 -13 10 -16 6 -3 10 1 10 9 0 9 -4 16 -10 16 -5
0 -10 -4 -10 -9z"/>
    <path d="M24290 16310 c0 -11 5 -20 10 -20 6 0 10 9 10 20 0 11 -4 20 -10 20
-5 0 -10 -9 -10 -20z"/>
    <path d="M18426 15305 c-9 -23 -8 -25 9 -25 17 0 19 9 6 28 -7 11 -10 10 -15
-3z"/>
    <path d="M24136 15301 c-15 -17 -16 -19 -1 -25 27 -10 35 -7 35 13 0 28 -15
33 -34 12z"/>
    <path d="M18430 24304 c0 -8 5 -12 10 -9 6 4 8 11 5 16 -9 14 -15 11 -15 -7z"/>
    <path d="M20080 23804 c0 -8 5 -12 10 -9 6 3 10 10 10 16 0 5 -4 9 -10 9 -5 0
-10 -7 -10 -16z"/>
    <path d="M22882 22555 c0 -16 2 -22 5 -12 2 9 2 23 0 30 -3 6 -5 -1 -5 -18z"/>
    <path d="M22831 22424 c0 -11 3 -14 6 -6 3 7 2 16 -1 19 -3 4 -6 -2 -5 -13z"/>
    <path d="M18166 22303 c-4 -9 -2 -21 4 -27 7 -7 10 -2 10 17 0 31 -5 34 -14
10z"/>
    <path d="M22780 22275 c1 -26 2 -28 11 -12 8 14 8 22 0 30 -8 8 -11 3 -11 -18z"/>
    <path d="M22731 22154 c0 -11 3 -14 6 -6 3 7 2 16 -1 19 -3 4 -6 -2 -5 -13z"/>
    <path d="M21951 19850 c0 -29 1 -32 10 -17 7 11 7 23 0 35 -9 14 -10 11 -10
-18z"/>
    <path d="M21900 19689 c0 -11 4 -18 10 -14 5 3 7 12 3 20 -7 21 -13 19 -13 -6z"/>
    <path d="M21511 18104 c0 -11 3 -14 6 -6 3 7 2 16 -1 19 -3 4 -6 -2 -5 -13z"/>
    <path d="M21412 17530 c0 -14 2 -19 5 -12 2 6 2 18 0 25 -3 6 -5 1 -5 -13z"/>
    <path d="M21205 15300 c-7 -12 2 -30 16 -30 5 0 9 9 9 20 0 21 -15 27 -25 10z"/>
    <path d="M19730 15290 c0 -5 5 -10 10 -10 6 0 10 5 10 10 0 6 -4 10 -10 10 -5
0 -10 -4 -10 -10z"/>
    <path d="M22785 34890 c3 -5 15 -10 26 -10 10 0 19 5 19 10 0 6 -12 10 -26 10
-14 0 -23 -4 -19 -10z"/>
    <path d="M22978 34843 c7 -3 16 -2 19 1 4 3 -2 6 -13 5 -11 0 -14 -3 -6 -6z"/>
    <path d="M23338 34743 c6 -2 18 -2 25 0 6 3 1 5 -13 5 -14 0 -19 -2 -12 -5z"/>
    <path d="M23730 34600 c0 -5 12 -10 26 -10 14 0 23 4 19 10 -3 6 -15 10 -26
10 -10 0 -19 -4 -19 -10z"/>
    <path d="M25095 33971 c-7 -12 12 -24 25 -16 11 7 4 25 -10 25 -5 0 -11 -4
-15 -9z"/>
    <path d="M25185 33920 c-3 -6 1 -13 10 -16 19 -8 30 0 20 15 -8 14 -22 14 -30
1z"/>
    <path d="M15655 33860 c-3 -5 3 -10 14 -10 11 0 23 5 26 10 3 6 -3 10 -14 10
-11 0 -23 -4 -26 -10z"/>
    <path d="M25422 33768 c5 -15 37 -18 41 -3 1 6 -9 12 -22 13 -16 3 -22 -1 -19
-10z"/>
    <path d="M14758 33223 c7 -3 16 -2 19 1 4 3 -2 6 -13 5 -11 0 -14 -3 -6 -6z"/>
    <path d="M26272 33179 c3 -8 8 -13 11 -11 9 3 7 11 -5 18 -6 4 -8 0 -6 -7z"/>
    <path d="M13345 31910 c-3 -5 -1 -10 4 -10 6 0 11 5 11 10 0 6 -2 10 -4 10 -3
0 -8 -4 -11 -10z"/>
    <path d="M13250 31810 c0 -5 5 -10 10 -10 6 0 10 5 10 10 0 6 -4 10 -10 10 -5
0 -10 -4 -10 -10z"/>
    <path d="M28285 31031 c-3 -5 -1 -12 5 -16 5 -3 10 1 10 9 0 18 -6 21 -15 7z"/>
    <path d="M28530 30646 c0 -9 5 -16 10 -16 6 0 10 4 10 9 0 6 -4 13 -10 16 -5
3 -10 -1 -10 -9z"/>
    <path d="M28820 30125 c0 -15 4 -24 10 -20 6 3 10 12 10 20 0 8 -4 17 -10 20
-6 4 -10 -5 -10 -20z"/>
    <path d="M12081 30044 c0 -11 3 -14 6 -6 3 7 2 16 -1 19 -3 4 -6 -2 -5 -13z"/>
    <path d="M11970 29846 c0 -8 5 -18 10 -21 6 -3 10 3 10 14 0 12 -4 21 -10 21
-5 0 -10 -6 -10 -14z"/>
    <path d="M29210 29301 c0 -6 5 -13 10 -16 6 -3 10 1 10 9 0 9 -4 16 -10 16 -5
0 -10 -4 -10 -9z"/>
    <path d="M29460 28655 c0 -14 5 -25 10 -25 6 0 10 11 10 25 0 14 -4 25 -10 25
-5 0 -10 -11 -10 -25z"/>
    <path d="M11191 27504 c0 -11 3 -14 6 -6 3 7 2 16 -1 19 -3 4 -6 -2 -5 -13z"/>
    <path d="M11152 27290 c0 -14 2 -19 5 -12 2 6 2 18 0 25 -3 6 -5 1 -5 -13z"/>
    <path d="M29903 26495 c0 -27 2 -38 4 -22 2 15 2 37 0 50 -2 12 -4 0 -4 -28z"/>
    <path d="M29903 24830 c0 -25 2 -35 4 -22 2 12 2 32 0 45 -2 12 -4 2 -4 -23z"/>
    <path d="M29851 24424 c0 -11 3 -14 6 -6 3 7 2 16 -1 19 -3 4 -6 -2 -5 -13z"/>
    <path d="M29411 22614 c0 -11 3 -14 6 -6 3 7 2 16 -1 19 -3 4 -6 -2 -5 -13z"/>
    <path d="M11641 22324 c0 -11 3 -14 6 -6 3 7 2 16 -1 19 -3 4 -6 -2 -5 -13z"/>
    <path d="M11826 21881 c-8 -12 3 -41 15 -41 5 0 9 11 9 25 0 25 -14 34 -24 16z"/>
    <path d="M29110 21830 c0 -16 5 -30 10 -30 6 0 10 14 10 30 0 17 -4 30 -10 30
-5 0 -10 -13 -10 -30z"/>
    <path d="M12372 20840 c0 -14 2 -19 5 -12 2 6 2 18 0 25 -3 6 -5 1 -5 -13z"/>
    <path d="M12564 20536 c-8 -22 3 -33 18 -18 9 9 9 15 0 24 -9 9 -13 7 -18 -6z"/>
    <path d="M12665 20380 c3 -5 8 -10 11 -10 2 0 4 5 4 10 0 6 -5 10 -11 10 -5 0
-7 -4 -4 -10z"/>
    <path d="M13445 19360 c3 -5 8 -10 11 -10 2 0 4 5 4 10 0 6 -5 10 -11 10 -5 0
-7 -4 -4 -10z"/>
    <path d="M14617 17953 c-3 -5 -2 -15 2 -22 7 -10 10 -10 16 -1 4 6 3 16 -3 22
-5 5 -12 6 -15 1z"/>
    <path d="M15161 16834 c0 -11 3 -14 6 -6 3 7 2 16 -1 19 -3 4 -6 -2 -5 -13z"/>
    <path d="M24559 13106 c-7 -7 -301 -35 -484 -46 -99 -6 -211 -15 -250 -21 -38
-5 -180 -16 -315 -24 -135 -8 -308 -21 -385 -29 -77 -8 -216 -17 -310 -21 -93
-4 -210 -13 -260 -21 -49 -7 -187 -18 -305 -24 -118 -6 -264 -17 -325 -25 -60
-8 -202 -19 -314 -25 -186 -9 -352 -24 -391 -35 -8 -2 -116 -9 -240 -15 -124
-5 -272 -17 -330 -25 -58 -8 -206 -19 -330 -25 -124 -5 -279 -16 -345 -24 -66
-8 -212 -20 -325 -26 -113 -6 -227 -16 -255 -21 -27 -5 -140 -14 -250 -19
-222 -11 -271 -15 -430 -35 -60 -8 -209 -19 -330 -25 -121 -6 -268 -17 -326
-24 -59 -8 -185 -18 -280 -21 -96 -4 -219 -13 -274 -21 -55 -8 -192 -19 -305
-25 -113 -5 -257 -16 -320 -24 -63 -8 -207 -19 -320 -25 -113 -6 -243 -17
-290 -25 -47 -8 -116 -18 -155 -21 -49 -5 -88 -17 -130 -39 -181 -94 -268
-182 -323 -325 -21 -54 -26 -87 -29 -187 -4 -105 -1 -127 15 -160 11 -21 22
-50 26 -66 9 -39 69 -129 119 -179 88 -90 173 -137 300 -169 86 -21 90 -21
240 -5 83 8 208 18 277 21 69 4 185 13 259 21 74 8 252 21 395 29 143 9 288
20 321 25 33 5 141 14 240 20 235 13 275 16 435 34 74 8 212 17 305 21 94 4
213 13 265 20 52 8 192 19 310 25 118 6 265 17 325 25 61 8 211 19 335 25 124
5 275 16 335 24 61 8 175 17 255 21 80 3 228 15 330 25 102 11 282 24 400 30
118 6 222 13 230 15 37 10 231 26 419 35 113 5 229 13 256 19 28 6 169 17 315
26 146 8 292 20 325 25 33 6 161 15 285 20 124 6 232 12 240 15 28 8 314 34
455 40 77 3 199 13 270 21 72 8 258 21 415 29 157 8 357 23 445 34 169 19 182
23 303 104 48 31 162 145 162 160 0 6 8 20 18 31 10 12 32 55 48 96 27 68 29
85 28 195 0 98 -4 128 -20 165 -11 25 -24 57 -27 72 -11 44 -60 108 -135 178
-74 70 -127 106 -170 117 -15 3 -45 14 -67 24 -33 15 -67 19 -196 19 -86 0
-158 -2 -160 -4z"/>
    <path d="M18470 12700 c0 -5 5 -10 10 -10 6 0 10 5 10 10 0 6 -4 10 -10 10 -5
0 -10 -4 -10 -10z"/>
    <path d="M25401 12634 c0 -11 3 -14 6 -6 3 7 2 16 -1 19 -3 4 -6 -2 -5 -13z"/>
    <path d="M16085 12510 c-3 -5 3 -10 14 -10 12 0 21 5 21 10 0 6 -6 10 -14 10
-8 0 -18 -4 -21 -10z"/>
    <path d="M15795 12360 c-3 -5 -1 -10 4 -10 6 0 11 5 11 10 0 6 -2 10 -4 10 -3
0 -8 -4 -11 -10z"/>
    <path d="M25160 12040 c0 -5 4 -10 9 -10 6 0 13 5 16 10 3 6 -1 10 -9 10 -9 0
-16 -4 -16 -10z"/>
    <path d="M24343 11833 c9 -2 23 -2 30 0 6 3 -1 5 -18 5 -16 0 -22 -2 -12 -5z"/>
    <path d="M21028 11593 c7 -3 16 -2 19 1 4 3 -2 6 -13 5 -11 0 -14 -3 -6 -6z"/>
    <path d="M21214 11591 c3 -5 15 -7 26 -4 28 7 25 13 -6 13 -14 0 -23 -4 -20
-9z"/>
    <path d="M17903 11343 c9 -2 23 -2 30 0 6 3 -1 5 -18 5 -16 0 -22 -2 -12 -5z"/>
    <path d="M24555 10710 c-119 -14 -403 -39 -570 -50 -93 -6 -204 -15 -245 -20
-41 -5 -169 -14 -285 -20 -115 -5 -259 -17 -320 -25 -60 -8 -216 -20 -345 -25
-129 -6 -257 -15 -285 -20 -27 -5 -174 -16 -325 -25 -151 -8 -300 -20 -330
-25 -30 -6 -140 -15 -245 -21 -104 -6 -257 -17 -340 -25 -82 -8 -238 -19 -345
-25 -107 -5 -247 -16 -310 -25 -63 -8 -218 -19 -345 -25 -126 -5 -270 -16
-320 -24 -49 -8 -184 -19 -300 -25 -115 -6 -266 -17 -335 -25 -69 -8 -217 -19
-330 -25 -113 -6 -261 -17 -330 -25 -69 -8 -210 -20 -315 -25 -104 -6 -245
-17 -313 -25 -68 -9 -213 -20 -323 -25 -110 -6 -248 -17 -307 -25 -59 -8 -199
-19 -312 -25 -113 -6 -265 -17 -338 -26 -74 -8 -221 -19 -328 -24 -212 -11
-359 -35 -427 -72 -122 -65 -227 -153 -278 -233 -16 -25 -40 -78 -54 -118 -20
-60 -25 -92 -25 -178 0 -88 4 -115 27 -179 40 -111 80 -165 196 -263 37 -31
73 -57 80 -57 7 0 34 -11 60 -25 65 -35 192 -46 358 -32 69 6 133 8 142 4 12
-5 17 -18 17 -48 0 -25 7 -50 19 -65 10 -13 22 -45 26 -71 4 -27 15 -61 25
-78 10 -16 21 -46 25 -65 4 -19 16 -49 26 -66 10 -17 19 -37 19 -44 0 -13 52
-130 71 -160 5 -8 17 -31 25 -50 14 -30 73 -134 109 -191 5 -9 20 -35 32 -57
104 -188 346 -457 633 -703 109 -94 205 -163 318 -232 20 -12 46 -28 57 -35
11 -7 36 -20 55 -30 19 -10 51 -28 70 -40 19 -12 44 -22 56 -22 11 0 33 -13
48 -29 20 -21 32 -49 42 -98 8 -37 24 -86 34 -109 11 -22 20 -46 20 -53 0 -15
57 -137 80 -170 9 -14 34 -51 54 -81 20 -30 44 -66 53 -80 28 -42 145 -159
203 -203 84 -64 181 -127 220 -143 8 -3 38 -16 65 -29 94 -42 167 -68 234 -82
225 -46 158 -44 1413 -41 1060 3 1187 5 1223 19 22 9 60 19 85 23 73 11 272
91 340 136 14 9 45 30 70 46 90 58 202 158 268 239 37 46 78 102 92 126 14 23
35 57 46 75 12 17 25 43 29 55 4 13 16 36 26 51 11 14 19 35 19 45 0 10 9 37
20 58 11 22 27 69 36 104 18 81 52 127 103 141 21 5 49 18 62 29 13 10 41 23
61 30 20 7 42 19 48 27 7 7 18 14 24 14 44 1 409 292 576 460 109 108 227 239
245 269 11 18 66 93 75 101 12 10 70 101 70 109 0 5 10 21 23 36 23 29 94 152
123 215 9 19 25 45 35 59 10 13 19 31 19 41 0 10 9 29 20 43 11 14 20 31 20
39 0 7 14 40 30 73 16 33 30 68 30 78 0 10 8 35 19 55 23 47 68 185 76 237 4
22 15 65 25 95 9 30 20 90 24 132 4 43 13 99 21 125 8 26 20 104 27 171 10
111 13 125 32 132 12 4 90 13 173 18 101 7 162 16 180 26 16 8 44 22 63 31 62
27 105 59 162 118 31 31 68 78 83 105 47 83 78 189 83 288 4 82 1 101 -24 175
-33 97 -50 128 -120 212 -78 96 -183 160 -324 197 -40 11 -215 11 -305 0z
m-1150 -1249 c6 -10 -4 -58 -35 -176 -11 -38 -21 -90 -24 -115 -3 -25 -14 -66
-25 -90 -11 -25 -21 -56 -21 -70 0 -14 -11 -46 -25 -72 -14 -26 -25 -55 -25
-66 0 -10 -11 -33 -25 -52 -14 -19 -25 -41 -25 -51 0 -9 -9 -27 -19 -41 -11
-13 -23 -36 -26 -51 -4 -14 -15 -33 -26 -43 -10 -9 -19 -23 -19 -29 0 -18 -83
-125 -190 -247 -41 -46 -170 -159 -211 -183 -9 -5 -43 -28 -75 -49 -72 -48
-161 -96 -179 -96 -7 0 -18 -7 -25 -15 -6 -8 -37 -21 -67 -30 -31 -9 -65 -22
-77 -30 -12 -7 -38 -16 -58 -19 -33 -6 -110 -39 -158 -67 -8 -5 -28 -16 -45
-25 -16 -9 -63 -50 -102 -90 -88 -90 -129 -172 -144 -287 -5 -43 -14 -90 -20
-105 -6 -15 -15 -64 -20 -110 -10 -85 -36 -154 -86 -219 l-24 -33 -1140 0
-1140 0 -39 43 c-22 23 -40 50 -40 60 0 11 -9 31 -19 46 -13 18 -21 52 -26
111 -4 47 -13 112 -21 145 -7 33 -18 89 -24 125 -7 36 -18 72 -25 80 -7 8 -20
32 -28 52 -17 40 -150 178 -172 178 -7 0 -24 9 -38 20 -14 11 -32 20 -40 20
-8 0 -35 11 -61 25 -26 14 -54 25 -62 25 -16 0 -165 54 -199 72 -11 6 -27 14
-35 18 -85 41 -152 77 -185 101 -22 16 -51 37 -65 47 -14 9 -36 28 -50 42 -14
14 -64 57 -111 96 -54 45 -112 106 -157 168 -86 113 -118 165 -167 266 -20 41
-44 91 -54 110 -10 19 -21 51 -25 71 -4 21 -13 42 -21 49 -17 14 -20 36 -5 45
5 3 96 10 201 15 105 5 248 16 318 24 69 9 224 20 344 26 120 6 262 17 315 25
53 8 198 19 322 25 124 6 245 15 270 20 25 5 135 14 245 20 110 6 283 20 385
30 102 10 249 21 327 25 78 3 197 12 265 20 68 8 222 20 343 25 121 6 261 17
311 25 51 8 190 19 310 25 121 6 246 15 279 20 113 18 140 20 345 30 113 6
246 17 295 24 50 8 169 17 265 21 168 6 230 12 440 40 124 16 138 17 145 6z"/>
    <path d="M23310 9390 c0 -5 5 -10 10 -10 6 0 10 5 10 10 0 6 -4 10 -10 10 -5
0 -10 -4 -10 -10z"/>
    <path d="M18140 8351 c0 -5 6 -14 14 -20 10 -8 16 -9 21 -1 3 5 3 15 0 20 -8
12 -35 13 -35 1z"/>
    <path d="M22285 8060 c-3 -5 -1 -10 4 -10 6 0 11 5 11 10 0 6 -2 10 -4 10 -3
0 -8 -4 -11 -10z"/>
    <path d="M21656 7191 c-4 -7 -5 -15 -2 -18 9 -9 19 4 14 18 -4 11 -6 11 -12 0z"/>
    <path d="M21590 7085 c0 -8 7 -15 15 -15 8 0 15 7 15 15 0 8 -7 15 -15 15 -8
0 -15 -7 -15 -15z"/>
    <path d="M21510 7080 c0 -13 40 -13 60 0 11 7 5 10 -22 10 -21 0 -38 -4 -38
-10z"/>
    <path d="M20245 10450 c-8 -13 65 -13 85 0 11 7 2 10 -32 10 -26 0 -50 -4 -53
-10z"/>
    <path d="M19653 10403 c9 -2 23 -2 30 0 6 3 -1 5 -18 5 -16 0 -22 -2 -12 -5z"/>
    <path d="M18933 10353 c9 -2 23 -2 30 0 6 3 -1 5 -18 5 -16 0 -22 -2 -12 -5z"/>
    <path d="M15600 9210 c0 -19 3 -21 12 -12 9 9 9 15 0 24 -9 9 -12 7 -12 -12z"/>
    <path d="M16405 8860 c-3 -5 3 -10 15 -10 12 0 18 5 15 10 -3 6 -10 10 -15 10
-5 0 -12 -4 -15 -10z"/>
    <path d="M16368 8853 c7 -3 16 -2 19 1 4 3 -2 6 -13 5 -11 0 -14 -3 -6 -6z"/>
    <path d="M24374 8459 c-3 -6 -1 -16 5 -22 8 -8 11 -5 11 11 0 24 -5 28 -16 11z"/>
    <path d="M17342 7389 c3 -8 8 -13 11 -11 9 3 7 11 -5 18 -6 4 -8 0 -6 -7z"/>
    <path d="M18082 6838 c2 -18 8 -33 13 -33 6 0 11 15 13 33 3 24 -1 32 -13 32
-12 0 -16 -8 -13 -32z"/>
  </g>
</svg>