<svg xmlns="http://www.w3.org/2000/svg" viewBox="0 0 4096.000000 4096.000000">
  <g transform="translate(0.000000,4096.000000) scale(0.100000,-0.100000)" fill="#f4f5f7" stroke="#f4f5f7" stroke-width="40" stroke-linejoin="round" stroke-linecap="round">
    <path d="M16280 39952 c-86 -5 -208 -32 -281 -63 -90 -37 -162 -77 -254 -141
-108 -76 -189 -153 -256 -245 -80 -111 -142 -230 -183 -351 -35 -103 -52 -187
-60 -307 -3 -38 -8 -1854 -11 -4035 -3 -2181 -8 -3994 -11 -4030 -7 -87 13
-377 32 -461 19 -85 65 -207 106 -279 51 -92 122 -180 220 -276 51 -50 122
-111 158 -136 128 -90 318 -170 482 -204 77 -16 360 -17 4173 -20 2264 -1
4157 2 4240 7 118 7 174 15 260 39 181 51 394 166 523 285 114 104 236 281
291 424 16 42 37 114 46 161 15 78 17 424 20 4300 2 2765 0 4246 -6 4305 -17
154 -84 350 -165 490 -59 100 -91 141 -176 225 -114 113 -280 214 -446 269
-155 52 62 50 -4457 48 -2310 -1 -4220 -3 -4245 -5z m7708 -1775 c68 -37 62
255 64 -3470 2 -2613 0 -3391 -10 -3423 -6 -22 -23 -51 -38 -65 l-26 -24
-3471 0 c-3456 0 -3472 0 -3499 20 -15 11 -32 31 -38 44 -8 18 -11 942 -11
3415 -1 1865 2 3407 6 3428 8 41 39 75 81 88 16 5 1553 8 3469 7 3303 -2 3441
-3 3473 -20z"/>
    <path d="M30025 39948 c-249 -26 -520 -156 -704 -338 -131 -129 -226 -283
-285 -461 -19 -57 -40 -147 -47 -199 -9 -72 -11 -341 -8 -1090 4 -1197 4
-6214 0 -6910 -3 -419 -1 -510 13 -592 20 -122 65 -246 119 -330 143 -223 206
-290 394 -421 126 -88 313 -162 473 -187 57 -9 1087 -12 4283 -11 2636 1 4234
5 4277 11 163 23 401 123 560 235 137 96 298 282 372 430 34 67 64 166 83 275
14 80 15 443 14 3357 0 1797 1 3624 3 4058 1 435 2 863 1 953 -2 280 -31 424
-118 597 -96 193 -218 331 -394 447 -114 75 -230 128 -349 159 -74 19 -164 19
-4341 22 -2346 2 -4302 -1 -4346 -5z m7761 -1774 c15 -11 32 -34 37 -50 13
-43 9 -6808 -4 -6856 -7 -27 -20 -45 -42 -58 -32 -20 -79 -20 -3482 -20 -2026
0 -3466 4 -3489 10 -22 5 -51 20 -65 35 l-26 25 -3 3408 c-2 2325 0 3418 7
3443 13 44 39 69 83 79 18 4 1591 7 3495 6 l3462 -1 27 -21z"/>
    <path d="M2356 39938 c-118 -10 -201 -32 -317 -83 -129 -56 -249 -137 -337
-227 -100 -102 -153 -176 -211 -293 -60 -120 -96 -229 -113 -339 -10 -65 -12
-901 -10 -4256 2 -2724 7 -4207 13 -4267 6 -51 26 -145 44 -209 95 -321 322
-596 613 -743 61 -31 186 -73 292 -98 58 -14 516 -15 4320 -14 2823 2 4280 6
4329 12 109 15 233 54 348 109 130 62 195 105 290 194 152 141 290 361 333
531 11 43 25 129 30 190 6 69 10 1650 10 4284 0 3780 -2 4183 -16 4274 -26
162 -92 326 -198 491 -83 130 -248 270 -411 351 -49 25 -135 56 -190 70 l-100
26 -4315 2 c-2373 1 -4355 -1 -4404 -5z"/>
    <path d="M37855 25799 c-159 -4 -1993 -7 -4075 -6 -3529 1 -3791 0 -3870 -16
-84 -16 -218 -65 -310 -112 -126 -64 -310 -228 -392 -348 -68 -99 -136 -254
-167 -378 -16 -63 -34 -167 -40 -230 -15 -160 -6 -8435 9 -8539 15 -104 45
-201 91 -294 135 -268 362 -482 629 -590 119 -49 240 -75 393 -84 73 -5 1977
-8 4233 -6 2987 2 4118 6 4165 14 163 29 352 98 489 178 98 58 214 154 281
233 140 164 230 361 259 565 6 46 10 1571 11 4340 1 3904 0 4277 -15 4359 -9
50 -23 115 -32 145 -22 78 -106 245 -159 315 -105 140 -284 295 -407 354 -90
43 -202 78 -288 91 -103 15 -458 20 -805 9z"/>
    <path d="M2410 25789 c-127 -8 -212 -25 -316 -64 -73 -28 -201 -96 -274 -148
-60 -42 -174 -159 -230 -236 -95 -130 -181 -332 -212 -497 -11 -56 -13 -856
-13 -4309 0 -4038 1 -4244 18 -4328 24 -116 58 -209 118 -319 67 -123 150
-237 240 -328 84 -85 148 -135 254 -197 142 -83 285 -131 453 -154 107 -15
8221 -13 8382 2 296 27 481 92 690 242 30 22 91 77 135 122 120 121 208 264
262 420 29 86 41 139 53 230 5 39 9 1959 10 4330 2 3921 1 4266 -14 4335 -21
94 -76 250 -117 332 -84 167 -258 344 -435 443 -77 44 -193 92 -269 112 -54
14 -487 16 -4340 17 -2354 1 -4332 -2 -4395 -5z m7752 -1798 c18 -9 34 -31 45
-60 17 -44 18 -213 18 -3441 l0 -3395 -21 -35 c-13 -23 -32 -39 -57 -47 -30
-10 -774 -13 -3498 -13 -2782 0 -3466 2 -3487 12 -15 7 -35 29 -44 48 -17 33
-18 217 -18 3415 1 1859 5 3400 9 3424 5 25 20 54 35 70 l26 26 2923 5 c4156
7 4037 8 4069 -9z"/>
    <path d="M16134 25778 c-269 -47 -555 -243 -719 -493 -61 -92 -123 -231 -150
-336 -9 -32 -20 -94 -26 -136 -13 -98 -12 -8387 1 -8518 5 -49 15 -122 24
-161 41 -193 146 -384 302 -553 180 -194 419 -327 669 -370 42 -8 1358 -12
4235 -13 3907 -2 4181 -1 4262 15 212 42 389 114 554 224 103 69 225 194 293
298 60 92 136 264 163 367 l21 83 9 2385 c5 1423 5 3159 -1 4305 -9 1893 -9
1921 -29 2000 -24 91 -60 196 -92 270 -74 170 -298 407 -487 516 -90 51 -198
95 -283 116 -59 14 -486 16 -4358 17 -3964 1 -4301 0 -4388 -16z"/>
    <path d="M16355 11599 c-253 -14 -466 -88 -655 -227 -25 -19 -74 -61 -109 -95
-176 -171 -283 -361 -339 -602 -15 -64 -16 -445 -19 -4295 -3 -3759 -2 -4237
12 -4331 19 -129 42 -200 106 -325 64 -125 119 -199 226 -309 124 -127 207
-192 333 -262 91 -50 260 -110 350 -124 71 -12 771 -14 4235 -13 3203 0 4167
3 4225 12 178 29 392 118 569 237 41 28 114 88 161 135 160 156 282 383 322
596 11 56 12 868 10 4304 -2 2878 -6 4259 -13 4310 -24 165 -114 382 -221 525
-113 152 -264 272 -449 359 -110 51 -196 79 -297 96 -58 9 -991 12 -4200 14
-2270 0 -4181 -2 -4247 -5z m7629 -1789 c16 -8 39 -28 50 -43 l21 -28 0 -3422
0 -3422 -23 -32 c-15 -21 -37 -36 -61 -43 -25 -6 -1183 -10 -3475 -10 -3747 0
-3483 -4 -3523 56 -17 27 -18 152 -18 3449 0 3241 1 3422 17 3448 10 14 28 32
40 39 17 10 106 14 328 18 168 3 1725 5 3460 5 2785 0 3158 -2 3184 -15z"/>
    <path d="M30030 11599 c-41 -3 -118 -16 -170 -29 -142 -33 -286 -105 -421
-207 -71 -54 -198 -188 -250 -264 -61 -90 -117 -205 -150 -309 -63 -197 -60
96 -56 -4560 3 -3830 5 -4251 19 -4310 48 -198 152 -374 323 -546 90 -91 196
-172 299 -228 95 -51 243 -104 341 -120 67 -12 764 -13 4245 -10 2563 3 4204
8 4267 14 110 10 267 55 396 114 150 69 345 224 451 360 77 98 165 262 195
361 54 177 51 -104 52 4469 l1 4231 -21 111 c-25 129 -45 193 -91 284 -52 104
-112 190 -190 273 -106 113 -223 197 -380 273 -76 37 -139 59 -230 81 -59 15
-454 16 -4310 17 -2335 1 -4279 -2 -4320 -5z m7730 -1798 c23 -12 39 -30 46
-52 8 -25 12 -972 15 -3444 3 -2765 2 -3414 -9 -3433 -7 -12 -25 -30 -39 -40
-26 -16 -209 -17 -3503 -17 l-3475 0 -33 24 c-18 13 -37 34 -42 47 -6 14 -10
1458 -10 3439 -1 3161 0 3418 15 3441 37 57 -208 53 3540 54 3353 0 3461 -1
3495 -19z"/>
    <path d="M2308 11574 c-171 -35 -322 -100 -464 -200 -123 -87 -285 -282 -366
-439 -44 -85 -89 -225 -104 -325 -12 -82 -14 -622 -13 -3990 1 -2142 5 -4052
9 -4245 8 -330 10 -356 35 -449 31 -120 83 -249 136 -336 60 -101 181 -248
267 -323 120 -107 228 -164 412 -219 36 -10 121 -23 190 -28 69 -5 409 -6 755
-4 347 3 2156 5 4020 6 1865 0 3491 4 3615 9 189 7 240 12 321 33 156 41 251
83 378 169 71 48 215 184 277 263 46 58 119 189 153 274 16 41 37 116 47 165
15 84 17 382 17 4365 0 3424 -2 4291 -12 4355 -18 110 -45 194 -98 303 -94
192 -249 364 -428 471 -86 52 -156 85 -253 117 -171 58 141 54 -4500 53
l-4277 0 -117 -25z"/>
  </g>
</svg>