<svg xmlns="http://www.w3.org/2000/svg" viewBox="0 0 4096.000000 4096.000000">
  <g transform="translate(0.000000,4096.000000) scale(0.100000,-0.100000)" fill="#f4f5f7" stroke="none">
    <path d="M1227 40439 c-56 -11 -135 -59 -196 -120 -23 -24 -59 -75 -79 -114
l-36 -70 0 -3905 0 -3905 27 -56 c15 -31 27 -60 27 -66 0 -20 119 -131 176
-164 l59 -34 3781 0 3781 0 59 29 c132 66 210 159 238 285 15 67 16 407 16
3925 0 3496 -1 3857 -16 3907 -19 66 -67 140 -126 194 -68 64 -101 83 -163 94
-41 8 -1159 11 -3779 10 -2204 -1 -3740 -5 -3769 -10z m7071 -4198 c1 -1884
-1 -3428 -6 -3433 -9 -9 -6576 -13 -6591 -3 -8 4 -11 1015 -11 3425 0 3246 1
3420 18 3429 11 7 1070 10 3302 8 l3285 -2 3 -3424z"/>
    <path d="M3044 38004 c-68 -36 -109 -82 -131 -145 -17 -51 -18 -126 -20 -1309
-3 -1390 7 -2414 25 -2470 16 -49 67 -102 129 -134 l52 -26 1898 0 1898 0 48
26 c27 14 61 40 77 57 16 18 38 59 50 91 20 59 20 75 20 1893 l0 1834 -25 50
c-31 59 -72 100 -137 134 l-47 25 -1894 0 -1894 0 -49 -26z m3503 -2024 c2
-833 -1 -1521 -5 -1528 -7 -10 -312 -12 -1552 -12 -1222 0 -1545 3 -1552 13
-9 14 -11 3007 -2 3031 6 15 149 16 1558 14 l1551 -3 2 -1515z"/>
    <path d="M11298 40440 c-26 -5 -61 -18 -77 -29 -16 -12 -33 -21 -38 -21 -5 0
-34 -25 -66 -56 -39 -38 -70 -81 -95 -133 l-37 -76 0 -3900 0 -3900 36 -75
c20 -41 59 -98 85 -127 28 -29 77 -66 114 -85 l65 -33 3951 0 3951 0 59 30
c69 35 142 106 184 180 16 28 37 85 45 126 15 67 16 452 15 3894 -1 2352 -6
3845 -11 3885 -12 80 -54 154 -125 218 -74 68 -121 93 -189 103 -75 11 -7802
10 -7867 -1z m7399 -782 c11 -9 13 -611 13 -3429 0 -2047 -4 -3420 -9 -3423
-5 -4 -1565 -6 -3467 -6 -2767 0 -3459 2 -3466 12 -5 7 -6 29 -3 48 2 19 5
1552 5 3407 0 3064 1 3373 16 3387 14 15 329 16 3457 16 2476 0 3444 -4 3454
-12z"/>
    <path d="M13367 37999 c-44 -22 -66 -42 -95 -86 l-37 -56 0 -1881 0 -1881 25
-35 c47 -66 75 -93 125 -116 l50 -24 1881 0 1882 0 58 26 c33 14 70 35 82 47
13 12 35 43 48 69 l24 47 0 1872 0 1872 -22 36 c-33 56 -69 91 -120 117 l-47
24 -1898 0 -1898 -1 -58 -30z m3495 -507 c12 -12 10 -3034 -1 -3045 -5 -5
-681 -8 -1552 -7 -1193 1 -1545 4 -1551 13 -10 15 -10 3018 0 3033 4 6 13 13
19 15 25 8 3077 -1 3085 -9z"/>
    <path d="M21797 40439 c-31 -4 -79 -20 -105 -35 -61 -35 -136 -107 -168 -162
-57 -96 -54 110 -54 -4029 0 -4171 -4 -3897 57 -4000 15 -26 50 -70 79 -98 37
-36 73 -60 125 -81 l74 -29 3940 0 3940 0 60 35 c79 45 152 122 195 205 l35
68 0 3916 0 3916 -32 62 c-45 84 -129 172 -200 208 l-58 30 -3915 1 c-2153 1
-3941 -2 -3973 -7z m7373 -779 c20 -11 20 -25 20 -3430 0 -2450 -3 -3421 -11
-3426 -13 -7 -6908 -6 -6921 2 -4 3 -8 1544 -8 3424 0 3226 1 3420 17 3429 26
14 6877 15 6903 1z"/>
    <path d="M23832 38000 c-78 -40 -129 -107 -143 -188 -12 -79 -12 -3608 1
-3687 12 -75 50 -130 121 -172 l53 -33 1892 0 1892 0 52 24 c29 13 66 37 82
53 17 15 41 52 54 82 l24 53 0 1843 0 1843 -24 53 c-25 57 -67 101 -127 137
l-36 22 -1890 0 -1890 0 -61 -30z m3490 -513 c10 -16 10 -3018 0 -3034 -6 -10
-344 -13 -1557 -14 -1378 -1 -1549 1 -1557 14 -4 9 -7 696 -6 1527 2 1129 6
1513 15 1518 6 4 705 6 1554 4 1215 -2 1545 -5 1551 -15z"/>
    <path d="M32180 40436 c-30 -7 -68 -21 -85 -31 -110 -70 -175 -155 -203 -263
-16 -63 -17 -308 -17 -3912 0 -3675 1 -3848 18 -3910 10 -36 29 -83 42 -105
34 -59 115 -137 182 -176 l58 -34 3785 0 3785 0 67 33 c81 40 155 118 201 212
l32 65 0 3920 0 3920 -32 60 c-40 76 -120 154 -202 197 l-65 33 -3755 2
c-2914 1 -3768 -2 -3811 -11z m7080 -780 c9 -12 10 -782 5 -3428 -3 -1877 -9
-3416 -13 -3420 -4 -4 -1488 -8 -3297 -9 l-3290 -2 -3 3424 c-1 1883 0 3430 3
3437 3 9 671 12 3293 12 2856 0 3291 -2 3302 -14z"/>
    <path d="M34035 38006 c-71 -34 -110 -80 -140 -164 l-25 -72 0 -1803 0 -1804
23 -64 c27 -73 73 -128 134 -158 l42 -21 1885 0 1886 0 55 23 c76 30 132 89
150 158 13 46 15 322 15 1875 0 1728 -1 1824 -18 1876 -21 62 -66 117 -128
153 l-43 25 -1893 0 -1893 0 -50 -24z m3486 -511 c12 -8 12 -3042 0 -3049 -12
-8 -3089 -8 -3101 -1 -6 4 -10 564 -10 1520 0 1241 2 1516 13 1527 11 11 288
13 1551 11 846 -2 1542 -5 1547 -8z"/>
    <path d="M1195 29995 c-27 -13 -55 -25 -62 -25 -6 0 -41 -29 -77 -64 -42 -42
-78 -90 -103 -138 l-38 -73 0 -3950 1 -3950 32 -65 c32 -66 94 -139 168 -196
21 -17 71 -41 109 -52 l70 -22 3715 3 c3447 2 3718 4 3763 19 26 9 67 31 91
47 48 33 146 130 146 144 0 5 9 20 19 33 10 13 27 59 37 102 18 74 19 230 19
3942 0 3726 -1 3868 -19 3945 -22 96 -64 165 -139 228 -28 24 -78 56 -109 71
l-57 26 -3758 0 -3758 0 -50 -25z m7100 -4255 l0 -3485 -3294 -3 c-1812 -1
-3299 2 -3303 6 -4 4 -8 1569 -8 3478 0 2912 2 3471 13 3479 9 7 1126 10 3303
10 l3289 0 0 -3485z"/>
    <path d="M4745 27750 c-913 -3 -1672 -10 -1686 -14 -15 -4 -50 -32 -79 -61
-43 -44 -55 -64 -71 -121 -18 -65 -19 -126 -13 -1853 3 -1200 9 -1807 16
-1849 8 -48 19 -73 45 -104 18 -22 55 -55 81 -72 l47 -31 1910 0 1910 0 47 28
c56 33 89 73 117 145 21 53 21 53 21 1893 l0 1840 -24 47 c-31 60 -78 105
-141 134 -47 21 -62 23 -285 23 -129 1 -982 -2 -1895 -5z m1803 -2049 c1
-1082 -1 -1518 -9 -1527 -9 -11 -292 -13 -1554 -14 -1406 0 -1543 1 -1549 16
-3 8 -6 692 -6 1518 0 1157 3 1505 12 1514 9 9 364 11 1558 10 l1545 -3 3
-1514z"/>
    <path d="M21748 29993 c-48 -18 -83 -40 -121 -77 -63 -60 -122 -149 -139 -209
-10 -33 -13 -909 -15 -3936 -4 -4325 -9 -3984 63 -4102 59 -97 138 -157 251
-190 67 -19 124 -19 3926 -18 3676 1 3861 2 3931 19 83 20 144 53 196 104 60
60 74 79 105 141 l30 60 0 3965 0 3965 -30 50 c-47 81 -100 149 -136 176 -19
14 -56 37 -84 50 l-50 24 -3930 2 -3930 2 -67 -26z m7430 -776 c9 -7 12 -714
12 -3482 l0 -3475 -22 -5 c-13 -3 -1573 -4 -3468 -3 l-3445 3 -3 3465 c-1
1906 0 3474 2 3485 5 20 13 20 3458 20 1899 0 3459 -4 3466 -8z"/>
    <path d="M23914 27752 c-10 -2 -40 -10 -66 -18 -35 -12 -61 -30 -97 -71 -37
-41 -53 -69 -60 -105 -15 -67 -15 -3613 -1 -3689 14 -75 62 -148 122 -190 l51
-34 1889 -3 c1294 -1 1902 1 1929 8 57 16 131 95 160 173 l24 62 -1 1830 0
1830 -26 54 c-31 64 -99 123 -160 140 -33 9 -488 13 -1894 14 -1018 1 -1859 1
-1870 -1z m3401 -538 c14 -6 16 -134 15 -1518 -1 -1037 -5 -1515 -12 -1523 -8
-10 -322 -13 -1552 -13 -1186 0 -1545 3 -1554 12 -9 9 -12 361 -12 1523 0 832
3 1515 7 1518 8 9 3086 9 3108 1z"/>
    <path d="M32165 29995 c-27 -14 -54 -25 -60 -25 -19 0 -133 -110 -163 -157
-17 -26 -39 -75 -49 -108 -17 -58 -18 -208 -18 -3945 0 -3720 1 -3888 18
-3960 20 -80 37 -113 95 -184 48 -58 110 -103 181 -129 l56 -22 3735 0 c3631
0 3737 1 3795 19 33 10 79 32 102 47 56 39 124 121 159 194 l29 60 0 3965 0
3965 -39 69 c-44 77 -146 183 -185 193 -14 3 -42 14 -61 25 -34 17 -158 18
-3790 18 l-3755 -1 -50 -24z m7093 -778 c9 -7 12 -714 12 -3482 l0 -3475 -22
-5 c-13 -3 -1499 -4 -3303 -3 l-3280 3 -3 3474 c-1 2095 2 3478 7 3485 7 8
909 11 3293 11 1805 0 3289 -4 3296 -8z"/>
    <path d="M35885 27751 c-1038 -4 -1821 -10 -1835 -15 -48 -18 -119 -88 -148
-145 l-27 -56 0 -1825 0 -1825 23 -60 c27 -70 49 -97 116 -145 l48 -35 1912 0
1913 0 42 29 c59 41 101 97 117 159 11 43 14 346 14 1864 0 1304 -3 1827 -11
1864 -9 41 -22 64 -61 105 -59 63 -111 84 -218 88 -41 1 -889 0 -1885 -3z
m1640 -2061 l0 -1525 -1555 0 -1555 0 -3 1514 c-1 1113 1 1517 9 1527 10 12
264 14 1558 12 l1546 -3 0 -1525z"/>
    <path d="M1253 19480 c-40 -11 -94 -31 -120 -47 -67 -38 -147 -126 -186 -203
l-32 -65 0 -4060 1 -4060 31 -65 c33 -70 104 -149 179 -201 25 -17 74 -39 107
-48 57 -15 362 -16 3769 -15 2943 1 3717 4 3759 14 61 15 126 56 187 120 68
70 97 119 116 199 17 71 18 256 20 4050 1 3872 1 3978 -18 4056 -28 115 -84
195 -198 278 -21 15 -65 37 -99 47 -61 20 -110 20 -3753 19 -3591 0 -3693 -1
-3763 -19z m7042 -4375 l0 -3600 -3303 0 -3302 0 0 3594 c0 2871 2 3596 12
3603 7 4 1494 7 3303 5 l3290 -2 0 -3600z"/>
    <path d="M3115 17160 c-50 -11 -118 -51 -152 -89 -18 -20 -40 -61 -48 -91 -15
-50 -17 -214 -16 -1842 1 -1077 6 -1810 11 -1845 6 -32 10 -61 10 -65 0 -4 22
-33 49 -65 40 -49 60 -63 118 -87 l70 -28 1849 4 c1778 4 1851 4 1906 23 69
22 125 77 156 152 l22 52 0 1841 0 1841 -26 45 c-36 61 -77 100 -136 130 l-50
25 -1866 3 c-1027 1 -1880 -1 -1897 -4z m3425 -526 c7 -7 9 -564 8 -1525 l-3
-1514 -1549 -3 c-1233 -2 -1551 0 -1558 10 -11 19 -10 3022 2 3034 13 13 3087
11 3100 -2z"/>
    <path d="M11395 19493 c-86 -11 -168 -36 -209 -63 -71 -48 -133 -118 -168
-189 l-33 -66 0 -4071 1 -4071 34 -69 c62 -122 172 -208 300 -235 55 -12 671
-14 3920 -14 3239 0 3865 2 3920 14 110 23 202 88 266 188 69 108 64 -229 64
4197 0 3608 -2 4004 -16 4060 -19 76 -60 141 -124 198 -76 68 -101 84 -160
104 -53 18 -168 19 -3910 20 -2120 1 -3868 -1 -3885 -3z m7310 -4388 l0 -3600
-3468 0 -3467 0 0 3590 c0 1975 0 3593 0 3597 0 3 8 9 18 11 9 3 1570 4 3467
3 l3450 -1 0 -3600z"/>
    <path d="M14010 17160 l-625 -5 -35 -24 c-41 -28 -84 -74 -108 -116 -16 -28
-17 -145 -20 -1769 -1 -957 2 -1803 6 -1880 8 -130 11 -144 36 -181 34 -49 77
-85 136 -110 44 -20 79 -20 1915 -20 l1870 0 57 23 c61 25 114 75 148 141 20
40 20 47 20 1888 l0 1848 -26 50 c-28 52 -60 84 -129 132 l-40 28 -1290 0
c-709 0 -1571 -2 -1915 -5z m2852 -526 c5 -3 8 -684 8 -1514 -1 -1236 -3
-1510 -14 -1519 -9 -8 -450 -10 -1557 -9 l-1544 3 -3 1515 c-2 1435 -1 1516
15 1528 15 12 278 13 1553 7 844 -4 1538 -9 1542 -11z"/>
    <path d="M21780 19476 c-75 -24 -129 -57 -184 -112 -64 -65 -92 -114 -109
-194 -15 -68 -17 -439 -19 -4075 -3 -3833 -2 -4003 15 -4064 20 -69 40 -103
102 -169 59 -64 138 -111 224 -134 76 -20 92 -20 3931 -15 4259 6 3935 1 4036
69 71 48 131 113 167 182 l32 61 0 4080 0 4080 -29 56 c-35 69 -108 150 -167
187 -24 15 -74 38 -110 50 l-65 22 -3880 -1 -3879 -1 -65 -22z m7398 -774 c10
-7 12 -730 10 -3603 l-3 -3594 -3465 0 -3465 0 -3 3594 c-2 2869 0 3596 10
3603 17 10 6899 10 6916 0z"/>
    <path d="M25760 17161 l-1765 -6 -45 -24 c-62 -33 -97 -68 -126 -123 l-24 -47
0 -1839 0 -1839 21 -48 c29 -66 84 -123 149 -154 l55 -26 1850 0 c1793 0 1852
1 1905 19 30 10 72 34 94 52 21 18 50 57 65 86 l26 53 0 1845 -1 1845 -23 45
c-34 63 -78 107 -136 137 -44 23 -63 26 -165 28 -63 1 -909 -1 -1880 -4z
m1658 -526 c9 -3 12 -315 12 -1513 0 -1159 -3 -1511 -12 -1520 -9 -9 -366 -12
-1545 -12 -1220 0 -1533 3 -1533 13 -4 195 2 3011 6 3021 3 8 13 16 22 18 25
5 3036 -2 3050 -7z"/>
    <path d="M32255 19490 c-33 -4 -82 -14 -110 -23 -61 -21 -153 -100 -200 -172
-18 -29 -43 -87 -55 -128 l-21 -76 4 -3993 c3 -3942 3 -3994 23 -4058 25 -83
47 -121 108 -187 61 -66 125 -107 196 -124 46 -12 653 -14 3740 -11 2411 1
3711 5 3759 12 129 18 239 101 309 234 l37 71 0 4070 0 4070 -31 65 c-19 41
-53 86 -89 123 -32 31 -62 57 -67 57 -5 0 -21 9 -36 20 -15 11 -56 29 -91 40
-63 20 -76 20 -3740 18 -2022 0 -3703 -4 -3736 -8z m6993 -786 l22 -6 -2
-3597 -3 -3596 -3300 0 -3300 0 -3 3590 c-1 1975 0 3596 3 3602 3 10 694 13
3282 13 1803 0 3288 -3 3301 -6z"/>
    <path d="M34510 17160 c-432 -5 -446 -6 -485 -27 -56 -30 -108 -89 -134 -152
l-23 -54 4 -1821 4 -1821 26 -55 c36 -78 98 -133 178 -159 l65 -22 1840 3
c1817 3 1841 3 1893 23 73 28 148 103 167 168 13 44 15 288 15 1873 0 2018 5
1864 -66 1951 -20 24 -59 56 -87 70 l-52 27 -1450 0 c-797 1 -1650 -1 -1895
-4z m3012 -528 c4 -4 7 -690 6 -1523 l-3 -1514 -1544 -3 c-1133 -1 -1547 1
-1557 9 -12 10 -14 262 -14 1520 0 1297 2 1509 14 1516 19 11 3087 6 3098 -5z"/>
    <path d="M11242 8768 c-98 -41 -172 -109 -220 -202 l-37 -71 3 -3842 3 -3841
28 -64 c32 -70 109 -163 144 -174 12 -4 32 -15 45 -25 13 -10 54 -25 92 -33
61 -14 466 -16 3942 -16 4202 0 3951 -3 4031 52 93 65 171 162 197 248 12 38
15 604 18 3780 2 2599 0 3764 -8 3830 -8 73 -18 110 -43 159 -41 81 -127 162
-214 201 l-66 30 -3921 -1 -3921 -1 -73 -30z m7463 -4123 l0 -3360 -3455 -2
c-1900 -2 -3461 1 -3468 5 -10 7 -12 682 -12 3356 0 1841 2 3352 6 3357 3 5
1367 8 3467 7 l3462 -3 0 -3360z"/>
    <path d="M13363 6669 c-31 -18 -67 -50 -88 -81 -28 -38 -39 -66 -46 -112 -10
-69 -10 -2965 0 -3406 l6 -285 32 -48 c42 -65 94 -103 154 -116 72 -16 3693
-15 3775 0 84 16 146 60 184 130 l30 57 0 1846 0 1847 -24 47 c-27 52 -72 98
-129 130 l-38 22 -1902 0 -1902 0 -52 -31z m3505 -2005 c2 -1264 0 -1513 -12
-1523 -10 -8 -422 -10 -1557 -9 l-1544 3 -3 1509 c-1 1109 1 1512 9 1522 10
12 264 14 1558 12 l1546 -3 3 -1511z"/>
    <path d="M21760 8775 c-103 -36 -172 -90 -233 -183 -62 -97 -58 164 -60 -3956
-2 -3672 -2 -3752 17 -3821 22 -79 40 -110 105 -178 66 -69 118 -103 190 -122
57 -14 401 -16 3935 -15 3215 0 3885 3 3944 14 119 23 216 101 285 231 l32 60
0 3845 0 3845 -29 55 c-15 30 -44 74 -63 97 -40 50 -117 103 -191 132 l-53 21
-3907 -1 -3907 -1 -65 -23z m7414 -771 c15 -6 16 -311 16 -3360 l0 -3354 -22
-5 c-13 -3 -1573 -4 -3468 -3 l-3445 3 -3 3350 c-1 1843 0 3356 3 3363 3 9
703 12 3454 12 1897 0 3456 -3 3465 -6z"/>
    <path d="M23963 6676 c-64 -35 -109 -79 -137 -135 l-26 -50 0 -1841 0 -1841
21 -40 c11 -23 38 -61 61 -85 29 -31 54 -47 91 -58 45 -13 288 -15 1903 -16
1401 -1 1861 1 1895 10 63 17 124 71 160 141 l29 59 1 1834 1 1833 -27 52
c-31 62 -78 106 -147 138 l-50 23 -1866 0 -1867 -1 -42 -23z m3467 -2011 c4
-1307 3 -1512 -9 -1522 -12 -10 -335 -13 -1542 -13 -962 0 -1530 4 -1534 10
-3 5 -6 687 -5 1516 0 1198 3 1509 12 1516 7 4 702 7 1543 5 l1530 -2 5 -1510z"/>
  </g>
</svg>