<svg xmlns="http://www.w3.org/2000/svg" viewBox="0 0 4096.000000 4096.000000">
  <g transform="translate(0.000000,4096.000000) scale(0.100000,-0.100000)" fill="#f4f5f7" stroke="none">
    <path d="M19875 40379 c-60 -4 -146 -12 -190 -18 -44 -6 -169 -18 -279 -26
-109 -9 -202 -17 -205 -20 -13 -7 -131 -25 -268 -40 -73 -8 -159 -21 -190 -29
-32 -8 -103 -22 -158 -30 -55 -9 -119 -23 -141 -31 -23 -8 -77 -19 -120 -24
-44 -5 -108 -19 -144 -30 -36 -11 -96 -25 -134 -31 -38 -6 -85 -18 -105 -26
-20 -8 -72 -22 -115 -30 -44 -9 -93 -22 -108 -30 -16 -8 -54 -19 -86 -25 -31
-6 -84 -21 -117 -34 -33 -12 -80 -26 -105 -30 -25 -4 -58 -14 -75 -23 -16 -9
-57 -23 -90 -33 -94 -28 -186 -59 -240 -81 -27 -11 -74 -26 -102 -34 -29 -8
-68 -23 -85 -33 -18 -11 -49 -22 -68 -26 -19 -4 -55 -18 -80 -30 -25 -12 -61
-26 -80 -30 -19 -4 -47 -16 -61 -26 -14 -10 -38 -21 -55 -25 -30 -7 -111 -42
-219 -95 -33 -16 -66 -29 -73 -29 -8 0 -27 -9 -42 -20 -16 -11 -47 -27 -70
-35 -23 -8 -53 -23 -68 -33 -15 -11 -43 -25 -62 -31 -19 -7 -62 -28 -95 -46
-55 -32 -74 -41 -145 -75 -14 -6 -52 -27 -85 -45 -33 -19 -82 -46 -110 -60
-27 -14 -79 -43 -115 -65 -36 -22 -83 -49 -105 -60 -22 -11 -65 -36 -95 -55
-30 -18 -68 -41 -85 -50 -16 -8 -44 -25 -62 -38 -17 -12 -55 -35 -83 -52 -29
-16 -64 -39 -78 -50 -15 -12 -58 -40 -97 -64 -38 -23 -97 -62 -130 -87 -33
-24 -73 -51 -89 -60 -15 -8 -60 -40 -100 -69 -39 -30 -88 -66 -109 -82 -20
-15 -55 -41 -77 -58 -22 -16 -58 -43 -80 -60 -22 -16 -71 -55 -109 -85 -38
-30 -104 -82 -146 -115 -216 -167 -493 -415 -743 -665 -297 -296 -657 -682
-726 -779 -12 -16 -41 -55 -66 -86 -25 -30 -70 -86 -100 -124 -30 -37 -82
-105 -115 -150 -33 -46 -76 -102 -95 -126 -19 -24 -46 -60 -60 -80 -14 -19
-47 -66 -75 -103 -42 -57 -140 -201 -198 -292 -9 -14 -34 -51 -57 -84 -22 -32
-40 -61 -40 -66 0 -4 -13 -26 -30 -48 -16 -23 -30 -45 -30 -48 0 -3 -13 -24
-29 -47 -41 -61 -119 -194 -201 -345 -10 -18 -23 -38 -28 -45 -9 -11 -81 -146
-154 -287 -15 -30 -32 -62 -38 -70 -5 -8 -16 -31 -25 -50 -8 -19 -22 -46 -30
-60 -26 -45 -85 -175 -85 -186 0 -6 -10 -23 -21 -38 -12 -15 -25 -45 -30 -66
-5 -21 -20 -56 -34 -76 -14 -20 -25 -44 -25 -53 0 -9 -14 -43 -30 -76 -16 -33
-30 -66 -30 -74 0 -8 -11 -33 -24 -55 -13 -23 -27 -57 -31 -76 -4 -19 -17 -53
-30 -75 -12 -22 -27 -61 -34 -87 -6 -26 -20 -62 -30 -80 -10 -18 -22 -51 -26
-73 -4 -21 -15 -56 -25 -76 -11 -20 -24 -58 -30 -85 -6 -27 -20 -67 -30 -89
-25 -54 -69 -189 -82 -250 -5 -27 -21 -79 -34 -115 -13 -36 -26 -85 -30 -110
-3 -25 -14 -64 -25 -88 -10 -24 -23 -70 -29 -103 -6 -32 -21 -92 -34 -132 -13
-39 -27 -94 -31 -121 -4 -28 -15 -70 -25 -95 -10 -25 -23 -84 -29 -131 -6 -47
-20 -108 -30 -135 -10 -28 -22 -84 -26 -125 -4 -41 -15 -109 -25 -150 -19 -76
-33 -176 -45 -310 -4 -41 -13 -102 -21 -135 -8 -33 -19 -148 -24 -255 -6 -107
-18 -283 -28 -390 -15 -175 -17 -475 -22 -2938 -4 -2382 -7 -2744 -20 -2752
-8 -5 -296 -9 -655 -10 -469 0 -684 -4 -805 -15 -156 -14 -358 -48 -480 -82
-30 -8 -82 -22 -115 -30 -33 -8 -85 -25 -115 -38 -30 -12 -72 -26 -92 -29 -21
-4 -57 -18 -80 -31 -24 -14 -49 -25 -57 -25 -8 0 -42 -12 -75 -27 -97 -45
-330 -164 -346 -177 -8 -7 -49 -32 -90 -56 -41 -24 -89 -55 -106 -70 -17 -14
-58 -44 -90 -67 -53 -37 -205 -165 -260 -218 -11 -11 -72 -67 -134 -125 -99
-92 -269 -284 -353 -397 -15 -21 -40 -54 -55 -75 -15 -20 -35 -49 -44 -65 -10
-15 -38 -59 -62 -98 -25 -38 -45 -74 -46 -79 0 -5 -10 -23 -23 -40 -13 -17
-54 -94 -91 -171 -38 -77 -79 -161 -92 -186 -13 -26 -24 -53 -24 -61 0 -8 -11
-37 -25 -64 -14 -27 -28 -65 -31 -84 -4 -19 -17 -60 -29 -90 -13 -30 -28 -82
-35 -114 -7 -33 -20 -78 -30 -102 -10 -23 -21 -64 -25 -91 -3 -26 -17 -93 -30
-148 -13 -55 -29 -158 -35 -230 -6 -71 -15 -182 -21 -245 -6 -74 -8 -3226 -6
-8850 2 -6585 6 -8762 15 -8845 6 -60 16 -170 22 -244 6 -77 17 -146 26 -162
8 -16 19 -63 24 -106 6 -43 21 -109 34 -148 13 -38 27 -92 31 -120 4 -27 15
-66 26 -87 10 -21 24 -61 30 -90 7 -29 20 -64 30 -77 10 -12 21 -39 25 -60 3
-20 17 -53 30 -73 13 -20 26 -49 30 -65 4 -15 17 -48 30 -73 13 -25 31 -61 39
-80 8 -19 33 -64 55 -100 22 -36 46 -79 54 -96 8 -17 19 -35 25 -38 6 -4 21
-26 32 -49 12 -23 25 -44 29 -47 4 -3 19 -23 33 -45 15 -22 40 -58 56 -80 17
-22 38 -51 48 -65 44 -63 253 -290 388 -421 136 -131 349 -310 405 -339 14 -7
35 -22 48 -33 26 -24 83 -59 130 -81 19 -9 47 -27 64 -41 16 -14 35 -25 42
-25 8 0 25 -9 39 -20 14 -12 41 -26 59 -32 18 -6 45 -20 60 -30 15 -10 42 -24
60 -30 18 -6 44 -19 58 -28 26 -17 96 -45 212 -85 36 -13 79 -30 95 -38 15 -8
48 -18 73 -22 25 -4 73 -18 106 -30 34 -13 88 -27 120 -31 33 -4 77 -13 99
-21 22 -8 96 -21 165 -29 69 -7 170 -22 225 -31 95 -17 693 -18 11825 -18
11000 0 11731 1 11820 17 52 9 145 22 206 28 62 6 136 19 166 29 30 10 79 22
109 25 53 7 173 40 279 78 30 11 80 28 110 38 30 10 73 27 95 39 21 12 45 21
53 21 7 0 41 14 75 32 34 17 73 37 87 44 143 71 220 112 243 131 16 13 33 23
38 23 5 0 36 19 69 42 33 24 75 53 93 65 222 155 510 418 687 626 61 73 117
139 123 147 48 61 75 99 92 126 11 18 41 64 68 102 26 38 47 74 47 79 0 6 8
21 19 34 10 13 44 74 76 134 32 61 64 121 71 135 8 14 14 30 14 36 0 7 13 38
30 69 16 31 30 63 30 70 0 8 9 29 19 47 11 18 25 53 31 78 7 25 21 62 31 83
11 21 25 63 30 95 6 31 17 69 26 85 8 16 21 63 29 105 8 42 21 99 30 127 13
44 35 216 64 515 6 58 10 3505 10 8945 0 7531 -2 8859 -14 8910 -8 33 -19 112
-26 175 -6 63 -22 156 -35 205 -13 50 -30 117 -39 150 -46 181 -65 244 -79
266 -8 13 -20 48 -27 77 -7 28 -16 54 -20 57 -5 3 -14 22 -20 43 -6 20 -25 64
-41 97 -16 33 -36 76 -44 95 -20 45 -42 89 -60 120 -8 14 -26 48 -39 76 -14
28 -47 85 -75 126 -28 41 -51 79 -51 85 0 6 -7 16 -16 23 -8 7 -37 47 -64 89
-58 90 -56 88 -201 261 -63 74 -143 164 -179 199 -58 56 -214 192 -309 269
-18 15 -43 36 -55 48 -11 12 -32 27 -45 33 -13 7 -51 34 -85 59 -33 26 -90 66
-126 89 -36 23 -76 50 -89 59 -14 10 -66 39 -115 64 -50 26 -104 54 -121 62
-82 43 -162 78 -175 78 -8 0 -36 11 -62 25 -26 14 -55 25 -65 25 -10 0 -43 12
-73 26 -30 14 -81 30 -114 35 -32 6 -72 17 -87 25 -16 8 -82 26 -147 39 -64
13 -133 29 -152 34 -19 6 -118 18 -220 27 -156 15 -288 17 -842 15 l-657 -2
-6 23 c-3 13 -6 1272 -8 2798 -2 2510 -4 2787 -19 2905 -9 72 -22 231 -28 354
-6 123 -18 262 -26 310 -8 47 -22 136 -29 196 -15 110 -41 250 -49 264 -3 4
-10 48 -16 97 -6 49 -22 130 -35 179 -14 50 -25 105 -25 123 0 19 -11 66 -24
105 -13 40 -27 94 -31 122 -4 27 -17 77 -30 110 -12 34 -26 81 -30 105 -3 25
-17 79 -30 120 -14 41 -38 120 -54 175 -50 164 -80 256 -113 340 -11 28 -27
76 -35 109 -7 32 -20 68 -28 80 -7 11 -19 44 -26 71 -7 28 -23 73 -36 100 -12
28 -23 59 -23 70 0 11 -14 47 -30 80 -16 33 -30 67 -30 75 0 9 -13 42 -30 75
-16 33 -30 69 -30 79 0 11 -11 38 -24 60 -13 23 -27 57 -31 76 -4 19 -18 51
-31 70 -13 19 -24 41 -24 49 0 8 -16 49 -36 90 -39 80 -165 335 -191 386 -9
17 -22 44 -31 60 -8 17 -28 55 -44 85 -17 30 -41 75 -55 100 -13 25 -39 70
-58 100 -19 30 -42 71 -52 90 -10 19 -28 48 -40 63 -13 16 -23 34 -23 41 0 7
-13 30 -30 51 -16 21 -30 42 -30 47 0 5 -25 45 -55 89 -30 44 -55 84 -55 88 0
5 -12 24 -27 44 -16 19 -37 50 -48 68 -46 76 -135 213 -168 261 -7 9 -34 49
-62 90 -47 69 -70 101 -168 227 -23 29 -49 63 -57 75 -8 11 -35 46 -60 76 -25
30 -65 82 -90 115 -24 33 -49 65 -55 70 -6 6 -18 20 -27 33 -15 23 -83 102
-168 197 -25 27 -65 75 -90 105 -71 88 -127 147 -455 475 -359 360 -625 594
-961 845 -18 14 -68 52 -110 85 -43 33 -120 92 -173 132 -53 39 -112 83 -131
98 -52 39 -105 77 -142 103 -18 12 -49 34 -68 47 -19 13 -51 33 -71 44 -21 11
-43 27 -51 35 -8 7 -32 23 -54 34 -22 11 -46 28 -53 36 -8 9 -19 16 -26 16 -7
0 -23 9 -37 19 -25 20 -88 56 -163 94 -22 12 -53 31 -68 44 -16 13 -33 23 -39
23 -5 0 -24 10 -41 23 -18 12 -48 30 -67 40 -19 10 -57 31 -85 47 -27 17 -77
43 -110 60 -33 17 -71 37 -85 45 -14 8 -38 21 -55 29 -66 33 -131 67 -155 81
-14 8 -41 22 -60 30 -19 8 -46 22 -60 29 -14 8 -61 31 -105 51 -44 20 -101 47
-126 61 -26 13 -54 24 -63 24 -9 0 -42 14 -73 30 -31 17 -63 30 -71 30 -8 0
-34 11 -56 24 -23 13 -57 27 -76 31 -19 4 -51 16 -70 27 -19 11 -57 27 -85 35
-27 8 -60 21 -71 28 -12 8 -50 21 -85 30 -35 9 -70 21 -77 27 -7 6 -40 19 -75
29 -66 19 -153 48 -257 85 -36 13 -87 29 -114 34 -26 6 -61 17 -78 26 -16 8
-64 21 -107 29 -43 7 -95 21 -116 29 -20 9 -67 21 -103 27 -37 6 -88 20 -115
30 -26 11 -80 24 -120 30 -39 5 -99 19 -132 29 -33 11 -96 25 -140 31 -44 6
-96 17 -115 26 -19 8 -82 21 -139 29 -57 7 -125 20 -150 29 -26 8 -110 22
-186 30 -77 8 -175 21 -219 30 -43 8 -171 22 -285 30 -113 9 -231 20 -261 25
-118 21 -374 30 -800 28 -245 0 -494 -4 -555 -9z m1308 -1760 c100 -6 207 -17
237 -24 30 -8 109 -19 175 -25 66 -6 165 -22 220 -35 55 -13 132 -26 170 -30
39 -3 111 -17 160 -30 50 -13 116 -26 147 -29 32 -3 81 -15 110 -26 29 -10 87
-24 128 -31 41 -6 95 -19 119 -30 24 -10 52 -19 63 -19 10 0 66 -16 124 -35
57 -19 114 -35 125 -35 12 0 47 -11 78 -24 58 -25 141 -53 246 -85 33 -10 80
-28 105 -39 25 -12 54 -22 65 -22 11 0 47 -14 80 -30 33 -17 69 -30 80 -30 11
0 40 -11 65 -24 25 -13 61 -28 80 -35 19 -6 57 -22 84 -36 27 -14 56 -25 64
-25 8 0 35 -11 61 -24 76 -39 174 -83 201 -91 14 -4 36 -15 50 -25 14 -10 36
-21 50 -25 14 -4 36 -14 50 -23 14 -9 72 -41 130 -71 149 -77 186 -97 260
-141 36 -22 84 -48 106 -59 23 -11 45 -24 49 -30 3 -6 21 -18 38 -26 18 -8 46
-25 64 -38 17 -12 55 -35 83 -52 29 -16 64 -39 78 -51 15 -12 39 -27 53 -35
23 -12 93 -57 189 -122 14 -10 45 -33 70 -52 25 -19 59 -42 75 -51 17 -9 39
-26 51 -38 11 -12 49 -41 83 -66 34 -25 81 -60 104 -77 23 -18 53 -41 67 -50
14 -10 55 -42 92 -73 37 -30 88 -72 115 -92 55 -43 62 -49 334 -304 185 -174
302 -291 460 -460 64 -69 218 -249 269 -314 19 -25 73 -91 120 -146 74 -89
150 -186 200 -258 8 -11 37 -51 65 -88 27 -36 58 -79 67 -95 23 -36 65 -98
103 -153 28 -39 48 -70 99 -146 11 -16 29 -45 41 -64 12 -19 37 -60 57 -90 19
-30 49 -77 66 -104 18 -27 32 -55 32 -61 0 -7 7 -19 16 -26 9 -7 26 -33 38
-59 22 -42 90 -168 128 -235 10 -16 25 -46 33 -65 9 -19 22 -46 31 -60 8 -14
22 -41 30 -60 8 -19 19 -43 24 -52 34 -62 100 -205 100 -218 0 -6 14 -36 30
-67 17 -31 30 -63 30 -72 0 -9 12 -34 25 -56 14 -22 25 -47 25 -55 0 -9 13
-42 30 -75 16 -33 30 -67 30 -75 0 -8 13 -42 28 -75 16 -33 32 -77 36 -98 4
-21 18 -59 32 -84 13 -25 24 -55 24 -66 0 -11 11 -45 24 -76 30 -69 63 -167
83 -246 9 -33 26 -89 39 -125 13 -36 28 -91 33 -122 6 -32 17 -71 25 -87 9
-16 22 -69 30 -118 8 -48 22 -108 31 -133 9 -25 21 -81 26 -125 6 -44 19 -109
29 -145 11 -36 24 -110 30 -165 7 -55 20 -131 31 -170 10 -38 23 -126 29 -195
6 -68 17 -160 25 -205 8 -44 19 -139 24 -210 27 -353 32 -889 29 -3296 -3
-2086 -5 -2479 -17 -2493 -13 -15 -613 -16 -8646 -16 -6834 0 -8635 3 -8648
13 -15 11 -17 208 -19 2642 -2 2936 -1 3017 57 3405 7 52 19 147 25 210 6 63
19 151 30 195 10 44 22 114 25 155 4 41 18 111 31 154 13 44 24 97 24 118 0
22 11 72 24 111 13 40 29 105 36 146 7 41 21 92 31 115 10 23 19 52 19 66 0
22 37 145 87 290 8 25 25 81 38 126 12 45 28 90 34 102 6 11 16 44 22 73 6 29
22 73 35 97 13 25 24 54 24 66 0 12 14 48 30 81 16 33 30 67 30 75 0 8 14 42
30 75 16 33 30 66 30 73 0 7 14 38 30 69 17 31 30 61 30 68 0 7 13 37 28 67
16 29 31 62 35 73 3 11 12 31 20 45 9 14 31 61 51 105 20 44 44 94 52 110 41
75 129 244 148 280 11 22 30 53 43 68 13 16 23 33 23 38 0 5 33 63 73 129 39
66 86 142 102 170 104 173 140 230 170 270 19 25 44 61 55 80 11 19 34 53 51
75 16 22 42 58 57 80 15 22 47 66 72 99 25 32 55 73 67 90 52 71 360 449 415
508 23 25 93 99 153 163 61 65 113 123 117 129 4 7 102 102 219 212 117 109
232 217 255 240 46 42 158 137 336 282 110 89 126 101 263 202 44 32 93 69
109 82 16 13 44 32 62 43 18 11 71 47 119 80 47 33 102 69 120 80 19 12 42 28
52 37 10 8 29 19 43 23 14 4 33 15 43 24 22 19 95 62 153 91 23 11 47 26 53
34 6 8 26 20 44 27 18 7 45 23 60 36 16 13 35 23 42 23 7 0 26 11 42 24 15 13
45 29 65 35 21 7 40 17 44 22 3 6 30 21 59 33 29 13 55 28 59 34 3 6 23 16 44
23 20 6 49 20 64 31 15 10 42 24 60 30 18 6 44 19 58 28 14 10 43 23 65 30 22
7 50 21 63 31 13 10 37 21 53 24 17 4 56 20 86 36 30 16 61 29 69 29 8 0 35
11 61 24 124 62 155 75 318 131 28 10 75 28 105 41 55 22 119 44 260 89 41 13
95 30 120 39 115 39 180 59 235 73 33 9 83 24 110 34 28 10 82 23 120 30 39 6
90 19 115 29 25 10 84 23 132 29 48 6 106 18 129 26 23 9 96 22 163 31 67 9
146 22 176 30 30 8 125 22 210 30 85 8 181 21 213 29 50 13 281 29 567 39 168
6 915 -4 1103 -15z m11066 -15478 c47 -11 118 -25 156 -32 39 -6 86 -20 105
-29 19 -10 51 -21 70 -25 19 -4 55 -18 80 -31 25 -13 61 -31 80 -39 19 -8 53
-25 75 -38 54 -30 214 -136 245 -161 69 -59 261 -259 303 -316 25 -36 57 -79
69 -96 24 -32 117 -215 162 -319 15 -33 31 -82 36 -110 5 -27 18 -75 29 -106
11 -31 26 -107 33 -170 11 -92 13 -1785 13 -8914 0 -7244 -2 -8822 -13 -8925
-8 -76 -23 -152 -38 -193 -13 -38 -24 -83 -24 -101 0 -18 -11 -55 -25 -82 -14
-27 -30 -67 -36 -89 -6 -22 -19 -51 -29 -65 -9 -14 -22 -41 -29 -60 -11 -32
-21 -51 -77 -134 -10 -15 -28 -43 -39 -61 -50 -82 -145 -189 -270 -304 -74
-68 -139 -117 -219 -165 -17 -10 -47 -29 -67 -42 -19 -13 -42 -24 -50 -24 -8
0 -31 -11 -51 -25 -21 -14 -52 -28 -70 -32 -18 -3 -51 -16 -73 -29 -22 -12
-62 -25 -90 -29 -27 -4 -84 -18 -125 -32 -56 -19 -100 -26 -180 -28 -58 -2
-130 -9 -160 -17 -46 -11 -2009 -13 -11500 -12 -8687 1 -11484 4 -11605 13
-351 26 -380 29 -458 55 -43 14 -88 26 -100 26 -12 0 -40 10 -62 21 -22 12
-61 28 -87 35 -26 8 -50 19 -54 25 -3 6 -25 19 -48 30 -39 19 -113 63 -172
104 -45 30 -206 170 -234 202 -14 16 -52 60 -85 99 -79 91 -125 150 -125 163
0 5 -11 22 -24 38 -13 15 -26 38 -30 51 -4 12 -18 34 -30 50 -13 15 -29 45
-36 67 -7 22 -19 47 -27 56 -8 10 -20 40 -28 69 -7 28 -21 62 -30 76 -9 13
-20 50 -26 82 -5 31 -22 93 -37 137 l-27 80 0 8965 0 8965 22 61 c12 34 29 90
36 125 16 72 66 202 96 249 6 8 19 35 31 60 65 144 217 347 366 489 59 57 126
115 147 130 112 75 145 95 237 146 108 59 286 121 410 141 47 7 119 20 160 28
65 12 1637 14 11759 15 11510 1 11685 1 11770 -18z"/>
    <path d="M20335 17569 c-83 -8 -152 -24 -171 -40 -6 -5 -31 -15 -55 -22 -111
-34 -287 -183 -373 -316 -25 -39 -46 -74 -46 -78 0 -4 -13 -36 -29 -72 -16
-36 -38 -113 -50 -171 l-22 -105 4 -4060 3 -4060 21 -85 c21 -84 64 -177 117
-255 48 -71 129 -156 205 -217 78 -63 210 -131 276 -142 22 -4 69 -16 104 -27
67 -20 140 -24 206 -9 22 4 76 16 121 24 97 20 207 66 291 124 34 23 91 72
127 108 68 69 148 180 161 224 4 14 14 32 21 41 8 8 26 60 41 115 l27 99 6
4055 c3 2230 2 4073 -2 4095 -13 85 -59 243 -86 295 -62 124 -97 173 -179 250
-46 44 -99 88 -116 97 -18 9 -46 27 -63 39 -17 13 -38 24 -46 24 -8 0 -36 11
-62 25 -32 17 -82 30 -154 40 -114 16 -154 17 -277 4z"/>
  </g>
</svg>