<svg xmlns="http://www.w3.org/2000/svg" viewBox="0 0 4096.000000 4096.000000">
  <g transform="translate(0.000000,4096.000000) scale(0.100000,-0.100000)" fill="#f4f5f7" stroke="none">
    <path d="M14245 40293 c-38 -2 -158 -12 -265 -23 -107 -11 -296 -27 -420 -35
-124 -8 -270 -24 -325 -35 -55 -11 -167 -25 -250 -31 -86 -6 -180 -18 -220
-29 -38 -11 -137 -27 -220 -36 -82 -8 -183 -24 -222 -35 -40 -11 -127 -27
-193 -35 -67 -8 -142 -23 -168 -33 -26 -10 -92 -24 -147 -30 -55 -7 -131 -23
-170 -36 -38 -13 -103 -28 -143 -34 -40 -6 -105 -22 -145 -35 -39 -14 -101
-30 -137 -36 -36 -6 -85 -20 -110 -31 -25 -10 -78 -26 -118 -34 -40 -8 -90
-24 -111 -34 -21 -11 -66 -25 -99 -30 -33 -5 -78 -19 -100 -30 -22 -11 -73
-28 -113 -37 -41 -9 -94 -27 -119 -39 -25 -12 -65 -26 -90 -30 -25 -4 -70 -18
-100 -31 -30 -14 -74 -29 -99 -35 -24 -5 -72 -23 -105 -39 -33 -17 -72 -30
-87 -30 -14 0 -48 -11 -75 -25 -27 -14 -72 -32 -100 -39 -28 -8 -74 -26 -102
-40 -28 -14 -60 -26 -71 -26 -10 0 -44 -13 -76 -30 -31 -16 -75 -35 -98 -41
-23 -6 -63 -24 -88 -40 -25 -16 -54 -29 -65 -29 -10 0 -38 -11 -62 -25 -24
-13 -62 -30 -85 -36 -23 -6 -58 -21 -77 -35 -20 -13 -59 -31 -87 -39 -28 -8
-56 -22 -63 -30 -7 -8 -35 -22 -62 -30 -27 -8 -62 -23 -78 -35 -16 -11 -49
-27 -73 -34 -24 -7 -61 -25 -83 -40 -21 -14 -45 -26 -53 -26 -8 0 -35 -12 -60
-27 -63 -37 -137 -77 -191 -104 -25 -12 -57 -30 -72 -41 -15 -10 -42 -24 -60
-30 -18 -6 -45 -21 -60 -34 -15 -12 -44 -28 -65 -34 -21 -7 -49 -23 -63 -35
-14 -12 -40 -27 -58 -33 -19 -6 -47 -23 -64 -37 -16 -14 -42 -28 -56 -32 -15
-3 -49 -21 -76 -40 -26 -18 -54 -33 -61 -33 -8 0 -26 -11 -42 -24 -15 -13 -44
-32 -64 -42 -88 -46 -126 -69 -159 -95 -19 -16 -40 -29 -46 -29 -7 0 -31 -16
-54 -35 -23 -19 -48 -35 -56 -35 -7 0 -28 -13 -46 -29 -18 -15 -49 -36 -68
-46 -18 -10 -40 -24 -48 -32 -8 -7 -28 -21 -45 -30 -18 -9 -44 -25 -59 -37
-14 -12 -56 -39 -92 -61 -36 -22 -88 -56 -115 -75 -27 -19 -72 -51 -101 -70
-28 -19 -66 -47 -83 -61 -18 -14 -47 -34 -64 -43 -18 -9 -33 -20 -33 -24 0 -4
-15 -16 -32 -27 -18 -10 -49 -31 -68 -47 -34 -27 -80 -63 -165 -128 -22 -17
-74 -59 -116 -93 -42 -34 -102 -82 -134 -107 -59 -46 -137 -112 -171 -143 -10
-9 -59 -50 -107 -90 -143 -117 -327 -273 -407 -345 -243 -218 -646 -614 -690
-676 -8 -11 -95 -102 -194 -201 -98 -99 -191 -198 -207 -220 -16 -22 -47 -58
-69 -80 -23 -22 -50 -55 -61 -72 -12 -18 -24 -33 -28 -33 -4 0 -32 -30 -62
-67 -30 -36 -83 -101 -119 -144 -118 -141 -176 -214 -195 -244 -11 -16 -33
-46 -50 -67 -16 -20 -46 -57 -65 -83 -19 -26 -47 -61 -62 -78 -16 -17 -28 -35
-28 -38 0 -4 -15 -25 -32 -47 -18 -22 -49 -61 -68 -86 -19 -26 -51 -67 -70
-91 -19 -24 -51 -67 -70 -95 -19 -29 -48 -69 -65 -90 -16 -21 -38 -51 -47 -66
-10 -16 -30 -47 -45 -70 -16 -22 -42 -63 -60 -90 -18 -27 -41 -62 -53 -79 -11
-16 -39 -59 -62 -95 -22 -36 -56 -88 -75 -115 -18 -28 -33 -54 -33 -59 0 -4
-13 -24 -30 -43 -16 -18 -30 -40 -30 -48 0 -7 -11 -26 -24 -42 -13 -15 -33
-46 -44 -69 -11 -22 -27 -46 -36 -53 -8 -7 -20 -29 -27 -49 -6 -20 -23 -53
-37 -71 -27 -37 -51 -77 -101 -176 -17 -33 -47 -87 -66 -120 -19 -33 -48 -88
-65 -122 -16 -34 -34 -64 -39 -68 -6 -3 -20 -27 -31 -53 -12 -26 -29 -56 -39
-67 -10 -11 -24 -37 -30 -57 -7 -20 -21 -48 -31 -61 -11 -13 -29 -49 -40 -80
-11 -30 -27 -60 -35 -67 -8 -6 -22 -35 -31 -63 -9 -29 -24 -63 -34 -77 -9 -14
-25 -47 -35 -75 -10 -27 -26 -61 -36 -75 -10 -14 -23 -45 -29 -70 -7 -25 -20
-56 -30 -70 -9 -14 -23 -43 -30 -65 -7 -22 -25 -63 -41 -91 -16 -28 -29 -58
-29 -67 0 -8 -16 -45 -35 -81 -19 -37 -35 -72 -35 -80 0 -7 -13 -37 -29 -67
-16 -30 -32 -73 -36 -96 -3 -23 -19 -61 -35 -85 -15 -24 -31 -63 -35 -88 -4
-25 -18 -63 -31 -85 -13 -22 -28 -65 -35 -95 -6 -30 -19 -68 -29 -85 -10 -16
-26 -59 -35 -95 -9 -36 -25 -81 -36 -100 -10 -19 -25 -67 -33 -107 -8 -39 -25
-95 -39 -125 -13 -29 -27 -73 -31 -96 -3 -24 -16 -63 -28 -85 -12 -23 -29 -73
-39 -112 -10 -38 -27 -97 -38 -130 -58 -172 -74 -224 -83 -270 -5 -27 -23 -93
-39 -145 -16 -52 -34 -128 -40 -168 -6 -41 -21 -104 -34 -140 -13 -37 -28
-101 -34 -143 -6 -42 -21 -116 -35 -165 -13 -49 -29 -136 -35 -194 -6 -58 -20
-134 -31 -170 -11 -36 -25 -109 -30 -162 -10 -105 -11 -112 -41 -233 -11 -44
-26 -150 -34 -235 -8 -85 -23 -207 -34 -270 -10 -63 -22 -169 -26 -235 -4 -66
-18 -203 -31 -305 -33 -250 -44 -530 -44 -1135 0 -608 12 -951 39 -1132 11
-73 25 -208 31 -300 7 -92 20 -211 31 -263 11 -52 28 -174 38 -270 11 -96 29
-211 40 -255 11 -44 25 -127 30 -185 6 -58 21 -148 35 -200 13 -52 29 -138 35
-190 6 -52 20 -118 30 -146 11 -28 25 -91 32 -140 6 -48 20 -108 30 -132 11
-25 24 -77 30 -116 6 -39 24 -111 39 -161 16 -49 32 -117 35 -150 4 -33 17
-83 29 -110 13 -28 29 -75 36 -105 7 -30 23 -83 36 -117 13 -34 30 -94 38
-132 8 -38 24 -88 36 -111 12 -23 26 -68 31 -101 5 -32 18 -74 29 -92 11 -19
27 -71 35 -115 7 -44 23 -98 33 -119 11 -21 25 -62 31 -90 6 -29 24 -78 41
-109 16 -31 30 -68 30 -82 0 -14 13 -48 29 -76 15 -28 31 -69 35 -91 4 -22 18
-58 31 -80 13 -22 30 -67 39 -100 8 -32 24 -71 35 -86 11 -15 25 -49 32 -76 6
-26 22 -64 34 -83 13 -19 29 -55 35 -80 7 -24 21 -55 31 -69 10 -13 26 -46 34
-73 8 -27 24 -62 35 -78 11 -16 27 -51 35 -78 8 -27 23 -60 34 -73 10 -13 24
-42 31 -64 7 -22 22 -53 35 -70 12 -16 28 -48 35 -70 7 -22 22 -53 35 -70 12
-16 27 -47 34 -67 7 -20 20 -47 30 -60 10 -13 23 -38 30 -57 6 -19 24 -55 40
-80 16 -25 32 -57 36 -71 4 -14 16 -37 27 -52 10 -15 25 -45 33 -68 8 -23 23
-53 33 -68 11 -15 29 -47 41 -72 48 -97 77 -149 93 -167 9 -10 25 -38 36 -63
11 -25 27 -52 37 -60 9 -8 28 -37 41 -65 13 -27 38 -70 54 -95 17 -25 38 -58
48 -74 9 -15 27 -42 39 -60 12 -17 34 -51 48 -76 27 -47 55 -89 105 -156 16
-23 30 -45 30 -49 0 -5 9 -18 19 -29 11 -12 32 -42 48 -67 15 -25 46 -72 68
-104 22 -32 56 -82 75 -110 43 -66 80 -116 125 -175 19 -25 47 -65 62 -90 15
-25 37 -58 50 -75 58 -73 91 -117 128 -170 22 -32 63 -85 91 -119 27 -34 78
-99 112 -146 33 -47 82 -107 107 -135 26 -27 65 -75 88 -105 68 -89 160 -199
212 -255 17 -17 62 -66 100 -109 39 -42 97 -106 130 -140 33 -35 92 -97 130
-138 285 -302 383 -406 405 -428 68 -67 224 -213 300 -280 47 -42 97 -87 111
-100 61 -58 110 -100 394 -339 66 -56 145 -123 175 -150 30 -28 72 -62 92 -78
20 -15 62 -48 93 -73 32 -25 67 -52 80 -60 12 -8 33 -25 46 -37 47 -43 95 -80
134 -107 22 -14 60 -42 85 -61 25 -19 56 -43 70 -52 14 -9 42 -31 62 -48 20
-16 60 -46 88 -65 29 -19 69 -48 90 -65 21 -16 61 -46 89 -65 28 -19 73 -51
100 -70 27 -19 71 -50 98 -68 26 -18 64 -44 83 -57 19 -13 49 -30 65 -38 17
-8 47 -29 69 -46 21 -17 43 -31 49 -31 6 0 26 -12 46 -27 20 -16 48 -35 62
-43 100 -57 135 -78 166 -102 20 -16 42 -28 49 -28 7 0 25 -11 41 -24 15 -13
46 -33 69 -44 22 -11 46 -27 53 -36 7 -8 29 -20 49 -27 20 -6 48 -21 62 -34
14 -12 40 -28 59 -35 18 -8 45 -23 60 -35 14 -12 37 -26 51 -30 14 -4 40 -18
57 -32 18 -13 52 -31 75 -39 23 -8 52 -23 63 -33 11 -10 38 -24 60 -31 22 -7
54 -23 70 -35 17 -13 47 -28 67 -34 20 -7 48 -21 62 -32 13 -11 42 -26 63 -33
21 -7 56 -25 77 -40 21 -14 46 -26 55 -26 10 0 37 -13 62 -29 25 -15 63 -34
85 -41 21 -7 52 -22 67 -33 16 -10 48 -25 72 -33 25 -7 61 -24 82 -38 21 -14
45 -26 54 -26 9 0 42 -13 74 -30 31 -16 75 -34 98 -41 23 -6 58 -21 77 -33 20
-13 51 -27 70 -31 19 -4 58 -20 85 -35 28 -15 66 -31 85 -35 19 -4 58 -20 86
-36 28 -16 60 -29 71 -29 11 0 44 -13 74 -29 30 -15 79 -34 109 -41 30 -7 73
-23 95 -36 22 -12 60 -28 85 -34 25 -7 62 -21 82 -31 21 -11 68 -26 104 -35
37 -8 84 -24 104 -34 20 -10 67 -26 104 -34 36 -9 76 -22 89 -30 12 -9 53 -22
91 -31 37 -9 96 -26 129 -39 34 -13 89 -26 122 -30 33 -4 92 -20 130 -35 39
-16 96 -31 128 -35 32 -4 81 -18 110 -31 29 -13 85 -28 125 -34 40 -6 96 -20
125 -31 28 -12 95 -27 147 -35 52 -8 119 -24 147 -35 29 -11 97 -25 150 -31
54 -6 136 -21 183 -35 47 -13 130 -29 185 -34 55 -6 143 -22 195 -35 52 -13
133 -26 180 -30 100 -7 188 -18 360 -45 69 -10 191 -24 273 -30 81 -5 202 -19
270 -30 259 -41 1248 -71 1682 -51 138 6 348 16 467 21 135 6 276 19 370 34
84 14 209 27 278 31 69 4 190 20 270 35 80 16 187 31 238 35 51 3 134 17 185
30 51 13 144 28 208 34 64 6 145 20 180 32 35 11 109 26 164 34 106 15 149 26
183 44 12 6 58 16 104 22 45 5 112 21 150 34 38 13 106 29 151 36 45 6 107 22
137 34 30 13 80 26 110 30 30 4 84 20 120 35 36 15 92 31 125 35 33 4 80 17
105 30 25 13 72 28 105 34 32 6 77 20 98 31 21 12 71 27 110 36 39 8 85 24
103 35 18 11 64 26 103 34 38 8 85 24 103 34 18 10 58 24 88 31 30 7 82 26
115 42 33 15 69 28 79 28 11 0 43 13 71 29 29 16 71 34 94 41 23 6 58 22 78
35 20 14 46 25 58 25 12 0 52 16 88 35 36 19 72 35 80 35 8 0 40 13 72 30 31
16 75 35 98 41 23 6 53 19 67 29 14 10 49 25 78 33 29 9 66 26 83 38 17 12 49
27 72 34 54 17 194 82 202 94 3 5 36 21 74 36 38 14 77 35 86 45 10 11 33 23
52 26 19 4 46 17 61 29 15 12 44 28 64 34 20 7 47 21 61 31 13 10 48 30 78 45
30 14 86 44 124 65 39 22 81 44 95 51 14 6 41 19 60 29 19 11 55 29 80 41 25
12 59 32 75 44 17 12 44 28 62 34 18 7 38 20 45 28 7 9 31 24 53 35 51 24 133
76 174 111 18 15 39 27 46 27 7 0 26 11 42 24 15 13 46 33 69 44 22 11 46 28
53 36 8 9 32 25 55 36 40 20 74 42 146 95 62 46 104 74 145 96 22 12 50 31 63
42 12 11 37 30 56 41 67 41 111 74 135 100 18 19 34 26 61 26 35 0 82 -45
1268 -1228 804 -802 1232 -1236 1232 -1249 0 -11 -27 -45 -62 -78 -155 -146
-295 -308 -362 -419 -11 -17 -32 -51 -48 -75 -15 -25 -28 -52 -28 -61 0 -10
-13 -42 -29 -72 -16 -30 -32 -76 -36 -104 -4 -27 -16 -87 -28 -134 -15 -64
-20 -119 -20 -225 0 -77 5 -158 11 -180 6 -22 20 -74 30 -115 10 -41 31 -97
46 -124 14 -27 26 -55 26 -61 0 -7 16 -36 35 -64 19 -28 35 -55 35 -60 0 -5
15 -28 33 -50 87 -113 185 -216 413 -438 137 -133 812 -802 1499 -1487 688
-685 1256 -1251 1264 -1258 24 -23 505 -507 799 -802 388 -392 4240 -4242
4433 -4432 85 -83 291 -291 459 -461 265 -269 379 -377 516 -488 18 -14 49
-32 70 -41 22 -9 48 -24 59 -34 11 -10 38 -23 60 -30 22 -7 56 -21 75 -32 19
-11 66 -26 105 -33 38 -8 96 -21 129 -29 36 -10 110 -16 190 -17 97 -2 145 2
186 14 30 9 92 23 138 31 45 8 97 23 115 34 17 11 50 25 72 32 22 7 51 21 65
31 14 11 44 29 67 41 79 43 158 113 353 311 107 109 325 328 484 485 159 158
325 325 370 371 44 46 531 536 1081 1088 1158 1162 1791 1804 1855 1879 94
110 142 190 209 349 22 55 33 103 46 220 27 234 28 274 11 346 -8 37 -18 98
-22 135 -7 75 -52 196 -109 294 -8 14 -22 41 -30 60 -16 37 -43 79 -97 147
-42 55 -2961 2972 -5195 5192 -395 392 -829 824 -965 960 -136 135 -286 284
-334 331 -47 47 -431 429 -853 850 -422 421 -821 818 -887 882 -65 64 -216
214 -334 333 -349 351 -693 684 -726 704 -18 11 -35 25 -39 31 -4 6 -28 21
-54 32 -25 10 -55 28 -66 38 -11 11 -41 26 -65 35 -25 9 -55 23 -68 31 -32 21
-232 63 -332 70 -66 5 -121 0 -245 -21 -113 -19 -172 -33 -200 -50 -22 -13
-58 -27 -79 -30 -21 -4 -52 -20 -70 -35 -17 -15 -47 -32 -67 -39 -20 -6 -45
-21 -55 -32 -11 -12 -37 -30 -59 -41 -22 -12 -121 -104 -226 -212 -172 -175
-189 -190 -211 -181 -13 6 -79 69 -148 140 -370 387 -667 690 -850 869 -426
418 -754 743 -808 801 -53 57 -171 175 -458 457 -174 171 -214 215 -214 237 0
11 17 42 38 69 20 28 46 65 57 83 11 18 34 53 50 79 17 26 39 61 50 79 11 18
30 47 42 65 12 17 34 52 48 79 14 26 29 47 34 47 5 0 14 14 21 30 7 17 26 47
41 67 16 20 29 42 29 49 0 8 16 31 35 53 19 21 35 43 35 48 0 5 16 32 35 59
19 27 35 54 35 61 0 7 13 27 29 45 15 18 31 43 35 55 4 12 20 38 36 58 17 21
30 43 30 50 0 7 12 30 28 51 15 21 36 58 46 82 11 23 22 42 26 42 4 0 20 26
35 57 15 32 33 65 41 73 7 9 20 35 29 59 8 23 23 54 34 67 11 14 27 47 36 73
9 27 24 56 35 66 11 10 25 33 31 53 6 20 25 56 40 81 16 25 29 50 29 55 0 6 7
25 16 41 48 87 124 241 124 250 0 5 14 28 30 49 17 22 30 46 30 54 0 9 13 38
29 66 15 28 34 69 41 91 7 22 21 55 32 73 11 18 26 54 32 80 7 26 25 65 40 86
14 21 26 47 26 56 0 10 13 43 30 75 16 31 35 75 41 97 6 23 22 58 35 77 13 20
24 45 24 56 0 12 16 52 35 91 19 38 35 76 35 85 0 8 16 46 35 85 19 38 35 77
35 88 0 10 16 53 35 96 19 43 35 86 35 96 0 11 12 44 26 74 14 30 31 87 39
126 8 40 23 91 35 113 11 23 25 65 30 93 6 28 21 76 35 105 13 30 29 82 36
116 6 34 21 87 34 117 13 30 26 78 30 105 4 28 20 80 36 117 16 36 29 80 29
96 0 16 12 67 26 113 14 46 33 125 43 174 10 50 27 115 38 145 11 30 23 82 27
116 4 34 18 97 31 140 14 43 30 122 36 174 6 52 21 136 35 185 13 50 28 142
34 205 6 63 22 158 35 210 13 52 29 158 35 235 6 77 19 183 30 235 11 52 24
176 30 275 6 99 18 234 26 300 8 66 19 156 25 200 16 138 27 941 18 1370 -7
339 -12 431 -29 530 -11 66 -27 226 -35 355 -8 129 -21 262 -29 295 -17 70
-33 201 -41 335 -3 52 -16 133 -29 180 -14 47 -30 143 -36 214 -7 71 -21 154
-31 185 -11 30 -24 96 -29 145 -13 115 -17 138 -41 211 -10 33 -25 105 -33
160 -8 55 -23 123 -34 150 -10 28 -24 85 -31 128 -6 43 -22 103 -35 135 -13
31 -29 90 -35 129 -6 40 -20 94 -30 120 -10 27 -26 84 -35 128 -9 44 -26 99
-37 121 -11 23 -24 71 -30 105 -5 35 -19 82 -30 103 -12 22 -27 73 -35 113 -7
40 -24 92 -35 116 -12 23 -28 71 -36 106 -7 35 -22 78 -33 96 -11 17 -25 55
-31 85 -6 29 -24 81 -40 114 -16 34 -29 70 -29 82 0 12 -13 45 -29 75 -15 30
-34 78 -40 108 -6 30 -20 68 -31 85 -10 17 -24 54 -31 81 -7 28 -23 66 -35 85
-13 19 -28 60 -35 90 -6 30 -21 71 -34 90 -13 19 -28 53 -35 75 -7 22 -22 53
-32 68 -11 15 -26 50 -33 77 -7 27 -22 61 -34 76 -11 15 -26 45 -32 68 -6 22
-21 57 -33 76 -13 19 -31 58 -40 87 -9 28 -23 57 -31 63 -8 6 -19 28 -26 47
-12 37 -93 199 -121 243 -9 14 -19 36 -23 50 -4 14 -17 39 -30 55 -12 17 -27
47 -34 67 -7 20 -23 53 -36 71 -12 19 -26 46 -30 58 -4 13 -17 40 -29 59 -24
40 -64 113 -99 185 -14 28 -32 57 -40 64 -9 7 -23 34 -32 61 -9 26 -25 56 -36
66 -11 10 -27 34 -35 52 -7 19 -25 47 -39 64 -14 16 -25 35 -25 42 0 7 -12 28
-26 47 -14 19 -32 50 -40 69 -8 19 -24 44 -35 56 -11 12 -28 35 -37 52 -32 56
-80 137 -102 167 -58 84 -71 104 -94 146 -13 25 -32 51 -41 59 -9 7 -22 28
-29 45 -7 17 -25 44 -40 60 -14 15 -26 31 -26 36 0 4 -17 28 -37 52 -21 24
-47 59 -58 77 -50 83 -63 102 -83 121 -12 11 -22 24 -22 29 0 4 -12 23 -27 41
-16 18 -37 47 -48 65 -11 17 -40 58 -65 90 -74 94 -99 127 -119 159 -29 45
-82 113 -117 149 -17 17 -61 67 -98 111 -37 44 -83 98 -102 120 -18 22 -65 78
-104 125 -39 47 -81 96 -93 110 -13 14 -61 68 -107 120 -46 52 -136 151 -200
220 -64 69 -164 175 -221 237 -134 144 -494 486 -753 718 -43 39 -90 82 -105
96 -36 35 -340 296 -393 337 -24 18 -76 60 -116 93 -40 33 -85 67 -100 76 -15
10 -42 29 -59 43 -18 14 -53 41 -78 60 -25 19 -60 47 -78 61 -17 14 -46 34
-64 43 -17 9 -38 24 -45 34 -7 11 -26 27 -43 36 -16 9 -60 40 -97 69 -36 28
-79 60 -95 69 -15 10 -55 38 -88 62 -33 25 -76 54 -96 65 -19 11 -41 27 -49
36 -7 9 -30 23 -49 31 -20 8 -47 25 -61 38 -14 13 -39 29 -57 35 -18 7 -38 20
-45 28 -6 8 -32 26 -57 39 -25 14 -62 36 -81 49 -131 91 -216 145 -228 145 -6
0 -26 13 -44 29 -18 15 -53 37 -78 48 -25 11 -51 27 -59 36 -7 10 -19 17 -26
17 -7 0 -35 15 -62 34 -26 18 -60 37 -73 41 -14 4 -36 18 -50 30 -14 13 -43
31 -65 40 -22 9 -49 24 -60 34 -11 10 -37 24 -58 31 -21 6 -50 22 -65 34 -15
13 -44 29 -64 35 -21 7 -41 17 -44 23 -4 6 -32 21 -63 35 -31 14 -65 33 -76
43 -11 11 -40 26 -65 35 -24 9 -51 22 -60 30 -9 8 -37 21 -63 29 -25 7 -58 23
-73 35 -15 11 -43 25 -64 31 -20 6 -53 21 -72 34 -19 13 -58 31 -86 40 -28 10
-56 24 -62 32 -7 7 -34 20 -60 28 -26 8 -65 26 -86 39 -22 14 -60 29 -87 32
-29 5 -61 18 -83 36 -20 16 -53 31 -73 35 -20 3 -59 19 -87 35 -28 16 -58 29
-67 29 -8 0 -40 13 -70 29 -30 16 -70 32 -89 36 -18 4 -50 18 -70 31 -20 13
-59 29 -85 34 -26 6 -66 22 -89 35 -22 13 -63 29 -90 36 -27 7 -70 23 -96 36
-26 13 -79 30 -116 38 -38 8 -93 24 -123 35 -29 12 -78 26 -109 32 -30 5 -69
18 -86 29 -17 10 -55 24 -84 29 -29 6 -76 21 -104 34 -28 13 -78 29 -110 36
-33 7 -80 21 -105 32 -25 11 -79 26 -120 34 -41 8 -99 25 -130 38 -31 14 -80
27 -109 31 -29 3 -83 17 -120 30 -37 13 -108 30 -157 39 -50 8 -111 24 -135
35 -25 11 -81 23 -125 26 -44 4 -112 18 -152 32 -39 13 -125 30 -190 38 -65 8
-149 23 -186 34 -37 11 -123 25 -190 31 -67 7 -165 22 -217 35 -58 14 -157 28
-255 35 -88 6 -198 20 -245 31 -52 12 -166 26 -295 34 -115 8 -295 24 -400 36
-172 19 -249 22 -825 24 -349 1 -666 0 -705 -2z m1261 -1233 c147 -6 306 -18
385 -30 74 -11 221 -24 327 -30 169 -9 350 -31 372 -45 4 -3 84 -12 176 -20
101 -9 206 -25 261 -40 51 -13 132 -27 180 -31 49 -3 122 -17 163 -30 42 -13
120 -30 175 -38 55 -7 123 -23 151 -34 28 -11 89 -26 135 -32 46 -6 116 -22
155 -35 39 -13 100 -30 135 -39 35 -8 84 -23 109 -34 25 -10 74 -22 110 -26
36 -4 94 -20 130 -36 36 -15 88 -31 115 -35 28 -3 65 -15 83 -26 18 -10 68
-28 112 -38 44 -11 92 -27 108 -35 16 -8 63 -23 103 -32 41 -9 88 -25 105 -35
17 -10 55 -24 85 -30 30 -6 77 -24 104 -39 28 -15 67 -31 88 -34 20 -4 65 -20
100 -36 34 -17 72 -30 83 -30 12 0 47 -13 77 -29 30 -16 70 -32 88 -36 19 -4
62 -23 97 -41 35 -19 71 -34 80 -34 9 0 42 -13 72 -29 30 -15 68 -31 83 -35
16 -4 45 -18 65 -31 20 -13 54 -27 75 -31 21 -3 53 -16 71 -29 18 -12 56 -30
84 -39 28 -10 61 -26 74 -36 13 -10 43 -23 66 -30 24 -6 63 -24 89 -40 25 -16
58 -32 74 -35 16 -4 32 -11 35 -17 4 -6 39 -26 78 -44 71 -35 111 -57 176
-100 19 -13 51 -29 70 -35 19 -7 49 -23 66 -36 17 -12 35 -23 40 -23 6 0 34
-16 64 -35 30 -19 63 -35 72 -35 9 0 30 -11 46 -25 16 -13 49 -34 73 -45 24
-11 58 -30 76 -43 78 -54 100 -68 139 -86 23 -11 45 -24 49 -30 3 -6 27 -23
53 -37 47 -25 81 -47 159 -104 23 -16 47 -30 52 -30 6 0 25 -13 43 -28 30 -26
54 -42 166 -109 21 -12 46 -29 57 -38 25 -20 110 -75 144 -94 14 -8 42 -28 62
-45 20 -17 60 -47 88 -66 28 -19 69 -48 90 -65 21 -16 62 -48 91 -70 29 -22
70 -53 91 -70 21 -16 57 -43 79 -60 41 -30 57 -42 210 -165 112 -90 370 -312
455 -390 38 -37 113 -104 165 -150 52 -46 124 -111 159 -144 131 -124 488
-484 561 -565 41 -46 85 -93 96 -105 28 -28 370 -422 409 -470 38 -48 95 -119
139 -171 100 -119 165 -201 201 -251 22 -31 62 -84 88 -117 27 -33 63 -83 82
-111 19 -28 48 -69 64 -91 31 -41 136 -194 203 -294 21 -31 47 -75 58 -97 11
-23 27 -47 36 -55 8 -7 27 -33 40 -58 31 -58 60 -101 102 -152 17 -23 32 -47
32 -54 0 -7 13 -29 30 -50 16 -20 32 -46 36 -58 4 -12 17 -35 29 -52 13 -16
26 -40 30 -53 3 -12 17 -35 30 -50 13 -16 31 -48 41 -73 9 -24 27 -55 39 -69
13 -14 28 -42 35 -62 6 -21 16 -41 22 -44 6 -4 21 -32 35 -62 13 -31 33 -68
42 -82 10 -14 22 -36 26 -50 4 -14 20 -45 35 -70 15 -25 31 -56 35 -70 4 -14
18 -40 32 -58 13 -17 29 -46 35 -64 6 -18 22 -48 35 -67 13 -19 26 -46 29 -60
4 -14 19 -46 34 -71 15 -25 31 -56 35 -70 4 -14 23 -53 41 -88 19 -35 34 -72
34 -81 0 -10 11 -34 25 -54 13 -20 29 -54 35 -76 6 -22 24 -65 40 -96 17 -32
30 -66 30 -76 0 -11 12 -37 26 -59 14 -21 30 -58 35 -82 6 -24 21 -60 34 -80
13 -20 30 -58 36 -85 7 -26 22 -68 34 -93 13 -25 26 -61 30 -80 4 -19 18 -54
31 -77 13 -23 30 -68 37 -100 8 -32 24 -77 36 -100 11 -24 28 -74 36 -113 8
-39 24 -88 35 -109 11 -22 25 -72 31 -113 6 -40 20 -90 30 -110 11 -21 26 -68
35 -104 8 -37 24 -85 36 -107 11 -22 26 -77 33 -123 8 -45 22 -102 33 -126 11
-24 25 -79 32 -123 7 -44 23 -107 36 -140 13 -33 28 -95 34 -139 5 -43 19 -99
31 -125 11 -25 27 -92 35 -148 7 -57 23 -126 34 -155 11 -29 27 -107 35 -173
8 -66 22 -145 30 -175 9 -30 24 -127 35 -215 11 -88 26 -178 33 -200 8 -22 20
-98 26 -170 15 -151 38 -352 51 -445 5 -36 16 -186 25 -334 8 -148 20 -321 27
-385 17 -166 14 -681 -5 -996 -9 -148 -21 -360 -27 -470 -6 -110 -19 -256 -30
-325 -11 -69 -24 -196 -30 -283 -10 -154 -19 -217 -39 -270 -5 -14 -19 -109
-31 -211 -12 -103 -28 -205 -36 -229 -8 -23 -21 -92 -30 -154 -8 -62 -23 -135
-34 -162 -10 -27 -24 -89 -30 -138 -6 -48 -22 -119 -35 -158 -14 -38 -31 -109
-39 -157 -8 -48 -22 -101 -31 -119 -10 -17 -23 -71 -31 -119 -8 -49 -23 -108
-34 -132 -10 -24 -26 -83 -34 -131 -9 -48 -25 -105 -37 -128 -11 -23 -25 -71
-31 -108 -6 -36 -21 -87 -35 -113 -14 -26 -28 -76 -33 -112 -5 -38 -18 -81
-33 -107 -14 -24 -30 -70 -37 -101 -6 -31 -20 -68 -30 -81 -10 -13 -26 -53
-34 -89 -8 -36 -26 -82 -39 -102 -14 -19 -28 -55 -31 -79 -4 -25 -16 -53 -27
-63 -11 -9 -27 -43 -35 -73 -9 -31 -27 -72 -39 -91 -13 -19 -29 -56 -34 -82
-6 -26 -22 -63 -35 -82 -13 -19 -27 -52 -31 -73 -3 -21 -17 -56 -29 -78 -13
-22 -31 -65 -40 -96 -9 -31 -23 -62 -31 -69 -8 -7 -22 -36 -31 -66 -8 -29 -24
-64 -35 -78 -11 -14 -26 -46 -34 -72 -7 -25 -22 -56 -33 -68 -11 -11 -27 -44
-36 -73 -10 -28 -23 -57 -31 -63 -8 -6 -22 -33 -31 -58 -10 -26 -26 -56 -36
-68 -10 -11 -25 -43 -33 -70 -8 -28 -24 -59 -35 -69 -10 -9 -25 -34 -31 -54
-7 -20 -23 -50 -36 -68 -13 -17 -29 -48 -35 -69 -5 -21 -20 -52 -33 -69 -12
-16 -32 -50 -44 -75 -20 -42 -44 -86 -114 -207 -15 -26 -35 -59 -46 -73 -18
-24 -60 -94 -91 -149 -8 -15 -25 -41 -38 -57 -13 -16 -43 -60 -67 -99 -24 -38
-56 -86 -70 -105 -28 -38 -111 -161 -160 -239 -16 -27 -48 -74 -70 -106 -22
-31 -51 -74 -65 -95 -14 -21 -45 -64 -70 -95 -25 -32 -56 -74 -69 -94 -14 -20
-45 -63 -71 -96 -26 -33 -53 -71 -60 -85 -7 -14 -24 -38 -37 -55 -65 -81 -95
-135 -149 -275 -8 -22 -13 -78 -14 -148 0 -105 2 -119 30 -182 17 -38 30 -74
30 -82 0 -16 62 -109 116 -172 42 -50 105 -113 545 -541 90 -87 376 -369 634
-625 259 -256 525 -518 590 -582 110 -107 688 -695 968 -984 72 -75 117 -129
117 -142 0 -13 -34 -53 -92 -109 -51 -48 -304 -299 -563 -558 -258 -259 -497
-495 -530 -524 -33 -30 -133 -126 -222 -214 -149 -145 -165 -159 -191 -154
-21 4 -126 102 -368 341 -394 391 -625 620 -924 920 -118 118 -404 404 -635
634 -231 231 -475 475 -541 543 -305 311 -482 474 -558 516 -29 16 -140 52
-201 65 -71 15 -161 5 -225 -26 -30 -14 -65 -26 -76 -26 -12 0 -38 -13 -59
-30 -20 -16 -46 -32 -58 -36 -12 -4 -39 -22 -60 -40 -20 -19 -43 -34 -50 -34
-8 0 -22 -10 -33 -21 -10 -12 -33 -31 -50 -43 -17 -11 -57 -41 -89 -66 -98
-76 -129 -99 -160 -119 -16 -11 -46 -31 -65 -46 -60 -45 -103 -73 -151 -99
-25 -13 -51 -32 -59 -41 -7 -9 -30 -25 -49 -36 -38 -21 -80 -49 -147 -99 -23
-16 -46 -30 -52 -30 -5 0 -29 -16 -52 -35 -23 -19 -48 -35 -55 -35 -7 0 -32
-16 -55 -35 -23 -19 -50 -35 -60 -35 -10 0 -23 -7 -31 -16 -7 -9 -39 -29 -70
-45 -32 -16 -60 -33 -64 -39 -3 -6 -25 -20 -48 -31 -23 -12 -51 -29 -62 -39
-11 -10 -31 -21 -45 -25 -14 -4 -40 -18 -58 -32 -17 -13 -47 -29 -65 -35 -17
-6 -41 -19 -52 -29 -11 -9 -45 -29 -75 -44 -88 -42 -153 -78 -185 -101 -17
-12 -41 -25 -55 -29 -14 -4 -45 -20 -70 -35 -25 -15 -61 -33 -81 -39 -20 -7
-44 -20 -54 -31 -9 -10 -31 -22 -49 -25 -17 -4 -47 -17 -66 -29 -19 -13 -53
-29 -75 -36 -22 -7 -56 -23 -75 -36 -19 -13 -55 -30 -80 -39 -24 -9 -71 -29
-104 -45 -33 -17 -64 -30 -71 -30 -6 0 -27 -11 -45 -25 -19 -14 -52 -28 -73
-32 -21 -3 -55 -17 -75 -31 -20 -14 -61 -31 -91 -39 -29 -8 -66 -23 -81 -35
-15 -11 -50 -24 -76 -29 -27 -5 -65 -21 -86 -34 -21 -14 -61 -30 -89 -35 -27
-5 -69 -20 -92 -34 -23 -13 -60 -27 -82 -31 -22 -3 -59 -17 -82 -31 -23 -13
-65 -29 -95 -35 -29 -6 -76 -24 -104 -40 -33 -19 -66 -29 -91 -29 -24 0 -60
-10 -88 -26 -26 -14 -82 -32 -124 -41 -42 -8 -92 -24 -112 -34 -20 -10 -74
-24 -120 -33 -46 -8 -106 -24 -132 -36 -27 -12 -78 -26 -113 -31 -36 -5 -82
-18 -104 -29 -21 -11 -80 -27 -129 -35 -50 -9 -117 -25 -148 -36 -32 -11 -103
-27 -158 -35 -55 -8 -124 -24 -153 -34 -28 -11 -105 -26 -170 -34 -64 -8 -135
-22 -156 -31 -22 -9 -96 -23 -165 -31 -69 -8 -180 -26 -246 -39 -66 -13 -178
-29 -250 -35 -71 -6 -162 -17 -203 -25 -85 -16 -241 -30 -527 -45 -110 -6
-258 -18 -330 -26 -90 -9 -245 -14 -505 -13 -206 0 -422 4 -480 9 -142 13
-370 27 -635 40 -121 6 -267 19 -325 29 -58 11 -141 22 -185 26 -232 18 -318
28 -398 46 -49 11 -132 24 -186 29 -53 6 -128 19 -166 30 -37 11 -122 27 -189
36 -72 10 -144 26 -179 40 -37 16 -87 27 -140 31 -49 3 -105 15 -139 28 -31
13 -89 28 -130 35 -40 6 -104 23 -141 36 -38 13 -101 29 -140 35 -40 6 -89 20
-110 31 -21 11 -72 26 -113 34 -41 7 -93 23 -115 35 -22 11 -69 25 -102 31
-34 6 -84 21 -112 33 -27 13 -80 28 -116 33 -36 6 -88 21 -115 35 -27 13 -73
30 -102 36 -30 6 -72 22 -95 35 -23 14 -60 28 -82 31 -22 4 -62 20 -90 35 -27
15 -67 31 -89 34 -21 4 -55 18 -75 31 -20 13 -56 29 -81 35 -25 7 -58 21 -73
32 -16 11 -54 27 -85 35 -31 8 -69 23 -83 34 -15 11 -51 24 -80 29 -30 6 -70
22 -91 36 -20 14 -55 30 -78 35 -23 5 -56 20 -74 33 -17 12 -51 28 -76 35 -25
7 -54 21 -66 32 -11 10 -40 25 -65 32 -24 8 -62 26 -83 40 -21 15 -47 27 -56
27 -9 0 -35 12 -56 26 -21 15 -57 33 -79 41 -21 7 -49 22 -60 33 -11 11 -41
26 -65 35 -24 9 -54 25 -66 36 -12 11 -43 27 -68 34 -26 8 -58 23 -72 34 -14
11 -42 25 -62 32 -20 6 -46 20 -57 30 -11 10 -41 25 -65 34 -25 9 -56 26 -70
39 -14 13 -36 27 -50 31 -14 4 -43 20 -64 36 -22 16 -46 29 -53 29 -7 0 -27
13 -45 29 -18 16 -49 36 -68 45 -41 19 -85 48 -141 94 -23 17 -47 32 -55 32
-7 0 -28 13 -46 29 -18 15 -49 36 -68 46 -19 10 -48 28 -63 41 -16 13 -34 24
-41 24 -6 0 -27 13 -46 30 -19 16 -40 29 -46 30 -6 0 -33 16 -60 35 -27 19
-54 35 -61 35 -7 0 -27 13 -45 28 -18 15 -51 40 -73 54 -22 15 -58 41 -80 57
-22 17 -58 43 -80 57 -22 15 -44 33 -48 41 -4 7 -27 23 -50 34 -23 12 -58 34
-77 50 -19 16 -46 37 -60 48 -14 11 -46 37 -71 58 -26 21 -70 56 -99 78 -63
48 -123 96 -170 136 -143 121 -189 158 -210 169 -14 7 -36 23 -50 35 -14 13
-43 38 -64 57 -94 81 -291 262 -431 397 -55 53 -158 153 -230 221 -111 108
-300 303 -505 525 -30 32 -67 71 -81 85 -15 14 -62 66 -104 115 -43 50 -88
101 -101 115 -29 32 -89 106 -134 166 -19 25 -48 61 -65 79 -62 68 -81 89
-100 115 -11 15 -40 53 -65 85 -25 32 -54 70 -65 85 -63 86 -195 263 -240 321
-67 86 -124 167 -152 213 -10 16 -29 43 -43 60 -14 17 -33 47 -43 66 -17 35
-43 74 -92 140 -48 64 -74 105 -99 152 -14 26 -31 50 -37 54 -6 3 -22 30 -35
59 -12 29 -28 56 -35 60 -6 4 -22 31 -35 60 -12 29 -28 56 -34 60 -6 3 -21 28
-34 54 -14 26 -31 53 -40 60 -8 7 -18 25 -21 41 -4 16 -19 45 -35 65 -16 20
-32 50 -35 68 -4 18 -17 43 -29 57 -13 14 -29 41 -36 60 -8 19 -24 49 -37 66
-13 17 -23 35 -23 41 0 6 -15 30 -33 54 -19 24 -39 60 -46 79 -6 19 -20 43
-30 55 -11 11 -24 39 -30 61 -6 23 -20 53 -32 67 -11 15 -27 48 -36 74 -9 27
-27 64 -39 83 -13 19 -26 49 -30 65 -4 17 -18 45 -31 63 -14 19 -31 55 -38 80
-6 26 -23 64 -37 84 -14 20 -28 54 -31 76 -4 21 -18 51 -31 65 -14 15 -28 44
-32 65 -3 20 -16 53 -28 72 -13 19 -29 53 -36 75 -7 22 -23 58 -36 81 -12 22
-28 63 -35 90 -6 27 -22 67 -34 89 -13 22 -27 58 -30 80 -4 22 -20 65 -36 95
-15 30 -31 75 -35 100 -4 25 -20 72 -36 105 -15 33 -28 71 -28 85 0 14 -13 53
-29 86 -16 34 -35 88 -41 120 -7 33 -21 76 -31 97 -11 20 -27 72 -35 114 -9
42 -25 93 -35 113 -11 20 -26 70 -34 111 -7 41 -24 96 -36 123 -12 27 -26 83
-31 124 -5 41 -18 92 -28 112 -11 21 -26 77 -34 123 -9 47 -25 113 -36 148
-12 34 -26 98 -31 143 -6 45 -22 115 -35 157 -13 42 -31 137 -39 210 -8 74
-23 162 -34 196 -11 34 -25 111 -31 170 -11 121 -25 209 -45 298 -8 33 -19
139 -25 235 -10 174 -22 285 -39 390 -12 66 -27 324 -46 780 -14 351 -12 461
20 1165 16 340 19 385 48 610 9 66 20 185 26 265 6 80 19 186 30 235 11 50 23
119 26 155 10 102 35 272 45 303 5 15 17 82 26 149 9 67 25 147 36 177 10 31
23 92 28 136 4 44 22 121 38 170 16 50 32 116 36 148 3 32 17 84 30 115 13 31
27 80 31 107 3 28 18 76 31 107 14 32 31 93 39 137 7 44 22 97 33 118 11 21
27 72 37 113 10 41 26 95 36 120 10 25 23 79 29 120 6 41 20 90 31 109 11 18
27 63 35 100 9 36 25 81 36 100 12 18 25 54 30 79 4 26 19 67 32 92 13 26 29
66 36 91 6 24 22 62 35 84 12 22 28 60 35 85 6 25 22 61 35 81 13 20 27 54 30
75 4 22 18 55 30 75 13 20 29 56 35 79 6 23 22 59 35 79 13 20 27 50 31 66 3
17 19 50 35 75 15 25 31 59 35 75 4 17 17 48 30 71 13 22 30 61 38 87 7 25 23
58 33 74 11 15 26 46 33 68 7 22 21 49 30 60 10 11 30 45 44 75 15 30 33 66
41 80 8 14 22 41 32 62 39 78 83 157 92 162 5 4 15 23 22 44 7 20 27 59 46 86
18 26 33 56 33 66 0 9 13 34 29 54 16 20 32 50 36 65 3 16 17 39 31 52 13 12
29 39 34 60 6 20 24 53 40 74 17 21 30 44 30 51 0 7 11 25 24 41 13 15 31 44
41 63 9 19 26 45 37 56 11 12 27 35 36 52 23 41 94 146 102 152 4 3 14 19 23
35 22 44 84 137 106 160 11 11 26 36 35 55 9 19 36 62 61 95 58 77 90 121 120
165 34 50 74 104 115 155 19 24 49 63 65 85 17 22 46 60 65 84 19 24 53 67 75
96 22 29 47 60 55 69 9 9 38 45 65 80 55 70 234 280 448 526 77 88 284 303
461 479 265 263 535 510 824 754 24 21 56 48 71 62 15 14 52 43 81 65 29 22
85 67 124 100 39 33 82 68 96 78 14 10 41 30 61 45 19 15 55 42 80 60 43 33
69 53 155 122 24 19 66 51 94 70 29 19 70 50 92 68 22 17 46 32 52 32 7 0 21
9 32 21 10 12 32 28 49 36 16 9 45 29 63 44 18 16 39 29 46 29 7 0 21 9 32 21
10 12 32 28 49 36 16 9 39 23 50 33 11 10 39 29 62 42 23 13 74 46 115 73 40
28 87 57 105 64 18 7 38 20 45 28 7 8 35 25 64 38 28 12 55 28 59 34 4 7 30
23 58 37 61 30 151 80 198 111 19 13 40 23 47 23 7 0 28 11 46 25 18 14 48 30
67 37 19 6 47 22 62 34 15 13 43 28 62 33 20 5 49 21 66 35 17 14 43 29 57 33
15 3 39 16 54 29 15 12 50 30 78 39 27 9 52 21 55 26 3 5 63 36 133 71 70 34
138 69 151 79 12 10 39 21 60 25 20 4 50 17 67 29 16 13 53 30 80 38 27 8 65
24 84 36 19 12 52 26 74 32 21 6 55 21 75 34 20 13 55 29 79 35 23 6 57 19 75
30 17 10 55 25 84 33 29 9 71 27 95 40 24 14 65 27 91 31 27 3 62 16 79 28 17
11 58 29 92 39 33 9 88 29 121 43 33 14 70 26 83 26 12 0 45 11 73 25 27 14
76 31 107 36 31 6 77 21 102 34 25 12 76 28 114 34 38 7 87 21 108 32 22 11
74 27 115 35 41 8 95 23 119 33 23 11 68 25 98 31 31 6 91 24 134 40 42 15 97
31 122 35 25 4 76 18 113 31 37 13 100 27 140 30 40 4 115 19 167 35 52 15
134 32 181 38 47 5 109 19 138 31 31 12 98 25 160 31 58 5 151 21 206 35 54
14 153 30 220 35 124 10 184 18 320 43 44 8 161 19 260 25 99 7 245 21 325 32
85 11 249 23 395 28 362 12 981 12 1271 1z m14541 -24247 c11 -10 62 -67 114
-128 52 -60 449 -463 883 -895 434 -432 1107 -1103 1495 -1491 388 -388 868
-865 1066 -1061 198 -195 514 -510 702 -699 189 -189 628 -627 977 -973 350
-346 814 -809 1033 -1029 219 -219 467 -467 552 -550 252 -249 822 -820 1366
-1368 281 -283 581 -581 668 -664 107 -102 157 -157 157 -171 0 -14 -57 -80
-167 -194 -93 -95 -256 -263 -363 -373 -228 -235 -1313 -1326 -1628 -1637
-119 -118 -359 -358 -532 -534 -173 -175 -503 -507 -732 -738 -369 -372 -419
-419 -440 -413 -23 8 -117 99 -443 436 -99 102 -229 231 -290 287 -60 55 -265
257 -455 448 -190 191 -444 444 -565 563 -121 119 -346 344 -500 501 -154 157
-365 368 -469 470 -244 239 -789 783 -981 979 -82 84 -226 225 -319 314 -93
89 -237 232 -320 317 -203 207 -529 534 -881 881 -160 157 -432 429 -605 605
-173 176 -414 417 -535 535 -121 118 -362 358 -536 534 -174 176 -444 446
-600 600 -156 154 -382 379 -501 500 -119 121 -393 396 -608 610 -215 215
-407 407 -426 427 -18 20 -34 44 -34 53 0 8 9 23 21 33 64 53 675 658 1214
1202 121 122 492 490 825 818 623 615 1050 1041 1366 1363 100 101 232 234
295 296 63 61 124 123 136 137 12 14 26 26 31 26 5 0 19 -8 29 -17z"/>
    <path d="M14540 36780 c-322 -13 -822 -40 -900 -50 -42 -5 -87 -13 -100 -18
-24 -9 -99 -19 -335 -43 -60 -6 -135 -19 -165 -29 -30 -10 -106 -23 -169 -30
-62 -7 -139 -21 -170 -31 -31 -11 -99 -27 -151 -35 -52 -8 -115 -24 -139 -35
-25 -11 -90 -26 -145 -34 -56 -9 -132 -26 -171 -40 -38 -13 -81 -25 -95 -25
-14 0 -63 -14 -110 -30 -47 -17 -114 -35 -149 -41 -34 -5 -84 -20 -110 -33
-25 -13 -66 -27 -91 -31 -25 -4 -70 -18 -100 -31 -30 -13 -77 -28 -105 -34
-27 -6 -69 -22 -92 -36 -23 -13 -66 -29 -95 -34 -29 -6 -68 -21 -88 -34 -19
-13 -60 -29 -90 -35 -30 -7 -64 -21 -76 -32 -12 -11 -45 -26 -73 -34 -29 -7
-64 -21 -78 -30 -14 -9 -49 -25 -79 -35 -30 -11 -67 -28 -82 -39 -15 -10 -47
-24 -72 -31 -25 -6 -62 -23 -82 -37 -20 -14 -56 -29 -80 -34 -23 -6 -50 -17
-59 -25 -9 -8 -41 -24 -70 -35 -30 -11 -63 -29 -74 -39 -11 -10 -40 -24 -65
-30 -25 -6 -56 -22 -70 -35 -14 -13 -43 -28 -66 -34 -22 -6 -49 -20 -59 -31
-10 -11 -36 -25 -59 -31 -22 -6 -53 -21 -68 -34 -15 -13 -44 -29 -65 -35 -21
-7 -47 -21 -58 -31 -11 -10 -38 -25 -60 -34 -21 -9 -53 -28 -70 -41 -18 -13
-36 -24 -42 -24 -5 0 -29 -13 -54 -28 -57 -37 -134 -83 -168 -101 -14 -7 -37
-24 -51 -37 -14 -12 -41 -30 -61 -38 -19 -8 -42 -22 -49 -31 -8 -9 -34 -28
-59 -41 -62 -33 -152 -96 -225 -156 -18 -15 -54 -36 -79 -47 -26 -11 -47 -25
-47 -30 0 -6 -14 -18 -31 -26 -17 -9 -50 -31 -73 -48 -24 -18 -62 -45 -85 -62
-24 -16 -62 -46 -86 -65 -24 -19 -65 -51 -91 -70 -26 -19 -79 -62 -118 -95
-39 -33 -87 -72 -106 -87 -19 -14 -53 -43 -75 -64 -22 -22 -50 -46 -61 -54
-43 -30 -450 -389 -490 -431 -22 -24 -107 -109 -189 -189 -81 -80 -184 -185
-228 -235 -44 -49 -85 -94 -91 -100 -14 -11 -173 -194 -283 -325 -21 -25 -57
-64 -79 -86 -37 -37 -60 -65 -154 -188 -14 -18 -45 -59 -70 -91 -25 -31 -52
-68 -61 -82 -9 -13 -25 -33 -35 -43 -11 -11 -34 -41 -52 -67 -18 -26 -43 -64
-57 -83 -14 -19 -33 -48 -42 -64 -10 -15 -31 -45 -48 -66 -16 -21 -38 -51 -47
-66 -10 -16 -30 -47 -45 -70 -16 -22 -42 -63 -60 -90 -18 -27 -43 -64 -57 -83
-14 -19 -26 -40 -26 -46 0 -7 -16 -32 -35 -56 -19 -24 -35 -49 -35 -56 0 -7
-13 -27 -28 -45 -16 -18 -34 -48 -40 -65 -6 -18 -22 -48 -36 -66 -15 -19 -26
-38 -26 -43 0 -5 -16 -31 -35 -58 -19 -27 -35 -55 -35 -61 0 -7 -19 -41 -42
-76 -78 -120 -86 -134 -97 -170 -7 -20 -20 -44 -30 -54 -11 -9 -25 -31 -32
-48 -7 -18 -26 -52 -41 -76 -15 -25 -28 -52 -28 -60 0 -9 -14 -36 -30 -61 -16
-25 -35 -61 -41 -80 -7 -19 -22 -48 -34 -65 -13 -16 -26 -46 -30 -65 -4 -19
-18 -54 -31 -78 -14 -23 -31 -60 -39 -83 -8 -22 -23 -52 -34 -67 -10 -15 -24
-47 -31 -72 -6 -25 -22 -61 -35 -80 -13 -19 -26 -51 -30 -70 -4 -19 -18 -53
-31 -76 -13 -23 -31 -65 -40 -95 -9 -30 -24 -68 -34 -85 -10 -17 -23 -56 -29
-85 -7 -30 -22 -70 -35 -89 -12 -19 -28 -61 -34 -94 -7 -32 -21 -73 -32 -90
-11 -18 -27 -66 -35 -107 -9 -41 -25 -92 -35 -115 -11 -22 -25 -67 -32 -100
-6 -32 -21 -82 -33 -110 -13 -28 -28 -85 -35 -125 -7 -41 -21 -92 -32 -113
-11 -22 -27 -79 -34 -128 -8 -49 -24 -112 -35 -140 -11 -28 -24 -87 -30 -131
-5 -44 -21 -105 -34 -136 -13 -33 -28 -96 -34 -151 -6 -52 -20 -126 -31 -165
-12 -38 -27 -128 -35 -200 -8 -71 -24 -169 -35 -217 -12 -53 -24 -154 -30
-265 -12 -219 -17 -276 -36 -378 -27 -144 -36 -468 -31 -1020 4 -417 9 -551
22 -630 20 -129 32 -247 45 -470 6 -103 19 -218 30 -269 11 -49 27 -146 35
-215 8 -69 21 -151 30 -181 8 -30 22 -100 30 -155 8 -55 26 -131 40 -170 13
-38 29 -109 34 -157 6 -49 19 -104 30 -126 11 -21 26 -77 35 -123 8 -46 24
-106 36 -132 12 -27 26 -78 32 -115 6 -37 17 -79 24 -94 8 -15 24 -67 35 -115
11 -48 29 -104 40 -125 11 -21 26 -71 33 -112 8 -41 26 -96 39 -123 14 -27 28
-71 32 -98 4 -28 18 -68 30 -90 13 -22 29 -60 35 -85 6 -25 20 -60 30 -77 11
-18 26 -56 34 -84 9 -28 24 -65 35 -82 10 -18 24 -52 31 -77 6 -25 24 -65 40
-90 15 -25 30 -61 34 -80 3 -19 17 -50 30 -70 14 -19 30 -55 36 -80 7 -25 20
-54 30 -65 10 -11 24 -40 31 -65 7 -25 22 -58 34 -75 12 -16 28 -48 35 -70 7
-22 21 -49 31 -60 10 -11 25 -39 32 -60 8 -22 29 -62 46 -90 17 -27 31 -54 31
-61 0 -7 11 -26 25 -42 14 -17 32 -49 40 -73 9 -24 23 -52 33 -62 20 -22 62
-93 92 -155 25 -51 73 -132 112 -189 15 -23 28 -45 28 -49 0 -10 76 -138 106
-179 12 -16 29 -46 38 -65 16 -34 38 -69 91 -140 14 -19 36 -49 48 -67 12 -17
42 -60 67 -95 25 -34 54 -77 65 -94 32 -50 92 -135 130 -184 20 -25 43 -58 53
-74 15 -26 48 -68 112 -146 12 -14 41 -52 65 -85 76 -104 126 -165 204 -250
15 -16 90 -102 167 -190 76 -88 175 -198 218 -245 124 -133 601 -602 678 -667
39 -32 136 -114 216 -183 139 -118 252 -211 356 -290 26 -19 81 -62 124 -96
42 -34 95 -70 118 -82 22 -11 46 -28 53 -36 17 -20 128 -96 140 -96 5 0 27
-15 49 -32 39 -32 61 -47 147 -98 24 -14 69 -48 102 -77 33 -28 77 -59 99 -68
21 -9 48 -25 59 -35 11 -10 37 -26 57 -34 20 -9 40 -21 44 -27 3 -6 27 -20 53
-31 25 -11 55 -29 67 -39 22 -21 76 -52 161 -93 28 -14 54 -30 58 -37 4 -6 28
-20 54 -31 25 -11 60 -30 76 -43 17 -12 45 -27 63 -33 19 -6 47 -23 64 -37 16
-14 37 -25 47 -25 9 0 41 -16 71 -35 30 -19 62 -35 71 -35 9 0 33 -13 54 -30
21 -16 44 -30 51 -30 7 0 41 -15 76 -34 35 -18 77 -36 94 -40 18 -4 47 -18 65
-32 18 -13 52 -29 74 -35 22 -6 57 -21 77 -34 20 -13 49 -27 65 -31 15 -3 51
-19 78 -34 28 -15 73 -32 100 -39 28 -7 64 -21 80 -31 17 -10 53 -24 80 -30
28 -7 68 -23 90 -35 22 -12 58 -28 80 -35 22 -7 54 -21 72 -32 17 -10 63 -25
101 -33 38 -8 93 -26 123 -39 30 -13 74 -27 99 -31 25 -4 67 -18 94 -32 26
-13 75 -29 108 -34 34 -6 86 -20 117 -33 31 -13 87 -29 124 -35 38 -7 92 -21
120 -32 29 -12 91 -27 138 -35 48 -8 107 -23 131 -34 24 -10 82 -24 129 -30
47 -5 119 -21 160 -35 40 -14 114 -30 164 -36 49 -5 120 -19 157 -30 37 -11
138 -26 224 -35 87 -8 192 -24 233 -35 49 -13 150 -25 286 -35 116 -8 242 -19
280 -24 199 -29 354 -35 885 -35 540 0 661 5 825 35 28 5 153 17 279 25 126 9
240 21 255 27 35 13 177 35 281 43 47 3 125 17 174 31 48 14 127 30 175 35 47
6 115 19 151 31 36 11 107 26 159 34 51 8 114 23 140 33 25 11 90 27 145 36
54 9 115 24 135 34 20 10 73 26 117 34 45 9 99 24 121 35 21 11 68 26 104 32
35 6 80 21 99 32 19 11 66 27 105 35 38 8 83 22 100 33 16 10 54 23 82 29 29
6 78 24 109 41 31 16 67 30 79 30 12 0 46 13 76 29 30 15 70 32 89 36 19 4 58
20 85 35 28 15 71 33 97 40 26 7 53 19 59 26 6 8 36 21 66 30 30 9 79 29 110
45 30 16 63 29 73 29 9 0 35 12 56 27 21 14 58 32 82 39 24 7 54 22 68 33 14
11 49 27 78 35 30 9 59 22 65 30 7 8 36 23 64 32 29 9 66 28 83 41 17 12 35
23 40 23 6 0 32 14 60 31 27 18 63 36 79 42 17 5 48 23 69 38 22 16 48 29 57
29 10 0 31 11 47 25 17 14 47 32 67 41 20 8 55 28 77 44 23 17 47 30 54 30 7
0 28 12 46 28 18 15 49 35 68 45 19 10 49 27 66 40 34 23 81 53 123 76 15 8
41 27 59 43 18 15 39 28 47 28 8 0 29 13 47 29 18 15 44 34 57 41 22 11 60 38
151 106 19 14 49 34 65 45 17 10 50 35 75 54 25 19 63 47 85 62 22 14 45 31
50 38 12 14 72 60 130 100 24 17 72 54 107 83 106 88 213 175 268 217 55 42
194 158 245 205 121 112 285 270 431 415 163 163 221 224 328 345 27 30 91
100 142 155 89 96 174 196 259 304 22 28 67 84 100 125 83 101 175 221 205
265 30 46 86 126 141 201 81 114 90 126 114 160 13 19 32 46 43 60 11 14 26
39 35 55 8 17 27 41 41 54 14 14 26 30 26 37 0 7 16 33 35 58 19 26 35 50 35
55 0 4 11 20 25 35 14 15 38 50 53 77 15 28 37 69 49 91 12 22 29 48 36 57 8
9 25 36 37 61 13 25 33 58 46 73 13 16 24 37 24 46 0 10 13 36 29 58 15 21 38
59 50 84 43 85 76 145 97 174 12 17 27 47 33 67 7 20 18 42 26 48 8 7 24 37
35 68 12 32 28 64 35 72 8 9 21 34 28 56 8 22 26 57 41 78 14 21 26 47 26 56
0 9 14 43 31 75 17 32 37 80 45 105 8 26 23 58 33 72 11 13 22 42 26 64 4 21
18 55 30 74 13 19 29 55 36 80 7 25 25 68 40 95 15 28 30 66 34 85 4 19 17 54
30 77 13 23 31 66 41 95 9 29 24 63 32 76 8 12 21 52 28 89 8 36 24 82 36 101
11 18 26 62 33 95 7 34 25 89 39 122 14 33 26 74 26 90 0 17 14 68 30 115 16
47 34 111 40 142 6 31 22 81 35 111 16 34 28 86 34 143 6 49 19 116 30 148 12
33 28 102 36 155 8 53 23 119 33 146 11 28 25 97 32 155 7 58 21 134 32 170
10 36 25 130 34 209 8 79 22 169 30 200 18 72 31 178 44 376 6 88 15 189 20
225 29 192 32 263 32 745 1 412 -2 539 -16 660 -9 83 -19 164 -21 180 -3 17
-12 128 -20 249 -9 132 -24 266 -39 340 -13 66 -27 161 -31 210 -4 49 -18 134
-31 189 -13 54 -29 142 -34 195 -6 54 -19 126 -29 162 -20 68 -35 142 -46 223
-4 27 -15 70 -26 95 -11 25 -25 82 -31 126 -6 45 -21 110 -35 146 -13 35 -28
97 -34 137 -5 40 -19 93 -30 118 -11 25 -26 79 -34 120 -8 41 -24 94 -36 116
-11 23 -27 73 -35 111 -8 39 -23 87 -34 107 -10 20 -22 55 -26 76 -9 48 -30
101 -44 110 -5 3 -17 32 -26 63 -9 31 -24 72 -35 90 -10 18 -26 60 -35 94 -8
34 -24 74 -34 89 -11 14 -24 48 -30 75 -6 27 -22 68 -36 92 -14 24 -32 65 -40
91 -8 27 -21 54 -29 61 -8 7 -23 38 -31 69 -9 31 -25 67 -35 80 -11 13 -25 45
-33 70 -7 26 -25 63 -39 84 -14 21 -29 52 -33 70 -3 17 -17 45 -29 62 -13 16
-30 48 -39 70 -10 22 -25 49 -35 60 -10 11 -24 38 -31 60 -7 22 -23 52 -36 67
-12 15 -28 44 -34 65 -7 21 -20 47 -30 58 -10 11 -27 40 -39 65 -12 25 -40 77
-62 115 -71 120 -97 168 -125 225 -15 30 -34 63 -43 73 -19 23 -63 96 -91 154
-11 23 -27 46 -35 50 -14 8 -94 115 -130 174 -50 81 -63 100 -82 121 -11 13
-26 40 -33 61 -6 20 -20 42 -31 47 -10 6 -28 27 -39 48 -33 59 -95 147 -165
232 -22 27 -56 70 -75 95 -57 76 -97 128 -129 165 -94 109 -220 260 -242 291
-25 32 -85 98 -264 287 -109 116 -535 533 -632 619 -32 28 -92 81 -133 118
-41 37 -91 79 -110 93 -19 15 -47 38 -62 52 -15 14 -46 41 -68 60 -22 19 -51
46 -64 58 -14 13 -44 37 -68 53 -75 51 -113 79 -123 93 -6 7 -24 22 -41 32
-16 11 -39 27 -49 37 -39 35 -113 92 -141 109 -16 10 -49 34 -74 53 -25 19
-58 43 -74 53 -15 9 -46 32 -68 50 -22 17 -44 32 -48 32 -4 0 -27 16 -50 35
-23 19 -48 35 -56 35 -7 0 -28 13 -47 29 -18 16 -45 33 -59 36 -14 4 -36 18
-49 31 -12 13 -39 29 -60 34 -20 6 -53 24 -74 40 -21 17 -44 30 -51 30 -7 0
-26 11 -42 25 -16 13 -49 33 -73 44 -24 10 -53 28 -63 40 -11 11 -27 21 -37
21 -9 0 -36 16 -59 35 -23 19 -48 35 -55 35 -7 0 -27 11 -43 25 -16 13 -50 33
-75 44 -25 11 -49 26 -54 34 -4 8 -33 27 -63 42 -93 45 -177 89 -192 102 -7 6
-32 16 -55 22 -23 6 -55 23 -72 36 -17 15 -48 28 -76 32 -25 3 -63 17 -83 31
-20 14 -55 31 -77 37 -23 7 -58 25 -79 39 -21 14 -48 26 -60 26 -12 0 -45 15
-74 34 -29 19 -69 37 -89 41 -19 3 -52 17 -72 30 -20 13 -53 27 -74 31 -21 3
-53 17 -72 30 -19 13 -59 30 -89 38 -30 7 -67 23 -83 34 -15 11 -62 27 -103
36 -41 10 -88 26 -105 36 -17 10 -57 23 -90 29 -33 5 -80 20 -105 34 -25 14
-67 28 -95 32 -27 3 -71 17 -97 30 -25 13 -73 29 -105 34 -32 5 -80 19 -107
31 -27 12 -84 28 -128 36 -44 8 -101 23 -126 34 -25 12 -87 28 -137 36 -49 8
-124 26 -165 38 -41 13 -104 27 -139 30 -36 4 -87 16 -115 27 -28 11 -114 28
-191 39 -77 10 -160 26 -185 35 -25 9 -121 24 -215 35 -93 10 -226 27 -295 39
-88 14 -270 28 -615 46 -494 25 -628 27 -965 15z m945 -1229 c193 -24 270 -31
420 -41 157 -10 288 -29 336 -49 13 -5 79 -15 147 -21 67 -6 146 -18 175 -26
76 -21 197 -43 239 -44 21 0 79 -13 130 -29 51 -16 116 -32 143 -36 28 -4 81
-17 118 -30 37 -13 102 -29 144 -35 41 -5 96 -19 121 -30 26 -12 85 -29 132
-39 47 -11 104 -28 126 -39 21 -12 68 -26 103 -32 36 -6 81 -20 102 -30 20
-11 58 -24 85 -31 27 -6 68 -22 91 -35 23 -13 65 -29 93 -35 29 -6 77 -24 107
-40 30 -16 62 -29 72 -29 9 0 47 -16 85 -35 39 -19 77 -35 86 -35 9 0 31 -11
50 -25 18 -13 57 -31 85 -40 29 -8 58 -22 65 -30 7 -8 38 -23 69 -31 31 -9 66
-25 79 -35 13 -10 40 -23 60 -30 20 -6 57 -24 82 -39 25 -15 58 -31 75 -35 16
-3 47 -20 69 -36 22 -16 47 -29 55 -29 9 0 41 -16 71 -35 30 -19 62 -35 71
-35 9 0 29 -10 44 -22 33 -27 121 -78 184 -108 24 -11 57 -32 73 -45 16 -14
34 -25 39 -25 5 0 32 -16 60 -35 28 -19 56 -35 63 -35 6 0 31 -16 55 -35 24
-19 48 -35 53 -35 9 0 92 -53 138 -88 14 -11 43 -28 65 -40 22 -11 49 -29 59
-41 11 -12 25 -21 32 -21 7 0 34 -18 61 -40 86 -70 108 -87 133 -100 14 -7 40
-25 57 -39 33 -27 84 -66 163 -126 25 -19 64 -49 88 -67 23 -18 165 -139 314
-268 160 -138 375 -336 519 -480 234 -234 406 -415 439 -464 16 -24 73 -94
230 -281 123 -147 151 -182 179 -227 12 -21 26 -38 31 -38 4 0 18 -15 29 -32
12 -18 41 -60 66 -93 24 -33 52 -73 61 -90 9 -16 29 -44 43 -62 14 -17 44 -61
66 -97 22 -37 55 -85 73 -107 17 -23 32 -47 32 -54 0 -7 10 -25 23 -41 12 -15
33 -49 47 -75 55 -106 83 -153 97 -167 8 -8 25 -39 38 -67 12 -29 28 -55 34
-59 6 -4 20 -26 31 -49 11 -23 38 -73 60 -112 21 -38 52 -98 69 -131 16 -34
34 -64 39 -68 6 -3 18 -28 27 -55 9 -27 22 -55 30 -61 8 -7 24 -37 35 -67 11
-31 29 -67 40 -80 10 -13 22 -38 25 -56 4 -18 20 -54 35 -82 15 -27 31 -63 34
-80 4 -16 19 -47 32 -69 14 -21 32 -60 40 -87 8 -27 26 -66 39 -86 14 -20 25
-46 25 -58 0 -12 13 -46 29 -76 15 -30 34 -78 40 -108 6 -29 20 -65 30 -80 11
-15 27 -56 36 -91 9 -35 26 -81 36 -103 11 -21 25 -66 30 -99 5 -33 20 -81 33
-107 13 -25 29 -72 36 -104 6 -32 22 -82 35 -110 13 -29 29 -82 34 -118 6 -37
20 -87 31 -112 11 -25 27 -90 34 -144 8 -54 24 -120 35 -147 12 -27 26 -89 31
-141 5 -51 21 -124 34 -161 16 -44 29 -111 36 -184 6 -63 20 -144 31 -180 11
-36 24 -112 30 -170 5 -58 21 -184 35 -280 18 -123 30 -268 39 -485 8 -170 17
-348 20 -395 8 -97 -20 -875 -36 -1025 -6 -55 -17 -131 -25 -170 -7 -38 -20
-146 -29 -240 -8 -93 -24 -204 -35 -245 -11 -41 -24 -121 -29 -176 -9 -85 -41
-240 -56 -264 -2 -4 -9 -45 -15 -92 -5 -47 -21 -117 -35 -157 -13 -40 -27
-100 -31 -134 -3 -34 -17 -90 -31 -124 -13 -34 -28 -87 -33 -118 -12 -71 -17
-90 -41 -141 -10 -22 -24 -67 -30 -99 -6 -33 -19 -76 -30 -97 -11 -21 -26 -68
-35 -105 -8 -36 -26 -85 -39 -107 -13 -23 -26 -57 -30 -76 -4 -19 -20 -58 -36
-86 -16 -28 -29 -60 -29 -70 0 -11 -16 -50 -35 -88 -19 -39 -35 -82 -35 -97 0
-14 -12 -44 -26 -65 -15 -21 -33 -60 -39 -86 -7 -26 -22 -59 -34 -73 -11 -15
-27 -50 -35 -79 -9 -30 -23 -59 -31 -66 -8 -7 -22 -38 -31 -69 -9 -31 -29 -76
-45 -100 -16 -25 -29 -52 -29 -61 0 -10 -12 -35 -26 -56 -15 -21 -33 -56 -41
-78 -7 -22 -20 -47 -27 -56 -8 -8 -26 -40 -41 -70 -14 -30 -44 -86 -65 -125
-21 -38 -49 -93 -63 -121 -14 -28 -30 -55 -37 -59 -6 -4 -20 -28 -31 -52 -11
-25 -31 -59 -44 -75 -14 -16 -25 -36 -25 -43 0 -7 -11 -27 -25 -43 -13 -16
-33 -49 -44 -73 -10 -24 -28 -53 -40 -63 -11 -11 -21 -24 -21 -31 0 -7 -15
-32 -32 -56 -18 -24 -40 -54 -48 -66 -8 -12 -36 -48 -62 -81 -26 -34 -54 -76
-64 -94 -9 -18 -29 -47 -43 -65 -50 -62 -76 -97 -96 -129 -17 -28 -85 -118
-205 -272 -19 -25 -44 -57 -55 -73 -11 -15 -65 -80 -120 -145 -55 -64 -140
-165 -190 -223 -77 -91 -372 -391 -589 -599 -36 -35 -160 -145 -276 -245 -190
-165 -267 -229 -408 -339 -26 -21 -60 -48 -77 -61 -16 -13 -45 -32 -62 -42
-18 -11 -33 -23 -33 -27 0 -4 -15 -15 -32 -24 -18 -9 -49 -31 -69 -48 -20 -17
-49 -39 -65 -48 -16 -10 -49 -33 -74 -53 -25 -19 -58 -44 -75 -54 -16 -11 -46
-31 -65 -46 -59 -44 -103 -73 -145 -96 -22 -12 -50 -30 -61 -41 -12 -11 -35
-27 -51 -36 -48 -27 -93 -56 -127 -79 -17 -12 -53 -33 -81 -46 -27 -13 -56
-31 -63 -40 -8 -9 -30 -21 -50 -28 -20 -7 -49 -22 -64 -35 -15 -12 -44 -28
-65 -34 -21 -7 -47 -21 -58 -30 -11 -10 -45 -29 -76 -43 -31 -14 -59 -29 -63
-35 -3 -6 -23 -16 -44 -22 -20 -7 -57 -25 -82 -40 -25 -15 -62 -33 -82 -39
-20 -7 -42 -19 -49 -27 -6 -8 -37 -21 -68 -30 -31 -9 -69 -26 -84 -36 -16 -11
-47 -26 -71 -33 -23 -7 -59 -25 -80 -39 -21 -14 -47 -26 -56 -26 -10 0 -44
-13 -75 -30 -31 -16 -81 -36 -110 -44 -30 -7 -67 -23 -83 -35 -16 -11 -51 -25
-77 -31 -26 -6 -60 -20 -75 -30 -15 -11 -55 -26 -89 -34 -33 -8 -76 -23 -94
-35 -19 -11 -63 -27 -99 -34 -36 -8 -82 -24 -101 -36 -19 -12 -61 -26 -93 -32
-33 -6 -73 -19 -91 -30 -17 -11 -68 -26 -112 -34 -44 -8 -94 -21 -112 -31 -18
-9 -82 -24 -143 -34 -61 -10 -134 -27 -161 -38 -28 -11 -88 -25 -135 -32 -47
-6 -125 -23 -175 -36 -49 -13 -137 -28 -195 -34 -58 -6 -125 -17 -150 -25 -67
-21 -144 -33 -250 -40 -106 -7 -187 -18 -305 -40 -96 -19 -634 -44 -930 -45
-294 0 -900 26 -1025 45 -58 8 -111 18 -118 20 -8 3 -78 10 -155 15 -83 6
-185 21 -246 35 -58 14 -150 30 -205 36 -56 6 -144 21 -196 34 -52 13 -132 28
-177 34 -45 6 -108 21 -140 35 -32 13 -89 27 -128 31 -38 4 -101 17 -140 30
-38 13 -90 29 -115 35 -25 6 -79 24 -120 39 -41 16 -97 32 -125 36 -27 4 -68
16 -90 28 -22 11 -68 26 -103 33 -34 8 -83 24 -110 37 -26 14 -65 27 -87 31
-22 4 -57 18 -77 32 -20 13 -59 29 -85 34 -26 6 -67 22 -89 35 -23 13 -62 29
-88 35 -26 6 -64 21 -84 35 -20 13 -50 27 -67 31 -16 4 -58 22 -93 41 -35 18
-71 33 -81 33 -9 0 -32 11 -51 24 -19 13 -60 31 -91 40 -31 8 -62 23 -69 31
-7 8 -36 22 -65 30 -29 9 -60 24 -70 35 -10 11 -39 26 -65 35 -27 9 -54 22
-60 30 -6 8 -33 22 -58 31 -26 10 -62 30 -80 46 -18 15 -41 28 -51 28 -10 0
-36 12 -57 26 -21 15 -57 35 -79 46 -22 10 -54 28 -71 41 -40 28 -87 56 -134
82 -21 11 -46 28 -57 37 -10 10 -36 25 -58 34 -21 8 -53 27 -70 40 -18 13 -39
24 -48 24 -10 0 -34 15 -54 34 -21 18 -49 39 -63 46 -29 15 -65 41 -118 86
-20 17 -51 38 -67 47 -17 8 -39 24 -49 36 -11 12 -25 21 -32 21 -7 0 -33 17
-58 38 -25 20 -64 51 -86 67 -90 66 -209 162 -368 295 -45 39 -86 70 -91 70
-22 0 -416 358 -525 477 -12 13 -77 80 -146 150 -69 71 -159 166 -200 213 -42
47 -89 99 -105 115 -35 37 -153 171 -210 240 -22 27 -50 58 -61 69 -29 28
-151 174 -191 228 -17 24 -37 55 -44 70 -7 16 -16 28 -20 28 -9 0 -114 140
-168 225 -11 17 -31 46 -46 65 -50 68 -75 105 -93 145 -11 22 -27 47 -37 55
-10 8 -26 33 -37 55 -10 22 -28 54 -41 72 -41 59 -82 127 -98 164 -10 20 -22
40 -28 44 -7 4 -22 30 -35 58 -12 29 -30 58 -39 66 -10 7 -17 19 -17 26 0 7
-16 36 -35 64 -19 28 -35 56 -35 64 0 7 -13 31 -29 53 -15 21 -33 54 -39 72
-6 19 -23 47 -36 63 -14 16 -30 45 -35 64 -5 19 -19 47 -30 61 -12 15 -26 45
-32 68 -6 22 -22 52 -35 66 -13 14 -27 41 -30 60 -4 19 -22 63 -41 98 -18 35
-33 71 -33 81 0 9 -11 33 -25 52 -14 19 -33 58 -41 88 -9 29 -26 68 -39 87
-12 18 -26 50 -30 70 -3 20 -17 53 -30 73 -13 20 -29 57 -34 83 -6 25 -20 62
-32 82 -11 19 -27 62 -34 94 -8 33 -23 75 -34 93 -11 19 -27 65 -36 103 -9 38
-25 86 -35 106 -11 21 -24 65 -29 99 -5 33 -21 87 -35 119 -14 31 -30 87 -36
123 -5 37 -17 84 -26 105 -9 21 -24 83 -35 138 -11 56 -28 122 -39 148 -11 25
-27 95 -35 155 -8 59 -24 137 -35 173 -11 35 -25 98 -31 140 -6 41 -19 109
-29 150 -23 90 -40 202 -40 263 0 24 -11 105 -25 178 -17 90 -29 199 -36 334
-5 110 -16 308 -24 441 -19 305 -19 451 -1 744 9 129 20 323 25 430 6 111 19
240 30 300 11 58 27 182 35 275 10 114 22 190 36 230 11 33 25 105 31 160 6
55 20 125 30 155 11 30 26 103 34 162 8 59 26 140 39 180 13 40 27 100 31 133
4 33 18 85 31 116 13 31 28 87 34 125 6 38 20 85 31 104 12 19 29 78 39 131
10 54 26 111 34 128 9 16 22 57 30 90 8 33 23 75 34 93 11 18 27 58 37 88 10
30 28 75 40 100 12 25 25 60 29 79 3 19 19 62 35 95 16 34 36 77 45 96 8 19
22 46 29 60 27 47 85 175 97 212 6 20 17 42 25 48 8 6 21 35 31 63 9 29 25 61
35 73 10 11 25 42 33 68 8 27 23 58 34 70 11 11 25 39 32 61 7 22 23 52 36 67
12 15 28 44 34 65 7 21 23 49 35 63 13 14 27 37 30 52 4 14 22 50 41 79 19 29
34 57 34 61 0 10 60 102 93 143 14 17 32 48 41 70 9 22 25 49 35 60 10 11 24
37 30 57 7 20 19 42 27 49 9 7 27 34 40 61 13 26 28 48 33 48 6 0 12 9 16 19
3 11 34 61 68 112 34 50 73 108 87 129 14 20 35 52 47 71 11 19 33 48 48 64
57 65 105 127 105 135 0 7 96 126 153 189 12 14 31 37 42 52 62 83 250 305
309 365 12 11 52 56 90 100 202 230 671 670 906 849 29 22 87 69 130 105 43
36 99 81 124 100 26 19 64 49 85 65 22 17 60 46 85 65 26 19 67 52 92 73 25
20 51 37 58 37 8 0 20 7 27 17 8 9 37 31 64 50 120 80 212 144 241 168 18 14
36 25 41 25 6 0 27 13 47 29 21 17 54 35 74 42 20 7 51 22 67 35 17 12 48 29
70 38 22 10 49 25 60 35 11 10 34 23 52 30 18 7 38 20 45 28 7 9 33 24 58 35
25 11 54 27 65 37 11 10 36 24 56 30 20 7 44 20 54 31 10 11 39 26 66 35 26 9
59 25 72 35 13 11 49 29 80 40 30 11 61 27 67 35 7 8 30 20 52 25 21 6 60 24
85 41 26 16 57 29 68 29 12 0 44 12 71 26 27 15 73 35 102 45 29 10 64 27 77
37 14 11 41 23 61 27 20 3 60 19 88 35 28 15 69 31 91 35 22 3 56 17 75 30 19
13 57 29 83 35 27 6 67 20 90 32 23 11 68 27 100 34 32 8 74 22 95 33 20 10
72 26 114 35 43 8 95 24 116 35 21 11 67 24 103 31 35 6 89 21 119 34 30 14
89 29 130 36 41 6 93 20 115 30 22 11 81 26 132 35 50 8 114 24 142 35 28 11
92 25 143 31 51 6 131 22 178 35 46 14 136 29 200 34 63 5 156 17 205 26 130
23 211 32 385 44 85 6 180 16 210 22 139 28 359 37 840 33 267 -2 521 -8 565
-14z"/>
  </g>
</svg>