<svg xmlns="http://www.w3.org/2000/svg" viewBox="0 0 4096.000000 4096.000000">
  <g transform="translate(0.000000,4096.000000) scale(0.100000,-0.100000)" fill="#f4f5f7" stroke="none">
    <path d="M2085 33873 c-129 -6 -253 -23 -291 -39 -21 -9 -65 -23 -98 -30 -32
-8 -70 -23 -85 -33 -14 -10 -43 -23 -63 -29 -21 -6 -50 -19 -65 -30 -15 -11
-38 -23 -50 -26 -37 -12 -154 -90 -246 -166 -64 -52 -203 -194 -232 -237 -14
-21 -39 -56 -55 -78 -17 -22 -44 -65 -61 -95 -16 -30 -36 -66 -44 -80 -32 -58
-75 -161 -85 -203 -5 -25 -18 -67 -29 -94 -24 -62 -54 -290 -54 -418 0 -140
29 -357 58 -435 13 -36 30 -85 38 -110 24 -74 67 -168 93 -207 13 -20 24 -40
24 -46 0 -12 57 -99 119 -182 50 -66 194 -214 255 -260 21 -17 56 -45 78 -62
22 -18 46 -33 53 -33 7 0 26 -10 42 -23 33 -28 138 -82 208 -107 74 -27 135
-48 185 -64 25 -8 63 -21 85 -30 36 -14 1859 -15 18600 -16 16784 0 18566 1
18615 16 175 49 220 64 270 84 72 30 187 87 227 114 18 11 61 39 95 61 73 46
83 55 202 166 112 107 198 216 246 315 11 23 27 47 35 54 8 7 20 30 26 53 6
22 19 52 30 66 10 14 26 53 34 86 9 33 23 71 32 84 8 13 26 92 40 175 31 189
36 409 11 501 -9 33 -19 85 -23 115 -4 30 -17 80 -30 110 -12 30 -26 73 -30
94 -3 22 -17 60 -29 85 -13 26 -29 62 -35 82 -6 20 -21 45 -31 54 -11 10 -20
23 -20 28 0 13 -80 148 -96 162 -6 6 -19 21 -28 35 -47 72 -228 247 -317 308
-19 12 -50 34 -69 47 -19 14 -58 36 -87 49 -28 14 -54 30 -58 35 -3 6 -25 16
-48 22 -23 6 -53 19 -67 29 -14 10 -55 26 -90 35 -35 9 -78 24 -94 32 -85 44
726 42 -18661 41 -10104 -1 -18397 -3 -18430 -5z"/>
    <path d="M2120 22059 c-154 -6 -329 -38 -440 -79 -41 -15 -86 -31 -100 -35
-14 -4 -36 -15 -50 -25 -14 -10 -36 -21 -50 -25 -14 -4 -41 -17 -60 -29 -97
-61 -159 -104 -199 -136 -73 -59 -194 -177 -229 -222 -106 -138 -146 -194
-157 -222 -8 -17 -25 -46 -39 -65 -14 -19 -26 -42 -26 -51 0 -8 -7 -25 -15
-37 -27 -38 -94 -260 -105 -345 -6 -46 -15 -112 -20 -148 -5 -36 -10 -99 -10
-140 0 -109 44 -392 74 -477 14 -40 26 -77 26 -83 0 -10 29 -77 69 -160 21
-43 75 -136 105 -182 42 -63 134 -176 186 -228 52 -52 178 -156 226 -185 17
-11 56 -36 85 -56 62 -41 213 -115 255 -125 16 -4 49 -16 74 -27 57 -25 250
-56 405 -65 66 -4 8378 -5 18470 -2 l18350 5 138 23 c76 12 155 30 175 41 20
10 52 22 69 26 37 7 185 81 253 126 25 16 58 37 74 47 43 26 230 186 288 247
28 29 78 93 111 142 67 98 181 319 192 373 4 19 14 49 23 65 20 40 42 122 42
161 0 16 9 66 21 110 18 69 20 98 16 229 -4 114 -12 184 -36 293 -16 79 -34
149 -40 156 -5 6 -15 34 -22 61 -6 28 -22 70 -35 95 -12 25 -32 65 -43 90 -12
25 -31 61 -44 81 -12 19 -31 50 -42 68 -49 78 -109 156 -190 245 -47 50 -178
162 -226 191 -123 75 -291 160 -334 170 -16 4 -52 17 -81 31 -28 13 -59 24
-68 24 -9 0 -72 11 -139 25 l-122 25 -18335 2 c-10084 2 -18396 0 -18470 -3z"/>
    <path d="M2105 10230 c-210 -8 -262 -14 -307 -36 -15 -8 -51 -19 -80 -25 -29
-6 -80 -24 -113 -39 -33 -16 -71 -33 -85 -40 -54 -25 -142 -78 -226 -135 -83
-56 -298 -258 -357 -335 -49 -63 -107 -152 -107 -165 0 -6 -9 -20 -20 -30 -10
-9 -24 -34 -31 -54 -6 -20 -21 -54 -34 -76 -12 -22 -25 -56 -29 -75 -3 -19
-17 -62 -30 -95 -13 -33 -27 -87 -31 -120 -4 -33 -13 -95 -21 -139 -18 -100
-18 -265 0 -381 8 -49 17 -117 21 -150 3 -33 17 -83 29 -110 13 -28 26 -69 30
-90 4 -22 18 -60 32 -85 13 -25 33 -65 44 -90 44 -93 86 -161 169 -275 51 -69
223 -243 279 -281 20 -14 62 -43 92 -65 75 -53 288 -157 380 -185 41 -12 95
-30 120 -39 35 -14 97 -19 290 -24 296 -9 36656 -5 36820 4 124 6 139 9 275
49 84 25 168 59 225 92 14 7 44 23 67 34 24 12 70 40 104 63 34 23 75 51 93
62 17 11 41 29 52 40 11 11 46 43 78 70 52 45 187 195 244 270 12 17 33 53 47
80 14 28 32 61 39 75 37 66 74 149 81 180 4 19 17 60 30 90 22 55 59 273 71
420 10 124 -32 431 -70 520 -13 30 -27 74 -31 97 -3 22 -17 56 -31 74 -13 18
-24 40 -24 49 0 9 -16 40 -35 70 -19 30 -35 58 -35 63 0 5 -12 24 -27 42 -16
19 -44 55 -63 81 -94 129 -305 321 -430 393 -41 23 -82 47 -90 52 -8 5 -35 18
-60 29 -25 11 -62 30 -83 41 -21 11 -68 28 -105 38 -37 11 -86 26 -108 34 -30
12 -109 19 -280 26 -160 7 -6214 10 -18404 9 -9991 -1 -18255 -4 -18365 -8z"/>
  </g>
</svg>