<svg xmlns="http://www.w3.org/2000/svg" viewBox="0 0 4096.000000 4096.000000">
  <g transform="translate(0.000000,4096.000000) scale(0.100000,-0.100000)" fill="#f4f5f7" stroke="none">
    <path d="M15465 40310 c-293 -26 -427 -42 -471 -55 -27 -8 -88 -21 -135 -29
-47 -8 -120 -26 -161 -40 -42 -15 -85 -26 -95 -26 -10 0 -41 -11 -68 -24 -28
-12 -68 -26 -90 -30 -22 -4 -58 -19 -81 -32 -22 -13 -47 -24 -54 -24 -13 0
-147 -61 -180 -81 -8 -5 -31 -16 -50 -24 -19 -8 -46 -22 -60 -30 -14 -8 -43
-24 -65 -34 -22 -11 -55 -31 -74 -45 -19 -15 -39 -26 -44 -26 -5 0 -21 -9 -35
-21 -15 -11 -56 -39 -92 -62 -75 -49 -157 -109 -222 -164 -25 -21 -65 -54 -89
-73 -97 -79 -279 -264 -399 -405 -71 -82 -140 -166 -154 -185 -76 -105 -136
-194 -176 -260 -12 -19 -36 -60 -55 -90 -18 -30 -52 -93 -75 -140 -23 -47 -55
-111 -71 -142 -16 -31 -29 -63 -29 -70 0 -7 -11 -33 -24 -58 -13 -25 -29 -65
-36 -90 -7 -25 -20 -61 -30 -80 -10 -19 -21 -55 -25 -80 -4 -25 -16 -65 -26
-89 -10 -24 -24 -73 -29 -110 -6 -36 -19 -93 -30 -126 -10 -33 -22 -82 -25
-110 -4 -27 -17 -108 -30 -180 -14 -73 -30 -216 -36 -325 -10 -148 -13 -1722
-16 -6480 -2 -3457 -7 -6285 -11 -6285 -4 0 -57 24 -117 53 -137 67 -155 76
-180 89 -29 15 -122 53 -175 71 -25 8 -65 23 -88 34 -24 10 -75 25 -113 33
-39 8 -83 22 -98 30 -16 8 -48 17 -72 21 -24 3 -87 17 -139 30 -90 22 -311 46
-575 64 -136 8 -400 -2 -614 -24 -133 -13 -299 -47 -411 -83 -25 -8 -78 -24
-119 -35 -41 -10 -91 -28 -112 -39 -21 -10 -46 -19 -56 -19 -10 0 -47 -14 -81
-30 -35 -17 -70 -30 -76 -30 -7 0 -38 -13 -69 -30 -31 -16 -62 -30 -69 -30 -8
0 -29 -11 -48 -24 -19 -13 -46 -27 -60 -31 -14 -4 -34 -15 -45 -25 -11 -10
-39 -26 -62 -35 -24 -10 -43 -21 -43 -25 0 -4 -24 -19 -53 -33 -29 -13 -59
-32 -66 -41 -7 -9 -18 -16 -22 -16 -11 0 -102 -59 -145 -94 -18 -14 -35 -26
-39 -26 -4 0 -22 -12 -40 -27 -18 -16 -69 -55 -112 -88 -175 -134 -414 -361
-556 -525 -50 -58 -102 -117 -116 -131 -60 -62 -127 -147 -293 -374 -31 -42
-136 -203 -178 -274 -14 -23 -34 -57 -45 -74 -29 -44 -172 -325 -233 -457 -82
-178 -119 -264 -152 -355 -10 -27 -28 -68 -39 -90 -12 -21 -21 -49 -21 -60 0
-11 -9 -39 -20 -60 -12 -22 -28 -65 -37 -95 -9 -30 -24 -71 -34 -90 -9 -19
-20 -55 -24 -80 -4 -25 -15 -61 -25 -80 -10 -20 -24 -65 -31 -100 -6 -36 -20
-86 -30 -111 -10 -25 -23 -75 -29 -110 -6 -35 -20 -91 -30 -124 -11 -33 -25
-93 -31 -134 -6 -41 -18 -93 -26 -115 -8 -23 -21 -88 -29 -146 -8 -58 -23
-136 -33 -175 -11 -38 -24 -119 -30 -178 -6 -60 -17 -134 -25 -165 -8 -31 -22
-135 -31 -230 -9 -95 -23 -208 -31 -250 -8 -42 -19 -171 -24 -287 -6 -115 -18
-307 -27 -425 -14 -168 -18 -335 -18 -760 0 -433 4 -588 17 -755 10 -115 23
-320 28 -454 6 -134 19 -305 29 -380 11 -75 22 -190 26 -256 4 -66 17 -190 30
-275 13 -85 27 -193 30 -240 4 -47 15 -119 25 -160 10 -41 24 -124 30 -185 6
-60 20 -146 31 -190 11 -44 24 -120 30 -170 5 -49 18 -121 29 -160 10 -38 24
-106 30 -149 5 -44 19 -107 29 -140 10 -34 22 -90 26 -126 4 -36 15 -85 25
-110 9 -25 25 -88 35 -140 9 -52 23 -107 31 -123 9 -15 21 -64 29 -107 8 -43
20 -91 28 -107 8 -15 20 -62 27 -103 7 -41 20 -95 31 -120 10 -25 23 -74 29
-110 7 -36 20 -83 29 -106 10 -22 21 -62 26 -90 4 -27 17 -74 30 -104 13 -30
28 -81 34 -112 5 -32 17 -70 25 -86 8 -16 22 -59 30 -96 9 -36 22 -76 30 -89
8 -12 20 -44 27 -72 6 -27 20 -66 29 -85 9 -19 22 -57 29 -84 7 -27 20 -65 31
-85 10 -20 22 -55 26 -76 3 -22 17 -60 30 -85 13 -25 24 -54 24 -65 0 -11 14
-47 30 -80 16 -33 30 -67 30 -75 0 -8 14 -44 30 -78 17 -35 30 -71 30 -81 0
-9 9 -35 21 -56 11 -22 29 -62 39 -90 28 -78 60 -156 85 -205 12 -25 26 -56
30 -70 4 -14 21 -54 37 -90 17 -36 42 -90 56 -120 53 -118 72 -158 106 -231
20 -41 36 -79 36 -83 0 -9 57 -133 76 -166 8 -14 22 -41 30 -60 18 -40 62
-136 78 -165 5 -11 26 -51 47 -90 33 -64 99 -189 171 -325 16 -30 44 -82 63
-115 18 -33 40 -74 48 -90 8 -17 33 -64 57 -105 24 -41 54 -95 67 -120 13 -25
37 -65 53 -90 16 -25 41 -65 55 -90 15 -25 38 -66 53 -92 15 -25 35 -54 44
-65 9 -10 22 -29 28 -43 6 -14 22 -41 35 -60 41 -59 62 -90 145 -215 44 -66
93 -138 110 -160 16 -22 37 -53 46 -70 9 -16 24 -38 32 -48 9 -10 25 -34 37
-52 32 -53 168 -252 229 -335 30 -41 67 -91 81 -111 15 -20 32 -45 38 -56 15
-25 67 -102 146 -213 33 -47 68 -101 77 -120 9 -19 26 -47 38 -61 11 -15 35
-50 51 -79 17 -28 41 -67 55 -85 14 -19 66 -93 115 -165 50 -73 112 -162 140
-198 27 -37 69 -96 92 -132 43 -67 57 -87 123 -180 22 -30 50 -70 62 -88 13
-19 35 -49 50 -67 16 -18 28 -37 28 -41 0 -5 15 -28 33 -51 17 -23 42 -57 55
-75 13 -18 46 -66 75 -106 29 -41 63 -91 77 -112 14 -21 83 -126 154 -232 217
-324 241 -362 254 -390 6 -16 16 -28 21 -28 5 0 18 -19 30 -42 12 -24 33 -59
46 -78 13 -19 34 -48 45 -65 12 -16 36 -55 55 -85 32 -52 44 -70 100 -150 14
-19 33 -53 43 -75 11 -22 26 -46 35 -53 9 -8 19 -26 22 -42 3 -16 13 -35 22
-42 9 -7 27 -35 40 -63 13 -27 51 -97 85 -155 33 -58 96 -174 139 -258 43 -85
88 -165 99 -179 11 -14 20 -35 20 -47 0 -12 11 -37 25 -56 13 -18 30 -49 36
-69 7 -20 20 -47 30 -60 11 -13 19 -29 19 -35 0 -6 16 -42 35 -80 19 -39 35
-75 35 -82 0 -6 9 -22 19 -36 11 -13 24 -44 31 -68 7 -25 23 -63 36 -86 13
-22 24 -47 24 -55 0 -8 14 -41 30 -74 16 -33 30 -69 30 -79 0 -11 11 -38 24
-60 13 -23 28 -59 31 -81 4 -22 18 -58 30 -80 13 -22 26 -58 30 -80 4 -22 17
-65 30 -95 12 -30 26 -77 30 -105 4 -27 13 -61 20 -75 7 -14 20 -61 30 -105 9
-44 25 -105 36 -135 10 -30 21 -80 24 -110 4 -30 17 -95 30 -145 13 -49 26
-115 30 -145 3 -30 17 -116 30 -190 13 -74 29 -216 35 -315 7 -99 20 -218 30
-265 10 -47 21 -102 25 -123 8 -48 103 -235 155 -303 44 -59 148 -162 200
-198 61 -43 173 -97 240 -117 36 -10 90 -25 120 -34 42 -13 85 -15 185 -12 85
3 142 9 165 19 19 8 60 21 90 28 30 6 71 22 90 35 19 12 49 31 66 41 72 43
112 75 161 125 122 127 121 126 195 261 20 37 39 85 43 108 4 23 16 67 28 98
18 50 20 79 20 242 -1 172 -5 220 -33 420 -5 41 -15 126 -20 188 -6 62 -19
152 -29 200 -11 48 -22 116 -26 152 -3 36 -17 103 -30 150 -13 47 -27 110 -30
140 -4 30 -17 96 -30 145 -13 50 -31 117 -39 150 -27 111 -66 240 -86 287 -11
26 -20 59 -20 75 0 15 -11 49 -24 74 -13 25 -28 63 -32 84 -3 22 -17 60 -29
85 -12 25 -26 61 -30 80 -4 19 -15 49 -25 65 -10 17 -25 53 -33 80 -9 28 -25
68 -36 90 -12 21 -21 46 -21 54 0 13 -13 42 -92 205 -15 32 -28 65 -28 73 0 8
-11 31 -25 51 -14 20 -25 43 -25 52 0 8 -16 46 -35 84 -19 39 -35 75 -35 82 0
6 -8 22 -19 35 -10 13 -24 41 -31 63 -7 21 -23 54 -36 74 -13 19 -24 40 -24
46 0 6 -13 36 -30 66 -16 30 -29 62 -30 71 0 9 -7 22 -14 29 -8 6 -23 33 -32
58 -10 26 -26 56 -36 67 -10 12 -21 36 -24 55 -4 19 -15 44 -26 56 -19 22 -50
76 -89 154 -12 25 -30 57 -40 72 -11 14 -19 33 -19 41 0 8 -13 31 -30 52 -16
21 -30 43 -30 49 0 7 -11 28 -26 47 -14 19 -34 52 -44 74 -11 22 -40 72 -64
110 -25 39 -45 75 -46 81 0 6 -7 18 -17 25 -9 8 -24 33 -35 55 -10 23 -25 47
-33 54 -8 7 -23 31 -33 54 -11 22 -26 47 -35 55 -10 7 -17 19 -17 25 0 7 -13
30 -30 52 -16 21 -30 44 -30 50 0 6 -12 27 -27 47 -16 20 -41 58 -57 84 -16
26 -43 71 -61 98 -18 28 -46 73 -63 100 -35 57 -56 87 -112 165 -71 100 -81
115 -103 149 -39 60 -155 231 -217 318 -14 20 -36 52 -50 73 -68 101 -79 116
-99 134 -11 11 -21 25 -21 31 0 7 -13 29 -30 50 -16 21 -30 42 -30 48 0 6 -10
21 -22 34 -12 13 -31 38 -42 57 -12 19 -48 73 -81 121 -33 47 -69 101 -80 119
-11 18 -31 47 -45 64 -14 17 -36 47 -50 67 -24 35 -64 88 -112 150 -13 17 -39
55 -58 85 -19 30 -47 70 -62 88 -15 18 -28 38 -28 44 0 7 -10 22 -22 35 -12
13 -31 39 -42 57 -43 71 -135 202 -150 215 -9 7 -16 18 -16 23 0 6 -10 23 -22
38 -13 15 -31 40 -40 56 -10 16 -32 47 -48 69 -27 35 -51 70 -120 171 -8 12
-39 56 -67 98 -29 42 -53 80 -53 85 0 5 -7 14 -15 21 -13 11 -61 87 -96 154
-9 17 -26 40 -38 50 -12 11 -21 23 -21 27 0 9 -114 185 -149 231 -12 14 -21
30 -21 36 0 5 -12 25 -27 45 -16 20 -41 59 -58 87 -16 28 -45 74 -62 103 -18
28 -33 57 -33 63 0 6 -7 18 -17 25 -9 8 -24 33 -35 55 -10 23 -24 47 -32 53
-8 6 -20 26 -27 44 -7 18 -19 40 -28 50 -16 19 -23 33 -119 221 -28 57 -59
109 -66 116 -8 6 -17 24 -21 39 -3 16 -17 43 -31 62 -13 18 -24 38 -24 44 0 7
-13 32 -30 56 -16 24 -30 51 -30 60 0 9 -11 32 -24 51 -13 20 -29 51 -35 71
-7 20 -20 46 -30 59 -10 13 -23 38 -30 57 -6 19 -18 42 -26 51 -8 9 -21 35
-30 59 -8 23 -23 54 -33 69 -10 15 -24 46 -30 68 -7 23 -19 47 -27 54 -8 7
-20 30 -25 51 -6 22 -22 56 -35 76 -14 20 -25 40 -25 46 0 9 -15 43 -92 201
-15 32 -28 65 -28 72 0 14 -12 39 -79 171 -17 34 -31 72 -31 85 0 13 -9 37
-19 55 -11 17 -27 55 -35 83 -9 28 -24 66 -35 83 -11 18 -22 50 -26 72 -4 22
-17 58 -30 80 -12 22 -26 58 -29 80 -4 22 -16 54 -26 70 -10 17 -24 53 -31 80
-6 28 -20 67 -31 87 -10 21 -23 61 -29 90 -7 29 -20 69 -30 88 -11 19 -19 44
-19 55 0 26 -24 105 -43 141 -8 16 -18 49 -22 74 -4 25 -15 63 -24 85 -10 23
-23 65 -30 95 -7 30 -23 84 -36 120 -13 36 -30 92 -39 125 -32 129 -50 194
-77 286 -16 53 -29 108 -29 122 0 14 -9 54 -20 89 -11 34 -27 104 -35 153 -9
50 -24 117 -34 150 -10 33 -22 87 -26 120 -3 33 -17 105 -30 160 -13 55 -28
141 -35 192 -6 50 -18 112 -26 138 -7 26 -19 100 -25 164 -6 64 -19 150 -29
191 -10 41 -23 134 -29 205 -6 72 -15 156 -21 188 -5 31 -14 81 -19 110 -5 28
-12 106 -16 172 -7 126 -29 402 -45 545 -5 47 -14 308 -21 580 -10 400 -10
583 0 945 7 250 19 497 27 555 8 58 21 184 29 280 9 96 23 209 31 250 9 41 24
138 34 215 9 77 24 165 33 195 9 30 21 93 27 140 6 47 19 108 29 135 10 28 22
75 26 105 4 30 19 89 32 130 13 41 27 98 30 125 3 28 14 65 24 82 10 18 23 60
29 95 7 34 20 78 30 97 9 20 23 60 29 89 6 29 17 63 25 75 8 12 20 44 27 72 7
27 25 74 41 103 15 30 28 60 28 67 0 16 187 385 206 406 8 8 14 20 14 26 0 10
27 54 107 173 110 164 223 300 391 467 86 87 175 172 196 188 21 17 56 44 77
60 81 63 95 73 134 94 22 12 72 41 110 66 39 24 76 44 83 45 7 0 32 11 55 24
23 14 65 30 92 37 28 6 60 18 73 26 13 8 57 21 99 29 41 8 101 22 132 32 47
14 96 17 316 17 225 -1 268 -3 320 -20 33 -10 96 -26 140 -36 132 -29 301 -96
405 -161 64 -39 194 -140 255 -197 57 -54 93 -96 191 -226 60 -80 114 -166
114 -182 0 -8 11 -30 24 -51 13 -20 27 -52 31 -71 4 -19 18 -54 31 -79 13 -25
24 -56 24 -69 0 -13 9 -45 20 -71 11 -26 26 -81 34 -122 8 -41 22 -106 31
-145 14 -67 31 -212 56 -485 8 -90 12 -1130 14 -3740 2 -2825 5 -3631 15
-3689 12 -74 56 -202 86 -251 8 -14 22 -40 30 -59 23 -51 151 -197 216 -247
100 -76 243 -140 373 -166 27 -5 119 -8 205 -6 138 3 164 7 240 32 102 34 112
38 171 73 81 49 145 102 203 168 104 118 165 227 210 375 l26 85 5 11625 c3
7369 8 11654 14 11705 5 44 19 126 30 183 12 57 21 123 21 146 0 23 11 69 24
102 13 32 27 79 31 104 4 25 15 59 25 76 10 17 25 56 34 86 9 31 22 61 30 67
8 7 18 27 21 44 4 18 17 48 29 67 132 203 166 249 279 366 119 125 280 246
397 300 19 9 41 21 49 28 16 12 146 59 231 82 30 8 82 23 116 34 76 24 105 28
279 40 102 6 183 5 300 -5 88 -7 180 -20 205 -28 25 -9 85 -25 135 -37 49 -11
100 -27 112 -35 12 -8 30 -15 39 -15 14 0 166 -71 219 -102 147 -88 289 -209
404 -345 105 -125 129 -156 138 -179 3 -11 16 -32 29 -49 12 -16 25 -41 29
-55 4 -14 15 -36 24 -49 20 -31 68 -157 90 -241 10 -36 25 -79 34 -96 9 -17
21 -62 28 -100 6 -38 18 -82 26 -98 8 -16 24 -110 36 -210 l21 -181 2 -8000
c1 -4400 4 -8070 8 -8155 8 -191 20 -268 51 -335 14 -29 25 -57 25 -63 0 -19
84 -143 138 -205 60 -67 176 -171 212 -189 14 -6 39 -22 55 -34 17 -11 41 -25
55 -29 14 -4 51 -18 83 -31 123 -52 437 -50 562 3 148 62 192 91 294 192 144
143 238 304 268 456 8 44 19 177 24 295 4 118 8 1567 8 3220 -1 2951 3 3387
31 3490 6 19 19 91 31 159 11 68 26 136 34 150 7 15 21 56 30 91 9 36 25 79
35 95 9 17 21 47 24 68 4 21 18 54 32 74 13 20 24 43 24 51 0 9 11 32 23 51
13 20 39 62 58 95 37 63 121 169 203 255 58 61 207 186 256 216 72 43 147 84
180 99 19 9 56 27 81 41 26 14 55 25 65 25 11 0 42 11 70 24 27 13 80 28 116
35 37 6 84 18 106 25 78 28 228 39 431 33 160 -5 206 -9 251 -26 31 -11 87
-25 125 -32 39 -6 87 -20 108 -31 20 -10 60 -23 88 -28 28 -5 63 -18 77 -29
15 -10 38 -22 52 -26 14 -4 41 -17 60 -29 19 -11 47 -28 61 -36 75 -44 100
-61 183 -131 111 -92 252 -250 308 -344 23 -38 52 -86 65 -106 12 -19 23 -42
23 -50 0 -8 11 -31 25 -51 14 -20 25 -42 25 -49 0 -6 16 -46 35 -89 19 -43 35
-85 35 -94 0 -9 8 -31 17 -49 9 -18 27 -77 39 -132 12 -55 27 -119 33 -141 6
-23 17 -138 26 -255 13 -185 15 -686 15 -3641 l0 -3428 22 -122 c20 -120 38
-166 115 -308 52 -96 165 -220 253 -279 103 -69 198 -107 320 -130 63 -12 151
-21 195 -21 44 0 132 11 195 24 118 24 189 55 295 126 69 48 211 196 234 245
11 23 26 47 35 54 9 8 16 19 16 25 0 6 13 39 30 74 16 34 36 97 44 140 9 42
21 93 28 112 10 28 13 543 14 2640 0 1433 4 2666 8 2739 4 74 16 167 26 205
10 39 23 105 29 146 6 41 22 108 36 147 14 40 25 83 25 95 0 13 11 43 24 68
13 25 27 64 31 87 3 22 17 56 31 74 13 18 24 40 24 50 0 9 12 33 26 55 14 21
29 45 33 54 38 96 285 385 387 454 63 43 107 73 144 101 57 42 100 68 180 107
91 44 225 92 300 107 30 6 80 18 110 27 43 12 107 16 295 17 229 1 245 0 345
-25 58 -15 132 -33 165 -41 81 -20 191 -59 240 -86 22 -11 46 -21 54 -21 8 0
29 -11 47 -25 18 -14 37 -25 42 -25 5 0 27 -13 48 -30 22 -16 59 -44 83 -62
141 -106 235 -199 336 -333 39 -51 105 -160 105 -173 0 -5 8 -20 19 -33 10
-13 24 -42 31 -64 7 -22 22 -51 32 -65 10 -14 21 -44 25 -65 3 -22 16 -58 28
-80 13 -22 25 -60 28 -85 3 -25 17 -70 31 -100 14 -31 30 -89 36 -130 6 -41
16 -93 22 -115 6 -22 15 -67 21 -100 6 -39 12 -1167 16 -3295 l6 -3235 28 -99
c15 -54 35 -114 46 -135 10 -20 26 -52 35 -71 28 -59 77 -121 161 -206 108
-109 172 -149 335 -209 19 -7 95 -19 169 -26 118 -12 149 -11 269 4 79 10 146
24 160 33 13 8 42 22 64 30 57 20 130 70 210 144 66 60 158 171 158 189 0 5
11 22 24 38 13 15 27 39 31 53 4 14 18 46 31 72 15 30 30 88 40 165 15 105 18
294 24 1718 7 1673 9 1780 52 2005 11 58 26 143 33 190 7 47 22 109 34 138 11
29 21 62 21 73 0 11 11 41 24 67 13 26 29 65 36 87 7 22 21 51 30 65 10 14 21
36 25 50 4 14 18 39 31 57 13 17 24 35 24 40 0 9 53 87 119 178 57 77 195 214
291 288 80 62 179 127 193 127 5 0 22 11 39 25 16 14 38 25 47 25 10 0 39 11
65 25 26 14 68 30 94 36 26 6 57 18 69 25 22 14 117 35 317 70 77 13 131 16
245 11 95 -4 176 -13 231 -26 47 -12 100 -21 119 -21 37 0 243 -67 306 -99 21
-12 45 -21 53 -21 7 0 28 -11 46 -25 18 -14 37 -25 42 -25 10 0 134 -77 144
-89 3 -4 39 -32 80 -63 41 -31 98 -80 126 -110 65 -68 176 -204 200 -247 11
-18 31 -53 46 -79 16 -26 37 -67 49 -92 11 -25 31 -68 45 -95 13 -28 24 -57
24 -64 0 -8 11 -38 25 -67 14 -29 30 -77 36 -106 6 -29 18 -65 25 -80 8 -16
21 -76 30 -135 8 -59 21 -132 28 -163 8 -30 17 -89 20 -130 3 -41 11 -289 16
-550 6 -261 17 -626 25 -810 8 -184 20 -722 25 -1195 28 -2245 28 -2329 9
-3295 -16 -858 -25 -1083 -49 -1345 -5 -55 -14 -206 -20 -336 -6 -130 -15
-274 -20 -320 -22 -184 -30 -271 -40 -429 -6 -91 -16 -190 -20 -220 -10 -58
-20 -148 -45 -390 -8 -80 -21 -179 -29 -220 -8 -41 -15 -97 -16 -125 0 -50
-21 -183 -40 -262 -5 -23 -14 -93 -20 -155 -5 -62 -19 -156 -29 -208 -11 -52
-24 -140 -31 -195 -6 -55 -18 -124 -26 -154 -8 -29 -24 -110 -34 -180 -10 -69
-23 -139 -29 -155 -7 -16 -18 -79 -26 -141 -8 -62 -21 -130 -29 -152 -8 -22
-19 -83 -25 -134 -7 -52 -20 -125 -31 -164 -10 -38 -24 -107 -30 -153 -6 -45
-17 -101 -25 -123 -8 -22 -21 -82 -30 -133 -8 -51 -21 -108 -29 -127 -8 -19
-19 -70 -26 -114 -7 -44 -23 -118 -36 -165 -13 -46 -24 -94 -24 -106 0 -12
-13 -64 -29 -115 -15 -52 -31 -118 -35 -148 -4 -30 -14 -70 -22 -90 -9 -20
-22 -67 -29 -106 -13 -68 -48 -217 -81 -340 -8 -33 -20 -82 -26 -110 -6 -27
-21 -90 -35 -140 -13 -49 -31 -128 -39 -174 -8 -46 -19 -92 -24 -102 -6 -10
-19 -64 -31 -120 -11 -56 -26 -114 -33 -128 -8 -14 -19 -59 -26 -100 -7 -41
-18 -89 -26 -106 -7 -18 -22 -77 -33 -132 -12 -55 -27 -115 -35 -134 -7 -19
-17 -56 -20 -82 -4 -27 -18 -77 -32 -113 -13 -35 -24 -76 -24 -89 0 -14 -13
-66 -29 -117 -16 -51 -33 -113 -36 -138 -4 -25 -15 -65 -25 -90 -10 -25 -23
-76 -29 -114 -7 -38 -19 -82 -27 -98 -8 -16 -21 -64 -29 -107 -7 -43 -20 -94
-28 -114 -9 -20 -23 -73 -32 -119 -10 -46 -22 -92 -28 -103 -6 -11 -21 -65
-33 -120 -29 -129 -51 -212 -79 -305 -13 -41 -27 -97 -31 -125 -3 -27 -17 -77
-29 -110 -12 -34 -26 -81 -29 -105 -4 -25 -18 -79 -31 -120 -13 -41 -27 -100
-30 -130 -4 -30 -16 -75 -26 -100 -10 -25 -23 -75 -29 -113 -6 -37 -19 -91
-30 -120 -11 -28 -24 -86 -31 -127 -6 -41 -19 -95 -29 -120 -9 -25 -23 -80
-29 -123 -7 -43 -19 -93 -26 -111 -8 -18 -21 -73 -30 -123 -8 -51 -22 -111
-31 -135 -8 -24 -19 -76 -25 -115 -6 -40 -18 -97 -29 -127 -10 -30 -24 -90
-30 -133 -7 -42 -20 -105 -30 -138 -10 -33 -26 -107 -35 -165 -9 -58 -21 -113
-26 -122 -5 -10 -16 -68 -25 -130 -8 -62 -23 -144 -34 -183 -10 -38 -21 -103
-25 -144 -3 -40 -15 -108 -26 -150 -11 -42 -26 -132 -34 -201 -8 -69 -21 -154
-29 -190 -8 -36 -20 -117 -26 -180 -6 -63 -15 -137 -21 -165 -5 -27 -16 -108
-25 -180 -8 -71 -22 -184 -30 -250 -35 -259 -43 -335 -56 -524 -7 -108 -13
-266 -13 -351 0 -122 5 -176 22 -255 12 -55 31 -118 42 -140 12 -21 21 -45 21
-53 0 -24 72 -134 143 -220 39 -45 96 -102 128 -127 59 -45 186 -115 208 -115
7 0 47 -12 89 -28 72 -25 87 -27 232 -26 142 0 162 2 240 28 82 27 187 75 260
120 48 29 216 199 241 244 82 149 102 196 129 302 23 91 31 155 40 305 6 105
17 241 25 303 8 62 22 199 30 305 8 106 22 221 30 257 8 36 19 121 25 190 7
69 22 172 35 230 13 58 27 141 30 185 4 44 16 114 26 155 11 41 24 117 30 170
6 52 19 122 30 156 11 33 24 101 29 150 6 49 19 118 30 154 10 36 22 97 26
135 3 39 17 106 29 150 13 44 26 107 30 140 3 33 15 89 25 125 11 36 26 106
34 155 8 50 21 108 29 131 8 22 20 74 26 115 7 41 23 106 36 146 14 39 25 89
25 111 0 22 11 68 24 103 13 35 29 97 35 136 6 40 20 94 30 121 10 26 22 75
26 107 4 33 16 83 26 110 10 28 26 87 34 132 9 45 22 97 29 115 8 18 20 62 26
98 6 36 23 97 36 137 13 39 24 83 24 97 0 15 11 58 25 97 13 39 28 95 31 123
4 28 13 64 21 79 8 16 23 67 33 115 11 48 28 112 39 143 11 31 25 84 30 119 6
34 17 72 24 84 8 12 20 55 27 96 7 41 20 93 30 115 10 22 23 74 30 115 6 41
20 94 30 117 10 23 22 68 26 100 3 32 15 81 26 108 11 28 24 76 29 108 5 32
20 92 33 135 13 42 29 106 35 142 7 35 19 76 26 90 7 14 16 48 20 75 3 28 17
84 30 125 13 41 29 107 36 145 6 39 18 86 26 105 8 19 21 72 29 118 8 46 23
108 33 138 11 30 23 80 27 112 3 31 15 79 26 106 10 27 25 86 33 131 8 45 21
97 29 117 9 20 21 69 27 110 6 40 19 93 29 118 9 25 23 77 29 115 7 39 20 97
31 130 10 33 21 80 25 105 4 25 15 72 25 105 11 33 26 101 34 150 8 50 21 106
29 125 8 19 20 70 27 113 6 43 20 104 31 135 11 31 24 90 29 130 5 39 16 86
25 102 9 16 22 76 30 133 8 56 21 123 30 147 9 25 22 95 30 156 8 61 22 131
30 154 8 24 20 84 25 134 6 50 19 127 30 171 11 44 27 133 35 197 9 64 22 134
29 156 8 21 19 84 25 140 6 56 20 142 31 191 11 48 24 142 30 207 6 66 18 144
26 174 7 30 19 109 25 175 6 66 21 190 35 275 13 85 28 216 34 290 6 75 16
169 24 210 8 41 19 156 26 255 6 99 20 239 30 310 11 72 24 234 30 360 6 127
15 262 20 300 14 105 29 321 40 605 6 140 18 363 26 495 12 186 17 506 21
1425 5 1198 -3 1919 -32 2790 -8 245 -19 690 -25 989 -16 870 -49 1631 -75
1741 -9 36 -23 112 -31 170 -8 58 -21 121 -29 141 -8 21 -21 79 -30 130 -9 51
-23 105 -31 120 -8 15 -19 52 -25 81 -7 29 -22 76 -34 104 -13 29 -26 70 -30
92 -3 23 -13 46 -21 53 -8 6 -21 37 -30 68 -9 31 -25 67 -34 81 -10 14 -23 44
-29 66 -6 23 -19 52 -30 65 -10 13 -22 35 -26 49 -4 14 -26 59 -48 100 -22 41
-48 89 -57 107 -10 17 -28 45 -41 61 -13 17 -37 53 -54 82 -16 28 -43 69 -60
91 -16 21 -43 57 -60 80 -16 22 -43 55 -60 73 -16 18 -52 60 -80 92 -59 69
-280 300 -345 359 -25 23 -67 62 -95 88 -27 26 -53 47 -57 47 -4 0 -20 11 -35
25 -45 39 -122 95 -133 95 -5 0 -25 14 -43 30 -19 17 -39 30 -43 30 -5 0 -27
14 -48 30 -22 17 -45 30 -51 30 -6 0 -29 13 -51 29 -21 16 -50 32 -64 36 -14
4 -35 16 -48 26 -13 10 -37 21 -55 25 -18 3 -44 15 -59 25 -15 11 -46 26 -69
34 -23 8 -56 24 -74 35 -18 11 -39 20 -46 20 -8 0 -41 13 -74 29 -33 16 -76
32 -95 36 -19 4 -48 14 -63 22 -16 8 -63 21 -105 29 -42 7 -95 21 -117 29 -22
8 -89 24 -150 35 -60 11 -139 26 -175 34 -232 51 -961 45 -1143 -9 -29 -9 -94
-22 -145 -31 -51 -8 -114 -23 -140 -33 -26 -10 -67 -21 -90 -25 -24 -4 -60
-15 -80 -25 -21 -10 -61 -24 -91 -30 -30 -6 -60 -16 -66 -21 -6 -5 -40 -20
-75 -33 -36 -14 -103 -41 -150 -62 -47 -20 -103 -44 -125 -53 -22 -9 -51 -23
-65 -33 -49 -33 -113 -60 -120 -52 -4 4 -13 77 -20 162 -6 84 -18 177 -26 205
-8 28 -23 99 -34 158 -10 59 -23 116 -29 127 -6 10 -20 59 -31 108 -12 48 -27
97 -34 108 -8 11 -17 41 -21 65 -4 25 -16 57 -26 71 -10 14 -23 48 -29 74 -6
26 -22 67 -35 90 -14 23 -25 48 -25 56 0 25 -150 327 -228 459 -56 95 -68 113
-94 147 -16 20 -28 39 -28 43 0 11 -81 117 -197 259 -84 103 -248 270 -363
372 -64 56 -228 184 -310 242 -65 46 -165 109 -179 114 -9 3 -29 16 -46 27
-51 37 -392 200 -440 211 -17 4 -40 14 -52 21 -26 16 -204 77 -288 97 -33 9
-80 22 -105 31 -46 15 -204 51 -295 67 -125 21 -355 41 -520 46 -149 4 -222 0
-428 -21 -137 -15 -258 -31 -269 -37 -11 -6 -69 -19 -129 -30 -60 -10 -122
-25 -137 -33 -15 -8 -56 -20 -92 -27 -36 -7 -85 -23 -109 -36 -24 -13 -55 -23
-68 -23 -13 0 -49 -13 -80 -30 -31 -16 -63 -30 -71 -30 -17 0 -101 -38 -227
-103 -44 -22 -98 -50 -120 -61 -23 -12 -54 -30 -70 -42 -17 -11 -37 -23 -46
-26 -26 -10 -124 -75 -138 -92 -7 -9 -22 -16 -33 -16 -13 0 -24 12 -33 38 -8
20 -28 63 -45 94 -16 31 -30 62 -30 69 0 12 -61 148 -81 179 -5 8 -21 38 -35
65 -13 28 -40 75 -59 105 -19 30 -46 75 -60 100 -14 25 -37 61 -50 80 -13 19
-35 50 -47 68 -118 170 -212 284 -354 427 -122 123 -323 311 -356 333 -54 36
-135 92 -173 121 -22 17 -53 38 -70 47 -16 9 -38 24 -49 33 -17 15 -56 37
-142 80 -23 12 -47 27 -53 35 -7 8 -29 20 -49 27 -20 6 -49 20 -64 31 -15 10
-44 25 -65 32 -21 7 -54 23 -73 35 -19 11 -42 21 -51 21 -8 0 -37 11 -65 24
-27 14 -73 31 -103 40 -29 9 -59 20 -65 25 -6 5 -40 17 -74 26 -35 9 -85 24
-110 34 -26 10 -72 22 -102 26 -30 4 -82 16 -115 26 -76 23 -381 58 -595 69
-147 8 -439 -2 -459 -15 -5 -2 -73 -11 -153 -19 -79 -9 -165 -23 -189 -32 -24
-8 -82 -22 -128 -30 -47 -9 -100 -22 -120 -30 -19 -8 -63 -21 -99 -29 -35 -9
-76 -22 -91 -30 -14 -8 -48 -21 -76 -29 -78 -22 -235 -88 -328 -137 -21 -11
-56 -27 -78 -34 -22 -8 -54 -25 -72 -38 -38 -29 -73 -41 -81 -28 -3 5 -7 1475
-9 3268 -3 2978 -4 3269 -20 3383 -9 69 -21 180 -27 247 -5 67 -15 134 -21
150 -6 15 -19 87 -29 158 -11 72 -26 150 -35 175 -9 25 -22 77 -30 117 -8 39
-20 84 -28 100 -9 16 -20 54 -26 85 -5 32 -19 74 -29 95 -11 21 -23 54 -27 73
-4 19 -15 49 -25 66 -9 17 -23 48 -30 70 -7 21 -23 56 -36 76 -13 20 -26 49
-30 65 -4 15 -18 44 -31 63 -12 19 -23 40 -23 47 0 6 -11 25 -25 41 -14 17
-31 45 -37 64 -6 18 -22 47 -35 63 -54 67 -83 108 -83 118 0 6 -10 21 -21 33
-12 13 -27 32 -33 43 -20 35 -129 175 -215 276 -47 55 -130 144 -186 198 -116
115 -326 296 -370 321 -16 9 -50 32 -75 51 -25 19 -65 46 -90 60 -117 68 -139
81 -157 96 -10 9 -35 22 -55 28 -21 7 -40 16 -43 21 -13 21 -365 180 -480 218
-33 11 -73 24 -90 30 -16 6 -57 18 -90 26 -33 8 -80 21 -105 29 -93 30 -263
58 -495 81 -290 29 -460 37 -580 26z"/>
  </g>
</svg>