<svg xmlns="http://www.w3.org/2000/svg" viewBox="0 0 4096.000000 4096.000000">
  <g transform="translate(0.000000,4096.000000) scale(0.100000,-0.100000)" fill="#f4f5f7" stroke="none">
    <path d="M14510 40450 c-41 -5 -131 -13 -200 -19 -69 -6 -156 -18 -195 -26
-38 -9 -104 -20 -145 -26 -41 -6 -86 -17 -100 -24 -14 -7 -55 -19 -90 -25 -36
-6 -74 -17 -85 -24 -11 -7 -45 -19 -74 -25 -30 -6 -59 -16 -65 -20 -6 -5 -31
-14 -56 -20 -25 -6 -67 -22 -95 -36 -27 -13 -79 -36 -115 -50 -126 -52 -299
-143 -500 -265 -117 -71 -103 -62 -215 -137 -89 -59 -99 -66 -195 -146 -239
-198 -590 -583 -715 -785 -6 -10 -33 -51 -60 -94 -61 -93 -78 -122 -127 -217
-21 -41 -42 -79 -46 -85 -7 -10 -31 -60 -109 -236 -14 -30 -33 -73 -44 -96
-10 -23 -19 -50 -19 -60 0 -10 -7 -32 -16 -49 -9 -16 -23 -52 -30 -80 -13 -49
-35 -119 -74 -240 -11 -33 -20 -69 -20 -80 0 -11 -11 -65 -24 -120 -13 -55
-32 -156 -41 -225 -10 -69 -21 -147 -26 -175 -11 -69 -10 -675 1 -755 43 -316
59 -403 101 -565 6 -22 17 -67 26 -100 8 -33 23 -79 33 -101 10 -23 22 -59 26
-80 4 -22 13 -48 20 -59 7 -11 17 -39 24 -63 6 -24 20 -58 31 -75 10 -18 19
-38 19 -45 0 -13 52 -131 71 -162 5 -8 14 -25 19 -37 21 -48 32 -70 60 -118
16 -27 35 -61 42 -75 12 -22 45 -78 103 -174 69 -113 130 -195 276 -371 64
-77 179 -202 255 -277 148 -146 250 -232 492 -414 15 -11 70 -46 122 -78 52
-32 107 -67 122 -77 15 -11 38 -24 50 -29 13 -6 46 -23 73 -40 28 -16 73 -40
100 -54 28 -14 91 -48 140 -75 50 -27 124 -67 165 -88 41 -21 107 -57 145 -80
66 -39 139 -77 475 -251 196 -101 304 -159 397 -211 83 -47 184 -102 245 -132
20 -10 40 -28 43 -40 9 -28 -2 -222 -21 -359 -7 -58 -18 -184 -24 -280 -6 -96
-17 -229 -25 -295 -8 -66 -19 -200 -25 -297 -6 -97 -17 -230 -25 -295 -8 -65
-17 -172 -20 -238 -4 -66 -15 -199 -25 -295 -11 -96 -24 -254 -30 -350 -6 -97
-15 -202 -20 -235 -6 -33 -17 -163 -25 -290 -9 -126 -20 -264 -26 -305 -5 -41
-16 -171 -24 -287 -8 -117 -21 -266 -29 -330 -8 -65 -17 -185 -21 -268 -3 -82
-12 -204 -20 -270 -8 -66 -21 -223 -30 -350 -8 -126 -19 -257 -25 -290 -5 -33
-15 -143 -20 -245 -6 -102 -17 -238 -25 -304 -8 -65 -19 -202 -25 -305 -6
-102 -17 -231 -26 -286 -8 -55 -19 -179 -24 -275 -6 -96 -17 -229 -25 -295 -8
-66 -19 -196 -25 -290 -6 -93 -17 -217 -25 -275 -8 -58 -19 -193 -25 -300 -6
-107 -17 -244 -25 -305 -8 -60 -19 -195 -25 -300 -6 -104 -17 -239 -25 -300
-8 -60 -19 -191 -25 -290 -12 -209 -31 -371 -48 -402 -7 -13 -29 -27 -53 -33
-22 -6 -55 -20 -72 -31 -18 -10 -40 -19 -51 -19 -10 0 -33 -8 -50 -19 -17 -10
-47 -24 -67 -30 -20 -6 -53 -20 -74 -31 -22 -11 -46 -20 -55 -20 -8 0 -33 -12
-55 -25 -22 -14 -47 -25 -55 -25 -8 0 -31 -8 -50 -19 -19 -10 -46 -22 -60 -26
-14 -4 -43 -15 -65 -26 -22 -10 -74 -32 -115 -49 -41 -17 -93 -39 -115 -50
-22 -10 -53 -22 -70 -26 -16 -4 -41 -15 -55 -24 -14 -10 -40 -21 -59 -25 -19
-4 -48 -16 -65 -26 -17 -10 -38 -19 -47 -19 -9 0 -37 -11 -63 -25 -26 -14 -55
-25 -64 -25 -9 0 -38 -11 -64 -25 -26 -14 -53 -25 -60 -25 -8 0 -31 -9 -53
-20 -21 -11 -54 -25 -74 -31 -20 -7 -52 -20 -71 -30 -19 -11 -41 -19 -48 -19
-7 0 -35 -11 -62 -25 -27 -14 -55 -25 -62 -25 -7 0 -35 -12 -63 -25 -27 -14
-57 -25 -65 -25 -8 0 -33 -11 -55 -25 -22 -13 -49 -25 -60 -25 -11 0 -42 -12
-70 -25 -27 -14 -56 -25 -64 -25 -7 0 -28 -9 -45 -19 -17 -10 -46 -22 -65 -26
-19 -4 -54 -18 -79 -31 -25 -13 -52 -24 -61 -24 -9 0 -29 -9 -46 -20 -16 -11
-37 -20 -45 -20 -8 0 -42 -14 -75 -30 -33 -16 -68 -30 -77 -30 -9 0 -19 -4
-23 -9 -3 -5 -27 -17 -53 -27 -26 -10 -58 -25 -72 -35 -14 -9 -40 -20 -57 -24
-18 -3 -35 -11 -38 -15 -3 -5 -47 -30 -98 -55 -156 -78 -269 -148 -484 -298
-105 -73 -272 -216 -387 -332 -181 -182 -390 -444 -518 -650 -13 -22 -37 -58
-51 -81 -15 -22 -27 -45 -27 -51 0 -5 -22 -48 -50 -94 -27 -46 -50 -90 -50
-97 0 -8 -8 -26 -19 -40 -10 -15 -22 -38 -26 -52 -4 -14 -16 -39 -26 -56 -11
-17 -19 -38 -19 -46 0 -7 -9 -32 -20 -53 -12 -22 -28 -65 -37 -95 -9 -30 -22
-68 -28 -85 -27 -62 -84 -269 -106 -380 -5 -27 -19 -87 -29 -132 -11 -45 -27
-160 -35 -255 -9 -95 -20 -200 -25 -233 -6 -36 -10 -725 -10 -1716 0 -1437 2
-1669 15 -1755 9 -54 20 -133 25 -174 5 -41 14 -88 20 -105 7 -16 20 -64 30
-105 22 -89 43 -155 76 -231 13 -31 24 -62 24 -69 0 -6 8 -24 19 -38 10 -15
22 -38 26 -52 4 -14 17 -41 29 -60 42 -68 46 -75 66 -113 31 -56 148 -227 188
-272 102 -117 309 -316 369 -356 15 -10 42 -29 59 -41 35 -25 129 -88 184
-123 114 -73 363 -180 505 -217 22 -6 71 -19 109 -30 38 -11 113 -24 165 -29
53 -6 125 -15 161 -22 49 -9 1101 -12 4244 -14 3448 -1 4180 -4 4187 -15 5 -7
9 -1865 9 -4128 0 -2757 4 -4145 10 -4205 6 -49 19 -117 29 -150 11 -34 22
-88 26 -120 5 -33 16 -83 25 -111 10 -27 21 -75 25 -105 4 -30 15 -81 25 -114
9 -33 21 -86 25 -119 4 -32 13 -77 22 -100 8 -22 19 -68 23 -101 5 -33 18 -94
29 -135 27 -101 51 -204 63 -265 5 -27 19 -84 30 -125 12 -41 25 -104 29 -140
5 -36 15 -81 23 -101 8 -19 19 -70 25 -113 6 -42 15 -85 21 -96 5 -10 16 -58
25 -106 8 -49 22 -107 30 -129 8 -22 19 -67 24 -100 8 -55 25 -133 68 -305 9
-36 20 -92 25 -125 6 -33 17 -80 25 -105 8 -25 21 -79 28 -120 8 -41 20 -94
28 -116 9 -23 18 -68 22 -100 4 -33 14 -75 21 -94 8 -19 20 -69 28 -110 14
-77 31 -150 71 -305 13 -49 26 -112 30 -140 4 -27 13 -69 21 -92 8 -23 20 -75
28 -115 7 -40 21 -102 29 -138 34 -135 48 -198 67 -304 11 -64 26 -116 36
-127 10 -11 28 -19 41 -19 28 0 43 32 43 93 0 23 9 72 19 110 11 37 25 102 31
143 7 42 18 93 25 114 7 21 18 73 25 116 6 44 17 95 24 114 8 19 17 60 21 90
4 30 18 88 31 128 13 40 24 88 24 106 0 18 6 49 14 68 8 19 20 66 26 104 6 38
20 98 30 134 18 62 36 144 66 295 8 39 23 99 33 135 11 36 22 88 26 115 3 28
13 71 21 96 8 25 21 79 28 120 8 41 21 103 30 139 35 142 48 197 58 245 5 28
17 77 25 110 8 33 19 83 25 110 5 28 18 82 28 121 11 40 25 105 31 145 6 41
17 85 24 99 7 14 18 61 25 105 7 44 18 95 26 113 7 18 16 57 20 85 3 29 14 79
24 112 10 33 22 85 26 115 3 30 14 82 24 115 10 33 23 95 29 138 6 43 17 93
25 112 8 18 18 60 22 92 4 32 13 76 21 98 7 22 20 81 28 131 9 51 22 112 31
136 8 23 19 88 24 142 6 61 10 1697 10 4212 0 3670 2 4113 15 4124 13 11 844
13 4198 14 l4182 1 168 23 c92 12 186 29 210 36 23 8 58 17 77 21 70 14 309
101 355 130 11 7 31 16 45 20 14 4 41 18 60 30 19 12 76 46 125 75 105 62 110
65 263 191 64 53 146 127 182 165 109 115 244 290 291 379 12 22 27 47 34 55
17 19 115 212 115 225 0 5 11 32 24 60 25 53 51 123 68 190 6 22 19 69 30 105
11 36 26 108 33 160 7 52 18 124 24 160 16 91 9 3561 -7 3640 -6 30 -16 107
-22 171 -5 64 -17 135 -25 158 -8 23 -19 78 -25 122 -5 44 -14 87 -18 97 -5 9
-15 42 -21 72 -24 113 -96 334 -132 402 -10 20 -19 42 -19 49 0 11 -46 116
-72 164 -19 35 -26 48 -63 125 -56 114 -109 211 -136 245 -8 11 -32 49 -54 84
-98 164 -350 462 -541 641 -173 162 -268 238 -434 347 -30 19 -66 44 -80 54
-14 10 -38 26 -55 34 -16 8 -50 28 -75 45 -25 16 -86 50 -137 75 -51 25 -95
50 -98 55 -3 4 -20 12 -38 15 -17 4 -48 16 -67 26 -19 10 -66 32 -105 49 -38
17 -83 38 -100 47 -16 8 -50 21 -75 28 -25 7 -83 30 -130 50 -47 20 -100 41
-119 47 -19 5 -51 19 -70 29 -20 10 -42 19 -49 19 -7 0 -35 11 -62 25 -27 14
-55 25 -62 25 -7 0 -26 7 -43 16 -27 15 -95 42 -200 80 -22 8 -56 23 -76 34
-20 11 -43 20 -51 20 -7 0 -29 8 -48 19 -19 10 -51 23 -71 30 -20 6 -53 20
-74 31 -22 11 -45 20 -52 20 -6 0 -33 11 -59 25 -26 14 -54 25 -63 25 -9 0
-38 12 -66 25 -27 14 -57 25 -65 25 -8 0 -29 9 -46 19 -17 10 -46 22 -65 26
-19 4 -59 19 -89 32 -30 14 -73 33 -95 43 -22 10 -51 22 -65 26 -14 3 -36 14
-50 24 -14 10 -41 21 -60 25 -19 4 -46 16 -59 26 -13 11 -31 19 -41 19 -9 0
-38 11 -64 25 -26 14 -53 25 -59 25 -7 0 -30 9 -52 20 -21 11 -54 25 -74 31
-20 6 -45 17 -56 24 -11 6 -38 18 -60 25 -22 7 -56 21 -75 31 -19 11 -41 19
-48 19 -8 0 -35 11 -61 24 -25 14 -60 30 -77 36 -36 13 -54 45 -54 98 0 20 -7
75 -15 122 -8 47 -20 173 -25 281 -6 107 -17 247 -25 310 -9 63 -20 194 -25
292 -6 98 -17 231 -25 295 -8 64 -19 201 -25 303 -5 102 -17 235 -25 296 -8
61 -17 160 -20 219 -4 60 -15 195 -26 300 -10 106 -23 265 -29 355 -6 90 -15
191 -20 224 -6 33 -15 128 -20 210 -6 83 -19 238 -30 345 -11 107 -25 273 -30
368 -6 96 -15 195 -20 220 -5 26 -14 137 -20 247 -6 110 -20 279 -30 375 -11
96 -22 238 -26 315 -3 77 -14 210 -24 295 -11 85 -22 214 -25 285 -4 72 -13
175 -21 230 -8 55 -19 181 -24 280 -6 99 -19 257 -30 350 -10 94 -22 233 -25
310 -3 77 -12 190 -20 250 -8 61 -22 214 -30 340 -8 127 -19 257 -25 290 -5
33 -14 148 -20 255 -6 107 -17 249 -25 315 -8 66 -19 206 -25 310 -5 105 -17
263 -26 352 -9 89 -14 173 -10 187 7 27 37 47 181 120 50 26 97 51 105 56 8 5
31 17 50 25 19 9 58 29 85 44 46 26 199 107 264 139 14 7 33 17 41 23 8 5 38
20 65 34 28 14 64 32 80 41 17 8 37 19 45 25 8 5 38 20 65 34 28 13 57 29 65
35 8 5 26 15 40 21 14 5 48 23 75 39 28 16 68 38 90 50 278 143 575 308 691
384 162 106 311 213 404 290 86 71 319 305 435 437 58 66 143 173 204 259 30
41 62 86 72 100 19 26 84 134 130 218 14 26 37 67 50 92 40 71 45 81 78 149
17 35 31 69 31 76 0 7 6 18 14 24 8 7 18 27 21 44 4 18 14 43 22 55 14 22 35
77 70 182 8 25 23 65 33 90 10 25 25 72 33 105 9 33 20 78 26 100 34 130 55
231 67 310 7 50 19 133 28 187 34 217 29 764 -8 959 -8 41 -17 106 -21 144 -4
39 -15 99 -25 135 -10 36 -22 88 -26 115 -3 28 -12 61 -19 75 -7 14 -19 54
-25 90 -7 36 -21 81 -30 100 -10 19 -20 52 -24 73 -4 21 -16 53 -27 70 -10 18
-19 40 -19 50 0 25 -46 127 -162 359 -34 71 -75 149 -90 175 -15 27 -36 66
-46 88 -11 22 -27 46 -36 54 -9 7 -16 17 -16 22 0 20 -132 209 -224 320 -164
198 -331 373 -497 520 -90 80 -216 177 -278 214 -10 6 -51 32 -92 59 -41 27
-90 59 -109 70 -19 12 -44 27 -55 34 -11 6 -40 23 -65 37 -123 69 -170 94
-191 100 -13 5 -35 15 -48 24 -29 18 -122 58 -171 73 -19 6 -46 18 -60 28 -14
10 -41 21 -60 25 -19 4 -51 15 -70 25 -19 9 -52 20 -72 24 -21 4 -57 16 -80
26 -24 11 -56 20 -71 20 -15 0 -55 9 -88 20 -33 12 -97 25 -142 31 -45 5 -104
17 -132 25 -27 8 -150 23 -273 34 -219 20 -320 20 -6105 19 -3235 -1 -5916 -5
-5957 -9z m11942 -2154 c64 -8 132 -21 151 -30 20 -8 58 -18 84 -22 26 -3 68
-17 93 -30 25 -13 52 -24 60 -24 9 0 25 -7 37 -15 12 -8 50 -30 85 -49 58 -30
100 -57 215 -134 77 -52 274 -257 343 -358 42 -61 87 -132 98 -154 6 -14 16
-32 21 -40 21 -34 71 -150 71 -165 0 -9 7 -29 15 -46 20 -38 65 -206 77 -289
12 -83 12 -412 0 -510 -11 -87 -51 -246 -83 -328 -24 -63 -65 -156 -82 -187
-6 -11 -17 -33 -26 -50 -13 -27 -49 -84 -98 -155 -28 -41 -112 -141 -166 -199
-77 -82 -317 -273 -379 -302 -13 -6 -49 -25 -80 -42 -59 -33 -319 -168 -373
-194 -16 -8 -37 -19 -45 -24 -8 -5 -33 -18 -55 -29 -22 -11 -67 -35 -100 -54
-33 -19 -97 -54 -142 -78 -46 -24 -104 -55 -130 -69 -27 -15 -84 -46 -128 -69
-44 -23 -107 -56 -140 -75 -33 -18 -96 -52 -140 -75 -44 -23 -87 -47 -95 -54
-8 -6 -31 -19 -50 -29 -19 -9 -42 -21 -50 -26 -19 -13 -66 -36 -110 -56 -19
-8 -42 -20 -50 -25 -8 -5 -60 -32 -115 -60 -55 -27 -107 -54 -115 -59 -8 -5
-71 -37 -140 -71 -201 -100 -248 -126 -330 -184 -68 -49 -199 -180 -263 -264
-60 -78 -126 -208 -169 -332 l-33 -95 1 -255 c1 -172 7 -296 18 -382 9 -71 21
-210 27 -310 5 -101 16 -235 24 -298 9 -63 20 -200 25 -305 6 -104 17 -236 25
-291 8 -56 19 -185 25 -285 5 -101 17 -231 25 -289 8 -58 19 -188 25 -290 6
-102 17 -237 25 -300 8 -63 19 -205 25 -315 6 -110 17 -252 25 -315 8 -63 19
-191 25 -285 6 -93 17 -222 25 -285 8 -63 19 -205 25 -315 6 -110 15 -220 20
-245 5 -25 14 -119 20 -210 6 -91 20 -250 30 -355 11 -104 24 -274 30 -376 6
-103 15 -211 20 -240 6 -30 17 -157 25 -284 8 -126 21 -286 29 -355 8 -69 17
-186 21 -260 3 -74 14 -218 25 -320 10 -102 24 -257 30 -345 6 -88 15 -191 20
-230 5 -38 14 -155 20 -260 6 -104 18 -235 26 -290 8 -55 19 -185 25 -290 5
-104 16 -239 24 -300 8 -60 20 -200 25 -310 6 -110 17 -243 25 -296 8 -53 19
-181 25 -285 6 -104 17 -234 25 -289 8 -55 19 -182 24 -281 6 -100 17 -224 25
-275 8 -52 18 -134 21 -184 7 -95 51 -268 84 -332 10 -21 24 -49 31 -63 44
-98 104 -176 225 -295 106 -104 209 -174 335 -228 36 -15 83 -36 105 -47 22
-10 59 -24 82 -30 23 -6 45 -15 48 -20 3 -5 29 -16 58 -24 28 -8 70 -24 92
-36 21 -11 45 -20 52 -20 7 0 27 -9 45 -20 18 -11 40 -20 48 -20 8 0 42 -14
75 -30 33 -16 67 -30 75 -30 8 0 29 -9 45 -20 17 -11 36 -20 44 -20 8 0 37
-11 65 -24 126 -58 163 -74 186 -81 14 -4 41 -16 60 -26 19 -11 41 -19 48 -19
7 0 34 -11 60 -25 26 -14 53 -25 60 -25 7 0 34 -11 60 -25 26 -14 53 -25 60
-25 7 0 27 -8 45 -17 18 -9 52 -25 77 -34 25 -9 74 -28 110 -42 36 -14 95 -37
131 -50 36 -13 72 -28 80 -33 14 -8 58 -26 167 -64 29 -11 62 -26 74 -35 13
-8 30 -15 39 -15 9 0 36 -11 61 -24 25 -13 60 -27 78 -31 18 -4 47 -16 64 -26
17 -10 38 -19 46 -19 8 0 36 -11 62 -25 26 -14 52 -25 59 -25 7 0 35 -11 63
-24 124 -57 167 -76 178 -76 6 0 36 -12 67 -26 139 -66 159 -74 171 -74 7 0
31 -9 54 -20 74 -35 184 -80 196 -80 6 0 28 -9 48 -19 35 -19 107 -52 182 -86
35 -15 81 -42 136 -79 16 -11 45 -30 65 -43 54 -35 205 -174 261 -240 41 -48
106 -142 186 -268 7 -11 19 -36 27 -55 9 -19 24 -53 35 -75 17 -37 38 -96 60
-170 15 -50 39 -197 50 -301 7 -66 10 -627 8 -1684 l-3 -1585 -23 -38 c-13
-20 -34 -43 -45 -50 -18 -9 -1951 -13 -9302 -15 -5104 -2 -9313 0 -9353 3 -71
7 -73 8 -110 52 l-37 46 0 1611 0 1611 23 145 c13 80 30 165 39 190 8 25 20
68 27 95 7 28 23 68 35 90 11 22 21 45 21 52 0 7 10 28 23 47 12 19 35 57 52
83 67 109 135 194 234 293 59 58 119 114 135 125 17 11 41 29 55 41 14 12 40
29 56 38 17 10 48 28 70 42 22 13 56 31 75 39 62 28 144 67 181 86 20 10 43
19 50 19 8 0 35 11 61 25 26 14 53 25 60 25 7 0 34 11 60 25 26 14 53 25 60
25 7 0 34 11 60 25 26 14 53 25 60 25 7 0 34 11 60 25 26 14 54 25 63 25 8 0
36 11 62 24 86 43 160 76 172 76 7 0 33 11 59 25 26 14 53 25 61 25 7 0 28 9
45 19 17 10 47 22 66 26 19 4 46 14 58 22 13 8 47 23 75 33 146 52 172 63 191
76 11 8 30 14 41 14 11 0 34 7 50 16 29 16 107 47 213 84 29 11 62 26 74 35
13 8 31 15 41 15 10 0 39 11 65 25 26 14 53 25 60 25 7 0 35 11 62 25 27 14
55 25 62 25 7 0 34 11 60 25 26 14 53 25 60 25 7 0 36 12 63 25 28 14 57 25
65 25 8 0 30 9 48 20 18 11 38 20 44 20 6 0 41 13 77 29 36 16 95 41 131 55
36 15 82 35 102 46 20 11 43 20 50 20 8 0 32 9 53 20 22 12 63 29 90 40 170
63 253 99 429 186 126 62 183 99 264 171 84 74 210 226 244 294 44 91 66 142
73 179 4 19 14 48 22 64 9 17 24 95 34 175 10 81 21 152 24 160 3 8 10 98 15
200 6 102 17 242 25 311 8 69 20 206 25 305 6 99 17 232 25 295 8 63 19 193
25 289 5 96 17 225 25 288 8 63 20 199 25 304 6 104 17 236 25 292 7 56 16
167 20 247 3 80 15 226 26 325 10 99 23 256 29 348 5 92 16 225 24 295 8 70
20 206 26 303 6 96 15 202 20 235 5 32 16 163 25 289 8 127 21 282 29 345 8
63 17 178 21 255 3 77 12 187 21 245 8 58 21 211 30 339 8 129 19 253 24 275
5 23 15 131 20 241 6 110 18 247 26 305 8 58 19 182 25 275 5 94 16 220 24
280 8 61 19 198 25 305 6 107 18 242 26 300 8 58 19 193 24 300 10 201 14 249
31 360 5 36 13 148 19 250 5 102 16 230 24 285 8 55 20 183 26 285 5 102 17
235 25 295 8 61 19 196 25 302 6 106 15 218 20 250 6 32 14 123 20 203 5 80
15 206 21 280 9 113 8 156 -5 267 -10 77 -24 149 -36 175 -11 24 -20 49 -20
57 0 19 -50 130 -74 166 -12 17 -28 42 -36 56 -41 72 -80 122 -164 204 -81 81
-117 109 -231 180 -16 11 -131 70 -255 133 -124 62 -232 119 -240 127 -8 7
-27 17 -43 20 -15 4 -30 11 -32 16 -3 4 -47 29 -98 54 -51 25 -114 58 -142 73
-49 28 -80 45 -120 66 -11 5 -41 22 -66 36 -26 14 -82 44 -125 68 -44 24 -86
47 -94 53 -8 5 -33 18 -55 30 -22 11 -62 33 -90 49 -27 16 -60 34 -72 39 -13
6 -33 16 -45 21 -13 6 -41 22 -63 35 -22 14 -62 36 -90 50 -27 14 -93 48 -145
77 -52 28 -138 73 -190 99 -52 27 -99 54 -104 59 -6 6 -17 10 -26 10 -8 0 -32
11 -52 25 -20 14 -43 25 -49 25 -7 0 -29 11 -48 23 -20 13 -58 38 -86 55 -81
51 -112 73 -203 148 -129 105 -250 240 -336 374 -16 25 -36 56 -45 70 -36 53
-81 138 -81 152 0 9 -8 26 -19 39 -10 13 -22 40 -26 59 -4 19 -15 51 -25 70
-10 19 -21 55 -25 80 -4 25 -16 72 -27 105 -17 49 -21 98 -25 275 -5 209 5
370 27 411 5 9 16 45 24 80 23 101 63 208 112 299 7 14 23 45 34 69 21 44 101
172 127 201 7 8 39 47 71 85 31 39 73 87 92 106 44 44 205 179 214 179 4 0 28
15 54 33 47 32 172 96 267 136 45 19 124 43 240 72 22 5 92 13 155 18 63 4
2736 9 5940 10 5014 1 5842 -1 5942 -13z"/>
  </g>
</svg>