<svg xmlns="http://www.w3.org/2000/svg" viewBox="0 0 4096.000000 4096.000000">
  <g transform="translate(0.000000,4096.000000) scale(0.100000,-0.100000)" fill="#f4f5f7" stroke="none">
    <path d="M7730 40330 c-36 -4 -92 -15 -125 -23 -33 -9 -107 -23 -165 -31 -58
-8 -123 -22 -143 -31 -21 -8 -71 -22 -111 -30 -41 -7 -92 -22 -113 -33 -21
-11 -63 -25 -93 -31 -30 -7 -69 -20 -87 -31 -18 -11 -52 -24 -75 -31 -24 -6
-50 -17 -59 -25 -9 -8 -41 -24 -70 -35 -30 -11 -63 -29 -74 -39 -11 -9 -37
-23 -57 -29 -20 -7 -53 -25 -74 -42 -20 -16 -42 -29 -49 -29 -6 0 -29 -13 -51
-30 -21 -16 -43 -30 -49 -30 -5 0 -29 -15 -52 -33 -23 -17 -65 -48 -93 -67
-70 -48 -307 -250 -405 -346 -103 -101 -307 -341 -335 -394 -7 -14 -25 -39
-39 -56 -14 -18 -39 -55 -56 -84 -16 -28 -41 -68 -54 -88 -35 -54 -67 -109
-101 -177 -16 -33 -36 -71 -44 -85 -27 -47 -85 -185 -96 -229 -7 -24 -18 -54
-25 -65 -8 -12 -23 -61 -35 -109 -11 -49 -27 -101 -35 -117 -8 -16 -19 -62
-25 -102 -5 -40 -21 -120 -34 -178 -15 -64 -31 -187 -41 -315 -16 -197 -17
-1219 -17 -16777 1 -11531 5 -16627 12 -16764 14 -266 26 -381 44 -432 9 -24
23 -85 31 -135 9 -51 26 -117 39 -147 13 -30 27 -80 30 -110 4 -30 16 -70 27
-89 11 -18 26 -60 33 -92 8 -32 23 -73 34 -91 11 -18 26 -54 32 -80 7 -26 18
-52 26 -58 7 -7 21 -35 30 -63 9 -29 27 -65 39 -82 13 -16 28 -47 34 -67 7
-21 17 -41 23 -44 6 -4 21 -30 33 -58 13 -29 30 -58 40 -66 9 -7 23 -27 31
-44 24 -52 87 -137 227 -310 156 -192 298 -330 502 -491 185 -146 214 -167
262 -190 17 -8 34 -19 38 -24 3 -5 29 -23 58 -39 28 -16 86 -48 127 -71 41
-24 98 -52 127 -62 28 -11 56 -26 63 -34 6 -8 36 -21 66 -30 29 -8 68 -24 86
-34 18 -11 49 -22 68 -26 19 -4 58 -18 87 -31 28 -13 76 -29 105 -35 29 -6 87
-21 128 -34 41 -13 111 -28 155 -35 44 -6 103 -18 131 -26 92 -25 243 -36 524
-35 302 0 460 11 561 40 36 10 99 22 140 26 41 4 99 18 130 31 31 13 87 28
124 34 37 6 84 19 105 30 20 10 59 24 86 31 27 7 67 23 90 35 22 13 47 24 55
24 8 0 50 17 94 39 44 21 119 58 167 81 48 23 92 47 98 55 6 7 23 16 37 20 15
3 42 20 60 36 19 16 38 29 44 29 10 0 85 48 155 100 23 16 46 30 52 30 6 0 23
11 39 24 15 13 44 31 63 40 19 9 60 33 91 54 69 46 112 73 169 107 25 15 60
36 79 48 92 59 221 139 261 164 25 15 58 37 73 50 16 13 34 23 42 23 7 0 18 7
26 16 7 8 31 25 53 36 23 11 51 29 62 40 12 11 35 27 51 36 48 27 93 55 127
79 17 12 50 32 74 44 23 12 42 25 42 29 0 4 17 16 38 27 35 18 77 43 166 102
21 14 46 30 57 36 17 9 166 108 234 155 89 61 135 90 143 90 5 0 26 12 45 28
20 15 65 44 99 65 35 21 78 48 97 60 19 12 48 31 65 42 17 11 47 29 65 40 18
11 47 30 65 42 17 13 49 31 71 41 22 11 47 27 54 36 8 10 30 24 49 31 18 8 46
25 62 37 15 13 42 32 60 43 56 34 114 69 149 90 19 11 48 32 65 46 17 15 49
36 71 48 22 12 56 33 75 46 19 13 49 34 65 45 17 12 55 36 85 55 100 60 174
108 217 137 23 15 44 28 48 28 4 0 25 13 48 28 113 76 138 92 147 92 4 0 21
11 37 24 15 13 46 33 68 45 87 48 134 77 152 93 10 9 29 23 43 30 14 7 66 40
115 72 50 33 117 76 150 97 33 21 71 47 85 58 14 10 41 26 60 35 19 8 46 24
60 34 14 11 52 36 85 57 33 22 77 50 99 64 21 14 46 30 56 36 9 5 37 23 61 39
47 31 180 118 264 171 92 58 170 108 213 136 23 16 47 29 52 29 5 0 24 13 42
28 18 15 44 33 58 40 14 6 36 20 50 30 14 11 59 39 100 63 41 24 93 56 114 71
21 16 45 28 51 28 7 0 18 7 26 16 7 8 33 26 58 40 25 13 57 32 71 43 25 18
115 77 180 116 19 12 55 35 79 51 24 16 51 33 60 39 73 45 221 141 241 157 14
10 44 27 66 38 23 11 47 27 54 35 7 8 31 24 54 35 40 20 85 49 138 90 15 11
42 27 60 34 18 8 42 24 52 35 11 12 25 21 32 21 7 0 25 11 41 24 15 13 44 31
63 41 19 10 46 27 60 37 14 11 57 39 95 63 39 24 81 52 95 63 14 11 43 29 65
41 22 12 60 35 85 51 25 17 58 38 74 48 15 9 42 27 60 39 17 13 47 30 66 39
19 9 50 29 68 45 18 16 38 29 45 29 7 1 28 14 47 30 19 17 39 30 46 30 6 0 27
12 47 28 19 15 50 36 68 47 18 11 53 34 79 50 26 17 61 39 80 50 18 11 44 29
59 41 14 12 42 29 61 39 19 9 44 25 55 35 11 10 31 24 46 31 39 22 88 52 123
76 17 12 51 34 76 48 25 14 59 36 77 48 17 12 55 36 83 52 29 17 65 40 80 53
16 12 44 29 63 37 20 8 39 19 42 25 4 6 27 22 53 36 26 13 63 36 82 49 114 79
216 145 224 145 8 0 99 60 140 92 17 13 43 29 59 35 16 7 41 23 57 35 26 22
40 31 135 88 90 54 108 66 148 97 23 18 47 33 52 33 6 0 26 13 45 30 19 16 40
29 47 30 6 0 24 11 40 24 15 13 46 33 68 45 22 11 51 29 65 40 14 10 50 34 80
53 30 19 68 44 84 54 16 10 48 30 72 44 23 14 55 34 71 44 68 47 191 125 223
141 19 10 49 29 66 41 17 13 35 24 40 24 5 0 28 15 51 33 23 17 61 43 84 57
55 33 166 103 204 130 17 12 62 41 100 65 39 24 81 52 95 63 14 11 43 29 65
41 22 12 59 34 81 49 23 15 64 40 90 56 27 16 58 37 69 46 11 9 56 38 100 65
44 26 105 64 136 84 77 50 112 73 151 96 18 11 46 29 64 40 17 11 45 29 63 40
18 11 47 30 65 42 17 13 47 30 66 40 19 10 50 30 68 45 18 16 37 28 41 28 5 0
31 15 59 33 27 17 73 46 102 62 29 17 66 42 84 56 17 15 42 30 56 34 14 4 36
17 50 27 28 21 108 74 149 98 40 24 203 130 231 151 14 10 43 29 65 40 22 12
53 32 68 45 16 13 33 24 38 24 10 0 97 56 143 92 16 13 41 30 56 38 48 28 92
55 124 77 17 12 52 33 77 47 25 13 51 32 58 40 8 9 19 16 26 16 8 0 26 11 42
24 15 13 49 33 75 45 25 12 54 31 64 42 9 10 23 19 30 19 7 0 25 11 41 24 15
13 44 31 63 41 19 10 46 27 60 37 14 11 97 66 185 124 88 57 174 113 190 124
77 52 153 100 160 100 4 0 25 13 48 28 23 16 69 46 102 67 33 21 71 46 85 55
14 10 43 27 65 39 22 12 54 32 72 44 17 12 55 36 83 52 29 17 70 45 92 63 22
17 44 32 49 32 9 0 91 52 139 88 14 10 36 25 50 32 14 7 41 26 60 42 19 15 40
28 46 28 6 0 28 13 49 30 20 16 45 32 56 35 20 7 105 60 149 93 14 11 43 29
65 41 22 12 56 33 75 46 146 102 290 195 299 195 5 0 22 11 38 24 15 13 47 33
71 45 23 12 42 25 42 29 0 5 19 18 43 30 23 12 56 32 73 45 39 27 86 56 133
81 20 10 49 29 64 42 16 13 34 24 41 24 7 0 21 9 32 21 10 12 37 30 59 41 22
12 51 28 65 38 44 30 147 94 200 125 29 17 64 39 78 51 15 12 43 29 62 39 19
10 46 26 60 37 14 11 57 39 95 63 39 24 84 53 100 65 17 12 62 41 100 65 39
24 81 52 95 62 13 10 38 24 53 30 16 7 42 24 59 38 16 14 33 25 38 25 5 0 51
28 103 63 52 34 109 71 127 82 19 11 52 31 75 45 94 57 109 66 134 86 14 12
42 29 61 39 19 10 48 28 63 41 16 13 33 24 39 24 5 0 28 13 51 28 113 76 138
92 146 92 5 0 28 16 51 35 23 19 48 35 55 35 7 0 26 11 42 24 15 13 44 31 63
40 19 9 62 36 95 61 33 24 80 56 105 70 25 14 64 38 86 53 23 15 54 36 70 46
16 10 53 34 82 52 28 19 78 51 110 71 31 20 76 49 99 65 23 15 44 28 47 28 7
0 98 59 138 90 15 11 42 27 60 34 18 8 46 25 62 37 30 24 45 32 134 81 28 15
53 32 57 38 3 6 25 20 48 32 23 11 53 29 67 40 44 33 129 88 137 88 5 0 25 13
45 30 20 16 46 34 59 40 13 6 38 21 55 33 18 12 47 31 65 42 45 28 121 76 155
99 136 92 170 114 205 133 23 12 49 29 58 36 9 8 32 23 51 32 19 10 47 27 62
39 14 12 56 39 92 61 37 22 83 52 103 68 19 15 41 27 48 27 7 0 29 12 48 28
20 15 62 43 93 62 31 19 99 63 151 98 53 34 99 62 103 62 5 0 21 10 37 23 15
13 50 36 76 53 72 43 128 76 166 99 18 11 45 29 60 41 14 12 42 29 61 39 19
10 48 28 63 41 16 13 33 24 38 24 9 0 91 52 139 88 14 11 41 27 60 37 19 10
46 26 60 37 50 38 145 98 156 98 6 0 17 7 25 16 7 8 31 25 53 36 23 11 53 30
67 42 15 11 41 30 59 41 19 11 56 34 84 52 28 18 72 43 97 57 25 13 51 32 59
41 7 9 27 23 44 31 17 8 45 24 62 37 18 12 47 31 65 42 18 11 48 29 65 40 18
11 54 33 81 49 26 17 60 40 75 52 16 13 38 26 50 30 13 4 39 20 58 35 19 16
40 29 47 29 6 0 24 11 40 24 15 13 44 32 64 42 48 26 95 54 133 81 17 13 45
29 62 38 18 8 45 25 60 38 16 13 56 41 89 63 33 21 76 51 95 65 57 42 181 135
240 180 76 58 327 277 430 374 158 149 327 337 455 505 22 29 52 67 66 84 22
26 99 135 148 210 8 11 27 40 43 63 15 23 28 44 28 47 0 4 15 28 33 55 17 27
41 64 52 82 69 116 87 149 106 189 11 25 26 52 33 60 8 8 21 38 30 67 10 28
23 57 31 63 8 6 22 35 31 63 9 29 25 63 34 77 10 14 23 45 30 69 6 23 24 68
39 99 16 32 32 75 36 97 4 22 15 54 25 70 10 17 23 56 29 87 5 32 20 78 31
103 12 26 27 81 35 123 7 42 21 97 30 122 9 25 22 90 30 145 8 56 23 139 34
185 11 47 27 171 36 275 9 105 21 240 26 300 11 114 5 360 -11 500 -5 44 -15
145 -20 224 -6 79 -22 189 -35 245 -13 56 -27 130 -30 165 -4 36 -18 94 -30
131 -12 37 -26 91 -30 121 -4 30 -18 81 -30 114 -13 33 -31 90 -39 128 -9 37
-22 77 -30 90 -8 12 -19 46 -25 76 -6 30 -21 69 -32 87 -11 18 -27 56 -35 86
-9 29 -25 65 -36 80 -10 15 -25 49 -33 76 -8 27 -22 55 -29 62 -8 6 -22 33
-31 59 -8 26 -27 63 -40 81 -14 19 -25 41 -25 50 0 9 -13 34 -29 56 -16 21
-32 50 -36 64 -4 14 -18 37 -31 52 -12 16 -26 38 -30 50 -7 22 -54 98 -92 148
-11 14 -26 39 -35 57 -9 17 -23 37 -30 45 -7 7 -22 27 -33 43 -30 48 -138 193
-201 273 -84 105 -243 292 -294 343 -134 136 -446 411 -564 499 -28 20 -56 44
-64 53 -7 10 -19 17 -27 17 -7 0 -28 13 -46 28 -18 15 -44 36 -58 45 -14 10
-43 31 -65 48 -64 47 -144 102 -190 129 -24 14 -51 33 -62 42 -10 9 -35 23
-55 31 -21 9 -38 21 -38 26 0 6 -21 22 -47 36 -27 14 -68 39 -93 55 -25 16
-69 44 -98 62 -127 79 -151 94 -178 112 -16 10 -54 35 -84 54 -30 19 -66 43
-80 53 -14 11 -46 30 -72 44 -26 13 -49 29 -53 35 -3 6 -23 17 -43 26 -20 8
-45 22 -55 32 -22 19 -93 62 -153 92 -23 11 -47 27 -54 35 -8 9 -29 23 -48 30
-18 8 -47 26 -64 40 -16 14 -36 25 -43 25 -8 0 -30 14 -48 30 -19 16 -38 30
-42 30 -7 0 -82 47 -160 100 -98 66 -136 90 -144 90 -5 0 -28 16 -51 35 -23
19 -47 35 -53 35 -7 1 -28 14 -47 30 -19 17 -40 30 -46 30 -7 0 -31 16 -54 35
-23 19 -47 35 -54 35 -7 0 -23 11 -36 25 -13 14 -29 25 -35 25 -6 0 -33 14
-61 32 -27 18 -61 39 -75 47 -63 38 -93 57 -123 78 -17 13 -50 31 -72 42 -23
11 -45 24 -49 30 -3 6 -27 23 -53 37 -48 25 -97 57 -143 93 -15 12 -35 24 -45
28 -21 7 -104 60 -146 93 -15 11 -42 27 -61 35 -18 7 -40 21 -48 31 -7 9 -32
25 -54 36 -40 19 -86 48 -139 90 -17 13 -44 29 -60 36 -17 7 -41 22 -52 33
-12 11 -35 28 -51 37 -48 27 -93 55 -127 79 -17 12 -50 32 -73 44 -24 12 -43
24 -43 29 0 4 -22 19 -49 33 -27 15 -54 34 -61 42 -7 8 -18 15 -25 15 -7 0
-33 16 -58 35 -25 19 -48 35 -52 35 -3 0 -27 15 -54 33 -52 35 -100 64 -140
86 -15 7 -35 22 -46 32 -11 10 -38 25 -60 34 -21 9 -53 28 -70 41 -18 13 -36
24 -41 24 -5 0 -27 14 -48 30 -22 17 -45 30 -52 30 -8 0 -28 13 -46 28 -37 31
-151 102 -165 102 -5 0 -24 13 -43 29 -19 15 -48 36 -65 45 -16 9 -46 28 -65
41 -19 13 -48 34 -65 45 -16 12 -61 41 -100 65 -38 24 -81 52 -95 63 -14 11
-43 28 -66 40 -22 11 -46 28 -53 36 -8 9 -19 16 -26 16 -7 0 -25 10 -40 23
-27 21 -51 36 -165 102 -25 14 -72 44 -105 65 -33 22 -81 51 -106 64 -25 13
-51 32 -58 40 -8 9 -32 24 -55 34 -22 11 -47 26 -55 35 -7 10 -19 17 -26 17
-7 0 -29 12 -48 28 -20 15 -66 45 -102 67 -36 22 -82 52 -102 68 -20 15 -42
27 -49 27 -7 0 -28 13 -46 28 -18 16 -47 34 -65 41 -17 7 -40 22 -50 33 -9 11
-31 26 -48 34 -16 8 -44 24 -61 37 -34 24 -83 54 -123 76 -15 7 -37 24 -51 36
-14 13 -41 31 -60 40 -19 10 -46 26 -60 37 -37 28 -129 88 -135 88 -2 0 -39
24 -81 53 -42 28 -84 56 -93 62 -43 25 -129 80 -151 96 -14 11 -43 28 -65 40
-22 12 -48 29 -59 38 -18 16 -61 40 -151 84 -27 14 -59 34 -69 46 -11 11 -24
21 -31 21 -6 0 -27 12 -46 26 -61 46 -164 109 -271 168 -26 14 -49 30 -52 35
-3 4 -38 28 -78 52 -40 24 -92 57 -114 74 -23 16 -56 39 -75 50 -42 25 -106
64 -149 90 -17 11 -48 32 -67 48 -20 15 -41 27 -48 27 -7 0 -32 16 -55 35 -23
19 -46 35 -50 35 -8 0 -85 49 -155 98 -22 16 -51 34 -65 40 -14 7 -39 22 -57
35 -17 12 -51 33 -74 47 -74 44 -173 108 -200 129 -15 11 -37 25 -50 30 -13 5
-62 34 -107 65 -46 31 -87 56 -91 56 -5 0 -26 13 -49 30 -22 16 -56 36 -74 45
-18 8 -47 25 -65 38 -17 12 -55 36 -83 52 -29 17 -66 41 -84 55 -17 15 -65 46
-106 70 -41 24 -83 51 -93 59 -11 9 -38 27 -61 41 -87 51 -109 66 -148 98 -22
17 -44 32 -49 32 -5 0 -31 15 -58 33 -50 33 -85 55 -155 95 -22 12 -47 29 -56
37 -9 8 -22 15 -28 15 -6 0 -23 11 -39 24 -15 13 -51 35 -79 49 -27 14 -56 33
-63 41 -8 9 -18 16 -23 16 -6 0 -42 21 -80 48 -67 45 -127 84 -197 127 -18 11
-47 30 -65 42 -17 12 -42 27 -55 33 -13 6 -39 23 -56 38 -18 15 -47 36 -66 47
-40 23 -102 62 -146 90 -18 11 -44 28 -60 37 -15 10 -46 30 -69 45 -58 40
-102 67 -157 100 -27 15 -67 43 -90 60 -23 18 -47 33 -52 33 -6 0 -26 13 -45
30 -19 16 -40 29 -46 30 -6 0 -29 14 -50 31 -22 17 -52 37 -69 45 -28 13 -68
39 -125 81 -14 11 -59 38 -100 62 -41 24 -93 56 -115 71 -22 14 -54 32 -72 39
-17 7 -39 21 -49 32 -9 10 -22 19 -29 19 -7 0 -30 13 -52 29 -22 16 -58 39
-79 51 -106 58 -129 73 -156 95 -16 14 -34 25 -40 25 -6 0 -26 14 -45 30 -18
17 -39 30 -46 30 -8 0 -26 14 -42 30 -16 17 -33 30 -38 30 -11 0 -114 66 -227
145 -19 14 -51 32 -70 41 -19 9 -48 27 -65 41 -45 37 -96 70 -140 93 -22 11
-67 39 -100 60 -33 22 -76 48 -95 56 -19 9 -48 27 -64 41 -15 13 -42 30 -60
38 -17 9 -45 25 -62 38 -18 12 -45 30 -60 39 -16 10 -49 31 -74 48 -25 16 -66
40 -91 54 -25 13 -51 32 -59 41 -7 9 -29 23 -48 30 -18 8 -47 26 -64 40 -16
14 -35 25 -41 25 -7 0 -28 13 -47 28 -19 16 -49 34 -67 41 -17 7 -39 21 -49
32 -9 10 -23 19 -30 19 -6 0 -30 15 -52 33 -22 17 -63 46 -92 62 -28 17 -66
40 -83 52 -18 12 -53 34 -79 47 -26 14 -49 30 -53 36 -3 6 -23 19 -43 31 -20
11 -53 31 -72 44 -19 13 -48 34 -65 45 -16 12 -61 41 -100 65 -38 24 -82 53
-96 64 -15 12 -35 24 -45 27 -11 4 -35 19 -54 33 -48 36 -96 66 -155 96 -27
14 -64 36 -81 48 -18 12 -45 30 -60 39 -76 46 -175 108 -221 140 -23 15 -46
28 -51 28 -5 0 -27 14 -48 31 -22 17 -52 37 -69 45 -30 14 -77 45 -126 83 -14
11 -39 26 -55 33 -16 7 -44 25 -62 40 -18 15 -38 28 -45 28 -7 0 -32 16 -56
35 -24 19 -49 35 -56 35 -6 0 -20 9 -29 19 -10 11 -32 25 -49 32 -18 7 -47 25
-65 41 -18 15 -39 28 -46 28 -8 0 -19 7 -27 16 -7 8 -36 27 -63 41 -28 14 -62
34 -76 45 -41 31 -129 88 -136 88 -4 0 -23 12 -42 27 -56 42 -125 87 -156 101
-16 7 -41 22 -55 33 -14 11 -57 40 -96 64 -38 25 -83 54 -100 65 -65 45 -140
90 -151 90 -6 0 -28 12 -47 28 -20 15 -63 43 -94 63 -32 20 -71 44 -87 55 -27
18 -50 32 -178 112 -29 18 -73 46 -98 62 -25 16 -65 40 -90 54 -25 13 -54 33
-64 45 -11 12 -25 21 -32 21 -7 0 -25 11 -41 24 -15 13 -46 32 -68 44 -22 11
-49 29 -59 41 -11 12 -25 21 -32 21 -6 0 -31 16 -54 35 -23 19 -48 35 -55 35
-7 0 -26 10 -42 23 -15 13 -42 29 -60 36 -18 7 -38 20 -45 28 -7 9 -31 24 -53
35 -22 10 -54 28 -72 41 -79 54 -100 68 -133 83 -19 9 -50 29 -68 45 -18 16
-39 29 -46 29 -8 0 -20 7 -27 17 -8 9 -33 24 -55 35 -23 10 -47 25 -55 34 -7
8 -29 24 -49 34 -20 10 -65 38 -99 62 -35 24 -77 52 -95 63 -18 11 -45 30 -60
43 -16 12 -35 22 -42 22 -7 0 -29 14 -47 30 -19 17 -38 30 -42 30 -9 0 -107
63 -225 145 -19 13 -56 36 -82 50 -27 14 -48 29 -48 34 0 5 -15 14 -32 22 -18
7 -48 25 -66 41 -18 15 -38 28 -45 28 -7 0 -28 12 -47 28 -38 30 -154 102
-165 102 -3 0 -22 12 -41 26 -19 15 -47 34 -63 43 -48 27 -92 55 -125 78 -17
13 -42 28 -56 35 -14 7 -47 27 -74 45 -26 18 -53 33 -58 33 -6 0 -23 10 -38
23 -16 12 -58 40 -94 62 -37 22 -83 52 -103 68 -19 15 -41 27 -48 27 -7 0 -32
16 -55 35 -23 19 -48 35 -54 35 -7 0 -21 9 -32 21 -10 12 -40 32 -65 44 -25
13 -51 31 -58 39 -8 9 -19 16 -26 16 -7 0 -29 12 -48 28 -20 15 -66 45 -103
67 -36 22 -78 50 -94 63 -15 12 -44 29 -62 37 -19 7 -40 20 -47 28 -6 8 -26
21 -44 28 -18 7 -41 20 -52 30 -11 10 -39 29 -60 41 -68 39 -106 62 -139 85
-17 12 -47 31 -66 41 -62 33 -144 84 -172 106 -14 11 -49 35 -78 51 -28 17
-66 40 -83 52 -18 12 -50 32 -72 44 -22 12 -53 32 -68 45 -16 13 -33 24 -39
24 -6 0 -25 12 -43 28 -31 26 -57 43 -138 90 -22 13 -53 34 -69 47 -16 14 -34
25 -40 25 -5 0 -22 9 -36 21 -15 11 -49 35 -76 52 -27 18 -68 44 -90 59 -23
15 -59 37 -81 49 -22 12 -52 31 -67 43 -14 11 -56 39 -92 61 -37 22 -83 52
-103 68 -19 15 -41 27 -47 27 -6 0 -29 14 -50 30 -22 17 -44 30 -51 30 -6 0
-26 13 -45 29 -19 15 -45 31 -57 35 -12 4 -38 20 -58 36 -21 17 -43 30 -50 30
-7 0 -18 7 -26 16 -7 9 -39 29 -70 45 -32 16 -60 33 -64 39 -3 6 -22 17 -41
25 -20 8 -47 24 -62 35 -41 32 -133 90 -142 90 -4 0 -20 10 -35 23 -29 23 -85
54 -191 105 -34 17 -65 35 -68 41 -4 6 -30 17 -58 26 -28 8 -59 22 -69 31 -9
8 -40 21 -68 29 -28 7 -65 22 -83 33 -18 11 -57 25 -86 31 -29 6 -71 20 -93
31 -21 11 -63 25 -92 30 -28 5 -88 21 -132 34 -44 13 -134 34 -200 46 -66 12
-138 26 -160 31 -50 13 -697 20 -785 9z m450 -1939 c145 -20 346 -63 376 -80
17 -10 56 -26 86 -35 31 -9 61 -22 67 -30 7 -8 28 -20 47 -26 31 -11 77 -38
169 -100 42 -28 209 -134 272 -172 15 -10 55 -35 88 -57 33 -22 71 -45 84 -51
13 -6 38 -22 54 -36 17 -14 42 -30 55 -35 13 -5 36 -19 51 -30 27 -21 126 -85
200 -129 41 -24 105 -64 205 -129 27 -17 55 -31 61 -31 7 0 20 -9 31 -21 10
-12 39 -32 64 -46 25 -13 70 -39 100 -58 30 -19 73 -44 95 -56 22 -12 53 -32
68 -45 16 -13 32 -24 37 -24 7 0 73 -41 145 -90 17 -12 62 -41 100 -65 39 -24
81 -52 95 -63 14 -11 41 -27 60 -37 19 -10 46 -26 60 -37 44 -34 94 -67 135
-89 22 -12 52 -31 67 -43 14 -11 49 -34 78 -51 28 -16 66 -40 83 -52 18 -13
48 -30 67 -39 19 -9 46 -25 60 -36 46 -35 94 -67 150 -98 30 -17 75 -44 100
-60 25 -16 76 -48 114 -72 38 -24 83 -52 101 -63 17 -11 46 -29 64 -40 18 -11
46 -29 63 -40 42 -27 86 -55 144 -89 27 -16 58 -37 69 -47 11 -9 38 -26 60
-38 22 -12 54 -32 72 -44 17 -12 51 -33 74 -47 74 -44 173 -108 200 -129 15
-12 35 -24 45 -28 11 -4 38 -21 60 -38 23 -16 65 -43 94 -60 28 -16 66 -40 83
-52 18 -11 68 -43 112 -69 44 -26 91 -56 105 -66 45 -33 131 -88 165 -104 18
-8 41 -24 51 -35 9 -10 22 -19 27 -19 8 0 109 -64 231 -146 15 -10 50 -32 77
-49 142 -89 217 -136 244 -155 17 -11 57 -37 90 -58 33 -21 73 -47 89 -58 40
-27 123 -79 176 -109 51 -30 134 -81 176 -109 42 -28 133 -86 174 -111 19 -12
60 -37 90 -57 30 -19 97 -62 148 -94 51 -33 108 -69 125 -81 18 -12 50 -32 72
-44 22 -12 48 -28 57 -36 10 -9 55 -37 100 -63 46 -26 97 -60 114 -74 18 -14
36 -26 41 -26 4 0 26 -12 48 -27 22 -15 52 -34 66 -43 53 -31 93 -56 140 -87
27 -18 52 -33 55 -33 4 0 21 -11 38 -24 17 -13 49 -33 71 -45 22 -12 56 -33
75 -46 118 -82 216 -145 225 -145 4 0 24 -13 45 -30 21 -16 41 -30 45 -30 4 0
25 -13 48 -28 23 -16 69 -46 102 -67 33 -21 79 -51 102 -67 23 -15 46 -28 51
-28 6 0 29 -16 52 -35 23 -19 46 -35 50 -35 7 0 65 -36 145 -90 17 -11 57 -37
90 -58 33 -21 73 -47 89 -58 44 -29 127 -81 168 -103 20 -12 40 -25 43 -31 3
-6 25 -20 48 -32 23 -11 53 -29 67 -40 44 -33 129 -88 137 -88 5 0 24 -13 43
-28 19 -16 49 -34 67 -41 17 -7 40 -22 50 -33 9 -11 31 -26 48 -34 16 -8 44
-24 61 -37 18 -12 45 -30 60 -39 16 -10 70 -44 121 -75 50 -32 135 -85 190
-117 54 -33 111 -70 126 -83 16 -13 33 -23 39 -23 11 0 108 -61 167 -105 19
-14 40 -25 47 -25 7 0 26 -11 42 -25 17 -14 45 -32 64 -39 18 -8 42 -24 52
-35 11 -12 25 -21 32 -21 7 0 25 -11 41 -24 15 -13 44 -31 63 -41 19 -10 46
-26 60 -37 47 -36 130 -88 139 -88 5 0 28 -16 51 -35 23 -19 47 -35 54 -35 6
0 27 -13 46 -30 19 -16 40 -29 47 -30 6 0 30 -16 53 -35 23 -19 45 -35 50 -35
6 0 163 -100 322 -207 18 -12 54 -33 79 -47 25 -13 51 -32 58 -40 8 -9 19 -16
25 -16 6 0 31 -16 55 -35 24 -19 49 -35 56 -35 7 0 29 -13 50 -30 21 -16 42
-30 47 -30 5 0 28 -13 51 -28 23 -16 67 -44 97 -64 30 -19 68 -43 84 -54 52
-35 131 -83 178 -108 26 -14 49 -30 52 -34 3 -5 45 -33 93 -62 49 -28 102 -61
120 -73 17 -12 55 -35 83 -52 29 -16 66 -42 84 -56 17 -15 49 -36 71 -48 22
-12 60 -35 85 -51 25 -17 58 -38 74 -48 15 -9 42 -27 60 -39 17 -12 49 -32 71
-44 22 -12 53 -32 68 -45 16 -13 33 -24 38 -24 5 0 32 -15 59 -32 27 -18 71
-46 97 -62 50 -30 128 -80 176 -112 16 -10 48 -30 71 -44 105 -61 142 -84 161
-100 11 -9 54 -36 95 -60 41 -24 86 -53 100 -63 14 -10 77 -52 140 -92 63 -41
129 -83 145 -95 17 -11 57 -37 90 -58 33 -21 73 -47 89 -58 50 -34 130 -82
178 -108 26 -14 49 -30 53 -36 3 -6 22 -17 42 -25 19 -8 47 -25 63 -37 15 -13
43 -32 61 -43 19 -11 52 -31 75 -45 22 -14 55 -34 73 -45 18 -11 47 -30 65
-42 17 -13 45 -29 61 -37 17 -8 39 -23 48 -34 10 -11 33 -26 50 -33 18 -7 50
-25 72 -39 22 -15 65 -43 95 -62 30 -19 68 -44 84 -54 16 -10 48 -30 71 -44
74 -44 106 -64 139 -87 17 -12 41 -27 52 -32 12 -5 64 -38 117 -73 52 -35 108
-71 123 -80 16 -10 49 -31 74 -48 25 -16 65 -40 90 -54 25 -13 54 -33 64 -45
11 -12 24 -21 29 -21 6 0 24 -11 41 -24 17 -13 49 -33 71 -45 22 -12 54 -32
72 -44 17 -12 55 -35 83 -52 29 -16 65 -40 80 -53 15 -12 41 -28 57 -35 15 -6
40 -20 53 -30 14 -10 54 -36 90 -59 143 -91 266 -172 290 -189 14 -11 43 -28
65 -39 22 -11 51 -28 65 -38 14 -11 50 -35 80 -54 30 -19 68 -44 84 -54 45
-30 127 -81 176 -109 25 -14 59 -36 77 -48 17 -12 55 -35 83 -52 29 -16 66
-41 84 -55 17 -14 44 -31 60 -38 16 -7 41 -22 55 -33 46 -36 95 -68 142 -93
25 -13 51 -32 58 -40 8 -9 18 -16 24 -16 10 0 56 -29 164 -102 23 -15 45 -28
50 -28 4 0 28 -16 52 -35 24 -19 50 -35 57 -35 7 0 25 -11 41 -24 15 -13 46
-33 68 -45 22 -12 67 -39 100 -61 33 -22 78 -48 100 -58 22 -11 46 -27 54 -36
7 -9 32 -24 55 -34 22 -11 47 -26 55 -35 7 -10 18 -17 24 -17 5 0 28 -14 51
-30 60 -44 147 -100 156 -100 4 0 27 -16 51 -35 24 -19 49 -35 55 -35 6 0 27
-12 47 -27 19 -16 50 -37 68 -48 18 -11 53 -33 79 -50 26 -16 61 -39 79 -50
90 -55 242 -151 271 -172 13 -10 36 -24 50 -31 14 -7 52 -30 85 -52 33 -22 73
-48 88 -58 16 -9 79 -50 140 -89 62 -40 128 -83 147 -94 19 -12 58 -36 85 -54
28 -18 72 -45 98 -61 26 -16 62 -39 80 -51 18 -12 50 -32 72 -44 22 -12 52
-31 67 -43 14 -11 49 -34 78 -51 28 -16 66 -40 83 -52 18 -12 50 -32 72 -44
22 -12 53 -32 68 -45 16 -13 33 -24 38 -24 9 0 92 -52 139 -88 14 -11 44 -29
67 -40 23 -12 45 -27 48 -33 4 -6 26 -19 49 -30 22 -11 55 -29 73 -42 17 -12
55 -35 83 -52 28 -16 66 -40 83 -52 18 -12 53 -33 78 -47 25 -13 51 -32 58
-40 8 -9 18 -16 24 -16 5 0 53 -29 106 -63 53 -35 125 -82 161 -105 36 -23 79
-51 95 -63 17 -11 45 -30 64 -42 19 -12 53 -34 75 -50 23 -15 54 -35 70 -45
16 -9 71 -45 123 -79 52 -35 97 -63 101 -63 4 0 27 -16 51 -35 24 -19 48 -35
52 -35 5 0 28 -13 51 -30 22 -16 46 -30 51 -30 6 0 20 -9 31 -19 12 -11 59
-42 106 -70 47 -28 99 -60 115 -71 17 -11 57 -37 90 -58 33 -21 73 -47 89 -58
16 -10 48 -30 71 -44 81 -48 107 -65 142 -92 20 -16 41 -28 48 -28 7 0 29 -12
48 -27 20 -16 65 -45 99 -66 35 -21 78 -48 97 -60 19 -12 49 -31 67 -42 17
-11 45 -29 60 -39 16 -10 52 -34 80 -52 28 -19 55 -34 61 -34 6 0 28 -14 49
-30 50 -39 232 -160 253 -168 9 -3 29 -16 44 -29 16 -13 34 -23 40 -23 7 0 32
-16 56 -35 24 -19 48 -35 53 -35 5 0 28 -13 51 -29 53 -36 151 -99 206 -131
23 -14 57 -35 74 -47 18 -12 52 -34 77 -48 25 -14 61 -37 80 -50 77 -53 97
-68 150 -105 153 -109 246 -187 389 -325 132 -127 299 -322 364 -424 70 -109
88 -140 105 -176 11 -22 31 -58 46 -79 14 -21 26 -46 26 -55 0 -9 14 -36 30
-60 17 -24 30 -52 30 -61 0 -9 11 -39 25 -66 14 -27 34 -82 45 -122 11 -40 27
-83 34 -95 8 -12 20 -50 26 -84 6 -34 19 -81 30 -105 10 -24 24 -81 30 -128 6
-47 21 -123 33 -170 20 -79 21 -111 22 -425 0 -316 -2 -346 -22 -430 -12 -49
-27 -126 -33 -170 -7 -44 -20 -102 -30 -130 -10 -27 -23 -74 -29 -102 -6 -29
-22 -80 -35 -112 -13 -33 -27 -75 -31 -93 -4 -18 -20 -58 -35 -88 -16 -30 -36
-71 -44 -90 -9 -19 -23 -46 -30 -60 -42 -80 -58 -110 -77 -150 -12 -25 -29
-53 -37 -63 -9 -10 -25 -33 -37 -52 -38 -63 -74 -113 -99 -140 -14 -15 -26
-31 -26 -36 0 -9 -111 -141 -184 -219 -86 -92 -147 -149 -253 -239 -120 -101
-153 -127 -204 -161 -20 -14 -70 -47 -110 -74 -41 -27 -85 -57 -99 -68 -14
-10 -47 -29 -75 -41 -27 -13 -56 -31 -64 -40 -7 -10 -19 -17 -26 -17 -8 0 -26
-11 -42 -24 -15 -13 -51 -35 -79 -49 -27 -14 -56 -33 -63 -41 -8 -9 -19 -16
-26 -16 -8 0 -26 -11 -42 -24 -15 -13 -44 -31 -63 -41 -19 -10 -46 -26 -60
-37 -14 -10 -54 -37 -90 -60 -80 -51 -156 -99 -194 -124 -16 -10 -47 -31 -70
-46 -22 -15 -59 -37 -81 -49 -22 -12 -51 -30 -65 -41 -40 -31 -129 -88 -136
-88 -6 0 -85 -49 -159 -100 -68 -46 -132 -86 -155 -98 -14 -7 -39 -22 -56 -35
-34 -23 -78 -51 -127 -79 -16 -9 -39 -25 -51 -36 -11 -11 -37 -27 -56 -36 -19
-9 -49 -26 -66 -39 -32 -22 -64 -42 -140 -87 -23 -14 -55 -34 -70 -44 -16 -11
-56 -37 -89 -58 -59 -37 -85 -55 -155 -103 -19 -13 -55 -35 -80 -49 -25 -13
-54 -33 -64 -45 -11 -12 -25 -21 -31 -21 -7 0 -25 -10 -40 -22 -16 -13 -48
-34 -71 -48 -57 -33 -183 -117 -294 -195 -19 -14 -51 -33 -70 -42 -19 -10 -51
-30 -71 -46 -20 -15 -41 -27 -47 -27 -6 0 -23 -11 -39 -24 -15 -13 -44 -31
-63 -40 -19 -9 -62 -34 -95 -56 -33 -22 -80 -51 -105 -65 -25 -14 -60 -36 -78
-48 -98 -65 -132 -87 -137 -87 -7 0 -109 -67 -205 -135 -19 -14 -53 -34 -75
-45 -35 -18 -84 -50 -165 -107 -39 -28 -148 -93 -156 -93 -3 0 -22 -13 -41
-30 -18 -16 -40 -30 -47 -30 -8 0 -33 -16 -56 -35 -23 -19 -45 -35 -50 -35 -4
0 -51 -28 -103 -62 -53 -35 -115 -74 -138 -88 -71 -42 -173 -107 -199 -128
-14 -10 -38 -26 -55 -35 -27 -13 -133 -81 -227 -144 -18 -12 -54 -33 -79 -47
-25 -13 -51 -32 -58 -40 -8 -9 -19 -16 -25 -16 -10 0 -73 -39 -161 -100 -16
-12 -61 -41 -100 -65 -38 -24 -81 -53 -95 -63 -14 -11 -42 -27 -63 -35 -20 -9
-37 -21 -37 -27 0 -6 -19 -19 -43 -29 -23 -10 -49 -26 -57 -35 -7 -10 -34 -29
-59 -42 -42 -22 -71 -40 -157 -98 -16 -11 -54 -35 -84 -54 -30 -20 -74 -48
-97 -64 -23 -15 -45 -28 -49 -28 -7 0 -61 -34 -161 -102 -23 -15 -45 -28 -50
-28 -4 0 -39 -23 -78 -50 -38 -27 -88 -59 -110 -71 -22 -12 -53 -32 -68 -45
-16 -13 -34 -24 -41 -24 -7 0 -21 -9 -32 -21 -10 -12 -40 -32 -65 -44 -25 -13
-51 -31 -58 -39 -8 -9 -19 -16 -26 -16 -7 0 -32 -16 -56 -35 -24 -19 -49 -35
-55 -35 -6 0 -27 -13 -47 -29 -20 -15 -50 -34 -67 -41 -16 -7 -30 -17 -30 -22
0 -5 -20 -18 -44 -28 -24 -11 -49 -26 -55 -34 -7 -8 -31 -24 -54 -35 -23 -12
-56 -32 -74 -44 -17 -12 -51 -33 -74 -47 -39 -23 -82 -50 -214 -135 -27 -18
-99 -64 -160 -103 -60 -39 -122 -80 -136 -92 -15 -11 -35 -23 -45 -27 -11 -3
-37 -18 -59 -33 -82 -55 -98 -66 -139 -90 -76 -45 -108 -65 -140 -87 -17 -13
-44 -29 -61 -37 -16 -8 -47 -28 -69 -45 -21 -17 -43 -31 -49 -31 -6 0 -19 -8
-30 -17 -10 -10 -38 -29 -62 -43 -48 -28 -176 -112 -215 -142 -14 -10 -41 -26
-60 -36 -20 -9 -49 -27 -65 -40 -17 -13 -61 -43 -100 -67 -38 -25 -81 -52 -95
-62 -13 -10 -37 -24 -53 -30 -16 -7 -40 -22 -55 -33 -44 -34 -131 -90 -139
-90 -8 0 -110 -65 -153 -98 -14 -11 -41 -27 -60 -37 -19 -10 -48 -28 -63 -41
-16 -13 -34 -24 -41 -24 -7 0 -21 -9 -32 -21 -10 -11 -34 -27 -52 -35 -18 -7
-45 -23 -60 -35 -15 -11 -58 -40 -97 -64 -38 -25 -83 -54 -100 -65 -27 -19
-60 -40 -166 -105 -78 -48 -152 -96 -226 -146 -23 -16 -44 -29 -47 -29 -3 0
-48 -29 -99 -64 -50 -34 -105 -71 -122 -80 -38 -21 -92 -56 -189 -123 -42 -29
-79 -53 -81 -53 -6 0 -99 -61 -135 -89 -14 -10 -43 -26 -64 -35 -21 -9 -51
-27 -68 -41 -16 -14 -36 -25 -43 -25 -7 0 -26 -10 -42 -23 -28 -23 -102 -70
-152 -96 -14 -7 -35 -21 -46 -31 -11 -10 -38 -27 -61 -38 -22 -11 -46 -28 -54
-37 -7 -9 -29 -23 -48 -30 -18 -8 -47 -26 -64 -40 -16 -14 -34 -25 -39 -25 -8
0 -181 -111 -229 -148 -14 -11 -43 -29 -65 -41 -22 -12 -54 -32 -71 -44 -18
-12 -47 -31 -65 -42 -145 -87 -178 -108 -216 -137 -19 -15 -44 -30 -56 -34
-12 -4 -37 -20 -55 -35 -18 -16 -39 -29 -46 -29 -7 0 -29 -12 -49 -27 -35 -28
-74 -53 -131 -85 -17 -10 -47 -29 -66 -43 -80 -58 -107 -76 -145 -95 -22 -11
-54 -30 -71 -43 -18 -12 -47 -31 -65 -42 -18 -11 -47 -29 -64 -40 -17 -11 -56
-35 -86 -53 -30 -19 -68 -43 -85 -55 -18 -12 -45 -30 -60 -39 -16 -10 -49 -31
-74 -48 -25 -17 -58 -38 -74 -48 -15 -9 -42 -27 -60 -39 -17 -13 -43 -28 -57
-35 -14 -7 -38 -23 -55 -36 -47 -37 -96 -70 -145 -96 -25 -13 -51 -32 -58 -40
-8 -9 -19 -16 -26 -16 -7 0 -32 -16 -56 -35 -24 -19 -49 -35 -56 -35 -6 0 -24
-11 -40 -24 -15 -13 -46 -33 -68 -45 -22 -12 -65 -37 -95 -56 -30 -19 -75 -46
-100 -60 -25 -14 -59 -36 -76 -48 -18 -12 -45 -30 -60 -39 -16 -10 -38 -23
-49 -30 -11 -7 -47 -30 -80 -50 -33 -21 -73 -47 -90 -58 -16 -12 -82 -54 -145
-95 -63 -41 -133 -88 -156 -105 -23 -16 -44 -30 -47 -30 -3 0 -43 -25 -88 -56
-46 -30 -96 -62 -113 -71 -16 -8 -38 -24 -49 -34 -11 -10 -30 -22 -41 -25 -12
-4 -37 -20 -56 -35 -19 -16 -40 -29 -46 -29 -6 0 -27 -12 -47 -27 -20 -16 -66
-46 -102 -68 -36 -22 -78 -49 -93 -60 -15 -12 -40 -26 -56 -33 -16 -7 -41 -22
-55 -33 -14 -11 -57 -40 -96 -64 -38 -24 -83 -53 -100 -65 -71 -49 -138 -90
-145 -90 -4 0 -27 -16 -50 -35 -23 -19 -47 -35 -53 -35 -7 0 -30 -14 -51 -30
-22 -17 -43 -30 -47 -30 -9 0 -94 -55 -209 -135 -19 -13 -53 -34 -75 -46 -22
-12 -51 -30 -65 -41 -46 -35 -95 -67 -140 -92 -25 -13 -54 -33 -64 -45 -11
-12 -25 -21 -31 -21 -7 0 -28 -12 -48 -27 -19 -16 -50 -37 -68 -48 -18 -11
-53 -33 -79 -50 -26 -16 -61 -39 -79 -50 -18 -11 -47 -30 -65 -42 -17 -12 -49
-31 -71 -42 -22 -11 -67 -38 -100 -60 -33 -21 -96 -60 -140 -87 -44 -26 -95
-60 -113 -76 -18 -15 -39 -28 -47 -28 -7 0 -26 -10 -42 -23 -25 -21 -57 -41
-157 -100 -17 -11 -40 -27 -51 -36 -11 -10 -34 -23 -52 -30 -17 -7 -41 -23
-54 -37 -12 -13 -28 -24 -35 -24 -7 0 -25 -11 -41 -24 -15 -13 -47 -33 -70
-45 -24 -12 -43 -26 -43 -32 0 -5 -17 -17 -37 -26 -21 -8 -49 -24 -63 -35 -43
-33 -93 -66 -135 -89 -22 -12 -54 -32 -71 -45 -17 -13 -34 -24 -38 -24 -4 0
-26 -13 -49 -29 -23 -15 -71 -47 -107 -69 -36 -23 -78 -51 -95 -62 -92 -63
-151 -100 -158 -100 -5 0 -21 -9 -35 -20 -15 -12 -56 -39 -92 -62 -36 -22 -84
-53 -108 -69 -23 -16 -46 -29 -51 -29 -5 0 -25 -13 -46 -30 -20 -16 -46 -32
-58 -36 -12 -4 -37 -20 -55 -35 -18 -16 -39 -29 -46 -29 -7 0 -28 -11 -47 -26
-19 -14 -86 -58 -149 -99 -63 -41 -128 -84 -145 -95 -16 -12 -43 -30 -60 -41
-16 -11 -44 -29 -62 -42 -17 -12 -55 -35 -83 -52 -29 -16 -70 -45 -92 -63 -22
-17 -46 -32 -53 -32 -7 0 -29 -13 -50 -30 -21 -17 -43 -30 -50 -30 -6 0 -29
-13 -51 -30 -21 -16 -43 -30 -48 -30 -5 0 -23 -11 -40 -24 -17 -13 -49 -33
-71 -45 -43 -24 -125 -74 -171 -105 -16 -11 -56 -37 -89 -58 -33 -21 -73 -47
-90 -58 -16 -12 -61 -41 -100 -65 -38 -24 -85 -56 -104 -70 -19 -14 -40 -25
-46 -25 -7 0 -20 -10 -31 -21 -10 -12 -37 -30 -59 -40 -22 -11 -54 -29 -71
-42 -18 -12 -47 -31 -65 -42 -18 -11 -47 -29 -65 -40 -18 -11 -51 -32 -73 -47
-23 -16 -58 -38 -78 -51 -46 -28 -138 -87 -177 -113 -152 -101 -156 -104 -221
-145 -59 -38 -84 -55 -155 -104 -19 -14 -51 -32 -70 -42 -19 -10 -50 -30 -68
-45 -18 -16 -39 -28 -46 -28 -7 0 -30 -13 -51 -30 -21 -16 -44 -30 -51 -30 -7
0 -29 -14 -47 -30 -19 -17 -39 -30 -43 -30 -9 0 -105 -61 -163 -105 -19 -14
-40 -25 -47 -25 -7 0 -25 -11 -41 -24 -15 -13 -46 -33 -68 -45 -42 -23 -92
-56 -136 -90 -15 -12 -35 -24 -45 -28 -11 -3 -36 -21 -57 -40 -20 -18 -43 -33
-50 -33 -7 0 -28 -13 -47 -29 -19 -15 -45 -31 -58 -35 -12 -4 -34 -18 -50 -30
-15 -13 -38 -29 -53 -37 -42 -23 -89 -52 -140 -86 -27 -18 -51 -33 -55 -33 -7
0 -113 -67 -154 -98 -14 -10 -41 -24 -60 -32 -19 -7 -48 -24 -63 -37 -16 -13
-36 -23 -44 -23 -9 0 -32 -10 -52 -23 -32 -20 -100 -46 -231 -90 -25 -8 -99
-27 -165 -43 -108 -25 -136 -28 -277 -27 -129 2 -170 6 -230 23 -40 12 -101
26 -137 31 -35 5 -78 18 -95 28 -17 11 -51 25 -76 31 -25 7 -57 21 -71 31 -15
10 -46 28 -70 39 -24 11 -59 31 -77 43 -64 43 -178 143 -243 212 -102 110
-135 158 -189 275 -12 25 -34 72 -51 104 -16 32 -29 70 -29 83 0 13 -9 42 -21
65 -12 23 -27 80 -35 127 -12 73 -14 2539 -14 16806 0 10379 4 16751 10 16802
5 45 18 99 28 120 11 21 25 63 32 93 11 46 55 148 91 210 5 8 18 33 30 55 32
60 64 98 174 210 55 55 133 122 173 148 40 26 76 47 80 47 5 0 29 13 55 29 25
17 64 35 87 41 22 6 55 19 73 30 17 10 50 22 72 25 22 4 73 16 113 27 65 17
183 33 267 36 17 1 59 -3 95 -7z"/>
  </g>
</svg>