<svg xmlns="http://www.w3.org/2000/svg" viewBox="0 0 4096.000000 4096.000000">
  <g transform="translate(0.000000,4096.000000) scale(0.100000,-0.100000)" fill="#f4f5f7" stroke="#f4f5f7" stroke-width="40" stroke-linejoin="round" stroke-linecap="round">
    <path d="M13860 39843 c-408 -40 -727 -146 -1085 -361 -190 -113 -285 -185
-421 -314 -94 -90 -256 -283 -333 -396 -103 -152 -179 -296 -250 -474 -71
-180 -127 -384 -158 -585 -26 -164 -28 -201 -28 -458 0 -259 2 -293 28 -454
44 -267 130 -543 228 -726 87 -164 159 -279 253 -405 55 -74 65 -86 183 -219
161 -183 275 -284 473 -418 95 -64 146 -92 278 -152 220 -100 433 -166 631
-196 244 -36 365 -38 1701 -26 2021 17 2410 18 2445 3 50 -22 73 -51 84 -106
7 -33 14 -690 19 -1836 4 -982 6 -1835 3 -1895 -7 -123 -17 -149 -73 -183 -31
-19 -169 -62 -488 -150 -457 -127 -901 -233 -1140 -272 -107 -18 -266 -71
-346 -115 -41 -23 -100 -69 -145 -114 -54 -55 -85 -97 -112 -151 -53 -110 -70
-193 -64 -320 8 -177 62 -295 193 -421 125 -119 257 -173 514 -209 80 -11 199
-29 265 -40 66 -11 203 -33 305 -49 200 -32 392 -65 645 -111 88 -16 196 -34
240 -40 44 -6 145 -24 225 -40 80 -16 195 -36 255 -45 61 -8 182 -29 270 -45
213 -39 494 -86 690 -116 87 -13 191 -30 230 -38 107 -22 566 -87 775 -110 74
-9 275 -22 445 -31 354 -17 488 -29 528 -44 16 -6 25 -16 22 -21 -13 -22 -86
-50 -176 -68 -204 -43 -367 -85 -668 -172 -359 -104 -398 -115 -801 -216 -162
-41 -326 -83 -365 -94 -38 -11 -122 -30 -185 -44 -63 -14 -191 -44 -285 -66
-93 -23 -235 -57 -315 -76 -80 -18 -188 -44 -240 -58 -52 -13 -144 -35 -205
-49 -680 -160 -885 -208 -915 -217 -65 -17 -384 -91 -670 -155 -312 -69 -406
-102 -513 -178 -124 -88 -206 -201 -261 -356 -15 -40 -29 -106 -32 -145 -12
-141 37 -330 119 -453 56 -87 148 -171 236 -217 94 -49 257 -94 445 -121 199
-30 723 -119 1141 -195 88 -17 189 -34 225 -39 36 -6 166 -26 290 -45 333 -52
706 -104 870 -121 80 -8 222 -23 315 -34 94 -11 242 -27 330 -36 172 -18 506
-63 700 -95 298 -50 630 -124 695 -154 31 -15 45 -27 45 -41 0 -27 -56 -41
-260 -65 -556 -66 -740 -94 -990 -149 -99 -21 -209 -46 -245 -55 -325 -79
-620 -154 -740 -188 -80 -22 -199 -56 -265 -75 -66 -18 -149 -42 -185 -53 -36
-11 -191 -55 -345 -99 -340 -95 -1168 -301 -1495 -371 -372 -80 -526 -141
-641 -252 -74 -70 -138 -164 -168 -242 -28 -75 -51 -195 -51 -264 0 -33 7 -99
15 -148 11 -65 28 -115 62 -183 36 -74 62 -110 119 -166 46 -46 102 -90 154
-119 89 -50 258 -106 380 -126 41 -6 143 -25 225 -40 83 -16 200 -36 260 -46
61 -9 159 -27 219 -40 60 -13 172 -33 248 -44 77 -12 194 -31 261 -44 67 -13
149 -27 182 -31 33 -3 121 -18 195 -31 74 -14 218 -38 320 -54 102 -16 253
-40 335 -54 83 -14 256 -41 385 -61 129 -20 359 -56 510 -80 151 -24 298 -47
325 -50 120 -15 731 -119 859 -146 77 -16 156 -37 176 -47 73 -36 32 -69 -135
-112 -164 -41 -637 -154 -822 -195 -145 -33 -522 -123 -778 -185 -66 -16 -156
-37 -200 -45 -44 -9 -127 -28 -185 -41 -58 -14 -145 -34 -195 -44 -49 -11
-189 -42 -310 -70 -121 -28 -287 -66 -370 -85 -82 -18 -296 -68 -475 -110
-377 -88 -645 -145 -850 -180 -187 -32 -384 -74 -429 -90 -140 -51 -246 -123
-317 -218 -54 -72 -87 -142 -116 -247 -17 -64 -20 -94 -15 -205 4 -97 10 -146
27 -195 52 -153 140 -269 263 -343 140 -84 226 -106 762 -197 99 -17 197 -35
217 -41 20 -5 128 -25 240 -44 112 -19 300 -53 418 -74 118 -22 280 -51 360
-65 80 -15 204 -38 275 -52 72 -14 184 -34 250 -44 152 -23 515 -83 665 -110
63 -12 207 -34 320 -50 113 -17 279 -41 370 -54 91 -14 264 -39 385 -57 489
-71 1041 -171 1095 -198 25 -13 35 -25 35 -42 0 -18 -11 -30 -48 -50 -94 -51
-419 -149 -752 -229 -121 -28 -260 -63 -310 -76 -49 -13 -166 -43 -260 -68
-362 -95 -450 -117 -752 -185 -536 -122 -592 -140 -716 -220 -72 -48 -138
-113 -208 -207 -75 -102 -147 -171 -212 -202 -81 -40 -241 -110 -292 -127
-104 -35 -223 -66 -360 -94 -263 -54 -409 -115 -527 -221 -114 -103 -177 -218
-198 -365 -9 -56 -14 -401 -19 -1130 -6 -989 -8 -1052 -25 -1093 -22 -51 -73
-89 -177 -131 -41 -16 -92 -38 -114 -49 -22 -11 -74 -34 -115 -52 -123 -53
-284 -136 -475 -245 -99 -56 -231 -129 -292 -163 -62 -34 -145 -82 -185 -108
-76 -50 -161 -104 -275 -177 -255 -163 -594 -422 -923 -705 -396 -341 -466
-411 -810 -802 -84 -96 -181 -204 -214 -240 -73 -79 -273 -323 -407 -498 -93
-121 -275 -386 -423 -619 -131 -203 -328 -558 -461 -828 -73 -148 -145 -299
-160 -335 -15 -36 -45 -108 -67 -160 -156 -376 -322 -848 -403 -1145 -103
-382 -116 -435 -141 -550 -53 -254 -103 -528 -129 -720 -16 -118 -43 -185 -85
-217 -14 -10 -85 -40 -158 -68 -256 -95 -494 -227 -684 -378 -139 -111 -337
-321 -449 -477 -55 -76 -182 -300 -223 -393 -89 -203 -161 -476 -192 -721 -16
-135 -18 -415 -4 -562 17 -170 58 -364 112 -529 85 -262 204 -483 400 -742
111 -147 321 -342 501 -465 169 -116 408 -239 558 -288 30 -10 66 -24 80 -31
14 -7 99 -35 190 -63 180 -54 363 -87 574 -101 73 -5 4076 -9 9125 -10 l8995
-2 176 26 c177 26 427 90 546 140 32 13 69 27 83 31 37 11 238 105 290 135 25
15 79 46 120 70 140 82 302 210 435 344 140 141 224 245 320 396 128 203 253
493 305 710 44 183 62 322 67 526 6 224 -4 355 -43 559 -54 281 -162 562 -302
785 -76 120 -129 199 -186 275 -63 83 -274 300 -361 370 -211 171 -434 296
-740 416 -65 25 -123 55 -142 74 -42 38 -53 83 -93 380 -59 433 -152 851 -265
1190 -91 273 -240 683 -327 902 -123 311 -524 1084 -716 1383 -169 262 -258
393 -376 549 -72 95 -140 185 -150 200 -11 14 -45 55 -76 91 -31 36 -85 101
-120 145 -226 282 -466 540 -785 844 -322 308 -486 450 -776 676 -264 206
-284 220 -564 408 -371 248 -813 504 -1075 622 -425 192 -445 203 -481 272
l-24 48 0 1085 c0 1011 -1 1089 -18 1144 -38 126 -155 256 -297 330 -110 57
-269 100 -690 186 -218 44 -494 107 -569 130 -36 11 -76 27 -89 35 -30 22 -48
60 -56 121 -8 61 8 184 29 223 18 35 65 64 136 84 71 20 313 71 464 97 175 31
498 96 670 134 83 19 238 53 345 76 536 114 736 181 885 295 115 87 203 231
245 400 19 74 22 107 17 185 -8 133 -38 239 -95 333 -126 210 -354 325 -782
392 -282 44 -434 71 -770 136 -140 28 -313 59 -385 69 -71 11 -193 31 -270 45
-77 14 -228 38 -335 55 -107 16 -256 38 -330 50 -74 11 -245 36 -380 55 -240
35 -381 56 -610 94 -63 11 -223 36 -355 57 -228 35 -888 161 -967 184 -20 6
-47 19 -59 29 -20 16 -21 21 -10 35 25 30 198 75 661 171 63 14 198 43 300 65
102 23 257 56 345 75 88 18 246 52 350 74 105 22 273 58 375 81 273 61 588
128 730 156 69 14 175 36 235 49 105 23 275 58 450 92 44 8 127 26 185 39 157
36 528 108 765 149 455 78 604 134 752 282 72 72 125 164 155 269 18 64 22
104 22 209 0 104 -4 145 -22 208 -12 43 -33 99 -46 125 -48 94 -149 205 -241
263 -43 28 -152 73 -225 95 -63 18 -299 58 -525 89 -320 44 -780 118 -1230
199 -77 14 -203 35 -280 46 -77 12 -167 28 -200 36 -33 7 -122 22 -197 33 -75
11 -181 30 -235 41 -54 11 -168 31 -253 44 -203 32 -519 83 -595 96 -33 6
-177 31 -320 55 -496 85 -601 104 -760 135 -201 39 -311 68 -326 86 -17 21 -4
42 38 59 60 25 92 31 738 140 581 98 922 169 1525 316 483 118 684 164 770
179 36 6 103 19 150 30 47 11 153 31 235 45 83 13 215 36 295 50 80 15 199 35
265 45 249 39 654 109 747 130 125 27 274 78 366 124 52 26 96 60 150 114 90
90 142 180 174 303 16 64 22 113 22 204 0 95 -5 137 -22 200 -27 92 -85 205
-139 271 -76 91 -197 166 -354 219 -99 34 -207 57 -589 125 -124 23 -283 52
-355 65 -132 25 -392 73 -655 120 -80 15 -226 40 -325 55 -99 16 -202 34 -229
40 -26 6 -127 24 -225 40 -97 16 -237 40 -311 54 -74 13 -160 28 -190 31 -30
4 -107 17 -170 30 -63 13 -153 28 -200 35 -47 6 -130 20 -186 31 -94 18 -291
52 -659 114 -259 43 -575 104 -647 125 -37 11 -70 25 -73 31 -10 15 24 49 70
70 22 10 130 41 240 69 199 51 445 102 960 199 149 29 311 60 360 71 50 11
164 33 255 49 91 17 206 39 255 50 50 10 140 28 200 40 61 11 220 43 355 71
135 28 310 62 390 76 80 13 172 31 205 39 33 8 116 26 185 39 130 26 368 80
735 166 72 17 177 42 235 55 143 32 358 96 453 134 96 38 196 102 261 167 26
27 66 79 88 116 51 87 97 228 111 345 9 77 8 105 -7 179 -22 114 -64 212 -126
296 -64 86 -156 162 -261 215 -179 89 -367 138 -759 198 -91 14 -185 29 -210
34 -25 6 -175 31 -335 56 -368 59 -638 106 -1045 185 -281 54 -467 87 -585
105 -55 9 -158 27 -230 41 -71 14 -173 31 -225 39 -52 7 -167 25 -255 39 -88
14 -331 51 -540 81 -472 70 -600 93 -647 117 -69 34 -45 60 97 108 161 55 488
133 780 185 217 39 248 44 465 74 825 116 1024 157 1176 246 62 37 145 121
181 185 37 65 68 171 84 290 8 61 12 603 14 1900 1 998 6 1836 10 1862 8 53
32 84 84 105 31 13 251 14 1861 8 2123 -8 2185 -6 2460 67 273 72 518 174 705
294 291 186 510 405 723 720 57 85 146 241 204 357 113 226 202 510 234 744
25 181 25 607 0 787 -23 165 -73 369 -129 521 -43 117 -156 356 -212 446 -89
144 -216 314 -326 435 -90 100 -237 242 -314 304 -238 190 -520 336 -800 414
-158 45 -258 64 -385 76 -65 6 -2622 9 -6640 8 -3594 -1 -6551 -3 -6570 -5z
m5285 -1616 c2277 -1 4979 -1 6005 1 1087 1 1890 -2 1925 -7 90 -14 195 -54
272 -104 142 -94 253 -232 332 -412 62 -142 76 -226 76 -460 -1 -154 -5 -216
-18 -268 -26 -104 -87 -244 -142 -326 -113 -169 -317 -326 -485 -375 -30 -9
-80 -21 -110 -27 -40 -8 -699 -11 -2360 -10 -1484 1 -2348 -2 -2425 -8 -274
-23 -472 -137 -616 -354 -65 -98 -103 -201 -120 -326 -6 -48 -13 -746 -19
-1911 -4 -1009 -11 -1864 -15 -1900 -4 -36 -16 -82 -28 -103 -27 -48 -85 -77
-258 -127 -74 -21 -253 -73 -399 -115 -146 -43 -301 -88 -345 -100 -44 -13
-168 -49 -275 -80 -107 -31 -238 -67 -290 -80 -52 -13 -108 -28 -123 -34 -51
-20 -193 -40 -222 -32 -16 4 -38 20 -49 35 -21 27 -21 35 -21 794 0 1811 -7
3278 -16 3420 -10 163 -36 308 -75 409 -45 122 -156 253 -286 339 -91 61 -227
119 -323 139 -45 9 -173 21 -295 26 -127 6 -1056 8 -2265 5 -1724 -4 -2068 -2
-2165 10 -63 7 -139 21 -169 30 -145 43 -299 132 -404 233 -57 54 -132 153
-176 232 -17 31 -42 88 -56 128 -44 125 -57 207 -58 351 -1 113 4 152 26 240
32 130 63 216 119 323 33 64 64 103 138 177 173 174 340 248 615 274 22 2 247
2 500 0 253 -2 2323 -5 4600 -7z m1441 -21097 c130 -64 246 -214 275 -358 18
-88 2 -176 -44 -247 -64 -95 -168 -136 -349 -137 -82 0 -137 6 -201 21 -48 11
-112 32 -141 46 -70 33 -151 118 -166 176 -7 23 -10 81 -8 128 3 72 9 98 37
158 24 51 51 89 90 127 100 94 191 127 342 123 86 -2 103 -6 165 -37z m2112
-2118 c20 -10 44 -34 54 -54 18 -34 19 -84 21 -1059 2 -1005 3 -1025 23 -1090
11 -37 33 -88 49 -115 15 -27 62 -83 104 -124 52 -52 103 -90 161 -122 77 -42
133 -67 355 -158 241 -99 365 -155 560 -255 397 -203 520 -268 535 -280 8 -7
35 -23 60 -35 235 -117 836 -546 1205 -860 143 -121 154 -131 229 -200 231
-213 358 -342 586 -595 220 -245 335 -390 539 -682 97 -137 138 -202 227 -353
33 -58 92 -157 129 -220 37 -63 115 -203 173 -310 189 -349 283 -564 391 -887
105 -319 261 -919 305 -1173 27 -158 49 -365 43 -392 -4 -15 -17 -39 -30 -53
-18 -22 -35 -28 -97 -36 -48 -6 -495 -8 -1240 -4 -781 5 -1193 3 -1250 -4
-117 -14 -249 -53 -349 -104 -60 -30 -104 -62 -155 -112 -39 -39 -90 -100
-114 -136 -87 -135 -133 -338 -112 -492 25 -177 100 -319 232 -442 106 -99
256 -160 452 -185 53 -7 728 -10 1947 -10 2071 1 1939 5 2095 -66 136 -62 280
-181 364 -303 40 -58 97 -184 115 -256 37 -151 38 -329 0 -478 -8 -33 -38
-105 -67 -160 -43 -84 -68 -118 -138 -188 -47 -47 -105 -99 -130 -116 -77 -52
-162 -92 -245 -115 l-80 -23 -9122 -2 -9122 -3 -115 24 c-126 27 -242 73 -344
137 -150 94 -234 188 -307 344 -46 98 -60 144 -76 250 -26 174 44 432 160 589
109 147 261 259 443 325 131 48 -78 46 4668 46 2456 1 4476 4 4490 7 14 4 57
14 95 23 39 10 93 26 120 38 127 54 266 171 344 291 22 33 57 104 78 156 38
95 38 95 38 240 -1 139 -2 148 -32 223 -69 172 -172 304 -296 381 -74 45 -174
86 -262 108 -40 10 -874 13 -3987 14 -3194 1 -3942 3 -3968 14 -81 34 -80 111
9 580 19 102 95 398 165 645 88 311 220 681 372 1040 67 161 321 649 435 836
123 205 290 459 387 589 18 25 47 64 65 88 114 154 469 540 735 800 133 130
328 305 408 367 21 17 105 82 185 145 177 139 186 146 470 336 276 184 593
369 944 549 105 54 199 103 210 110 35 21 348 166 420 195 154 61 375 154 470
197 128 59 198 107 265 180 57 62 90 125 110 213 10 42 14 301 19 1082 6 1018
6 1027 27 1055 11 15 36 36 55 46 32 17 138 17 2247 13 2141 -5 2215 -5 2250
-24z"/>
  </g>
</svg>