<svg xmlns="http://www.w3.org/2000/svg" viewBox="0 0 4096.000000 4096.000000">
  <g transform="translate(0.000000,4096.000000) scale(0.100000,-0.100000)" fill="#f4f5f7" stroke="none">
    <path d="M17615 40278 c-193 -19 -345 -77 -509 -191 -64 -45 -163 -137 -211
-197 -27 -35 -58 -71 -67 -81 -9 -10 -27 -37 -39 -61 -12 -24 -30 -55 -40 -69
-10 -14 -21 -38 -25 -55 -4 -16 -17 -47 -29 -69 -14 -25 -30 -87 -44 -167 -21
-126 -21 -141 -21 -1896 0 -1455 -2 -1772 -13 -1781 -10 -7 -843 -11 -2968
-13 l-2954 -3 -83 -32 c-46 -18 -91 -33 -100 -33 -20 0 -180 -79 -238 -118
-99 -65 -132 -91 -207 -162 -43 -41 -86 -88 -94 -105 -9 -16 -27 -43 -40 -59
-13 -15 -30 -44 -38 -63 -8 -19 -24 -46 -35 -60 -11 -14 -20 -32 -20 -40 0 -8
-13 -48 -30 -89 -38 -94 -55 -251 -46 -419 8 -150 22 -237 45 -284 10 -20 24
-58 30 -86 7 -27 19 -57 26 -65 8 -9 24 -38 36 -65 12 -28 34 -64 48 -82 14
-17 42 -52 61 -78 37 -49 150 -159 216 -211 42 -33 143 -88 239 -129 64 -28
165 -49 310 -65 56 -6 1180 -10 2953 -10 2844 0 2862 0 2882 -20 20 -20 20
-35 20 -1172 0 -710 -4 -1159 -10 -1168 -8 -13 -344 -15 -2912 -16 -1597 -1
-2950 -4 -3008 -8 -88 -5 -114 -11 -167 -36 -34 -17 -73 -30 -86 -30 -13 0
-39 -10 -58 -23 -19 -12 -49 -29 -67 -36 -55 -23 -128 -82 -257 -209 -41 -40
-91 -99 -113 -130 -56 -84 -109 -182 -117 -221 -4 -18 -18 -56 -31 -85 -19
-41 -25 -79 -33 -200 -12 -188 1 -390 28 -444 11 -21 27 -64 36 -97 10 -33 28
-75 40 -95 12 -19 42 -69 66 -110 29 -51 78 -110 151 -182 59 -59 122 -115
140 -124 18 -9 48 -30 66 -45 18 -16 39 -29 46 -29 7 0 21 -9 31 -20 10 -11
39 -26 65 -34 26 -8 64 -23 86 -34 94 -48 -6 -46 3129 -52 1623 -3 2956 -9
2963 -13 10 -7 12 -247 12 -1166 0 -902 -3 -1161 -13 -1174 -11 -16 -204 -17
-2852 -17 -2457 0 -2860 -2 -2985 -15 -177 -18 -193 -22 -250 -50 -25 -12 -61
-26 -80 -30 -19 -4 -53 -20 -74 -36 -22 -16 -45 -29 -51 -29 -11 0 -88 -52
-143 -98 -66 -53 -212 -196 -212 -206 0 -6 -16 -31 -35 -55 -19 -24 -35 -49
-35 -55 0 -7 -11 -27 -25 -46 -14 -19 -30 -53 -36 -75 -5 -22 -20 -65 -33 -95
-54 -125 -55 -519 -1 -655 13 -33 29 -80 35 -104 7 -25 23 -61 36 -80 13 -20
24 -40 24 -45 0 -17 84 -140 139 -204 61 -70 166 -163 233 -204 65 -40 177
-98 189 -98 6 0 45 -14 87 -31 65 -26 98 -32 212 -40 78 -5 1344 -9 2989 -9
2122 0 2857 -3 2867 -11 12 -10 14 -541 14 -3420 l0 -3409 -42 -30 c-23 -17
-65 -37 -94 -46 -29 -8 -58 -21 -64 -29 -7 -8 -35 -22 -62 -30 -27 -8 -64 -24
-82 -35 -18 -11 -51 -26 -72 -34 -22 -7 -57 -25 -78 -40 -21 -14 -46 -26 -54
-26 -8 0 -36 -13 -61 -29 -25 -16 -57 -32 -71 -36 -14 -4 -38 -18 -55 -30 -16
-12 -47 -28 -67 -34 -20 -7 -41 -18 -48 -25 -6 -8 -33 -23 -60 -35 -27 -12
-52 -26 -56 -32 -3 -6 -27 -20 -53 -32 -25 -11 -59 -30 -76 -42 -16 -13 -41
-26 -54 -30 -14 -4 -42 -20 -64 -36 -22 -16 -45 -29 -52 -29 -6 0 -27 -11 -46
-25 -60 -45 -138 -95 -147 -95 -5 0 -27 -14 -48 -31 -22 -17 -48 -35 -59 -40
-11 -5 -45 -27 -75 -50 -30 -22 -77 -56 -105 -75 -84 -58 -148 -103 -190 -134
-22 -17 -56 -42 -75 -55 -19 -14 -57 -43 -85 -65 -27 -22 -72 -55 -100 -74
-82 -56 -347 -269 -529 -426 -147 -128 -709 -683 -861 -852 -60 -67 -119 -132
-130 -143 -11 -12 -42 -49 -70 -84 -27 -35 -77 -96 -110 -136 -110 -135 -183
-229 -320 -415 -11 -14 -37 -51 -58 -81 -21 -30 -51 -72 -67 -94 -67 -90 -233
-336 -252 -375 -14 -28 -61 -103 -95 -153 -12 -18 -34 -52 -48 -77 -14 -25
-41 -70 -60 -100 -19 -30 -48 -82 -65 -115 -17 -33 -47 -87 -65 -120 -19 -33
-47 -88 -64 -121 -16 -34 -34 -64 -39 -68 -6 -3 -16 -23 -23 -44 -6 -20 -21
-50 -32 -65 -10 -16 -25 -47 -32 -71 -7 -23 -25 -59 -39 -80 -14 -21 -26 -45
-26 -52 0 -8 -16 -43 -35 -80 -19 -36 -35 -72 -35 -81 0 -8 -11 -33 -24 -56
-13 -23 -29 -60 -36 -81 -7 -22 -21 -54 -31 -71 -11 -18 -26 -56 -35 -86 -9
-30 -24 -65 -34 -79 -10 -14 -22 -44 -26 -65 -4 -22 -19 -62 -35 -90 -15 -27
-31 -68 -34 -90 -4 -22 -17 -58 -30 -80 -12 -22 -28 -65 -35 -95 -7 -30 -21
-71 -31 -91 -10 -20 -25 -67 -34 -105 -9 -38 -22 -79 -30 -91 -8 -12 -24 -61
-35 -108 -11 -48 -26 -99 -34 -114 -8 -15 -21 -64 -30 -109 -9 -45 -22 -95
-31 -111 -8 -16 -22 -71 -31 -122 -8 -51 -24 -113 -34 -138 -10 -25 -23 -86
-29 -134 -7 -49 -20 -110 -30 -135 -10 -26 -26 -101 -36 -167 -9 -66 -25 -149
-35 -185 -10 -36 -24 -117 -29 -180 -6 -64 -20 -156 -30 -205 -11 -50 -27
-182 -36 -295 -9 -113 -23 -250 -32 -305 -14 -83 -17 -215 -20 -774 -2 -439
-7 -679 -13 -685 -6 -6 -109 -11 -268 -12 -239 -1 -261 -2 -317 -23 -33 -12
-82 -28 -110 -36 -53 -14 -151 -62 -225 -110 -142 -93 -281 -236 -377 -389
-50 -79 -111 -208 -118 -252 -4 -21 -17 -73 -28 -114 l-22 -75 0 -2330 0
-2330 22 -75 c11 -41 24 -93 28 -115 4 -22 17 -60 30 -85 13 -25 43 -85 67
-133 49 -100 138 -216 248 -323 84 -81 128 -116 180 -140 19 -9 46 -24 60 -34
47 -33 214 -89 300 -99 121 -16 20949 -15 21075 0 50 6 110 20 135 31 25 11
66 26 92 34 26 8 50 19 53 24 4 6 32 24 63 39 31 16 98 65 147 109 99 87 219
223 249 280 10 20 29 50 42 65 13 15 29 47 35 70 6 23 19 52 30 65 10 14 19
32 19 42 0 9 14 64 30 122 l30 105 -3 2354 -3 2354 -27 95 c-31 106 -89 233
-145 314 -97 141 -267 321 -362 382 -80 51 -193 105 -260 124 -36 10 -90 26
-120 35 -42 12 -114 17 -309 19 -139 2 -257 8 -262 13 -5 5 -5 69 1 154 5 79
10 340 10 579 0 321 -4 469 -15 565 -23 196 -34 315 -45 471 -5 78 -18 186
-29 240 -11 54 -27 167 -35 249 -8 83 -21 168 -29 190 -8 22 -22 96 -32 165
-9 69 -26 150 -36 180 -10 30 -23 93 -29 140 -7 47 -22 119 -35 160 -13 41
-26 102 -30 135 -4 33 -16 80 -26 105 -11 25 -28 86 -39 137 -10 51 -26 105
-34 121 -8 16 -22 61 -30 100 -8 38 -24 88 -35 110 -11 22 -24 60 -27 84 -4
23 -20 70 -36 103 -15 33 -28 71 -28 85 0 14 -13 52 -28 85 -16 33 -34 82 -41
109 -7 27 -21 62 -31 76 -11 15 -23 45 -28 66 -5 21 -21 61 -35 89 -15 27 -27
57 -27 66 0 10 -13 42 -30 74 -16 31 -35 75 -41 98 -6 23 -20 54 -30 69 -11
15 -26 47 -33 72 -8 24 -22 57 -33 73 -11 15 -25 44 -32 63 -6 19 -22 51 -35
70 -12 19 -26 47 -30 62 -3 16 -20 49 -36 75 -17 26 -30 54 -30 63 0 9 -13 34
-29 56 -16 21 -32 50 -36 64 -4 14 -13 32 -21 40 -7 9 -25 40 -40 70 -33 70
-75 147 -98 182 -22 33 -56 97 -89 163 -13 28 -34 58 -45 69 -11 10 -24 31
-27 46 -3 15 -15 36 -26 46 -12 10 -27 34 -35 54 -8 19 -23 44 -33 55 -10 11
-26 34 -35 52 -9 18 -27 44 -41 59 -14 15 -25 32 -25 38 0 12 -64 102 -105
149 -14 15 -25 31 -25 36 0 5 -16 28 -35 51 -19 23 -35 46 -35 51 0 6 -26 41
-57 79 -32 38 -74 92 -93 120 -31 45 -59 82 -158 210 -105 137 -248 306 -298
355 -11 11 -54 58 -95 105 -110 127 -648 658 -810 800 -140 123 -348 295 -429
355 -23 17 -61 46 -85 65 -24 19 -62 49 -85 65 -22 17 -58 44 -80 60 -22 17
-62 46 -91 65 -28 19 -68 49 -90 65 -21 17 -57 44 -79 60 -23 17 -55 42 -73
56 -18 15 -51 36 -74 48 -24 12 -43 25 -43 29 0 5 -17 18 -39 30 -21 12 -44
29 -51 37 -8 9 -29 23 -48 30 -18 8 -47 26 -63 39 -16 14 -39 28 -51 31 -13 4
-32 16 -44 26 -21 20 -74 51 -154 90 -25 12 -56 30 -69 41 -14 10 -43 28 -65
39 -23 11 -68 35 -101 54 -33 18 -88 47 -121 63 -34 17 -64 35 -68 40 -3 6
-28 18 -55 27 -27 9 -55 22 -61 30 -6 8 -33 22 -58 31 -26 10 -54 24 -63 31
-9 8 -41 23 -70 34 -29 11 -63 29 -76 39 -14 10 -48 26 -77 34 -30 9 -59 22
-66 30 -6 8 -36 22 -66 31 -30 8 -70 29 -89 46 l-35 31 0 3413 c0 2056 4 3416
9 3419 5 4 1282 6 2838 6 1555 1 2898 5 2984 9 122 7 167 14 203 29 25 12 72
28 105 36 32 8 76 26 96 40 21 15 43 26 50 26 7 0 32 16 55 35 23 19 46 35 52
35 17 0 139 112 187 172 83 104 96 122 114 162 10 23 24 47 32 56 7 8 20 38
28 65 8 28 24 70 36 95 12 28 27 103 39 195 11 83 18 164 16 180 -2 17 -11 98
-19 180 -12 106 -22 159 -35 182 -11 18 -26 54 -33 81 -8 26 -29 70 -46 97
-17 27 -31 53 -31 58 0 10 -15 29 -109 142 -80 97 -185 186 -260 221 -19 9
-49 26 -65 38 -17 13 -51 28 -76 35 -25 7 -59 21 -75 31 -17 11 -76 27 -130
37 -94 16 -286 17 -3019 20 -2138 2 -2923 6 -2932 14 -12 10 -14 210 -14 1173
0 890 3 1165 12 1174 9 9 656 12 2849 12 1919 0 2887 3 2990 11 84 6 169 17
188 24 20 7 59 21 86 31 85 29 177 77 225 118 17 14 36 26 40 26 12 0 230 218
230 230 0 5 12 22 26 39 14 17 36 50 48 73 12 24 29 57 38 73 20 37 56 127 73
180 21 66 40 233 38 340 -2 108 -35 328 -52 349 -6 7 -20 40 -31 72 -11 32
-31 75 -44 94 -13 19 -27 46 -31 60 -4 14 -21 40 -36 58 -16 18 -29 36 -29 41
0 8 -116 127 -179 185 -50 45 -134 106 -147 106 -6 0 -31 13 -55 29 -24 17
-66 35 -93 41 -26 6 -62 18 -78 26 -17 9 -58 20 -92 25 -36 6 -1247 9 -3013 9
-1924 -1 -2953 3 -2957 9 -4 5 -6 535 -6 1177 0 840 3 1170 11 1180 9 11 495
13 2869 14 1573 0 2872 2 2887 5 15 2 82 12 148 21 74 11 147 28 192 46 39 15
77 28 83 28 13 0 117 60 160 91 14 11 41 28 60 38 46 26 186 170 239 246 22
34 41 64 41 68 0 3 13 27 29 52 16 25 32 62 36 82 4 21 16 55 27 78 14 26 27
87 39 180 10 77 18 169 19 205 0 35 -7 121 -16 190 -11 85 -24 139 -39 170
-13 25 -28 66 -35 90 -6 25 -18 52 -25 60 -7 8 -25 38 -39 65 -41 77 -79 126
-160 206 -102 102 -144 139 -159 139 -7 0 -28 13 -47 29 -19 15 -52 33 -72 40
-20 7 -42 18 -48 26 -7 8 -40 24 -74 34 -33 11 -88 30 -121 43 l-60 23 -2965
3 c-1630 1 -2968 6 -2972 10 -5 5 -8 817 -8 1805 0 1263 -3 1818 -11 1868 -6
39 -24 99 -40 133 -16 33 -29 68 -29 77 0 9 -11 32 -24 52 -13 19 -27 46 -31
58 -4 13 -20 40 -35 59 -15 19 -35 49 -43 67 -19 35 -201 222 -262 268 -62 47
-157 101 -190 109 -16 4 -53 18 -81 32 -39 18 -86 28 -190 39 -119 13 -537 15
-2934 14 -1601 -1 -2833 -6 -2885 -11z m4496 -2245 c10 -10 12 -2207 10
-10019 -1 -5504 -4 -10011 -7 -10016 -8 -13 -50 -9 -178 16 -66 14 -164 27
-216 31 -102 6 -328 30 -425 45 -33 5 -224 15 -424 21 -281 10 -447 10 -735 1
-204 -7 -423 -19 -486 -27 -212 -27 -284 -34 -385 -41 -55 -3 -136 -14 -180
-24 -127 -29 -173 -34 -190 -20 -13 11 -15 1173 -15 10019 0 7682 3 10010 12
10019 9 9 391 11 1609 9 1233 -1 1601 -5 1610 -14z m-1231 -22168 c96 -8 270
-22 385 -30 123 -10 256 -26 320 -40 61 -13 150 -26 198 -30 49 -4 128 -17
175 -30 48 -13 125 -29 172 -35 47 -7 106 -21 132 -31 26 -10 91 -26 145 -35
54 -9 114 -25 134 -34 19 -10 64 -24 99 -30 35 -6 81 -20 102 -31 21 -11 67
-25 103 -33 35 -7 75 -21 89 -29 13 -9 52 -23 87 -32 34 -9 79 -25 98 -35 20
-10 56 -23 81 -30 25 -7 70 -25 100 -41 30 -16 62 -29 70 -29 8 0 31 -10 50
-22 19 -11 61 -29 92 -39 32 -9 69 -26 84 -38 15 -12 35 -21 45 -21 9 0 47
-16 83 -35 37 -19 72 -35 80 -35 7 0 31 -12 52 -26 21 -15 56 -33 78 -41 22
-7 47 -20 56 -28 9 -8 32 -20 51 -26 19 -7 49 -23 67 -36 17 -13 47 -29 65
-35 17 -6 46 -21 62 -34 17 -12 41 -25 55 -29 14 -4 43 -20 65 -35 47 -32 89
-57 165 -100 30 -17 75 -44 100 -60 25 -17 58 -38 74 -48 16 -9 48 -31 72 -49
23 -17 55 -39 71 -48 15 -9 46 -29 68 -46 22 -16 63 -46 90 -65 59 -41 114
-82 141 -106 19 -17 69 -56 152 -120 35 -28 184 -151 307 -255 113 -95 361
-337 525 -513 141 -150 400 -445 464 -529 54 -71 82 -107 136 -177 25 -33 72
-99 105 -148 33 -49 79 -116 102 -150 23 -33 43 -66 43 -73 0 -6 12 -26 26
-43 26 -31 54 -76 93 -156 11 -22 29 -51 39 -65 11 -13 28 -42 40 -64 46 -91
85 -161 98 -176 7 -8 19 -31 26 -50 6 -19 21 -47 33 -64 12 -16 28 -46 35 -65
8 -19 22 -45 31 -58 10 -13 25 -45 34 -72 9 -27 22 -54 30 -60 8 -6 22 -35 31
-63 9 -29 25 -63 35 -77 10 -14 23 -44 28 -66 6 -23 20 -53 31 -66 10 -14 24
-46 30 -72 6 -26 21 -64 35 -84 13 -20 29 -57 34 -83 6 -25 21 -65 35 -90 13
-24 27 -64 31 -89 4 -25 18 -63 30 -85 13 -22 29 -67 35 -100 7 -33 21 -77 32
-98 10 -21 24 -64 29 -95 6 -31 21 -82 34 -112 13 -30 28 -87 34 -126 6 -39
20 -91 30 -115 11 -25 25 -79 31 -120 6 -40 20 -99 31 -129 10 -30 26 -105 34
-166 8 -61 23 -147 34 -190 11 -43 25 -133 31 -199 7 -66 18 -156 26 -200 24
-136 33 -230 45 -510 7 -175 9 -403 5 -645 -7 -371 -15 -512 -29 -526 -4 -4
-3471 -6 -7704 -5 -5042 1 -7701 6 -7708 12 -12 12 -31 334 -40 664 -5 174 -3
274 9 410 9 99 21 250 26 335 13 194 27 312 45 370 7 25 19 100 25 168 6 68
18 144 26 170 8 26 24 104 34 174 11 69 28 148 39 176 11 27 23 78 27 113 4
35 19 100 34 144 15 44 31 102 35 130 4 27 16 67 26 88 11 20 27 70 36 110 8
39 24 86 34 103 11 18 24 58 30 90 6 32 19 70 29 84 10 14 26 55 35 90 9 36
23 75 31 88 9 13 26 53 38 90 27 79 58 154 96 237 16 33 31 73 34 88 4 16 18
45 31 65 13 20 27 51 31 67 3 17 19 50 34 75 15 25 31 56 35 70 4 14 13 32 20
40 7 8 25 40 40 70 14 30 41 82 60 115 18 33 48 88 65 122 18 34 38 68 46 74
8 6 14 17 14 24 0 7 16 36 35 64 19 28 35 55 35 60 0 5 11 22 24 38 13 15 30
44 38 63 9 20 22 43 30 51 9 8 25 33 37 55 23 41 52 85 96 144 15 19 49 69 76
110 52 78 74 109 149 205 25 31 52 68 61 81 9 13 28 36 42 52 14 15 86 97 158
182 231 269 269 311 439 480 173 172 339 324 475 434 44 36 94 76 110 90 52
43 111 90 159 126 26 19 65 49 86 65 55 42 106 79 170 125 30 21 71 50 90 65
59 44 103 73 145 96 22 12 51 30 65 41 41 31 102 70 150 95 25 13 70 39 100
58 30 19 76 45 102 58 26 13 55 30 64 38 17 15 80 49 174 94 30 15 66 35 80
44 14 10 40 23 58 29 18 6 45 20 61 31 15 11 40 23 57 27 16 3 49 19 74 34 25
15 59 31 76 35 17 3 46 17 65 30 18 14 49 28 68 31 20 4 59 20 87 35 28 16 57
29 66 29 8 0 41 13 74 29 32 16 79 35 104 41 24 7 65 22 90 35 25 12 65 26 90
30 25 4 60 16 79 26 18 11 65 26 102 34 38 8 86 24 107 34 21 11 67 25 103 31
35 6 87 20 116 30 28 10 90 26 137 35 48 9 105 25 129 35 23 10 80 23 127 29
47 6 125 22 173 35 48 13 127 27 175 31 92 7 159 17 257 40 33 8 164 22 290
31 127 9 293 22 370 29 199 17 560 17 765 0z m8788 -10797 c9 -9 12 -260 12
-1069 0 -876 -2 -1058 -14 -1068 -10 -8 -2415 -10 -9197 -9 l-9184 3 -3 1064
c-1 778 1 1067 9 1077 10 12 1470 14 9188 14 7124 0 9180 -3 9189 -12z"/>
  </g>
</svg>