<svg xmlns="http://www.w3.org/2000/svg" viewBox="0 0 4096.000000 4096.000000">
  <g transform="translate(0.000000,4096.000000) scale(0.100000,-0.100000)" fill="#f4f5f7" stroke="#f4f5f7" stroke-width="40" stroke-linejoin="round" stroke-linecap="round">
    <path d="M19590 39829 c-295 -10 -995 -64 -1227 -93 -60 -8 -184 -24 -278 -36
-93 -11 -237 -32 -320 -45 -82 -13 -213 -33 -290 -44 -77 -11 -162 -25 -190
-31 -43 -10 -266 -51 -575 -106 -165 -29 -312 -60 -610 -128 -85 -19 -234 -53
-331 -75 -360 -81 -840 -218 -1244 -353 -176 -60 -419 -146 -525 -188 -41 -17
-136 -52 -210 -79 -74 -27 -178 -69 -230 -92 -89 -39 -190 -79 -340 -135 -76
-29 -222 -90 -265 -111 -16 -8 -62 -28 -102 -43 -40 -16 -109 -48 -155 -71
-46 -22 -105 -49 -131 -60 -89 -35 -948 -455 -982 -479 -5 -4 -71 -39 -145
-77 -207 -108 -231 -122 -510 -283 -300 -174 -557 -326 -675 -400 -60 -38
-130 -81 -154 -96 -110 -67 -567 -374 -847 -570 -321 -224 -631 -460 -775
-589 -61 -55 -246 -206 -353 -289 -73 -56 -205 -169 -401 -340 -251 -221 -341
-302 -595 -536 -164 -151 -958 -945 -1076 -1075 -54 -60 -131 -144 -170 -185
-76 -81 -205 -227 -269 -305 -22 -27 -65 -78 -95 -114 -31 -37 -91 -112 -135
-169 -44 -57 -146 -186 -226 -287 -198 -248 -307 -393 -422 -560 -176 -255
-285 -410 -304 -435 -22 -27 -205 -301 -298 -445 -32 -49 -68 -106 -81 -125
-40 -61 -170 -276 -354 -585 -66 -112 -250 -435 -250 -439 0 -3 -28 -53 -61
-112 -71 -125 -375 -729 -412 -819 -14 -34 -80 -173 -147 -310 -135 -277 -280
-587 -280 -599 0 -3 -17 -42 -39 -88 -57 -124 -75 -165 -158 -373 -108 -272
-123 -313 -244 -680 -147 -444 -206 -638 -313 -1035 -20 -74 -49 -182 -65
-240 -51 -186 -99 -387 -177 -740 -100 -451 -142 -668 -215 -1110 -32 -201
-73 -446 -89 -545 -26 -161 -70 -494 -100 -770 -26 -237 -80 -973 -91 -1240
-13 -334 -7 -1363 10 -1625 6 -91 20 -235 31 -320 10 -85 26 -222 35 -305 9
-82 27 -229 40 -325 14 -96 29 -229 35 -295 11 -130 92 -625 139 -850 16 -77
32 -167 36 -200 18 -165 57 -411 80 -505 50 -206 75 -309 156 -645 143 -597
174 -709 358 -1285 44 -135 109 -339 146 -455 140 -439 257 -745 452 -1180 24
-55 59 -134 78 -175 94 -213 137 -304 238 -510 223 -457 447 -907 487 -980 23
-41 53 -97 68 -125 44 -83 316 -565 440 -780 73 -127 214 -350 397 -627 49
-75 114 -174 143 -220 29 -46 86 -130 127 -188 70 -100 213 -307 245 -354 15
-22 148 -198 362 -481 106 -141 153 -202 346 -449 119 -153 532 -620 793 -896
140 -149 895 -902 1004 -1001 33 -30 96 -86 140 -124 44 -38 109 -96 145 -130
251 -233 442 -399 624 -544 118 -94 201 -160 406 -326 132 -107 384 -298 531
-403 41 -29 119 -85 173 -124 353 -251 926 -628 1111 -729 33 -18 103 -58 155
-89 52 -31 124 -73 160 -92 36 -20 94 -53 130 -73 516 -296 1271 -663 1950
-949 74 -31 173 -75 220 -96 47 -21 130 -57 185 -80 55 -22 109 -45 120 -50
38 -17 230 -92 365 -141 74 -28 153 -57 175 -66 22 -8 117 -42 210 -73 94 -32
235 -80 315 -108 524 -179 1310 -401 1795 -507 433 -95 735 -154 1140 -225
393 -69 1139 -165 1510 -195 44 -3 177 -15 295 -25 299 -27 756 -40 1425 -41
747 -2 1178 12 1600 51 116 10 273 24 350 30 315 25 734 75 1010 121 329 54
816 148 1115 214 358 78 879 207 1115 274 385 110 430 124 845 270 113 40 295
104 405 142 110 39 236 83 280 99 44 16 118 42 165 58 86 31 428 165 510 200
25 11 90 39 145 62 498 207 540 226 935 424 670 335 821 416 1100 584 41 25
95 57 120 70 25 14 61 35 80 47 19 12 98 59 175 105 77 46 183 111 235 145
102 66 135 86 220 136 30 18 66 41 80 51 14 10 108 73 210 140 102 67 246 165
322 218 75 52 189 131 254 175 64 44 175 123 245 175 71 52 166 122 211 155
45 33 108 80 140 105 31 25 77 61 103 80 101 76 407 330 530 439 72 63 166
147 210 185 44 39 107 96 140 127 33 31 159 148 280 260 314 292 675 649 919
909 115 124 215 230 222 235 33 29 407 465 582 679 291 355 351 429 483 602
143 188 197 259 288 384 50 69 105 143 122 165 122 162 159 212 218 300 37 55
90 134 118 175 264 391 521 804 755 1213 22 38 54 92 72 120 18 29 52 88 76
132 23 44 51 94 62 112 60 99 318 614 358 713 10 25 51 113 90 195 112 233
136 286 227 495 115 263 162 379 223 544 28 77 89 234 135 350 120 302 157
402 215 571 77 222 150 440 175 525 13 41 46 147 73 235 27 88 79 266 115 395
59 211 80 299 134 550 8 41 28 125 44 185 60 239 167 762 193 950 8 55 28 177
44 270 43 243 88 525 112 709 12 88 23 163 25 166 9 14 35 363 40 540 4 102
15 255 25 340 37 299 43 552 37 1489 -6 837 -14 1120 -37 1341 -5 52 -14 176
-20 275 -17 299 -30 425 -56 537 -15 67 -28 168 -34 265 -6 87 -15 181 -20
208 -5 28 -21 136 -35 240 -15 105 -47 276 -72 380 -46 190 -62 268 -103 485
-11 63 -50 243 -87 400 -36 157 -72 317 -80 355 -8 39 -35 138 -59 220 -25 83
-65 231 -89 330 -55 220 -78 301 -145 520 -29 94 -68 217 -85 275 -18 58 -49
157 -70 220 -20 63 -47 149 -60 190 -43 135 -103 296 -239 638 -73 185 -157
397 -186 471 -61 158 -141 349 -285 681 -78 180 -425 865 -710 1402 -26 49
-61 110 -189 321 -11 18 -34 55 -51 82 -17 28 -51 82 -75 120 -24 39 -53 86
-65 105 -12 19 -40 64 -62 100 -206 332 -509 792 -591 896 -35 44 -132 179
-192 269 -86 127 -309 425 -410 546 -30 37 -89 110 -130 164 -323 418 -577
717 -918 1080 -329 350 -659 678 -1282 1270 -52 50 -142 131 -200 181 -58 50
-168 144 -245 210 -202 174 -438 362 -680 543 -307 230 -452 332 -740 524
-268 179 -226 151 -432 290 -95 64 -257 167 -360 228 -104 62 -215 129 -248
149 -33 21 -103 61 -155 91 -52 29 -102 58 -110 65 -15 11 -163 98 -265 155
-27 15 -77 44 -110 64 -76 46 -521 268 -640 319 -49 21 -211 98 -360 171 -497
245 -727 344 -1360 588 -643 249 -1759 612 -2285 746 -555 140 -1131 264
-1445 311 -77 12 -156 25 -175 30 -92 24 -515 93 -675 110 -99 11 -247 29
-330 40 -82 10 -229 24 -325 30 -96 6 -236 18 -310 25 -508 54 -1665 79 -2420
54z m995 -1909 c763 -25 992 -39 1435 -86 438 -46 605 -65 647 -75 23 -5 126
-20 230 -33 103 -14 307 -46 453 -71 146 -26 339 -59 430 -75 91 -15 188 -34
215 -40 28 -7 104 -22 170 -35 116 -22 228 -45 497 -101 70 -15 141 -35 157
-45 18 -11 31 -27 31 -38 0 -11 -17 -33 -37 -49 -21 -16 -108 -64 -193 -106
-144 -70 -553 -261 -628 -293 -18 -7 -81 -37 -140 -65 -59 -28 -150 -70 -202
-93 -52 -24 -212 -97 -355 -164 -143 -67 -294 -137 -335 -156 -41 -19 -109
-49 -150 -68 -41 -19 -113 -51 -160 -72 -47 -21 -136 -62 -198 -91 -62 -30
-115 -54 -118 -54 -7 0 -625 -288 -911 -424 -110 -53 -241 -109 -290 -125 -70
-24 -95 -28 -125 -22 -20 5 -49 18 -65 29 -32 23 -151 145 -298 307 -270 296
-714 757 -974 1010 -376 367 -933 930 -942 953 -5 13 -6 28 -3 34 4 5 23 17
43 26 27 11 92 17 261 22 363 10 1241 11 1555 0z m-3782 -285 c36 -17 97 -74
207 -190 137 -147 234 -248 465 -490 127 -132 271 -283 320 -335 49 -52 128
-135 175 -185 81 -84 231 -245 500 -535 63 -68 158 -169 211 -225 52 -55 131
-138 174 -185 43 -47 121 -130 173 -184 51 -55 100 -113 108 -128 8 -16 12
-38 9 -48 -4 -11 -18 -23 -33 -27 -15 -5 -1775 -8 -3912 -8 -3204 0 -3892 2
-3922 13 -56 20 -51 48 20 114 84 77 551 405 732 513 30 18 118 71 195 117 77
46 205 120 285 163 80 43 201 109 270 148 154 87 552 290 720 367 69 32 161
75 205 95 44 20 125 56 180 80 55 24 114 50 130 58 58 29 250 115 274 122 13
4 74 30 135 57 110 49 494 197 630 243 272 93 841 264 1141 344 105 28 249 66
320 85 144 38 238 45 288 21z m10597 -1010 c14 -7 37 -24 50 -38 26 -26 148
-227 233 -382 95 -174 110 -201 142 -260 62 -116 160 -281 235 -396 120 -186
144 -226 339 -564 275 -478 293 -511 426 -755 68 -124 150 -272 182 -330 275
-486 288 -509 355 -649 123 -257 320 -649 374 -746 31 -55 90 -161 131 -235
42 -74 124 -214 183 -310 59 -96 112 -190 118 -208 12 -36 8 -58 -14 -66 -27
-10 -113 13 -256 70 -79 30 -179 68 -223 84 -164 58 -283 103 -394 146 -126
50 -248 95 -516 189 -99 34 -223 78 -275 98 -52 19 -153 55 -225 81 -295 106
-415 151 -515 194 -58 24 -139 57 -180 72 -41 16 -133 51 -205 78 -236 91
-479 183 -545 207 -36 13 -166 63 -290 110 -124 48 -342 127 -485 176 -143 48
-298 105 -345 127 -47 21 -195 82 -330 136 -324 128 -366 144 -560 217 -326
122 -577 217 -680 257 -218 85 -498 191 -585 222 -49 17 -146 45 -215 61 -219
52 -267 70 -560 206 -92 43 -150 85 -150 109 0 23 57 67 140 109 47 23 162 77
255 120 94 42 193 88 220 100 79 37 159 72 325 145 85 37 198 88 250 113 123
59 448 207 454 207 3 0 60 26 128 59 320 152 832 398 913 436 124 60 384 180
480 222 100 44 129 56 460 191 346 140 548 225 705 294 129 57 292 114 345
121 37 4 72 -2 105 -18z m2920 -1637 c96 -62 191 -125 210 -139 296 -219 608
-459 879 -676 125 -100 718 -623 886 -781 117 -109 700 -677 861 -837 83 -82
175 -177 205 -211 30 -33 164 -179 299 -325 135 -145 286 -311 336 -369 83
-95 261 -314 356 -437 21 -26 79 -102 131 -168 51 -66 131 -174 178 -240 204
-285 252 -367 247 -413 -3 -27 -4 -27 -73 -26 -48 1 -100 11 -165 31 -258 83
-601 186 -735 222 -82 22 -235 63 -340 91 -403 108 -467 126 -745 213 -80 24
-190 55 -244 67 -175 39 -210 63 -280 189 -29 53 -79 143 -111 201 -195 352
-212 383 -365 641 -32 52 -109 178 -171 280 -63 101 -131 211 -150 244 -37 62
-47 81 -225 385 -59 102 -180 307 -269 455 -234 389 -350 592 -645 1130 -42
77 -108 192 -145 255 -130 221 -155 266 -161 298 -6 31 -5 32 27 32 26 0 74
-26 209 -112z m-11304 -1413 c22 -9 34 -21 34 -33 0 -39 -65 -113 -282 -322
-352 -340 -479 -466 -1803 -1787 -1061 -1059 -1754 -1759 -2317 -2338 -372
-384 -586 -593 -622 -610 -64 -29 -97 -12 -214 108 -55 56 -149 158 -208 227
-60 69 -239 258 -399 420 -159 163 -321 329 -360 371 -38 41 -117 126 -175
188 -58 63 -118 128 -135 145 -79 84 -305 326 -425 456 -145 158 -247 265
-500 525 -91 94 -210 220 -266 280 -55 61 -154 167 -220 237 -661 704 -614
654 -731 785 -96 107 -150 165 -278 303 -44 47 -121 130 -170 185 -74 82 -205
220 -375 394 -105 109 -216 229 -250 272 -22 28 -40 62 -40 75 0 38 44 53 187
64 438 33 4021 65 7687 68 1555 1 1833 -1 1862 -13z m3358 -617 c89 -33 247
-91 351 -130 105 -38 224 -82 265 -98 41 -16 246 -93 455 -170 209 -78 414
-154 455 -170 117 -45 364 -138 490 -185 135 -50 366 -140 500 -195 52 -21
118 -47 145 -59 28 -11 185 -70 350 -131 300 -111 590 -221 930 -352 260 -100
512 -194 650 -243 66 -24 179 -64 250 -90 72 -25 213 -76 315 -112 165 -58
293 -106 540 -203 314 -122 408 -158 430 -165 14 -4 50 -18 80 -31 97 -41 656
-249 980 -364 91 -32 219 -80 285 -105 66 -26 190 -73 275 -105 193 -72 261
-102 279 -123 20 -25 17 -61 -8 -96 -43 -59 -274 -254 -651 -548 -30 -23 -108
-84 -173 -135 -66 -51 -134 -104 -152 -118 -182 -139 -248 -190 -297 -229 -31
-25 -122 -98 -204 -161 -81 -63 -188 -149 -238 -190 -50 -42 -169 -139 -265
-215 -95 -77 -215 -174 -265 -215 -154 -125 -395 -318 -556 -445 -84 -66 -183
-145 -220 -175 -37 -30 -114 -91 -170 -135 -56 -44 -121 -96 -145 -115 -23
-19 -77 -62 -120 -95 -280 -215 -377 -293 -660 -536 -214 -184 -392 -329 -570
-464 -71 -54 -152 -117 -180 -140 -27 -23 -88 -71 -135 -107 -47 -35 -173
-136 -280 -224 -405 -332 -666 -527 -721 -539 -53 -12 -74 12 -112 132 -20 60
-43 146 -52 193 -9 47 -27 126 -41 175 -13 50 -33 128 -44 174 -11 46 -43 131
-70 190 -44 92 -53 121 -65 215 -14 105 -26 164 -45 216 -18 53 -102 336 -170
575 -40 138 -94 316 -120 397 -27 80 -70 242 -95 360 -115 529 -171 729 -265
948 -35 82 -56 152 -75 245 -36 183 -95 388 -225 790 -32 99 -70 243 -84 320
-40 213 -63 304 -123 495 -69 217 -99 324 -202 720 -23 85 -54 205 -71 265
-17 61 -48 175 -69 255 -46 175 -139 496 -186 640 -18 58 -66 204 -105 324
-79 242 -91 316 -55 342 14 11 32 14 59 9 22 -3 112 -33 200 -67z m-1787 -163
c12 -8 36 -55 56 -107 55 -142 165 -541 237 -858 17 -74 42 -175 55 -225 13
-49 47 -182 76 -295 114 -453 172 -669 253 -938 25 -85 59 -220 76 -301 16
-81 48 -217 70 -302 23 -85 50 -192 60 -239 11 -47 40 -159 65 -250 25 -91 74
-280 110 -420 36 -140 83 -322 105 -405 22 -82 83 -321 136 -530 91 -362 137
-526 183 -660 20 -60 44 -148 146 -550 29 -115 74 -277 100 -360 26 -82 64
-206 86 -275 64 -204 236 -782 271 -908 17 -65 39 -146 49 -182 23 -83 23
-105 2 -125 -25 -26 -90 -14 -229 40 -65 26 -177 68 -249 95 -181 67 -368 137
-445 167 -36 14 -139 51 -230 83 -265 94 -433 159 -765 298 -39 16 -160 62
-270 101 -110 39 -211 76 -225 82 -14 6 -54 22 -90 34 -36 13 -119 47 -185 75
-66 28 -154 64 -195 79 -41 16 -118 44 -170 64 -185 70 -317 119 -440 163 -69
25 -179 65 -245 89 -147 53 -323 121 -560 215 -183 72 -402 151 -735 265 -102
35 -255 88 -340 118 -85 30 -272 95 -415 145 -143 50 -332 118 -420 151 -246
93 -392 144 -610 211 -414 127 -487 152 -506 171 -10 10 -19 32 -19 48 0 33
29 72 143 191 45 47 143 151 217 230 498 532 660 699 1354 1397 241 243 442
447 447 454 4 7 178 185 386 395 208 210 550 557 761 771 549 557 1367 1379
1577 1585 99 96 198 187 219 202 44 29 72 33 103 11z m-12289 -485 c57 -35
204 -196 740 -815 148 -170 282 -323 298 -340 16 -16 63 -68 104 -115 41 -47
98 -110 126 -140 28 -30 82 -89 120 -130 38 -42 116 -127 174 -189 58 -63 161
-173 230 -245 209 -218 443 -472 610 -661 67 -77 220 -243 339 -369 119 -126
274 -290 345 -365 70 -75 196 -212 279 -306 185 -209 304 -339 466 -510 162
-171 398 -445 491 -569 105 -142 150 -223 150 -269 0 -44 -10 -65 -59 -127
-20 -24 -43 -53 -51 -64 -8 -11 -69 -80 -135 -155 -164 -187 -614 -637 -881
-881 -33 -30 -102 -95 -154 -145 -113 -106 -1244 -1221 -1645 -1620 -429 -427
-832 -822 -1031 -1009 -297 -281 -612 -608 -930 -966 -176 -198 -232 -243
-274 -220 -11 6 -22 26 -26 47 -8 42 0 186 22 381 30 276 53 542 64 737 6 110
20 333 30 495 21 331 44 741 60 1085 6 127 22 388 35 580 14 193 32 456 40
585 9 129 23 307 31 395 8 88 19 225 24 305 22 349 32 479 55 705 14 132 29
308 35 390 14 204 39 502 45 545 3 19 17 195 30 390 14 195 31 427 39 515 27
301 53 851 66 1395 25 1015 41 1519 49 1573 9 55 33 107 49 107 4 0 22 -9 40
-20z m-1700 -1295 c11 -34 10 -102 -8 -450 -21 -392 -25 -462 -50 -760 -5 -71
-15 -200 -20 -285 -5 -85 -14 -216 -19 -290 -37 -514 -62 -891 -76 -1115 -9
-143 -25 -357 -35 -475 -17 -185 -33 -437 -80 -1244 -5 -88 -14 -256 -20 -375
-16 -316 -38 -711 -55 -996 -8 -137 -22 -371 -30 -520 -9 -148 -20 -306 -25
-350 -5 -44 -14 -190 -20 -325 -5 -135 -15 -335 -20 -445 -24 -484 -30 -629
-41 -929 -12 -361 -18 -396 -71 -396 -32 0 -50 11 -167 99 -180 137 -345 264
-351 270 -7 8 -85 72 -211 173 -59 46 -160 130 -225 186 -130 110 -394 328
-495 407 -35 27 -116 92 -179 145 -63 52 -124 102 -136 110 -13 8 -80 60 -151
116 -70 56 -177 138 -238 184 -119 90 -236 183 -270 215 -12 11 -53 46 -93 78
-124 102 -172 169 -172 241 0 44 54 299 78 371 51 152 136 418 171 538 44 147
87 289 156 512 43 139 70 217 176 510 50 136 183 481 215 555 12 30 45 111 73
180 165 414 237 579 408 930 47 96 139 285 205 419 65 133 155 311 200 395 83
155 256 468 289 521 10 17 32 57 50 89 17 33 39 71 49 85 9 14 60 98 112 186
265 445 449 739 610 975 55 80 117 168 139 195 22 28 71 91 109 140 37 50 89
110 115 134 58 53 84 53 103 -4z m26782 -1844 c89 -20 299 -73 435 -111 44
-13 114 -31 155 -40 41 -10 192 -47 335 -83 143 -36 337 -84 430 -107 229 -56
703 -175 1015 -256 140 -36 283 -79 316 -95 37 -17 72 -43 89 -65 35 -45 240
-428 322 -599 55 -115 81 -179 179 -435 60 -155 128 -358 178 -530 30 -102 82
-266 116 -365 34 -99 88 -268 121 -375 33 -107 68 -222 79 -255 31 -101 160
-543 195 -670 18 -66 58 -205 88 -310 30 -104 62 -219 70 -255 9 -36 31 -126
50 -200 19 -74 41 -170 48 -212 27 -164 4 -188 -496 -513 -27 -18 -93 -58
-145 -89 -108 -65 -247 -155 -415 -271 -138 -95 -317 -213 -418 -274 -70 -44
-399 -261 -665 -441 -112 -75 -140 -90 -173 -90 -35 0 -41 4 -58 38 -10 20
-28 80 -40 132 -28 118 -75 283 -134 465 -25 77 -59 183 -76 235 -17 52 -61
194 -100 315 -38 121 -81 263 -96 315 -15 52 -42 142 -60 200 -19 58 -59 193
-90 300 -31 107 -101 335 -156 505 -55 171 -134 416 -176 545 -41 129 -106
330 -144 445 -70 217 -211 661 -260 821 -32 106 -195 596 -367 1104 -183 537
-352 1076 -359 1140 -5 50 -3 60 16 79 26 26 75 27 191 2z m-1730 -393 c26
-42 98 -268 195 -613 42 -148 91 -317 109 -375 19 -58 46 -148 60 -200 123
-455 139 -505 296 -944 39 -109 84 -255 99 -325 29 -126 125 -476 183 -666 16
-55 47 -156 68 -225 21 -69 55 -181 75 -250 20 -69 50 -168 65 -220 29 -95
164 -558 180 -615 5 -16 42 -136 84 -265 41 -129 109 -341 150 -470 77 -241
153 -468 295 -877 118 -341 124 -390 56 -413 -22 -7 -56 -9 -88 -5 -67 9 -340
68 -482 104 -113 29 -208 51 -445 102 -74 15 -153 34 -175 40 -22 6 -101 24
-175 39 -176 36 -325 69 -600 135 -375 90 -1013 227 -1445 311 -405 78 -544
106 -627 124 -47 11 -144 29 -215 40 -118 18 -350 62 -598 111 -55 11 -226 45
-380 75 -154 30 -329 66 -390 79 -60 14 -148 32 -195 40 -188 34 -365 67 -570
104 -231 42 -259 47 -510 86 -91 15 -235 44 -320 65 -85 22 -279 63 -430 91
-151 28 -291 59 -310 68 -28 13 -36 23 -38 47 -3 27 5 39 65 94 37 34 84 73
103 87 19 13 49 34 65 46 17 12 62 44 100 72 39 27 124 92 190 143 66 51 142
110 169 130 27 20 79 62 115 92 73 61 239 194 282 225 48 35 268 207 358 280
129 104 336 269 458 365 59 47 153 123 208 170 55 47 165 137 245 199 80 63
161 128 181 145 19 17 47 40 60 51 53 43 148 123 225 190 45 38 163 138 264
220 101 83 215 177 254 210 132 111 179 150 257 215 42 36 114 95 160 133 252
203 404 325 438 352 65 50 362 296 436 360 39 33 119 98 179 145 59 47 172
136 250 198 505 405 542 434 706 561 161 124 206 151 252 151 32 0 41 -5 58
-32z m-16634 -2693 c190 -49 362 -111 659 -237 190 -81 635 -254 875 -340 47
-16 202 -76 345 -133 143 -56 328 -128 410 -160 83 -32 200 -77 260 -100 123
-48 536 -202 870 -324 121 -45 236 -87 255 -95 73 -28 498 -198 565 -226 62
-26 127 -51 375 -145 36 -14 137 -52 225 -86 353 -134 489 -183 685 -249 258
-86 338 -117 577 -219 106 -45 228 -95 270 -111 43 -16 125 -47 183 -70 58
-23 186 -70 285 -105 252 -88 453 -164 497 -186 43 -22 62 -51 54 -84 -9 -34
-85 -119 -221 -246 -101 -94 -448 -425 -575 -549 -20 -19 -83 -78 -141 -130
-114 -103 -368 -356 -579 -575 -74 -78 -193 -196 -265 -264 -71 -68 -224 -215
-340 -326 -115 -111 -289 -276 -385 -367 -155 -147 -606 -602 -1590 -1603
-162 -165 -504 -511 -761 -770 -256 -258 -497 -503 -535 -544 -105 -114 -199
-213 -309 -325 -128 -132 -416 -428 -568 -584 -114 -118 -173 -162 -216 -162
-11 0 -27 10 -35 23 -24 38 -35 131 -56 462 -11 176 -27 379 -36 450 -8 72
-21 193 -29 270 -8 77 -19 184 -25 238 -5 54 -23 169 -39 255 -16 86 -32 189
-35 227 -4 39 -13 120 -21 180 -7 61 -17 153 -20 205 -4 52 -10 124 -15 160
-5 36 -14 117 -20 180 -5 63 -15 153 -20 200 -6 47 -22 189 -36 315 -14 127
-33 286 -44 355 -10 69 -26 184 -35 255 -8 72 -19 164 -25 205 -10 79 -20 174
-45 410 -34 316 -59 519 -101 826 -24 176 -48 376 -54 445 -11 130 -68 608
-74 618 -2 3 -14 89 -25 191 -12 102 -28 232 -36 290 -7 58 -21 166 -30 240
-9 74 -28 221 -41 325 -14 105 -38 318 -54 475 -16 157 -34 310 -40 340 -6 30
-22 163 -35 295 -14 132 -30 276 -35 320 -12 110 -30 383 -30 467 0 60 3 72
25 93 13 14 33 25 43 25 11 0 64 -11 118 -25z m-1712 -581 c9 -4 21 -14 26
-24 15 -28 71 -418 90 -620 5 -63 19 -182 30 -265 10 -82 26 -213 35 -290 9
-77 29 -237 45 -355 16 -118 31 -244 35 -280 3 -36 17 -144 30 -240 13 -96 33
-266 45 -378 11 -112 27 -245 35 -295 14 -83 26 -186 69 -582 8 -71 17 -186
21 -255 3 -69 17 -219 30 -335 38 -323 83 -742 90 -825 7 -81 27 -251 50 -420
8 -58 19 -157 25 -220 29 -310 63 -604 130 -1135 11 -88 27 -218 36 -290 8
-71 24 -184 34 -250 11 -66 24 -172 30 -235 6 -63 22 -194 36 -290 13 -96 31
-247 40 -335 8 -88 23 -223 34 -300 32 -234 52 -454 54 -578 1 -108 -1 -120
-19 -133 -12 -9 -30 -13 -45 -9 -36 8 -174 77 -254 127 -39 24 -234 152 -434
286 -200 133 -366 242 -369 242 -2 0 -58 35 -123 78 -65 42 -141 90 -167 106
-26 16 -77 48 -113 71 -36 23 -105 64 -155 92 -186 103 -569 329 -703 414 -28
19 -71 46 -95 60 -23 14 -96 60 -162 101 -66 42 -223 140 -350 218 -126 79
-279 175 -340 215 -179 117 -310 202 -341 219 -16 9 -81 50 -144 90 -63 41
-169 107 -235 146 -234 139 -353 213 -585 367 -337 223 -355 235 -460 295
-177 102 -345 204 -480 293 -480 312 -590 395 -590 443 0 71 146 256 495 626
98 104 291 299 429 435 398 391 883 879 1007 1013 136 147 321 334 404 408
105 93 418 393 785 750 195 191 396 384 445 430 50 46 97 91 105 100 8 9 60
56 114 106 125 112 94 83 416 389 151 143 378 362 505 486 236 232 302 293
345 322 26 18 39 20 64 11z m12031 -2969 c277 -51 562 -107 680 -135 66 -16
197 -45 290 -65 94 -19 206 -44 250 -55 44 -10 116 -26 160 -34 227 -43 620
-130 745 -166 68 -20 333 -80 459 -106 41 -8 184 -41 317 -74 134 -33 310 -74
391 -91 82 -16 267 -54 413 -84 146 -29 411 -86 590 -125 179 -39 422 -91 540
-116 118 -24 244 -51 280 -59 36 -8 110 -19 165 -26 55 -6 138 -22 184 -36 46
-13 125 -32 175 -42 50 -10 179 -40 286 -65 107 -26 258 -60 335 -77 332 -71
509 -110 635 -138 74 -16 239 -52 365 -80 366 -82 638 -149 691 -171 27 -12
55 -28 62 -37 22 -30 14 -76 -24 -133 -41 -63 -95 -130 -283 -355 -181 -217
-213 -255 -232 -274 -8 -9 -68 -81 -133 -161 -234 -289 -263 -324 -369 -453
-59 -73 -179 -217 -266 -322 -88 -104 -183 -221 -213 -259 -49 -64 -271 -333
-360 -436 -67 -78 -212 -256 -416 -510 -108 -135 -276 -337 -372 -450 -97
-113 -222 -263 -280 -335 -57 -71 -134 -167 -170 -211 -36 -45 -83 -105 -105
-134 -22 -29 -71 -92 -110 -141 -38 -49 -85 -108 -103 -131 -75 -100 -227
-287 -367 -453 -82 -99 -159 -191 -170 -206 -11 -15 -95 -117 -188 -226 -258
-305 -376 -447 -486 -583 -137 -170 -192 -236 -361 -436 -80 -94 -197 -235
-260 -313 -63 -79 -146 -180 -184 -225 -136 -161 -198 -189 -245 -112 -43 68
-135 368 -296 961 -25 94 -80 271 -122 395 -41 124 -89 279 -106 345 -16 66
-67 235 -113 376 -45 140 -94 300 -109 355 -37 138 -146 487 -216 687 -62 178
-82 244 -127 427 -16 63 -53 192 -82 285 -29 94 -65 211 -80 260 -15 50 -42
135 -59 190 -17 55 -54 176 -82 269 -28 93 -65 203 -84 245 -48 111 -61 152
-121 401 -103 423 -163 615 -278 890 -19 47 -45 123 -56 170 -57 227 -149 566
-202 740 -52 172 -87 273 -131 380 -62 151 -185 586 -277 980 -24 107 -36 224
-26 265 7 29 57 57 91 50 11 -3 83 -16 160 -30z m-22257 -24 c20 -11 85 -62
143 -113 257 -225 551 -480 639 -553 52 -44 149 -127 216 -185 67 -58 185
-157 264 -220 78 -63 174 -142 214 -175 39 -34 121 -101 181 -150 144 -117
325 -270 439 -370 50 -44 159 -138 241 -210 227 -195 354 -315 372 -348 26
-50 12 -107 -62 -256 -100 -201 -305 -592 -386 -738 -40 -70 -104 -189 -144
-263 -40 -74 -114 -211 -165 -305 -127 -234 -256 -494 -395 -795 -65 -140
-144 -311 -176 -378 -33 -68 -59 -125 -59 -127 0 -2 -35 -77 -79 -167 -43 -90
-95 -203 -116 -253 -20 -49 -50 -119 -67 -155 -401 -871 -457 -987 -491 -1019
-58 -53 -84 -4 -182 332 -71 248 -120 459 -215 937 -10 52 -28 133 -39 180
-11 47 -30 147 -41 224 -11 76 -22 141 -24 145 -7 10 -81 468 -106 646 -11 83
-27 222 -35 310 -8 88 -24 246 -35 350 -32 306 -68 822 -75 1065 -9 366 -7
1114 4 1420 18 479 53 1002 72 1098 10 51 37 92 59 92 6 0 27 -9 48 -19z
m34869 -56 c12 -8 26 -30 32 -48 13 -44 48 -320 60 -492 6 -77 15 -228 21
-335 6 -107 15 -278 21 -380 5 -102 14 -392 19 -645 9 -457 1 -940 -20 -1175
-5 -63 -14 -180 -20 -260 -12 -177 -30 -370 -35 -390 -2 -8 -9 -71 -15 -140
-18 -207 -57 -521 -130 -1050 -31 -225 -36 -250 -85 -475 -15 -66 -40 -183
-56 -259 -54 -256 -160 -668 -241 -941 -156 -525 -261 -854 -288 -905 -15 -28
-40 -50 -56 -50 -25 0 -54 86 -104 310 -27 118 -64 280 -84 360 -19 80 -51
215 -70 300 -20 85 -43 179 -51 208 -9 29 -29 115 -46 190 -54 250 -95 418
-174 707 -24 90 -71 293 -160 690 -48 216 -97 415 -140 565 -57 203 -113 462
-150 700 -37 232 -115 597 -195 915 -45 179 -60 260 -100 550 -49 349 -61 468
-55 504 8 45 47 101 97 142 53 43 330 252 400 301 29 21 114 79 188 131 258
178 267 184 658 472 15 11 59 45 97 76 118 94 400 305 480 359 120 81 161 94
202 65z m-14392 -421 c20 -8 55 -78 83 -164 12 -36 37 -130 57 -210 41 -164
87 -322 182 -620 36 -113 86 -277 113 -365 26 -88 75 -248 108 -355 33 -107
77 -251 97 -320 20 -69 51 -174 70 -235 45 -147 107 -364 145 -505 17 -63 72
-243 122 -400 134 -424 233 -755 355 -1190 19 -69 75 -249 124 -400 48 -151
102 -320 118 -375 17 -55 69 -224 115 -375 138 -448 215 -704 271 -900 55
-191 81 -276 190 -610 35 -107 84 -271 110 -365 53 -192 166 -543 281 -870
126 -362 144 -434 114 -470 -7 -9 -29 -15 -51 -15 -21 0 -308 67 -636 150
-540 135 -721 178 -1138 270 -242 54 -350 79 -500 118 -344 90 -549 142 -700
177 -88 20 -297 71 -465 112 -168 41 -402 96 -520 123 -118 27 -271 62 -340
79 -69 16 -235 53 -370 81 -135 28 -315 69 -400 90 -85 21 -256 59 -380 85
-219 45 -407 90 -580 140 -114 33 -583 149 -728 181 -65 14 -155 36 -202 48
-47 13 -152 38 -235 56 -82 17 -213 48 -290 67 -77 19 -273 63 -435 98 -162
36 -353 78 -425 95 -170 40 -335 79 -580 134 -224 52 -280 68 -307 93 -46 41
-25 69 315 423 530 551 1500 1527 2573 2589 274 271 576 576 669 677 94 101
264 275 379 387 115 111 467 459 783 774 487 484 777 766 1098 1064 33 31 87
73 120 94 86 56 148 112 189 172 20 29 36 56 36 59 0 4 20 39 44 79 27 42 62
83 88 101 24 17 90 54 148 82 99 49 146 61 185 46z m10920 -2570 c8 -9 22 -28
29 -42 15 -29 60 -248 100 -482 14 -80 38 -213 55 -295 16 -83 53 -267 81
-410 77 -388 149 -714 195 -875 14 -52 42 -131 62 -174 24 -54 40 -110 50
-175 18 -125 58 -323 89 -436 13 -49 46 -184 74 -300 28 -115 60 -246 70 -290
11 -44 31 -132 45 -195 32 -152 54 -242 316 -1280 27 -107 83 -316 125 -465
41 -148 87 -313 100 -365 39 -151 73 -265 120 -412 60 -186 84 -291 84 -368 0
-77 -14 -103 -67 -121 -28 -9 -339 -10 -1387 -5 -743 4 -1353 9 -1356 11 -10
6 -1276 20 -1520 17 -135 -2 -479 2 -765 8 -286 6 -838 15 -1226 19 -586 8
-711 12 -741 24 -19 8 -37 24 -41 36 -3 11 2 35 12 53 9 18 83 112 165 208
281 331 386 455 527 625 78 94 224 265 324 380 168 193 487 565 695 811 47 56
155 186 240 289 85 103 193 234 240 289 47 56 106 126 131 156 25 30 70 86 99
125 83 107 136 172 315 380 66 77 134 157 150 177 17 19 69 82 117 139 112
133 238 287 308 374 30 38 100 121 156 184 113 130 285 337 386 462 37 46 127
158 200 248 73 90 144 178 158 196 14 18 61 76 105 130 44 53 91 112 105 130
108 142 191 249 234 301 28 33 67 80 86 104 19 24 69 85 110 136 41 50 104
129 140 174 110 139 320 391 367 441 39 41 93 78 115 79 4 0 14 -7 23 -16z
m-26300 -874 c35 -13 113 -65 245 -162 160 -119 167 -123 470 -308 102 -62
212 -130 245 -150 33 -21 107 -66 164 -100 57 -34 174 -105 260 -159 86 -54
232 -145 324 -202 214 -132 344 -213 382 -237 17 -11 100 -64 185 -117 131
-83 483 -313 679 -443 29 -20 63 -41 75 -48 11 -6 53 -31 91 -55 39 -24 118
-73 177 -109 366 -224 482 -298 700 -444 134 -90 277 -186 318 -215 388 -265
855 -549 1020 -620 52 -23 102 -45 110 -49 8 -5 58 -30 110 -57 104 -53 150
-89 150 -117 0 -34 -29 -75 -97 -138 -68 -62 -223 -185 -317 -251 -27 -19 -70
-49 -95 -67 -25 -18 -68 -48 -96 -67 -27 -18 -114 -80 -192 -137 -78 -57 -204
-148 -280 -202 -76 -55 -181 -132 -233 -171 -159 -120 -369 -268 -580 -410
-190 -128 -303 -206 -410 -285 -27 -19 -90 -65 -142 -102 -51 -38 -120 -88
-153 -112 -33 -24 -91 -66 -130 -93 -38 -26 -110 -78 -160 -114 -49 -36 -118
-85 -153 -110 -34 -24 -93 -67 -130 -94 -37 -28 -80 -59 -97 -69 -16 -11 -154
-112 -305 -224 -151 -113 -315 -235 -365 -272 -127 -94 -392 -273 -442 -299
-52 -26 -95 -27 -117 -2 -20 22 -51 119 -67 206 -5 33 -25 134 -44 225 -47
225 -89 453 -120 650 -30 190 -59 327 -116 560 -22 91 -69 307 -104 480 -35
173 -70 344 -79 380 -16 67 -57 304 -81 470 -22 143 -50 290 -85 435 -48 205
-139 648 -160 780 -11 66 -26 152 -34 190 -8 39 -22 131 -31 205 -38 312 -176
1059 -268 1453 -28 119 -40 196 -58 367 -6 63 -20 165 -30 225 -10 61 -19 124
-19 141 0 50 29 65 85 44z m-1593 -437 c29 -34 40 -66 79 -241 41 -181 50
-228 138 -747 29 -165 54 -307 56 -315 2 -8 32 -177 65 -375 63 -372 106 -605
165 -880 19 -88 52 -259 75 -380 46 -247 58 -307 129 -655 27 -135 66 -330 86
-435 19 -104 56 -293 80 -420 43 -223 89 -476 119 -660 32 -196 110 -605 171
-897 36 -169 65 -323 65 -343 0 -54 -15 -75 -54 -75 -37 0 -113 37 -341 164
-215 120 -442 232 -705 346 -41 18 -152 68 -247 111 -95 44 -175 79 -178 79
-4 0 -43 16 -88 35 -45 19 -136 55 -202 80 -66 25 -139 55 -162 65 -24 11 -46
20 -49 20 -13 0 -179 72 -364 158 -194 91 -430 223 -690 387 -169 106 -266
172 -320 218 -50 43 -80 95 -80 141 0 54 109 371 187 546 125 280 146 326 179
398 19 40 34 74 34 77 0 5 47 108 95 210 61 129 205 446 205 452 0 9 385 787
866 1748 122 242 278 557 348 700 71 143 153 303 183 355 53 94 101 150 127
150 7 0 20 -8 28 -17z m10568 -4274 c96 -22 303 -72 460 -110 157 -39 348 -85
425 -104 404 -97 525 -127 575 -140 67 -18 403 -98 670 -160 107 -25 346 -81
530 -124 184 -44 427 -98 540 -121 113 -23 320 -71 460 -107 140 -36 345 -85
455 -109 110 -23 317 -70 460 -104 143 -34 312 -72 375 -85 134 -28 319 -71
510 -120 172 -44 923 -225 1055 -255 55 -12 190 -44 300 -71 110 -26 279 -67
375 -89 96 -23 202 -50 236 -61 34 -10 232 -62 440 -115 461 -116 606 -157
638 -181 17 -12 25 -28 26 -46 0 -47 -82 -118 -424 -367 -132 -97 -362 -269
-436 -326 -98 -76 -205 -160 -317 -249 -56 -44 -152 -118 -214 -165 -62 -47
-140 -108 -173 -135 -34 -28 -101 -82 -151 -120 -49 -38 -95 -74 -102 -80 -12
-11 -61 -50 -230 -182 -61 -48 -180 -143 -265 -211 -84 -67 -259 -207 -388
-310 -129 -103 -287 -230 -351 -282 -144 -118 -264 -214 -349 -280 -36 -28
-99 -77 -140 -110 -41 -33 -138 -109 -215 -170 -77 -61 -156 -123 -175 -138
-77 -63 -302 -241 -375 -297 -153 -118 -416 -325 -463 -364 -197 -166 -363
-300 -461 -373 -79 -60 -113 -63 -158 -15 -17 17 -72 109 -124 202 -51 94
-103 188 -115 210 -12 22 -44 81 -71 130 -28 50 -123 227 -213 395 -216 404
-358 661 -524 950 -43 73 -118 215 -168 314 -49 100 -98 195 -107 211 -20 33
-33 57 -194 350 -60 110 -123 225 -140 255 -17 30 -63 116 -102 190 -129 246
-222 414 -270 490 -67 106 -187 324 -300 545 -71 138 -147 284 -170 325 -23
41 -79 143 -125 225 -46 83 -145 258 -221 390 -75 132 -156 274 -179 315 -74
130 -145 249 -260 435 -132 215 -194 334 -184 359 10 26 43 36 99 30 28 -3
129 -24 225 -45z m-1946 -18 c32 -29 90 -148 160 -326 26 -66 61 -156 78 -200
28 -73 145 -307 228 -460 18 -33 51 -94 73 -135 22 -41 48 -86 57 -100 10 -14
37 -59 60 -100 24 -41 55 -95 70 -120 39 -64 153 -276 253 -470 47 -91 111
-214 142 -275 67 -129 254 -476 333 -620 31 -55 69 -125 85 -155 16 -30 37
-66 47 -80 17 -24 160 -289 443 -815 76 -143 142 -264 147 -270 4 -5 54 -95
110 -200 57 -104 129 -235 160 -290 31 -55 81 -147 110 -205 64 -128 233 -440
308 -570 30 -52 67 -120 82 -150 41 -83 125 -234 164 -294 59 -92 136 -246
136 -271 0 -14 -8 -29 -20 -35 -25 -13 -74 -2 -205 45 -55 20 -143 52 -195 70
-52 19 -144 52 -205 75 -60 23 -139 52 -175 64 -36 13 -107 40 -158 60 -51 20
-222 76 -380 126 -548 173 -608 193 -777 255 -146 54 -331 128 -725 288 -47
19 -110 42 -140 52 -84 27 -356 133 -440 172 -158 73 -261 113 -420 163 -91
28 -201 63 -245 77 -44 14 -115 43 -158 64 -80 41 -303 134 -417 174 -238 85
-979 368 -1192 455 -95 39 -213 87 -263 105 -49 18 -146 54 -215 80 -69 26
-188 69 -265 97 -77 28 -187 67 -245 88 -205 74 -386 138 -480 170 -145 50
-440 159 -474 177 -48 24 -66 44 -66 73 0 34 43 74 165 154 78 52 187 130 475
341 275 202 583 422 720 515 69 46 168 114 220 151 52 38 109 77 125 89 69 48
256 184 334 242 46 35 95 72 110 83 15 11 50 38 77 61 27 22 158 119 292 215
134 96 289 207 345 247 56 40 113 81 127 90 14 9 81 58 149 107 146 107 231
167 326 231 78 53 204 144 341 245 49 37 153 122 230 189 76 68 163 139 193
158 108 70 278 135 326 126 17 -3 43 -18 59 -33z m15306 -2542 c1170 -13 2111
-27 2580 -39 212 -5 673 -14 1025 -20 935 -16 1316 -27 1347 -38 15 -6 32 -20
38 -32 8 -16 7 -29 -8 -63 -10 -23 -46 -76 -78 -119 -32 -42 -88 -114 -123
-160 -61 -78 -98 -127 -254 -330 -35 -46 -106 -143 -158 -216 -52 -73 -111
-157 -131 -185 -21 -29 -61 -85 -90 -126 -29 -40 -78 -103 -108 -140 -31 -36
-89 -111 -130 -165 -157 -208 -214 -283 -259 -338 -25 -31 -70 -87 -99 -125
-29 -37 -97 -117 -152 -178 -88 -97 -257 -288 -575 -650 -54 -60 -197 -211
-319 -335 -122 -124 -289 -296 -371 -383 -81 -87 -161 -165 -176 -173 -16 -8
-44 -14 -63 -14 -55 0 -84 30 -292 295 -88 112 -340 407 -449 526 -134 146
-216 237 -262 293 -26 32 -167 194 -312 360 -145 165 -361 414 -481 551 -208
239 -254 291 -489 547 -116 126 -140 152 -260 288 -46 52 -106 118 -131 145
-109 115 -481 525 -559 614 -46 53 -93 115 -104 139 -20 39 -20 43 -5 59 9 9
34 19 55 24 21 4 146 5 278 3 132 -3 634 -9 1115 -15z m-3202 -293 c24 -13
200 -188 378 -376 58 -62 443 -501 530 -605 23 -28 84 -100 135 -161 129 -152
356 -426 463 -559 110 -136 281 -334 429 -498 103 -113 209 -233 451 -510 49
-56 123 -140 166 -187 42 -47 130 -146 195 -220 64 -74 150 -171 189 -215 40
-44 130 -147 201 -230 71 -82 208 -239 305 -349 96 -109 192 -223 213 -254 54
-79 49 -111 -21 -131 -29 -9 -345 -2 -842 18 -444 18 -784 30 -1145 41 -192 6
-485 15 -650 20 -165 6 -469 15 -675 20 -206 5 -445 12 -530 14 -986 31 -1571
42 -2922 56 -1202 12 -1921 31 -1983 52 -33 11 -41 18 -43 42 -3 23 6 37 48
77 29 27 147 120 263 208 117 88 237 179 267 202 30 24 174 133 320 243 321
241 498 382 674 532 39 33 101 83 137 111 69 52 137 106 299 239 52 43 133
109 180 147 47 38 154 130 239 205 85 76 166 146 181 157 15 11 49 41 76 66
93 88 260 223 538 434 139 105 348 270 671 528 21 18 71 59 110 92 38 33 86
74 107 90 20 17 80 68 135 115 90 79 209 176 274 225 15 11 96 72 180 136 158
119 281 202 334 225 40 17 90 17 123 0z m-21313 -90 c72 -35 193 -102 270
-151 77 -48 172 -106 210 -130 70 -42 500 -275 508 -275 3 0 65 -29 138 -64
249 -119 415 -194 634 -286 416 -175 480 -208 514 -264 11 -18 72 -185 134
-372 63 -186 127 -371 144 -410 16 -39 55 -110 86 -158 32 -48 68 -108 81
-134 31 -62 84 -198 156 -402 64 -180 97 -271 188 -515 94 -254 232 -680 232
-718 0 -20 -6 -37 -14 -40 -36 -14 -196 125 -468 407 -188 195 -378 375 -506
480 -40 33 -133 130 -207 215 -74 86 -225 246 -336 356 -111 110 -274 281
-362 380 -88 99 -197 221 -242 270 -85 93 -332 376 -375 431 -14 17 -59 73
-101 125 -84 105 -217 281 -265 349 -17 25 -44 64 -60 86 -16 23 -83 118 -150
210 -125 176 -269 388 -361 533 -49 78 -64 127 -46 145 13 13 68 -6 198 -68z
m4387 -1900 c177 -59 382 -137 538 -205 106 -47 469 -191 600 -238 47 -17 135
-49 195 -71 61 -23 193 -71 295 -107 102 -36 277 -101 390 -145 265 -101 619
-234 840 -315 96 -35 274 -100 395 -145 121 -45 330 -122 465 -170 135 -49
301 -110 370 -136 69 -25 161 -60 205 -75 44 -16 96 -36 115 -44 112 -46 415
-162 694 -267 177 -66 373 -140 436 -165 63 -25 156 -61 205 -80 50 -19 151
-59 225 -89 148 -58 398 -155 555 -214 55 -21 111 -42 125 -48 25 -11 181 -70
536 -202 278 -104 314 -122 314 -161 0 -36 -61 -66 -320 -159 -178 -64 -511
-187 -595 -220 -44 -17 -103 -40 -132 -50 -28 -10 -91 -34 -140 -53 -48 -20
-117 -46 -153 -60 -136 -53 -349 -138 -455 -182 -127 -53 -196 -79 -665 -250
-190 -70 -374 -138 -410 -152 -36 -13 -103 -40 -150 -58 -47 -18 -148 -58
-225 -88 -77 -31 -167 -65 -200 -77 -33 -12 -87 -32 -120 -46 -33 -13 -123
-46 -200 -74 -77 -28 -188 -69 -247 -91 -153 -58 -303 -99 -358 -99 -48 0
-102 15 -175 50 -22 10 -193 89 -380 175 -366 169 -530 250 -805 398 -96 51
-233 124 -305 162 -339 177 -385 204 -434 261 -39 44 -48 67 -67 161 -7 39
-29 134 -48 210 -62 245 -223 713 -466 1353 -146 387 -211 562 -275 750 -113
328 -197 552 -260 685 -25 54 -57 144 -71 200 -13 55 -24 105 -24 112 0 23 32
43 70 43 22 0 72 -11 112 -24z m12263 -3616 c351 -18 1487 -60 1880 -70 215
-5 617 -14 895 -20 634 -13 1549 -36 2180 -55 267 -8 652 -20 855 -25 420 -12
582 -23 614 -39 11 -7 21 -20 21 -30 0 -24 -59 -64 -235 -158 -235 -125 -992
-497 -1175 -578 -208 -91 -474 -202 -610 -253 -152 -58 -438 -170 -490 -192
-45 -19 -492 -186 -626 -233 -40 -14 -121 -40 -180 -57 -60 -17 -212 -62 -339
-100 -126 -38 -309 -92 -405 -121 -327 -97 -831 -220 -1066 -261 -127 -21
-134 -22 -186 -5 -40 12 -69 32 -118 79 -62 60 -219 231 -419 457 -51 58 -119
133 -150 167 -31 33 -126 136 -211 229 -85 93 -218 237 -295 320 -77 83 -170
184 -206 225 -240 271 -319 358 -419 465 -128 137 -170 193 -170 228 0 45 21
48 355 42 171 -3 396 -10 500 -15z m-2798 -131 c15 -14 64 -74 218 -270 113
-144 192 -235 410 -469 105 -113 249 -270 319 -350 71 -80 173 -192 226 -250
619 -672 742 -809 781 -869 16 -25 29 -55 29 -68 0 -12 -10 -29 -23 -37 -12
-9 -54 -20 -92 -25 -39 -6 -230 -15 -425 -22 -467 -15 -1001 -6 -1740 31 -293
14 -780 57 -1020 90 -80 10 -208 26 -285 35 -77 9 -223 29 -325 45 -102 16
-257 38 -345 49 -88 12 -227 32 -310 46 -202 34 -664 125 -910 180 -110 24
-240 51 -290 60 -223 41 -421 97 -454 130 -8 8 -11 23 -7 38 8 32 45 49 381
177 149 56 340 129 425 162 85 33 225 87 310 120 85 33 241 93 345 134 105 41
244 95 310 121 66 26 183 72 260 103 77 32 203 81 280 110 77 28 154 58 170
66 17 7 138 56 270 107 368 145 397 156 440 177 22 10 63 28 90 39 28 11 102
43 165 71 201 89 623 265 670 279 43 12 105 7 127 -10z"/>
  </g>
</svg>