<svg xmlns="http://www.w3.org/2000/svg" viewBox="0 0 4096.000000 4096.000000">
  <g transform="translate(0.000000,4096.000000) scale(0.100000,-0.100000)" fill="#f4f5f7" stroke="#f4f5f7" stroke-width="40" stroke-linejoin="round" stroke-linecap="round">
    <path d="M22000 39999 c-168 -4 -372 -12 -455 -18 -82 -6 -226 -16 -320 -21
-274 -16 -529 -39 -865 -76 -173 -19 -355 -39 -405 -45 -193 -20 -1202 -195
-1320 -228 -22 -6 -96 -20 -165 -32 -69 -11 -199 -38 -290 -59 -91 -22 -241
-58 -335 -80 -220 -52 -560 -142 -700 -185 -60 -18 -139 -41 -175 -50 -36 -8
-90 -24 -120 -35 -30 -10 -149 -49 -265 -86 -234 -74 -776 -257 -900 -303
-103 -38 -466 -184 -620 -249 -66 -28 -178 -75 -250 -105 -71 -31 -202 -89
-290 -130 -88 -41 -227 -106 -310 -144 -201 -94 -1011 -503 -1155 -583 -332
-185 -487 -280 -802 -491 -95 -64 -220 -147 -278 -185 -255 -166 -627 -436
-869 -628 -47 -37 -127 -99 -177 -136 -112 -83 -366 -294 -494 -410 -52 -47
-147 -131 -210 -185 -63 -55 -151 -134 -195 -175 -44 -42 -111 -105 -150 -140
-65 -60 -364 -351 -570 -556 -124 -122 -347 -354 -544 -564 -90 -96 -187 -200
-216 -230 -74 -79 -567 -662 -685 -810 -36 -45 -76 -96 -90 -113 -14 -17 -59
-74 -100 -127 -129 -166 -281 -361 -359 -461 -42 -54 -102 -132 -133 -175 -32
-44 -72 -99 -90 -124 -18 -25 -40 -55 -48 -67 -13 -19 -131 -183 -242 -337
-21 -28 -67 -94 -103 -146 -36 -52 -81 -115 -99 -140 -73 -100 -454 -684 -585
-897 -14 -24 -50 -80 -80 -125 -29 -46 -87 -139 -129 -208 -41 -69 -87 -143
-102 -165 -30 -43 -153 -254 -233 -400 -27 -49 -75 -133 -107 -185 -70 -117
-219 -381 -291 -515 -29 -55 -137 -266 -240 -470 -102 -203 -258 -512 -346
-685 -170 -336 -298 -607 -383 -810 -29 -69 -70 -163 -91 -208 -21 -46 -39
-85 -39 -87 0 -2 -33 -75 -73 -162 -70 -150 -95 -208 -182 -418 -21 -49 -48
-114 -61 -143 -42 -94 -159 -396 -255 -662 -33 -91 -80 -217 -104 -280 -73
-190 -151 -412 -295 -850 -148 -447 -237 -722 -295 -920 -21 -69 -48 -159 -61
-200 -32 -105 -120 -411 -159 -555 -18 -66 -63 -223 -100 -350 -37 -126 -73
-255 -80 -285 -7 -30 -49 -192 -93 -360 -137 -518 -221 -872 -277 -1160 -12
-63 -36 -180 -53 -260 -30 -141 -119 -598 -142 -730 -6 -36 -26 -146 -45 -245
-50 -270 -101 -583 -130 -800 -9 -66 -29 -217 -45 -335 -16 -118 -34 -253 -39
-300 -6 -47 -26 -204 -45 -350 -34 -256 -68 -573 -81 -750 -3 -47 -13 -148
-21 -225 -32 -321 -45 -499 -84 -1210 -29 -537 -48 -1110 -66 -1985 -7 -338 1
-459 39 -564 52 -141 185 -310 327 -416 81 -60 154 -95 247 -117 63 -16 431
-18 4793 -24 4714 -6 5180 -9 6520 -45 159 -4 255 -3 295 5 160 30 301 99 423
206 124 109 193 218 233 370 19 69 22 114 25 340 18 1176 27 1614 39 1895 15
339 41 783 50 860 3 25 10 108 15 185 22 295 41 509 55 618 8 61 26 225 39
362 14 138 32 296 40 350 8 55 17 127 21 160 11 104 85 619 91 634 2 8 16 85
30 170 33 212 127 686 179 906 40 171 161 647 199 780 19 66 52 179 74 250 22
72 50 166 62 210 24 87 243 750 290 880 16 44 80 224 141 400 127 367 266 734
400 1060 34 83 71 175 84 205 33 83 143 337 176 408 16 34 29 64 29 67 0 5 88
190 167 350 94 191 178 347 250 463 36 59 90 148 120 197 115 192 223 366 317
510 54 83 124 190 155 238 53 83 266 378 383 530 258 335 311 399 516 617 80
85 202 216 271 290 247 266 545 544 776 723 144 113 247 188 345 251 58 38
116 76 130 86 123 82 458 256 665 346 189 82 452 180 590 220 259 75 565 145
740 169 338 46 525 65 745 76 272 13 642 7 935 -16 169 -13 485 -52 620 -76
176 -31 449 -95 590 -138 233 -71 540 -202 755 -321 227 -127 492 -304 669
-448 120 -98 319 -282 386 -358 38 -43 88 -99 111 -124 103 -112 307 -390 416
-569 59 -98 190 -370 241 -501 100 -257 197 -589 222 -760 9 -58 25 -154 36
-215 33 -174 59 -450 65 -700 10 -345 -16 -704 -82 -1175 -94 -655 -274 -1207
-616 -1880 -151 -298 -381 -726 -452 -843 -22 -37 -50 -82 -60 -100 -23 -39
-213 -324 -257 -387 -18 -25 -89 -124 -159 -220 -69 -96 -157 -219 -194 -273
-79 -114 -207 -285 -280 -373 -28 -34 -85 -105 -126 -159 -75 -98 -124 -159
-280 -356 -47 -59 -103 -130 -125 -159 -22 -29 -92 -114 -155 -189 -63 -75
-135 -161 -160 -191 -55 -68 -231 -271 -246 -285 -6 -5 -44 -48 -85 -95 -40
-47 -102 -116 -138 -155 -115 -121 -374 -397 -414 -439 -21 -22 -75 -80 -120
-130 -206 -227 -885 -912 -1187 -1196 -96 -91 -229 -217 -295 -280 -251 -242
-425 -401 -616 -565 -57 -49 -115 -100 -129 -114 -68 -65 -438 -394 -625 -556
-150 -129 -311 -268 -439 -380 -150 -131 -308 -266 -391 -335 -43 -36 -171
-144 -284 -240 -113 -96 -235 -198 -271 -225 -36 -27 -128 -102 -206 -165
-227 -186 -419 -338 -732 -583 -51 -39 -108 -83 -126 -97 -19 -14 -67 -52
-108 -85 -41 -33 -122 -94 -179 -135 -316 -228 -427 -324 -498 -430 -44 -65
-96 -185 -111 -255 -6 -27 -18 -122 -26 -210 -16 -171 -15 -123 -35 -3330 -7
-1197 -7 -1762 0 -1811 18 -121 76 -262 161 -388 32 -47 128 -143 180 -180 76
-53 173 -108 345 -193 99 -50 216 -106 260 -125 44 -20 152 -67 240 -106 88
-39 207 -93 265 -120 58 -27 161 -75 230 -107 69 -31 188 -86 264 -122 77 -35
162 -74 190 -85 28 -11 73 -30 101 -43 27 -12 77 -35 110 -50 33 -14 96 -44
140 -65 44 -21 134 -62 200 -90 172 -75 280 -125 533 -246 74 -35 135 -64 138
-64 2 0 29 -12 61 -26 219 -100 260 -119 278 -130 11 -7 38 -20 60 -27 22 -8
101 -44 175 -79 74 -36 167 -80 205 -98 39 -18 143 -68 233 -112 89 -43 165
-78 167 -78 9 0 196 -86 369 -169 92 -45 170 -81 172 -81 2 0 42 -18 89 -40
47 -22 88 -40 91 -40 2 0 134 -61 292 -136 370 -175 365 -173 512 -237 69 -31
202 -92 295 -137 94 -45 235 -110 315 -145 327 -142 399 -174 480 -214 187
-93 913 -427 1060 -489 162 -68 397 -179 576 -272 185 -97 366 -177 467 -209
35 -10 107 -24 160 -31 216 -26 423 32 659 183 65 41 468 375 927 767 215 183
327 282 471 415 41 39 138 126 215 195 76 69 169 152 205 185 36 33 103 94
150 135 46 41 143 129 215 195 72 66 182 165 245 220 63 55 137 121 164 146
28 25 107 95 176 155 117 101 373 328 585 517 208 186 368 339 680 652 182
181 380 384 440 450 61 66 184 196 275 290 91 93 262 271 380 395 118 124 256
268 306 320 51 52 129 139 175 192 113 130 360 409 428 483 31 34 149 169 262
300 114 132 239 276 279 320 82 90 231 266 365 430 50 61 102 124 116 140 181
208 413 484 524 625 76 96 164 207 195 245 31 39 83 104 116 145 66 81 186
240 384 502 221 296 248 333 378 523 80 117 160 228 239 334 59 79 292 420
486 711 143 214 204 310 389 608 54 86 140 224 190 305 202 323 407 672 584
992 111 201 269 519 329 661 25 60 50 118 55 129 5 11 25 65 45 120 80 221
154 403 295 725 194 446 437 1138 561 1600 16 63 39 140 49 170 69 207 230
800 271 1000 71 346 136 740 174 1050 14 113 30 230 35 260 10 56 17 120 45
375 9 77 20 165 25 195 5 30 16 134 24 230 41 480 61 1038 53 1504 -21 1212
-27 1864 -26 2946 1 1209 -5 1557 -35 1935 -40 502 -71 778 -132 1175 -14 91
-36 235 -49 320 -66 430 -78 501 -95 570 -10 41 -22 98 -25 125 -9 68 -126
548 -176 720 -181 625 -386 1234 -511 1520 -22 50 -50 119 -64 154 -14 34 -58
138 -98 230 -41 91 -92 209 -114 261 -89 211 -332 705 -443 902 -293 518 -560
949 -719 1163 -17 22 -46 63 -66 90 -19 28 -62 86 -95 130 -33 44 -85 116
-116 160 -31 44 -77 105 -102 137 -25 31 -77 98 -116 149 -85 113 -227 281
-311 369 -34 36 -106 117 -160 181 -55 64 -166 190 -249 280 -217 238 -660
693 -757 779 -88 79 -135 122 -348 321 -74 69 -162 151 -195 182 -64 59 -384
326 -561 467 -171 137 -232 182 -628 472 -28 20 -229 156 -446 301 -456 305
-557 365 -1230 729 -357 194 -551 293 -800 408 -74 34 -173 80 -220 102 -122
58 -266 118 -500 209 -113 43 -225 88 -250 99 -127 55 -372 144 -645 235 -439
146 -785 258 -925 299 -157 46 -207 59 -540 146 -102 27 -264 69 -360 95 -442
119 -1349 303 -1845 375 -110 16 -245 36 -300 44 -55 9 -248 32 -430 51 -181
19 -395 42 -475 50 -80 9 -208 20 -285 25 -994 67 -1458 79 -2255 59z m1495
-1620 c616 -30 1379 -89 1615 -125 52 -8 181 -25 285 -39 105 -13 285 -40 400
-60 116 -20 279 -47 363 -61 288 -46 853 -163 1112 -229 632 -163 791 -207
1105 -308 396 -127 844 -288 1145 -410 444 -181 806 -345 1283 -584 202 -101
569 -298 692 -371 67 -40 353 -217 430 -267 60 -38 183 -116 268 -169 137 -86
287 -184 348 -228 25 -18 90 -64 143 -103 54 -38 108 -77 120 -85 41 -28 191
-143 246 -189 30 -26 84 -69 120 -96 135 -103 349 -286 629 -535 95 -85 202
-180 237 -210 116 -101 646 -640 826 -840 134 -150 571 -675 696 -837 211
-273 488 -689 735 -1103 161 -270 174 -296 408 -760 180 -359 242 -491 351
-745 156 -368 214 -521 360 -960 226 -680 311 -1008 408 -1570 35 -204 91
-625 120 -899 10 -95 4 -176 -14 -188 -6 -4 -19 0 -29 9 -26 25 -108 171 -196
355 -98 201 -246 481 -322 607 -22 34 -39 64 -39 66 0 7 -142 234 -213 340
-45 66 -105 156 -133 200 -144 219 -390 558 -570 785 -215 271 -298 373 -409
504 -66 78 -142 168 -170 201 -70 82 -320 351 -435 465 -321 322 -772 740
-1019 945 -14 11 -50 43 -80 70 -75 67 -501 411 -565 455 -11 8 -66 51 -121
95 -248 199 -633 470 -1013 711 -52 32 -108 68 -126 80 -79 51 -342 207 -446
264 -63 35 -146 82 -185 105 -140 85 -678 372 -855 457 -58 28 -160 77 -227
109 -67 33 -125 59 -128 59 -4 0 -30 11 -58 24 -78 36 -289 128 -397 174 -52
22 -126 54 -163 71 -37 17 -70 31 -73 31 -3 0 -38 14 -77 32 -40 17 -130 53
-202 81 -71 27 -161 62 -200 77 -377 150 -834 305 -1305 445 -41 12 -131 39
-199 59 -293 87 -1029 258 -1341 311 -52 9 -135 25 -185 36 -49 11 -247 42
-440 69 -438 62 -484 68 -570 75 -38 4 -131 15 -205 26 -163 23 -273 35 -485
54 -88 8 -227 21 -310 29 -82 8 -222 20 -310 25 -88 6 -259 18 -380 26 -121 8
-409 20 -640 26 -598 16 -1504 -2 -1990 -41 -66 -5 -160 -12 -210 -15 -49 -3
-155 -12 -234 -21 -78 -8 -222 -21 -320 -29 -97 -8 -248 -24 -336 -35 -88 -11
-254 -31 -370 -45 -115 -14 -244 -32 -285 -40 -41 -8 -138 -24 -215 -35 -175
-26 -570 -100 -775 -145 -673 -148 -1017 -232 -1220 -296 -69 -22 -183 -58
-255 -81 -121 -38 -468 -154 -630 -211 -81 -28 -341 -131 -400 -157 -22 -10
-75 -32 -117 -49 -151 -60 -493 -203 -503 -211 -5 -4 -50 -25 -100 -48 -49
-22 -116 -52 -147 -66 -31 -14 -59 -26 -62 -26 -3 0 -43 -17 -88 -39 -46 -21
-108 -49 -138 -62 -53 -23 -455 -225 -555 -279 -204 -109 -485 -269 -605 -345
-19 -12 -62 -37 -95 -56 -173 -101 -337 -201 -480 -294 -238 -154 -411 -269
-490 -325 -38 -27 -113 -79 -165 -115 -52 -36 -140 -101 -195 -144 -55 -42
-132 -102 -171 -132 -111 -85 -562 -447 -634 -508 -36 -31 -108 -94 -160 -140
-150 -134 -219 -194 -311 -273 -214 -182 -375 -333 -644 -603 -328 -328 -479
-484 -580 -600 -39 -44 -108 -120 -155 -170 -105 -111 -440 -495 -575 -659
-55 -67 -127 -153 -160 -191 -63 -73 -252 -309 -346 -431 -30 -39 -90 -116
-134 -171 -226 -283 -510 -672 -777 -1063 -47 -69 -118 -172 -158 -230 -156
-226 -622 -943 -867 -1335 -84 -134 -206 -342 -293 -500 -45 -82 -86 -154 -90
-160 -4 -5 -77 -138 -162 -295 -142 -261 -251 -465 -433 -815 -102 -195 -311
-616 -410 -825 -48 -102 -91 -190 -96 -195 -4 -6 -45 -93 -92 -195 -139 -303
-221 -478 -287 -610 -34 -69 -70 -145 -80 -170 -10 -25 -29 -70 -43 -100 -35
-78 -131 -293 -227 -510 -46 -102 -111 -252 -145 -335 -34 -82 -95 -226 -134
-320 -137 -320 -201 -474 -201 -480 0 -3 -27 -70 -59 -148 -105 -249 -148
-369 -276 -748 -140 -417 -180 -526 -211 -584 -32 -58 -48 -52 -52 20 -5 75
10 184 60 450 21 116 54 298 73 405 19 107 46 247 59 310 14 63 42 192 61 287
20 94 42 190 49 211 8 22 22 78 30 124 9 45 43 189 75 318 143 567 224 885
261 1020 22 80 67 246 100 370 89 334 222 799 280 985 15 50 49 160 75 245 39
129 126 399 270 845 53 165 150 427 244 665 129 323 119 298 249 605 130 308
259 614 313 743 21 52 86 193 144 313 58 121 105 222 105 224 0 2 31 70 70
150 38 80 70 148 70 150 0 2 50 106 111 232 61 125 121 252 134 283 28 66 203
415 278 555 29 55 83 156 119 225 36 69 96 179 133 245 37 66 84 149 103 185
75 140 189 342 272 480 48 80 99 168 115 195 15 28 42 73 60 100 18 28 69 112
115 189 45 76 92 153 104 171 11 18 48 76 81 129 83 134 327 501 416 627 99
138 146 205 224 319 144 209 127 186 675 916 41 54 111 144 155 199 44 56 109
138 145 184 36 46 101 125 145 175 44 51 145 170 225 266 162 193 291 341 444
505 57 61 161 175 231 254 115 129 267 291 410 438 160 164 667 636 905 844
318 276 657 544 1008 797 48 34 123 88 167 120 44 32 139 97 210 144 72 48
162 109 200 135 80 55 184 121 327 208 54 33 176 108 270 166 152 94 395 237
528 312 25 13 95 53 155 87 151 85 716 371 905 458 212 98 508 224 670 286 74
29 144 57 155 63 20 11 222 88 400 153 55 20 143 53 195 72 351 130 586 210
790 267 165 46 565 157 670 185 238 64 736 170 1080 232 107 19 276 50 375 69
99 18 254 43 344 55 91 12 168 23 171 25 12 7 176 26 495 55 660 61 976 80
1535 90 469 9 1210 3 1495 -11z m-565 -4849 c239 -5 464 -12 500 -15 36 -2
173 -10 305 -15 251 -11 512 -31 750 -56 77 -8 187 -19 245 -24 153 -15 361
-39 470 -55 52 -8 131 -19 175 -25 207 -27 579 -81 585 -85 4 -2 76 -16 161
-30 162 -27 477 -94 689 -146 69 -17 161 -39 205 -49 84 -18 323 -81 590 -156
206 -58 761 -241 1030 -340 55 -20 125 -44 155 -54 51 -17 85 -30 295 -112
145 -57 567 -239 739 -319 92 -44 170 -79 173 -79 16 0 828 -416 858 -440 6
-4 46 -28 90 -52 167 -94 543 -318 675 -403 41 -26 91 -58 110 -70 40 -26 215
-139 281 -181 24 -16 49 -31 54 -34 11 -5 311 -208 362 -244 17 -13 89 -64
160 -114 268 -191 369 -265 467 -346 55 -45 159 -129 229 -186 216 -174 594
-506 751 -659 318 -312 537 -539 722 -751 65 -74 137 -155 160 -180 166 -179
429 -503 636 -782 42 -56 94 -125 115 -153 36 -46 82 -115 323 -480 47 -71
119 -186 160 -255 40 -69 111 -187 157 -263 90 -149 167 -290 301 -547 47 -91
110 -210 139 -265 136 -255 209 -406 350 -730 46 -105 151 -384 212 -565 145
-426 276 -896 337 -1210 21 -109 29 -357 15 -465 -15 -112 -91 -487 -125 -615
-91 -348 -284 -933 -429 -1300 -109 -274 -164 -400 -332 -750 -65 -135 -137
-290 -160 -345 -52 -121 -156 -349 -194 -425 -15 -30 -52 -100 -83 -155 -30
-55 -91 -163 -134 -240 -154 -278 -419 -743 -512 -900 -52 -87 -80 -132 -275
-425 -258 -387 -327 -487 -477 -685 -74 -97 -158 -209 -187 -249 -219 -299
-771 -1023 -916 -1201 -40 -49 -105 -133 -144 -185 -39 -52 -109 -139 -155
-192 -45 -53 -217 -253 -380 -445 -164 -191 -344 -401 -400 -465 -57 -65 -157
-179 -223 -255 -65 -75 -155 -176 -200 -223 -44 -47 -116 -126 -160 -175 -44
-49 -107 -119 -140 -155 -62 -68 -143 -159 -286 -320 -242 -274 -1250 -1301
-1780 -1814 -90 -87 -328 -319 -529 -515 -398 -389 -453 -441 -705 -670 -94
-85 -264 -245 -380 -356 -115 -110 -271 -257 -345 -325 -74 -68 -202 -187
-285 -265 -82 -78 -181 -170 -220 -206 -38 -35 -97 -89 -130 -120 -33 -31
-134 -120 -225 -199 -91 -78 -169 -148 -175 -154 -22 -25 -256 -227 -350 -302
-55 -44 -172 -133 -259 -198 -88 -65 -204 -161 -258 -214 -127 -123 -187 -213
-219 -323 l-24 -84 4 -2067 c4 -1917 3 -2069 -13 -2093 -32 -48 -103 -29 -363
96 -70 34 -171 81 -223 104 -52 23 -162 73 -245 110 -82 36 -226 100 -320 140
-93 40 -206 90 -250 110 -86 40 -301 134 -505 220 -200 85 -272 117 -500 223
-242 113 -407 192 -463 222 -21 12 -91 45 -155 74 -114 52 -201 93 -390 182
-51 24 -95 44 -97 44 -3 0 -130 61 -282 136 -153 75 -413 201 -578 281 -165
79 -322 155 -350 168 -27 14 -126 59 -220 101 -93 42 -181 82 -195 89 -14 8
-97 48 -185 91 -88 42 -259 125 -380 184 -200 97 -436 205 -604 275 -81 33
-109 52 -116 76 -15 46 2 61 280 255 149 105 259 186 345 255 25 19 101 80
170 134 69 53 172 137 230 185 58 49 240 201 405 339 165 138 338 283 385 322
47 39 163 137 259 218 168 140 336 287 431 376 25 23 113 99 195 169 147 126
277 241 340 301 82 79 280 261 370 340 282 250 459 419 1050 1010 441 441 640
646 835 860 30 33 123 131 205 219 83 88 170 182 195 210 24 28 69 78 100 111
61 66 128 141 204 225 27 30 79 87 115 125 104 112 152 165 211 235 30 36 57
67 60 70 3 3 51 61 105 130 55 68 156 185 225 260 167 180 328 369 385 450 11
16 83 115 160 220 77 105 149 204 160 219 50 69 295 444 335 511 24 41 49 82
56 90 10 13 115 193 285 490 111 194 202 366 289 545 114 234 125 258 218 475
234 551 400 999 511 1380 80 274 194 787 250 1130 12 69 32 184 45 255 50 273
112 721 131 955 8 102 21 246 30 320 22 206 43 515 57 830 7 171 12 628 12
1140 1 642 -4 962 -17 1285 -26 662 -39 898 -68 1249 -5 66 -14 210 -19 320
-6 111 -19 264 -30 341 -11 77 -25 176 -31 220 -25 178 -115 579 -184 815 -49
167 -219 644 -298 836 -48 118 -150 326 -212 434 -21 36 -50 88 -65 115 -159
290 -377 613 -568 845 -180 217 -644 678 -807 801 -27 21 -79 60 -115 88 -89
70 -379 267 -470 321 -41 24 -82 49 -90 56 -28 22 -353 205 -419 235 -102 47
-404 176 -510 219 -230 91 -629 219 -891 284 -127 32 -316 67 -545 101 -266
40 -709 65 -1140 65 -377 1 -769 -12 -975 -30 -193 -17 -590 -82 -795 -132
-154 -37 -513 -141 -675 -196 -227 -78 -645 -256 -830 -354 -352 -187 -666
-386 -1035 -657 -112 -82 -476 -385 -695 -579 -91 -81 -242 -223 -335 -317
-317 -317 -530 -553 -815 -905 -102 -127 -374 -491 -425 -570 -49 -75 -258
-391 -352 -530 -95 -141 -290 -465 -385 -640 -52 -96 -139 -263 -192 -370 -54
-107 -102 -199 -106 -205 -26 -35 -296 -571 -397 -790 -36 -77 -92 -205 -124
-285 -33 -80 -77 -185 -99 -235 -55 -126 -191 -470 -233 -590 -20 -55 -68
-188 -107 -295 -40 -107 -80 -220 -90 -250 -10 -30 -46 -134 -80 -230 -34 -96
-79 -233 -100 -305 -22 -71 -67 -220 -100 -330 -159 -520 -250 -847 -358
-1285 -169 -688 -197 -815 -271 -1250 -27 -157 -54 -303 -59 -325 -6 -22 -22
-119 -36 -215 -14 -96 -32 -209 -40 -250 -21 -109 -112 -786 -136 -1010 -6
-58 -20 -179 -30 -270 -25 -217 -56 -561 -75 -840 -28 -418 -66 -1242 -75
-1669 -10 -465 -9 -454 -72 -487 -31 -16 -332 -17 -4408 -10 -2406 4 -4391 10
-4410 15 -56 13 -78 28 -90 65 -9 28 -7 56 10 148 12 62 37 174 55 248 18 74
42 178 54 230 26 118 114 497 140 605 11 44 38 154 61 245 22 91 56 221 74
290 19 69 46 170 61 225 33 127 115 412 167 580 68 222 159 508 178 560 10 28
42 127 70 220 96 316 272 862 387 1205 20 58 125 371 234 695 232 694 337 994
409 1165 29 69 72 177 96 240 23 63 75 192 115 285 39 94 88 211 109 260 160
381 308 713 447 1005 33 69 111 231 172 360 62 129 137 285 168 345 76 151
235 461 293 570 26 50 84 160 128 245 44 85 92 178 107 205 15 28 62 115 105
195 42 80 91 168 109 196 17 28 31 54 31 57 0 7 120 215 154 267 13 19 44 71
70 115 26 44 65 107 87 140 21 33 46 74 55 90 9 17 55 91 102 165 96 152 154
245 191 308 33 55 403 611 476 716 230 328 463 649 766 1051 313 417 345 459
419 549 36 43 103 124 148 180 46 55 91 110 101 121 9 11 43 54 76 95 166 208
355 426 584 670 397 422 535 560 1011 1010 16 15 48 43 280 246 199 174 416
354 535 444 61 46 155 118 210 160 208 159 423 319 510 379 50 34 124 86 165
116 148 105 433 294 648 428 46 29 101 63 122 77 22 14 83 52 137 84 54 33
109 66 123 75 37 23 305 173 470 264 179 98 817 419 960 482 58 26 128 58 156
71 28 13 54 24 57 24 4 0 35 13 69 29 85 38 334 136 550 215 444 163 764 263
1358 421 74 20 164 45 200 55 119 33 780 187 870 202 30 5 168 29 305 53 138
24 275 47 305 50 30 4 93 13 140 21 47 8 128 22 180 30 52 8 102 16 110 19 8
2 92 13 185 25 94 11 242 29 330 40 212 26 343 37 560 50 99 6 254 15 345 21
139 10 520 21 910 27 52 1 291 -3 530 -8z m4590 -14055 c10 -12 12 -55 7 -187
-4 -95 -12 -222 -18 -283 -30 -300 -105 -839 -134 -962 -9 -38 -29 -140 -46
-228 -27 -144 -43 -216 -110 -505 -46 -196 -234 -786 -323 -1015 -135 -346
-203 -499 -373 -840 -220 -441 -317 -613 -488 -875 -48 -74 -113 -173 -143
-220 -31 -47 -106 -155 -167 -240 -127 -178 -120 -168 -203 -289 -77 -111
-171 -238 -228 -306 -23 -27 -79 -99 -124 -160 -90 -118 -340 -435 -430 -544
-70 -85 -174 -203 -325 -366 -66 -72 -167 -182 -225 -245 -274 -299 -364 -396
-374 -405 -7 -5 -74 -77 -151 -160 -134 -145 -858 -872 -1020 -1025 -44 -41
-190 -181 -325 -311 -271 -260 -368 -351 -514 -484 -55 -49 -111 -101 -126
-115 -15 -14 -75 -70 -135 -125 -60 -55 -148 -137 -195 -181 -47 -45 -112
-104 -144 -130 -33 -27 -83 -70 -110 -95 -28 -25 -63 -55 -78 -66 -15 -11 -63
-52 -105 -91 -150 -134 -323 -283 -613 -526 -41 -35 -142 -120 -223 -190 -82
-69 -183 -153 -225 -186 -43 -33 -129 -100 -192 -150 -63 -49 -164 -128 -225
-174 -132 -101 -216 -169 -367 -298 -63 -53 -163 -131 -222 -172 -117 -82
-156 -94 -177 -54 -9 16 -10 107 -5 358 4 184 11 729 16 1210 10 966 25 1553
41 1645 6 33 21 73 34 90 13 17 49 51 81 75 33 25 84 65 114 91 30 25 100 78
155 117 240 171 474 349 630 480 193 161 250 208 295 242 25 19 153 124 285
233 132 110 271 225 309 256 37 31 114 94 170 142 55 47 159 132 231 190 167
133 570 479 794 679 96 85 197 175 225 199 28 24 128 116 221 205 94 89 235
222 315 296 80 74 251 238 380 366 129 127 305 298 390 380 253 243 1003 994
1191 1194 249 263 710 761 820 885 24 28 87 97 139 155 174 191 411 470 594
699 100 124 220 273 267 331 82 100 157 197 238 305 51 68 204 291 316 460
138 209 309 493 439 729 84 151 121 206 141 206 7 0 18 -7 25 -15z m10386
-821 c9 -35 -4 -239 -21 -344 -8 -47 -24 -159 -35 -250 -12 -91 -27 -192 -35
-225 -7 -33 -28 -136 -45 -230 -17 -93 -40 -208 -51 -255 -11 -47 -29 -125
-40 -175 -28 -120 -91 -350 -141 -510 -22 -71 -49 -159 -59 -195 -10 -36 -32
-103 -48 -150 -16 -47 -62 -186 -101 -310 -94 -299 -192 -573 -294 -826 -110
-273 -114 -281 -476 -1019 -60 -122 -111 -241 -130 -305 -31 -102 -87 -219
-139 -290 -14 -19 -47 -60 -72 -90 -26 -30 -64 -82 -86 -115 -59 -94 -138
-259 -178 -375 -20 -58 -50 -130 -67 -160 -32 -56 -195 -304 -248 -375 -16
-22 -180 -265 -364 -540 -184 -275 -389 -574 -455 -665 -66 -91 -130 -180
-143 -198 -32 -46 -74 -103 -149 -204 -35 -48 -98 -133 -139 -190 -41 -56
-111 -148 -155 -203 -44 -55 -121 -153 -170 -218 -164 -217 -239 -313 -360
-463 -148 -185 -258 -318 -291 -352 -33 -35 -354 -418 -421 -502 -28 -36 -117
-139 -197 -230 -80 -91 -224 -255 -320 -365 -95 -110 -231 -263 -302 -340
-220 -239 -306 -336 -409 -460 -108 -129 -299 -337 -490 -535 -67 -69 -155
-161 -195 -205 -396 -427 -1373 -1405 -1795 -1796 -300 -277 -589 -543 -702
-644 -88 -79 -280 -257 -443 -410 -30 -28 -111 -100 -180 -161 -68 -60 -194
-171 -280 -248 -85 -76 -170 -145 -188 -153 -30 -12 -37 -12 -58 2 -19 12 -24
24 -25 63 -4 169 4 1924 11 2482 8 651 9 677 29 730 22 59 63 104 161 177 30
23 89 72 130 109 41 37 129 115 195 174 140 125 381 339 480 425 56 49 440
392 481 430 6 5 60 55 120 110 307 283 381 352 519 484 82 79 215 201 296 270
214 185 473 417 549 491 36 36 113 108 170 160 58 52 155 142 215 200 61 59
126 122 147 141 367 342 1403 1379 1613 1614 82 93 172 191 500 545 105 113
224 243 265 290 41 47 78 87 81 90 9 8 141 161 193 225 28 33 75 87 105 120
31 33 97 105 146 160 50 54 107 117 128 140 36 38 71 79 314 366 54 64 143
167 198 230 121 137 279 330 437 534 64 83 169 214 233 293 93 114 325 418
595 778 82 109 198 272 287 401 56 81 119 173 141 203 21 30 81 118 133 195
52 77 139 200 193 273 124 169 263 383 391 603 55 94 165 275 245 403 178 281
322 546 527 964 85 174 172 343 192 374 39 63 67 74 77 32z"/>
  </g>
</svg>