<svg xmlns="http://www.w3.org/2000/svg" viewBox="0 0 4096.000000 4096.000000">
  <g transform="translate(0.000000,4096.000000) scale(0.100000,-0.100000)" fill="#f4f5f7" stroke="none">
    <path d="M21490 40254 c-83 -9 -136 -21 -192 -43 -42 -17 -81 -31 -86 -31 -5
0 -25 -11 -44 -24 -20 -13 -51 -29 -70 -35 -20 -7 -43 -20 -53 -30 -9 -11 -31
-25 -48 -32 -18 -7 -50 -26 -71 -41 -21 -15 -44 -28 -51 -28 -11 0 -55 -26
-160 -97 -28 -18 -56 -33 -62 -33 -7 0 -27 -13 -46 -29 -18 -16 -45 -33 -59
-36 -14 -4 -36 -17 -49 -31 -12 -13 -38 -29 -58 -35 -20 -7 -49 -21 -66 -33
-16 -11 -47 -30 -70 -42 -39 -20 -117 -65 -225 -130 -30 -18 -73 -43 -95 -55
-22 -12 -53 -32 -68 -45 -16 -13 -34 -24 -41 -24 -7 0 -28 -12 -47 -26 -19
-14 -50 -32 -69 -40 -19 -8 -44 -23 -55 -34 -11 -10 -37 -25 -58 -34 -22 -9
-52 -27 -69 -41 -16 -14 -35 -25 -42 -25 -7 0 -31 -13 -52 -28 -21 -15 -53
-34 -71 -41 -18 -7 -38 -20 -44 -27 -7 -8 -33 -25 -58 -38 -80 -41 -139 -73
-183 -101 -24 -15 -68 -42 -98 -61 -30 -19 -60 -34 -67 -34 -7 0 -27 -13 -45
-29 -18 -15 -44 -32 -58 -36 -14 -4 -34 -16 -45 -26 -11 -10 -36 -25 -55 -33
-19 -8 -50 -26 -69 -40 -19 -14 -40 -26 -47 -26 -7 0 -25 -11 -41 -24 -15 -13
-52 -36 -81 -52 -29 -16 -72 -39 -94 -51 -22 -12 -48 -29 -57 -37 -9 -8 -38
-25 -63 -36 -26 -11 -50 -25 -54 -31 -4 -6 -30 -22 -58 -34 -29 -13 -57 -30
-64 -38 -7 -8 -27 -21 -45 -28 -18 -7 -50 -26 -71 -41 -21 -15 -44 -28 -51
-28 -7 0 -29 -13 -50 -30 -20 -16 -46 -32 -58 -36 -12 -3 -31 -15 -42 -25 -11
-10 -38 -26 -60 -35 -22 -9 -53 -27 -68 -40 -16 -13 -34 -24 -41 -24 -7 0 -35
-16 -62 -35 -27 -19 -54 -35 -61 -35 -6 0 -25 -11 -41 -25 -16 -13 -50 -33
-75 -44 -24 -11 -48 -24 -52 -31 -4 -6 -30 -21 -58 -34 -29 -12 -58 -30 -65
-39 -7 -9 -26 -19 -42 -22 -16 -4 -46 -20 -66 -36 -20 -16 -43 -29 -50 -29 -7
0 -26 -11 -42 -25 -16 -13 -50 -33 -75 -44 -24 -11 -48 -24 -52 -31 -4 -6 -31
-22 -60 -34 -29 -13 -56 -29 -60 -35 -4 -7 -30 -22 -58 -35 -29 -12 -58 -30
-66 -39 -7 -10 -19 -17 -26 -17 -7 0 -35 -15 -62 -34 -26 -18 -60 -37 -73 -41
-14 -4 -37 -18 -52 -31 -16 -12 -38 -26 -50 -30 -13 -4 -39 -20 -59 -35 -20
-16 -42 -29 -47 -29 -6 0 -24 -11 -40 -25 -17 -14 -47 -32 -69 -41 -21 -9 -51
-27 -66 -40 -16 -13 -34 -24 -40 -24 -7 0 -34 -16 -61 -35 -27 -19 -55 -35
-61 -35 -7 0 -25 -10 -40 -22 -29 -23 -71 -49 -175 -108 -30 -17 -80 -46 -110
-65 -30 -19 -80 -48 -110 -65 -30 -17 -80 -46 -110 -65 -30 -19 -78 -46 -107
-59 -28 -14 -54 -30 -58 -37 -4 -6 -28 -20 -54 -31 -25 -11 -59 -30 -76 -43
-16 -12 -41 -26 -55 -30 -14 -4 -34 -15 -45 -25 -11 -9 -53 -38 -93 -64 -80
-53 -200 -164 -229 -212 -10 -17 -28 -44 -41 -60 -35 -44 -88 -138 -96 -170
-4 -16 -18 -52 -32 -81 -40 -86 -67 -318 -84 -728 -14 -351 -25 -503 -50 -680
-10 -77 -24 -225 -30 -330 -6 -104 -20 -251 -30 -325 -10 -74 -24 -216 -30
-315 -12 -195 -21 -285 -44 -440 -8 -55 -20 -161 -26 -235 -6 -74 -18 -164
-26 -200 -8 -36 -17 -76 -20 -89 -3 -14 -12 -96 -19 -183 -8 -87 -23 -191 -34
-231 -11 -40 -22 -103 -26 -142 -9 -109 -25 -213 -46 -300 -10 -44 -23 -130
-29 -190 -5 -61 -19 -142 -30 -182 -11 -40 -25 -116 -30 -170 -6 -54 -22 -143
-35 -198 -12 -55 -29 -152 -35 -215 -7 -63 -21 -140 -31 -170 -11 -30 -24
-102 -30 -160 -6 -58 -19 -136 -30 -175 -10 -38 -28 -130 -40 -202 -11 -73
-26 -147 -33 -165 -8 -18 -22 -82 -31 -142 -10 -60 -26 -134 -37 -165 -10 -31
-23 -90 -29 -132 -5 -43 -18 -103 -30 -135 -11 -33 -27 -106 -35 -164 -9 -57
-24 -125 -34 -150 -10 -25 -23 -81 -30 -125 -6 -44 -22 -110 -35 -147 -13 -37
-29 -101 -35 -143 -6 -42 -20 -95 -31 -120 -10 -24 -26 -81 -34 -127 -8 -46
-23 -104 -34 -129 -10 -24 -24 -76 -30 -115 -6 -39 -22 -100 -35 -135 -13 -35
-27 -91 -31 -124 -4 -33 -18 -88 -31 -123 -13 -34 -28 -90 -34 -125 -6 -34
-22 -89 -35 -123 -13 -33 -29 -89 -35 -124 -6 -35 -18 -76 -25 -90 -8 -15 -23
-64 -35 -110 -12 -46 -29 -99 -39 -119 -10 -20 -22 -56 -26 -81 -4 -25 -18
-70 -30 -100 -13 -30 -28 -82 -35 -115 -7 -33 -23 -81 -35 -106 -13 -25 -29
-74 -35 -110 -6 -35 -21 -80 -32 -99 -11 -19 -27 -66 -35 -105 -8 -38 -22 -83
-33 -100 -10 -16 -23 -54 -29 -84 -6 -30 -23 -80 -36 -110 -14 -31 -29 -78
-35 -105 -6 -27 -22 -72 -35 -101 -14 -28 -25 -62 -25 -74 0 -13 -13 -53 -30
-90 -16 -37 -34 -89 -40 -115 -6 -26 -19 -65 -30 -87 -11 -21 -25 -62 -31 -91
-6 -29 -20 -70 -30 -91 -11 -20 -27 -65 -35 -100 -9 -34 -27 -82 -39 -107 -12
-25 -26 -65 -30 -90 -4 -25 -15 -61 -25 -80 -10 -19 -28 -68 -40 -109 -12 -41
-28 -84 -35 -95 -8 -12 -19 -43 -26 -71 -7 -27 -22 -71 -35 -96 -13 -26 -28
-68 -35 -95 -7 -27 -22 -67 -34 -89 -12 -22 -28 -62 -34 -89 -7 -27 -20 -61
-30 -75 -9 -14 -27 -51 -38 -81 -39 -104 -73 -185 -98 -235 -13 -27 -29 -68
-35 -90 -5 -22 -16 -49 -24 -60 -8 -12 -22 -48 -31 -80 -10 -33 -28 -78 -40
-100 -13 -22 -28 -59 -34 -82 -6 -23 -23 -61 -36 -85 -14 -24 -25 -50 -25 -59
0 -8 -16 -46 -35 -85 -19 -38 -35 -76 -35 -85 0 -9 -12 -34 -26 -55 -15 -21
-33 -61 -40 -88 -7 -26 -19 -55 -27 -65 -8 -9 -22 -38 -32 -66 -9 -27 -24 -64
-34 -81 -10 -17 -24 -48 -31 -70 -7 -21 -23 -58 -35 -81 -13 -23 -29 -59 -35
-80 -7 -21 -23 -57 -36 -80 -13 -23 -24 -48 -24 -56 0 -8 -16 -44 -35 -80 -19
-36 -35 -71 -35 -78 0 -6 -13 -33 -29 -60 -17 -26 -34 -65 -40 -86 -6 -21 -22
-54 -36 -73 -14 -19 -25 -39 -25 -44 0 -14 -159 -337 -175 -356 -7 -8 -18 -35
-25 -60 -6 -25 -20 -54 -31 -65 -10 -11 -25 -40 -33 -63 -9 -24 -24 -55 -35
-68 -11 -14 -25 -42 -32 -62 -6 -20 -22 -50 -34 -67 -12 -16 -26 -41 -30 -55
-4 -14 -20 -45 -35 -70 -15 -25 -33 -62 -40 -82 -6 -21 -16 -40 -21 -44 -9 -5
-26 -37 -88 -164 -13 -25 -27 -52 -32 -60 -5 -8 -23 -42 -39 -74 -16 -33 -37
-67 -45 -76 -8 -9 -20 -32 -27 -51 -6 -19 -24 -54 -40 -78 -15 -25 -28 -50
-28 -57 0 -6 -8 -22 -19 -35 -10 -13 -44 -73 -76 -134 -32 -60 -66 -121 -75
-135 -10 -14 -20 -35 -24 -47 -7 -22 -49 -96 -100 -179 -14 -23 -26 -46 -26
-51 0 -6 -12 -28 -27 -49 -15 -21 -37 -59 -51 -84 -60 -114 -130 -234 -162
-280 -9 -14 -26 -46 -37 -71 -12 -26 -26 -49 -32 -53 -6 -4 -20 -26 -31 -49
-11 -23 -38 -71 -60 -107 -21 -36 -50 -86 -64 -112 -14 -26 -31 -50 -37 -53
-6 -4 -20 -28 -31 -54 -10 -25 -27 -54 -36 -64 -19 -21 -49 -70 -88 -142 -15
-27 -37 -63 -50 -78 -13 -16 -24 -33 -24 -39 0 -6 -11 -26 -26 -45 -14 -18
-32 -48 -40 -66 -8 -17 -25 -47 -37 -64 -12 -18 -40 -61 -61 -95 -22 -35 -54
-85 -71 -113 -18 -27 -46 -72 -63 -100 -17 -27 -45 -70 -62 -95 -17 -25 -41
-60 -53 -79 -26 -40 -57 -86 -112 -166 -52 -74 -91 -133 -113 -169 -9 -15 -30
-46 -47 -67 -16 -21 -48 -68 -70 -105 -22 -36 -52 -81 -67 -99 -16 -18 -28
-36 -28 -40 0 -5 -12 -24 -27 -44 -16 -19 -37 -49 -48 -67 -11 -17 -38 -57
-60 -89 -22 -31 -51 -74 -65 -95 -14 -20 -38 -56 -53 -79 -15 -23 -35 -49 -43
-59 -8 -9 -37 -48 -64 -87 -52 -75 -87 -121 -135 -185 -16 -21 -47 -63 -68
-92 -21 -29 -75 -102 -120 -161 -45 -60 -91 -123 -102 -140 -11 -18 -28 -41
-37 -52 -9 -11 -56 -72 -103 -135 -47 -63 -105 -139 -128 -169 -23 -30 -53
-69 -67 -87 -43 -56 -83 -107 -135 -170 -27 -34 -68 -85 -90 -114 -76 -100
-104 -135 -130 -165 -14 -16 -47 -59 -72 -95 -26 -36 -104 -131 -173 -212 -69
-80 -152 -179 -185 -219 -72 -87 -197 -233 -236 -274 -15 -16 -100 -115 -189
-220 -169 -199 -175 -206 -255 -296 -68 -76 -571 -617 -609 -655 -17 -16 -71
-75 -121 -130 -99 -110 -679 -689 -989 -987 -109 -106 -227 -219 -261 -252
-74 -71 -201 -187 -345 -315 -58 -52 -134 -121 -170 -154 -36 -34 -98 -90
-139 -126 -40 -36 -104 -92 -141 -125 -37 -33 -103 -90 -147 -127 -43 -37
-110 -96 -148 -132 -39 -36 -73 -66 -77 -66 -4 0 -22 -13 -40 -29 -18 -17 -53
-46 -78 -66 -25 -20 -56 -46 -69 -57 -14 -12 -39 -31 -57 -43 -18 -12 -45 -34
-60 -48 -38 -35 -167 -141 -234 -192 -29 -22 -65 -51 -80 -65 -15 -14 -47 -40
-71 -58 -108 -81 -312 -241 -421 -329 -22 -18 -44 -33 -48 -33 -5 0 -45 -30
-89 -67 -44 -38 -101 -84 -127 -103 -73 -55 -150 -125 -202 -185 -96 -111
-111 -132 -122 -160 -6 -15 -19 -39 -28 -54 -10 -14 -34 -71 -53 -126 -34
-100 -34 -100 -34 -285 0 -177 1 -187 26 -245 15 -33 29 -77 33 -97 4 -21 17
-50 30 -65 12 -15 26 -37 30 -48 17 -46 146 -201 206 -247 128 -99 245 -166
330 -188 25 -7 59 -20 75 -30 17 -10 57 -26 90 -35 33 -9 74 -25 90 -34 17
-10 53 -23 80 -30 28 -7 64 -21 80 -31 17 -10 50 -24 75 -30 24 -7 66 -23 91
-36 26 -13 68 -29 95 -35 27 -7 73 -25 102 -41 30 -15 61 -28 71 -28 9 0 43
-14 76 -30 33 -16 68 -30 79 -30 10 0 53 -16 96 -35 43 -19 86 -35 97 -35 11
0 45 -13 75 -29 30 -16 72 -33 94 -36 21 -4 59 -18 84 -30 42 -21 76 -34 235
-87 33 -11 88 -33 123 -49 34 -16 71 -29 80 -29 10 0 41 -11 68 -25 27 -14 75
-32 106 -40 32 -9 72 -24 90 -34 18 -10 55 -24 82 -30 27 -7 69 -22 95 -35 25
-13 69 -29 96 -35 28 -7 64 -21 80 -31 17 -10 50 -24 75 -30 24 -7 65 -22 90
-35 25 -12 70 -28 100 -35 30 -7 73 -23 95 -35 22 -13 56 -26 75 -30 19 -4 65
-20 102 -36 36 -16 75 -29 85 -29 10 0 45 -13 78 -28 33 -16 81 -34 107 -40
26 -7 62 -21 80 -31 18 -11 56 -25 83 -32 28 -6 65 -20 83 -30 18 -10 58 -26
90 -35 31 -9 71 -24 87 -34 17 -10 53 -24 80 -31 28 -7 77 -25 110 -41 33 -15
67 -28 76 -28 9 0 40 -13 70 -29 30 -15 70 -32 89 -36 19 -4 62 -20 95 -36 33
-16 69 -29 80 -29 11 0 45 -12 75 -26 30 -15 81 -33 114 -40 32 -8 70 -23 85
-33 14 -10 48 -23 75 -30 27 -7 70 -23 95 -36 26 -13 65 -27 87 -31 21 -3 64
-19 94 -34 30 -16 73 -31 95 -35 22 -3 58 -17 80 -30 22 -12 64 -28 94 -34 30
-6 68 -20 85 -30 17 -11 58 -27 91 -36 33 -10 74 -25 90 -35 17 -9 52 -23 79
-29 27 -7 63 -20 80 -29 31 -16 123 -51 246 -92 36 -12 88 -32 115 -45 28 -14
70 -30 95 -36 25 -6 59 -19 75 -29 17 -10 53 -24 80 -31 28 -6 66 -20 85 -30
34 -19 104 -44 240 -89 36 -12 88 -32 115 -45 28 -13 73 -29 100 -35 28 -6 64
-20 80 -30 17 -11 53 -24 80 -30 28 -6 71 -22 97 -35 25 -13 68 -30 95 -36 26
-6 62 -20 79 -30 17 -10 59 -25 95 -34 35 -8 86 -26 113 -40 27 -14 59 -25 71
-25 12 0 47 -13 77 -29 30 -16 72 -33 94 -37 21 -4 59 -17 84 -29 25 -13 66
-28 90 -35 25 -6 75 -25 112 -41 36 -16 75 -29 85 -29 10 0 45 -13 78 -29 33
-16 76 -32 95 -36 19 -4 53 -17 75 -30 22 -12 65 -28 95 -35 30 -7 82 -26 115
-42 33 -15 67 -28 77 -28 9 0 45 -13 80 -30 34 -16 72 -30 84 -30 12 0 42 -11
68 -25 25 -13 71 -32 102 -41 31 -9 71 -24 88 -34 17 -10 54 -24 81 -31 28 -6
66 -20 85 -31 19 -11 58 -27 85 -35 28 -8 64 -23 80 -33 17 -11 53 -24 80 -30
26 -6 76 -24 109 -40 33 -17 70 -30 81 -30 11 0 47 -13 80 -29 33 -16 76 -32
95 -36 19 -4 56 -18 81 -31 26 -13 68 -28 95 -35 27 -6 64 -21 82 -31 18 -11
60 -26 94 -34 34 -8 75 -23 92 -33 17 -11 51 -25 76 -31 24 -7 65 -22 90 -35
25 -12 68 -28 95 -34 28 -7 64 -21 80 -31 17 -10 53 -24 80 -31 28 -6 67 -21
89 -31 37 -19 77 -34 262 -98 45 -15 92 -35 105 -43 13 -8 48 -20 77 -26 30
-6 72 -22 95 -35 23 -14 60 -28 82 -32 22 -4 61 -17 87 -30 26 -13 71 -29 100
-35 29 -6 71 -21 93 -34 22 -13 58 -27 80 -30 22 -4 65 -20 95 -35 30 -16 73
-31 94 -35 22 -4 60 -17 85 -29 26 -13 71 -31 101 -41 30 -10 64 -24 75 -31
11 -7 43 -18 70 -25 28 -7 74 -25 104 -41 30 -15 63 -28 74 -28 11 0 47 -13
81 -29 34 -16 90 -39 126 -51 125 -41 205 -71 245 -89 22 -11 56 -22 75 -26
19 -4 56 -18 81 -31 26 -13 68 -28 95 -35 27 -6 67 -22 89 -34 22 -12 64 -28
94 -34 30 -6 68 -20 85 -31 17 -10 54 -24 81 -31 28 -6 70 -22 95 -34 25 -12
70 -28 100 -35 30 -7 73 -23 95 -35 22 -13 56 -26 75 -30 19 -4 62 -20 95 -36
33 -16 68 -29 78 -29 10 0 43 -13 75 -29 31 -16 73 -32 92 -36 19 -4 57 -19
84 -32 27 -14 72 -31 100 -39 28 -7 73 -25 100 -39 27 -14 59 -25 70 -25 12 0
46 -13 76 -29 30 -16 71 -32 90 -36 19 -4 55 -17 80 -30 25 -12 67 -27 94 -34
27 -7 68 -23 90 -35 23 -13 59 -27 80 -31 22 -4 60 -17 85 -29 26 -13 69 -28
96 -35 28 -7 65 -21 83 -32 18 -10 54 -24 80 -31 26 -6 74 -24 107 -40 33 -15
66 -28 73 -28 8 0 44 -13 81 -30 37 -16 88 -34 113 -39 26 -6 61 -19 80 -30
18 -11 56 -25 83 -32 28 -6 68 -22 90 -34 22 -13 56 -26 75 -29 19 -4 64 -20
100 -36 36 -15 93 -38 128 -49 34 -12 90 -30 125 -42 34 -11 82 -31 107 -43
25 -13 67 -29 94 -35 27 -7 66 -21 87 -32 21 -10 62 -24 91 -30 29 -6 64 -18
78 -27 14 -9 61 -29 105 -45 44 -16 116 -42 160 -59 44 -17 117 -43 162 -59
45 -15 93 -35 105 -43 13 -8 46 -20 73 -27 28 -7 77 -25 110 -41 33 -15 67
-28 75 -28 8 0 40 -13 70 -29 30 -15 73 -32 95 -35 22 -4 59 -18 81 -31 23
-14 63 -29 90 -35 27 -6 70 -22 95 -35 25 -13 63 -27 85 -30 21 -4 53 -15 71
-26 18 -10 63 -27 100 -38 37 -12 90 -32 117 -46 27 -14 59 -25 70 -25 12 0
48 -13 81 -29 33 -16 76 -32 95 -36 19 -4 55 -17 80 -30 25 -12 68 -27 95 -34
28 -7 65 -21 83 -32 18 -10 54 -24 80 -31 26 -6 74 -24 107 -40 33 -15 68 -28
78 -28 10 0 43 -13 75 -29 31 -16 73 -32 92 -36 19 -4 62 -20 95 -36 33 -16
69 -29 80 -29 12 0 43 -11 71 -25 27 -13 81 -35 119 -48 39 -14 88 -32 110
-40 22 -8 78 -20 125 -26 47 -6 122 -16 167 -23 73 -11 95 -9 225 11 138 22
229 51 318 101 19 11 58 30 85 44 28 13 56 31 63 39 7 8 27 21 45 28 18 7 46
23 62 35 17 12 46 29 65 38 19 9 62 34 95 56 33 22 86 53 117 70 31 16 59 34
63 40 3 6 22 17 42 25 19 8 48 26 64 39 16 14 39 28 51 32 13 4 38 20 56 35
18 16 39 29 46 29 7 0 30 14 51 30 21 17 42 30 48 30 10 0 113 65 158 99 15
12 47 30 70 41 24 11 58 30 75 43 39 27 87 56 133 81 20 10 44 25 55 35 10 9
35 25 56 36 47 25 90 51 151 93 27 17 51 32 54 32 3 0 28 16 56 35 28 19 56
35 61 35 6 0 27 13 47 29 20 15 46 31 58 35 12 4 38 20 58 36 21 17 42 30 47
30 5 0 28 13 51 28 70 47 151 99 178 113 39 22 88 52 123 76 17 13 49 31 71
42 22 10 55 31 74 45 19 14 39 26 43 26 5 0 31 16 59 35 28 19 56 35 62 35 5
0 24 10 41 23 17 13 65 43 106 67 41 24 84 52 95 61 11 10 34 24 50 31 17 7
48 25 70 41 91 63 142 95 162 101 12 4 38 20 58 36 21 17 43 30 50 30 6 0 29
13 51 30 21 16 44 30 49 30 6 0 36 17 67 38 31 20 78 50 105 65 26 16 63 38
82 50 19 12 53 33 76 47 82 49 108 65 156 98 27 17 53 32 58 32 5 0 23 11 39
25 17 14 46 32 64 40 19 7 40 20 46 28 7 8 31 22 54 32 24 11 58 32 76 47 18
15 39 28 46 28 7 0 30 14 51 30 21 17 43 30 49 30 6 0 37 18 70 40 32 22 64
40 71 40 7 0 18 7 26 16 7 8 33 27 58 40 43 23 107 62 179 109 37 24 82 52
137 85 89 54 109 66 156 97 27 18 53 33 58 33 5 0 22 11 38 24 15 13 51 35 78
50 66 35 111 62 162 97 23 16 46 29 51 29 6 0 24 11 40 25 17 14 47 32 69 41
21 9 51 27 66 40 16 13 34 24 40 24 7 0 34 16 61 35 27 19 53 35 57 35 4 0 29
15 57 33 27 17 72 45 98 60 27 16 64 38 83 50 86 55 140 88 191 117 30 17 69
41 87 53 17 12 55 36 83 52 28 17 67 42 87 57 19 15 43 30 54 33 10 4 41 21
68 38 27 18 72 46 101 62 28 17 66 40 83 52 18 12 52 34 77 48 25 14 68 40 96
58 28 18 65 41 83 52 18 11 52 32 74 46 23 14 64 39 90 55 27 16 68 40 90 54
23 14 57 34 76 45 18 11 47 30 65 42 17 13 50 31 72 42 23 11 45 25 49 31 4 6
28 20 52 31 25 11 59 31 75 44 16 14 36 25 43 25 7 0 26 11 42 24 15 13 45 31
66 40 22 9 52 27 69 41 16 14 35 25 42 25 7 0 29 12 49 27 19 16 59 42 87 58
29 17 67 39 84 50 17 11 47 29 65 40 18 11 55 35 82 53 27 17 53 32 58 32 6 0
25 13 43 29 18 15 43 31 55 35 12 4 38 20 58 36 21 17 43 30 49 30 6 0 33 16
60 35 27 19 55 35 61 35 7 0 28 12 48 28 20 15 73 49 119 75 46 27 110 66 143
88 33 21 83 51 110 65 28 15 63 37 78 50 16 13 35 24 42 24 7 0 26 11 42 24
15 13 44 32 64 42 47 25 92 52 150 91 27 18 52 33 57 33 5 0 31 16 58 35 27
19 54 35 61 35 7 0 27 13 45 29 18 15 43 31 55 35 12 4 38 20 58 36 21 17 42
30 47 30 4 0 30 15 57 32 27 18 64 42 82 53 19 11 52 31 74 45 22 14 55 34 74
45 18 11 47 30 65 42 17 13 50 32 73 43 23 11 45 25 48 31 4 5 32 23 63 40 72
37 116 64 168 100 23 16 52 33 65 39 13 6 38 21 55 33 31 21 54 36 139 87 90
54 110 66 157 98 28 17 54 32 58 32 4 0 31 16 59 35 28 19 55 35 59 35 5 0 26
13 47 30 21 16 43 30 49 30 6 0 33 16 60 35 27 19 54 35 59 35 5 0 31 16 57
35 26 19 51 35 54 35 7 0 96 58 136 88 14 11 48 31 77 45 28 15 54 31 58 37 3
5 25 18 48 28 23 10 48 26 56 35 7 10 19 17 26 17 7 0 36 16 65 35 29 19 55
35 60 35 4 0 25 13 48 30 22 16 56 36 74 45 18 8 47 25 64 38 18 12 47 31 65
42 19 11 52 31 75 45 22 14 55 34 73 45 18 11 47 30 65 42 17 13 49 32 71 44
22 11 67 38 100 60 33 22 80 49 105 62 25 12 61 34 81 50 20 15 40 27 45 27 5
0 31 16 58 35 27 19 55 35 62 35 7 0 26 11 42 25 17 14 46 32 65 40 20 8 39
19 42 25 4 6 27 22 53 36 91 49 139 79 171 107 18 15 39 27 46 27 8 0 29 13
47 29 18 15 43 31 55 35 12 4 38 20 58 36 21 17 42 30 47 30 4 0 30 15 57 32
60 40 102 66 154 95 21 12 47 29 56 37 9 7 32 22 52 32 70 36 141 79 176 107
20 15 40 27 45 27 4 0 30 15 57 32 27 18 72 47 101 63 28 17 66 40 83 52 18
13 48 31 67 40 19 10 51 30 71 45 20 16 40 28 46 28 5 0 25 12 44 26 19 14 49
32 67 40 19 7 47 25 64 39 16 14 35 25 42 25 7 0 30 13 51 30 20 16 46 32 58
36 12 4 37 20 55 35 18 16 38 29 46 29 7 0 35 16 62 35 27 19 52 35 57 35 4 0
29 15 56 32 47 32 67 44 156 98 86 51 108 66 139 87 17 13 46 30 64 38 18 9
52 29 74 45 23 17 45 30 50 30 5 0 30 15 57 32 27 18 71 46 98 61 26 16 63 38
82 50 31 20 65 41 150 92 18 11 59 37 90 57 31 21 61 38 67 38 6 0 28 14 49
30 21 17 44 30 51 30 7 0 25 11 41 24 15 13 44 31 63 41 19 10 71 41 115 70
44 28 116 73 160 99 76 46 103 63 177 113 18 13 52 32 75 43 23 11 45 25 48
31 4 5 32 22 64 38 31 16 63 36 70 45 8 9 19 16 26 16 7 0 32 16 56 35 24 19
49 35 55 35 17 0 184 145 226 197 21 26 50 62 64 80 37 45 104 156 104 171 0
7 11 35 25 61 15 30 31 92 42 158 17 103 18 642 18 10838 0 8956 -2 10742 -13
10805 -17 90 -74 229 -140 340 -52 88 -95 143 -162 209 -108 104 -141 132
-196 156 -28 13 -54 28 -58 34 -4 6 -30 17 -58 26 -28 8 -62 22 -75 30 -12 9
-51 22 -85 31 -35 8 -88 26 -118 38 -30 13 -77 27 -105 31 -27 4 -65 16 -83
27 -19 12 -63 27 -99 34 -35 8 -87 25 -116 38 -29 13 -72 27 -97 31 -25 4 -65
18 -90 30 -25 12 -63 26 -85 30 -22 4 -65 18 -96 31 -31 13 -88 30 -127 38
-38 8 -87 23 -108 34 -22 11 -63 25 -91 31 -29 6 -74 22 -100 35 -27 14 -68
28 -93 32 -25 4 -63 17 -85 29 -22 13 -67 29 -100 35 -33 7 -80 23 -105 35
-25 13 -71 28 -101 33 -31 6 -71 20 -90 31 -19 11 -67 27 -107 36 -40 8 -89
23 -110 34 -20 10 -62 24 -92 31 -30 7 -65 19 -77 26 -13 8 -63 25 -111 38
-49 13 -101 30 -118 39 -16 8 -56 20 -89 27 -33 7 -74 20 -91 31 -17 10 -61
26 -98 34 -37 9 -84 24 -103 35 -20 11 -61 24 -92 31 -31 6 -73 20 -93 30 -21
11 -68 26 -104 35 -37 8 -85 24 -107 35 -21 11 -66 25 -100 30 -33 6 -78 21
-101 34 -23 13 -67 28 -98 34 -31 6 -75 19 -96 30 -21 11 -69 27 -106 35 -36
9 -83 24 -104 34 -20 10 -64 24 -96 31 -33 7 -79 22 -103 32 -25 10 -73 26
-109 34 -35 8 -82 24 -104 35 -22 11 -63 25 -92 31 -29 6 -71 21 -93 32 -22
11 -66 26 -98 33 -32 8 -74 22 -95 33 -20 10 -62 24 -92 31 -30 7 -75 23 -100
35 -25 12 -65 26 -90 30 -25 4 -66 18 -91 31 -25 12 -77 30 -115 39 -38 9 -79
22 -91 30 -12 8 -56 24 -99 35 -42 11 -89 27 -104 35 -15 8 -58 22 -96 31 -38
9 -86 25 -107 36 -21 10 -63 24 -95 29 -31 6 -77 21 -102 34 -25 13 -71 28
-102 34 -32 5 -75 19 -96 30 -21 11 -69 27 -106 35 -36 9 -83 24 -104 35 -21
11 -56 22 -77 26 -22 4 -70 20 -107 36 -36 16 -77 29 -90 29 -13 0 -50 12 -83
26 -33 14 -87 32 -119 41 -33 8 -73 21 -90 30 -17 9 -67 27 -111 39 -93 27
-218 67 -292 96 -29 11 -81 26 -117 33 -35 7 -81 22 -102 33 -22 11 -68 27
-104 36 -36 9 -74 23 -86 31 -12 8 -52 21 -88 29 -37 9 -84 25 -106 36 -22 11
-63 25 -92 31 -29 6 -71 21 -93 32 -22 11 -66 26 -98 33 -32 8 -75 23 -97 34
-22 11 -71 27 -110 35 -39 8 -88 24 -110 35 -22 11 -63 25 -92 31 -29 6 -70
20 -91 31 -21 10 -70 27 -110 37 -40 10 -92 28 -117 40 -25 11 -56 21 -70 21
-14 0 -53 13 -87 29 -34 17 -87 34 -117 40 -30 6 -73 19 -94 30 -21 11 -70 27
-108 36 -38 9 -79 22 -91 31 -13 8 -51 21 -87 29 -35 8 -88 26 -117 40 -30 14
-64 25 -77 25 -13 0 -60 15 -105 34 -45 18 -100 37 -122 40 -21 4 -56 16 -77
27 -20 10 -63 25 -95 33 -32 7 -80 23 -108 34 -27 12 -79 28 -115 37 -35 9
-76 23 -90 30 -15 8 -57 21 -94 29 -36 9 -84 25 -106 36 -22 11 -63 25 -92 31
-29 6 -70 20 -90 30 -21 11 -65 25 -98 33 -34 8 -78 23 -98 34 -21 11 -61 24
-90 31 -29 6 -74 22 -100 35 -26 13 -67 27 -92 31 -25 4 -67 18 -93 32 -27 13
-82 31 -123 39 -41 7 -84 20 -97 28 -12 9 -51 23 -87 32 -36 9 -85 27 -110 39
-25 13 -75 29 -110 35 -36 7 -79 21 -96 31 -18 11 -58 24 -90 30 -33 6 -77 21
-99 34 -22 12 -64 28 -93 34 -29 6 -78 22 -110 35 -31 13 -75 27 -96 31 -22 3
-61 17 -86 30 -25 13 -70 28 -100 33 -30 6 -80 22 -110 36 -30 14 -66 26 -80
26 -14 0 -52 12 -85 26 -33 14 -93 34 -132 44 -40 11 -83 26 -95 34 -13 8 -48
20 -78 26 -30 6 -80 22 -110 35 -30 13 -85 31 -123 39 -37 9 -78 22 -90 31
-12 8 -55 21 -95 30 -40 8 -89 24 -110 34 -21 11 -67 27 -102 36 -35 9 -78 24
-94 32 -17 9 -57 22 -89 29 -31 8 -76 23 -98 34 -22 12 -66 25 -97 31 -31 6
-72 19 -91 30 -18 11 -63 27 -99 35 -36 8 -82 24 -103 35 -21 10 -70 26 -108
34 -37 8 -84 23 -102 33 -19 11 -59 25 -89 32 -30 7 -78 23 -106 35 -28 13
-77 28 -109 34 -31 6 -71 19 -89 30 -17 11 -59 24 -93 31 -34 6 -88 24 -119
40 -31 17 -70 30 -88 30 -17 0 -56 12 -86 26 -30 14 -77 30 -103 35 -26 5 -79
22 -117 39 -37 16 -79 30 -92 30 -14 0 -47 11 -74 25 -27 14 -71 30 -97 35
-26 5 -78 23 -115 39 -37 15 -87 32 -111 35 -25 4 -61 16 -80 27 -20 10 -67
28 -106 38 -76 21 -192 59 -295 96 -36 13 -88 29 -117 34 -28 6 -69 20 -90 31
-22 11 -65 27 -96 35 -32 8 -68 21 -80 29 -12 8 -49 22 -82 30 -33 9 -85 25
-115 37 -30 12 -107 28 -170 35 -132 15 -119 15 -270 -2z m313 -1999 c42 -8
94 -23 115 -34 20 -10 61 -24 90 -30 29 -6 78 -22 110 -35 31 -13 75 -27 97
-31 22 -4 70 -20 107 -36 36 -16 77 -29 90 -29 13 0 50 -12 83 -26 33 -13 90
-31 128 -39 37 -8 85 -24 106 -34 21 -11 67 -27 103 -35 36 -8 83 -24 104 -35
22 -11 66 -25 99 -31 33 -7 80 -23 105 -35 25 -12 65 -26 90 -30 25 -4 68 -17
96 -29 28 -13 75 -29 105 -35 30 -7 77 -22 104 -33 28 -11 75 -26 105 -33 30
-7 80 -24 110 -38 30 -14 75 -28 100 -32 25 -4 65 -18 91 -30 25 -13 63 -27
85 -30 21 -4 69 -20 105 -36 36 -15 85 -31 110 -35 24 -4 64 -17 90 -30 25
-12 63 -26 85 -30 21 -3 60 -17 86 -30 26 -14 79 -31 117 -39 38 -8 84 -23
102 -33 19 -11 59 -25 89 -32 30 -7 71 -21 91 -31 20 -10 74 -27 120 -39 46
-12 94 -28 106 -36 12 -8 46 -19 75 -25 29 -6 70 -20 90 -30 21 -11 68 -26
104 -35 37 -8 84 -24 105 -35 21 -10 62 -24 91 -30 29 -6 78 -22 108 -34 30
-13 82 -28 115 -35 33 -7 80 -23 105 -36 25 -13 56 -24 70 -24 14 0 52 -12 85
-26 33 -15 89 -33 123 -40 35 -8 81 -23 103 -34 21 -11 69 -27 105 -36 37 -8
85 -24 107 -35 21 -11 71 -27 111 -35 39 -9 81 -22 93 -30 13 -8 53 -21 89
-30 37 -8 84 -24 106 -35 21 -11 62 -24 90 -29 28 -6 74 -21 102 -34 28 -13
69 -27 91 -31 22 -4 69 -20 105 -35 36 -15 85 -31 110 -35 25 -4 65 -18 90
-30 25 -12 69 -28 98 -34 29 -6 72 -21 95 -33 23 -12 71 -27 106 -35 35 -7 78
-22 95 -32 17 -10 56 -24 86 -31 30 -7 77 -23 105 -36 28 -13 80 -29 115 -37
36 -7 77 -21 90 -30 14 -9 50 -21 80 -28 30 -6 75 -22 100 -34 25 -12 65 -26
90 -30 25 -4 74 -20 110 -35 36 -15 89 -33 118 -39 29 -6 69 -19 90 -30 20
-10 64 -24 97 -31 33 -7 76 -20 95 -30 19 -10 63 -25 97 -34 35 -8 80 -24 101
-35 21 -10 64 -24 95 -30 32 -6 79 -20 105 -32 26 -11 73 -27 105 -35 32 -8
82 -25 110 -38 29 -13 75 -26 102 -30 28 -4 65 -17 83 -28 19 -12 64 -27 100
-35 36 -7 79 -22 97 -33 17 -11 56 -25 86 -31 30 -6 77 -22 105 -35 28 -13 75
-28 105 -34 29 -6 71 -19 92 -31 22 -11 69 -26 107 -34 37 -8 83 -23 101 -34
19 -10 58 -24 87 -30 29 -6 71 -20 93 -32 23 -11 73 -27 113 -35 39 -9 81 -22
93 -29 12 -8 52 -23 90 -34 37 -11 95 -31 128 -45 33 -14 74 -26 91 -26 17 0
51 -11 75 -23 24 -13 77 -31 116 -40 40 -9 90 -25 111 -36 20 -10 63 -24 93
-29 31 -6 71 -20 91 -31 19 -12 61 -26 94 -32 32 -6 82 -21 109 -34 28 -12 77
-28 110 -35 33 -7 78 -21 100 -33 22 -11 66 -26 98 -33 32 -8 74 -22 95 -33
20 -10 64 -24 97 -31 33 -7 77 -21 97 -31 21 -11 68 -26 104 -35 37 -8 88 -25
113 -38 25 -13 67 -26 94 -29 26 -4 66 -16 90 -28 23 -12 71 -28 106 -36 35
-7 79 -22 97 -33 17 -11 58 -25 90 -31 32 -6 75 -19 95 -29 20 -11 67 -27 105
-36 38 -9 84 -25 103 -36 18 -10 65 -25 102 -33 38 -8 80 -22 92 -30 13 -8 56
-23 97 -33 41 -11 93 -28 115 -39 22 -11 69 -26 105 -32 35 -7 85 -23 110 -36
25 -12 61 -26 80 -30 19 -4 56 -18 81 -31 25 -12 70 -26 100 -30 30 -3 73 -17
96 -30 23 -13 70 -30 105 -37 35 -8 81 -23 103 -34 22 -11 60 -24 85 -28 25
-4 74 -20 110 -35 36 -15 83 -31 104 -35 22 -3 60 -17 85 -30 26 -12 73 -28
106 -35 33 -6 85 -22 115 -35 30 -13 80 -29 110 -35 30 -7 69 -20 85 -30 17
-10 57 -23 90 -30 33 -7 85 -22 115 -35 30 -12 79 -28 109 -34 30 -6 69 -20
87 -31 17 -11 58 -25 90 -31 32 -6 79 -21 104 -34 25 -12 69 -28 98 -34 29 -6
74 -22 100 -35 26 -13 67 -27 92 -31 25 -4 65 -17 90 -30 25 -12 61 -25 80
-29 69 -12 183 -51 187 -64 7 -17 -13 -39 -44 -47 -14 -3 -40 -16 -57 -29 -17
-13 -45 -29 -63 -35 -18 -7 -38 -20 -45 -28 -7 -8 -35 -25 -64 -38 -28 -12
-55 -28 -58 -34 -4 -6 -24 -18 -44 -27 -20 -8 -46 -23 -57 -34 -11 -10 -37
-25 -58 -34 -22 -9 -52 -27 -69 -41 -16 -14 -36 -25 -43 -25 -7 0 -27 -11 -43
-25 -16 -13 -49 -34 -73 -45 -24 -11 -58 -30 -75 -43 -38 -27 -84 -55 -134
-82 -20 -11 -50 -30 -67 -42 -17 -13 -36 -23 -41 -23 -6 0 -23 -11 -39 -24
-15 -13 -51 -35 -80 -49 -28 -15 -54 -31 -58 -37 -3 -6 -23 -17 -43 -26 -20
-8 -46 -23 -57 -33 -11 -10 -30 -22 -42 -25 -12 -4 -38 -20 -58 -36 -21 -17
-43 -30 -50 -30 -7 0 -31 -14 -55 -31 -24 -17 -57 -38 -74 -45 -17 -8 -42 -23
-56 -33 -22 -16 -111 -70 -265 -161 -70 -41 -106 -64 -139 -87 -17 -13 -46
-30 -64 -38 -18 -9 -52 -29 -74 -45 -23 -17 -46 -30 -53 -30 -6 0 -22 -11 -35
-24 -12 -14 -34 -28 -49 -31 -14 -3 -46 -21 -70 -40 -24 -19 -49 -35 -56 -35
-7 0 -29 -13 -50 -30 -21 -16 -44 -30 -51 -30 -7 0 -26 -11 -42 -25 -17 -14
-47 -32 -69 -41 -21 -9 -47 -24 -58 -34 -11 -11 -37 -26 -57 -34 -20 -9 -40
-21 -44 -27 -3 -6 -30 -22 -58 -34 -29 -13 -57 -30 -64 -38 -7 -8 -27 -21 -45
-28 -18 -7 -50 -26 -71 -41 -21 -15 -43 -28 -48 -28 -5 0 -31 -16 -59 -35 -28
-19 -56 -35 -62 -35 -6 0 -22 -11 -36 -23 -15 -13 -42 -30 -61 -37 -19 -7 -46
-23 -60 -35 -14 -12 -39 -28 -57 -34 -18 -7 -38 -20 -45 -28 -7 -9 -31 -24
-53 -35 -22 -10 -54 -28 -71 -41 -18 -12 -45 -30 -60 -39 -16 -10 -56 -35 -89
-57 -33 -22 -73 -46 -90 -54 -16 -8 -48 -26 -69 -41 -21 -14 -51 -26 -65 -26
-14 0 -48 12 -74 26 -27 14 -76 30 -110 36 -34 5 -77 19 -96 29 -18 11 -68 29
-110 41 -42 11 -92 28 -111 38 -19 9 -53 20 -75 24 -22 4 -55 16 -74 27 -18
11 -63 27 -99 35 -36 8 -82 24 -102 34 -20 10 -67 26 -104 34 -36 9 -85 25
-107 36 -22 12 -66 25 -97 31 -31 6 -72 19 -91 30 -18 11 -64 26 -101 34 -37
8 -83 23 -101 34 -19 11 -63 25 -99 31 -36 7 -84 23 -106 36 -23 13 -61 26
-85 30 -24 4 -73 19 -109 34 -36 15 -85 31 -110 35 -25 4 -65 18 -90 30 -25
12 -72 28 -105 35 -33 7 -73 20 -90 30 -16 10 -60 26 -98 34 -37 9 -85 25
-107 36 -22 11 -64 25 -92 30 -29 6 -70 19 -91 31 -22 11 -69 27 -105 35 -36
8 -83 24 -104 35 -21 11 -65 25 -96 30 -31 6 -71 19 -88 30 -17 10 -64 26
-105 35 -41 9 -88 25 -104 35 -17 10 -53 23 -80 29 -28 6 -75 21 -105 34 -30
13 -82 30 -115 36 -33 7 -74 20 -91 31 -17 10 -55 24 -85 30 -30 6 -74 22 -99
34 -25 12 -79 30 -121 39 -41 9 -84 23 -95 31 -12 7 -51 21 -88 29 -36 9 -85
25 -107 37 -23 11 -69 25 -102 30 -34 6 -75 19 -93 29 -17 11 -55 25 -85 31
-30 6 -83 24 -119 39 -36 15 -85 31 -110 35 -25 4 -66 18 -92 31 -25 13 -66
26 -90 30 -24 4 -72 19 -108 34 -36 15 -87 31 -115 35 -27 3 -65 15 -84 26
-18 11 -64 26 -101 34 -37 8 -83 23 -102 34 -18 11 -67 27 -107 36 -41 8 -88
24 -105 34 -17 11 -58 24 -91 31 -33 7 -75 21 -93 32 -19 12 -64 27 -100 35
-36 7 -79 22 -96 32 -17 11 -60 25 -95 31 -36 6 -82 20 -103 31 -21 10 -70 26
-109 34 -40 9 -86 24 -103 34 -17 10 -47 22 -66 26 -19 4 -74 22 -122 41 -48
19 -98 34 -111 34 -13 0 -46 11 -73 25 -27 14 -71 31 -99 37 -27 6 -70 21 -95
33 -25 12 -72 28 -105 35 -33 8 -78 22 -100 33 -22 11 -69 26 -104 34 -35 7
-78 22 -95 32 -17 11 -57 24 -88 30 -31 5 -78 21 -105 35 -26 13 -68 27 -93
31 -25 4 -66 18 -91 30 -25 13 -74 29 -110 35 -35 6 -79 20 -98 31 -18 11 -65
26 -102 34 -38 8 -87 24 -108 35 -21 10 -71 26 -111 34 -40 9 -83 22 -96 31
-13 8 -54 22 -90 31 -37 8 -84 24 -105 35 -21 10 -70 26 -108 34 -37 8 -84 23
-103 35 -19 11 -61 25 -93 31 -33 6 -80 21 -105 34 -25 12 -65 26 -90 30 -25
4 -65 18 -90 30 -25 12 -72 28 -105 35 -33 6 -82 22 -110 35 -27 13 -78 28
-113 35 -34 6 -77 19 -95 30 -17 10 -61 26 -96 35 -36 9 -81 25 -100 35 -20 9
-60 23 -89 29 -29 6 -70 20 -90 30 -21 11 -67 27 -102 36 -35 9 -81 25 -102
36 -22 11 -64 25 -96 30 -31 6 -73 19 -94 30 -21 11 -68 26 -105 35 -38 8 -82
24 -99 35 -18 11 -58 24 -90 30 -33 6 -72 19 -89 29 -16 10 -60 26 -98 34 -37
9 -85 25 -106 36 -21 10 -70 26 -108 34 -37 8 -84 23 -103 34 -19 11 -55 23
-80 27 -25 4 -74 20 -110 35 -36 15 -85 30 -108 34 -24 4 -61 16 -83 26 -21
11 -67 28 -102 36 -34 9 -79 25 -99 35 -21 11 -69 26 -108 34 -39 8 -81 22
-93 30 -13 8 -58 23 -100 34 -43 11 -89 27 -103 36 -14 9 -56 23 -94 31 -38 8
-84 23 -102 33 -18 11 -60 24 -93 31 -33 6 -87 22 -120 35 -33 13 -84 28 -113
34 -29 6 -72 21 -95 32 -23 12 -68 28 -100 35 -32 8 -74 22 -95 33 -20 10 -61
24 -90 30 -29 6 -71 20 -94 32 -22 11 -65 27 -95 35 -29 8 -71 23 -92 34 -21
10 -66 24 -100 29 -34 6 -77 19 -95 30 -18 12 -62 27 -97 34 -35 8 -83 24
-107 36 -24 12 -69 26 -100 32 -31 6 -71 19 -89 29 -18 10 -63 26 -100 36 -37
9 -81 24 -98 34 -16 10 -59 24 -95 30 -35 6 -82 22 -105 34 -22 13 -67 29
-100 36 -33 7 -80 23 -105 35 -25 12 -65 26 -90 30 -25 4 -70 18 -100 31 -30
13 -77 28 -103 34 -27 6 -66 19 -88 30 -21 11 -69 27 -106 35 -69 15 -157 44
-180 58 -24 15 -13 37 30 58 93 48 155 82 217 119 36 21 85 50 110 63 25 13
62 34 82 48 20 13 60 38 88 54 28 17 66 40 83 52 18 12 55 34 82 48 46 24 106
58 194 110 18 11 47 30 65 42 17 13 50 32 73 42 24 11 55 29 70 39 65 44 112
74 151 95 22 12 68 37 101 54 33 18 63 38 66 44 4 6 28 19 52 30 25 11 59 31
75 44 16 14 35 25 42 25 8 0 25 10 40 21 29 23 97 61 183 103 28 14 54 30 58
36 4 6 30 22 58 36 97 48 153 79 181 102 16 12 35 22 42 22 7 0 28 13 46 29
18 16 51 36 73 45 22 9 49 25 60 35 11 10 31 22 45 26 14 4 34 15 45 25 11 10
36 26 55 35 19 10 49 28 65 40 17 13 46 30 65 39 19 8 64 33 100 55 36 22 90
54 120 71 30 17 80 46 110 65 30 19 80 48 110 65 30 17 80 46 110 65 30 19 80
48 110 65 30 17 80 46 110 65 59 36 131 78 219 126 29 16 64 38 78 49 14 11
31 20 38 20 6 0 34 16 61 35 27 19 54 35 60 35 6 0 29 12 50 27 42 29 104 51
144 52 14 1 60 -6 103 -14z m-5418 -3910 c22 -13 62 -26 90 -30 27 -4 70 -17
95 -30 25 -13 71 -28 102 -34 32 -5 75 -19 97 -31 22 -11 69 -27 105 -35 35
-8 88 -26 117 -40 30 -14 63 -25 74 -25 11 0 45 -12 75 -26 30 -14 84 -32 119
-40 35 -8 81 -24 102 -35 21 -10 62 -24 91 -30 29 -6 76 -21 103 -34 28 -12
77 -28 110 -35 33 -6 83 -22 110 -35 28 -12 70 -26 95 -30 25 -4 68 -18 95
-30 28 -13 75 -28 105 -34 30 -7 77 -22 105 -35 27 -13 70 -27 95 -31 25 -4
68 -18 97 -30 28 -13 78 -29 110 -35 32 -7 74 -20 93 -30 19 -10 70 -27 113
-39 44 -12 92 -28 108 -37 16 -8 55 -20 86 -25 32 -6 75 -20 98 -31 22 -12 66
-27 98 -34 32 -8 75 -23 96 -34 21 -10 70 -26 109 -34 38 -8 87 -23 108 -34
22 -11 66 -25 99 -32 33 -6 75 -21 94 -32 19 -10 59 -24 90 -30 30 -5 76 -20
101 -32 25 -13 72 -28 105 -35 33 -7 75 -22 94 -32 18 -11 64 -26 101 -34 37
-8 83 -23 101 -34 19 -11 63 -27 99 -36 36 -9 75 -23 87 -31 13 -8 53 -21 90
-30 38 -8 82 -24 98 -34 17 -10 57 -23 90 -30 33 -7 77 -21 98 -31 21 -11 70
-27 110 -36 39 -8 86 -23 102 -33 17 -10 63 -25 104 -34 40 -9 90 -25 110 -35
20 -10 63 -24 96 -31 33 -7 80 -23 105 -35 25 -12 65 -26 90 -30 25 -4 68 -17
97 -30 28 -13 78 -29 110 -35 32 -7 75 -21 96 -31 21 -11 70 -27 110 -36 39
-9 88 -24 108 -34 20 -10 66 -25 103 -33 36 -9 83 -24 104 -35 21 -11 56 -22
77 -26 22 -4 69 -20 105 -35 36 -15 85 -31 110 -35 25 -4 68 -18 97 -30 28
-13 76 -28 106 -35 29 -6 70 -19 90 -30 19 -11 62 -26 94 -34 77 -19 234 -72
303 -102 30 -13 77 -29 103 -34 27 -6 65 -19 85 -29 21 -10 69 -26 107 -36 39
-9 84 -25 100 -35 17 -10 54 -23 83 -29 29 -6 70 -20 92 -31 22 -11 63 -25 91
-31 28 -6 75 -21 103 -34 28 -12 77 -28 109 -35 32 -6 82 -22 110 -35 29 -13
72 -26 97 -30 25 -4 65 -18 90 -30 25 -12 65 -26 90 -30 25 -4 74 -20 110 -35
36 -15 89 -33 118 -39 29 -6 67 -19 85 -28 18 -9 64 -24 102 -34 39 -9 97 -29
130 -43 33 -14 74 -26 91 -26 17 0 53 -11 79 -25 26 -14 81 -32 121 -40 40 -8
83 -21 96 -29 13 -8 53 -22 90 -31 37 -8 88 -26 115 -39 26 -13 71 -27 98 -31
28 -4 79 -19 115 -35 36 -15 83 -31 105 -35 21 -4 55 -15 76 -25 20 -10 66
-26 103 -34 36 -9 84 -25 106 -36 22 -11 63 -25 92 -31 29 -6 70 -20 90 -30
21 -11 67 -26 102 -34 36 -9 80 -24 98 -35 18 -10 58 -24 88 -31 30 -6 73 -22
95 -34 22 -13 67 -29 100 -35 33 -7 76 -21 96 -31 20 -10 66 -25 103 -33 37
-9 77 -23 89 -31 11 -8 55 -22 96 -31 42 -9 93 -25 113 -35 21 -11 68 -26 104
-35 37 -8 83 -23 103 -33 20 -10 63 -24 96 -31 33 -7 76 -20 96 -30 19 -10 64
-26 99 -35 35 -9 77 -23 92 -31 16 -8 65 -24 110 -35 45 -11 98 -29 119 -39
20 -11 57 -22 81 -26 23 -4 72 -19 108 -34 36 -15 85 -31 110 -35 25 -4 65
-18 90 -30 25 -12 65 -26 89 -30 24 -4 68 -18 98 -31 31 -14 86 -31 124 -39
38 -8 87 -24 109 -35 22 -11 63 -25 92 -31 29 -6 68 -20 87 -30 18 -11 63 -27
99 -35 36 -8 82 -24 103 -35 21 -10 62 -24 91 -30 29 -6 73 -22 98 -34 25 -12
71 -28 104 -35 32 -6 79 -23 104 -36 25 -13 57 -24 72 -24 15 0 49 -12 75 -26
27 -14 80 -32 119 -41 39 -9 87 -24 107 -34 19 -9 64 -25 99 -34 35 -9 80 -25
99 -34 20 -10 65 -24 101 -30 35 -7 81 -22 102 -32 21 -11 68 -26 105 -35 38
-8 78 -22 91 -30 12 -8 59 -24 103 -35 45 -11 91 -26 103 -34 12 -8 52 -21 90
-30 38 -9 85 -24 105 -34 20 -10 63 -24 96 -31 33 -7 80 -23 105 -35 25 -13
65 -26 90 -30 25 -4 62 -16 83 -27 21 -10 74 -28 117 -39 44 -11 94 -28 112
-38 18 -11 51 -23 73 -26 22 -4 69 -20 105 -36 36 -15 89 -31 117 -35 92 -12
87 16 80 -462 -6 -372 -28 -931 -42 -1052 -2 -25 -9 -187 -15 -360 -6 -173
-15 -355 -20 -405 -28 -286 -40 -442 -49 -625 -6 -113 -20 -266 -31 -340 -11
-74 -25 -216 -30 -315 -6 -99 -20 -232 -31 -295 -11 -63 -26 -202 -35 -307 -8
-106 -23 -246 -34 -310 -12 -65 -25 -176 -31 -248 -10 -123 -25 -233 -48 -335
-5 -25 -12 -81 -16 -125 -12 -144 -25 -245 -45 -328 -10 -45 -24 -137 -30
-204 -6 -67 -20 -155 -31 -194 -11 -39 -24 -119 -30 -177 -5 -58 -20 -151 -33
-206 -14 -56 -27 -132 -31 -171 -3 -38 -17 -114 -31 -168 -14 -54 -31 -149
-39 -210 -7 -62 -21 -131 -29 -155 -9 -24 -22 -97 -31 -163 -9 -65 -24 -147
-35 -182 -11 -35 -27 -116 -35 -181 -9 -65 -22 -131 -30 -146 -8 -16 -22 -77
-31 -137 -9 -59 -26 -142 -39 -183 -13 -41 -27 -102 -31 -135 -3 -33 -17 -94
-30 -136 -13 -42 -29 -114 -35 -160 -6 -46 -20 -105 -30 -131 -10 -26 -25 -92
-33 -146 -8 -54 -24 -122 -35 -151 -12 -28 -26 -84 -31 -124 -6 -39 -22 -103
-35 -142 -13 -38 -29 -101 -35 -140 -6 -38 -20 -90 -31 -114 -11 -24 -24 -76
-30 -115 -6 -39 -21 -95 -34 -124 -13 -29 -29 -88 -35 -132 -6 -44 -20 -100
-31 -125 -11 -25 -27 -84 -35 -132 -8 -47 -22 -99 -30 -115 -8 -16 -24 -74
-34 -128 -10 -54 -26 -112 -35 -129 -8 -17 -22 -66 -30 -110 -9 -44 -24 -99
-34 -123 -11 -24 -26 -80 -35 -126 -9 -45 -22 -92 -30 -105 -8 -12 -24 -63
-35 -114 -11 -50 -27 -106 -36 -123 -9 -17 -21 -56 -26 -88 -6 -31 -22 -83
-35 -115 -14 -33 -30 -84 -35 -115 -6 -31 -19 -73 -30 -94 -11 -21 -26 -68
-33 -106 -8 -37 -24 -88 -35 -114 -11 -26 -25 -75 -32 -110 -6 -35 -20 -79
-30 -99 -10 -20 -26 -69 -37 -110 -11 -41 -28 -96 -39 -124 -21 -50 -38 -100
-74 -210 -11 -33 -27 -80 -36 -105 -8 -25 -24 -72 -35 -105 -10 -33 -24 -73
-30 -90 -6 -16 -22 -64 -35 -105 -13 -41 -32 -91 -42 -110 -10 -19 -26 -64
-35 -99 -9 -35 -25 -78 -35 -95 -10 -17 -24 -56 -30 -86 -7 -30 -21 -70 -32
-89 -11 -18 -27 -63 -35 -100 -9 -36 -24 -79 -34 -96 -10 -16 -24 -52 -31 -80
-7 -27 -25 -77 -41 -110 -15 -33 -28 -69 -28 -80 0 -11 -12 -40 -25 -64 -14
-24 -30 -65 -37 -90 -6 -25 -21 -66 -33 -91 -13 -25 -28 -65 -35 -90 -7 -25
-22 -65 -35 -90 -12 -25 -26 -61 -30 -80 -4 -19 -18 -55 -30 -80 -13 -25 -30
-69 -39 -99 -9 -30 -23 -65 -32 -79 -8 -13 -22 -47 -31 -75 -8 -29 -23 -65
-33 -82 -10 -16 -24 -52 -31 -80 -6 -27 -22 -68 -34 -90 -13 -22 -26 -56 -30
-75 -4 -19 -20 -60 -36 -90 -16 -30 -29 -62 -29 -71 0 -10 -13 -42 -30 -74
-16 -31 -35 -75 -41 -97 -6 -23 -22 -58 -35 -77 -13 -20 -24 -43 -24 -52 0 -9
-13 -42 -30 -73 -16 -31 -32 -72 -36 -91 -3 -18 -17 -49 -30 -67 -14 -18 -29
-50 -35 -72 -6 -22 -22 -56 -35 -75 -13 -20 -29 -54 -35 -75 -6 -22 -22 -56
-35 -75 -13 -20 -24 -40 -24 -46 0 -5 -16 -44 -36 -85 -20 -41 -51 -106 -70
-145 -19 -38 -34 -77 -34 -86 0 -8 -11 -30 -25 -49 -13 -18 -31 -57 -40 -85
-8 -29 -21 -58 -29 -64 -8 -7 -23 -36 -32 -64 -9 -29 -25 -64 -36 -79 -10 -15
-24 -42 -30 -60 -6 -18 -19 -45 -30 -60 -10 -15 -25 -45 -33 -68 -8 -23 -26
-62 -39 -88 -14 -26 -44 -87 -66 -137 -23 -49 -57 -121 -76 -160 -19 -38 -34
-74 -34 -78 0 -5 -9 -22 -20 -37 -11 -16 -27 -48 -35 -71 -9 -24 -22 -50 -30
-59 -8 -9 -21 -35 -30 -59 -8 -23 -23 -54 -34 -67 -11 -14 -27 -47 -36 -73 -9
-27 -24 -56 -35 -66 -10 -9 -22 -30 -25 -45 -3 -15 -19 -48 -34 -72 -16 -25
-32 -56 -36 -69 -4 -13 -15 -35 -25 -49 -9 -14 -30 -50 -45 -80 -39 -77 -91
-174 -130 -245 -19 -33 -41 -76 -49 -95 -9 -19 -23 -46 -31 -60 -8 -14 -28
-52 -45 -85 -17 -33 -48 -89 -70 -125 -21 -36 -51 -87 -65 -115 -14 -27 -41
-77 -60 -110 -19 -33 -47 -85 -64 -115 -16 -30 -47 -89 -70 -130 -22 -41 -51
-98 -65 -127 -14 -28 -30 -54 -36 -58 -6 -4 -22 -30 -36 -58 -13 -29 -40 -77
-59 -107 -19 -30 -44 -73 -56 -95 -12 -22 -34 -58 -49 -80 -40 -58 -67 -104
-90 -152 -11 -23 -25 -45 -30 -48 -6 -4 -22 -30 -36 -58 -15 -28 -34 -62 -44
-77 -10 -14 -40 -62 -66 -107 -86 -145 -118 -199 -141 -234 -12 -19 -33 -54
-48 -79 -34 -57 -61 -100 -107 -169 -21 -31 -44 -69 -52 -86 -8 -16 -27 -47
-43 -67 -15 -20 -41 -60 -58 -88 -16 -28 -52 -85 -80 -126 -101 -152 -126
-190 -143 -218 -9 -16 -26 -40 -38 -55 -12 -14 -29 -42 -39 -61 -10 -19 -28
-48 -41 -63 -13 -16 -24 -33 -24 -39 0 -6 -12 -24 -26 -42 -14 -17 -44 -60
-66 -96 -23 -36 -53 -79 -67 -96 -14 -17 -34 -44 -44 -60 -21 -35 -78 -121
-132 -199 -22 -32 -47 -68 -55 -80 -8 -12 -23 -33 -33 -46 -10 -13 -25 -36
-35 -50 -9 -14 -35 -52 -57 -84 -22 -31 -51 -75 -65 -96 -37 -56 -96 -140
-119 -169 -12 -14 -21 -28 -21 -32 0 -4 -16 -29 -35 -55 -19 -27 -46 -64 -60
-83 -14 -19 -37 -51 -50 -70 -89 -129 -110 -158 -192 -262 -23 -29 -70 -90
-105 -135 -35 -45 -90 -116 -123 -159 -63 -81 -117 -154 -160 -216 -14 -21
-29 -38 -34 -38 -4 0 -13 -12 -20 -27 -7 -15 -23 -40 -37 -57 -24 -30 -129
-166 -195 -251 -85 -112 -172 -223 -197 -251 -15 -18 -45 -55 -67 -84 -22 -29
-68 -85 -101 -124 -104 -120 -197 -233 -234 -282 -40 -54 -180 -223 -325 -393
-55 -65 -116 -138 -135 -161 -19 -24 -47 -57 -62 -74 -14 -17 -74 -87 -133
-156 -199 -232 -239 -277 -476 -530 -69 -74 -149 -162 -179 -195 -46 -53 -187
-202 -439 -467 -47 -50 -82 -78 -95 -78 -12 1 -46 14 -76 30 -30 17 -64 30
-76 30 -12 0 -48 13 -80 30 -32 16 -79 32 -104 36 -25 3 -64 17 -87 30 -23 13
-65 29 -95 35 -29 6 -77 25 -107 40 -30 16 -66 29 -81 29 -15 0 -52 13 -82 29
-30 16 -72 33 -94 36 -21 4 -58 18 -81 31 -23 13 -65 29 -95 35 -29 6 -64 20
-78 29 -14 10 -54 26 -88 34 -34 9 -83 28 -108 41 -26 14 -57 25 -69 25 -12 0
-43 11 -69 25 -25 13 -74 32 -108 41 -34 8 -74 24 -89 34 -14 11 -47 24 -73
30 -26 6 -69 21 -94 34 -26 13 -68 28 -94 35 -26 6 -62 20 -80 30 -18 11 -62
27 -97 36 -35 9 -79 25 -99 35 -19 11 -60 24 -91 31 -31 6 -68 20 -82 30 -14
10 -48 23 -75 30 -27 7 -70 22 -95 35 -26 13 -68 28 -95 35 -27 7 -67 22 -89
34 -22 12 -62 28 -89 34 -27 7 -62 21 -76 31 -15 11 -48 24 -74 30 -26 6 -69
21 -94 34 -26 13 -68 29 -92 36 -25 6 -60 20 -78 31 -18 10 -54 24 -80 30 -26
7 -67 22 -92 34 -25 12 -67 27 -94 34 -27 7 -68 23 -90 35 -23 13 -59 27 -80
31 -22 3 -64 20 -94 36 -30 16 -65 29 -77 29 -12 0 -44 11 -71 25 -27 14 -75
32 -106 40 -32 9 -73 25 -93 36 -19 11 -64 27 -99 34 -36 8 -76 21 -90 30 -13
9 -53 23 -87 31 -34 8 -74 23 -89 34 -15 10 -48 24 -74 30 -26 6 -69 21 -94
34 -26 13 -69 29 -97 35 -27 7 -64 21 -82 32 -17 11 -55 26 -85 34 -29 8 -75
26 -102 40 -27 14 -59 25 -71 25 -12 0 -46 13 -76 28 -30 16 -75 34 -101 40
-26 7 -68 23 -94 37 -26 14 -57 25 -69 25 -13 0 -47 13 -77 29 -30 15 -72 31
-94 35 -21 4 -59 18 -84 30 -25 13 -74 31 -110 40 -35 9 -71 23 -80 31 -9 8
-42 21 -74 29 -32 9 -74 25 -94 36 -19 11 -57 26 -86 32 -28 6 -69 21 -91 33
-22 12 -62 28 -89 34 -27 7 -68 23 -90 35 -23 13 -59 27 -81 31 -22 4 -64 20
-95 36 -30 16 -64 29 -75 29 -11 0 -47 13 -80 28 -33 16 -82 34 -109 41 -27 6
-69 22 -95 35 -25 13 -62 27 -81 31 -19 4 -53 17 -75 30 -22 13 -58 26 -80 30
-22 4 -65 20 -95 35 -30 15 -75 31 -100 35 -24 4 -69 20 -100 35 -30 15 -73
31 -95 35 -22 4 -58 17 -80 30 -22 12 -58 26 -80 30 -22 3 -58 17 -80 29 -22
13 -64 29 -93 36 -30 7 -73 23 -95 35 -23 13 -62 29 -87 35 -25 7 -58 20 -75
30 -16 10 -48 22 -70 25 -22 4 -71 23 -109 41 -39 19 -77 34 -85 34 -9 0 -43
14 -76 30 -33 16 -67 30 -75 30 -8 0 -42 13 -75 28 -33 16 -82 34 -109 41 -27
7 -68 23 -90 35 -23 13 -59 27 -81 31 -22 4 -67 20 -100 36 -33 16 -69 29 -81
29 -12 0 -46 13 -76 29 -30 15 -72 31 -94 35 -21 5 -66 21 -99 36 -33 16 -78
32 -100 36 -22 4 -58 17 -80 29 -22 13 -63 28 -91 34 -28 5 -73 22 -99 36 -27
14 -58 25 -70 25 -12 0 -46 13 -76 29 -30 15 -78 34 -108 40 -30 6 -68 20 -85
30 -17 11 -60 26 -95 35 -35 9 -78 25 -95 35 -17 10 -53 24 -80 30 -27 7 -70
23 -95 36 -26 13 -65 26 -87 30 -21 4 -58 18 -81 31 -23 13 -65 29 -95 35 -29
6 -73 22 -98 35 -25 13 -52 24 -60 24 -8 0 -43 13 -78 30 -35 16 -89 37 -119
46 -31 9 -70 24 -87 34 -17 10 -49 21 -70 25 -22 3 -64 20 -94 36 -30 16 -64
29 -76 29 -12 0 -48 13 -82 29 -33 16 -85 34 -114 40 -30 6 -67 20 -84 31 -17
10 -53 24 -81 30 -27 7 -68 23 -90 35 -22 12 -62 27 -88 34 -27 6 -70 23 -95
36 -26 13 -65 27 -86 31 -22 4 -64 20 -94 35 -30 16 -64 29 -76 29 -11 0 -48
13 -81 28 -33 16 -78 32 -100 36 -22 4 -60 18 -84 32 -24 13 -72 31 -106 39
-34 8 -78 23 -96 34 -19 10 -58 24 -88 30 -29 6 -65 20 -80 30 -14 10 -52 26
-83 35 -32 9 -79 28 -104 41 -26 14 -59 25 -74 25 -15 0 -44 11 -64 25 -20 14
-58 30 -84 36 -26 6 -65 22 -87 34 -22 12 -62 27 -89 34 -27 7 -68 23 -90 36
-23 13 -59 27 -81 31 -22 4 -60 17 -85 29 -25 12 -72 30 -105 40 -33 9 -67 23
-75 30 -8 7 -44 21 -79 30 -36 9 -81 25 -101 35 -20 10 -65 26 -100 35 -35 9
-76 25 -91 35 -14 11 -48 24 -75 30 -26 6 -62 19 -79 30 -16 10 -59 26 -95 35
-35 9 -76 25 -91 36 -15 10 -51 24 -80 30 -30 6 -69 20 -87 31 -18 11 -59 26
-91 34 -32 7 -80 25 -106 39 -26 14 -57 25 -68 25 -11 0 -54 16 -97 35 -43 19
-86 35 -97 35 -11 0 -44 13 -74 29 -30 15 -72 31 -94 35 -22 4 -58 18 -80 31
-22 13 -58 27 -80 30 -22 4 -59 18 -82 31 -23 13 -68 30 -100 37 -32 8 -77 24
-99 35 -23 12 -63 26 -90 33 -27 7 -67 23 -90 35 -22 13 -49 24 -59 24 -9 0
-52 16 -95 35 -43 19 -86 35 -97 35 -11 0 -44 13 -74 29 -30 15 -70 32 -89 36
-19 4 -55 18 -80 31 -25 13 -67 28 -95 34 -27 6 -68 21 -90 34 -22 13 -62 28
-89 35 -27 7 -61 20 -75 30 -14 10 -55 26 -90 35 -34 9 -75 24 -90 35 -14 10
-48 23 -76 30 -27 7 -64 21 -80 31 -17 11 -53 24 -80 30 -26 6 -76 24 -109 40
-33 17 -68 30 -77 30 -9 0 -42 14 -73 30 -31 17 -80 35 -109 40 -28 6 -55 14
-60 19 -18 18 2 57 38 74 19 9 35 20 35 25 0 4 42 44 92 88 188 160 344 297
363 318 11 11 59 54 105 95 47 41 94 84 105 96 11 12 97 89 190 170 94 82 211
188 260 235 50 48 107 102 127 121 149 139 447 430 763 744 360 359 594 602
764 793 45 50 137 149 204 220 67 70 155 165 196 212 40 47 83 94 95 105 25
23 341 384 401 460 22 27 57 67 79 90 21 22 50 55 65 74 14 19 35 44 46 56 11
12 67 79 125 149 58 70 134 163 170 205 36 43 79 95 95 116 37 48 94 118 134
165 83 98 148 177 161 196 8 12 35 47 60 79 25 32 56 73 70 91 14 18 45 58 70
90 25 31 68 88 97 126 28 37 60 78 72 91 25 27 74 89 121 152 19 26 49 63 65
83 17 21 37 47 45 58 13 19 102 135 197 257 18 23 44 58 58 77 14 19 43 60 65
90 22 30 48 68 57 84 10 16 26 37 35 47 10 10 28 33 40 52 58 86 87 128 143
203 33 45 80 109 105 143 25 34 58 78 73 99 29 39 83 116 129 185 15 22 32 43
37 46 10 7 77 104 96 141 7 14 24 37 36 52 13 15 42 57 64 93 22 37 49 79 61
93 12 15 29 43 39 62 10 19 31 50 46 68 16 18 29 38 29 43 0 6 12 25 26 43 14
17 72 103 129 191 57 88 115 174 129 191 14 17 30 42 35 55 9 25 66 116 101
161 11 15 27 42 34 60 8 18 24 42 35 52 12 11 21 24 21 30 0 6 23 47 50 91 28
44 58 93 68 109 9 15 35 56 57 91 22 34 51 81 65 104 14 23 35 57 47 74 12 18
36 57 53 87 17 30 46 80 65 110 19 30 46 78 59 105 13 28 31 56 39 63 8 7 21
27 28 45 7 18 22 46 33 62 12 17 31 50 44 75 12 25 39 72 59 105 46 75 95 165
127 232 14 28 30 54 35 58 6 3 21 27 34 53 13 26 43 81 67 122 85 150 99 176
129 236 16 34 34 64 39 68 6 3 16 23 23 44 6 20 21 50 33 67 11 16 33 52 47
80 14 27 41 77 59 110 18 33 61 114 95 180 34 66 69 134 77 150 9 17 24 46 33
65 9 19 34 67 55 105 22 39 47 86 55 105 8 19 22 46 30 60 8 14 24 45 35 70
12 25 28 56 36 70 8 14 22 41 30 60 21 49 83 180 101 210 8 14 23 45 34 70 32
71 80 173 92 195 41 74 101 196 113 228 7 21 23 51 34 67 12 16 27 51 35 78 8
27 22 55 30 62 7 6 19 28 26 48 6 20 24 60 39 87 15 28 30 63 34 78 4 16 18
45 31 65 13 20 30 53 36 72 7 19 20 46 29 60 10 14 23 42 30 64 7 21 25 63 41
93 16 30 29 61 29 69 0 8 13 38 29 67 16 28 34 70 41 92 7 22 21 51 30 65 10
14 26 51 35 83 9 31 20 59 25 62 5 3 18 34 29 68 10 34 28 78 39 97 11 19 26
55 32 80 7 25 20 61 31 80 10 19 30 67 43 105 27 81 57 155 97 242 16 34 29
67 29 74 0 7 13 42 29 78 49 114 73 174 97 242 12 37 31 84 42 105 10 22 25
62 31 89 7 28 20 64 30 80 9 17 23 53 30 80 7 28 21 65 32 83 10 18 24 54 30
80 7 26 24 72 39 102 15 30 32 78 39 105 7 28 18 59 25 70 7 11 21 47 30 80
10 33 26 74 37 91 10 17 25 60 32 95 8 35 23 82 35 104 11 23 23 59 27 80 4
22 20 70 36 107 16 36 29 74 29 82 0 9 15 56 34 104 18 48 37 105 41 127 3 21
15 56 26 77 11 21 26 68 35 104 8 37 24 84 35 105 10 21 24 62 30 91 6 29 20
70 30 90 11 21 26 70 34 109 9 40 25 93 36 118 11 25 25 68 30 96 5 27 20 76
33 110 14 33 29 86 35 117 5 31 19 74 29 95 11 21 25 65 32 98 7 33 23 85 36
116 13 31 28 83 33 117 5 33 18 77 29 98 11 22 27 76 35 120 9 45 24 99 35
120 11 22 25 73 32 114 7 41 22 100 35 130 12 30 26 78 30 105 4 28 18 78 31
112 14 34 29 87 34 117 5 30 23 95 39 144 17 49 31 102 31 116 0 15 12 62 26
104 14 42 30 104 35 137 6 33 21 95 34 138 14 43 30 110 36 149 6 39 19 91 30
115 10 24 25 85 34 136 8 51 24 120 35 155 11 34 25 104 31 155 6 51 21 126
34 167 12 41 26 104 30 140 3 36 17 103 30 150 13 47 29 125 36 174 6 50 20
115 31 145 10 31 26 103 34 161 8 57 24 133 34 169 11 35 25 107 31 160 13
119 25 184 44 236 7 22 19 85 25 140 6 55 21 141 35 190 13 50 26 126 30 170
4 44 15 116 25 160 11 44 26 136 35 205 9 69 25 163 36 210 10 47 25 144 34
215 9 72 22 164 30 205 8 41 22 143 30 225 13 133 23 198 55 365 5 25 12 95
15 155 4 61 17 175 30 255 13 80 29 215 35 300 7 85 18 193 26 240 8 47 23
191 34 320 11 129 27 292 36 362 9 69 13 131 9 137 -10 17 4 49 23 54 23 6 50
-2 97 -28z m21749 -2504 c3 -4 6 -4083 6 -9062 l0 -9054 -37 2 c-21 2 -49 12
-63 23 -14 11 -52 34 -85 50 -64 33 -88 46 -177 97 -31 18 -63 33 -71 33 -9 0
-28 11 -44 24 -15 13 -48 33 -73 45 -25 12 -75 39 -112 59 -37 20 -94 52 -127
69 -33 18 -62 37 -65 42 -4 5 -23 15 -44 22 -20 6 -50 22 -65 35 -15 13 -45
28 -66 34 -21 5 -46 19 -56 30 -10 11 -35 25 -55 30 -21 6 -54 23 -74 39 -20
16 -50 32 -66 36 -16 3 -34 13 -42 22 -7 9 -32 24 -57 35 -24 10 -57 30 -73
43 -16 14 -37 25 -46 25 -9 0 -33 10 -52 22 -40 26 -131 74 -209 113 -30 14
-66 35 -79 46 -14 10 -32 19 -42 19 -9 0 -35 13 -58 30 -22 16 -54 32 -69 36
-15 4 -43 18 -61 31 -18 14 -49 29 -67 34 -19 6 -47 20 -62 33 -15 13 -45 29
-65 35 -21 7 -41 17 -44 23 -4 5 -34 23 -68 40 -85 41 -156 80 -186 100 -14
10 -41 23 -60 29 -19 7 -44 20 -55 30 -11 10 -38 25 -60 34 -21 9 -53 27 -69
40 -17 12 -42 26 -56 30 -14 4 -38 18 -55 30 -16 12 -46 28 -66 34 -20 7 -44
20 -54 31 -10 11 -34 24 -54 31 -20 6 -49 21 -66 34 -16 12 -50 32 -75 44 -25
12 -76 39 -115 61 -38 21 -93 50 -122 64 -28 14 -54 29 -57 35 -4 5 -28 17
-55 26 -27 9 -56 24 -66 35 -10 11 -34 25 -54 31 -20 7 -49 22 -66 34 -16 12
-51 30 -77 39 -26 10 -51 22 -54 28 -3 5 -27 19 -53 30 -25 10 -55 28 -66 38
-11 10 -38 23 -60 29 -22 6 -60 25 -84 41 -24 17 -50 30 -57 30 -7 0 -25 11
-41 24 -16 14 -41 28 -55 31 -15 4 -50 22 -79 41 -29 19 -58 34 -63 34 -5 0
-24 12 -43 26 -19 14 -50 30 -68 35 -19 6 -47 20 -62 33 -15 13 -44 28 -64 35
-20 6 -44 20 -54 31 -10 11 -34 24 -54 31 -20 6 -45 20 -56 30 -11 10 -42 27
-70 39 -27 12 -57 28 -65 35 -9 8 -35 21 -59 30 -24 8 -56 26 -73 40 -16 14
-35 25 -42 25 -7 0 -31 12 -52 26 -21 15 -52 31 -69 37 -16 5 -45 21 -63 34
-17 13 -47 29 -65 35 -17 6 -45 21 -62 32 -16 12 -51 30 -77 40 -26 10 -51 22
-54 27 -3 6 -29 21 -57 35 -29 13 -63 31 -77 39 -14 8 -45 24 -70 35 -60 28
-137 70 -180 97 -19 13 -43 23 -52 23 -10 0 -28 10 -39 21 -18 18 -20 29 -15
67 3 25 17 70 31 100 14 29 30 84 36 120 7 37 22 91 35 121 13 29 29 83 34
118 6 36 19 82 30 103 11 21 28 79 39 128 11 50 27 104 35 120 8 16 20 60 26
97 6 37 21 93 34 124 13 31 27 80 31 109 4 30 18 80 30 111 13 32 29 89 36
127 6 38 22 96 34 130 13 34 28 94 34 133 6 40 20 89 30 109 10 20 24 69 31
107 7 39 23 101 36 139 13 37 28 96 34 130 6 33 21 93 34 131 13 39 27 97 31
130 4 32 16 82 27 109 11 28 28 95 37 151 10 55 26 118 35 139 9 22 23 83 32
135 8 53 24 120 34 148 11 29 24 83 30 120 6 38 19 95 30 128 11 33 27 104 35
159 9 54 25 121 36 150 11 28 24 86 30 129 5 43 21 113 34 155 13 42 28 115
34 162 6 47 20 114 31 149 11 35 25 107 31 160 5 53 20 132 31 176 11 44 25
112 30 150 13 103 26 173 43 235 9 30 22 111 30 180 8 69 24 154 36 190 11 36
25 117 30 180 6 63 21 160 34 215 13 55 29 154 34 220 6 66 17 140 25 165 8
25 19 88 26 140 31 242 42 319 55 365 8 28 17 100 20 160 4 61 18 165 31 233
13 67 29 180 34 250 6 70 18 168 26 217 29 171 33 201 44 360 6 88 19 210 30
270 10 61 24 184 30 275 12 179 21 270 44 425 8 55 20 206 26 335 6 129 15
277 20 328 6 50 14 134 20 185 5 50 16 243 25 427 9 184 22 418 30 520 20 251
34 653 41 1213 l6 468 25 30 c14 17 46 41 72 55 25 13 57 32 71 43 29 22 107
68 159 95 20 10 49 29 64 42 16 13 34 24 40 24 7 0 34 16 61 35 27 19 55 35
61 35 7 0 20 9 29 19 10 11 41 31 70 44 28 14 58 32 65 41 7 9 19 16 26 16 8
0 34 16 59 35 26 19 50 35 55 35 5 0 32 16 60 35 28 19 53 35 56 35 5 0 52 30
137 87 18 12 52 31 74 42 23 11 45 25 49 31 4 6 28 20 52 31 25 11 59 31 75
44 16 14 36 25 43 25 7 0 27 11 43 25 17 14 45 32 64 41 18 8 47 25 64 37 32
22 55 37 149 92 87 51 116 69 149 92 17 13 49 31 71 41 22 11 46 26 53 35 7 8
27 21 44 28 18 7 53 27 79 44 60 39 104 66 148 88 20 11 45 27 56 37 11 10 37
25 58 34 22 9 52 27 69 41 16 14 35 25 42 25 7 0 30 13 51 30 20 16 45 32 56
35 20 7 106 61 151 95 15 11 42 27 60 36 18 8 47 25 64 37 33 23 68 45 139 87
23 14 64 38 91 54 27 16 58 37 69 47 11 10 41 27 66 37 26 11 50 26 54 32 4 6
26 20 49 31 38 18 57 30 139 86 18 12 52 33 77 46 25 13 63 35 84 50 21 15 43
27 48 27 6 0 22 9 36 20 45 35 136 92 161 101 13 5 44 24 70 41 25 17 59 40
75 51 49 34 110 67 123 67 6 0 14 -4 17 -9z m-6655 -16691 c19 -5 50 -20 70
-34 20 -13 47 -27 61 -31 14 -4 40 -18 58 -32 17 -13 47 -29 65 -35 17 -6 41
-19 52 -29 11 -10 43 -27 70 -39 28 -12 57 -28 65 -35 9 -8 36 -21 60 -30 25
-9 54 -24 65 -34 11 -10 36 -23 55 -30 19 -6 46 -19 60 -29 14 -9 48 -29 75
-43 28 -14 77 -41 110 -59 107 -58 189 -102 240 -128 28 -13 61 -33 75 -42 14
-10 36 -21 50 -25 14 -4 45 -20 70 -35 25 -15 56 -31 70 -35 14 -4 39 -18 55
-30 17 -12 45 -27 62 -33 18 -6 48 -22 65 -35 18 -14 50 -30 70 -36 21 -7 41
-17 44 -23 4 -6 32 -21 62 -35 31 -13 69 -35 85 -49 16 -13 33 -24 39 -24 6 0
32 -13 57 -29 25 -16 57 -32 71 -36 14 -4 43 -20 64 -36 22 -16 44 -29 50 -29
5 0 30 -13 55 -29 25 -16 58 -31 73 -35 14 -3 40 -17 56 -31 17 -14 45 -31 64
-37 18 -6 40 -17 48 -24 9 -7 38 -23 65 -35 28 -12 57 -27 65 -34 8 -7 65 -38
125 -70 61 -31 117 -63 125 -70 8 -7 26 -16 40 -20 14 -4 50 -22 80 -39 97
-56 114 -65 160 -87 25 -12 59 -32 76 -45 17 -12 43 -26 57 -29 14 -4 49 -22
78 -41 29 -19 58 -34 64 -34 6 0 26 -11 45 -25 18 -13 49 -30 69 -36 20 -7 50
-22 66 -34 17 -13 46 -28 66 -34 20 -7 44 -20 54 -30 9 -11 29 -22 43 -26 15
-3 45 -19 67 -34 22 -16 51 -32 64 -36 14 -4 42 -20 64 -36 22 -16 48 -29 57
-29 10 0 34 -13 54 -29 21 -17 54 -35 74 -42 20 -6 48 -20 62 -29 14 -10 43
-25 65 -34 22 -9 49 -25 60 -35 11 -10 31 -22 45 -26 22 -7 57 -25 165 -89 17
-9 50 -27 75 -38 25 -12 59 -31 75 -43 17 -12 42 -25 57 -29 14 -3 39 -17 55
-30 15 -13 45 -29 66 -35 21 -7 50 -23 65 -35 15 -13 44 -28 64 -35 20 -7 41
-18 48 -25 6 -8 34 -24 63 -36 29 -12 61 -30 72 -39 11 -10 36 -24 55 -31 19
-7 42 -19 50 -26 15 -12 96 -57 175 -96 22 -11 54 -30 70 -43 17 -12 42 -25
57 -28 14 -4 40 -18 56 -32 17 -14 48 -31 69 -39 29 -10 39 -19 41 -39 3 -23
-4 -30 -50 -53 -29 -15 -66 -37 -81 -50 -16 -13 -35 -24 -42 -24 -7 0 -27 -11
-43 -25 -17 -14 -45 -32 -64 -41 -18 -8 -47 -25 -64 -37 -33 -23 -67 -44 -139
-87 -23 -14 -53 -32 -66 -41 -13 -9 -59 -36 -102 -60 -44 -24 -93 -56 -110
-70 -18 -15 -43 -30 -57 -34 -13 -4 -47 -23 -73 -41 -27 -19 -55 -34 -62 -34
-6 0 -20 -9 -29 -19 -10 -11 -32 -25 -49 -32 -18 -7 -45 -23 -61 -36 -15 -13
-44 -30 -63 -38 -19 -8 -48 -26 -65 -40 -16 -14 -34 -25 -39 -25 -5 0 -31 -15
-58 -32 -48 -33 -91 -60 -140 -88 -14 -8 -42 -27 -62 -43 -20 -15 -40 -27 -46
-27 -6 0 -27 -12 -46 -27 -20 -16 -66 -46 -103 -68 -36 -22 -78 -50 -92 -61
-15 -12 -50 -33 -78 -47 -27 -14 -56 -33 -63 -41 -8 -9 -19 -16 -26 -16 -8 0
-27 -11 -43 -25 -17 -14 -50 -34 -75 -45 -24 -11 -50 -27 -57 -35 -7 -8 -32
-24 -55 -34 -23 -10 -46 -24 -50 -30 -4 -7 -31 -23 -60 -35 -29 -13 -55 -29
-59 -35 -4 -6 -26 -20 -49 -31 -23 -11 -56 -30 -73 -43 -18 -12 -47 -31 -65
-42 -19 -11 -52 -31 -75 -45 -24 -14 -53 -32 -66 -41 -13 -9 -57 -35 -98 -59
-41 -23 -86 -51 -100 -60 -14 -10 -45 -27 -68 -39 -23 -12 -42 -25 -42 -29 0
-5 -22 -19 -50 -32 -27 -13 -57 -32 -67 -42 -9 -10 -22 -18 -28 -18 -7 0 -39
-18 -71 -40 -33 -22 -64 -40 -70 -40 -6 0 -19 -9 -30 -21 -10 -12 -39 -32 -64
-46 -80 -44 -136 -78 -165 -100 -15 -13 -32 -23 -38 -23 -6 0 -26 -12 -46 -27
-20 -16 -52 -36 -71 -46 -19 -9 -49 -27 -66 -40 -38 -27 -85 -55 -133 -81 -20
-10 -49 -29 -64 -42 -16 -13 -35 -24 -42 -24 -7 0 -27 -11 -43 -25 -17 -14
-47 -32 -69 -41 -21 -9 -46 -23 -56 -32 -22 -19 -90 -60 -162 -97 -27 -14 -64
-36 -82 -48 -17 -12 -55 -35 -83 -52 -29 -16 -73 -44 -98 -61 -26 -17 -58 -37
-73 -45 -44 -25 -90 -53 -123 -76 -17 -13 -54 -34 -83 -47 -28 -14 -54 -30
-58 -37 -4 -6 -27 -20 -50 -30 -23 -10 -48 -26 -56 -35 -7 -8 -34 -26 -60 -40
-26 -13 -50 -28 -54 -34 -3 -6 -22 -17 -42 -25 -19 -8 -48 -26 -65 -40 -16
-14 -36 -25 -43 -25 -8 0 -29 -12 -47 -28 -18 -15 -49 -35 -68 -45 -19 -10
-49 -27 -66 -40 -18 -12 -45 -30 -60 -39 -39 -24 -61 -37 -119 -74 -27 -17
-61 -38 -76 -45 -39 -21 -87 -51 -140 -86 -27 -18 -52 -33 -57 -33 -5 0 -31
-16 -58 -35 -27 -19 -53 -35 -59 -35 -6 0 -32 -16 -59 -35 -27 -19 -55 -35
-62 -35 -7 0 -25 -11 -41 -24 -15 -13 -44 -31 -63 -40 -19 -9 -49 -26 -66 -39
-31 -22 -49 -32 -150 -92 -80 -47 -114 -68 -148 -92 -17 -13 -45 -29 -62 -37
-17 -8 -37 -22 -45 -32 -7 -9 -32 -25 -54 -36 -38 -17 -60 -31 -138 -85 -18
-13 -50 -31 -72 -41 -22 -11 -46 -26 -53 -35 -7 -8 -27 -21 -45 -28 -18 -7
-48 -25 -67 -41 -19 -15 -40 -28 -46 -28 -6 0 -29 -13 -51 -29 -22 -16 -50
-32 -64 -36 -13 -4 -39 -21 -57 -36 -18 -16 -38 -29 -46 -29 -7 0 -35 -16 -62
-35 -27 -19 -54 -35 -61 -35 -6 0 -24 -11 -40 -24 -15 -13 -44 -32 -64 -42
-48 -26 -95 -55 -133 -81 -17 -13 -51 -33 -76 -44 -25 -12 -52 -28 -61 -35 -8
-8 -33 -24 -55 -36 -68 -39 -105 -62 -138 -85 -17 -13 -50 -33 -73 -45 -24
-12 -43 -26 -43 -30 0 -5 -25 -20 -55 -34 -30 -14 -59 -32 -66 -40 -6 -8 -30
-23 -53 -34 -22 -11 -55 -30 -73 -43 -17 -12 -55 -35 -83 -52 -29 -16 -74 -45
-101 -62 -27 -18 -52 -33 -57 -33 -5 0 -26 -13 -48 -30 -21 -16 -44 -30 -50
-30 -6 0 -31 -16 -55 -35 -24 -19 -49 -35 -56 -35 -6 0 -25 -11 -41 -25 -17
-14 -46 -32 -64 -40 -19 -7 -41 -21 -49 -31 -7 -9 -33 -25 -58 -36 -24 -10
-57 -30 -73 -43 -16 -14 -36 -25 -43 -25 -7 0 -27 -11 -43 -25 -17 -14 -45
-32 -64 -39 -18 -8 -48 -26 -67 -40 -19 -14 -40 -26 -47 -26 -7 0 -26 -11 -42
-25 -17 -14 -47 -32 -69 -41 -21 -9 -47 -24 -58 -34 -11 -11 -36 -26 -56 -34
-20 -8 -41 -21 -48 -29 -6 -8 -26 -21 -44 -28 -18 -7 -48 -25 -67 -41 -19 -15
-39 -28 -44 -28 -9 0 -58 -31 -163 -102 -23 -15 -45 -28 -49 -28 -4 0 -23 -12
-43 -27 -35 -28 -88 -61 -166 -104 -22 -12 -53 -32 -68 -45 -16 -13 -34 -24
-41 -24 -7 0 -30 -13 -51 -30 -20 -16 -46 -32 -58 -36 -12 -4 -42 -21 -68 -38
-51 -34 -92 -59 -153 -94 -23 -13 -52 -34 -66 -47 -14 -13 -38 -29 -54 -35
-28 -10 -28 -10 -21 17 3 16 20 42 36 58 16 17 29 36 29 43 0 6 13 26 29 44
15 18 36 47 45 65 9 18 22 36 30 40 7 4 19 19 26 33 7 14 22 35 33 48 11 12
30 37 41 56 46 75 80 122 98 134 10 7 18 19 18 25 0 12 46 79 102 151 13 16
32 44 43 62 11 17 38 58 60 90 22 31 47 67 55 80 9 12 27 37 40 54 14 18 34
47 45 65 11 19 42 64 68 102 71 101 149 219 177 267 14 23 35 56 48 72 41 52
71 98 88 134 9 19 29 50 45 68 16 18 29 37 29 43 0 5 15 31 33 58 17 27 40 61
49 77 18 29 64 100 118 184 16 25 43 68 60 95 17 28 44 70 60 95 16 25 42 67
57 93 16 27 39 64 53 82 14 19 39 57 55 85 17 28 40 66 52 83 13 18 32 50 43
73 11 22 28 51 38 65 11 13 29 42 41 64 12 22 40 69 61 105 61 104 102 173
119 205 10 17 32 52 49 79 18 28 32 55 32 62 0 6 7 17 16 25 9 7 29 38 45 68
16 31 48 85 70 121 22 36 47 81 55 100 9 19 24 44 34 55 11 11 26 38 36 60 9
22 22 47 30 56 8 9 28 42 44 75 17 32 44 84 62 114 17 30 41 74 53 97 12 23
31 54 42 70 11 15 30 48 42 73 12 25 38 72 56 105 19 33 48 87 66 120 17 33
48 92 69 130 21 39 50 93 64 120 13 28 31 61 40 75 8 14 23 43 34 65 10 22 50
99 88 170 37 72 79 153 94 181 14 28 31 58 37 66 7 8 19 34 27 57 9 23 26 56
39 74 14 17 30 49 36 69 7 20 20 47 30 60 10 13 24 41 31 62 7 22 26 60 41 85
16 25 29 50 29 57 0 6 11 27 24 46 13 20 29 52 36 73 7 21 25 59 41 83 15 24
31 57 34 72 3 16 13 34 20 40 8 7 24 37 35 68 12 30 30 68 41 83 11 15 26 47
34 70 9 24 22 50 29 59 8 8 21 37 30 63 9 27 27 65 41 85 14 20 25 41 25 47 0
5 15 42 34 80 57 117 93 198 110 247 10 25 23 52 31 58 7 6 17 26 20 43 7 33
54 139 106 239 16 31 29 62 29 68 0 10 30 78 100 225 16 33 32 74 36 90 4 17
15 42 26 57 10 15 27 51 37 81 10 30 26 68 35 85 9 17 23 52 32 79 9 26 24 59
33 73 10 14 23 45 30 70 7 25 19 55 28 68 15 24 57 121 99 227 12 33 34 82 48
109 15 27 26 57 26 65 0 9 11 35 25 59 13 24 30 62 36 85 6 23 23 65 39 92 15
28 30 67 33 87 3 20 15 49 26 65 11 15 25 49 30 74 6 25 24 75 41 110 16 35
30 72 30 82 0 10 13 43 29 75 15 31 33 78 40 104 6 26 20 62 30 80 11 18 25
56 32 83 6 28 22 68 34 90 12 22 26 56 30 75 4 19 18 52 31 72 13 21 24 42 24
48 0 6 7 26 14 45 16 38 29 41 85 25z"/>
  </g>
</svg>