<svg xmlns="http://www.w3.org/2000/svg" viewBox="0 0 4096.000000 4096.000000">
  <g transform="translate(0.000000,4096.000000) scale(0.100000,-0.100000)" fill="#f4f5f7" stroke="none">
    <path d="M0 20480 l0 -20480 20480 0 20480 0 0 20480 0 20480 -20480 0 -20480
0 0 -20480z m34160 18402 c257 -18 495 -53 770 -113 52 -12 123 -30 158 -40
34 -10 71 -19 81 -19 21 0 287 -83 339 -106 18 -8 38 -14 45 -14 7 -1 30 -9
52 -20 22 -11 47 -20 55 -20 8 0 29 -9 45 -20 17 -11 36 -20 44 -20 8 0 35 -9
60 -21 25 -12 64 -29 86 -39 50 -23 154 -73 180 -87 11 -6 43 -23 70 -36 57
-29 97 -51 224 -124 50 -29 93 -53 95 -53 5 0 173 -113 236 -158 123 -89 169
-124 268 -202 287 -226 475 -409 762 -741 103 -118 258 -336 405 -569 12 -19
38 -60 57 -90 20 -30 54 -89 77 -130 23 -41 46 -82 52 -90 5 -8 14 -26 20 -40
6 -14 15 -32 20 -40 24 -43 97 -201 129 -280 12 -30 30 -73 40 -95 10 -22 23
-55 29 -72 6 -18 16 -48 22 -65 6 -18 17 -46 24 -63 7 -16 25 -70 40 -120 14
-49 31 -103 37 -120 6 -16 15 -48 20 -70 5 -22 18 -69 29 -105 11 -36 19 -75
19 -88 0 -12 9 -48 20 -79 11 -32 20 -73 20 -93 0 -19 9 -67 20 -105 11 -38
20 -88 20 -110 1 -22 7 -69 15 -105 45 -196 43 294 46 -14035 3 -10780 1
-13569 -9 -13720 -18 -260 -45 -452 -101 -707 -6 -27 -16 -69 -22 -95 -25
-116 -119 -420 -170 -553 -11 -30 -28 -75 -36 -100 -9 -25 -19 -49 -23 -55 -4
-5 -13 -28 -20 -50 -15 -48 -105 -245 -149 -325 -4 -8 -16 -31 -25 -50 -35
-68 -76 -143 -85 -154 -5 -6 -22 -36 -38 -67 -31 -58 -70 -120 -156 -249 -56
-83 -157 -229 -169 -245 -243 -303 -291 -358 -488 -556 -188 -189 -404 -375
-560 -481 -14 -9 -47 -33 -75 -53 -27 -19 -95 -65 -150 -102 -55 -36 -112 -74
-127 -84 -15 -11 -38 -24 -50 -29 -13 -6 -43 -24 -68 -40 -25 -16 -52 -33 -60
-37 -8 -3 -60 -32 -115 -62 -55 -31 -140 -76 -190 -99 -49 -24 -107 -53 -127
-63 -20 -10 -42 -19 -49 -19 -6 0 -30 -8 -53 -19 -110 -50 -137 -61 -147 -61
-6 0 -25 -7 -42 -14 -34 -16 -122 -47 -197 -71 -132 -40 -189 -57 -225 -67
-22 -5 -53 -14 -70 -20 -16 -6 -64 -18 -105 -28 -41 -10 -93 -23 -115 -29 -65
-17 -244 -49 -330 -60 -44 -5 -111 -14 -150 -20 -38 -6 -173 -17 -300 -26
-210 -15 -1413 -16 -13675 -13 -10883 3 -13481 6 -13635 17 -104 7 -244 21
-310 32 -66 10 -131 19 -145 19 -13 0 -60 9 -105 19 -44 10 -102 24 -130 29
-117 25 -189 43 -222 57 -20 8 -46 15 -58 15 -13 0 -47 8 -77 19 -29 10 -87
29 -128 41 -41 13 -91 29 -110 36 -313 118 -494 192 -575 237 -11 6 -54 28
-95 49 -41 22 -82 43 -90 48 -8 5 -41 24 -73 42 -32 18 -71 41 -85 51 -15 9
-40 24 -57 32 -16 8 -41 24 -55 34 -27 20 -203 137 -279 186 -133 85 -502 398
-667 566 -136 140 -334 368 -409 474 -11 15 -38 51 -60 79 -22 28 -44 59 -50
68 -5 9 -37 55 -70 103 -96 139 -102 147 -210 337 -63 109 -180 340 -223 438
-8 19 -23 53 -32 75 -26 58 -55 131 -81 200 -12 33 -30 81 -40 107 -11 26 -19
54 -19 63 0 9 -9 33 -20 55 -11 22 -20 50 -20 62 -1 13 -9 41 -20 63 -11 22
-19 49 -20 59 0 11 -8 47 -19 80 -28 91 -62 238 -61 267 0 15 -7 46 -15 70 -9
24 -20 82 -25 129 -5 47 -16 132 -24 190 -8 58 -20 193 -26 301 -14 275 -14
27034 0 27343 6 122 18 263 26 314 8 51 19 128 24 170 6 42 17 106 25 142 24
108 36 162 47 215 5 28 18 73 29 100 10 28 19 60 19 72 0 12 9 45 19 75 10 29
40 121 67 203 26 83 54 161 61 175 7 14 13 31 13 37 0 7 9 32 19 55 11 24 41
93 67 153 45 106 136 287 195 390 16 28 34 59 40 70 5 11 21 38 34 60 13 22
34 56 45 75 25 43 36 59 134 206 221 330 565 717 866 975 133 114 372 299 480
372 30 20 73 49 96 64 22 16 51 34 65 42 234 140 268 158 508 280 95 48 235
111 248 111 4 1 26 9 48 20 22 11 46 19 53 20 7 0 27 7 45 17 18 9 46 20 62
24 17 4 77 23 135 43 201 69 225 76 249 76 14 0 52 9 85 19 81 25 188 51 256
60 30 5 73 13 95 19 22 6 98 18 169 27 71 8 133 18 137 21 43 26 610 28 11119
33 14901 8 16287 8 16500 -7z"/>
    <path d="M26830 31171 c-75 -10 -203 -54 -270 -93 -8 -4 -26 -14 -40 -21 -71
-35 -181 -124 -259 -209 -63 -68 -136 -172 -167 -238 -60 -124 -94 -275 -94
-412 0 -87 21 -222 46 -298 9 -25 19 -58 23 -75 14 -54 92 -188 154 -265 33
-41 155 -167 271 -280 356 -346 2146 -2140 2146 -2150 0 -7 -2082 -10 -5737
-10 -3607 0 -5786 -4 -5868 -10 -71 -6 -200 -14 -286 -20 -86 -5 -208 -16
-270 -24 -63 -8 -150 -19 -194 -25 -172 -22 -244 -33 -335 -51 -52 -10 -122
-24 -155 -30 -33 -7 -89 -18 -125 -25 -66 -13 -142 -32 -260 -64 -36 -10 -87
-24 -115 -31 -71 -18 -169 -46 -250 -70 -38 -12 -88 -26 -110 -32 -22 -6 -61
-19 -87 -29 -26 -11 -55 -19 -65 -19 -10 0 -31 -7 -47 -15 -16 -9 -46 -20 -65
-25 -42 -11 -147 -47 -176 -60 -11 -5 -38 -16 -60 -24 -92 -32 -149 -56 -159
-66 -5 -5 -18 -10 -28 -10 -10 0 -35 -9 -55 -20 -21 -11 -44 -20 -51 -20 -7 0
-30 -8 -50 -19 -20 -10 -53 -25 -72 -34 -80 -34 -244 -111 -290 -136 -26 -14
-71 -37 -185 -95 -60 -31 -141 -73 -180 -94 -38 -22 -95 -53 -126 -69 -69 -38
-162 -92 -197 -115 -15 -10 -43 -27 -62 -38 -145 -84 -320 -199 -531 -349 -20
-14 -90 -66 -155 -116 -66 -49 -124 -92 -130 -95 -5 -3 -17 -11 -25 -17 -8 -7
-77 -63 -154 -125 -77 -61 -142 -115 -145 -118 -3 -4 -93 -85 -200 -180 -222
-197 -475 -447 -635 -630 -129 -148 -160 -183 -198 -224 -42 -46 -251 -306
-286 -357 -17 -24 -51 -71 -76 -104 -24 -33 -60 -82 -80 -110 -19 -27 -53 -75
-75 -105 -66 -91 -220 -322 -220 -330 0 -4 -7 -13 -15 -20 -8 -7 -22 -26 -31
-44 -23 -44 -41 -74 -74 -126 -15 -25 -41 -70 -56 -100 -15 -30 -33 -62 -40
-70 -6 -8 -51 -94 -99 -190 -48 -96 -91 -182 -96 -190 -5 -8 -14 -26 -20 -40
-6 -14 -15 -32 -20 -40 -5 -8 -14 -26 -20 -40 -6 -14 -15 -32 -20 -40 -5 -8
-12 -22 -15 -30 -3 -8 -17 -40 -31 -70 -25 -54 -44 -98 -82 -182 -10 -24 -28
-64 -40 -89 -12 -25 -21 -52 -21 -60 0 -8 -9 -27 -20 -44 -11 -16 -20 -36 -20
-43 0 -8 -7 -28 -15 -45 -16 -36 -40 -100 -61 -167 -8 -25 -18 -54 -23 -65 -5
-11 -21 -60 -36 -110 -15 -49 -33 -106 -40 -125 -41 -113 -112 -370 -184 -670
-10 -41 -23 -95 -29 -120 -7 -25 -17 -65 -23 -90 -6 -25 -15 -70 -21 -100 -5
-30 -18 -94 -29 -142 -10 -48 -19 -99 -19 -115 0 -15 -9 -86 -20 -158 -11 -71
-24 -175 -30 -230 -58 -570 -71 -949 -46 -1380 23 -417 26 -450 42 -550 7 -49
14 -110 14 -135 0 -25 9 -99 19 -165 11 -66 25 -151 31 -190 28 -172 40 -230
90 -435 10 -41 23 -95 28 -120 12 -50 26 -104 52 -200 10 -36 28 -101 40 -145
42 -150 72 -250 86 -282 8 -17 14 -39 14 -50 0 -10 9 -38 20 -62 11 -24 20
-50 20 -58 0 -9 8 -34 19 -57 21 -47 49 -126 61 -174 4 -18 15 -43 24 -57 9
-13 16 -31 16 -39 0 -9 9 -35 19 -58 11 -24 31 -72 46 -108 14 -36 30 -74 35
-85 11 -28 57 -132 80 -180 10 -22 23 -51 29 -65 6 -14 15 -32 20 -40 5 -8 57
-112 116 -230 118 -239 184 -363 203 -382 6 -6 12 -16 12 -20 0 -8 48 -93 82
-146 10 -15 28 -44 40 -66 49 -82 139 -220 252 -385 28 -40 58 -83 66 -95 38
-55 238 -320 299 -396 20 -24 43 -53 51 -64 8 -11 31 -38 51 -60 19 -23 74
-88 121 -146 204 -251 536 -585 893 -899 69 -61 284 -239 333 -276 29 -22 87
-67 130 -101 102 -80 250 -187 301 -219 9 -5 75 -49 146 -96 122 -81 198 -130
237 -154 239 -145 448 -266 553 -320 61 -31 117 -60 125 -65 39 -24 397 -189
500 -230 30 -12 73 -30 95 -40 22 -10 63 -27 90 -38 86 -34 159 -64 195 -79
19 -9 49 -19 65 -24 17 -4 59 -19 95 -32 63 -24 82 -31 185 -67 178 -61 586
-169 795 -211 30 -6 96 -19 145 -30 84 -17 135 -26 290 -50 103 -16 336 -48
435 -59 52 -6 131 -14 175 -19 302 -35 493 -36 7385 -36 7244 0 6898 -2 7025
47 87 34 149 62 175 79 14 9 45 29 70 45 25 16 47 31 50 34 3 3 33 29 68 59
59 51 161 168 190 219 45 80 72 134 72 145 0 6 7 25 15 41 18 35 51 196 59
286 9 115 -16 300 -56 410 -27 76 -67 157 -84 171 -8 6 -14 16 -14 21 0 26
-155 196 -245 268 -68 54 -192 122 -280 152 -143 50 216 47 -6980 48 -5742 0
-6784 2 -7035 15 -162 8 -340 21 -395 30 -55 8 -125 15 -155 15 -30 0 -82 7
-115 14 -33 8 -85 17 -115 20 -30 4 -95 15 -145 25 -49 11 -115 24 -145 30
-136 27 -289 67 -352 92 -26 11 -56 19 -67 19 -11 0 -35 6 -53 14 -18 8 -82
30 -143 50 -60 19 -126 40 -145 47 -91 31 -322 126 -549 225 -46 20 -371 184
-431 217 -19 10 -53 30 -75 43 -22 13 -58 33 -80 44 -22 11 -53 29 -70 40 -16
11 -47 30 -69 42 -49 29 -61 37 -115 73 -24 17 -53 36 -65 43 -12 7 -48 33
-81 57 -33 25 -85 62 -115 82 -30 21 -62 45 -72 53 -23 21 -37 31 -88 65 -53
35 -286 219 -315 249 -12 12 -79 73 -150 138 -180 161 -372 359 -594 613 -41
46 -279 345 -341 427 -53 70 -140 196 -140 203 0 1 -24 38 -53 82 -30 43 -60
90 -68 105 -18 32 -52 92 -84 143 -13 22 -39 67 -56 100 -17 33 -41 78 -54
100 -31 53 -193 376 -244 488 -23 49 -41 94 -41 100 0 7 -9 26 -20 42 -11 17
-20 36 -20 43 0 8 -6 28 -14 45 -26 57 -66 163 -66 175 0 6 -8 31 -19 54 -10
24 -29 77 -41 118 -47 154 -63 206 -81 258 -11 30 -19 62 -19 71 0 10 -8 47
-19 82 -19 66 -32 121 -56 247 -8 40 -21 96 -30 124 -8 29 -15 64 -15 80 0 15
-9 60 -19 100 -11 40 -22 109 -26 153 -3 44 -10 99 -16 122 -13 62 -39 404
-49 663 -5 127 -5 303 0 405 12 240 38 571 49 615 5 19 12 69 16 110 3 41 15
116 25 165 10 50 24 117 30 150 29 158 41 209 55 251 8 25 15 55 15 68 0 13 7
42 15 65 8 22 19 68 25 101 6 32 17 72 25 87 8 15 15 39 15 53 0 14 9 45 20
69 11 24 20 53 20 65 0 11 7 34 15 50 9 16 20 46 25 65 14 57 49 153 65 183 8
14 15 33 15 42 0 9 9 33 20 53 11 21 20 44 20 51 0 8 6 26 14 40 20 36 66 139
66 147 0 12 150 318 201 410 15 28 34 64 43 80 8 17 33 62 56 100 22 39 47 84
55 100 9 17 29 50 45 75 16 25 33 52 37 60 4 8 19 33 34 55 14 22 47 72 72
110 25 39 62 93 82 120 19 28 43 61 53 75 9 14 21 30 27 37 5 6 28 37 50 67
41 57 114 152 150 194 11 13 28 33 38 45 238 283 607 661 827 848 130 111 339
279 408 327 92 65 125 88 142 97 10 6 26 17 35 25 9 8 25 19 35 25 10 5 53 34
95 63 42 28 80 52 84 52 4 0 16 9 26 20 10 11 24 20 30 20 7 0 23 9 37 19 13
11 44 30 69 43 24 13 87 49 139 79 52 30 109 62 125 71 56 31 373 188 380 188
3 0 32 12 63 26 31 14 71 32 87 39 17 7 51 22 78 34 26 11 53 21 60 21 7 0 29
9 50 20 20 11 44 20 52 20 9 0 33 9 55 20 22 11 47 20 57 20 10 1 36 9 58 20
22 11 47 19 57 20 9 0 40 9 70 19 29 11 85 28 123 39 39 11 102 30 140 41 39
12 77 21 86 21 9 0 42 9 74 20 32 11 69 20 81 20 13 0 43 7 68 15 25 9 78 22
118 30 40 8 98 19 128 26 159 33 249 49 278 49 18 0 66 7 106 15 40 8 167 23
282 32 190 15 513 17 3549 20 1837 2 4435 4 5773 6 1337 1 2432 -1 2432 -4 0
-3 -129 -133 -286 -290 -1120 -1112 -2078 -2075 -2126 -2134 -30 -38 -63 -83
-72 -100 -9 -16 -20 -37 -25 -45 -59 -95 -121 -341 -121 -481 0 -67 20 -182
46 -259 9 -25 19 -58 24 -75 11 -43 85 -179 129 -239 59 -79 173 -188 248
-237 90 -59 105 -68 123 -75 8 -4 34 -15 58 -26 39 -18 90 -35 182 -58 46 -12
305 -12 350 0 19 5 60 15 90 23 50 13 70 21 150 56 53 24 148 80 210 124 36
26 205 188 375 360 284 286 2762 2755 3456 3443 309 307 381 381 414 428 45
66 57 85 100 173 42 87 62 148 87 268 15 72 4 325 -17 410 -34 136 -78 229
-159 340 -41 54 -725 745 -2153 2173 -1151 1150 -2098 2092 -2103 2092 -5 0
-15 6 -22 13 -48 46 -241 147 -280 147 -8 0 -41 9 -73 21 -48 17 -89 22 -205
24 -80 2 -170 0 -200 -4z"/>
    <path d="M28200 27490 c0 -5 5 -10 10 -10 6 0 10 5 10 10 0 6 -4 10 -10 10 -5
0 -10 -4 -10 -10z"/>
    <path d="M28545 22130 c-3 -5 -1 -10 4 -10 6 0 11 5 11 10 0 6 -2 10 -4 10 -3
0 -8 -4 -11 -10z"/>
  </g>
</svg>