<svg xmlns="http://www.w3.org/2000/svg" viewBox="0 0 4096.000000 4096.000000">
  <g transform="translate(0.000000,4096.000000) scale(0.100000,-0.100000)" fill="#f4f5f7" stroke="#f4f5f7" stroke-width="40" stroke-linejoin="round" stroke-linecap="round">
    <path d="M4780 34318 c-154 -15 -414 -94 -570 -173 -128 -66 -299 -172 -392
-245 -95 -75 -308 -283 -359 -351 -19 -25 -68 -90 -109 -145 -118 -155 -211
-315 -377 -645 -135 -268 -163 -328 -245 -529 -122 -300 -230 -596 -368 -1015
-134 -407 -243 -775 -331 -1120 -21 -82 -52 -202 -69 -265 -16 -63 -45 -185
-64 -270 -19 -85 -55 -249 -80 -365 -89 -402 -105 -481 -141 -665 -20 -102
-40 -205 -45 -230 -16 -74 -48 -265 -121 -720 -10 -69 -33 -213 -49 -320 -16
-107 -40 -271 -54 -365 -36 -234 -91 -713 -115 -990 -11 -126 -27 -302 -36
-390 -9 -88 -24 -261 -35 -385 -11 -124 -27 -288 -35 -365 -8 -77 -24 -273
-35 -435 -11 -162 -25 -342 -30 -400 -23 -250 -31 -358 -40 -560 -6 -118 -12
-242 -15 -275 -14 -171 -36 -586 -45 -865 -20 -587 -30 -2081 -20 -2780 12
-826 25 -1237 60 -1885 6 -99 17 -308 25 -465 8 -157 19 -330 25 -385 5 -55
17 -185 25 -290 31 -377 78 -845 120 -1200 14 -115 30 -264 35 -330 6 -66 13
-135 15 -155 3 -19 12 -96 21 -170 16 -142 64 -496 89 -665 8 -55 22 -147 30
-205 65 -435 147 -919 231 -1360 60 -314 202 -945 269 -1200 19 -69 50 -188
70 -265 34 -130 132 -471 175 -610 10 -33 49 -163 85 -290 103 -355 216 -687
350 -1025 43 -107 95 -233 117 -280 90 -192 271 -541 336 -645 58 -94 118
-184 156 -235 132 -179 348 -409 528 -562 174 -148 254 -202 435 -292 225
-113 406 -176 608 -212 93 -17 200 -19 1510 -21 776 -1 7366 -2 14645 -3 8349
-1 13576 -6 14158 -12 853 -10 932 -9 1035 7 65 10 152 31 207 52 192 71 438
216 610 358 143 120 347 332 469 490 223 288 257 339 431 660 257 474 378 753
562 1295 39 113 78 232 88 265 10 33 39 128 65 210 75 240 180 613 235 835 28
113 59 237 70 275 27 98 88 367 116 510 13 66 39 197 59 290 45 214 72 353
129 680 26 143 50 283 56 310 5 28 12 73 15 100 4 28 13 86 21 130 25 145 93
616 124 860 17 132 42 321 55 420 46 330 119 929 130 1060 12 131 36 360 40
375 2 8 14 119 25 245 11 127 25 271 30 320 30 291 40 395 50 530 5 83 17 213
25 290 14 132 23 259 60 820 8 127 17 244 20 260 6 41 21 256 45 640 11 176
24 385 30 465 19 263 28 895 19 1300 -8 379 -17 598 -38 965 -6 94 -15 262
-21 375 -6 113 -17 297 -25 410 -8 113 -19 297 -25 410 -12 233 -21 358 -55
755 -14 154 -29 348 -35 430 -5 83 -14 188 -20 235 -15 136 -39 399 -55 615
-9 110 -22 256 -31 325 -8 69 -26 222 -40 340 -14 118 -32 267 -39 330 -8 63
-21 178 -30 255 -9 77 -20 165 -25 195 -6 30 -17 105 -25 165 -14 106 -19 146
-65 460 -11 77 -38 273 -61 435 -22 162 -62 428 -89 590 -27 162 -54 324 -60
360 -6 36 -22 124 -35 195 -14 72 -47 247 -75 390 -66 348 -104 534 -142 690
-64 269 -250 1003 -274 1085 -127 421 -263 841 -322 986 -11 27 -37 92 -57
144 -152 383 -358 777 -610 1165 -88 135 -182 260 -291 385 -88 102 -313 327
-406 407 -153 132 -410 291 -598 370 -149 63 -227 84 -365 98 -33 3 -7017 8
-15520 11 -8503 3 -15500 6 -15550 8 -49 1 -128 -1 -175 -6z m29010 -1806 c55
-27 52 -60 -18 -243 -89 -229 -132 -362 -293 -899 -53 -175 -96 -299 -114
-327 -9 -12 -30 -31 -48 -40 -30 -17 -238 -18 -4217 -24 -5098 -7 -21317 -2
-22135 6 -400 4 -631 3 -718 -5 -146 -12 -275 -46 -357 -92 -73 -42 -157 -107
-201 -155 -108 -119 -171 -236 -216 -398 -25 -90 -28 -116 -28 -265 0 -154 2
-170 28 -250 45 -134 126 -269 217 -360 90 -90 236 -174 375 -217 58 -17 298
-18 6122 -23 l6062 -5 27 -21 c15 -11 31 -33 36 -49 8 -31 -6 -127 -62 -430
-57 -310 -99 -551 -115 -660 -9 -60 -32 -202 -50 -316 -33 -193 -51 -318 -140
-934 -20 -137 -54 -370 -76 -517 -22 -146 -46 -320 -54 -385 -8 -65 -25 -210
-39 -323 -52 -420 -76 -631 -96 -845 -36 -383 -40 -419 -45 -450 -5 -32 -26
-301 -50 -645 -8 -118 -19 -273 -25 -345 -5 -71 -14 -236 -20 -365 -6 -129
-20 -408 -31 -620 -31 -610 -39 -993 -39 -1950 0 -853 12 -1438 40 -1970 5
-107 17 -328 25 -490 16 -305 25 -446 50 -710 8 -85 19 -216 25 -290 6 -74 22
-232 35 -350 13 -118 31 -287 40 -375 29 -285 75 -718 85 -795 5 -41 19 -149
30 -240 10 -91 30 -259 44 -375 14 -115 32 -266 40 -335 33 -282 76 -621 91
-715 8 -55 29 -197 45 -315 17 -118 33 -222 35 -230 2 -8 9 -55 15 -105 6 -49
19 -137 30 -195 11 -58 29 -161 39 -230 33 -209 98 -590 115 -672 18 -89 21
-190 5 -220 -6 -11 -26 -26 -44 -34 -30 -12 -870 -14 -5937 -14 -3975 0 -5932
-4 -5993 -10 -168 -20 -293 -69 -422 -167 -152 -116 -282 -311 -339 -508 -65
-226 -33 -444 93 -639 117 -180 304 -315 501 -360 40 -9 159 -20 270 -26 124
-6 5146 -9 13574 -9 l13377 1 36 -22 c19 -12 42 -34 49 -48 7 -15 30 -85 51
-156 79 -272 199 -618 295 -846 118 -280 140 -336 140 -362 0 -15 -9 -36 -21
-47 -12 -11 -43 -22 -70 -26 -28 -4 -2510 -4 -5517 0 -3007 3 -9456 6 -14332
7 -7640 0 -8872 2 -8919 14 -79 21 -144 60 -216 129 -106 101 -213 245 -324
439 -61 105 -90 167 -206 440 -216 509 -374 983 -560 1685 -47 175 -71 273
-125 521 -17 74 -46 205 -65 290 -89 394 -207 977 -235 1160 -11 74 -31 203
-45 285 -13 83 -36 222 -50 310 -15 88 -37 241 -50 340 -13 99 -35 257 -49
350 -14 94 -30 204 -35 245 -79 616 -93 733 -111 930 -6 63 -15 142 -20 175
-10 63 -23 196 -39 405 -6 69 -15 177 -20 240 -10 112 -31 444 -51 800 -5 96
-12 198 -15 225 -18 167 -54 1200 -76 2170 -20 898 0 2018 51 2840 5 83 14
249 20 370 28 586 72 1152 155 2020 29 300 95 930 100 950 3 11 14 101 25 200
12 99 29 239 40 310 10 72 24 173 30 225 6 52 22 172 35 265 13 94 29 217 35
275 6 58 17 143 25 190 8 47 26 157 40 245 62 402 167 953 264 1390 22 99 52
234 66 300 30 133 142 554 205 768 65 223 232 715 327 967 146 387 208 534
313 735 173 334 280 506 399 644 69 80 155 144 222 166 28 9 92 20 142 25 51
4 6484 8 14297 9 13505 1 14207 0 14240 -17z m2190 -174 c62 -45 234 -271 317
-413 146 -252 200 -366 322 -673 98 -245 238 -645 311 -887 23 -77 50 -167 61
-200 55 -176 224 -852 279 -1116 62 -296 155 -769 178 -909 57 -343 83 -492
97 -560 8 -41 21 -127 30 -190 8 -63 22 -151 30 -195 8 -44 24 -152 35 -240
12 -88 30 -207 40 -265 11 -58 27 -170 35 -250 9 -80 25 -203 35 -275 11 -71
26 -195 35 -275 8 -80 22 -192 30 -250 24 -178 96 -908 115 -1155 20 -276 59
-895 75 -1185 8 -162 20 -376 25 -475 18 -320 39 -762 52 -1100 17 -443 18
-2463 0 -2730 -13 -209 -24 -438 -47 -975 -25 -571 -34 -730 -69 -1180 -78
-986 -162 -1745 -285 -2570 -16 -107 -37 -247 -46 -310 -9 -63 -24 -160 -35
-215 -10 -55 -26 -143 -34 -195 -41 -247 -99 -563 -136 -740 -22 -107 -51
-249 -64 -315 -13 -66 -31 -151 -40 -190 -8 -38 -31 -149 -51 -245 -106 -510
-181 -811 -328 -1320 -71 -243 -175 -563 -255 -782 -124 -337 -334 -777 -480
-1008 -155 -245 -216 -310 -286 -310 -15 0 -39 13 -59 34 -89 89 -301 490
-453 859 -41 100 -86 209 -100 242 -41 96 -189 519 -272 775 -68 210 -191 722
-266 1110 -25 129 -59 300 -76 380 -31 151 -94 509 -105 595 -4 28 -19 120
-35 205 -15 85 -31 187 -35 225 -3 39 -15 117 -25 175 -10 58 -24 150 -30 205
-6 55 -20 163 -30 240 -24 165 -35 249 -50 365 -6 47 -24 186 -40 310 -17 124
-35 272 -40 330 -5 58 -17 159 -25 225 -30 232 -34 272 -55 465 -56 529 -58
556 -116 1375 -8 121 -22 312 -29 425 -8 113 -19 297 -25 410 -6 113 -17 340
-26 505 -65 1283 -69 3298 -9 4430 8 160 22 425 30 590 18 365 32 609 46 775
5 69 14 181 19 250 5 69 14 187 20 262 5 76 15 199 20 275 5 76 19 224 29 328
11 105 29 290 41 411 11 122 27 275 34 340 8 66 19 166 26 224 7 58 23 193 36
300 13 107 36 292 49 410 31 262 78 612 110 820 13 85 31 209 40 275 41 313
126 819 200 1190 60 307 191 879 258 1130 110 413 346 1111 499 1475 184 437
300 674 366 743 28 28 44 37 69 37 19 0 47 -10 63 -22z m-13845 -3135 c12 -6
27 -23 35 -37 12 -23 10 -52 -14 -229 -15 -111 -34 -238 -41 -282 -8 -44 -23
-150 -34 -235 -11 -86 -29 -212 -40 -280 -11 -69 -27 -190 -36 -270 -9 -80
-22 -203 -30 -275 -37 -327 -47 -471 -52 -755 -6 -356 4 -518 48 -752 80 -428
173 -687 394 -1101 95 -179 162 -288 261 -424 140 -195 279 -343 534 -574 108
-97 295 -252 388 -321 150 -112 440 -283 662 -390 167 -80 375 -167 500 -209
177 -58 406 -114 610 -147 225 -38 328 -49 576 -62 279 -15 673 4 959 46 280
41 638 135 910 239 384 147 696 308 960 497 168 120 229 169 364 291 286 260
463 468 647 762 31 50 74 117 96 150 53 81 187 347 236 470 133 328 217 608
286 955 65 329 107 632 155 1125 61 618 83 930 101 1428 12 316 18 344 78 374
35 17 94 18 1117 21 1062 2 1081 2 1112 -18 58 -35 59 -10 -38 -555 -46 -263
-62 -359 -84 -500 -8 -55 -26 -165 -39 -245 -14 -80 -32 -199 -41 -265 -9 -66
-25 -174 -35 -241 -11 -67 -24 -166 -30 -220 -6 -54 -24 -193 -40 -309 -16
-115 -36 -273 -45 -350 -9 -77 -25 -207 -35 -290 -10 -82 -24 -204 -31 -270
-6 -66 -18 -167 -25 -225 -8 -58 -25 -220 -39 -360 -13 -140 -31 -316 -39
-390 -9 -74 -25 -274 -36 -445 -11 -170 -27 -384 -35 -475 -13 -158 -18 -229
-50 -800 -45 -781 -60 -1203 -75 -2025 -12 -664 -12 -1254 0 -1660 5 -176 14
-475 20 -665 10 -370 19 -566 50 -1140 35 -654 38 -690 85 -1285 31 -393 43
-532 50 -570 2 -16 14 -140 25 -275 11 -135 27 -294 35 -355 8 -60 21 -184 30
-275 18 -191 26 -258 54 -510 48 -415 73 -596 151 -1095 23 -143 59 -375 81
-515 45 -292 94 -576 145 -835 19 -99 36 -208 37 -242 2 -52 -2 -66 -19 -84
-12 -12 -41 -25 -65 -30 -57 -11 -5171 -11 -5228 0 -25 5 -54 20 -70 35 l-26
26 0 2008 c0 1104 2 2671 5 3482 4 1409 4 1478 -14 1549 -35 140 -116 291
-217 406 -34 38 -81 84 -103 101 -119 90 -257 159 -394 196 -61 17 -107 22
-222 22 -121 1 -157 -3 -220 -21 -237 -69 -382 -178 -890 -669 -151 -146 -372
-352 -595 -554 -82 -74 -181 -165 -219 -201 -39 -36 -136 -123 -216 -194 -80
-70 -163 -144 -185 -163 -22 -20 -65 -58 -95 -86 -30 -28 -102 -94 -159 -146
-115 -105 -273 -252 -337 -316 -55 -54 -130 -156 -164 -224 -15 -30 -38 -89
-51 -130 -21 -66 -24 -94 -23 -230 0 -127 4 -169 22 -232 41 -149 130 -294
254 -414 133 -129 259 -208 403 -254 87 -27 262 -38 361 -21 38 6 104 23 146
37 131 43 322 169 493 325 39 36 115 103 170 150 55 46 147 125 205 174 145
125 189 155 227 155 27 0 33 -5 44 -37 9 -28 10 -549 5 -2357 -7 -2096 -9
-2324 -23 -2355 -10 -20 -29 -39 -49 -47 -28 -12 -468 -14 -2763 -14 -1926 0
-2745 3 -2781 11 -38 8 -56 19 -76 44 -28 37 -36 62 -64 190 -60 277 -288
1631 -330 1955 -6 47 -27 198 -46 335 -55 399 -73 539 -94 720 -11 94 -26 220
-34 280 -17 127 -69 583 -91 795 -8 80 -19 188 -25 240 -45 421 -86 930 -105
1285 -8 165 -20 377 -25 470 -5 94 -12 231 -15 305 -3 74 -12 270 -20 435 -33
687 -38 980 -31 1970 6 941 9 1094 42 1720 18 355 65 1048 94 1380 6 61 17
193 26 295 15 181 80 806 109 1045 7 66 17 149 20 185 3 36 15 133 25 215 11
83 26 215 35 295 9 80 24 204 35 275 10 72 26 193 35 270 15 124 39 286 91
605 8 52 21 136 29 185 8 50 24 142 35 205 11 63 30 167 41 230 49 284 139
729 200 995 17 72 41 186 55 255 26 132 36 168 61 238 17 49 51 71 128 82 27
4 453 7 945 6 664 -1 900 -4 915 -13z m6652 -9 c16 -12 32 -36 37 -58 7 -25 6
-108 -3 -239 -23 -386 -31 -514 -46 -797 -8 -157 -22 -341 -30 -410 -9 -69
-25 -207 -35 -307 -42 -397 -140 -877 -237 -1163 -113 -332 -240 -567 -444
-816 -85 -104 -231 -240 -359 -335 -176 -130 -194 -140 -474 -268 -225 -103
-550 -178 -876 -202 -288 -21 -579 11 -886 97 -162 45 -276 89 -436 169 -161
81 -197 101 -313 178 -217 144 -409 341 -554 569 -177 281 -294 610 -341 961
-17 133 -12 542 10 794 31 345 66 639 110 908 11 66 33 208 50 315 47 304 87
504 109 549 12 22 31 46 43 52 12 6 44 15 72 19 28 4 1069 7 2313 6 l2262 -1
28 -21z"/>
    <path d="M10835 27224 c-243 -13 -542 -61 -817 -134 -143 -37 -392 -122 -593
-203 -126 -50 -341 -159 -481 -242 -276 -165 -448 -294 -659 -491 -160 -151
-196 -187 -330 -339 -123 -139 -186 -221 -316 -415 -112 -166 -140 -213 -231
-385 -131 -246 -191 -396 -266 -655 -77 -272 -135 -545 -169 -805 -15 -118
-17 -364 -20 -2720 -4 -2631 2 -3321 31 -3495 8 -47 24 -148 36 -225 29 -189
77 -379 161 -629 93 -278 208 -532 357 -786 140 -240 325 -474 562 -710 173
-173 344 -313 555 -457 210 -142 559 -336 750 -416 93 -39 316 -121 455 -166
125 -42 407 -114 510 -132 194 -33 416 -61 550 -69 332 -20 731 -7 975 30 72
12 148 23 170 26 101 14 389 79 513 116 207 62 434 150 627 244 132 64 400
220 534 309 40 28 90 61 110 74 125 83 383 312 531 473 171 184 228 257 394
503 150 223 295 486 385 697 95 225 160 430 221 706 64 288 87 494 95 842 9
373 13 5212 4 5505 -5 204 -15 336 -34 485 -27 209 -75 441 -122 585 -62 194
-183 477 -279 655 -97 181 -117 216 -213 360 -201 304 -388 531 -597 725 -245
227 -352 312 -564 447 -125 79 -300 178 -395 222 -244 115 -666 268 -935 340
-142 38 -463 94 -639 112 -148 14 -706 26 -866 18z m760 -1813 c492 -88 925
-284 1280 -579 110 -92 204 -188 301 -310 90 -112 145 -195 222 -338 133 -248
221 -528 258 -828 13 -104 16 -488 19 -2761 2 -1498 0 -2733 -5 -2855 -9 -206
-31 -384 -66 -525 -34 -138 -124 -383 -190 -516 -104 -210 -308 -465 -505
-631 -205 -171 -330 -253 -500 -328 -359 -159 -635 -222 -1024 -236 -188 -7
-390 5 -565 32 -269 43 -636 164 -860 286 -96 53 -226 136 -315 203 -103 77
-251 221 -346 335 -45 55 -90 111 -98 124 -9 13 -43 64 -75 113 -73 109 -175
302 -214 408 -87 230 -123 426 -144 781 -17 294 -16 5248 1 5444 37 420 140
782 295 1040 129 215 223 337 375 489 148 148 245 221 451 339 123 70 248 128
405 190 138 54 361 103 660 146 17 2 140 3 275 1 196 -2 269 -7 365 -24z"/>
  </g>
</svg>