<svg xmlns="http://www.w3.org/2000/svg" viewBox="0 0 4096.000000 4096.000000">
  <g transform="translate(0.000000,4096.000000) scale(0.100000,-0.100000)" fill="#f4f5f7" stroke="none">
    <path d="M997 36009 c-145 -31 -274 -111 -369 -229 -63 -78 -94 -139 -117
-230 -42 -159 -22 -314 58 -460 39 -72 158 -203 206 -227 16 -8 39 -23 50 -33
11 -10 31 -21 45 -25 14 -4 45 -17 70 -29 l45 -21 19495 0 19495 0 70 29 c108
44 176 89 248 165 126 133 171 249 172 436 0 66 -6 121 -17 160 -40 138 -116
250 -233 342 -80 65 -151 99 -252 123 -85 20 -93 20 -19481 19 -18928 -1
-19399 -1 -19485 -20z"/>
    <path d="M855 32643 c-38 -8 -77 -21 -85 -28 -8 -7 -29 -20 -46 -28 -32 -16
-154 -135 -154 -150 0 -5 -8 -21 -18 -35 -10 -15 -29 -58 -43 -97 l-24 -70 -3
-1105 c-1 -643 1 -1122 7 -1145 40 -174 72 -237 166 -323 31 -29 89 -69 128
-89 l72 -38 560 0 560 0 75 39 c84 43 171 126 213 201 15 26 37 86 49 134 l22
86 -2 1110 c-3 1235 -1 1189 -71 1307 -44 75 -116 148 -184 186 -103 58 -146
62 -674 61 -382 -1 -492 -4 -548 -16z"/>
    <path d="M5615 32641 c-76 -20 -152 -67 -213 -131 -50 -52 -87 -119 -118 -210
-18 -52 -19 -112 -22 -1144 -1 -609 1 -1115 6 -1150 24 -162 72 -263 168 -353
31 -29 84 -67 117 -85 l62 -33 565 0 565 0 70 33 c84 40 172 122 222 207 66
113 65 84 64 1310 -1 678 -6 1133 -12 1185 -6 47 -16 92 -23 100 -8 8 -21 31
-31 50 -18 37 -139 160 -158 160 -6 0 -27 11 -46 24 -24 17 -66 30 -126 40
-74 13 -175 16 -560 15 -398 -1 -479 -4 -530 -18z"/>
    <path d="M10442 32644 c-46 -8 -96 -22 -110 -32 -15 -10 -38 -23 -52 -29 -44
-19 -138 -112 -168 -166 -17 -29 -40 -83 -51 -121 -21 -67 -21 -79 -21 -1195
0 -1111 0 -1129 21 -1197 11 -38 25 -78 30 -89 49 -100 131 -186 227 -237 59
-31 85 -38 164 -46 51 -5 307 -6 568 -3 l475 6 70 37 c39 21 79 45 90 55 33
30 125 139 125 149 0 5 11 30 24 55 17 31 28 75 35 142 7 63 11 458 11 1134
-1 825 -3 1059 -14 1141 -8 57 -21 111 -28 120 -8 9 -20 30 -26 45 -28 65
-108 141 -202 190 -89 47 -118 50 -615 53 -372 2 -487 0 -553 -12z"/>
    <path d="M15203 32644 c-55 -9 -102 -25 -140 -46 -74 -40 -187 -155 -204 -205
-6 -21 -19 -49 -28 -63 -14 -22 -16 -142 -16 -1225 l0 -1200 30 -75 c25 -61
43 -88 106 -151 50 -51 97 -88 140 -109 63 -33 66 -33 264 -42 117 -5 349 -5
560 0 l360 9 50 26 c27 15 54 27 60 27 6 0 40 27 77 60 69 63 101 110 146 220
l27 65 0 1165 0 1165 -27 66 c-34 84 -64 128 -128 189 -70 67 -141 105 -234
124 -66 13 -149 16 -520 15 -325 -1 -463 -5 -523 -15z"/>
    <path d="M19969 32645 c-137 -23 -278 -121 -338 -236 -19 -35 -42 -97 -52
-138 -18 -69 -19 -135 -19 -1173 0 -1073 0 -1102 20 -1181 43 -172 123 -271
285 -352 l60 -30 565 0 565 0 73 38 c80 42 165 121 207 193 15 25 38 85 51
132 l24 87 0 1120 0 1120 -24 75 c-14 41 -36 96 -51 122 -35 63 -118 141 -187
177 -106 55 -176 61 -664 60 -307 -1 -462 -5 -515 -14z"/>
    <path d="M24789 32656 c-3 -3 -35 -10 -72 -16 -81 -13 -156 -52 -226 -119 -93
-89 -140 -176 -162 -301 -6 -34 -9 -472 -7 -1170 l3 -1115 23 -40 c12 -21 22
-48 22 -60 0 -11 11 -37 25 -57 14 -20 25 -41 25 -46 0 -6 28 -35 62 -67 36
-34 91 -71 135 -92 70 -33 84 -36 206 -42 73 -4 328 -5 567 -1 l435 5 60 34
c80 45 187 156 225 233 20 39 35 90 41 138 6 47 9 496 7 1215 l-3 1140 -22 45
c-12 25 -29 61 -37 80 -36 78 -89 131 -179 179 -106 55 -166 61 -669 61 -250
0 -457 -2 -459 -4z"/>
    <path d="M29455 32641 c-114 -26 -201 -80 -263 -166 -20 -27 -49 -75 -64 -106
-48 -98 -50 -165 -40 -1379 l8 -1105 30 -60 c65 -133 131 -200 259 -261 l60
-29 560 0 560 0 68 35 c38 19 94 60 126 90 55 53 121 144 121 168 0 7 9 38 20
70 20 57 20 78 18 1223 l-3 1164 -25 55 c-42 90 -76 142 -127 191 -26 25 -68
57 -93 72 -90 51 -167 57 -674 56 -403 0 -471 -3 -541 -18z"/>
    <path d="M34235 32641 c-48 -9 -93 -25 -109 -39 -16 -12 -35 -22 -42 -22 -21
0 -153 -138 -160 -167 -4 -15 -15 -41 -25 -58 -9 -16 -22 -70 -28 -120 -7 -59
-11 -461 -11 -1175 0 -1177 0 -1171 55 -1279 41 -80 126 -159 218 -204 67 -32
93 -38 175 -45 53 -4 309 -5 567 -2 l470 6 70 37 c84 44 165 114 206 178 16
26 41 87 54 135 l25 89 0 1126 0 1125 -24 72 c-13 39 -37 92 -52 119 -34 59
-112 137 -179 180 -94 59 -133 63 -658 62 -399 -1 -485 -4 -552 -18z"/>
    <path d="M39000 32641 c-49 -11 -94 -29 -130 -53 -67 -45 -86 -62 -126 -113
-51 -67 -81 -137 -98 -226 -14 -75 -16 -216 -16 -1139 0 -923 2 -1064 16
-1149 10 -59 28 -121 47 -161 42 -86 139 -183 232 -230 l70 -35 555 0 555 0
60 30 c102 51 172 110 219 183 23 37 54 105 69 152 l27 85 0 1121 0 1121 -24
75 c-14 42 -38 95 -55 120 -44 65 -126 143 -186 177 -102 58 -137 61 -663 60
-411 -1 -487 -3 -552 -18z"/>
    <path d="M1045 27433 c-75 -11 -120 -24 -180 -53 -89 -42 -199 -129 -244 -193
-81 -113 -131 -263 -131 -391 0 -116 51 -263 125 -361 42 -55 126 -135 172
-162 66 -40 166 -84 213 -94 28 -6 1344 -10 3545 -12 l3500 -2 67 -27 c37 -14
85 -40 106 -57 38 -30 112 -113 112 -126 0 -3 10 -27 23 -53 l22 -47 5 -5305
c3 -2918 2 -5341 -1 -5385 -5 -58 -14 -95 -34 -135 -27 -54 -110 -150 -129
-150 -5 0 -19 -8 -30 -18 -12 -10 -52 -30 -91 -43 l-70 -24 -3535 -5 -3535 -5
-42 -23 c-23 -12 -47 -22 -53 -22 -16 0 -89 -49 -154 -104 -92 -78 -154 -183
-192 -319 -28 -103 -32 -213 -9 -277 8 -23 15 -52 15 -63 0 -25 60 -148 101
-204 38 -54 147 -144 224 -187 33 -18 94 -41 135 -52 73 -19 161 -19 3610 -19
l3535 0 125 22 c69 12 142 29 162 37 21 9 47 16 59 16 20 0 94 28 184 70 22
10 56 26 75 35 99 46 214 122 332 221 98 82 221 210 264 274 13 19 36 53 51
75 57 81 94 149 161 295 25 54 59 150 73 205 6 22 20 78 32 125 l22 85 0 5480
0 5480 -22 85 c-12 47 -26 105 -31 130 -13 58 -39 132 -68 195 -12 28 -26 62
-29 78 -4 15 -10 29 -14 32 -4 2 -27 41 -50 87 -57 111 -119 202 -233 338 -53
63 -216 211 -278 253 -14 9 -44 30 -68 47 -24 16 -57 37 -75 45 -18 8 -39 19
-47 24 -35 21 -141 71 -152 71 -6 0 -29 9 -52 19 -77 36 -211 70 -346 88 -127
17 -346 18 -3595 19 -2993 2 -3473 0 -3560 -13z"/>
    <path d="M13040 27443 c-263 -26 -341 -36 -375 -48 -22 -8 -67 -21 -100 -29
-86 -21 -186 -58 -215 -78 -13 -10 -30 -18 -37 -18 -16 0 -104 -48 -198 -109
-85 -55 -231 -175 -303 -250 -60 -62 -189 -228 -218 -280 -10 -18 -34 -59 -52
-90 -17 -31 -35 -64 -39 -75 -3 -10 -16 -38 -28 -61 -13 -23 -26 -56 -29 -72
-4 -17 -16 -48 -27 -69 -10 -21 -19 -48 -19 -60 0 -12 -9 -52 -21 -89 -11 -38
-28 -125 -37 -194 -14 -114 -16 -637 -19 -5376 -4 -4722 -2 -5269 12 -5440 16
-191 26 -242 91 -440 15 -44 35 -96 45 -115 10 -19 25 -51 34 -70 8 -19 28
-56 43 -82 15 -26 36 -62 46 -80 74 -130 343 -415 466 -495 36 -23 77 -51 92
-63 33 -25 214 -120 231 -120 6 0 35 -12 62 -25 28 -14 60 -25 72 -25 11 0 45
-9 75 -19 29 -11 109 -27 178 -38 120 -17 407 -18 7831 -21 l7707 -2 177 24
c97 14 182 29 189 35 7 6 37 16 67 22 30 6 68 20 85 30 17 10 37 19 43 19 11
0 122 53 186 88 67 37 203 128 255 171 74 60 203 193 254 261 51 69 123 174
149 220 43 76 97 185 97 199 0 7 8 28 19 45 25 41 65 184 93 331 l23 120 0
5380 0 5380 -23 130 c-24 138 -59 264 -98 356 -13 31 -24 63 -24 72 0 8 -7 20
-14 27 -8 6 -20 28 -27 48 -6 20 -17 44 -24 52 -7 8 -22 33 -34 55 -12 22 -29
51 -39 65 -9 14 -26 41 -37 59 -28 47 -108 145 -174 214 -73 76 -209 192 -291
248 -66 45 -283 159 -304 159 -6 0 -33 12 -61 25 -27 14 -58 25 -68 25 -10 0
-43 9 -75 19 -31 11 -120 27 -197 38 -135 17 -423 18 -7760 19 -4191 0 -7636
-1 -7655 -3z m15343 -1305 c75 -29 162 -94 198 -148 13 -19 35 -60 49 -90 l25
-55 3 -5358 c2 -5204 2 -5358 -17 -5400 -10 -23 -23 -53 -28 -67 -18 -43 -88
-114 -151 -153 -33 -20 -67 -37 -77 -37 -9 0 -30 -8 -48 -17 -30 -17 -415 -18
-7677 -18 -7442 0 -7647 0 -7705 19 -92 29 -166 65 -209 105 -37 34 -106 127
-106 143 0 7 -9 42 -20 76 -20 63 -20 103 -20 5355 l0 5290 26 75 c27 78 85
168 130 199 14 10 37 28 52 39 26 20 105 48 182 64 19 4 3475 7 7680 6 l7645
-1 68 -27z"/>
    <path d="M33115 27429 c-108 -11 -202 -26 -235 -38 -30 -10 -71 -22 -90 -26
-39 -8 -66 -20 -240 -100 -46 -21 -83 -43 -150 -88 -97 -65 -104 -70 -180
-133 -138 -114 -242 -234 -357 -409 -38 -58 -133 -247 -133 -265 0 -9 -7 -25
-15 -37 -8 -11 -21 -46 -29 -76 -8 -30 -21 -76 -30 -103 -8 -27 -26 -112 -38
-189 l-23 -140 0 -5380 c0 -5015 1 -5385 17 -5455 9 -41 20 -95 23 -120 4 -25
17 -77 31 -117 13 -39 24 -78 24 -87 0 -9 9 -30 20 -48 11 -18 20 -40 20 -48
0 -8 6 -26 13 -40 72 -133 101 -187 116 -209 65 -97 87 -127 96 -136 6 -5 41
-46 78 -90 100 -120 293 -285 433 -368 77 -45 250 -123 295 -132 19 -3 59 -15
89 -25 30 -11 93 -24 140 -29 47 -6 117 -15 155 -21 49 -7 1097 -9 3430 -7
l3360 2 70 21 c86 26 164 70 243 139 43 37 128 150 154 205 33 69 68 215 68
284 0 108 -54 267 -125 373 -45 65 -183 182 -235 198 -14 4 -39 16 -56 26 -17
11 -60 21 -100 25 -38 4 -1561 7 -3384 8 l-3315 1 -70 25 c-38 14 -85 34 -104
45 -55 32 -149 132 -157 168 -3 18 -15 49 -25 69 -19 36 -19 173 -19 5378 0
5205 0 5342 19 5378 10 20 22 51 25 68 7 33 109 154 129 154 6 0 20 8 31 18
12 10 53 30 91 43 l70 24 3375 5 3375 5 60 28 c33 16 67 32 75 37 8 6 31 18
50 29 50 27 171 157 213 229 20 33 45 98 57 146 16 65 20 108 18 169 -5 93
-32 209 -60 249 -10 14 -18 30 -18 35 0 4 -15 29 -32 54 -110 153 -243 242
-417 278 l-100 21 -3273 -1 c-3110 -1 -3282 -2 -3453 -20z"/>
    <path d="M892 11429 c-100 -15 -219 -86 -283 -168 -54 -72 -69 -100 -98 -181
l-26 -75 0 -1125 0 -1125 24 -75 c13 -41 38 -100 57 -130 44 -74 122 -150 194
-188 106 -57 154 -62 626 -62 481 0 570 8 674 61 75 38 165 128 207 206 24 46
35 82 43 149 7 57 12 478 13 1179 2 873 -1 1103 -11 1154 -15 74 -61 171 -104
220 -33 37 -93 85 -153 120 -78 47 -126 50 -630 49 -258 0 -498 -5 -533 -9z"/>
    <path d="M5683 11430 c-62 -5 -97 -15 -146 -39 -123 -61 -207 -167 -251 -317
l-26 -89 1 -1045 c0 -575 4 -1085 8 -1135 4 -49 16 -119 25 -154 31 -113 124
-230 231 -291 101 -57 130 -60 619 -60 348 0 469 3 549 15 63 10 112 22 127
34 14 10 36 22 49 26 34 10 140 121 163 169 11 23 26 52 33 66 7 14 18 69 24
122 15 132 15 2171 0 2288 -7 62 -20 104 -45 155 -38 78 -59 103 -124 156 -72
57 -140 87 -224 98 -86 12 -878 13 -1013 1z"/>
    <path d="M10425 11426 c-38 -7 -94 -24 -122 -39 -61 -31 -150 -118 -187 -182
-15 -24 -38 -83 -51 -130 l-25 -85 1 -1103 c0 -606 4 -1122 9 -1147 17 -86 38
-146 69 -195 43 -68 128 -154 171 -172 19 -8 42 -21 50 -28 8 -7 52 -21 98
-30 72 -14 142 -16 560 -12 340 3 491 8 527 17 91 23 188 91 250 175 16 22 42
66 57 98 24 51 29 77 37 205 14 201 14 1987 1 2175 -10 138 -13 151 -45 214
-41 79 -123 161 -207 203 -39 20 -84 33 -140 40 -117 14 -963 11 -1053 -4z"/>
    <path d="M15190 11426 c-36 -7 -87 -25 -115 -39 -91 -50 -187 -158 -221 -251
-46 -121 -44 -74 -42 -1296 l3 -1155 23 -47 c12 -26 22 -50 22 -54 0 -20 77
-118 123 -156 89 -75 128 -95 211 -112 64 -13 156 -16 524 -16 498 0 571 7
668 62 29 16 79 57 111 91 56 60 80 100 120 197 17 42 18 104 18 1225 l0 1180
-22 42 c-13 23 -23 50 -23 59 0 29 -67 120 -123 167 -75 63 -142 94 -231 106
-111 16 -961 13 -1046 -3z"/>
    <path d="M19945 11426 c-38 -7 -93 -24 -122 -39 -67 -35 -171 -140 -205 -208
-14 -30 -34 -83 -45 -119 -17 -61 -18 -128 -18 -1200 l0 -1135 24 -70 c13 -38
29 -77 36 -85 7 -8 20 -29 29 -47 23 -45 109 -127 170 -161 100 -57 158 -62
681 -62 400 0 484 3 546 16 41 9 81 22 89 29 8 7 29 19 45 28 39 20 117 97
156 155 18 26 43 80 55 121 l24 74 0 1141 0 1141 -22 75 c-12 41 -32 91 -45
110 -13 19 -23 39 -23 45 0 20 -117 125 -173 154 -36 19 -82 32 -137 40 -116
15 -971 13 -1065 -3z"/>
    <path d="M24710 11425 c-45 -7 -94 -23 -123 -40 -43 -25 -148 -120 -186 -169
-7 -10 -22 -41 -33 -69 -11 -29 -25 -65 -31 -82 -9 -22 -12 -326 -12 -1200 l0
-1170 29 -70 c16 -38 41 -89 57 -112 37 -53 120 -124 185 -156 105 -53 143
-56 651 -57 391 -1 480 2 543 15 41 9 87 25 102 35 15 11 31 20 37 20 5 0 42
35 82 78 56 60 83 98 109 158 l35 79 0 1185 0 1185 -33 74 c-19 40 -49 94 -67
120 -34 47 -129 131 -148 131 -6 0 -18 7 -28 16 -9 8 -52 22 -96 29 -60 11
-185 14 -538 13 -312 0 -484 -4 -535 -13z"/>
    <path d="M29515 11430 c-73 -6 -102 -14 -155 -41 -86 -44 -186 -144 -227 -229
-26 -53 -33 -86 -42 -175 -14 -158 -15 -2135 -1 -2256 14 -118 52 -198 132
-278 56 -56 144 -109 223 -132 28 -9 182 -14 517 -16 411 -4 489 -2 564 12 49
9 100 25 115 36 15 10 32 19 39 19 6 0 38 25 71 57 64 61 114 143 148 241 21
62 21 65 21 1199 0 1128 0 1137 -21 1207 -36 119 -58 159 -130 232 -70 71
-152 110 -260 123 -94 12 -852 12 -994 1z"/>
    <path d="M34267 11429 c-95 -13 -182 -56 -255 -128 -80 -79 -126 -170 -141
-281 -8 -57 -11 -421 -10 -1179 0 -857 3 -1111 13 -1166 7 -38 26 -94 42 -124
30 -57 133 -166 167 -177 12 -4 33 -15 47 -25 14 -10 67 -25 118 -33 73 -13
177 -16 505 -16 226 0 455 5 507 10 74 8 109 17 157 42 75 38 148 105 195 179
19 30 45 88 59 129 l24 75 3 1076 c2 717 0 1100 -7 1145 -34 220 -110 345
-264 433 -49 28 -72 34 -155 42 -124 11 -915 9 -1005 -2z"/>
    <path d="M39042 11428 c-35 -5 -91 -22 -125 -40 -132 -66 -247 -226 -268 -372
-13 -92 -12 -2212 1 -2304 5 -38 22 -94 40 -128 41 -83 133 -182 206 -220 108
-58 172 -64 645 -64 476 0 554 7 655 59 68 35 151 112 198 185 18 28 44 83 57
121 l24 70 0 1140 0 1140 -24 70 c-34 99 -72 162 -133 221 -64 62 -145 107
-216 123 -64 13 -964 13 -1060 -1z"/>
    <path d="M1000 6200 c-34 -4 -91 -24 -145 -51 -72 -35 -106 -60 -170 -124 -61
-60 -90 -99 -117 -155 -39 -80 -78 -240 -78 -320 0 -26 7 -67 15 -90 8 -23 15
-52 15 -64 0 -21 59 -154 80 -179 5 -6 25 -31 44 -55 44 -54 136 -130 200
-165 27 -15 86 -37 130 -50 l81 -22 19425 0 19425 0 89 24 c49 12 101 31 115
41 14 9 49 32 77 49 50 30 127 107 169 167 39 55 67 120 91 212 13 51 24 114
24 141 0 73 -37 236 -67 294 -39 74 -92 145 -155 202 -82 76 -193 131 -288
145 -68 10 -38884 10 -38960 0z"/>
  </g>
</svg>