<svg xmlns="http://www.w3.org/2000/svg" viewBox="0 0 4096.000000 4096.000000">
  <g transform="translate(0.000000,4096.000000) scale(0.100000,-0.100000)" fill="#f4f5f7" stroke="#f4f5f7" stroke-width="40" stroke-linejoin="round" stroke-linecap="round">
    <path d="M28410 39524 c-286 -14 -594 -40 -830 -70 -151 -19 -318 -40 -370
-45 -52 -5 -138 -19 -190 -29 -52 -11 -135 -26 -185 -34 -184 -30 -422 -76
-495 -95 -41 -11 -113 -27 -160 -36 -47 -9 -132 -30 -190 -45 -58 -16 -148
-41 -200 -55 -283 -76 -948 -307 -995 -345 -6 -5 -33 -17 -60 -28 -28 -11
-131 -59 -230 -107 -99 -48 -238 -112 -310 -142 -168 -72 -368 -172 -536 -269
-73 -42 -152 -87 -174 -99 -73 -39 -168 -97 -320 -193 -346 -219 -487 -313
-665 -442 -80 -58 -155 -112 -166 -120 -62 -43 -191 -145 -285 -225 -59 -49
-160 -133 -225 -185 -208 -167 -453 -389 -669 -605 -373 -374 -513 -526 -745
-815 -41 -51 -114 -138 -161 -194 -121 -143 -270 -341 -453 -605 -17 -24 -49
-69 -70 -100 -70 -100 -260 -385 -314 -472 -29 -46 -83 -136 -121 -199 -37
-63 -110 -186 -162 -272 -92 -155 -138 -234 -203 -353 -43 -78 -66 -118 -103
-180 -51 -83 -274 -498 -366 -680 -149 -294 -273 -555 -336 -704 -34 -79 -75
-168 -91 -198 -17 -30 -51 -103 -76 -161 -26 -59 -61 -138 -79 -177 -61 -132
-83 -182 -155 -360 -16 -38 -45 -108 -65 -155 -20 -47 -63 -148 -95 -225 -32
-77 -81 -192 -110 -255 -28 -63 -74 -167 -102 -230 -93 -211 -215 -444 -250
-476 -18 -18 -121 -76 -228 -131 -142 -71 -242 -114 -365 -155 -93 -32 -217
-69 -275 -83 -58 -14 -143 -38 -190 -52 -47 -14 -139 -40 -205 -58 -315 -85
-468 -129 -560 -159 -55 -18 -188 -61 -295 -96 -107 -35 -292 -97 -410 -138
-118 -41 -260 -89 -315 -107 -55 -19 -188 -66 -295 -105 -107 -40 -226 -82
-265 -95 -38 -13 -92 -33 -120 -45 -27 -12 -72 -30 -100 -40 -534 -195 -641
-235 -835 -315 -91 -37 -201 -82 -245 -100 -436 -177 -554 -229 -875 -382 -63
-30 -155 -73 -205 -95 -290 -129 -1072 -512 -1226 -601 -119 -69 -361 -203
-414 -230 -64 -32 -194 -110 -428 -256 -120 -75 -257 -160 -305 -189 -48 -30
-117 -74 -154 -98 -38 -24 -159 -101 -270 -170 -355 -221 -423 -266 -1018
-685 -114 -80 -148 -103 -265 -184 -55 -38 -119 -83 -142 -99 -23 -17 -70 -51
-105 -76 -54 -38 -238 -184 -473 -375 -197 -159 -671 -574 -785 -687 -140
-139 -418 -424 -675 -693 -115 -121 -262 -274 -325 -339 -63 -66 -124 -129
-135 -141 -123 -132 -154 -166 -180 -200 -16 -21 -66 -79 -110 -129 -72 -82
-208 -247 -260 -315 -11 -14 -53 -66 -95 -116 -75 -89 -143 -179 -296 -390
-43 -60 -108 -148 -143 -195 -35 -47 -152 -217 -260 -379 -108 -161 -201 -300
-207 -310 -10 -14 -173 -289 -294 -496 -26 -44 -77 -136 -115 -205 -37 -69
-94 -172 -127 -230 -106 -190 -277 -538 -343 -698 -127 -305 -193 -471 -287
-722 -48 -129 -231 -659 -286 -830 -61 -189 -151 -503 -177 -615 -13 -55 -43
-188 -68 -295 -25 -107 -50 -229 -57 -270 -6 -41 -21 -115 -31 -163 -11 -49
-29 -152 -40 -230 -11 -78 -31 -205 -44 -282 -56 -331 -106 -916 -125 -1460
-14 -399 5 -984 45 -1430 31 -344 56 -566 80 -705 13 -80 31 -200 40 -268 9
-67 34 -209 56 -315 22 -105 46 -223 54 -262 18 -94 122 -542 134 -580 5 -16
26 -86 46 -155 57 -195 125 -402 230 -695 121 -339 222 -595 315 -795 21 -47
70 -154 108 -238 108 -236 463 -918 577 -1107 56 -93 120 -202 143 -241 52
-89 218 -333 327 -478 45 -61 125 -173 176 -248 143 -208 429 -577 538 -693
26 -27 74 -81 106 -120 167 -195 324 -364 560 -601 340 -341 484 -474 820
-759 28 -23 115 -98 195 -166 80 -69 157 -133 171 -144 23 -18 125 -96 283
-219 76 -59 272 -205 351 -261 97 -70 101 -73 206 -142 52 -34 108 -71 124
-83 56 -39 100 -66 340 -209 499 -298 745 -431 1175 -633 236 -112 901 -368
1173 -452 246 -77 656 -185 982 -261 88 -20 183 -43 210 -50 99 -27 503 -104
675 -129 289 -42 609 -85 715 -96 55 -5 226 -19 380 -30 154 -12 336 -25 405
-30 229 -18 821 -23 1105 -11 149 7 311 16 360 21 50 5 176 16 280 25 285 23
324 27 875 106 157 22 624 111 705 133 28 8 115 29 195 46 132 29 365 90 530
139 135 40 397 122 435 135 22 8 130 45 240 84 374 130 661 241 900 350 92 42
401 207 490 262 33 20 94 56 135 80 41 24 143 84 225 133 213 127 250 149 340
197 234 126 516 305 1045 665 124 84 581 405 713 500 41 29 178 136 417 326
63 50 142 111 175 136 73 55 654 549 854 727 81 71 184 166 231 211 87 83 299
281 470 437 207 188 595 585 810 827 46 52 93 104 105 116 22 23 126 149 195
238 25 31 95 118 157 192 61 75 143 177 182 228 39 51 102 133 141 182 39 50
81 106 95 125 72 103 261 365 426 590 47 63 107 146 134 183 49 67 114 119
165 130 14 4 90 13 170 22 80 9 219 25 310 35 91 11 210 24 265 30 109 11 361
48 580 85 77 13 165 26 195 30 30 3 132 19 225 36 94 16 269 44 390 63 240 38
490 79 770 127 327 56 389 68 495 93 58 14 175 42 260 62 315 73 1042 292
1390 418 145 52 264 100 300 120 14 8 60 28 103 45 67 27 310 133 667 291 47
20 119 51 160 68 146 61 286 121 400 172 63 28 136 60 162 71 123 49 552 270
728 374 231 137 491 298 615 381 111 74 326 226 400 283 22 17 107 81 189 142
178 132 357 281 481 398 136 129 319 315 421 426 424 463 674 752 803 925 171
232 487 689 572 828 22 37 59 96 81 132 23 36 69 115 103 175 34 61 84 148
110 195 46 82 222 435 277 556 69 153 94 209 148 344 56 141 142 382 193 545
38 119 94 329 112 420 9 44 25 114 35 155 74 291 179 993 210 1410 17 237 23
822 11 1090 -12 255 -34 483 -76 780 -14 96 -32 225 -41 285 -8 61 -24 148
-34 195 -11 47 -31 155 -45 240 -14 85 -39 211 -55 280 -61 264 -82 375 -78
425 4 52 11 69 70 170 19 33 75 130 125 215 49 85 103 178 120 205 101 166
164 284 317 589 386 770 486 993 633 1401 95 264 235 678 261 770 13 44 34
116 47 160 66 222 217 849 250 1042 14 81 32 176 41 212 15 64 50 310 79 560
69 576 93 1277 60 1741 -27 376 -55 693 -75 850 -12 85 -25 191 -31 235 -6 44
-19 127 -30 185 -11 58 -29 155 -40 215 -26 144 -79 382 -141 630 -27 110 -56
229 -64 264 -8 36 -28 108 -44 160 -16 53 -43 146 -60 206 -18 61 -42 139 -55
175 -13 36 -37 106 -53 155 -117 356 -199 568 -384 990 -159 362 -476 966
-653 1245 -12 19 -41 67 -65 105 -77 125 -85 137 -212 330 -69 105 -152 225
-184 267 -33 42 -98 130 -147 195 -269 364 -553 702 -864 1028 -294 309 -586
600 -724 721 -297 261 -588 498 -801 655 -312 230 -272 201 -554 390 -328 218
-403 263 -703 424 -176 94 -830 415 -847 415 -3 0 -26 10 -52 21 -80 37 -204
90 -267 114 -33 13 -103 39 -155 60 -86 33 -348 127 -490 175 -238 81 -641
199 -840 246 -346 82 -766 168 -870 178 -36 4 -182 22 -325 41 -270 35 -436
50 -640 61 -66 3 -133 8 -150 10 -41 6 -901 12 -995 8z m952 -1684 c97 -6 263
-19 369 -30 217 -23 635 -90 784 -125 55 -13 129 -28 165 -35 211 -37 874
-221 1150 -320 63 -22 158 -56 210 -74 141 -50 343 -129 493 -192 129 -55 494
-236 787 -390 331 -173 752 -443 921 -588 20 -17 67 -53 105 -80 38 -28 96
-71 129 -98 177 -140 248 -197 295 -233 241 -185 343 -278 596 -542 550 -577
587 -617 740 -798 226 -270 338 -419 548 -735 89 -134 208 -324 266 -425 10
-16 57 -95 105 -174 81 -134 286 -530 370 -716 51 -112 176 -419 223 -550 130
-356 218 -618 268 -795 118 -419 147 -531 170 -645 13 -71 33 -166 44 -210 41
-172 50 -229 104 -665 36 -286 45 -408 56 -783 11 -379 0 -911 -26 -1167 -25
-262 -106 -801 -138 -925 -8 -33 -24 -115 -35 -183 -23 -138 -126 -550 -165
-657 -13 -38 -32 -99 -41 -135 -18 -72 -119 -373 -165 -490 -111 -285 -148
-377 -185 -465 -23 -55 -66 -156 -95 -225 -29 -69 -56 -129 -60 -135 -4 -5
-33 -70 -64 -144 -92 -215 -207 -455 -315 -656 -24 -44 -93 -172 -153 -285
-141 -262 -264 -468 -494 -830 -58 -91 -120 -185 -138 -210 -18 -25 -77 -110
-131 -190 -54 -80 -121 -174 -149 -210 -197 -256 -299 -386 -357 -455 -37 -44
-98 -116 -134 -160 -238 -286 -325 -385 -516 -590 -261 -281 -342 -366 -624
-655 -122 -124 -277 -283 -347 -355 -140 -144 -356 -356 -463 -455 -38 -35
-153 -143 -254 -240 -101 -96 -195 -186 -210 -199 -14 -13 -53 -49 -86 -80
-33 -32 -118 -109 -190 -171 -197 -172 -300 -265 -405 -360 -52 -48 -135 -123
-184 -166 -50 -43 -119 -106 -155 -140 -37 -33 -104 -93 -151 -134 -47 -40
-107 -94 -135 -120 -49 -46 -191 -178 -540 -500 -98 -91 -206 -190 -241 -220
-34 -30 -150 -136 -258 -235 -108 -99 -240 -220 -294 -269 -53 -49 -202 -190
-331 -315 -278 -270 -339 -328 -451 -435 -47 -45 -146 -140 -220 -211 -196
-188 -579 -518 -705 -606 -67 -47 -241 -143 -313 -172 -202 -83 -674 -207
-1012 -267 -91 -16 -208 -38 -260 -49 -52 -10 -120 -22 -150 -26 -109 -13
-339 -47 -520 -77 -102 -17 -235 -33 -295 -36 -100 -3 -112 -2 -128 16 -17 18
-17 23 -4 49 24 44 114 149 501 582 77 86 183 203 236 261 345 373 500 542
544 590 58 64 472 504 564 600 110 113 766 771 874 875 114 111 527 506 683
655 55 52 132 124 170 160 39 35 93 85 120 110 28 25 79 72 115 104 36 32 85
77 110 100 25 23 93 85 153 137 59 52 143 126 186 164 247 220 347 311 356
321 6 7 78 71 160 144 83 73 186 167 230 209 44 42 123 114 175 160 52 46 104
93 116 105 12 12 32 30 45 42 13 11 76 67 140 125 63 57 173 156 244 219 71
63 190 171 265 240 75 69 181 165 236 214 96 87 283 261 448 419 44 43 155
146 246 230 322 296 532 519 790 836 41 51 122 150 180 221 58 70 148 181 200
245 52 64 110 135 129 158 60 74 384 513 466 631 11 16 29 41 40 56 51 70 320
476 380 575 100 162 177 291 229 383 88 156 286 560 398 817 53 121 222 530
260 630 17 44 41 107 53 140 35 91 138 402 184 558 23 76 53 191 67 255 63
288 87 407 109 552 14 85 32 193 40 240 15 80 41 306 64 555 6 61 16 202 22
315 15 263 6 861 -15 1070 -33 318 -47 428 -71 550 -13 69 -34 181 -45 250
-43 258 -146 633 -262 955 -79 217 -193 487 -328 770 -24 50 -62 131 -85 180
-54 118 -187 363 -279 517 -151 255 -413 634 -574 831 -26 32 -58 74 -72 92
-14 18 -80 97 -146 176 -269 319 -506 552 -930 911 -199 169 -457 360 -624
463 -19 12 -89 56 -155 97 -212 132 -247 153 -397 236 -177 98 -237 126 -648
310 -333 148 -805 315 -1171 412 -507 135 -655 164 -1199 232 -161 20 -219 22
-725 22 l-550 1 -335 -43 c-300 -39 -420 -59 -774 -132 -211 -43 -697 -192
-882 -271 -256 -107 -456 -200 -644 -296 -296 -152 -308 -159 -500 -272 -334
-197 -667 -431 -957 -673 -78 -66 -175 -149 -215 -186 -40 -37 -116 -105 -168
-152 -195 -175 -378 -367 -608 -638 -471 -554 -608 -737 -813 -1082 -31 -52
-89 -149 -128 -214 -226 -370 -497 -881 -713 -1346 -49 -107 -94 -199 -98
-205 -4 -5 -45 -91 -90 -190 -45 -99 -109 -236 -142 -305 -33 -69 -66 -141
-73 -160 -32 -87 -735 -1505 -845 -1705 -40 -71 -90 -164 -112 -205 -23 -41
-50 -90 -61 -110 -24 -42 -178 -341 -375 -730 -129 -255 -252 -480 -316 -580
-13 -19 -67 -109 -121 -200 -54 -91 -126 -208 -160 -260 -34 -52 -106 -165
-160 -250 -55 -85 -122 -189 -150 -230 -28 -41 -106 -156 -173 -255 -152 -224
-206 -301 -313 -449 -46 -65 -108 -152 -137 -194 -94 -134 -264 -365 -317
-428 -27 -34 -93 -117 -145 -185 -95 -124 -343 -436 -429 -539 -25 -30 -93
-109 -150 -175 -57 -66 -125 -145 -151 -175 -26 -30 -81 -93 -121 -140 -127
-148 -391 -422 -789 -821 -212 -213 -423 -426 -470 -475 -96 -100 -551 -614
-655 -739 -22 -27 -60 -71 -85 -99 -96 -108 -283 -349 -379 -486 -92 -132
-266 -398 -304 -466 -124 -219 -265 -525 -354 -769 -92 -250 -173 -576 -219
-880 -27 -175 -28 -192 -28 -610 -1 -345 3 -463 17 -595 10 -91 20 -172 23
-181 2 -9 11 -52 19 -95 66 -363 163 -699 281 -981 59 -143 188 -388 262 -499
150 -226 408 -539 636 -772 300 -307 621 -549 1119 -848 127 -76 402 -216 572
-292 556 -247 1056 -432 1565 -577 285 -81 678 -179 880 -219 69 -14 175 -36
235 -49 61 -13 166 -34 235 -47 69 -12 168 -31 220 -42 52 -10 174 -32 270
-48 96 -16 211 -36 254 -44 110 -22 973 -143 1071 -151 44 -4 212 -20 374 -36
162 -16 410 -36 550 -44 303 -18 868 -32 1356 -34 538 -2 1376 20 1675 44 102
8 385 33 500 45 114 11 175 16 290 25 78 6 209 22 470 55 353 46 461 61 570
80 63 11 187 31 275 46 167 26 609 111 755 144 47 11 132 29 190 40 287 58
886 203 1100 266 111 33 602 195 705 233 44 16 168 61 275 101 107 39 224 82
260 95 36 13 103 39 150 58 210 86 262 108 278 117 9 5 100 50 202 99 184 90
259 130 397 209 39 23 87 50 105 61 18 10 61 36 95 57 34 22 102 63 150 93 83
51 159 100 382 245 325 210 623 450 897 721 89 88 201 205 250 260 142 161
314 372 396 485 98 137 259 419 369 645 138 283 244 564 380 1005 72 235 142
424 175 477 33 52 142 188 198 248 32 33 99 110 150 170 51 61 212 234 358
385 292 304 580 613 762 820 189 214 226 250 259 250 22 0 31 -7 42 -34 29
-68 39 -253 39 -661 0 -221 -6 -469 -13 -555 -19 -249 -41 -458 -57 -565 -25
-164 -104 -561 -124 -628 -10 -34 -21 -78 -25 -97 -9 -42 -80 -292 -129 -450
-39 -128 -94 -286 -150 -430 -21 -52 -46 -117 -56 -145 -29 -77 -100 -235
-181 -400 -80 -163 -275 -525 -347 -645 -102 -170 -275 -415 -419 -592 -35
-43 -93 -115 -130 -160 -156 -194 -356 -411 -623 -678 -482 -482 -548 -538
-957 -803 -40 -26 -161 -110 -269 -187 -108 -78 -218 -152 -243 -167 -25 -14
-57 -33 -71 -43 -53 -36 -368 -189 -495 -240 -244 -99 -335 -143 -590 -290
-99 -57 -207 -118 -240 -136 -77 -41 -348 -151 -455 -185 -30 -9 -176 -61
-325 -114 -410 -148 -684 -241 -850 -290 -149 -43 -665 -172 -780 -195 -33 -6
-98 -23 -145 -36 -47 -13 -148 -35 -225 -49 -76 -14 -164 -32 -195 -40 -30 -7
-118 -26 -195 -40 -77 -15 -219 -42 -315 -61 -96 -18 -239 -42 -317 -54 -78
-11 -202 -29 -275 -41 -161 -24 -469 -63 -633 -79 -66 -6 -192 -20 -280 -30
-88 -10 -214 -24 -280 -30 -180 -17 -1008 -69 -1275 -81 -129 -5 -667 -13
-1195 -16 -1072 -6 -1366 0 -2075 47 -482 32 -653 48 -915 85 -93 13 -251 33
-350 45 -99 12 -272 35 -385 51 -113 16 -254 36 -315 44 -259 35 -1179 209
-1310 249 -27 8 -106 27 -175 42 -192 41 -714 191 -955 274 -49 17 -124 42
-165 55 -73 22 -299 102 -525 184 -223 80 -581 237 -800 348 -238 122 -421
216 -430 223 -10 7 -58 34 -220 122 -85 47 -248 143 -336 198 -197 124 -469
312 -599 412 -397 308 -501 397 -698 598 -77 78 -285 307 -337 369 -16 20 -57
68 -90 106 -89 103 -161 195 -251 325 -147 211 -229 347 -381 630 -93 173
-122 231 -202 401 -51 110 -126 305 -180 466 -70 210 -165 589 -191 763 -85
572 -95 732 -87 1290 6 397 22 627 57 820 10 58 24 143 30 190 13 94 60 309
110 495 61 231 151 491 282 815 82 201 202 437 327 640 90 147 296 457 379
570 31 41 69 93 84 115 64 87 118 158 218 285 58 72 116 146 130 163 125 160
228 268 999 1042 771 774 1035 1046 1170 1205 58 68 216 253 351 411 365 427
626 742 726 879 39 52 97 131 130 176 174 237 419 614 654 1006 268 447 385
646 623 1063 44 77 108 187 142 245 34 58 79 137 100 175 21 39 78 144 128
235 49 91 156 296 238 457 82 160 162 314 179 342 16 29 30 54 30 58 0 3 15
31 34 62 75 123 286 561 406 842 32 75 63 145 69 155 14 24 71 150 128 284 24
58 59 137 78 175 38 82 68 146 123 270 22 50 61 137 87 195 27 58 76 168 110
245 102 229 268 581 337 715 56 109 160 288 304 525 23 39 84 142 135 230 51
88 100 171 110 185 9 14 54 88 99 165 89 150 188 298 363 545 119 168 158 222
209 288 31 40 59 76 246 311 148 186 311 368 533 595 265 271 459 446 708 641
22 17 86 68 144 115 58 47 127 102 154 122 26 21 102 79 168 130 171 131 164
126 335 241 313 211 693 430 1114 643 261 133 591 265 981 395 317 106 900
263 1110 299 39 7 115 22 170 35 55 13 132 28 170 34 39 6 167 26 285 46 230
37 449 62 650 74 186 12 939 12 1142 1z m2 -3415 c88 -8 223 -26 300 -39 78
-14 168 -28 201 -31 83 -9 298 -57 495 -110 149 -40 399 -125 645 -218 290
-110 537 -235 920 -464 122 -73 254 -159 365 -238 433 -308 587 -442 938 -820
108 -115 211 -225 230 -244 37 -37 183 -219 273 -341 53 -71 100 -142 184
-275 42 -66 217 -398 285 -540 101 -210 144 -303 160 -345 181 -460 248 -675
325 -1045 19 -88 43 -203 55 -255 18 -84 39 -229 70 -480 21 -166 31 -423 31
-770 0 -395 -8 -500 -61 -890 -51 -370 -70 -442 -122 -448 -15 -2 -38 3 -51
10 -24 13 -110 89 -304 270 -175 163 -536 462 -735 610 -361 268 -358 266
-658 465 -293 196 -457 295 -690 417 -223 117 -669 340 -865 433 -166 78 -453
202 -540 234 -27 10 -104 39 -170 64 -141 55 -475 174 -525 187 -19 5 -91 27
-160 48 -289 90 -742 210 -955 253 -38 8 -144 31 -235 50 -300 66 -582 116
-815 147 -126 17 -262 37 -301 44 -72 15 -255 37 -679 81 -362 38 -423 43
-635 54 -406 21 -622 26 -1205 26 -815 0 -1539 -28 -1855 -71 -121 -17 -190
-15 -215 6 -35 29 -16 75 100 245 34 50 84 131 110 180 87 162 263 449 362
590 63 91 342 508 408 610 95 148 155 235 223 325 106 138 358 426 487 555
123 123 362 343 406 372 13 9 49 38 79 63 85 72 225 178 335 255 92 65 145 98
250 162 22 13 63 38 90 55 219 134 507 287 690 366 233 101 551 214 750 267
200 54 380 96 474 111 53 8 141 23 196 34 235 44 497 60 905 54 151 -2 347
-10 434 -19z m-3364 -5770 c313 -14 673 -38 730 -50 14 -3 142 -16 285 -30
143 -14 267 -27 275 -30 8 -2 149 -27 314 -55 278 -47 360 -63 636 -124 129
-29 559 -140 735 -190 268 -77 730 -234 1192 -405 72 -26 244 -97 458 -188
294 -124 802 -378 1005 -500 332 -202 571 -357 702 -457 45 -33 93 -70 108
-81 96 -70 203 -156 332 -265 81 -69 192 -163 248 -210 56 -47 132 -112 168
-145 103 -92 467 -455 504 -502 18 -23 67 -81 108 -129 175 -206 192 -238 172
-325 -24 -102 -256 -501 -469 -804 -15 -22 -68 -99 -117 -170 -189 -276 -215
-303 -276 -290 -30 7 -105 81 -267 265 -143 163 -333 346 -608 585 -57 50
-166 145 -242 212 -76 67 -177 150 -224 185 -48 35 -120 88 -160 119 -70 53
-116 85 -337 236 -52 36 -137 91 -190 122 -54 32 -126 77 -162 99 -36 23 -99
60 -140 83 -41 24 -97 56 -125 71 -93 53 -689 346 -790 388 -119 50 -371 145
-545 207 -484 171 -636 219 -1040 324 -107 28 -249 62 -315 74 -66 13 -158 32
-205 43 -47 12 -164 35 -260 52 -96 17 -220 39 -275 50 -113 23 -188 33 -395
55 -80 9 -185 22 -235 30 -49 7 -151 18 -225 25 -74 6 -184 15 -245 20 -132
12 -354 25 -685 41 -373 18 -1419 7 -1880 -20 -373 -21 -451 -28 -765 -61
-204 -21 -342 -34 -530 -51 -71 -6 -242 -26 -380 -44 -137 -19 -292 -37 -342
-41 -77 -5 -97 -4 -118 10 -47 31 -32 73 87 241 46 66 115 163 153 215 38 52
77 116 87 142 22 59 23 127 2 208 -17 67 -12 124 14 175 8 17 38 62 66 100
113 153 173 244 300 455 101 166 128 194 221 219 22 6 173 20 335 31 162 11
338 25 390 30 195 21 484 40 790 50 173 6 349 12 390 13 41 2 374 4 740 5 445
1 776 -3 1000 -13z m-10166 -1421 c0 -33 -13 -58 -74 -145 -40 -57 -85 -118
-99 -135 -14 -17 -55 -69 -91 -115 -245 -315 -584 -718 -865 -1028 -126 -140
-218 -246 -319 -367 -72 -87 -304 -341 -361 -395 -112 -106 -195 -158 -485
-307 -299 -153 -522 -271 -580 -307 -19 -12 -107 -59 -195 -105 -169 -88 -427
-226 -710 -380 -93 -50 -226 -123 -295 -160 -69 -37 -192 -103 -275 -145 -314
-162 -608 -331 -850 -489 -73 -48 -124 -80 -248 -157 -59 -36 -126 -78 -199
-124 -70 -44 -372 -239 -403 -261 -11 -8 -36 -25 -55 -38 -95 -66 -169 -120
-296 -217 -176 -133 -336 -253 -392 -293 -24 -17 -125 -96 -225 -175 -195
-155 -486 -406 -712 -614 -237 -219 -822 -814 -889 -906 -14 -18 -44 -54 -68
-80 -24 -25 -102 -116 -173 -201 -72 -85 -134 -160 -140 -166 -63 -67 -314
-392 -378 -489 -15 -22 -42 -62 -62 -90 -236 -331 -553 -854 -771 -1275 -113
-219 -313 -657 -400 -880 -25 -63 -63 -158 -84 -210 -88 -219 -237 -671 -324
-985 -136 -494 -185 -698 -227 -947 -16 -101 -39 -226 -49 -278 -19 -94 -49
-318 -70 -521 -19 -186 -28 -578 -19 -800 12 -314 55 -756 93 -974 14 -77 37
-212 51 -300 29 -184 92 -455 199 -870 124 -479 263 -880 437 -1262 10 -23 19
-44 19 -47 0 -3 17 -42 39 -88 21 -46 55 -119 75 -163 20 -44 40 -87 45 -95 4
-8 52 -100 106 -205 110 -214 192 -365 273 -505 48 -83 91 -149 262 -405 31
-46 149 -202 311 -410 76 -98 213 -258 328 -385 150 -165 425 -451 532 -555
270 -260 892 -745 1194 -931 27 -17 92 -56 143 -88 280 -172 785 -443 999
-535 112 -48 338 -139 450 -181 56 -21 107 -41 113 -45 17 -10 312 -112 425
-147 408 -124 777 -216 1120 -278 88 -16 194 -35 235 -44 120 -23 336 -55 450
-66 516 -48 764 -59 1175 -48 336 8 781 39 985 69 395 57 844 153 1205 258
391 113 638 200 1085 383 190 78 263 111 520 236 212 104 491 251 685 362 369
211 519 298 582 339 211 135 284 183 453 299 102 70 212 147 244 172 32 25 73
56 91 70 186 143 367 294 730 612 262 229 655 616 1046 1028 236 250 240 253
286 276 30 15 67 19 173 22 74 3 306 -1 515 -8 209 -7 634 -15 945 -19 429 -5
570 -9 588 -19 12 -7 22 -22 22 -35 0 -32 -49 -111 -126 -202 -113 -135 -256
-299 -271 -311 -7 -7 -60 -64 -116 -127 -109 -123 -480 -518 -687 -731 -104
-107 -643 -643 -715 -712 -106 -100 -676 -596 -784 -681 -36 -29 -105 -85
-154 -124 -48 -39 -129 -103 -180 -141 -50 -39 -115 -89 -142 -113 -57 -49
-238 -182 -438 -323 -76 -53 -170 -120 -210 -149 -102 -74 -305 -209 -422
-283 -93 -58 -156 -99 -245 -155 -19 -13 -56 -34 -81 -48 -25 -13 -77 -44
-115 -67 -246 -152 -670 -371 -1079 -558 -284 -129 -381 -172 -389 -172 -3 0
-63 -24 -133 -54 -131 -56 -339 -133 -428 -159 -27 -8 -68 -22 -90 -31 -48
-21 -394 -123 -595 -177 -80 -21 -219 -54 -309 -74 -90 -19 -207 -46 -260 -59
-53 -13 -154 -34 -226 -45 -71 -12 -177 -33 -235 -46 -58 -13 -211 -40 -340
-59 -129 -20 -269 -42 -311 -50 -161 -31 -451 -56 -887 -77 -445 -21 -1175 0
-1617 46 -242 26 -633 89 -845 136 -74 17 -169 37 -210 44 -90 17 -506 119
-755 186 -340 91 -821 268 -1270 466 -44 20 -100 44 -125 55 -90 40 -637 317
-734 372 -54 31 -100 56 -101 56 -3 0 -156 89 -225 130 -108 66 -443 286 -553
365 -62 44 -125 89 -140 100 -35 25 -328 255 -343 270 -12 12 -69 59 -169 140
-38 32 -153 128 -255 216 -290 248 -853 825 -1090 1119 -25 30 -70 84 -101
120 -69 80 -211 256 -266 330 -23 30 -74 98 -114 150 -39 52 -102 140 -139
195 -196 291 -374 562 -417 635 -26 45 -60 103 -75 129 -15 25 -37 64 -49 86
-12 22 -64 114 -116 203 -128 222 -281 533 -426 862 -102 233 -265 673 -344
930 -55 179 -130 450 -138 500 -3 25 -17 86 -30 135 -13 50 -31 131 -40 180
-9 50 -27 144 -41 210 -36 177 -81 428 -94 525 -6 47 -18 114 -25 150 -18 87
-40 253 -64 490 -33 314 -41 418 -57 735 -12 243 -12 364 -4 640 14 433 56
907 105 1180 14 77 34 194 45 260 33 197 89 464 160 760 16 66 37 152 45 190
48 214 243 850 320 1040 13 33 38 98 56 145 29 76 139 342 220 535 17 39 43
98 60 133 16 34 29 65 29 68 0 15 171 352 260 514 57 102 127 230 155 285 29
55 68 124 86 153 19 28 46 71 60 95 107 177 270 431 384 600 109 161 519 733
679 947 110 147 452 562 491 595 6 6 51 54 98 108 268 301 609 648 807 820 58
50 134 118 170 151 36 34 142 126 235 206 293 251 482 405 715 580 91 69 210
158 265 200 148 112 258 188 603 420 318 213 497 328 742 473 358 212 482 283
695 397 127 68 295 160 375 205 152 86 745 386 1230 623 332 163 539 262 544
262 3 0 74 31 158 69 84 38 198 88 253 111 54 23 117 50 140 60 22 10 67 30
100 44 33 13 121 50 195 81 74 31 171 70 215 87 44 17 172 70 285 116 113 47
243 100 290 118 47 18 139 53 205 79 125 49 389 143 560 200 112 37 686 234
755 260 111 41 208 64 255 62 l50 -2 -1 -41z m9716 -1943 c447 -16 657 -31
895 -61 83 -11 226 -29 318 -40 140 -18 498 -86 993 -190 146 -31 578 -138
709 -177 379 -110 733 -248 1090 -423 196 -96 591 -318 730 -410 162 -107 306
-208 397 -279 167 -130 340 -273 408 -337 36 -33 90 -83 120 -110 68 -61 287
-273 345 -334 172 -181 404 -485 427 -562 9 -31 8 -43 -11 -80 -13 -27 -104
-127 -244 -269 -122 -124 -265 -265 -317 -315 -53 -49 -143 -134 -201 -189
-57 -55 -152 -143 -209 -196 -58 -53 -132 -122 -165 -154 -100 -96 -520 -471
-675 -603 -30 -26 -115 -101 -190 -167 -75 -66 -158 -138 -185 -160 -27 -22
-57 -47 -66 -56 -31 -30 -261 -233 -415 -365 -218 -188 -629 -553 -774 -688
-30 -28 -89 -81 -130 -116 -41 -36 -122 -107 -179 -160 -58 -52 -112 -102
-121 -110 -35 -32 -190 -179 -300 -285 -63 -61 -162 -153 -220 -205 -137 -123
-990 -977 -1099 -1100 -46 -52 -141 -156 -210 -230 -118 -126 -311 -339 -425
-469 -27 -31 -88 -99 -136 -151 -216 -235 -761 -869 -890 -1036 -25 -32 -97
-119 -160 -194 -124 -147 -293 -355 -344 -422 -17 -23 -42 -56 -56 -73 -24
-31 -153 -199 -195 -254 -24 -31 -201 -249 -251 -309 -20 -23 -58 -54 -85 -68
-28 -14 -81 -29 -122 -34 -39 -5 -162 -9 -272 -10 -315 0 -977 18 -1245 35
-228 14 -304 21 -640 60 -69 8 -177 20 -240 25 -63 6 -185 22 -270 36 -85 13
-211 33 -280 44 -69 11 -206 31 -305 45 -99 14 -195 29 -214 35 -19 5 -118 21
-219 35 -199 28 -687 125 -878 175 -453 119 -1116 321 -1329 405 -144 57 -244
101 -450 198 -152 71 -317 156 -395 202 -30 18 -91 52 -135 75 -44 24 -91 51
-105 60 -14 9 -63 42 -110 73 -235 156 -317 224 -526 432 -190 189 -301 326
-424 525 -142 229 -232 466 -294 772 -34 170 -46 306 -46 528 1 293 21 452 95
750 66 261 141 465 253 681 108 210 242 422 366 583 34 44 80 104 104 135 105
139 245 291 437 476 115 110 283 272 374 359 91 88 220 214 286 280 129 129
516 532 631 656 38 41 101 108 140 150 39 41 93 100 120 130 27 30 108 118
179 195 248 268 335 366 581 666 263 321 475 600 620 819 55 81 226 333 288
423 94 135 256 378 303 454 24 37 86 138 139 223 53 85 108 168 123 184 14 16
44 37 66 46 22 10 92 26 154 35 63 9 176 28 250 41 75 13 210 36 301 49 90 14
192 32 227 40 35 8 116 22 181 30 64 8 171 24 237 35 225 37 498 73 686 90 68
6 237 22 374 35 422 41 846 63 1520 79 219 5 994 -3 1285 -13z m-14462 -3939
c10 -7 9 -17 -3 -51 -15 -43 -43 -98 -200 -386 -93 -172 -283 -555 -314 -633
-12 -29 -32 -74 -45 -100 -29 -58 -143 -362 -185 -495 -65 -205 -101 -427
-123 -754 -17 -262 -18 -1852 -1 -2098 20 -276 59 -592 98 -775 60 -287 84
-391 99 -434 9 -22 27 -84 41 -136 47 -171 159 -500 215 -630 10 -25 42 -101
71 -170 69 -169 111 -264 176 -399 59 -122 175 -334 228 -416 18 -27 67 -104
110 -170 42 -66 82 -128 88 -137 74 -106 154 -220 175 -249 15 -20 49 -68 76
-105 68 -94 123 -165 245 -313 189 -228 615 -671 831 -865 228 -205 563 -471
792 -628 46 -32 140 -97 210 -145 194 -134 324 -216 548 -346 264 -154 273
-159 540 -292 302 -151 447 -219 630 -298 58 -25 139 -61 180 -80 69 -31 128
-55 490 -197 379 -149 958 -334 1375 -439 375 -94 440 -110 625 -146 102 -20
248 -49 325 -65 77 -16 186 -36 242 -45 55 -8 139 -23 185 -34 45 -11 155 -34
243 -51 88 -18 169 -37 180 -43 27 -14 35 -27 35 -60 0 -31 -41 -75 -213 -231
-159 -144 -569 -479 -897 -732 -127 -98 -414 -291 -665 -448 -33 -20 -87 -54
-120 -76 -63 -40 -172 -107 -227 -139 -18 -10 -99 -57 -180 -104 -214 -124
-511 -268 -883 -426 -228 -96 -335 -133 -790 -272 -325 -98 -621 -169 -815
-194 -641 -82 -769 -90 -1255 -81 -192 3 -401 10 -464 15 -172 15 -513 67
-721 111 -311 67 -412 90 -495 115 -44 13 -132 38 -195 55 -271 75 -987 355
-1370 536 -328 155 -772 435 -1120 709 -192 150 -481 405 -619 545 -89 91
-321 346 -376 415 -22 27 -64 76 -93 109 -59 67 -242 309 -352 466 -69 99
-104 154 -223 345 -271 434 -514 955 -702 1505 -29 85 -64 187 -78 225 -97
271 -191 634 -227 882 -55 372 -77 630 -86 1003 -4 204 -3 360 5 470 22 309
81 739 127 927 35 143 115 439 160 587 53 179 207 635 259 771 26 66 55 143
65 170 21 56 95 237 162 395 48 112 242 509 307 625 227 412 224 406 262 462
16 23 29 44 29 47 0 13 289 440 363 536 136 177 249 320 312 395 33 40 74 89
90 110 64 81 246 287 382 431 191 204 549 549 763 735 96 84 180 157 186 163
6 6 33 29 60 51 26 22 77 65 113 96 127 108 360 277 646 470 127 85 253 171
280 190 147 102 363 229 389 229 6 0 17 -4 24 -8z"/>
  </g>
</svg>