<svg xmlns="http://www.w3.org/2000/svg" viewBox="0 0 4096.000000 4096.000000">
  <g transform="translate(0.000000,4096.000000) scale(0.100000,-0.100000)" fill="#f4f5f7" stroke="none">
    <path d="M24715 40293 c-290 -6 -851 -37 -930 -50 -142 -23 -202 -31 -325 -43
-63 -7 -146 -20 -185 -30 -38 -11 -125 -26 -193 -35 -68 -9 -144 -24 -170 -34
-26 -10 -80 -24 -119 -30 -40 -6 -93 -18 -117 -26 -24 -8 -91 -25 -148 -36
-57 -12 -115 -28 -130 -35 -15 -8 -60 -21 -100 -28 -40 -8 -94 -23 -119 -34
-25 -11 -72 -25 -105 -32 -32 -7 -72 -19 -88 -27 -16 -8 -63 -26 -105 -39
-143 -44 -256 -84 -291 -103 -19 -10 -52 -22 -73 -25 -20 -4 -65 -20 -100 -36
-34 -17 -69 -30 -78 -30 -9 0 -41 -13 -72 -30 -31 -16 -62 -30 -69 -30 -7 0
-44 -16 -82 -35 -39 -19 -77 -35 -85 -35 -9 0 -36 -14 -60 -30 -24 -17 -50
-30 -57 -30 -12 0 -119 -50 -184 -86 -14 -7 -53 -27 -86 -43 -34 -16 -64 -34
-68 -39 -3 -6 -23 -16 -44 -23 -20 -6 -44 -18 -53 -25 -9 -8 -42 -28 -75 -46
-128 -68 -143 -76 -171 -95 -15 -10 -44 -27 -63 -36 -19 -10 -58 -32 -86 -50
-28 -18 -65 -41 -83 -52 -18 -11 -47 -30 -65 -42 -17 -12 -49 -32 -71 -44 -22
-12 -52 -31 -66 -43 -15 -11 -39 -29 -55 -38 -16 -10 -49 -31 -74 -48 -25 -17
-58 -38 -73 -48 -16 -9 -48 -32 -70 -49 -23 -18 -47 -33 -53 -33 -6 0 -19 -9
-30 -21 -10 -12 -35 -30 -54 -40 -61 -34 -115 -73 -257 -187 -39 -31 -97 -77
-128 -102 -31 -25 -78 -65 -103 -88 -26 -24 -63 -56 -82 -70 -19 -15 -62 -52
-95 -82 -384 -356 -458 -428 -644 -630 -123 -135 -344 -395 -380 -448 -14 -20
-51 -71 -82 -112 -32 -41 -71 -92 -86 -113 -15 -20 -41 -55 -58 -77 -16 -22
-46 -63 -65 -91 -19 -28 -46 -65 -60 -82 -14 -17 -34 -45 -45 -62 -11 -18 -42
-66 -70 -108 -27 -41 -59 -90 -70 -108 -11 -18 -35 -55 -52 -83 -18 -28 -42
-70 -53 -93 -11 -23 -25 -45 -31 -48 -5 -4 -24 -33 -42 -66 -17 -33 -49 -90
-69 -127 -20 -37 -46 -86 -57 -110 -11 -23 -32 -59 -46 -79 -14 -21 -25 -44
-25 -52 0 -8 -13 -35 -29 -60 -16 -25 -32 -57 -36 -71 -4 -14 -16 -37 -27 -52
-10 -15 -23 -42 -29 -60 -10 -32 -18 -50 -93 -208 -19 -41 -38 -88 -42 -104
-4 -17 -20 -54 -36 -84 -15 -30 -28 -61 -28 -71 0 -9 -13 -41 -29 -71 -16 -30
-32 -71 -36 -90 -4 -19 -18 -55 -31 -80 -13 -25 -28 -67 -34 -95 -6 -27 -19
-63 -30 -80 -10 -16 -26 -59 -35 -95 -9 -35 -23 -77 -31 -92 -8 -15 -21 -58
-30 -95 -8 -37 -24 -86 -34 -108 -10 -23 -24 -72 -31 -111 -6 -38 -20 -85 -29
-104 -10 -19 -25 -75 -34 -123 -10 -49 -25 -110 -35 -135 -10 -26 -24 -87 -31
-137 -7 -49 -21 -112 -31 -140 -10 -27 -25 -97 -33 -155 -8 -58 -22 -124 -30
-147 -8 -23 -20 -80 -26 -125 -6 -46 -22 -133 -36 -195 -13 -61 -28 -162 -34
-225 -5 -62 -19 -167 -29 -233 -26 -161 -30 -196 -41 -435 -9 -179 -31 -415
-45 -490 -3 -14 -9 -113 -15 -220 -6 -107 -21 -271 -35 -365 -13 -93 -27 -215
-30 -270 -4 -55 -18 -147 -30 -205 -13 -58 -29 -150 -35 -204 -6 -54 -21 -142
-34 -195 -14 -53 -28 -123 -31 -156 -4 -33 -15 -82 -26 -110 -10 -27 -28 -94
-39 -148 -11 -53 -26 -110 -34 -125 -8 -15 -20 -57 -26 -92 -6 -36 -22 -90
-35 -120 -13 -30 -29 -75 -35 -100 -7 -25 -20 -60 -31 -78 -10 -18 -22 -52
-25 -75 -4 -23 -18 -64 -31 -92 -14 -27 -32 -72 -40 -100 -8 -27 -21 -57 -28
-65 -7 -8 -20 -40 -29 -70 -9 -30 -27 -71 -40 -91 -14 -20 -29 -54 -35 -76 -6
-22 -19 -51 -29 -64 -10 -13 -25 -40 -32 -59 -13 -31 -55 -110 -129 -241 -14
-26 -37 -66 -50 -90 -13 -24 -34 -58 -47 -76 -13 -17 -24 -35 -24 -40 0 -8
-64 -109 -98 -153 -10 -14 -24 -35 -31 -47 -12 -24 -114 -164 -178 -247 -64
-82 -158 -183 -357 -382 -231 -231 -493 -459 -645 -564 -29 -19 -70 -50 -92
-67 -23 -18 -47 -33 -53 -33 -7 0 -21 -9 -32 -21 -10 -11 -34 -27 -54 -35 -19
-8 -44 -23 -55 -33 -31 -27 -178 -115 -260 -155 -28 -13 -57 -31 -64 -39 -7
-9 -34 -23 -61 -32 -27 -9 -54 -22 -60 -30 -6 -8 -33 -22 -58 -31 -26 -10 -59
-26 -74 -36 -15 -10 -47 -25 -72 -32 -25 -8 -57 -23 -71 -35 -15 -11 -43 -23
-64 -27 -20 -4 -65 -22 -100 -40 -35 -19 -71 -34 -80 -34 -9 0 -36 -11 -61
-24 -25 -13 -69 -29 -98 -35 -29 -6 -69 -19 -90 -30 -20 -10 -64 -24 -97 -31
-33 -7 -80 -22 -105 -35 -25 -12 -69 -25 -99 -29 -29 -4 -82 -18 -117 -31 -35
-13 -96 -28 -136 -34 -40 -6 -100 -20 -133 -31 -33 -11 -109 -27 -170 -36 -60
-8 -130 -21 -155 -30 -25 -8 -106 -21 -180 -30 -74 -8 -166 -19 -205 -25 -38
-6 -97 -15 -130 -20 -33 -5 -242 -18 -465 -29 -223 -11 -506 -27 -630 -35
-124 -8 -306 -19 -405 -25 -99 -5 -245 -20 -325 -34 -80 -13 -184 -27 -231
-31 -47 -3 -124 -15 -170 -26 -46 -11 -136 -27 -200 -34 -64 -8 -136 -22 -160
-30 -24 -9 -94 -25 -156 -36 -63 -11 -132 -27 -154 -34 -22 -8 -79 -22 -126
-31 -47 -8 -104 -24 -127 -33 -22 -10 -71 -23 -107 -30 -37 -6 -87 -20 -111
-31 -25 -11 -76 -27 -113 -35 -37 -9 -84 -24 -104 -34 -20 -10 -61 -24 -91
-30 -30 -6 -87 -25 -127 -41 -39 -17 -82 -30 -95 -30 -13 0 -38 -9 -56 -20
-19 -12 -59 -27 -89 -35 -31 -8 -71 -24 -90 -35 -19 -11 -55 -25 -81 -32 -26
-6 -58 -19 -72 -29 -14 -9 -52 -25 -85 -34 -33 -10 -71 -25 -85 -35 -14 -9
-47 -24 -74 -33 -27 -10 -56 -23 -65 -31 -9 -7 -34 -19 -56 -26 -22 -7 -56
-22 -75 -34 -19 -13 -53 -29 -75 -36 -22 -7 -47 -19 -56 -27 -9 -8 -41 -23
-70 -34 -30 -12 -60 -26 -68 -32 -8 -7 -39 -25 -70 -40 -70 -36 -148 -78 -226
-122 -33 -19 -83 -45 -112 -59 -28 -14 -54 -30 -58 -36 -4 -6 -31 -22 -60 -34
-29 -13 -56 -29 -59 -35 -4 -6 -26 -21 -49 -33 -23 -11 -54 -30 -68 -42 -15
-11 -39 -29 -55 -38 -34 -21 -88 -57 -168 -113 -32 -22 -73 -49 -90 -60 -18
-11 -47 -31 -64 -45 -17 -14 -52 -41 -78 -60 -25 -19 -64 -48 -85 -65 -21 -16
-57 -43 -79 -60 -128 -95 -207 -158 -338 -268 -199 -168 -251 -216 -432 -397
-268 -268 -431 -444 -535 -575 -22 -27 -67 -82 -100 -121 -58 -68 -161 -200
-198 -254 -9 -14 -31 -43 -48 -65 -16 -22 -50 -69 -74 -105 -24 -36 -58 -83
-74 -105 -17 -22 -39 -56 -50 -75 -10 -19 -43 -72 -73 -116 -29 -45 -62 -96
-73 -115 -11 -18 -35 -55 -52 -83 -18 -28 -42 -70 -53 -92 -11 -23 -27 -47
-36 -55 -8 -7 -27 -33 -40 -58 -14 -25 -40 -73 -59 -106 -19 -33 -47 -85 -63
-115 -17 -30 -39 -73 -51 -95 -11 -21 -21 -44 -21 -50 0 -6 -11 -26 -25 -45
-13 -18 -30 -49 -36 -69 -6 -20 -18 -43 -26 -52 -8 -9 -23 -41 -34 -70 -11
-29 -28 -64 -38 -78 -10 -14 -24 -44 -31 -66 -7 -22 -23 -56 -36 -75 -13 -19
-26 -48 -30 -64 -4 -17 -20 -54 -36 -84 -15 -30 -28 -61 -28 -71 -1 -9 -14
-41 -30 -71 -17 -30 -30 -64 -30 -76 0 -12 -11 -42 -25 -68 -13 -25 -32 -72
-41 -104 -9 -31 -23 -68 -30 -82 -16 -28 -65 -169 -95 -275 -11 -38 -29 -90
-40 -115 -11 -25 -24 -69 -29 -98 -5 -29 -20 -81 -34 -115 -13 -34 -27 -84
-31 -112 -4 -27 -18 -75 -30 -105 -12 -30 -28 -92 -34 -138 -7 -45 -20 -106
-31 -136 -10 -30 -24 -88 -30 -130 -6 -41 -20 -99 -30 -128 -10 -29 -25 -102
-34 -162 -9 -60 -25 -143 -36 -185 -10 -42 -26 -148 -34 -236 -9 -88 -22 -195
-31 -239 -15 -78 -23 -195 -46 -646 -12 -248 -9 -594 10 -1025 11 -254 16
-305 45 -470 8 -44 19 -138 26 -210 6 -71 20 -161 30 -200 11 -38 26 -125 35
-193 8 -68 22 -140 31 -160 8 -20 22 -82 31 -137 8 -55 24 -121 34 -148 10
-26 24 -80 30 -120 6 -39 20 -92 31 -117 10 -25 25 -78 33 -117 8 -40 23 -94
35 -120 12 -27 24 -68 27 -93 3 -25 18 -76 34 -115 15 -38 30 -90 34 -114 4
-24 20 -71 36 -105 16 -34 29 -70 29 -82 0 -12 11 -42 25 -68 13 -25 32 -72
41 -103 9 -31 27 -77 40 -101 13 -25 24 -54 24 -66 0 -12 14 -43 30 -71 16
-27 30 -57 30 -66 0 -10 13 -42 29 -72 16 -30 36 -77 45 -105 10 -28 23 -56
31 -62 8 -6 21 -35 29 -65 9 -29 22 -58 30 -64 8 -7 22 -35 31 -62 9 -27 21
-52 27 -55 6 -4 21 -32 35 -63 14 -31 31 -63 39 -71 7 -9 20 -36 29 -60 9 -24
22 -51 29 -60 14 -15 48 -74 90 -155 12 -23 31 -54 42 -70 12 -17 25 -40 28
-53 4 -12 18 -35 32 -51 13 -16 31 -44 38 -63 8 -18 26 -48 40 -67 14 -19 26
-40 26 -47 0 -6 14 -28 30 -49 17 -21 30 -43 30 -50 0 -6 11 -27 25 -46 45
-60 74 -103 96 -144 12 -22 33 -54 48 -72 43 -51 88 -116 105 -150 9 -18 21
-33 26 -33 6 0 18 -16 27 -35 9 -19 20 -35 24 -35 4 0 21 -21 38 -47 17 -27
46 -67 63 -89 18 -23 47 -59 63 -81 110 -143 329 -401 421 -496 11 -12 81 -87
154 -167 190 -207 223 -240 440 -440 107 -99 206 -191 220 -204 37 -35 189
-165 254 -216 124 -98 316 -245 352 -270 12 -8 50 -36 85 -63 82 -61 127 -93
163 -114 16 -10 43 -30 60 -44 17 -15 41 -29 54 -33 12 -4 36 -19 53 -33 17
-15 43 -34 59 -42 44 -26 90 -54 124 -78 17 -11 67 -42 111 -68 44 -27 91 -55
104 -64 55 -38 129 -82 176 -106 28 -14 77 -41 110 -60 33 -19 76 -42 95 -51
19 -9 49 -23 65 -32 95 -50 153 -81 180 -95 17 -9 37 -17 46 -17 8 0 35 -13
60 -29 25 -15 63 -34 85 -41 21 -7 48 -19 59 -26 11 -7 41 -20 65 -28 25 -9
68 -27 95 -40 134 -66 203 -96 221 -96 10 0 38 -11 61 -24 23 -13 67 -32 97
-40 31 -9 70 -25 88 -36 19 -10 58 -24 88 -31 30 -6 69 -19 85 -29 17 -10 57
-23 90 -30 33 -6 85 -22 115 -35 30 -13 81 -29 113 -35 32 -7 77 -20 100 -30
23 -10 78 -26 122 -35 44 -9 90 -22 101 -30 12 -8 62 -21 110 -28 49 -8 106
-22 127 -31 21 -8 86 -25 145 -36 58 -11 127 -28 152 -36 25 -9 86 -20 135
-26 50 -5 133 -20 185 -33 52 -13 145 -28 207 -34 61 -6 160 -20 220 -31 128
-24 313 -35 878 -51 396 -11 443 -11 820 10 220 12 423 26 450 31 95 17 260
39 345 45 47 3 123 15 170 26 46 11 129 26 185 35 55 8 127 23 160 34 33 11
94 25 135 31 41 6 91 18 110 26 19 8 79 23 133 34 54 10 110 25 125 33 15 8
67 24 115 35 48 11 100 27 115 35 15 7 54 19 87 26 33 7 77 21 98 31 20 11 65
27 100 35 34 9 75 23 91 31 16 8 60 24 98 34 38 11 79 26 91 33 12 8 48 21 79
30 32 9 79 28 104 41 26 14 55 25 64 25 9 0 42 14 73 30 31 17 63 30 70 30 7
0 44 16 83 35 38 19 76 35 85 35 9 0 32 11 51 24 20 13 53 29 74 36 22 7 55
24 74 36 19 13 39 24 44 24 15 0 214 99 221 110 3 4 22 14 43 21 20 7 51 22
67 34 17 13 50 32 75 44 25 12 74 39 110 61 36 22 79 46 96 54 18 9 45 26 60
39 16 13 41 30 56 38 15 8 61 38 103 66 41 29 80 53 85 53 5 0 24 13 42 29 18
15 47 36 63 45 34 19 83 52 135 91 19 15 49 35 65 46 17 10 50 35 75 54 25 19
59 44 75 54 17 11 41 29 55 40 14 11 56 43 93 70 169 124 452 374 778 685 120
116 390 402 481 511 46 55 92 111 103 124 39 47 90 109 105 127 8 11 33 42 55
69 22 27 47 59 55 71 8 12 56 76 105 142 50 66 106 143 125 172 19 28 42 60
51 70 10 10 42 56 73 101 30 46 65 95 76 109 11 14 20 30 20 37 0 6 11 24 24
40 13 15 33 46 45 68 12 22 40 69 61 105 21 36 52 90 69 120 32 57 47 85 92
160 15 25 30 56 34 70 4 14 18 41 31 60 13 19 29 51 35 70 7 19 20 45 30 58
10 13 23 39 30 59 6 20 22 51 35 70 12 19 28 51 35 71 6 20 20 48 29 62 9 14
23 43 30 65 6 22 23 57 36 78 14 20 27 52 31 70 3 17 19 56 35 86 15 30 28 62
28 71 0 9 13 41 29 71 15 30 32 70 36 89 4 19 20 62 36 95 16 33 29 69 29 81
0 11 12 43 26 70 15 27 33 75 40 107 8 32 22 74 33 95 10 20 24 64 31 97 7 33
21 77 31 97 10 20 24 69 30 110 6 40 22 104 35 141 12 37 28 100 33 140 6 40
19 93 30 117 10 25 26 95 35 155 8 61 24 137 35 170 11 33 25 99 31 147 6 48
19 120 29 160 10 40 24 127 31 193 6 66 16 139 21 163 18 83 38 259 44 392 3
74 12 189 20 255 25 206 34 315 40 475 8 202 22 365 40 465 8 44 19 141 25
215 6 74 17 164 25 200 26 125 33 166 45 263 6 54 20 123 31 154 10 30 23 93
29 140 6 46 21 119 34 161 13 42 29 107 35 144 6 37 20 88 31 112 10 25 24 74
30 108 7 35 19 79 27 98 9 19 26 71 38 115 12 44 31 103 42 130 11 28 28 73
38 100 62 180 75 214 94 250 12 21 21 48 21 58 0 11 13 43 29 71 16 28 32 65
35 81 4 17 18 46 30 65 13 19 27 46 31 60 4 14 20 48 35 75 15 28 31 61 35 75
4 14 16 34 26 45 10 11 25 39 32 60 8 22 25 57 38 77 13 19 33 51 44 69 11 19
31 52 45 75 14 22 34 55 45 73 11 19 34 54 51 80 17 25 37 58 45 72 16 30 75
116 118 174 17 22 38 51 48 65 131 183 245 313 503 570 227 228 267 263 500
445 117 92 257 189 325 226 22 12 54 32 72 45 17 13 36 24 40 24 5 0 25 11 44
26 19 14 52 34 74 45 22 11 67 35 100 54 33 19 88 47 121 64 34 16 64 34 68
39 3 6 28 18 55 27 26 8 63 27 81 40 19 14 42 25 51 25 9 0 42 13 72 29 30 16
71 34 92 41 20 7 55 23 78 36 23 13 49 24 57 24 8 0 42 13 75 28 33 16 81 34
107 40 26 7 62 21 80 31 18 11 51 23 73 26 22 4 69 20 105 35 36 16 88 31 115
35 28 4 75 18 106 31 31 13 84 28 118 33 34 6 94 21 134 35 40 14 104 28 142
32 39 4 97 17 130 29 34 13 109 27 175 34 63 7 138 18 165 26 58 16 160 30
375 50 85 8 212 21 281 29 69 7 206 17 305 20 290 11 522 26 629 41 55 7 152
16 216 20 127 6 132 4 144 -50 4 -17 13 -48 22 -69 8 -22 19 -65 25 -95 5 -31
18 -72 29 -93 10 -20 26 -83 34 -140 8 -57 24 -132 35 -168 10 -36 24 -114 30
-175 5 -60 19 -146 31 -190 17 -70 21 -123 26 -415 6 -358 -3 -542 -37 -735
-10 -60 -22 -145 -25 -187 -4 -43 -15 -106 -26 -140 -11 -35 -26 -108 -34
-162 -9 -55 -24 -119 -35 -144 -11 -24 -24 -71 -29 -102 -5 -32 -17 -72 -26
-90 -9 -17 -24 -64 -35 -103 -10 -40 -30 -97 -44 -127 -14 -30 -26 -64 -26
-74 0 -11 -13 -49 -29 -85 -48 -111 -73 -173 -95 -237 -12 -33 -28 -71 -37
-85 -9 -13 -22 -42 -29 -64 -6 -22 -23 -56 -35 -76 -13 -20 -28 -54 -34 -76
-6 -22 -20 -52 -31 -66 -11 -14 -26 -38 -33 -54 -13 -29 -55 -104 -92 -163
-12 -19 -41 -69 -65 -110 -24 -41 -60 -100 -79 -131 -20 -30 -47 -75 -61 -98
-75 -127 -176 -283 -380 -585 -73 -109 -280 -384 -352 -468 -31 -37 -62 -77
-69 -89 -6 -12 -48 -66 -93 -119 -44 -53 -112 -136 -151 -184 -38 -48 -113
-138 -165 -200 -52 -62 -124 -150 -160 -195 -68 -87 -118 -150 -160 -202 -14
-17 -34 -43 -45 -59 -11 -15 -47 -66 -80 -111 -32 -46 -65 -88 -72 -94 -6 -5
-35 -41 -63 -80 -53 -73 -72 -97 -130 -169 -19 -24 -43 -56 -52 -72 -10 -16
-45 -65 -78 -109 -53 -69 -216 -312 -328 -485 -19 -30 -43 -67 -54 -82 -10
-15 -29 -47 -42 -70 -58 -106 -81 -145 -103 -171 -13 -16 -23 -34 -23 -41 0
-8 -9 -25 -20 -39 -19 -23 -37 -56 -105 -182 -15 -27 -33 -57 -40 -65 -18 -21
-165 -310 -165 -324 0 -7 -11 -27 -24 -45 -14 -19 -28 -48 -32 -65 -3 -17 -19
-54 -35 -82 -16 -28 -29 -58 -29 -67 0 -8 -13 -40 -29 -70 -16 -30 -32 -70
-36 -89 -4 -18 -20 -60 -36 -93 -16 -33 -29 -68 -29 -78 0 -10 -13 -43 -29
-75 -16 -31 -32 -77 -36 -102 -4 -25 -17 -68 -30 -95 -13 -28 -31 -81 -39
-118 -9 -37 -23 -81 -31 -97 -8 -16 -22 -62 -29 -102 -8 -40 -23 -93 -34 -118
-10 -25 -22 -67 -26 -95 -5 -27 -19 -84 -32 -126 -13 -42 -31 -116 -39 -165
-9 -49 -22 -110 -31 -135 -8 -25 -21 -99 -29 -163 -8 -65 -24 -157 -35 -204
-12 -48 -26 -143 -31 -212 -5 -69 -16 -159 -23 -200 -25 -130 -35 -274 -47
-645 -15 -481 2 -1034 40 -1249 11 -61 25 -172 31 -246 6 -74 22 -184 35 -245
13 -60 28 -151 34 -201 6 -50 20 -116 30 -147 11 -30 25 -90 31 -132 6 -43 20
-97 31 -121 10 -24 25 -81 33 -127 8 -45 24 -104 34 -132 11 -27 25 -77 32
-110 7 -33 21 -77 32 -98 10 -21 23 -63 29 -94 6 -31 21 -79 33 -107 13 -28
26 -69 30 -91 4 -22 21 -67 37 -100 16 -33 29 -69 29 -80 0 -11 12 -45 26 -75
14 -30 33 -76 40 -103 8 -26 23 -62 34 -80 10 -17 24 -52 30 -76 6 -24 22 -60
35 -80 13 -20 26 -51 30 -70 4 -19 20 -54 36 -79 16 -25 29 -52 29 -60 0 -8
11 -35 24 -61 14 -25 34 -66 45 -91 11 -25 26 -56 35 -70 8 -14 23 -43 34 -65
20 -41 65 -126 122 -230 18 -33 46 -85 62 -115 46 -86 92 -166 109 -191 9 -13
35 -58 59 -99 24 -41 54 -88 67 -103 13 -16 23 -34 23 -40 0 -7 15 -31 33 -54
17 -22 41 -56 52 -74 53 -86 84 -132 130 -192 28 -36 85 -112 127 -169 154
-205 229 -301 273 -353 11 -13 40 -49 65 -81 25 -31 68 -84 95 -118 28 -33 58
-72 68 -85 9 -14 56 -67 104 -120 107 -116 545 -556 628 -631 379 -342 615
-538 787 -654 20 -14 39 -30 42 -35 4 -6 44 -35 89 -66 117 -79 147 -101 187
-130 59 -44 103 -73 142 -94 20 -12 40 -25 43 -31 3 -6 25 -20 48 -32 23 -11
53 -29 67 -40 47 -36 130 -88 139 -88 5 0 23 -11 39 -25 17 -14 47 -32 69 -41
21 -9 51 -27 66 -40 16 -13 34 -24 41 -24 7 0 28 -12 47 -26 19 -14 52 -35 74
-46 22 -11 72 -37 110 -58 39 -22 86 -46 105 -55 19 -8 46 -22 60 -29 55 -32
227 -116 236 -116 5 0 25 -11 44 -24 19 -12 52 -29 74 -36 21 -7 63 -25 93
-41 30 -16 61 -29 69 -29 8 0 32 -11 53 -24 21 -14 58 -30 82 -36 24 -7 58
-20 74 -30 17 -10 50 -23 75 -30 25 -6 60 -20 77 -30 18 -11 52 -24 75 -30 24
-7 73 -25 110 -41 36 -16 74 -29 84 -29 10 0 47 -13 83 -29 88 -38 209 -79
301 -101 41 -9 92 -25 113 -34 20 -9 69 -23 108 -31 38 -8 91 -24 117 -34 26
-11 78 -25 116 -31 38 -6 101 -21 140 -34 39 -13 97 -27 129 -30 32 -4 84 -16
115 -27 31 -11 107 -26 170 -34 63 -8 149 -24 191 -34 42 -11 108 -22 146 -26
131 -12 310 -35 350 -45 72 -18 625 -39 1031 -40 353 -1 686 8 899 25 39 3
124 14 190 25 66 11 175 24 242 30 66 6 152 20 190 31 37 10 113 24 168 30 55
6 132 21 170 34 39 13 101 29 138 35 38 6 94 19 125 30 32 11 91 26 132 34 41
8 96 23 122 34 25 11 68 24 95 28 26 4 80 20 120 35 39 16 82 29 95 29 12 0
47 11 77 25 29 14 82 32 117 40 36 8 82 24 104 35 22 11 63 25 92 31 29 6 67
19 83 29 17 10 53 24 80 31 28 6 64 20 82 31 17 10 55 26 84 34 29 9 62 22 74
30 11 7 47 23 79 34 32 11 73 29 91 40 18 11 39 20 47 20 8 0 45 16 84 35 38
19 76 35 85 35 9 0 36 13 60 30 24 16 49 30 54 30 10 0 166 73 195 91 8 5 35
19 60 30 25 11 56 26 70 34 14 8 52 28 85 45 99 51 166 89 192 110 14 11 31
20 38 20 7 0 29 14 50 30 21 17 43 30 50 30 6 0 34 16 61 35 27 19 54 35 61
35 6 0 24 11 40 24 15 13 46 33 68 45 42 23 92 56 136 90 15 12 35 24 45 28
21 7 138 88 168 115 11 10 24 18 29 18 5 0 24 12 42 28 17 15 45 35 61 44 16
10 45 30 65 45 43 33 218 168 264 203 18 14 50 38 71 55 22 16 80 64 129 105
50 42 101 84 115 93 51 35 235 210 520 496 163 163 332 335 376 382 72 76 335
389 428 509 57 72 98 126 199 257 95 123 150 201 234 329 28 43 62 93 76 109
13 17 32 46 42 65 10 19 28 48 41 63 13 16 24 33 24 38 0 5 15 31 33 58 31 47
46 71 97 158 37 63 120 212 132 237 5 11 26 51 46 88 67 121 142 272 142 284
0 6 9 23 20 37 12 14 29 50 40 79 10 29 30 75 44 102 14 27 26 56 26 64 0 8
13 38 29 66 16 28 32 66 36 84 4 19 20 59 36 89 16 30 29 64 29 74 0 11 9 38
21 61 21 40 48 114 96 258 13 41 33 95 44 120 10 25 24 68 30 95 5 28 21 75
34 105 13 30 29 81 34 112 6 31 19 74 29 95 11 21 25 69 31 107 7 37 22 96 35
130 13 33 26 87 30 120 4 32 18 93 31 135 12 42 26 112 30 156 4 43 18 120 31
170 13 49 28 142 34 205 6 63 13 121 15 127 2 7 13 68 24 135 34 213 66 1023
51 1309 -5 96 -14 266 -19 379 -13 246 -17 287 -41 410 -10 52 -24 151 -30
219 -6 68 -15 133 -19 145 -10 26 -37 163 -46 231 -3 28 -17 88 -30 135 -13
47 -27 110 -31 140 -3 30 -19 94 -35 142 -16 48 -29 97 -29 109 0 11 -13 60
-29 107 -16 48 -36 114 -44 147 -8 33 -24 87 -36 120 -11 33 -28 83 -37 110
-42 130 -58 175 -85 236 -16 36 -29 72 -29 81 0 8 -12 37 -26 64 -15 27 -33
72 -41 99 -9 28 -23 61 -33 75 -10 14 -21 41 -25 60 -4 19 -17 51 -29 70 -13
19 -26 46 -30 60 -8 27 -33 81 -115 250 -61 125 -87 176 -106 210 -8 14 -26
48 -39 75 -13 28 -31 57 -39 64 -9 7 -21 29 -28 49 -6 20 -19 46 -29 57 -10
11 -30 43 -45 70 -44 84 -79 142 -96 162 -9 10 -22 34 -28 54 -6 20 -23 47
-36 59 -14 13 -25 29 -25 35 0 7 -14 30 -31 51 -17 22 -35 48 -40 59 -5 11
-29 47 -54 80 -24 33 -54 77 -65 97 -11 20 -24 39 -29 43 -6 3 -40 49 -78 101
-82 116 -91 128 -170 235 -34 46 -75 101 -90 122 -15 21 -44 58 -63 82 -33 42
-59 76 -125 165 -16 22 -57 74 -90 114 -33 40 -78 97 -100 126 -68 89 -104
133 -236 290 -44 52 -94 114 -110 138 -17 23 -41 54 -53 68 -73 83 -156 185
-156 193 0 7 -88 119 -155 196 -14 17 -33 42 -43 56 -60 91 -73 110 -94 131
-13 13 -31 37 -41 54 -9 16 -28 45 -42 64 -13 19 -35 50 -47 68 -13 19 -40 55
-60 80 -21 26 -48 61 -61 77 -13 17 -29 44 -36 62 -7 17 -19 34 -26 37 -8 3
-23 22 -35 43 -22 39 -51 83 -95 143 -53 72 -75 106 -95 146 -10 22 -28 49
-40 59 -11 10 -20 23 -20 29 0 11 -18 42 -97 166 -15 24 -34 58 -41 75 -7 16
-21 39 -31 50 -10 11 -24 37 -31 58 -6 21 -22 50 -34 65 -12 15 -30 48 -40 74
-9 25 -24 52 -32 58 -7 7 -14 18 -14 25 0 8 -15 42 -34 77 -18 35 -37 74 -41
88 -4 14 -18 41 -31 60 -12 19 -26 49 -30 65 -4 17 -17 48 -29 70 -13 22 -26
56 -30 75 -4 19 -17 53 -30 75 -13 22 -31 67 -40 99 -9 32 -25 73 -35 90 -10
17 -25 58 -35 90 -9 32 -23 69 -31 81 -8 12 -19 47 -24 78 -6 31 -22 80 -35
109 -13 29 -29 87 -35 128 -7 41 -21 91 -31 111 -10 20 -23 79 -30 130 -6 52
-21 130 -34 174 -12 44 -26 123 -29 175 -4 52 -17 169 -29 260 -17 132 -21
213 -20 405 0 166 7 300 21 435 11 107 24 229 28 270 3 41 15 109 25 150 11
41 26 118 34 171 8 52 25 124 38 160 14 35 27 88 31 118 4 30 16 71 26 91 11
21 27 71 36 111 9 41 24 88 34 104 10 17 23 57 30 90 7 33 23 78 36 101 13 22
24 49 24 59 0 9 16 52 35 95 19 43 35 84 35 92 0 7 13 40 30 73 16 33 30 67
30 75 0 13 86 192 118 245 6 11 18 36 27 55 8 19 31 62 50 95 19 33 46 83 59
112 14 28 30 54 36 58 6 4 22 31 34 60 13 29 29 56 35 59 6 4 23 28 37 54 31
57 72 126 101 173 12 18 39 62 60 97 21 34 50 79 66 99 15 19 27 40 27 46 0 5
12 24 28 42 15 17 36 47 47 65 46 77 62 101 82 122 11 13 28 38 39 56 10 17
22 32 26 32 4 0 15 14 23 31 9 17 32 52 50 77 74 102 91 124 120 161 17 21 38
52 47 67 10 16 30 45 45 65 95 124 120 156 133 175 19 28 154 202 203 262 20
26 45 58 55 72 16 24 79 101 297 359 112 133 128 153 213 271 38 52 81 109 96
125 15 17 55 68 89 114 34 46 74 100 89 120 15 20 38 50 50 67 13 17 57 76 98
129 83 108 139 185 215 295 13 19 32 46 43 60 11 14 27 41 37 60 9 19 25 43
33 53 9 10 25 33 37 52 11 18 41 64 66 101 76 114 162 256 192 314 10 19 36
67 59 105 22 39 64 115 92 170 29 55 59 111 69 125 9 14 22 41 28 60 7 19 21
47 31 62 10 15 27 52 38 82 10 30 25 65 34 78 9 13 22 45 30 70 7 26 23 60 34
75 11 16 24 42 28 59 4 16 20 53 35 83 16 30 29 62 29 73 0 10 13 44 29 76 15
31 31 71 35 87 4 17 21 60 37 97 16 36 29 75 29 85 0 10 12 45 26 78 14 33 32
88 40 123 7 34 21 73 29 86 8 12 24 65 35 116 12 51 25 101 30 111 6 10 17 48
24 86 8 37 26 106 40 153 13 47 27 112 31 145 4 33 18 105 31 160 14 55 29
150 35 210 6 61 17 142 25 180 20 90 30 194 49 495 19 306 19 617 0 1060 -16
368 -19 407 -41 542 -8 48 -21 145 -29 215 -9 70 -24 161 -35 200 -11 40 -25
116 -30 168 -6 52 -24 147 -41 212 -16 65 -29 130 -29 146 0 16 -11 61 -24
100 -14 40 -30 104 -37 142 -6 39 -20 92 -31 119 -10 27 -25 80 -33 118 -8 38
-23 85 -33 106 -11 20 -25 65 -31 100 -7 35 -21 84 -32 110 -11 26 -27 76 -35
112 -9 35 -22 76 -30 90 -8 14 -25 58 -39 98 -51 148 -74 208 -99 256 -14 27
-26 56 -26 63 0 13 -19 57 -100 228 -16 33 -32 71 -36 85 -4 14 -15 36 -25 49
-11 13 -24 41 -29 63 -6 21 -22 55 -35 75 -14 20 -25 40 -25 46 0 10 -71 153
-132 264 -20 38 -48 92 -63 121 -14 29 -34 65 -44 80 -10 15 -38 61 -62 102
-24 41 -53 89 -64 105 -12 17 -27 44 -34 62 -7 17 -21 39 -32 49 -10 9 -19 22
-19 28 0 6 -17 36 -38 67 -20 31 -45 70 -54 85 -10 16 -35 56 -57 89 -22 33
-45 69 -51 80 -6 11 -31 47 -55 80 -25 33 -53 73 -63 89 -9 16 -40 56 -68 90
-28 33 -63 79 -78 101 -51 76 -76 110 -94 130 -16 17 -82 103 -156 204 -29 39
-136 163 -161 186 -11 11 -33 36 -48 57 -15 20 -43 53 -63 75 -20 21 -87 95
-150 164 -178 197 -428 435 -853 807 -141 124 -244 204 -501 387 -19 14 -55
41 -80 60 -25 19 -65 47 -90 62 -25 15 -49 33 -53 40 -4 7 -27 23 -50 34 -23
12 -54 31 -68 43 -15 11 -41 30 -59 41 -19 11 -56 35 -84 52 -28 18 -69 41
-91 51 -22 11 -48 29 -58 40 -10 11 -33 26 -50 33 -18 7 -46 23 -63 36 -17 13
-35 23 -41 23 -6 0 -23 10 -38 23 -29 23 -88 55 -185 102 -30 15 -62 33 -70
40 -27 24 -434 225 -455 225 -12 0 -36 11 -55 25 -19 14 -53 30 -75 36 -22 6
-56 21 -76 34 -20 13 -56 29 -79 35 -23 6 -59 22 -79 35 -20 13 -55 26 -78 30
-23 4 -53 15 -66 25 -13 10 -52 26 -88 35 -35 9 -77 25 -94 35 -16 10 -52 24
-80 31 -27 6 -67 20 -87 31 -21 10 -69 25 -108 33 -39 8 -87 24 -108 34 -21
11 -67 25 -102 31 -35 6 -80 20 -99 30 -20 10 -74 25 -121 35 -47 9 -98 23
-115 31 -16 9 -73 24 -126 35 -53 10 -112 25 -131 33 -18 8 -71 20 -117 26
-46 6 -113 22 -150 34 -36 13 -106 29 -156 35 -49 7 -127 21 -173 32 -45 11
-146 26 -225 34 -78 8 -173 21 -212 30 -163 35 -922 67 -1310 54 -399 -13
-772 -36 -855 -53 -41 -8 -142 -22 -225 -31 -82 -9 -184 -24 -225 -34 -41 -11
-125 -27 -187 -35 -62 -9 -145 -27 -185 -40 -40 -13 -95 -27 -123 -30 -27 -4
-77 -16 -110 -26 -33 -11 -91 -24 -128 -30 -37 -6 -96 -21 -130 -34 -34 -13
-84 -26 -112 -30 -27 -4 -72 -18 -100 -31 -27 -13 -78 -28 -113 -35 -35 -6
-84 -22 -109 -36 -25 -13 -55 -24 -67 -24 -12 0 -52 -11 -90 -25 -107 -38
-146 -41 -202 -15 -27 11 -81 27 -121 35 -39 8 -89 23 -111 34 -21 11 -69 27
-106 35 -37 9 -80 23 -96 31 -17 9 -65 23 -107 31 -43 9 -90 23 -105 30 -15 8
-60 21 -100 29 -40 9 -100 24 -133 35 -33 11 -104 26 -158 35 -54 8 -111 22
-126 29 -15 8 -88 24 -161 35 -74 12 -155 27 -181 35 -25 8 -97 19 -160 26
-62 6 -181 22 -264 35 -106 17 -246 29 -475 39 -372 17 -562 22 -705 19z m79
-2322 c11 -17 -4 -36 -55 -71 -28 -18 -53 -39 -57 -45 -6 -11 -47 -47 -155
-138 -21 -18 -127 -120 -236 -227 -193 -191 -306 -316 -506 -560 -55 -67 -125
-152 -156 -188 -82 -100 -218 -276 -265 -347 -15 -22 -49 -68 -76 -102 -26
-34 -48 -66 -48 -70 0 -5 -13 -24 -29 -43 -15 -19 -35 -49 -44 -65 -8 -17 -24
-39 -36 -49 -12 -11 -21 -24 -21 -30 0 -6 -12 -29 -27 -51 -27 -38 -52 -80
-108 -175 -14 -25 -41 -70 -60 -100 -19 -30 -46 -78 -59 -107 -14 -28 -30 -54
-36 -58 -7 -4 -21 -28 -32 -54 -10 -25 -26 -54 -35 -63 -9 -10 -37 -59 -62
-110 -26 -51 -59 -113 -73 -138 -14 -25 -29 -56 -33 -70 -5 -14 -18 -39 -31
-56 -13 -17 -24 -35 -24 -40 0 -5 -15 -40 -34 -79 -18 -38 -41 -86 -50 -105
-9 -19 -23 -46 -30 -60 -34 -63 -85 -178 -91 -204 -3 -17 -14 -41 -24 -55 -10
-14 -23 -48 -30 -76 -7 -27 -21 -63 -31 -80 -10 -16 -24 -52 -31 -80 -7 -27
-25 -77 -41 -110 -15 -33 -28 -69 -28 -80 0 -11 -13 -47 -29 -81 -16 -34 -32
-81 -36 -105 -4 -24 -17 -67 -30 -95 -13 -28 -31 -83 -39 -121 -8 -39 -21 -84
-29 -100 -8 -15 -23 -64 -32 -108 -10 -44 -26 -101 -36 -128 -11 -26 -24 -80
-30 -119 -6 -39 -18 -90 -26 -112 -8 -23 -23 -88 -33 -146 -10 -58 -27 -141
-38 -185 -11 -44 -26 -122 -32 -173 -6 -51 -19 -130 -30 -175 -11 -45 -25
-149 -31 -232 -5 -82 -19 -213 -29 -290 -28 -202 -41 -459 -43 -869 -2 -410
13 -722 42 -876 10 -58 24 -166 31 -240 6 -74 22 -180 35 -235 12 -55 26 -129
30 -165 4 -36 18 -96 31 -135 13 -38 28 -105 34 -149 5 -43 19 -98 30 -123 10
-24 24 -72 30 -106 6 -34 22 -89 35 -122 13 -33 28 -86 34 -117 5 -31 19 -74
29 -95 11 -21 27 -69 36 -108 10 -38 23 -80 31 -91 8 -12 21 -49 30 -83 8 -33
27 -82 40 -107 14 -26 25 -55 25 -64 0 -9 13 -41 29 -71 15 -30 31 -67 35 -84
3 -16 19 -57 35 -90 76 -159 90 -192 100 -223 6 -18 19 -45 29 -60 11 -15 25
-44 31 -64 7 -20 20 -47 30 -60 10 -13 25 -43 35 -68 10 -25 23 -52 30 -60 12
-14 41 -66 103 -180 13 -25 42 -74 64 -110 22 -36 47 -81 55 -100 9 -19 25
-46 36 -60 11 -14 41 -61 66 -105 26 -44 55 -92 65 -105 10 -14 44 -65 77
-115 76 -115 158 -233 190 -273 14 -17 57 -72 95 -122 39 -51 97 -125 130
-165 85 -103 158 -193 220 -275 22 -29 47 -60 55 -69 16 -17 19 -21 115 -147
33 -44 114 -143 180 -220 66 -78 138 -165 160 -194 22 -29 81 -101 130 -160
50 -59 106 -128 125 -154 48 -65 106 -137 128 -161 10 -11 38 -48 62 -83 25
-34 66 -90 93 -125 26 -34 69 -96 97 -137 27 -41 60 -87 74 -103 47 -51 38
-53 -234 -61 -137 -4 -275 -11 -307 -16 -168 -25 -289 -40 -389 -49 -62 -6
-140 -17 -175 -25 -126 -29 -171 -36 -219 -36 -26 0 -99 -13 -161 -29 -63 -16
-141 -33 -174 -37 -33 -4 -84 -15 -113 -25 -30 -10 -91 -25 -135 -34 -45 -8
-104 -24 -132 -34 -27 -11 -81 -25 -120 -31 -38 -6 -90 -20 -115 -31 -25 -10
-78 -26 -118 -34 -40 -8 -89 -23 -110 -34 -20 -10 -62 -24 -93 -30 -31 -7 -73
-21 -95 -33 -21 -11 -65 -27 -97 -34 -31 -8 -80 -25 -107 -39 -27 -14 -58 -25
-68 -25 -10 0 -41 -11 -68 -25 -27 -14 -69 -31 -94 -39 -25 -8 -65 -26 -90
-40 -25 -14 -54 -26 -66 -26 -12 0 -37 -11 -57 -24 -19 -13 -60 -31 -90 -40
-30 -9 -60 -23 -67 -31 -7 -8 -36 -22 -65 -31 -30 -8 -59 -21 -65 -29 -6 -8
-33 -22 -58 -31 -26 -10 -54 -23 -62 -29 -8 -7 -68 -38 -132 -69 -65 -31 -120
-62 -124 -67 -3 -6 -29 -21 -57 -35 -88 -43 -178 -92 -196 -107 -9 -8 -27 -18
-41 -22 -14 -4 -34 -15 -45 -25 -11 -10 -36 -26 -55 -35 -19 -10 -48 -28 -63
-41 -16 -13 -34 -24 -40 -24 -7 0 -32 -16 -56 -35 -24 -19 -49 -35 -56 -35 -6
0 -20 -9 -31 -21 -10 -12 -35 -30 -54 -41 -19 -10 -60 -37 -90 -59 -30 -21
-71 -50 -92 -64 -20 -13 -39 -29 -43 -35 -4 -7 -20 -20 -36 -29 -31 -19 -66
-47 -357 -295 -434 -368 -618 -556 -969 -993 -32 -39 -81 -100 -110 -135 -96
-117 -211 -275 -290 -396 -27 -40 -58 -87 -70 -105 -11 -18 -42 -68 -68 -112
-27 -44 -55 -91 -64 -104 -21 -31 -71 -120 -110 -196 -18 -33 -47 -87 -66
-120 -18 -33 -41 -76 -50 -95 -8 -19 -20 -42 -26 -50 -5 -8 -23 -42 -40 -75
-17 -33 -39 -76 -49 -95 -10 -19 -35 -71 -55 -115 -21 -44 -50 -106 -66 -137
-16 -31 -29 -63 -29 -71 0 -7 -11 -36 -25 -63 -14 -27 -30 -65 -36 -84 -7 -19
-25 -59 -40 -89 -16 -30 -29 -64 -29 -76 0 -13 -13 -47 -29 -77 -15 -30 -31
-72 -35 -94 -4 -21 -17 -59 -28 -84 -11 -25 -28 -74 -38 -110 -10 -36 -27 -90
-38 -120 -38 -103 -92 -281 -92 -301 0 -11 -9 -45 -21 -77 -12 -31 -29 -98
-39 -149 -10 -50 -25 -104 -33 -120 -8 -15 -22 -75 -31 -133 -9 -58 -26 -130
-36 -160 -10 -30 -24 -95 -30 -145 -12 -99 -24 -158 -40 -200 -6 -16 -18 -89
-26 -164 -9 -75 -24 -170 -34 -211 -11 -41 -26 -151 -34 -245 -8 -93 -22 -201
-30 -240 -8 -38 -22 -161 -30 -272 -9 -111 -25 -264 -35 -340 -11 -76 -25
-244 -31 -373 -6 -129 -20 -293 -30 -365 -10 -71 -24 -191 -30 -265 -6 -74
-22 -180 -35 -235 -12 -55 -28 -141 -34 -192 -6 -51 -20 -120 -31 -155 -10
-35 -24 -97 -30 -138 -6 -41 -22 -106 -35 -145 -13 -38 -29 -97 -36 -130 -6
-33 -20 -77 -31 -99 -11 -21 -24 -65 -29 -98 -5 -33 -20 -81 -34 -107 -13 -26
-27 -65 -31 -87 -3 -21 -15 -55 -25 -75 -10 -21 -27 -68 -37 -105 -11 -38 -29
-85 -40 -104 -11 -19 -23 -51 -27 -70 -4 -19 -21 -59 -36 -89 -16 -30 -29 -60
-29 -68 0 -8 -13 -40 -30 -71 -16 -31 -50 -102 -76 -157 -26 -55 -52 -107 -59
-115 -6 -8 -18 -31 -25 -50 -8 -19 -24 -48 -36 -65 -12 -16 -25 -41 -29 -55
-4 -14 -17 -38 -29 -55 -11 -16 -31 -50 -44 -75 -26 -53 -44 -82 -127 -210
-122 -187 -141 -216 -185 -274 -25 -32 -54 -71 -65 -86 -65 -88 -106 -138
-295 -355 -323 -373 -593 -628 -963 -910 -43 -33 -98 -74 -120 -92 -65 -50
-282 -199 -350 -241 -16 -9 -45 -29 -64 -44 -20 -16 -41 -28 -48 -28 -7 0 -30
-13 -53 -30 -22 -16 -56 -36 -74 -45 -18 -9 -64 -34 -103 -55 -38 -22 -93 -50
-122 -64 -28 -14 -54 -29 -57 -35 -4 -5 -32 -19 -63 -31 -31 -11 -67 -29 -80
-40 -13 -10 -38 -22 -56 -26 -17 -3 -45 -17 -62 -29 -16 -13 -48 -28 -70 -34
-22 -6 -67 -24 -99 -41 -32 -16 -65 -30 -72 -30 -6 0 -41 -13 -76 -30 -34 -16
-72 -30 -83 -30 -11 0 -47 -13 -80 -29 -33 -16 -78 -33 -100 -37 -22 -4 -62
-17 -90 -29 -27 -13 -77 -28 -110 -35 -33 -7 -76 -20 -96 -30 -19 -10 -64 -24
-98 -30 -35 -6 -85 -20 -112 -30 -26 -11 -87 -26 -136 -35 -48 -9 -116 -25
-150 -35 -35 -11 -113 -26 -175 -34 -62 -9 -138 -22 -168 -30 -72 -18 -112
-24 -245 -36 -60 -5 -180 -17 -265 -27 -128 -15 -234 -18 -605 -18 -283 1
-482 5 -535 13 -47 6 -155 18 -240 27 -85 9 -213 27 -285 41 -71 13 -166 29
-210 34 -83 9 -168 27 -196 41 -9 4 -58 15 -110 23 -52 9 -116 24 -144 35 -27
10 -83 24 -123 30 -41 6 -90 20 -111 30 -20 11 -66 25 -101 31 -35 6 -80 20
-100 30 -20 10 -65 26 -100 35 -35 9 -85 27 -111 41 -27 13 -56 24 -66 24 -10
0 -43 12 -73 26 -30 14 -77 33 -104 41 -27 8 -59 21 -71 29 -11 7 -46 22 -77
33 -31 11 -68 27 -82 36 -14 9 -45 21 -68 27 -24 5 -59 20 -78 33 -19 13 -54
28 -76 34 -23 6 -47 18 -54 26 -6 7 -33 22 -58 31 -26 10 -59 28 -74 40 -15
12 -44 28 -65 35 -21 6 -51 22 -66 35 -16 13 -34 24 -41 24 -7 0 -55 28 -108
62 -53 35 -111 72 -129 83 -32 19 -91 57 -160 102 -58 37 -141 96 -239 168
-19 14 -60 43 -90 64 -67 48 -117 87 -219 171 -43 36 -95 79 -116 95 -21 17
-53 44 -70 60 -18 17 -66 59 -106 95 -78 70 -365 355 -464 461 -70 74 -304
345 -386 445 -30 38 -71 91 -90 118 -18 26 -43 61 -54 76 -39 54 -101 144
-130 191 -16 26 -51 79 -78 117 -26 38 -47 74 -47 80 0 6 -16 29 -35 52 -19
23 -35 46 -35 50 0 5 -11 21 -24 37 -13 15 -27 39 -31 53 -4 13 -23 47 -41 73
-19 27 -34 55 -34 62 0 7 -6 18 -14 24 -8 6 -28 40 -46 74 -17 34 -47 89 -65
122 -19 33 -41 76 -50 95 -21 47 -71 152 -106 222 -16 31 -29 63 -29 70 0 8
-16 45 -35 84 -19 38 -35 76 -35 85 0 9 -11 37 -25 63 -14 26 -30 68 -36 94
-7 26 -22 65 -34 87 -13 22 -26 60 -29 85 -4 25 -18 69 -32 98 -14 29 -29 78
-35 110 -6 31 -21 82 -34 112 -12 30 -28 85 -34 122 -6 36 -18 83 -27 104 -9
21 -24 85 -34 143 -10 58 -26 126 -35 151 -8 24 -22 92 -30 150 -7 58 -22 144
-33 191 -11 46 -25 151 -32 234 -6 82 -20 215 -31 295 -39 285 -36 786 6 1124
8 65 19 189 25 275 6 86 19 192 30 236 11 44 27 139 35 210 8 72 23 160 34
195 11 36 25 101 31 145 7 44 23 112 36 150 13 39 28 98 33 132 5 34 17 76 27
95 10 18 23 56 30 83 15 63 70 223 100 295 13 30 29 75 35 100 6 24 22 66 35
92 13 26 24 53 24 61 0 7 16 44 35 83 19 38 35 75 35 82 0 7 13 39 30 70 16
31 50 100 75 152 25 52 54 111 65 130 10 19 27 51 36 70 54 112 74 149 83 154
5 4 21 30 35 59 38 77 87 159 142 240 10 16 30 47 44 71 14 23 34 57 45 75 11
18 31 47 45 64 14 17 34 45 45 63 47 75 80 122 120 169 23 28 51 64 61 80 22
36 68 95 104 135 14 15 43 49 65 75 90 107 146 168 300 325 164 168 308 304
403 382 30 23 90 74 135 111 172 143 176 147 391 294 97 67 129 88 195 128 19
11 50 31 70 44 20 13 55 33 78 43 23 10 45 23 48 28 3 5 29 20 58 34 28 15 84
44 122 66 39 21 86 46 105 55 19 8 47 22 63 30 34 19 65 34 147 73 36 16 99
46 141 66 41 20 84 36 94 36 9 0 41 13 69 29 28 16 68 32 88 35 20 4 66 20
102 36 36 17 73 30 82 30 8 0 46 13 82 29 37 16 85 32 107 36 22 4 66 18 97
31 32 13 81 29 110 35 29 6 66 18 82 26 16 8 71 23 122 34 51 10 110 25 131
34 20 9 80 22 132 31 53 8 124 24 159 34 34 11 113 24 175 30 61 6 139 19 172
30 36 11 121 23 210 30 199 15 306 26 445 44 63 9 246 20 405 26 329 12 541
24 765 45 85 7 211 17 280 20 69 3 184 17 255 30 72 13 178 29 237 35 59 6
129 17 155 26 26 8 112 23 191 34 78 11 156 27 172 35 16 8 73 21 127 30 54 8
121 23 149 34 28 11 82 25 120 32 38 6 85 19 104 29 19 10 62 23 95 30 33 7
86 22 117 35 31 13 76 26 100 30 24 4 68 18 98 31 30 13 83 30 117 39 35 8 84
27 109 40 26 14 56 25 68 25 12 0 46 13 76 29 30 16 71 32 90 36 19 4 55 17
80 30 94 47 196 94 220 101 14 3 36 14 50 24 14 9 46 25 72 35 26 10 53 24 59
31 6 7 36 23 67 34 31 12 62 26 69 32 7 6 63 36 125 68 179 91 225 116 254
139 14 11 31 21 36 21 9 0 98 51 157 89 13 9 43 27 66 41 85 50 108 65 134 86
14 12 44 31 66 43 22 12 60 37 85 56 25 20 58 43 73 53 45 27 253 186 370 281
335 274 706 629 936 896 81 94 155 182 166 196 11 15 54 70 95 124 41 54 81
107 89 119 8 11 27 35 41 51 15 17 48 62 74 100 26 39 58 86 71 105 14 19 34
49 45 65 11 17 32 46 45 65 13 19 34 53 46 75 12 22 32 53 45 68 13 16 24 34
24 41 0 7 9 21 19 33 11 11 32 44 48 73 15 28 45 82 65 118 77 138 153 287
254 497 37 77 82 172 101 210 18 39 33 75 33 80 1 6 14 37 30 70 17 33 30 67
30 76 0 9 13 40 28 70 16 30 32 69 36 88 3 19 17 57 30 85 28 58 68 177 97
285 11 41 27 87 35 103 8 15 22 63 30 105 9 43 23 91 31 107 8 16 24 78 34
139 11 60 26 122 34 137 8 16 22 73 30 127 8 54 23 125 34 158 11 34 24 105
31 160 6 54 20 126 30 159 11 34 23 99 29 146 6 47 12 101 14 120 3 19 14 78
25 130 12 52 26 154 32 225 6 72 18 156 26 189 19 77 31 199 44 433 6 106 17
254 24 330 8 76 20 219 26 318 12 186 18 237 44 390 8 50 22 162 30 250 8 88
22 180 30 205 8 25 22 108 30 185 8 77 24 165 35 197 11 31 25 101 32 155 6
54 20 119 30 145 10 25 25 88 34 139 9 51 23 105 31 121 8 15 23 71 34 125 11
53 27 104 35 113 8 9 20 40 26 70 6 29 24 84 40 121 16 37 29 76 29 86 0 10
13 45 28 78 16 33 32 78 36 99 4 22 21 64 37 94 16 30 29 63 29 72 0 9 12 39
26 66 15 27 33 70 40 95 8 26 21 52 28 59 8 6 22 35 32 63 9 29 23 59 30 67 7
9 20 36 29 60 9 25 24 54 35 65 10 11 21 32 25 47 4 14 22 50 41 79 19 29 34
58 34 65 0 6 9 22 19 36 11 13 31 44 44 69 48 87 82 145 100 169 21 28 119
180 145 224 9 16 29 43 43 60 14 17 34 46 43 64 9 17 20 32 24 32 4 0 16 15
27 33 46 79 425 515 609 701 83 83 203 195 266 249 63 53 129 108 145 122 106
90 175 145 210 169 22 14 60 42 85 61 62 48 114 85 170 120 26 17 74 48 105
70 32 22 69 47 84 55 14 8 42 27 62 43 20 15 39 27 43 27 3 0 28 15 55 33 57
38 98 62 166 98 28 14 82 43 120 64 39 20 95 50 127 66 31 15 59 32 62 38 4 5
30 17 60 25 29 9 59 22 65 30 7 8 35 22 63 32 28 9 67 27 86 40 19 13 42 24
51 24 10 0 48 16 87 35 38 19 78 35 89 35 11 0 40 12 64 25 24 14 65 30 90 36
25 5 66 20 91 33 25 13 70 29 100 35 30 7 70 21 89 32 19 11 59 25 90 31 31 5
82 21 113 34 31 13 83 27 115 30 32 4 77 15 100 25 23 10 88 28 144 39 57 11
123 26 148 34 25 9 102 22 171 31 69 9 159 24 200 35 41 10 118 21 170 25 52
4 194 17 315 31 121 13 247 25 280 27 137 7 304 6 309 -2z m6541 -12 c66 -5
206 -16 310 -24 314 -24 408 -34 457 -49 26 -8 99 -22 162 -31 63 -8 134 -22
157 -30 23 -9 90 -24 149 -34 59 -11 121 -26 138 -35 18 -9 69 -23 114 -32 45
-9 95 -22 111 -30 16 -9 61 -22 100 -30 40 -8 89 -24 109 -34 21 -11 68 -26
105 -35 36 -9 80 -24 97 -34 17 -10 53 -24 80 -30 27 -7 70 -23 97 -36 27 -14
54 -25 62 -25 7 0 36 -11 63 -25 27 -14 65 -30 84 -36 42 -13 201 -86 250
-114 14 -8 41 -22 60 -30 19 -8 67 -33 105 -54 39 -22 93 -52 120 -66 28 -14
75 -41 105 -60 30 -19 69 -41 85 -51 31 -17 111 -68 182 -116 23 -15 45 -28
50 -28 5 0 24 -13 43 -29 19 -15 49 -36 65 -45 33 -18 80 -50 135 -91 59 -44
103 -73 142 -94 20 -12 40 -25 43 -31 4 -6 25 -23 48 -37 23 -14 47 -31 53
-37 7 -6 35 -29 64 -51 29 -22 69 -54 89 -71 20 -17 63 -52 96 -79 217 -174
648 -596 849 -833 66 -78 137 -163 156 -187 19 -25 44 -56 55 -68 26 -29 78
-97 110 -144 14 -21 41 -58 60 -83 19 -25 87 -124 151 -220 64 -96 125 -186
136 -200 10 -14 26 -41 34 -60 9 -19 22 -42 29 -50 7 -8 26 -37 41 -65 51 -94
97 -180 122 -230 13 -27 31 -57 38 -65 7 -9 20 -35 29 -59 8 -23 23 -55 34
-70 11 -15 23 -40 27 -57 3 -16 16 -47 29 -69 12 -22 28 -58 35 -80 7 -22 26
-64 41 -94 16 -30 29 -61 29 -69 0 -8 11 -34 24 -57 14 -23 30 -64 37 -91 6
-27 22 -67 34 -89 13 -22 27 -58 30 -80 4 -22 18 -60 30 -85 13 -25 28 -72 35
-105 7 -33 23 -85 36 -116 13 -31 27 -83 33 -115 5 -33 20 -88 34 -124 13 -36
27 -93 31 -126 4 -34 16 -87 26 -118 11 -30 27 -106 35 -168 9 -62 24 -149 35
-193 10 -44 24 -159 30 -255 6 -96 18 -224 26 -285 33 -248 36 -755 5 -955 -5
-36 -15 -123 -21 -195 -19 -232 -30 -311 -45 -354 -8 -23 -20 -81 -26 -129 -6
-48 -22 -124 -35 -169 -13 -45 -29 -115 -35 -155 -6 -40 -20 -89 -30 -109 -10
-20 -25 -68 -33 -107 -8 -39 -21 -83 -29 -99 -9 -16 -23 -58 -32 -93 -9 -35
-26 -82 -37 -103 -11 -22 -26 -63 -34 -91 -7 -28 -25 -73 -39 -100 -14 -27
-25 -57 -25 -65 0 -9 -11 -32 -24 -52 -13 -19 -29 -53 -35 -75 -6 -21 -22 -56
-36 -76 -14 -20 -25 -41 -25 -45 0 -11 -92 -189 -196 -383 -14 -25 -35 -59
-47 -76 -12 -18 -31 -47 -42 -65 -43 -74 -64 -106 -104 -164 -23 -33 -52 -76
-65 -95 -13 -19 -31 -42 -40 -49 -10 -8 -26 -31 -37 -50 -20 -37 -38 -62 -119
-166 -25 -32 -56 -72 -70 -90 -32 -43 -109 -138 -185 -229 -33 -40 -78 -96
-100 -125 -22 -29 -65 -82 -95 -119 -48 -57 -113 -142 -195 -251 -10 -14 -42
-54 -70 -88 -27 -34 -79 -99 -115 -144 -36 -44 -79 -97 -95 -118 -17 -20 -51
-63 -75 -96 -24 -33 -58 -76 -75 -96 -16 -19 -57 -70 -90 -114 -33 -43 -70
-90 -83 -104 -12 -14 -32 -40 -45 -57 -12 -17 -42 -58 -67 -90 -66 -86 -82
-109 -154 -214 -36 -52 -83 -120 -105 -150 -22 -30 -47 -68 -57 -85 -9 -16
-25 -40 -37 -52 -11 -12 -25 -31 -31 -41 -35 -61 -148 -222 -155 -222 -5 0
-14 -12 -20 -27 -6 -16 -34 -59 -61 -98 -27 -38 -63 -95 -80 -125 -17 -30 -44
-75 -60 -100 -86 -133 -159 -255 -191 -320 -12 -25 -30 -56 -41 -69 -10 -14
-28 -43 -39 -65 -11 -23 -38 -72 -59 -111 -22 -38 -51 -92 -65 -120 -14 -27
-32 -61 -40 -75 -8 -14 -23 -45 -34 -70 -11 -25 -25 -52 -30 -60 -17 -29 -80
-165 -87 -190 -4 -14 -20 -49 -35 -79 -16 -30 -29 -60 -29 -68 0 -7 -13 -39
-29 -71 -16 -32 -34 -78 -41 -102 -7 -25 -23 -65 -36 -90 -13 -25 -24 -51 -24
-58 0 -7 -13 -39 -29 -70 -16 -32 -33 -76 -36 -98 -4 -21 -17 -57 -30 -79 -12
-22 -28 -65 -35 -95 -7 -30 -21 -71 -30 -90 -10 -19 -23 -62 -30 -95 -6 -33
-21 -80 -32 -105 -10 -25 -27 -83 -37 -130 -10 -47 -28 -111 -40 -142 -11 -32
-21 -74 -21 -93 0 -20 -11 -71 -25 -112 -14 -42 -32 -126 -41 -187 -8 -61 -23
-142 -33 -181 -11 -38 -24 -124 -31 -190 -6 -66 -20 -167 -31 -225 -25 -131
-38 -422 -38 -825 0 -415 13 -705 38 -839 12 -61 25 -157 31 -215 5 -58 19
-137 30 -176 11 -38 27 -121 36 -184 8 -63 24 -135 33 -160 10 -25 24 -83 30
-128 7 -46 21 -103 32 -129 11 -25 25 -75 31 -112 5 -37 20 -92 33 -122 13
-30 28 -81 35 -113 6 -33 20 -73 31 -91 10 -17 23 -56 30 -86 6 -30 22 -73 34
-95 13 -22 26 -56 30 -75 4 -19 20 -58 36 -86 16 -28 29 -60 29 -69 0 -10 13
-41 28 -69 16 -28 34 -72 42 -98 7 -26 19 -53 26 -59 8 -6 21 -37 30 -68 9
-31 27 -74 39 -96 13 -22 28 -58 35 -80 7 -22 21 -51 30 -65 9 -14 23 -42 29
-62 7 -20 21 -48 32 -62 11 -13 26 -43 34 -66 8 -23 24 -54 35 -70 11 -16 26
-44 32 -62 6 -18 19 -44 28 -58 10 -14 27 -43 39 -65 12 -22 37 -67 56 -100
19 -33 46 -84 60 -112 15 -29 31 -55 36 -59 5 -3 23 -31 40 -62 16 -31 45 -82
64 -112 19 -30 46 -75 60 -100 56 -98 205 -326 264 -405 34 -45 42 -56 121
-175 97 -146 203 -296 229 -325 10 -11 26 -33 35 -50 26 -47 58 -89 154 -207
17 -22 32 -43 32 -47 0 -3 18 -29 41 -56 22 -28 53 -65 67 -83 15 -19 52 -64
82 -102 53 -65 78 -98 165 -210 22 -29 65 -82 95 -120 30 -37 73 -91 95 -120
22 -29 54 -69 70 -90 17 -21 48 -61 70 -90 39 -51 138 -172 193 -236 15 -17
45 -55 67 -84 22 -29 65 -83 95 -121 77 -94 112 -139 132 -169 10 -14 34 -45
53 -70 19 -25 47 -63 62 -85 14 -22 31 -45 37 -51 6 -6 28 -36 49 -65 20 -30
48 -70 62 -89 13 -19 34 -53 46 -75 12 -22 30 -51 41 -65 34 -45 88 -129 88
-138 0 -5 16 -31 35 -58 19 -27 35 -53 35 -57 0 -5 10 -23 23 -40 25 -35 55
-88 92 -166 15 -30 35 -65 45 -78 10 -13 26 -46 35 -73 9 -27 23 -54 30 -60 8
-7 20 -30 26 -53 6 -22 21 -56 34 -76 12 -20 28 -53 35 -74 7 -21 23 -57 36
-80 13 -23 24 -49 24 -58 0 -8 12 -38 26 -65 14 -27 34 -76 44 -109 10 -33 27
-82 38 -110 36 -90 73 -209 87 -280 7 -38 23 -90 34 -115 11 -25 25 -77 31
-115 6 -39 21 -108 35 -155 13 -47 27 -117 30 -155 4 -39 18 -115 31 -170 13
-56 30 -182 39 -285 9 -102 22 -231 30 -287 8 -55 17 -202 21 -325 7 -230 -4
-468 -31 -673 -7 -60 -19 -175 -25 -255 -6 -80 -20 -181 -30 -225 -10 -44 -26
-133 -35 -198 -9 -65 -23 -137 -31 -160 -8 -23 -24 -89 -35 -146 -11 -57 -28
-124 -38 -150 -10 -25 -24 -75 -30 -111 -7 -35 -21 -81 -31 -100 -10 -20 -23
-62 -29 -95 -6 -32 -18 -69 -26 -81 -8 -12 -24 -55 -35 -95 -10 -39 -26 -82
-34 -94 -8 -12 -22 -49 -32 -81 -9 -32 -27 -80 -40 -106 -13 -26 -24 -53 -24
-61 0 -7 -16 -44 -35 -83 -19 -38 -35 -75 -35 -83 0 -7 -11 -34 -24 -60 -13
-25 -43 -86 -66 -136 -42 -91 -50 -107 -103 -205 -16 -30 -39 -73 -49 -95 -11
-22 -24 -47 -29 -55 -5 -8 -17 -28 -27 -43 -9 -16 -26 -42 -37 -59 -11 -17
-33 -52 -50 -78 -16 -26 -61 -94 -100 -150 -83 -121 -119 -175 -143 -213 -9
-15 -39 -58 -67 -94 -27 -36 -59 -78 -70 -93 -29 -40 -75 -100 -105 -135 -14
-17 -41 -51 -60 -75 -96 -120 -168 -197 -430 -460 -241 -242 -276 -274 -445
-421 -182 -158 -337 -282 -430 -346 -22 -15 -55 -40 -73 -55 -18 -15 -38 -28
-44 -28 -5 0 -25 -12 -43 -27 -17 -16 -45 -36 -61 -45 -16 -10 -49 -31 -74
-48 -25 -17 -58 -38 -73 -48 -40 -24 -84 -53 -131 -85 -23 -15 -54 -35 -70
-45 -15 -9 -42 -27 -60 -39 -17 -12 -50 -31 -72 -41 -23 -11 -45 -25 -49 -31
-4 -7 -30 -23 -58 -37 -73 -36 -147 -75 -187 -100 -19 -12 -46 -25 -60 -29
-14 -4 -35 -16 -48 -26 -13 -10 -45 -25 -72 -34 -27 -9 -54 -23 -61 -31 -6 -8
-37 -21 -68 -30 -31 -9 -68 -25 -83 -36 -15 -10 -50 -26 -78 -34 -28 -8 -65
-23 -83 -34 -17 -10 -51 -23 -74 -29 -23 -6 -61 -23 -85 -36 -24 -14 -51 -25
-61 -25 -10 0 -49 -13 -86 -30 -37 -16 -88 -34 -114 -39 -25 -6 -64 -20 -85
-31 -22 -12 -67 -25 -100 -30 -33 -6 -84 -21 -113 -34 -30 -13 -81 -27 -114
-31 -33 -4 -85 -18 -116 -30 -31 -13 -92 -29 -135 -34 -43 -6 -115 -21 -159
-34 -44 -13 -114 -27 -155 -31 -41 -4 -122 -18 -180 -31 -58 -13 -166 -29
-240 -35 -74 -6 -198 -17 -275 -25 -279 -30 -534 -38 -800 -25 -137 6 -279 15
-315 20 -36 5 -150 16 -255 25 -104 9 -226 25 -270 35 -44 10 -136 26 -204 35
-68 9 -140 23 -159 30 -19 8 -85 24 -147 34 -63 11 -123 25 -135 31 -12 7 -64
20 -116 31 -52 10 -111 27 -132 37 -20 11 -65 24 -99 30 -33 6 -80 20 -102 32
-23 11 -65 25 -93 30 -28 6 -75 21 -103 35 -29 13 -74 29 -101 35 -27 6 -62
19 -79 30 -16 10 -54 25 -83 34 -29 8 -65 24 -80 35 -15 10 -46 24 -68 30 -23
6 -47 18 -54 26 -6 7 -33 21 -60 30 -27 9 -60 25 -74 36 -13 11 -43 26 -66 34
-23 8 -54 24 -70 35 -16 11 -48 27 -71 35 -24 9 -50 22 -59 30 -9 8 -32 20
-51 26 -19 7 -47 22 -64 34 -16 12 -47 27 -67 34 -20 7 -42 18 -48 26 -11 13
-58 42 -157 95 -17 10 -46 29 -63 44 -17 14 -38 26 -45 26 -7 0 -32 16 -55 35
-23 19 -46 35 -52 35 -6 0 -24 12 -42 26 -17 14 -47 36 -66 49 -63 43 -165
112 -190 129 -14 9 -44 31 -67 49 -23 17 -70 52 -104 77 -61 45 -77 58 -230
180 -167 134 -298 252 -439 392 -223 223 -332 339 -477 508 -73 85 -143 166
-156 180 -13 14 -39 47 -58 73 -18 26 -49 66 -66 88 -18 23 -33 45 -33 50 0 5
-15 26 -33 46 -44 52 -97 129 -97 143 0 6 -11 22 -25 36 -14 14 -34 42 -44 63
-11 20 -26 43 -34 50 -8 6 -21 26 -28 44 -7 18 -25 47 -41 65 -15 18 -28 39
-28 46 0 7 -13 30 -30 51 -16 21 -30 43 -30 49 0 7 -11 28 -26 47 -14 19 -34
52 -45 74 -11 22 -37 70 -57 108 -59 107 -129 250 -137 277 -4 14 -15 34 -25
45 -10 11 -23 39 -30 63 -6 23 -20 57 -30 75 -11 18 -28 58 -39 89 -11 31 -26
67 -34 80 -9 12 -21 43 -27 68 -6 25 -25 72 -41 104 -16 33 -29 69 -29 80 0
12 -11 44 -24 73 -13 28 -30 77 -36 109 -7 32 -21 74 -31 93 -10 20 -25 68
-33 106 -8 39 -22 87 -30 107 -9 20 -23 79 -31 130 -9 51 -25 120 -35 153 -11
33 -27 110 -35 170 -9 61 -22 134 -31 163 -13 46 -32 221 -75 697 -15 166 -6
728 14 865 9 58 21 175 27 260 7 92 21 193 35 250 13 52 27 124 30 160 4 36
19 108 35 160 15 52 31 120 35 150 3 30 15 75 26 100 11 25 26 77 34 117 8 39
20 85 29 100 8 16 22 58 30 93 9 36 27 90 40 120 14 30 31 75 39 100 19 59 53
141 88 215 16 33 29 64 29 70 0 11 145 302 195 390 18 33 47 86 64 117 17 31
35 59 40 63 6 3 20 25 31 48 18 38 35 65 107 178 12 19 33 50 48 69 27 36 115
167 150 224 11 18 32 47 48 65 15 18 27 36 27 41 0 4 15 26 33 49 42 53 77
101 136 183 27 36 70 93 97 126 27 33 81 100 119 148 39 48 97 120 130 160 33
39 76 93 95 118 19 26 49 64 65 85 17 21 48 62 70 91 22 28 49 62 60 74 11 13
38 49 60 81 22 31 65 87 95 124 31 36 83 101 115 145 33 43 75 97 93 120 18
22 42 56 53 73 12 18 24 33 28 33 3 0 27 28 51 62 99 136 142 193 149 198 4 3
19 21 32 41 40 61 141 202 168 235 14 17 34 44 43 60 21 34 56 87 113 168 22
32 49 73 61 92 11 19 29 44 41 56 11 13 41 57 68 98 46 72 72 112 115 175 28
41 99 153 135 215 17 28 44 73 60 100 69 111 127 211 152 260 10 19 29 53 42
74 33 53 64 110 95 173 14 28 29 54 35 57 5 4 19 32 31 64 12 31 28 64 35 72
8 9 21 36 30 60 9 25 27 70 42 100 14 30 38 82 54 115 15 33 33 78 40 100 7
22 23 60 36 84 12 24 23 50 23 58 0 8 13 42 29 76 16 34 32 78 36 97 4 19 18
56 31 82 13 26 29 71 35 100 6 29 20 69 30 89 10 20 25 66 33 103 9 37 25 88
35 114 11 26 25 74 31 107 7 33 23 92 35 130 13 39 26 93 29 122 4 28 16 77
27 110 11 32 27 102 35 156 7 55 23 127 33 162 11 35 23 92 26 127 4 34 19
133 35 218 23 124 33 230 51 530 21 337 22 394 11 575 -7 110 -17 286 -23 390
-6 105 -17 228 -25 275 -17 96 -37 234 -54 362 -6 48 -17 102 -24 120 -8 18
-21 80 -30 138 -8 58 -24 128 -35 155 -10 28 -24 86 -31 130 -7 44 -23 109
-36 144 -28 73 -30 113 -9 135 9 8 52 27 96 41 44 13 97 34 118 45 22 11 61
24 88 30 26 6 68 21 93 34 25 13 60 27 78 31 19 4 59 20 89 36 30 16 62 29 71
29 8 0 35 11 59 25 24 14 61 32 84 40 22 8 52 23 67 33 15 10 48 26 74 36 25
9 52 23 58 31 6 7 24 17 40 20 15 3 50 22 77 41 26 19 55 34 63 34 9 0 26 8
40 18 33 23 126 77 180 103 25 12 58 32 73 45 16 13 35 24 42 24 7 0 26 11 42
24 15 13 45 31 66 40 21 8 50 25 65 36 43 34 94 67 142 95 65 37 102 63 250
176 36 27 82 61 103 75 32 21 188 138 332 248 71 55 368 312 462 400 116 108
281 274 404 407 115 125 408 465 464 539 36 47 72 93 170 215 35 44 137 186
165 230 10 17 28 44 40 60 11 17 35 52 53 79 18 27 44 68 59 90 15 23 36 57
47 77 11 21 27 43 34 51 8 8 22 29 32 48 9 18 30 51 46 73 16 22 29 46 29 52
0 7 7 19 17 26 9 8 25 34 36 59 11 25 25 52 32 60 7 8 28 42 45 75 34 63 75
139 103 190 9 17 24 46 32 65 9 19 22 46 30 60 7 14 22 43 33 65 10 22 26 54
35 70 9 17 33 66 53 110 69 152 106 230 129 275 12 25 26 56 30 70 4 14 20 52
35 85 36 78 69 159 87 215 8 25 25 68 38 95 12 28 28 75 35 105 7 30 21 69 30
85 10 17 25 60 34 96 8 37 24 84 35 105 11 22 25 66 31 99 7 33 20 74 30 90
10 17 23 58 30 92 6 34 21 86 35 115 13 29 29 89 35 133 7 44 18 92 26 107 8
15 23 72 33 126 11 55 29 129 40 165 11 36 23 94 26 129 4 34 17 106 30 158
13 52 28 147 34 210 6 63 16 140 21 170 20 112 40 301 55 535 9 132 21 292 27
355 11 129 4 586 -11 695 -6 39 -17 201 -26 360 -9 160 -23 324 -30 365 -14
74 -28 191 -40 323 -4 37 -15 97 -25 132 -10 35 -23 105 -30 157 -6 51 -22
134 -35 183 -13 50 -29 125 -35 168 -6 43 -20 104 -31 134 -10 31 -26 96 -35
146 -8 50 -22 103 -29 118 -8 15 -22 62 -31 105 -8 43 -25 96 -35 117 -11 21
-25 67 -31 100 -6 34 -21 82 -34 107 -12 25 -26 65 -29 90 -4 25 -20 72 -36
106 -16 34 -29 70 -29 80 0 10 -13 46 -28 79 -16 33 -34 81 -40 106 -6 25 -23
66 -37 90 -13 24 -25 51 -25 60 0 10 -13 41 -28 70 -16 30 -34 75 -41 101 -8
26 -20 53 -27 59 -8 6 -21 36 -30 65 -8 30 -26 73 -39 97 -12 23 -28 59 -34
79 -7 20 -19 42 -27 49 -8 6 -21 35 -30 64 -8 30 -21 59 -29 65 -8 6 -22 33
-31 58 -10 26 -26 59 -36 74 -10 15 -25 46 -33 69 -9 24 -22 50 -29 59 -8 8
-26 40 -40 70 -15 30 -33 66 -41 80 -9 14 -20 36 -25 50 -6 14 -21 39 -33 56
-12 18 -31 47 -42 65 -54 91 -86 148 -104 185 -12 23 -28 47 -37 55 -9 7 -27
36 -40 64 -13 27 -42 75 -64 105 -23 30 -50 72 -61 93 -11 21 -27 46 -35 55
-15 17 -56 74 -124 174 -19 28 -49 67 -65 87 -17 20 -39 47 -48 61 -62 89
-101 140 -172 226 -33 39 -91 111 -130 159 -38 48 -87 108 -108 133 -99 123
-252 287 -463 497 -223 220 -373 364 -419 401 -22 17 -36 35 -32 41 8 13 181
9 392 -8z m-3400 -740 c44 -22 112 -58 150 -79 39 -21 84 -46 100 -54 43 -23
212 -126 301 -184 117 -76 221 -147 241 -165 12 -11 55 -42 96 -71 114 -78
344 -254 412 -315 11 -9 79 -68 150 -131 144 -126 346 -327 530 -526 173 -188
265 -296 370 -434 52 -69 98 -128 128 -165 13 -16 30 -41 37 -55 7 -14 25 -39
39 -57 39 -48 80 -104 104 -142 27 -42 52 -79 142 -211 70 -102 121 -182 172
-274 79 -138 94 -165 118 -216 15 -30 33 -62 40 -70 7 -8 18 -33 25 -55 7 -22
21 -52 32 -67 10 -15 25 -46 33 -70 9 -24 27 -68 42 -98 72 -153 83 -178 92
-210 6 -19 22 -57 36 -84 14 -27 25 -59 25 -70 0 -12 13 -48 29 -81 16 -33 32
-78 36 -100 4 -22 18 -65 30 -95 13 -30 28 -82 35 -114 7 -33 21 -79 31 -103
10 -24 24 -74 30 -111 7 -37 22 -94 35 -128 12 -33 27 -94 33 -135 6 -41 19
-101 31 -134 11 -32 25 -102 31 -155 6 -52 19 -130 30 -173 11 -42 24 -139 30
-215 6 -75 20 -222 31 -327 37 -333 36 -1091 -2 -1270 -5 -22 -14 -107 -20
-190 -7 -82 -21 -195 -31 -250 -11 -55 -28 -156 -39 -225 -10 -69 -26 -145
-35 -170 -9 -25 -21 -81 -26 -124 -6 -44 -19 -105 -31 -135 -11 -31 -26 -86
-34 -123 -7 -37 -21 -84 -30 -105 -23 -54 -44 -125 -44 -148 0 -11 -11 -41
-24 -66 -13 -25 -28 -63 -32 -84 -3 -22 -17 -61 -30 -87 -13 -25 -28 -68 -34
-95 -6 -26 -24 -75 -41 -107 -16 -33 -29 -69 -29 -80 0 -12 -10 -37 -23 -56
-13 -19 -29 -54 -35 -77 -7 -23 -26 -67 -42 -98 -17 -32 -30 -65 -30 -75 0 -9
-9 -29 -21 -43 -11 -15 -27 -48 -36 -74 -9 -27 -24 -60 -35 -75 -10 -15 -25
-46 -33 -69 -9 -24 -22 -50 -30 -59 -8 -9 -21 -36 -30 -60 -9 -24 -22 -51 -29
-60 -8 -8 -27 -39 -42 -68 -16 -29 -39 -72 -51 -94 -12 -23 -31 -51 -42 -62
-10 -12 -28 -39 -40 -61 -20 -37 -46 -75 -91 -135 -44 -58 -70 -97 -89 -132
-12 -20 -25 -40 -31 -43 -6 -4 -22 -23 -35 -43 -14 -21 -41 -57 -60 -82 -19
-25 -50 -66 -68 -93 -31 -43 -73 -95 -270 -330 -108 -129 -317 -337 -497 -495
-91 -80 -176 -156 -190 -168 -39 -36 -173 -146 -225 -184 -26 -19 -64 -50 -85
-67 -20 -18 -42 -33 -47 -33 -5 0 -22 -13 -38 -30 -16 -16 -34 -30 -40 -30 -7
0 -29 -12 -48 -27 -20 -16 -66 -46 -102 -68 -36 -22 -78 -49 -92 -60 -28 -21
-52 -34 -240 -130 -65 -33 -133 -70 -152 -82 -19 -13 -41 -23 -50 -23 -9 0
-36 -14 -60 -30 -24 -17 -51 -30 -60 -30 -9 0 -43 -13 -76 -29 -132 -64 -192
-90 -235 -101 -25 -7 -58 -20 -75 -30 -16 -10 -61 -26 -98 -34 -37 -9 -82 -23
-100 -33 -37 -19 -152 -42 -218 -42 -43 -1 -49 2 -81 42 -19 23 -43 58 -53 77
-10 19 -27 46 -37 60 -11 14 -39 57 -63 95 -43 67 -56 87 -110 165 -13 19 -34
53 -46 75 -12 22 -28 47 -36 55 -14 16 -50 65 -82 115 -11 17 -29 44 -41 60
-12 17 -30 44 -41 60 -10 17 -39 57 -64 90 -24 33 -52 75 -62 93 -9 17 -20 32
-25 32 -4 0 -19 17 -33 38 -14 20 -41 57 -60 82 -19 25 -47 63 -61 85 -15 22
-52 70 -83 107 -31 37 -71 87 -89 110 -91 118 -157 200 -187 232 -18 18 -75
92 -160 205 -11 15 -55 70 -97 122 -42 53 -85 110 -95 127 -11 17 -70 90 -133
162 -63 72 -121 141 -129 153 -8 12 -51 65 -96 117 -80 94 -101 121 -182 229
-22 31 -55 74 -73 96 -51 65 -110 148 -110 156 0 4 -15 25 -32 47 -18 23 -43
56 -56 74 -31 46 -163 249 -187 289 -55 92 -75 127 -92 159 -10 19 -29 51 -43
70 -40 55 -68 101 -95 159 -15 30 -35 66 -46 79 -10 14 -19 32 -19 42 0 9 -12
35 -26 56 -15 21 -34 59 -42 84 -8 25 -21 52 -28 61 -8 9 -21 38 -31 65 -9 27
-24 60 -33 74 -10 14 -23 44 -29 67 -6 23 -25 67 -41 98 -17 32 -30 66 -30 77
0 10 -13 49 -28 86 -16 37 -34 89 -41 116 -7 27 -19 62 -27 78 -9 17 -24 75
-35 131 -11 56 -26 112 -35 124 -8 13 -19 58 -24 101 -6 42 -19 113 -30 157
-11 44 -24 118 -30 165 -28 235 -60 592 -65 735 -6 187 8 502 30 630 8 50 20
158 26 240 6 83 19 186 29 230 22 98 28 133 40 258 5 53 19 124 30 157 11 33
25 95 31 137 6 43 21 102 34 133 12 30 25 79 29 109 4 30 18 79 31 110 13 31
28 82 34 113 5 32 17 70 25 86 8 15 26 66 39 112 24 80 36 114 88 243 12 28
28 72 36 97 17 50 59 146 104 232 16 31 29 63 29 70 0 7 16 44 35 82 19 39 35
75 35 82 0 7 11 25 24 41 13 15 29 46 36 68 7 22 23 54 35 70 13 17 26 41 30
55 4 14 17 41 30 60 13 19 32 51 42 71 10 20 34 62 53 93 19 31 51 83 70 115
64 107 212 333 259 396 39 52 73 99 114 156 46 67 84 116 142 184 28 33 58 70
67 83 8 12 51 62 95 110 44 48 100 110 124 137 118 134 416 435 509 517 121
106 297 253 349 293 29 22 65 51 81 65 43 37 89 72 126 95 17 11 58 38 90 60
80 56 134 92 168 113 16 9 40 26 55 38 14 12 42 29 61 39 19 10 49 29 66 41
17 13 36 24 42 24 6 0 23 11 39 24 15 13 44 32 64 42 42 22 114 64 178 106 25
15 49 28 54 28 6 0 24 11 41 23 17 13 49 30 71 37 22 7 53 21 70 31 16 11 34
19 40 19 5 0 45 -18 90 -41z"/>
  </g>
</svg>