<svg xmlns="http://www.w3.org/2000/svg" viewBox="0 0 4096.000000 4096.000000">
  <g transform="translate(0.000000,4096.000000) scale(0.100000,-0.100000)" fill="#f4f5f7" stroke="none">
    <path d="M13455 40449 c-22 -5 -155 -16 -295 -24 -148 -8 -299 -22 -360 -34
-58 -11 -135 -22 -172 -26 -36 -3 -87 -13 -113 -21 -26 -7 -86 -18 -132 -24
-47 -6 -98 -17 -114 -25 -15 -8 -54 -18 -86 -21 -32 -4 -86 -18 -121 -31 -34
-12 -76 -23 -93 -23 -16 0 -56 -11 -89 -25 -33 -14 -68 -25 -80 -25 -11 0 -48
-11 -82 -24 -35 -13 -85 -31 -113 -40 -27 -10 -79 -29 -115 -43 -36 -13 -83
-31 -105 -39 -22 -8 -56 -23 -76 -34 -20 -11 -43 -20 -50 -20 -8 0 -34 -11
-59 -24 -25 -13 -56 -27 -70 -31 -14 -4 -36 -16 -49 -26 -13 -11 -31 -19 -41
-19 -10 0 -29 -9 -43 -20 -14 -12 -41 -26 -59 -32 -18 -6 -43 -19 -56 -29 -13
-10 -36 -20 -51 -24 -16 -3 -37 -15 -47 -26 -9 -10 -25 -19 -34 -19 -9 0 -31
-11 -50 -25 -19 -14 -39 -25 -46 -25 -7 0 -26 -11 -42 -25 -16 -13 -40 -29
-53 -35 -13 -6 -44 -24 -69 -40 -25 -16 -61 -39 -80 -50 -19 -11 -53 -34 -75
-51 -22 -16 -69 -50 -105 -75 -36 -24 -83 -58 -105 -74 -22 -17 -60 -44 -85
-61 -25 -18 -58 -43 -75 -56 -16 -13 -64 -51 -105 -85 -41 -33 -84 -70 -96
-82 -12 -11 -59 -54 -106 -93 -101 -86 -516 -514 -609 -628 -36 -44 -88 -111
-115 -148 -27 -37 -62 -84 -77 -105 -15 -20 -48 -66 -73 -102 -24 -36 -50 -74
-58 -85 -7 -11 -49 -74 -91 -140 -43 -66 -89 -136 -102 -156 -12 -19 -23 -40
-23 -46 0 -6 -7 -17 -16 -24 -9 -8 -25 -32 -36 -54 -10 -22 -32 -62 -48 -90
-16 -27 -34 -61 -40 -75 -7 -14 -18 -36 -25 -50 -66 -125 -84 -161 -94 -192
-7 -20 -19 -42 -27 -48 -7 -7 -14 -20 -14 -29 0 -9 -11 -37 -25 -63 -14 -26
-25 -53 -25 -59 0 -7 -9 -31 -19 -53 -28 -60 -81 -196 -81 -209 0 -7 -12 -34
-25 -62 -14 -27 -25 -56 -25 -62 0 -7 -11 -45 -24 -85 -39 -121 -73 -238 -99
-343 -56 -224 -77 -322 -77 -350 0 -16 -9 -66 -19 -110 -10 -44 -24 -129 -31
-190 -6 -60 -18 -152 -26 -203 -8 -52 -20 -209 -26 -350 -9 -188 -13 -3695
-17 -13029 -4 -8857 -9 -12775 -16 -12782 -8 -8 -854 -12 -2720 -14 -2867 -3
-2808 -2 -2894 -48 -20 -10 -42 -19 -50 -19 -13 0 -133 -57 -216 -103 -57 -32
-230 -207 -257 -261 -13 -25 -39 -79 -59 -118 -48 -96 -86 -225 -95 -318 -3
-41 -6 -482 -5 -980 1 -854 10 -1247 32 -1385 6 -33 18 -123 28 -200 10 -77
25 -167 34 -200 8 -33 18 -89 22 -124 3 -35 13 -80 20 -100 8 -20 21 -68 29
-106 8 -39 20 -84 27 -100 6 -17 17 -57 24 -90 7 -33 20 -80 29 -105 25 -73
47 -142 63 -200 8 -30 23 -73 34 -96 10 -22 19 -47 19 -55 0 -8 11 -36 25 -64
13 -27 25 -56 25 -63 0 -7 14 -43 31 -80 16 -37 39 -87 50 -112 11 -25 31 -67
45 -95 13 -27 30 -66 39 -85 8 -19 19 -42 25 -50 5 -8 16 -31 25 -50 8 -19 19
-42 25 -50 5 -8 16 -31 25 -50 8 -19 28 -57 44 -85 16 -27 38 -66 49 -85 21
-38 95 -159 176 -286 44 -70 71 -111 166 -248 8 -12 42 -57 75 -100 33 -42 67
-88 75 -100 8 -13 25 -34 36 -47 89 -99 115 -130 150 -174 49 -63 141 -161
314 -333 144 -143 224 -216 305 -277 28 -20 70 -55 95 -76 133 -113 512 -395
630 -468 25 -15 59 -36 75 -47 17 -10 46 -27 65 -37 66 -34 101 -55 118 -70 9
-8 34 -20 54 -26 21 -7 41 -17 44 -23 3 -5 25 -18 48 -29 22 -10 48 -23 56
-29 8 -5 31 -16 50 -25 19 -8 42 -19 50 -24 22 -14 145 -71 154 -71 4 0 37
-14 74 -31 131 -62 148 -69 161 -69 6 0 33 -11 59 -25 26 -14 55 -25 65 -25
10 0 32 -8 50 -17 18 -9 59 -24 92 -34 33 -10 80 -24 105 -33 89 -31 146 -48
220 -66 41 -10 100 -25 130 -34 96 -26 193 -48 275 -62 44 -7 105 -20 135 -28
30 -9 101 -20 158 -26 57 -5 136 -17 176 -25 40 -8 151 -20 247 -27 252 -17
19439 -25 19889 -8 314 11 384 17 535 45 44 8 96 15 115 15 19 0 67 7 105 16
39 8 118 24 177 34 59 10 116 24 127 29 11 6 50 15 88 21 38 5 89 18 114 30
24 11 54 20 66 20 13 0 51 11 85 24 35 12 79 26 99 30 19 3 53 15 74 26 22 11
48 20 60 20 11 0 43 11 70 25 28 13 57 25 65 25 8 0 36 11 62 25 26 14 53 25
60 25 7 0 36 11 63 25 28 13 56 25 62 25 7 0 34 11 60 24 27 13 80 38 118 56
39 18 77 36 85 41 8 5 26 14 40 20 92 41 319 162 360 192 14 9 29 17 35 17 9
0 70 37 125 77 13 10 36 24 50 31 14 6 43 26 65 42 35 27 81 59 215 150 54 37
127 93 258 200 64 52 135 108 157 124 75 55 570 562 696 711 150 180 323 419
466 648 55 88 74 119 96 155 12 20 28 46 35 57 6 11 23 40 36 65 13 25 35 65
48 90 14 25 30 55 36 65 10 20 81 169 140 295 16 36 33 76 37 90 4 14 16 41
26 60 11 19 19 41 19 48 0 7 11 34 25 60 14 26 25 52 25 59 0 7 9 32 19 55 26
57 59 159 76 236 8 34 21 75 29 90 8 15 20 56 26 91 6 35 17 73 25 85 7 12 17
48 21 81 4 33 15 84 26 114 10 30 22 91 28 135 5 45 15 104 23 131 8 28 20 97
27 155 6 58 18 141 25 185 8 44 17 127 20 185 4 58 6 4866 5 10686 -1 8976 1
10583 13 10592 10 9 825 12 3188 14 3058 3 3176 4 3219 21 25 11 65 25 90 32
50 15 135 58 196 99 117 79 149 108 238 216 71 86 110 144 121 180 4 14 14 35
22 48 29 47 65 170 78 272 12 88 14 691 14 3635 1 2345 -2 3584 -9 3690 -6 88
-19 228 -30 310 -11 83 -24 195 -31 249 -6 54 -17 120 -25 145 -7 25 -14 62
-14 82 0 19 -11 73 -25 119 -14 46 -25 96 -25 111 0 15 -11 63 -24 106 -13 43
-29 98 -34 123 -17 80 -64 245 -72 255 -4 6 -17 42 -28 80 -28 96 -50 162 -72
215 -11 25 -24 63 -30 85 -6 22 -17 49 -25 59 -8 11 -15 26 -15 34 0 19 -81
209 -123 287 -5 11 -13 27 -17 35 -4 8 -15 31 -25 50 -10 19 -29 55 -42 80
-13 25 -28 52 -33 60 -6 8 -15 26 -21 40 -45 105 -265 449 -394 616 -27 35
-72 94 -100 130 -27 36 -63 80 -80 98 -16 17 -83 93 -147 167 -130 148 -171
189 -335 335 -206 183 -300 259 -419 338 -16 11 -53 36 -82 55 -30 20 -68 45
-86 56 -18 11 -46 29 -62 39 -16 11 -46 30 -66 43 -21 12 -55 34 -76 48 -21
14 -43 25 -48 25 -6 0 -25 11 -44 25 -19 14 -40 25 -48 25 -8 0 -27 11 -44 25
-16 14 -37 25 -47 25 -9 0 -32 11 -51 25 -19 14 -40 25 -47 25 -7 0 -34 11
-60 24 -92 46 -160 76 -175 76 -8 0 -36 11 -62 25 -26 14 -55 25 -64 25 -9 0
-39 11 -67 25 -27 13 -61 25 -75 25 -14 0 -47 11 -75 25 -27 13 -61 25 -75 25
-14 0 -44 9 -68 20 -23 10 -59 22 -80 25 -20 4 -64 15 -97 25 -33 10 -91 22
-130 26 -38 3 -97 15 -130 24 -33 10 -115 23 -182 30 -67 6 -146 16 -175 22
-39 9 -2824 12 -10838 14 -6284 1 -10802 -2 -10825 -7z m18055 -1948 c0 -5
-17 -31 -38 -58 -64 -81 -156 -214 -204 -297 -95 -163 -105 -181 -165 -296
-27 -52 -55 -104 -61 -115 -6 -11 -18 -36 -27 -55 -8 -19 -19 -42 -24 -50 -14
-22 -71 -148 -71 -156 0 -4 -12 -32 -26 -63 -14 -31 -35 -74 -45 -96 -10 -22
-23 -59 -28 -83 -5 -23 -16 -53 -24 -66 -9 -13 -22 -47 -31 -77 -16 -60 -39
-128 -67 -204 -10 -27 -24 -77 -30 -110 -6 -33 -17 -75 -25 -94 -8 -18 -19
-63 -24 -98 -6 -36 -17 -78 -25 -93 -8 -15 -17 -51 -21 -81 -3 -30 -15 -88
-25 -129 -10 -41 -23 -111 -28 -155 -6 -44 -20 -131 -31 -192 -11 -63 -22
-188 -26 -280 -4 -93 -11 -188 -17 -213 -8 -32 -13 -4226 -17 -14755 -5
-11501 -9 -14729 -18 -14795 -7 -47 -16 -98 -21 -115 -5 -16 -14 -70 -21 -120
-6 -49 -18 -108 -25 -130 -8 -22 -19 -71 -25 -109 -6 -38 -16 -78 -22 -90 -6
-11 -19 -50 -29 -86 -22 -85 -46 -153 -75 -216 -13 -28 -24 -59 -24 -69 0 -10
-11 -37 -24 -59 -13 -23 -27 -55 -30 -73 -4 -17 -14 -37 -22 -44 -8 -6 -14
-17 -14 -24 0 -19 -115 -239 -187 -357 -142 -233 -251 -385 -426 -592 -66 -77
-204 -229 -224 -247 -10 -8 -51 -44 -90 -80 -116 -102 -266 -223 -348 -279
-20 -14 -51 -37 -68 -51 -18 -15 -42 -29 -53 -33 -12 -4 -29 -15 -39 -26 -10
-11 -21 -20 -25 -20 -4 0 -38 -21 -76 -46 -38 -25 -82 -52 -99 -60 -16 -8 -52
-28 -80 -44 -27 -16 -66 -36 -85 -45 -19 -8 -42 -20 -50 -25 -8 -6 -31 -17
-50 -26 -19 -8 -55 -24 -80 -36 -156 -72 -235 -104 -300 -123 -25 -7 -58 -20
-75 -29 -16 -9 -43 -16 -58 -16 -15 0 -54 -11 -87 -25 -33 -14 -70 -25 -82
-25 -13 0 -55 -9 -93 -20 -39 -11 -117 -27 -174 -35 -57 -9 -107 -18 -112 -21
-14 -8 -278 -33 -424 -40 -71 -4 -252 -1 -401 5 -212 9 -300 16 -404 36 -73
14 -150 25 -171 25 -21 0 -62 9 -91 19 -29 11 -75 23 -103 26 -27 4 -69 16
-93 26 -23 10 -67 23 -97 28 -30 6 -67 16 -82 24 -16 8 -48 19 -73 25 -25 6
-63 20 -85 32 -21 11 -45 20 -53 20 -7 0 -34 11 -60 25 -26 14 -52 25 -59 25
-7 0 -34 11 -60 24 -159 81 -212 108 -248 125 -22 10 -46 26 -54 35 -7 9 -21
16 -30 16 -10 0 -32 11 -51 25 -19 14 -38 25 -43 25 -5 0 -22 10 -37 23 -15
12 -51 36 -80 52 -29 17 -65 40 -80 53 -15 12 -31 22 -34 22 -15 0 -226 169
-360 289 -125 112 -315 315 -443 473 -148 185 -168 211 -183 238 -8 16 -30 49
-48 75 -18 26 -42 65 -55 87 -12 22 -34 61 -49 87 -14 25 -47 87 -72 136 -26
50 -51 97 -56 105 -20 33 -80 166 -80 176 0 7 -6 17 -14 23 -8 7 -18 26 -22
43 -3 17 -17 51 -30 76 -13 25 -24 52 -24 61 0 9 -8 32 -19 51 -10 19 -23 59
-30 88 -6 29 -17 65 -25 80 -8 15 -17 46 -21 67 -4 22 -17 76 -30 120 -12 44
-28 105 -34 135 -6 30 -18 87 -26 125 -8 39 -24 126 -37 195 -22 123 -22 143
-29 1170 -6 1036 -6 1046 -27 1108 -12 35 -22 79 -22 98 0 19 -11 56 -25 82
-14 26 -25 54 -25 63 0 9 -8 27 -18 40 -11 13 -24 39 -30 57 -12 34 -22 49
-103 150 -68 86 -206 201 -259 217 -14 4 -32 14 -41 22 -33 29 -200 83 -257
83 -18 0 -42 5 -52 10 -13 7 -1992 10 -6018 10 -5055 0 -6001 2 -6011 14 -8
10 -11 3283 -11 12745 0 8620 3 12805 10 12959 6 133 19 270 30 332 10 58 24
140 30 184 7 43 18 99 25 124 8 25 17 70 21 101 3 31 14 76 24 101 10 25 24
74 33 110 15 62 36 131 59 195 6 17 19 55 29 85 11 30 26 66 33 80 7 14 19 43
26 65 7 22 18 51 25 65 8 14 41 81 75 150 64 129 90 177 120 220 9 14 21 37
25 50 4 14 18 38 31 53 13 16 24 33 24 38 0 6 11 25 25 43 14 18 25 36 25 41
0 4 10 20 23 35 12 16 45 61 72 101 28 39 70 94 95 121 25 28 52 60 60 72 24
36 86 102 240 256 147 146 247 238 353 320 92 72 180 136 226 165 9 6 45 29
80 53 35 24 78 50 95 58 17 8 54 28 81 43 67 39 211 111 220 111 4 0 18 9 32
20 14 11 32 20 40 20 7 0 51 18 96 39 46 22 106 47 135 56 29 10 69 26 90 36
20 11 43 19 52 19 9 0 49 11 88 25 39 14 79 25 88 25 8 0 48 11 87 24 40 14
97 28 127 31 30 4 68 14 83 22 16 8 76 21 135 29 59 8 125 18 147 24 22 5 116
15 210 21 93 6 172 12 174 15 2 2 4074 4 9048 4 5427 0 9043 -4 9043 -9z
m3680 -105 c80 -8 165 -21 190 -30 25 -8 70 -18 100 -22 30 -3 75 -15 100 -25
25 -10 65 -23 90 -28 25 -6 63 -19 85 -31 21 -11 45 -20 51 -20 10 0 88 -38
162 -80 9 -5 33 -17 52 -25 89 -40 243 -142 375 -246 122 -97 174 -146 288
-273 105 -116 179 -207 224 -273 14 -21 50 -73 79 -115 30 -42 54 -80 54 -84
0 -4 6 -15 14 -23 8 -9 26 -36 40 -61 36 -63 142 -280 151 -309 4 -14 16 -38
26 -55 11 -17 19 -38 19 -46 0 -8 12 -37 25 -65 14 -27 25 -59 25 -70 0 -11
12 -42 25 -70 14 -27 25 -60 25 -73 0 -12 11 -49 25 -82 14 -33 25 -73 25 -89
0 -17 11 -60 25 -97 14 -36 25 -83 25 -103 0 -20 7 -61 15 -91 9 -30 20 -89
26 -130 5 -41 16 -111 24 -155 40 -227 40 -245 40 -3420 l0 -3060 -2620 0
-2620 0 -3 2955 c-2 1921 1 3006 7 3100 16 224 50 539 66 600 8 30 19 91 25
136 6 44 19 103 30 132 11 29 20 67 20 85 0 17 9 51 20 75 10 23 22 59 25 80
3 20 17 66 29 102 42 118 48 135 63 180 8 25 26 66 39 93 13 26 24 52 24 58 0
6 27 66 61 132 91 182 149 282 241 413 15 22 42 60 61 86 69 100 180 230 258
304 120 114 240 215 325 274 12 8 41 29 64 45 61 43 109 71 155 93 22 11 46
27 54 36 7 9 18 16 23 16 12 0 145 65 161 79 7 5 32 14 56 21 24 6 60 20 80
31 20 10 44 19 53 19 10 0 41 9 70 20 29 11 80 25 113 30 33 6 94 19 135 30
46 12 135 23 230 28 85 5 166 9 180 10 14 1 90 -5 170 -12z m-14604 -31319 c1
-1 5 -238 8 -527 4 -289 10 -554 15 -590 5 -36 15 -126 21 -200 7 -74 19 -164
26 -200 8 -36 21 -117 30 -180 9 -63 27 -150 40 -193 13 -43 24 -91 24 -107 0
-16 9 -51 19 -78 11 -26 22 -70 26 -98 4 -27 15 -65 25 -84 9 -19 20 -55 24
-79 4 -24 13 -56 21 -72 8 -15 21 -55 29 -89 8 -34 19 -67 26 -74 6 -8 17 -36
24 -62 14 -51 44 -125 83 -208 13 -28 23 -56 23 -63 0 -8 9 -31 19 -51 11 -20
31 -62 44 -92 14 -30 61 -130 106 -221 45 -91 81 -171 81 -176 0 -6 7 -16 16
-23 8 -8 22 -27 30 -44 8 -17 30 -56 49 -86 19 -30 42 -68 50 -85 9 -16 28
-49 43 -72 15 -23 49 -77 76 -120 27 -43 66 -98 86 -123 21 -25 42 -55 49 -67
6 -12 65 -88 132 -170 149 -183 185 -226 249 -294 63 -67 76 -88 58 -94 -7 -3
-3426 -4 -7598 -2 -6984 3 -7594 4 -7698 20 -62 9 -116 18 -120 21 -4 2 -62
11 -128 20 -66 9 -149 25 -184 36 -34 11 -72 20 -84 20 -11 0 -57 11 -101 24
-44 13 -100 29 -125 36 -138 37 -181 50 -216 69 -21 12 -48 21 -59 21 -11 0
-31 7 -43 16 -12 8 -46 23 -74 33 -29 10 -66 25 -83 34 -16 8 -79 39 -140 69
-60 29 -124 63 -141 75 -17 13 -34 23 -38 23 -3 0 -25 12 -49 27 -23 14 -58
36 -77 48 -36 23 -77 49 -115 75 -31 21 -74 49 -120 79 -22 14 -56 38 -75 54
-19 15 -39 31 -45 35 -5 5 -57 49 -115 99 -193 168 -493 486 -608 645 -92 128
-125 176 -156 226 -16 26 -38 63 -50 82 -12 19 -27 44 -34 55 -7 11 -21 39
-32 61 -11 23 -26 47 -34 53 -8 7 -18 25 -21 41 -4 16 -14 39 -24 52 -10 13
-23 40 -30 60 -7 20 -18 42 -26 48 -7 6 -17 26 -21 43 -3 18 -15 48 -24 67
-57 111 -80 163 -80 181 0 11 -11 41 -25 67 -14 26 -25 57 -25 70 0 13 -7 37
-17 55 -16 31 -54 165 -75 262 -5 28 -19 78 -29 111 -11 34 -24 102 -30 150
-6 49 -17 115 -25 147 -25 97 -33 292 -34 754 0 353 3 444 13 455 11 11 1500
13 8637 11 4743 -2 8624 -4 8626 -6z"/>
    <path d="M14110 33910 c-172 -32 -337 -119 -452 -237 -64 -66 -138 -162 -138
-179 0 -6 -6 -17 -14 -23 -23 -19 -75 -160 -92 -251 -21 -115 -20 -236 4 -350
21 -100 58 -198 85 -228 10 -10 17 -23 17 -28 0 -6 19 -37 43 -69 49 -68 176
-189 222 -212 16 -8 37 -21 45 -28 26 -23 127 -73 162 -80 18 -4 62 -15 98
-26 64 -19 171 -19 5935 -17 l5870 3 75 23 c107 34 216 89 305 157 67 50 169
157 206 215 57 90 96 179 120 275 17 70 21 117 20 211 0 73 -6 136 -14 160 -8
21 -17 57 -21 79 -4 22 -14 50 -22 63 -9 13 -21 40 -28 60 -14 39 -33 69 -104
164 -41 56 -223 218 -244 218 -6 0 -19 6 -27 14 -30 26 -148 66 -252 86 -103
20 -171 20 -5904 19 -5524 -1 -5805 -2 -5895 -19z"/>
    <path d="M14130 29949 c-58 -10 -123 -27 -145 -38 -21 -12 -46 -21 -55 -21 -9
0 -31 -11 -50 -25 -19 -14 -39 -25 -45 -25 -31 0 -216 -165 -269 -240 -46 -65
-62 -96 -116 -215 -17 -38 -42 -154 -55 -260 -8 -64 30 -309 55 -350 10 -16
21 -41 25 -55 4 -14 16 -36 27 -50 10 -14 35 -50 55 -80 20 -30 69 -87 108
-126 102 -101 215 -172 350 -220 l80 -29 5910 0 5910 0 42 23 c23 12 53 22 65
22 23 0 125 48 183 85 94 61 158 116 223 192 55 64 146 229 157 285 3 18 13
62 22 98 9 38 15 111 15 175 1 90 -4 126 -26 198 -14 49 -32 101 -41 115 -8
15 -21 43 -30 62 -24 55 -58 106 -116 176 -60 72 -184 179 -239 206 -19 10
-42 22 -50 27 -41 25 -165 62 -252 76 -86 13 -770 15 -5865 14 -5525 -1 -5772
-2 -5873 -20z"/>
    <path d="M19715 25999 c-3574 -3 -5598 -9 -5630 -15 -27 -6 -60 -16 -73 -23
-13 -7 -45 -19 -72 -27 -26 -8 -53 -21 -60 -29 -7 -8 -18 -15 -24 -15 -24 0
-140 -84 -200 -144 -56 -56 -136 -162 -136 -180 0 -5 -9 -20 -19 -35 -11 -15
-23 -40 -27 -57 -3 -16 -13 -40 -21 -53 -20 -32 -53 -219 -53 -300 0 -88 33
-273 53 -305 10 -14 17 -32 17 -39 0 -8 27 -54 59 -103 60 -91 198 -237 248
-263 16 -7 41 -25 56 -37 16 -13 33 -24 39 -24 6 0 19 -7 28 -15 9 -8 41 -23
71 -34 30 -11 74 -26 98 -35 40 -15 515 -17 5930 -16 3237 1 5904 5 5926 9 22
4 54 15 72 24 18 9 38 17 45 17 17 0 131 58 181 93 113 77 218 182 263 262 62
107 90 174 111 255 28 110 40 277 24 335 -5 22 -19 75 -30 118 -11 43 -25 84
-30 91 -6 7 -17 30 -25 52 -23 67 -119 197 -198 269 -86 78 -196 149 -248 160
-19 4 -47 14 -62 21 -61 31 -180 43 -458 46 -151 2 -2786 0 -5855 -3z"/>
    <path d="M14170 22027 c-77 -7 -118 -15 -156 -33 -28 -13 -59 -24 -70 -25 -18
0 -96 -44 -180 -100 -77 -51 -211 -195 -246 -264 -8 -16 -22 -43 -31 -60 -52
-102 -87 -250 -87 -375 0 -82 28 -257 48 -304 29 -66 83 -169 106 -199 48 -65
145 -162 211 -211 76 -57 147 -96 210 -116 22 -7 46 -17 52 -22 7 -6 54 -16
105 -24 79 -12 985 -14 5888 -14 3555 1 5823 4 5867 10 40 5 91 19 112 30 22
11 48 20 57 20 20 0 146 63 184 92 14 10 38 29 55 41 49 36 123 117 169 187
65 98 115 197 122 243 4 23 15 75 25 116 25 97 24 211 0 292 -11 35 -22 80
-26 99 -10 49 -89 209 -122 247 -16 17 -44 50 -63 74 -42 51 -205 189 -224
189 -7 0 -24 9 -38 19 -13 11 -67 35 -119 53 l-94 33 -2090 2 c-5846 7 -9571
7 -9665 0z"/>
    <path d="M14220 18073 c-97 -9 -174 -25 -208 -43 -20 -11 -45 -20 -55 -20 -20
0 -77 -31 -167 -89 -54 -34 -194 -170 -236 -227 -28 -39 -68 -116 -98 -189
-31 -75 -56 -209 -56 -303 0 -87 27 -269 44 -297 7 -11 18 -35 24 -53 35 -102
187 -286 312 -376 19 -14 54 -34 76 -45 23 -11 45 -24 48 -29 3 -6 21 -14 39
-17 17 -4 48 -16 68 -26 21 -10 79 -22 140 -28 72 -8 1909 -10 5944 -8 5624 2
5842 3 5885 20 25 10 64 25 87 32 60 19 172 87 242 145 80 67 176 191 216 280
9 19 25 53 35 75 18 38 40 119 62 230 14 69 4 191 -26 310 -25 102 -49 159
-95 230 -27 42 -112 147 -146 180 -51 50 -143 123 -170 137 -16 8 -43 22 -60
31 -62 32 -132 58 -185 69 -41 9 -1485 12 -5870 13 -3198 1 -5831 0 -5850 -2z"/>
    <path d="M14199 14109 c-59 -4 -126 -15 -150 -24 -24 -9 -62 -23 -84 -30 -68
-23 -157 -75 -226 -131 -71 -58 -150 -141 -187 -195 -58 -87 -72 -111 -78
-137 -4 -15 -15 -43 -24 -62 -17 -34 -31 -99 -50 -241 -6 -41 -6 -88 0 -120 5
-30 15 -88 21 -129 6 -41 19 -88 29 -105 10 -16 21 -41 25 -55 16 -55 138
-222 203 -278 110 -94 238 -173 302 -187 19 -4 41 -12 48 -18 7 -5 31 -14 55
-18 55 -11 11811 -11 11857 0 119 28 236 83 320 150 62 50 148 139 179 185 53
79 72 112 87 146 8 19 24 53 34 75 10 22 31 79 46 127 25 79 26 96 22 200 -3
65 -12 130 -21 153 -8 22 -18 56 -21 76 -7 39 -54 140 -93 199 -64 97 -116
154 -215 234 -88 72 -167 126 -186 126 -6 0 -32 9 -59 21 -117 51 183 49
-5983 47 -3160 0 -5793 -5 -5851 -9z"/>
  </g>
</svg>