<svg xmlns="http://www.w3.org/2000/svg" viewBox="0 0 4096.000000 4096.000000">
  <g transform="translate(0.000000,4096.000000) scale(0.100000,-0.100000)" fill="#f4f5f7" stroke="#f4f5f7" stroke-width="40" stroke-linejoin="round" stroke-linecap="round">
    <path d="M12125 31910 c-167 -13 -405 -48 -555 -82 -171 -38 -391 -109 -595
-192 -253 -102 -356 -153 -662 -329 -299 -172 -680 -493 -957 -807 -229 -260
-347 -424 -511 -710 -177 -308 -305 -616 -409 -985 -29 -106 -80 -387 -95
-530 -30 -285 -33 -618 -35 -3770 -1 -3072 -2 -3201 -19 -3233 -35 -65 9 -62
-1035 -65 -872 -2 -955 -1 -1047 16 -289 52 -539 152 -755 305 -120 84 -407
369 -476 470 -107 159 -187 321 -224 457 -26 90 -25 139 2 183 12 20 57 58
107 91 145 95 203 141 286 226 84 85 152 179 203 280 43 86 89 221 106 315 31
160 14 351 -45 513 -56 157 -162 295 -298 392 -102 71 -183 109 -307 142 l-99
27 -1360 6 c-748 4 -1414 3 -1480 -1 -90 -5 -142 -14 -211 -37 -134 -43 -242
-110 -349 -217 -134 -134 -216 -286 -249 -464 -20 -106 -21 -305 -1 -435 35
-231 136 -511 263 -725 110 -188 186 -287 304 -395 68 -63 105 -88 207 -138
163 -80 190 -98 381 -263 123 -106 476 -455 576 -570 38 -44 105 -121 149
-171 44 -49 109 -124 145 -164 36 -41 106 -119 155 -174 50 -54 119 -134 155
-176 192 -226 468 -511 625 -647 60 -52 175 -138 255 -191 156 -104 459 -263
631 -330 377 -149 737 -236 1090 -263 83 -6 584 -14 1179 -17 1144 -8 1079 -3
1112 -72 16 -33 18 -128 23 -1230 7 -1448 14 -1628 77 -1955 33 -173 73 -321
142 -522 69 -200 112 -308 181 -448 97 -199 163 -312 283 -490 94 -139 157
-218 298 -376 170 -190 346 -353 620 -577 178 -145 484 -347 662 -436 188 -94
467 -201 742 -284 175 -53 395 -97 569 -114 71 -8 1320 -13 3827 -17 3703 -6
3722 -6 3744 -26 13 -11 28 -33 35 -49 10 -23 12 -203 8 -835 -6 -884 -4 -850
-66 -876 -23 -9 -127 -14 -362 -18 -358 -6 -426 -14 -582 -67 -47 -16 -117
-48 -156 -71 -39 -23 -105 -76 -147 -118 -82 -81 -139 -162 -171 -244 -27 -69
-56 -196 -63 -282 -8 -83 7 -252 30 -344 37 -148 130 -309 237 -406 84 -76
172 -132 285 -180 93 -39 183 -59 327 -74 149 -15 2947 -26 3156 -12 201 13
326 42 454 105 50 24 116 65 147 90 118 94 202 226 244 381 16 59 19 104 18
290 0 195 -3 229 -22 300 -26 95 -67 184 -111 246 -95 131 -260 261 -407 320
-129 52 -192 60 -529 68 -335 7 -349 10 -389 64 -21 29 -21 30 -17 835 2 634
6 814 16 839 7 17 25 39 39 48 24 16 276 17 3838 14 3952 -3 3889 -3 4123 36
152 26 350 74 465 114 285 98 476 175 635 258 84 44 267 152 350 207 252 167
571 459 825 758 172 201 214 255 304 388 210 310 414 726 533 1090 88 271 146
574 174 915 7 88 14 610 18 1400 5 1041 9 1265 20 1287 8 15 26 36 40 45 24
17 103 18 1251 24 l1225 5 155 27 c184 31 301 57 432 98 91 28 245 88 333 129
195 90 254 120 350 177 363 217 627 446 976 850 30 34 149 169 264 299 116
131 248 281 294 333 160 182 277 307 446 476 193 192 312 302 569 525 115 100
220 201 293 285 180 205 261 338 383 625 101 240 142 393 160 596 16 185 -18
380 -92 527 -72 144 -165 251 -276 320 -67 42 -187 83 -281 97 -43 7 -554 10
-1451 8 l-1385 -3 -65 -23 c-83 -29 -200 -92 -269 -145 -29 -22 -81 -72 -115
-109 -109 -119 -186 -272 -222 -443 -19 -87 -22 -311 -5 -420 16 -104 63 -275
107 -389 57 -147 95 -211 322 -543 29 -42 59 -100 68 -129 11 -40 12 -62 4
-99 -13 -59 -28 -88 -98 -189 -48 -71 -146 -202 -162 -216 -3 -3 -18 -21 -34
-40 -58 -71 -242 -256 -330 -333 -50 -44 -123 -101 -162 -127 -127 -87 -304
-158 -475 -194 -173 -36 -299 -39 -1242 -33 -1007 7 -963 4 -1000 67 -17 27
-18 214 -18 3292 0 1870 -5 3340 -10 3443 -5 99 -16 218 -24 265 -8 47 -24
142 -35 213 -26 156 -70 340 -112 461 -44 131 -158 396 -242 565 -119 240
-304 534 -487 776 -146 192 -487 547 -669 696 -161 132 -287 227 -373 281
-149 93 -483 264 -677 346 -202 85 -400 150 -640 207 -213 52 -318 69 -555 90
-151 14 -1107 16 -8405 19 -4529 3 -8284 1 -8345 -4z m16765 -2019 c225 -25
431 -93 660 -217 58 -31 128 -73 155 -93 69 -50 248 -191 260 -206 6 -7 37
-37 70 -66 116 -103 277 -301 360 -444 56 -97 128 -251 162 -350 39 -114 76
-258 100 -395 16 -88 17 -477 19 -5250 1 -2835 -1 -5429 -6 -5765 -8 -550 -11
-621 -29 -723 -29 -159 -56 -259 -102 -380 -85 -222 -189 -401 -343 -587 -137
-166 -274 -286 -480 -422 -80 -52 -245 -132 -356 -173 -63 -23 -169 -54 -235
-68 l-120 -26 -8345 -4 c-6255 -2 -8375 0 -8465 8 -311 30 -520 95 -790 245
-180 100 -322 209 -479 369 -146 148 -213 236 -323 424 -140 240 -227 508
-259 797 -4 39 -7 2579 -5 5645 3 6179 -1 5845 65 6101 42 163 89 286 168 441
99 195 195 333 333 477 179 187 422 369 633 475 123 62 315 129 438 154 107
22 281 41 409 45 44 1 3750 2 8235 1 6559 0 8178 -3 8270 -13z"/>
  </g>
</svg>