<svg xmlns="http://www.w3.org/2000/svg" viewBox="0 0 4096.000000 4096.000000">
  <g transform="translate(0.000000,4096.000000) scale(0.100000,-0.100000)" fill="#f4f5f7" stroke="none">
    <path d="M10641 30149 c-52 -5 -122 -17 -155 -28 -34 -11 -95 -25 -136 -30
-42 -6 -100 -21 -130 -35 -30 -13 -75 -27 -100 -31 -25 -4 -58 -15 -75 -25
-16 -10 -54 -25 -84 -34 -30 -9 -68 -24 -86 -35 -17 -10 -54 -26 -82 -35 -28
-9 -57 -23 -63 -31 -6 -8 -28 -19 -48 -26 -20 -6 -50 -21 -67 -33 -16 -11 -51
-31 -76 -42 -26 -12 -50 -27 -54 -34 -4 -7 -22 -19 -39 -27 -17 -7 -58 -34
-91 -58 -33 -25 -76 -56 -95 -70 -19 -14 -51 -38 -71 -53 -20 -15 -62 -47 -95
-71 -83 -62 -337 -319 -417 -421 -36 -47 -76 -98 -89 -114 -13 -16 -32 -44
-43 -62 -11 -17 -38 -58 -60 -89 -48 -68 -86 -133 -116 -195 -12 -25 -30 -57
-41 -72 -10 -15 -24 -42 -30 -60 -6 -18 -20 -45 -30 -60 -10 -15 -28 -53 -39
-85 -10 -31 -26 -67 -33 -79 -8 -11 -22 -48 -32 -80 -9 -32 -23 -69 -31 -80
-7 -12 -20 -53 -28 -93 -9 -39 -24 -92 -34 -119 -11 -26 -29 -102 -40 -168
-12 -65 -28 -148 -37 -184 -10 -45 -18 -169 -24 -410 -6 -205 -9 -1897 -9
-4163 2 -3268 0 -3820 -12 -3828 -20 -12 -3616 -12 -3624 1 -3 5 -6 389 -6
852 0 464 -4 875 -9 913 -14 109 -54 240 -84 275 -14 17 -26 35 -26 40 0 4
-21 35 -47 68 -46 58 -161 162 -180 162 -4 0 -24 11 -43 24 -20 13 -80 36
-135 52 l-100 29 -1225 0 -1225 0 -95 -26 c-109 -29 -203 -81 -296 -164 -92
-81 -141 -159 -180 -288 -45 -146 -46 -216 -2 -352 39 -122 99 -216 196 -306
38 -35 107 -85 153 -110 72 -40 97 -48 175 -58 61 -7 367 -11 942 -11 670 0
853 -3 859 -12 4 -7 7 -386 5 -843 -2 -495 1 -875 7 -941 8 -94 15 -121 45
-185 48 -98 77 -139 162 -224 94 -93 202 -156 324 -189 l95 -26 2158 0 c1735
0 2159 -2 2163 -13 2 -7 6 -897 8 -1977 2 -1330 7 -1996 14 -2060 6 -52 20
-129 30 -170 11 -41 23 -104 27 -139 4 -35 18 -96 32 -134 13 -39 29 -95 35
-126 5 -30 18 -72 29 -93 10 -20 24 -61 30 -90 6 -29 20 -67 30 -84 11 -18 28
-56 38 -85 10 -30 30 -76 45 -103 14 -27 26 -54 26 -60 0 -6 14 -29 30 -50 17
-22 30 -44 30 -49 0 -5 17 -37 37 -70 36 -61 42 -71 93 -147 14 -20 38 -57 54
-81 47 -71 237 -287 337 -384 133 -128 233 -215 353 -305 26 -19 64 -48 85
-65 21 -16 52 -38 67 -47 16 -10 56 -36 89 -58 33 -22 76 -47 95 -56 19 -9 49
-26 65 -39 17 -12 41 -26 55 -30 14 -4 41 -18 60 -30 19 -13 53 -29 75 -35 22
-7 51 -21 65 -30 14 -10 48 -25 76 -33 28 -8 68 -24 90 -35 21 -11 62 -24 90
-30 28 -6 75 -20 104 -32 29 -11 96 -29 149 -40 53 -11 126 -26 163 -35 37 -8
171 -19 300 -25 308 -13 18891 -13 19233 0 147 6 267 16 310 25 39 9 120 27
182 40 61 13 124 30 140 38 15 8 55 20 88 27 33 7 80 23 105 35 25 12 61 26
80 30 19 4 54 17 77 30 23 13 64 31 92 40 27 9 55 22 61 30 6 8 28 19 48 26
20 7 51 22 67 35 17 12 46 29 65 38 19 9 60 33 91 54 30 20 71 47 90 59 72 46
131 89 160 116 16 15 34 27 39 27 5 0 19 11 32 23 13 13 75 69 138 124 117
101 258 244 307 311 15 20 48 62 73 92 26 30 73 96 105 145 33 50 65 96 72
103 6 6 15 22 19 35 3 12 16 36 29 52 12 17 32 50 44 75 12 25 31 63 43 85 11
22 26 51 33 65 6 14 16 34 22 45 29 52 82 176 88 206 4 19 18 55 30 80 13 25
28 73 35 107 6 33 19 81 30 105 11 24 26 88 35 143 8 54 24 131 35 169 16 56
22 119 30 320 5 138 10 1111 10 2164 0 1053 2 1917 6 1920 3 3 924 8 2047 11
l2042 5 45 21 c25 12 61 25 80 29 92 20 270 163 325 261 16 27 38 65 50 84 23
36 36 79 62 210 12 62 14 202 14 831 -1 600 2 759 12 773 12 16 68 17 972 17
528 -1 1011 3 1073 9 70 5 125 15 145 26 18 9 49 25 70 36 64 32 151 104 210
173 32 37 57 72 57 80 0 7 7 18 14 25 20 16 40 75 67 194 19 87 20 106 11 170
-17 104 -45 201 -64 223 -9 10 -23 32 -30 49 -12 29 -67 101 -98 130 -82 77
-208 145 -310 169 -61 13 -168 18 -570 26 -272 6 -889 8 -1370 5 l-875 -5
-105 -26 c-57 -15 -116 -35 -130 -45 -14 -10 -41 -24 -60 -33 -19 -8 -73 -52
-119 -98 -121 -121 -128 -130 -139 -171 -6 -21 -19 -50 -31 -66 -42 -60 -45
-114 -48 -962 -2 -752 -3 -805 -19 -817 -14 -10 -345 -13 -1657 -13 -1110 0
-1645 3 -1658 10 -19 11 -19 65 -19 3933 0 2701 -3 3973 -11 4087 -7 108 -17
186 -30 225 -10 33 -26 108 -34 167 -8 59 -24 131 -35 160 -11 29 -24 77 -30
106 -5 29 -21 76 -35 106 -14 29 -25 61 -25 71 0 17 -66 172 -93 220 -6 11
-25 47 -42 80 -18 33 -47 87 -65 120 -18 33 -44 80 -57 105 -13 24 -32 53 -42
65 -10 11 -26 34 -35 50 -48 87 -163 235 -315 405 -127 142 -211 222 -321 305
-29 22 -64 50 -78 63 -14 12 -28 22 -33 22 -4 0 -26 16 -49 35 -23 19 -48 35
-54 35 -7 0 -21 9 -32 21 -10 12 -40 32 -65 44 -25 13 -51 30 -57 38 -7 8 -27
21 -45 28 -18 7 -45 23 -60 36 -16 13 -34 23 -41 23 -7 0 -32 13 -57 29 -25
15 -63 34 -85 41 -21 7 -49 21 -62 31 -13 10 -49 25 -80 34 -31 9 -72 25 -92
35 -20 10 -54 22 -75 25 -22 4 -65 18 -95 30 -30 13 -87 28 -127 34 -39 6
-118 23 -175 38 l-103 28 -9815 1 c-5398 1 -9857 -2 -9909 -7z m19688 -1347
c57 -17 113 -32 125 -32 11 0 48 -14 81 -30 33 -17 67 -30 75 -30 9 0 37 -14
63 -30 26 -17 54 -30 61 -30 7 0 30 -11 50 -25 20 -14 51 -32 69 -41 17 -9 46
-28 62 -41 17 -13 64 -50 105 -82 90 -69 217 -194 274 -270 71 -94 126 -176
126 -188 0 -6 11 -25 25 -41 14 -17 31 -45 37 -64 6 -18 21 -49 34 -68 12 -19
25 -50 29 -69 4 -18 18 -59 32 -90 14 -31 29 -81 34 -112 5 -31 18 -77 29
-101 11 -25 25 -83 31 -129 8 -62 12 -1776 15 -6464 4 -6256 2 -6985 -27
-7135 -5 -30 -17 -73 -25 -95 -9 -22 -20 -66 -25 -99 -6 -32 -19 -77 -30 -99
-12 -22 -28 -63 -36 -91 -8 -28 -24 -64 -35 -79 -11 -15 -24 -43 -29 -62 -5
-19 -21 -48 -34 -64 -14 -16 -25 -33 -25 -38 0 -11 -87 -145 -103 -158 -7 -5
-25 -27 -41 -48 -49 -67 -148 -167 -236 -241 -99 -84 -184 -146 -197 -146 -6
0 -22 -10 -37 -21 -15 -12 -49 -30 -75 -40 -27 -10 -66 -30 -86 -44 -21 -14
-45 -25 -55 -25 -9 0 -39 -12 -66 -26 -27 -14 -80 -32 -119 -40 -38 -7 -96
-22 -128 -34 -47 -17 -98 -22 -290 -30 -320 -13 -18844 -13 -19064 0 -102 6
-178 16 -205 26 -24 9 -81 24 -128 35 -47 10 -107 30 -134 44 -27 14 -56 25
-63 25 -8 0 -44 16 -80 35 -36 19 -72 35 -79 35 -7 0 -25 11 -41 24 -15 13
-41 31 -58 40 -58 33 -163 108 -209 151 -57 53 -190 183 -216 212 -42 46 -128
168 -160 225 -11 20 -31 53 -45 74 -14 20 -25 44 -25 53 0 9 -11 32 -24 52
-13 19 -30 55 -36 80 -7 24 -22 64 -35 89 -12 25 -28 77 -34 115 -6 39 -20 97
-32 130 -14 41 -24 101 -30 190 -12 185 -11 13274 1 13399 6 55 21 131 35 172
14 40 25 84 25 99 0 15 13 57 29 93 16 37 35 87 41 112 7 25 20 56 29 70 10
14 25 46 35 71 9 26 26 55 36 64 11 10 20 23 20 29 0 12 87 143 111 167 10 10
25 31 33 46 17 34 200 212 274 268 29 22 71 55 93 73 23 17 46 32 53 32 7 0
30 13 52 29 22 16 53 33 69 37 17 3 53 19 81 35 28 16 58 29 66 29 8 0 36 11
62 25 26 14 87 34 136 45 49 10 100 25 112 31 13 7 52 16 88 19 36 4 4428 7
9760 6 l9695 -1 104 -33z"/>
  </g>
</svg>