<svg xmlns="http://www.w3.org/2000/svg" viewBox="0 0 4096.000000 4096.000000">
  <g transform="translate(0.000000,4096.000000) scale(0.100000,-0.100000)" fill="#f4f5f7" stroke="none">
    <path d="M20380 40415 c-56 -9 -106 -24 -145 -45 -62 -32 -151 -102 -195 -154
-36 -42 -90 -128 -90 -143 0 -7 -10 -32 -22 -55 l-23 -43 -5 -1610 -5 -1610
-105 -6 c-58 -3 -208 -11 -335 -18 -249 -13 -430 -27 -540 -41 -38 -5 -128
-14 -200 -20 -71 -5 -160 -17 -196 -25 -36 -8 -119 -19 -185 -25 -65 -6 -144
-17 -174 -25 -30 -8 -104 -19 -165 -25 -60 -6 -133 -17 -160 -25 -28 -8 -91
-19 -140 -25 -50 -5 -126 -19 -170 -29 -44 -11 -109 -23 -145 -27 -36 -4 -83
-13 -105 -21 -22 -8 -76 -19 -120 -24 -44 -6 -107 -18 -140 -29 -34 -10 -88
-21 -120 -25 -33 -4 -80 -15 -105 -25 -25 -10 -70 -21 -100 -24 -30 -4 -91
-18 -135 -31 -44 -12 -102 -28 -130 -33 -97 -21 -220 -53 -251 -67 -17 -7 -60
-19 -95 -26 -35 -6 -81 -20 -101 -30 -21 -11 -50 -19 -65 -19 -15 -1 -46 -8
-68 -17 -22 -8 -70 -23 -107 -34 -37 -10 -77 -23 -89 -30 -13 -6 -50 -18 -83
-26 -33 -7 -66 -19 -73 -25 -7 -6 -37 -16 -66 -23 -28 -7 -74 -22 -102 -33
-49 -19 -75 -29 -165 -60 -25 -8 -70 -26 -101 -39 -31 -12 -64 -23 -73 -23 -9
0 -38 -11 -64 -25 -26 -14 -56 -25 -67 -25 -11 0 -44 -11 -73 -25 -30 -14 -61
-25 -70 -25 -9 0 -34 -9 -56 -19 -23 -11 -66 -29 -96 -39 -109 -40 -156 -58
-187 -75 -18 -9 -38 -17 -46 -17 -7 0 -36 -11 -63 -25 -27 -14 -53 -25 -58
-25 -11 0 -118 -48 -189 -85 -26 -14 -52 -25 -58 -25 -10 0 -119 -48 -164 -72
-11 -6 -27 -14 -35 -18 -8 -4 -40 -18 -70 -32 -30 -14 -86 -40 -125 -58 -38
-17 -77 -36 -85 -41 -8 -4 -53 -27 -100 -49 -47 -23 -94 -46 -105 -52 -11 -7
-40 -22 -65 -35 -25 -13 -52 -27 -60 -32 -8 -6 -31 -17 -50 -27 -19 -9 -60
-30 -90 -46 -30 -16 -68 -36 -85 -44 -16 -8 -37 -19 -45 -25 -8 -5 -37 -20
-65 -34 -27 -14 -71 -37 -98 -53 -26 -15 -84 -47 -129 -70 -45 -24 -93 -52
-106 -63 -14 -10 -28 -19 -32 -19 -5 0 -37 -18 -71 -40 -35 -22 -79 -47 -98
-56 -18 -8 -45 -23 -60 -33 -29 -20 -99 -64 -231 -146 -19 -12 -57 -36 -85
-53 -27 -17 -63 -41 -80 -52 -16 -12 -57 -39 -90 -60 -33 -22 -86 -57 -119
-80 -32 -22 -61 -40 -65 -40 -5 0 -16 -9 -27 -21 -10 -11 -32 -27 -49 -35 -37
-18 -96 -56 -221 -146 -18 -13 -56 -40 -85 -60 -30 -20 -88 -61 -129 -92 -41
-30 -108 -79 -149 -108 -40 -29 -81 -60 -91 -69 -9 -9 -37 -30 -62 -47 -24
-17 -76 -57 -116 -89 -39 -32 -101 -80 -138 -108 -36 -27 -105 -82 -153 -120
-47 -39 -111 -89 -141 -112 -30 -23 -74 -59 -96 -80 -59 -54 -143 -126 -168
-142 -12 -8 -43 -35 -70 -60 -27 -25 -59 -55 -71 -66 -12 -11 -53 -47 -91 -80
-90 -77 -273 -245 -399 -365 -182 -173 -688 -683 -800 -805 -326 -358 -676
-760 -783 -900 -196 -256 -253 -331 -287 -381 -11 -16 -40 -56 -65 -89 -25
-33 -54 -73 -65 -89 -11 -16 -30 -43 -43 -60 -12 -17 -33 -47 -47 -66 -14 -19
-48 -66 -75 -105 -28 -38 -88 -126 -133 -195 -46 -69 -92 -138 -102 -153 -11
-16 -27 -41 -35 -55 -8 -15 -25 -41 -38 -59 -12 -17 -22 -35 -22 -41 0 -5 -12
-25 -27 -45 -16 -20 -50 -71 -77 -114 -27 -43 -56 -89 -65 -102 -9 -13 -27
-43 -41 -67 -46 -78 -70 -119 -100 -164 -28 -45 -80 -130 -110 -182 -8 -15
-30 -54 -49 -85 -19 -32 -44 -74 -55 -94 -12 -20 -43 -75 -71 -123 -27 -48
-56 -99 -63 -114 -7 -15 -17 -34 -22 -42 -5 -8 -39 -76 -75 -150 -36 -74 -73
-146 -80 -160 -8 -14 -19 -36 -26 -50 -6 -14 -17 -36 -25 -50 -7 -14 -19 -36
-25 -50 -6 -14 -48 -99 -92 -190 -44 -91 -104 -217 -134 -280 -30 -63 -63
-132 -74 -152 -10 -20 -19 -42 -19 -48 0 -10 -15 -45 -81 -186 -10 -23 -19
-44 -19 -48 0 -8 -50 -129 -79 -191 -10 -22 -26 -60 -34 -85 -37 -108 -58
-162 -77 -192 -11 -18 -20 -42 -20 -53 0 -11 -11 -42 -25 -70 -13 -27 -25 -57
-25 -65 0 -8 -11 -39 -25 -68 -14 -30 -25 -64 -25 -75 0 -12 -7 -35 -16 -52
-9 -16 -25 -55 -35 -85 -10 -30 -32 -93 -49 -140 -17 -47 -40 -113 -50 -146
-10 -34 -23 -70 -28 -81 -6 -10 -19 -53 -30 -94 -24 -88 -45 -152 -78 -237
-13 -34 -24 -76 -24 -93 0 -16 -7 -44 -16 -60 -8 -17 -22 -62 -30 -100 -8 -38
-21 -86 -29 -107 -7 -20 -19 -64 -25 -97 -6 -33 -20 -82 -29 -110 -10 -27 -21
-74 -25 -104 -4 -30 -14 -70 -22 -90 -8 -19 -21 -72 -29 -118 -8 -46 -19 -92
-25 -102 -5 -11 -17 -61 -25 -113 -8 -51 -22 -111 -30 -133 -8 -22 -14 -52
-15 -66 0 -15 -11 -69 -24 -120 -13 -52 -27 -119 -30 -149 -4 -30 -14 -78 -21
-105 -8 -28 -21 -98 -30 -155 -9 -58 -20 -121 -26 -140 -5 -19 -19 -100 -30
-180 -10 -80 -26 -179 -34 -220 -8 -41 -14 -96 -15 -121 0 -25 -9 -96 -20
-157 -11 -62 -25 -181 -30 -265 -6 -83 -17 -195 -26 -247 -8 -52 -19 -185 -24
-295 -17 -373 -32 -610 -39 -617 -3 -4 -726 -9 -1606 -10 l-1600 -3 -70 -30
c-100 -42 -197 -108 -254 -172 -27 -30 -64 -87 -84 -126 -26 -54 -37 -95 -46
-164 -9 -75 -9 -107 4 -180 20 -114 67 -204 149 -287 79 -80 141 -121 240
-159 l81 -30 1580 2 c1293 2 1583 0 1596 -11 13 -10 19 -50 28 -198 6 -102 16
-282 21 -402 5 -119 16 -261 24 -315 9 -54 20 -163 25 -243 5 -80 19 -197 29
-260 11 -63 23 -155 26 -204 4 -49 13 -115 21 -146 8 -30 19 -101 25 -155 6
-55 17 -122 25 -150 8 -27 19 -90 25 -140 6 -49 19 -119 30 -155 10 -36 21
-94 25 -130 4 -35 14 -82 22 -104 7 -22 20 -83 28 -136 8 -52 21 -115 29 -140
8 -25 20 -78 26 -118 6 -41 17 -86 24 -101 8 -14 17 -49 21 -76 3 -28 17 -83
31 -123 13 -40 24 -83 24 -95 0 -13 11 -56 25 -95 14 -39 25 -82 25 -95 0 -13
11 -56 25 -95 14 -39 25 -82 25 -94 1 -13 8 -41 16 -63 9 -22 24 -71 34 -110
11 -38 26 -90 34 -115 31 -92 48 -147 68 -220 11 -41 23 -79 28 -85 4 -5 16
-39 25 -75 9 -35 22 -76 29 -90 7 -14 19 -47 25 -75 7 -27 18 -59 26 -71 7
-12 17 -39 21 -60 4 -21 15 -57 25 -79 18 -39 45 -115 75 -205 8 -24 23 -63
34 -85 11 -23 20 -47 20 -53 0 -7 11 -35 25 -62 14 -27 25 -55 25 -63 0 -7 9
-30 20 -51 11 -22 26 -60 35 -86 9 -26 24 -64 35 -86 11 -21 20 -44 20 -51 0
-6 11 -33 25 -59 14 -26 25 -54 25 -63 0 -9 12 -34 25 -56 14 -22 25 -47 25
-55 0 -8 8 -31 19 -50 10 -19 24 -53 31 -75 7 -22 21 -51 31 -64 11 -13 19
-32 19 -43 0 -11 11 -38 24 -61 13 -23 27 -53 31 -67 4 -14 15 -36 24 -50 10
-14 32 -59 50 -100 18 -41 52 -115 76 -165 24 -49 51 -106 59 -125 9 -19 20
-42 26 -50 5 -8 16 -31 25 -50 8 -19 19 -42 24 -50 5 -8 29 -53 51 -100 23
-47 57 -112 76 -145 18 -33 42 -76 52 -95 73 -138 106 -197 117 -210 7 -8 22
-33 33 -55 10 -22 44 -82 73 -133 30 -51 65 -112 79 -137 49 -89 152 -260 171
-285 11 -14 25 -36 31 -50 7 -14 28 -49 48 -79 70 -107 86 -131 129 -202 25
-39 50 -77 57 -83 6 -7 19 -25 28 -41 9 -17 25 -41 35 -55 10 -14 35 -50 54
-80 20 -30 59 -86 87 -125 27 -38 74 -106 105 -150 30 -44 77 -111 105 -150
27 -38 61 -86 75 -105 98 -139 239 -324 332 -435 32 -39 78 -97 103 -130 25
-32 56 -70 69 -84 13 -15 35 -42 50 -61 35 -48 221 -273 235 -285 6 -5 23 -26
37 -45 30 -39 276 -316 384 -430 39 -41 214 -218 390 -395 355 -354 577 -565
765 -725 41 -35 82 -71 90 -80 17 -18 244 -209 304 -255 21 -16 80 -64 131
-105 132 -106 350 -277 460 -359 22 -17 81 -62 130 -101 50 -39 121 -92 159
-118 37 -26 81 -56 96 -67 15 -11 90 -61 166 -112 77 -51 153 -101 169 -113
36 -24 265 -174 315 -205 19 -12 70 -45 113 -73 44 -29 83 -52 87 -52 5 0 21
-11 37 -23 15 -13 40 -30 55 -38 27 -14 142 -82 208 -124 41 -26 169 -100 220
-127 19 -10 58 -32 85 -48 28 -16 68 -39 90 -50 22 -12 67 -36 100 -55 51 -28
109 -59 265 -139 14 -7 39 -20 55 -29 17 -8 120 -61 230 -117 110 -55 207
-105 215 -110 37 -21 247 -120 255 -120 6 0 27 -11 47 -25 20 -14 44 -25 52
-25 9 0 37 -11 63 -25 86 -45 177 -85 193 -85 9 0 21 -5 26 -10 6 -6 33 -19
60 -29 27 -11 83 -34 124 -51 41 -18 103 -43 138 -56 34 -13 92 -36 130 -50
37 -15 92 -35 122 -46 30 -11 73 -28 96 -39 22 -10 47 -19 55 -19 8 0 28 -7
44 -16 29 -15 108 -44 225 -83 30 -10 69 -25 85 -33 17 -8 47 -18 69 -22 21
-4 55 -16 75 -27 20 -10 45 -19 56 -19 11 0 43 -11 71 -24 28 -13 74 -29 103
-35 29 -6 64 -17 79 -25 15 -7 43 -17 62 -21 19 -4 54 -16 77 -26 24 -11 64
-22 90 -26 27 -3 60 -12 75 -19 15 -8 58 -21 95 -28 37 -8 84 -22 104 -30 19
-8 67 -20 105 -27 38 -6 80 -17 94 -24 14 -8 55 -18 90 -25 36 -6 90 -19 120
-29 30 -10 82 -22 115 -26 33 -4 74 -13 91 -20 17 -7 64 -18 105 -25 41 -6
101 -20 134 -30 33 -10 86 -21 118 -25 32 -4 88 -15 125 -25 37 -10 94 -21
127 -25 33 -4 92 -15 130 -25 39 -10 99 -22 135 -25 36 -4 103 -15 150 -25 47
-10 130 -24 185 -30 55 -6 123 -17 150 -25 28 -8 91 -17 140 -20 50 -4 135
-15 190 -25 55 -11 180 -26 277 -35 98 -8 201 -20 230 -26 29 -5 145 -14 258
-19 113 -6 292 -16 399 -24 106 -7 201 -12 210 -10 9 2 22 1 29 -4 9 -6 13
-340 15 -1603 l2 -1594 28 -49 c15 -27 27 -57 27 -67 0 -10 5 -21 10 -24 6 -4
19 -23 29 -43 25 -49 110 -134 176 -176 29 -19 84 -47 122 -62 61 -25 80 -28
183 -28 99 0 126 4 192 27 42 15 94 37 115 50 85 50 200 193 219 274 4 15 16
46 28 68 l21 40 2 1575 c2 866 4 1583 7 1592 3 15 15 18 65 18 33 0 134 7 223
15 90 8 257 19 372 25 115 5 247 16 295 24 47 8 153 20 235 26 83 6 191 19
240 29 50 10 136 22 191 25 55 4 125 13 155 21 30 8 102 19 160 25 58 5 131
16 161 24 30 8 95 20 145 26 49 6 121 19 159 30 39 10 98 21 132 25 34 3 86
13 115 21 29 8 94 21 144 29 49 8 106 21 125 29 19 7 63 17 99 21 36 4 81 14
100 21 19 8 74 22 122 30 49 8 103 21 121 28 17 8 52 17 77 21 25 3 79 17 120
29 71 22 106 32 275 75 39 9 80 23 92 30 13 6 49 16 80 22 32 6 70 17 85 25
15 8 51 19 80 25 29 6 69 19 88 29 19 9 53 21 75 24 21 4 55 16 75 25 19 10
57 23 83 30 27 6 59 18 70 26 12 7 40 17 62 21 22 4 56 15 75 24 19 10 55 23
79 30 24 6 60 20 80 31 20 10 45 19 56 19 11 0 43 11 70 25 28 13 56 25 64 25
8 0 32 9 55 20 66 31 167 70 218 85 25 7 57 20 69 29 13 9 30 16 37 16 8 0 46
14 85 30 40 17 95 40 122 52 28 12 78 34 112 50 34 15 66 28 72 28 5 0 31 11
57 25 26 14 53 25 60 25 8 0 35 11 61 24 27 13 73 35 103 49 50 22 137 64 360
172 41 19 82 40 90 45 8 5 31 16 50 25 19 8 42 19 50 25 8 5 31 16 50 25 19 8
46 22 60 29 14 8 59 31 100 52 41 20 98 50 125 65 28 15 73 39 100 53 28 15
72 38 98 54 27 15 85 47 130 71 45 24 93 52 106 62 13 11 28 19 34 19 6 0 24
10 41 23 17 12 42 28 56 35 14 7 46 25 71 40 26 15 71 41 99 57 75 43 83 47
131 80 24 15 60 38 79 50 43 27 110 67 131 80 9 6 29 19 45 29 27 18 46 30
142 89 49 31 67 43 201 134 62 43 139 95 170 115 63 42 106 71 156 108 19 14
50 36 70 50 41 29 153 113 240 180 50 39 100 76 170 128 197 144 830 662 980
801 284 264 374 349 711 677 72 70 154 156 384 399 182 192 308 336 541 616
140 169 290 352 334 408 44 56 104 132 133 169 30 37 62 78 73 92 10 14 30 39
43 55 12 17 43 58 67 93 24 34 56 79 71 100 15 20 48 66 73 102 25 36 59 83
76 105 16 22 63 90 105 150 41 61 100 148 132 193 31 46 62 91 67 101 6 9 20
31 33 48 12 17 22 34 22 38 0 4 13 25 28 48 28 41 64 97 107 167 24 38 57 92
98 158 37 57 70 112 87 142 7 14 31 56 52 93 21 37 43 78 49 90 6 12 22 43 37
69 15 26 51 89 80 140 29 51 57 100 62 108 41 66 210 385 219 413 7 20 18 41
26 47 8 6 19 28 26 48 6 20 18 44 25 53 8 8 19 31 25 50 7 19 20 46 31 61 10
14 18 30 18 35 0 8 53 122 72 153 4 8 15 31 23 50 9 19 26 58 39 85 13 28 35
75 49 105 13 30 34 75 46 100 11 25 27 65 36 89 8 24 19 49 24 55 5 6 14 29
21 51 7 22 21 53 31 70 11 16 19 36 19 42 0 7 14 42 30 76 17 35 30 69 30 75
0 6 11 32 25 58 14 26 25 53 25 60 0 7 11 34 25 60 14 26 25 53 25 61 0 8 11
35 25 61 14 26 25 53 25 61 0 8 9 33 19 55 18 38 35 83 81 216 10 30 33 93 50
140 17 47 40 112 50 146 10 33 24 74 33 90 8 16 18 47 21 69 4 21 16 55 25 75
10 19 22 53 25 75 4 22 16 59 26 83 11 24 22 59 26 80 4 20 18 59 30 87 13 27
24 65 24 83 0 18 8 49 19 70 10 20 22 57 26 82 3 25 17 79 30 120 24 77 45
155 71 270 8 36 23 92 33 125 10 33 22 85 26 115 4 30 15 75 25 100 9 25 20
72 24 106 4 33 15 83 25 110 10 27 21 78 25 114 4 36 16 94 26 130 10 36 24
100 29 143 6 43 15 86 21 96 5 10 16 72 25 136 8 65 22 143 30 174 7 31 19
103 25 161 6 58 17 130 25 160 8 30 19 107 25 170 6 63 17 147 25 185 8 39 19
133 24 210 6 77 18 181 26 230 8 50 20 191 25 315 9 204 14 276 36 563 4 48
12 91 18 95 6 4 727 7 1601 7 l1590 0 55 23 c114 48 166 78 218 127 103 95
164 214 181 352 9 75 9 109 -3 183 -10 59 -22 100 -36 117 -11 14 -20 32 -20
39 0 22 -86 129 -138 171 -70 57 -77 60 -192 110 l-65 28 -1595 2 c-877 2
-1600 5 -1606 7 -7 3 -13 58 -17 153 -13 345 -38 730 -57 848 -5 33 -13 121
-19 195 -6 74 -17 167 -25 207 -9 40 -20 123 -26 185 -6 62 -17 138 -25 168
-8 30 -19 102 -25 160 -6 58 -19 139 -30 180 -10 41 -21 104 -25 140 -3 36
-15 97 -25 135 -10 39 -21 95 -25 125 -3 30 -13 75 -20 100 -8 25 -21 88 -30
142 -8 53 -22 114 -29 136 -8 22 -17 66 -21 98 -4 33 -15 84 -25 114 -10 30
-23 87 -29 126 -6 39 -17 86 -25 105 -7 19 -19 65 -25 103 -7 38 -18 81 -25
95 -7 14 -17 48 -21 76 -4 27 -15 72 -25 100 -10 27 -24 76 -30 108 -7 33 -20
78 -31 100 -10 23 -19 53 -19 67 -1 14 -8 43 -16 65 -18 45 -57 168 -84 265
-26 89 -59 187 -81 236 -11 23 -22 56 -25 75 -4 19 -15 50 -24 69 -10 19 -23
55 -30 79 -6 24 -20 60 -31 80 -10 20 -19 45 -19 56 0 11 -11 44 -25 73 -14
30 -25 61 -25 70 0 10 -7 31 -16 47 -9 17 -26 59 -39 95 -57 162 -65 184 -74
194 -5 6 -16 35 -24 64 -9 28 -23 62 -31 74 -9 12 -16 29 -16 36 0 14 -44 122
-79 197 -11 22 -23 51 -26 65 -4 14 -15 39 -25 56 -9 17 -23 48 -30 70 -7 21
-18 48 -25 59 -6 11 -18 38 -25 60 -7 22 -21 52 -31 67 -11 14 -19 33 -19 41
0 8 -9 26 -20 40 -11 14 -27 43 -34 64 -8 21 -28 63 -45 93 -17 30 -38 71 -46
90 -9 19 -20 44 -26 54 -6 10 -40 78 -76 150 -36 72 -70 140 -75 151 -6 10
-46 87 -88 170 -42 82 -89 170 -103 195 -15 25 -36 63 -47 85 -12 22 -34 63
-50 90 -16 28 -41 70 -55 95 -14 25 -39 68 -56 95 -16 28 -38 68 -49 90 -24
48 -49 89 -106 176 -24 36 -44 70 -44 76 0 6 -12 26 -27 46 -16 20 -40 56 -54
79 -46 74 -127 202 -149 233 -12 17 -36 55 -55 85 -19 30 -43 69 -55 85 -24
35 -84 125 -117 175 -12 19 -26 40 -31 45 -10 13 -74 105 -87 126 -11 17 -50
73 -87 125 -13 17 -32 44 -43 60 -11 16 -42 57 -70 91 -27 34 -61 78 -75 98
-14 20 -56 75 -95 123 -38 48 -81 103 -95 123 -27 40 -56 77 -140 178 -30 37
-66 82 -80 101 -26 35 -178 217 -239 286 -20 23 -61 70 -91 104 -30 35 -66 75
-80 90 -14 15 -59 64 -100 110 -41 46 -82 91 -90 99 -8 9 -46 50 -84 91 -132
142 -371 392 -481 503 -136 137 -229 224 -420 397 -82 74 -172 156 -199 181
-28 25 -100 91 -161 146 -158 144 -453 387 -763 631 -37 29 -79 62 -94 75 -14
12 -59 45 -98 72 -39 28 -100 73 -134 100 -34 28 -87 67 -117 88 -30 21 -72
51 -94 68 -22 16 -56 41 -75 54 -19 13 -53 38 -75 54 -22 17 -56 40 -75 51
-19 11 -60 38 -90 60 -30 22 -59 40 -64 40 -4 0 -21 10 -36 23 -15 12 -43 31
-61 42 -44 26 -90 55 -125 79 -106 71 -140 93 -168 108 -18 9 -38 23 -45 32
-8 9 -19 16 -26 16 -7 0 -28 12 -48 28 -50 37 -123 82 -134 82 -6 0 -18 9 -28
20 -10 11 -26 22 -37 25 -10 4 -46 24 -81 46 -86 54 -194 117 -277 162 -25 13
-65 36 -90 50 -53 29 -125 70 -195 108 -27 15 -140 73 -250 129 -110 55 -207
105 -215 110 -8 5 -46 23 -85 40 -38 17 -77 36 -85 41 -8 5 -53 27 -100 50
-47 22 -130 63 -186 90 -56 27 -107 49 -115 49 -8 0 -31 11 -51 25 -20 14 -43
25 -51 25 -8 0 -35 11 -61 25 -26 14 -52 25 -57 25 -11 0 -118 48 -179 79 -19
10 -51 22 -70 26 -19 4 -46 15 -60 25 -14 10 -40 21 -59 25 -19 4 -54 18 -79
31 -25 13 -54 24 -66 24 -12 0 -36 9 -54 20 -17 11 -52 25 -77 31 -25 6 -62
20 -83 30 -20 11 -45 19 -56 19 -10 0 -42 11 -70 24 -79 37 -157 67 -201 78
-22 5 -50 15 -62 23 -11 8 -43 19 -70 26 -26 6 -59 18 -72 27 -13 8 -47 20
-75 28 -51 13 -141 41 -226 70 -25 9 -69 22 -98 29 -30 8 -69 21 -88 30 -19 9
-58 20 -87 25 -28 5 -65 15 -82 24 -16 8 -58 19 -92 25 -34 5 -75 16 -91 25
-16 8 -60 20 -98 27 -38 7 -80 18 -94 25 -14 7 -55 17 -90 23 -36 7 -83 18
-105 26 -44 16 -179 48 -295 71 -41 8 -104 23 -140 34 -36 10 -91 21 -124 25
-32 4 -77 13 -100 21 -22 8 -86 21 -141 29 -56 8 -120 21 -144 30 -24 8 -58
15 -75 15 -17 0 -85 11 -151 25 -66 13 -167 29 -225 35 -58 7 -130 18 -160 25
-30 7 -107 19 -170 25 -63 6 -144 17 -180 25 -36 8 -126 19 -200 25 -74 6
-156 15 -182 20 -26 5 -110 14 -185 20 -216 16 -679 40 -770 40 -71 0 -84 3
-93 19 -6 13 -10 542 -10 1605 1 1537 0 1586 -18 1623 -11 21 -22 50 -26 66
-3 15 -22 51 -41 81 -42 65 -132 166 -150 166 -7 0 -18 7 -25 15 -7 8 -38 29
-69 46 -39 21 -84 35 -146 45 -49 7 -94 13 -100 13 -5 -1 -48 -7 -95 -14z
m1120 -4815 c107 -10 249 -21 315 -25 104 -5 251 -21 595 -66 47 -6 101 -15
120 -19 19 -5 87 -14 151 -19 64 -6 151 -20 194 -31 43 -11 97 -20 119 -20 23
0 88 -11 146 -25 58 -14 119 -25 136 -25 18 0 74 -11 125 -24 52 -13 117 -27
144 -31 28 -3 77 -14 110 -24 33 -10 87 -22 120 -26 32 -4 80 -15 105 -25 25
-10 68 -21 96 -25 27 -4 65 -14 84 -21 19 -8 76 -23 125 -33 114 -25 201 -48
293 -77 40 -13 82 -24 95 -24 12 -1 40 -8 62 -16 22 -8 73 -24 114 -35 41 -10
79 -23 85 -28 6 -5 40 -14 76 -21 36 -6 75 -18 86 -25 12 -8 52 -21 88 -29 37
-9 76 -22 89 -30 12 -8 42 -17 67 -21 25 -4 55 -13 67 -21 11 -7 43 -18 70
-25 26 -6 66 -20 88 -29 22 -10 60 -25 85 -33 25 -9 77 -27 115 -42 39 -15 99
-37 135 -50 36 -12 79 -30 95 -39 17 -9 36 -16 44 -16 8 0 33 -9 55 -19 48
-23 130 -56 204 -82 29 -10 62 -25 74 -34 13 -8 29 -15 37 -15 9 0 60 -22 116
-49 55 -27 119 -54 141 -60 23 -6 47 -18 54 -25 6 -8 26 -18 43 -22 18 -3 48
-15 67 -25 19 -11 51 -26 70 -34 19 -8 42 -19 50 -24 8 -5 74 -37 145 -71 72
-34 137 -66 145 -71 8 -5 38 -20 66 -33 28 -13 54 -28 58 -34 3 -6 19 -13 35
-17 16 -3 35 -13 41 -20 6 -8 28 -19 48 -26 20 -6 46 -19 57 -29 11 -10 37
-23 57 -29 20 -7 42 -19 48 -27 7 -7 16 -14 21 -14 13 0 268 -141 275 -151 3
-5 13 -9 23 -9 10 0 24 -6 30 -14 7 -8 31 -24 54 -35 23 -12 71 -40 107 -62
36 -23 74 -45 85 -50 11 -6 45 -25 75 -44 30 -19 71 -43 90 -55 19 -11 55 -34
80 -50 25 -17 59 -37 77 -45 17 -8 34 -19 37 -23 3 -5 42 -31 86 -58 45 -27
99 -60 120 -74 79 -52 417 -282 455 -311 22 -16 51 -37 65 -46 14 -10 37 -26
51 -38 14 -11 38 -29 53 -40 16 -11 54 -39 85 -63 31 -23 67 -50 81 -60 14 -9
51 -37 82 -62 31 -25 78 -61 105 -80 26 -19 55 -40 63 -47 45 -39 410 -337
479 -392 44 -35 82 -67 83 -71 2 -4 52 -49 112 -101 190 -165 229 -199 351
-313 111 -103 695 -684 811 -807 215 -229 852 -987 964 -1149 14 -19 32 -42
40 -51 8 -9 26 -33 40 -53 14 -20 54 -75 90 -122 105 -138 118 -157 136 -189
9 -16 22 -34 29 -40 12 -11 180 -260 252 -373 23 -37 49 -74 57 -82 8 -9 19
-25 23 -35 4 -11 30 -54 57 -95 154 -234 185 -284 237 -373 19 -32 48 -82 66
-110 17 -29 42 -72 55 -97 65 -123 112 -206 123 -220 7 -8 20 -31 29 -50 10
-19 31 -61 49 -93 51 -93 417 -822 417 -831 0 -4 8 -20 19 -34 10 -15 22 -41
25 -59 4 -17 14 -37 21 -43 8 -6 19 -28 26 -48 6 -20 31 -78 55 -129 24 -50
46 -104 50 -120 4 -15 17 -48 30 -73 13 -25 24 -53 24 -62 0 -10 11 -41 24
-70 24 -54 55 -128 96 -228 12 -30 26 -72 31 -93 5 -21 16 -48 23 -60 8 -12
21 -45 29 -73 8 -28 22 -64 30 -80 8 -16 19 -51 26 -77 6 -27 18 -59 25 -70 8
-12 17 -40 21 -62 4 -21 15 -55 25 -75 10 -20 22 -54 26 -75 3 -22 15 -56 24
-75 10 -19 21 -51 25 -70 3 -19 17 -64 29 -100 48 -135 58 -167 76 -235 9 -38
25 -87 34 -107 9 -21 16 -47 16 -58 0 -12 11 -54 24 -93 14 -40 28 -92 31
-117 4 -25 13 -56 20 -70 8 -14 18 -55 25 -90 6 -36 18 -87 27 -115 15 -47 28
-100 68 -285 9 -41 25 -109 36 -150 11 -41 24 -109 29 -150 5 -41 16 -96 24
-121 8 -25 19 -87 25 -136 6 -49 18 -112 26 -139 8 -27 19 -96 25 -154 6 -58
17 -129 26 -157 8 -29 19 -101 25 -160 5 -60 16 -142 25 -183 8 -41 20 -129
25 -195 5 -66 14 -140 19 -165 14 -70 29 -213 36 -355 3 -71 14 -217 25 -324
22 -230 25 -381 7 -381 -933 -3 -4973 2 -4977 6 -3 3 -9 49 -13 102 -3 53 -13
153 -21 222 -9 69 -18 170 -22 225 -3 55 -12 132 -20 170 -8 39 -19 120 -25
180 -6 61 -20 146 -30 190 -11 44 -22 114 -26 155 -4 41 -15 101 -25 134 -11
32 -19 73 -20 90 0 17 -9 63 -20 101 -10 39 -26 106 -33 150 -8 44 -24 106
-35 137 -12 32 -21 68 -21 80 0 12 -11 56 -24 98 -13 41 -28 93 -34 115 -11
43 -33 114 -58 185 -9 25 -20 63 -26 85 -6 22 -20 69 -33 105 -12 36 -30 88
-39 115 -10 28 -26 77 -36 110 -17 55 -32 96 -81 215 -10 25 -23 64 -29 86 -5
23 -16 47 -24 53 -8 7 -17 28 -21 48 -4 21 -18 57 -31 82 -13 25 -24 53 -24
61 0 8 -8 29 -19 45 -10 17 -24 48 -31 70 -7 22 -21 53 -31 70 -11 16 -19 36
-19 42 0 11 -53 128 -136 298 -13 28 -24 54 -24 59 0 4 -8 20 -19 34 -10 15
-22 37 -25 50 -4 12 -26 52 -48 89 -22 37 -47 81 -55 98 -8 16 -30 57 -48 90
-19 33 -43 78 -55 100 -11 22 -36 65 -55 95 -19 30 -40 69 -48 85 -8 17 -21
36 -30 44 -10 7 -17 19 -17 26 0 10 -24 51 -76 129 -10 16 -23 36 -29 45 -5 9
-20 30 -31 46 -12 17 -24 40 -28 51 -4 12 -15 29 -26 39 -11 10 -20 23 -20 30
0 7 -9 20 -20 30 -10 9 -24 33 -30 51 -7 19 -15 34 -20 34 -4 0 -19 17 -32 37
-69 108 -164 247 -188 274 -8 10 -31 39 -50 64 -38 51 -117 154 -149 195 -198
249 -312 390 -380 469 -126 145 -145 166 -501 521 -350 349 -444 439 -580 549
-66 54 -115 94 -153 126 -7 6 -39 30 -72 55 -33 24 -97 74 -142 110 -45 36
-101 79 -123 95 -22 17 -71 54 -108 84 -67 54 -119 90 -239 168 -36 23 -75 51
-87 62 -12 12 -25 21 -28 21 -7 0 -163 102 -200 129 -14 12 -31 21 -36 21 -6
0 -23 11 -39 24 -15 13 -41 31 -58 40 -37 21 -82 48 -182 107 -120 72 -192
113 -221 127 -33 15 -47 23 -183 100 -58 33 -116 63 -130 67 -13 4 -30 12 -36
17 -22 17 -265 138 -278 138 -7 0 -23 8 -36 19 -13 10 -42 24 -64 31 -22 7
-47 18 -55 25 -8 8 -28 17 -45 21 -16 4 -48 17 -71 30 -22 13 -47 24 -55 24
-8 0 -35 11 -61 25 -26 14 -53 25 -61 25 -7 0 -36 11 -63 25 -27 14 -56 25
-64 25 -9 0 -34 9 -55 21 -22 11 -60 27 -85 34 -25 7 -67 22 -95 34 -62 25
-134 48 -201 65 -28 8 -60 19 -72 25 -12 6 -54 20 -94 31 -77 20 -127 35 -248
75 -42 14 -84 25 -93 25 -10 0 -50 11 -89 25 -39 14 -81 25 -92 25 -12 1 -39
8 -61 16 -42 17 -194 53 -330 79 -44 9 -114 25 -155 36 -41 10 -102 22 -135
25 -33 3 -100 14 -150 24 -49 11 -115 22 -145 25 -30 3 -104 15 -165 25 -60
11 -171 24 -245 30 -74 6 -162 15 -195 20 -33 5 -132 14 -220 20 -91 7 -163
16 -166 22 -10 17 -9 4949 1 4968 8 14 25 16 127 13 65 -2 206 -12 313 -23z
m-1600 8 c0 -7 0 -1126 0 -2487 0 -1610 -4 -2478 -10 -2486 -6 -8 -62 -14
-152 -18 -79 -4 -170 -11 -203 -16 -33 -6 -125 -15 -205 -21 -80 -6 -174 -18
-209 -26 -36 -8 -108 -19 -160 -24 -53 -6 -136 -19 -186 -29 -49 -11 -119 -23
-155 -27 -36 -4 -83 -13 -104 -21 -22 -7 -71 -18 -110 -24 -39 -6 -98 -19
-131 -29 -33 -10 -93 -24 -134 -30 -41 -6 -89 -17 -106 -26 -17 -8 -54 -18
-81 -23 -53 -9 -182 -43 -254 -67 -25 -9 -76 -24 -115 -34 -38 -10 -90 -25
-115 -34 -25 -9 -92 -30 -150 -47 -58 -17 -123 -39 -145 -49 -22 -10 -56 -21
-75 -25 -19 -4 -46 -14 -58 -22 -13 -8 -45 -20 -70 -28 -48 -13 -126 -43 -197
-76 -22 -10 -58 -24 -80 -30 -22 -7 -53 -20 -70 -30 -16 -11 -38 -19 -47 -19
-10 0 -39 -11 -65 -24 -27 -13 -77 -36 -113 -51 -80 -33 -190 -84 -210 -96 -8
-5 -31 -16 -50 -24 -19 -9 -42 -20 -50 -25 -8 -6 -31 -17 -50 -25 -19 -9 -42
-20 -50 -25 -8 -6 -37 -21 -65 -35 -27 -13 -93 -48 -145 -76 -52 -29 -110 -60
-128 -70 -18 -10 -38 -22 -45 -27 -11 -10 -60 -37 -157 -89 -25 -13 -63 -34
-85 -48 -22 -13 -60 -36 -85 -50 -62 -37 -112 -67 -146 -89 -30 -20 -84 -54
-144 -91 -19 -12 -48 -30 -64 -41 -16 -10 -39 -26 -52 -34 -13 -8 -62 -42
-110 -75 -47 -33 -103 -71 -124 -85 -61 -40 -205 -149 -305 -230 -51 -41 -120
-97 -154 -125 -83 -67 -192 -157 -216 -178 -11 -10 -54 -45 -95 -79 -41 -33
-95 -80 -120 -103 -25 -23 -85 -80 -134 -126 -113 -106 -376 -369 -573 -572
-141 -146 -324 -358 -453 -526 -30 -39 -77 -100 -105 -134 -27 -35 -63 -83
-80 -106 -16 -23 -64 -84 -105 -136 -80 -100 -152 -198 -185 -251 -11 -17 -42
-64 -70 -104 -27 -40 -59 -87 -70 -105 -12 -19 -28 -42 -38 -53 -9 -10 -17
-22 -17 -26 0 -4 -11 -22 -25 -40 -14 -18 -25 -37 -25 -43 0 -5 -9 -18 -20
-28 -12 -10 -30 -37 -41 -59 -10 -23 -44 -81 -74 -131 -30 -49 -64 -108 -75
-130 -12 -22 -34 -62 -50 -90 -16 -27 -37 -66 -46 -85 -9 -19 -25 -45 -35 -59
-10 -13 -19 -32 -19 -41 0 -10 -7 -23 -15 -30 -8 -6 -37 -58 -65 -113 -28 -56
-54 -109 -59 -117 -9 -14 -55 -113 -80 -170 -6 -14 -15 -32 -20 -40 -21 -34
-171 -371 -171 -384 0 -6 -11 -32 -25 -58 -14 -26 -25 -53 -25 -61 0 -8 -11
-34 -24 -59 -13 -25 -27 -60 -31 -79 -4 -19 -16 -50 -26 -69 -11 -19 -19 -42
-19 -50 0 -8 -11 -38 -24 -66 -13 -28 -27 -66 -30 -85 -4 -19 -15 -54 -26 -79
-21 -52 -53 -147 -79 -240 -11 -36 -26 -85 -35 -110 -23 -66 -77 -254 -108
-375 -5 -22 -20 -74 -33 -115 -13 -41 -26 -102 -30 -135 -4 -33 -15 -80 -25
-105 -9 -25 -20 -74 -24 -110 -3 -35 -15 -96 -25 -135 -11 -38 -22 -99 -26
-135 -4 -36 -15 -99 -25 -140 -11 -41 -24 -127 -29 -190 -6 -63 -17 -151 -25
-195 -8 -44 -19 -163 -26 -264 -6 -101 -18 -231 -25 -288 -8 -58 -12 -110 -9
-117 2 -6 -1 -19 -8 -29 -12 -16 -159 -17 -2493 -17 -1364 0 -2486 0 -2492 0
-18 0 -17 146 2 352 8 90 22 262 30 383 9 121 20 243 26 270 5 28 16 115 23
195 16 166 24 222 36 265 5 17 14 80 19 140 5 61 17 136 25 169 9 32 20 102
26 155 5 53 17 121 25 151 8 30 20 93 25 140 6 47 19 117 30 155 10 39 21 93
25 120 3 28 15 77 25 110 10 34 21 88 25 120 5 33 16 83 25 111 10 27 21 70
24 95 4 24 15 67 23 94 9 28 24 86 34 130 21 97 45 190 70 270 10 33 25 89 33
125 8 36 21 85 30 110 38 109 59 178 68 224 5 28 18 66 27 85 10 20 23 58 30
84 6 27 18 59 25 70 8 12 17 40 21 62 4 21 14 53 22 69 8 16 23 57 33 90 10
34 33 99 50 146 17 47 40 110 50 140 36 105 67 185 83 217 9 18 17 38 17 45 0
8 9 32 20 53 12 22 29 63 39 90 11 28 26 70 36 95 15 41 34 84 85 195 65 141
80 175 80 187 0 7 12 31 25 53 14 22 25 47 25 56 0 9 8 27 19 40 10 14 24 42
29 63 6 21 17 46 25 55 8 9 20 33 26 53 7 20 19 42 27 48 7 7 14 17 14 23 0
10 104 230 133 282 6 11 17 34 24 50 8 17 18 37 23 45 5 8 32 60 60 115 28 55
64 123 80 150 16 28 38 68 49 90 12 22 35 65 52 95 18 30 40 71 51 90 10 19
34 60 53 90 35 57 119 200 145 248 9 16 26 41 38 57 12 15 22 31 22 35 0 8 44
76 152 237 26 40 48 75 48 78 0 2 22 37 48 77 27 40 76 116 110 168 34 52 71
109 82 125 12 17 43 62 70 100 27 39 62 88 78 110 16 22 51 70 78 108 27 37
78 106 114 153 36 48 72 96 80 108 19 27 101 134 165 215 71 90 404 492 429
518 25 25 32 33 156 178 128 147 249 275 526 555 257 260 458 457 579 568 44
40 91 83 105 95 14 13 72 64 130 113 58 49 110 94 115 100 6 6 44 39 85 75 41
35 77 66 80 69 3 3 33 28 67 55 35 28 63 53 63 57 0 4 12 14 28 22 15 8 46 32
69 53 23 21 74 63 113 93 39 30 102 80 140 110 126 100 225 175 302 228 68 47
264 191 278 205 8 8 29 22 45 31 17 9 48 30 70 47 22 16 65 46 95 66 30 20 64
42 75 50 11 7 47 31 80 53 33 21 74 48 90 60 17 11 53 35 80 52 28 17 67 42
88 55 20 12 56 35 80 50 23 14 53 34 67 43 14 10 43 27 65 39 48 26 87 49 205
121 50 30 107 64 128 76 20 12 60 35 87 52 28 17 88 51 135 76 47 24 110 58
140 75 30 16 96 51 145 76 144 73 169 86 185 95 50 29 297 150 306 150 6 0 17
6 23 14 7 8 24 17 39 21 14 3 56 20 92 37 73 35 149 69 230 105 104 47 165 75
205 93 22 11 69 31 105 46 36 15 94 40 129 55 35 16 68 29 75 29 6 0 34 11 61
25 28 13 56 25 64 25 8 0 37 11 65 24 28 14 71 31 96 39 125 42 148 50 185 67
22 10 56 21 75 25 19 4 45 13 57 21 11 7 43 19 70 25 26 7 61 19 78 27 16 8
56 21 89 29 33 7 65 18 71 23 6 5 42 17 79 25 38 9 78 22 90 30 11 7 41 16 66
20 24 4 73 18 107 31 35 13 76 24 91 24 15 0 46 9 70 20 23 10 70 24 104 30
34 7 74 18 88 25 14 7 55 19 90 25 36 6 92 20 125 31 69 21 159 44 260 65 39
8 90 20 115 28 25 8 74 20 110 26 36 7 92 20 125 30 33 11 94 24 135 29 41 6
94 17 118 25 24 9 80 20 125 26 45 6 104 17 132 25 27 8 89 20 139 25 49 6
123 19 164 30 42 11 99 20 126 21 28 0 74 4 101 9 193 31 275 42 470 64 121
14 303 31 405 37 102 6 237 16 300 24 63 7 170 13 238 14 91 1 122 -2 122 -11z
m0 -7808 l5 -1665 39 -70 c54 -98 99 -158 159 -209 70 -59 148 -99 240 -125
92 -25 148 -26 242 -5 108 24 209 79 285 154 73 72 126 146 136 188 4 15 16
42 27 61 20 34 20 43 23 1679 1 904 6 1648 11 1653 4 4 46 4 93 -1 47 -5 148
-14 225 -20 128 -11 211 -21 410 -49 39 -5 104 -15 145 -20 41 -6 95 -15 120
-21 25 -6 81 -15 125 -20 44 -5 103 -16 130 -25 28 -9 84 -22 125 -30 105 -19
241 -52 332 -81 43 -13 88 -24 100 -24 13 0 39 -8 58 -19 19 -10 53 -21 75
-25 40 -7 157 -43 250 -77 28 -10 73 -23 100 -30 28 -6 60 -18 72 -25 11 -7
43 -19 70 -25 26 -7 59 -18 73 -25 14 -8 52 -23 85 -35 142 -49 170 -60 192
-74 12 -8 28 -15 35 -15 8 0 40 -13 73 -30 33 -16 67 -30 76 -30 9 0 27 -9 41
-19 13 -11 38 -23 54 -27 16 -4 40 -15 53 -26 13 -10 29 -18 36 -18 11 0 97
-39 160 -73 30 -16 67 -34 95 -46 14 -7 37 -18 53 -26 37 -20 67 -36 172 -90
50 -25 117 -61 150 -80 33 -19 78 -44 100 -55 22 -11 60 -34 85 -50 25 -17 60
-37 79 -46 18 -8 45 -23 60 -33 14 -10 44 -29 66 -43 69 -43 119 -74 149 -94
16 -10 41 -26 55 -35 14 -9 46 -30 71 -48 25 -17 61 -43 80 -56 54 -38 91 -65
180 -130 45 -33 93 -67 105 -75 60 -39 470 -379 617 -512 68 -61 240 -229 383
-372 184 -184 318 -330 456 -496 107 -129 202 -244 210 -256 7 -12 33 -43 56
-70 49 -57 127 -158 163 -209 14 -20 34 -48 46 -63 19 -25 74 -106 180 -266
56 -84 114 -177 114 -183 0 -2 11 -19 25 -37 14 -18 25 -38 25 -43 0 -6 7 -17
17 -24 9 -8 25 -32 35 -54 11 -22 32 -60 48 -85 40 -60 59 -96 177 -320 27
-52 55 -104 61 -115 6 -11 29 -59 52 -107 23 -48 45 -90 50 -93 5 -3 14 -22
21 -43 6 -20 18 -44 25 -53 8 -9 21 -36 30 -62 8 -25 22 -51 30 -58 8 -6 14
-19 14 -28 0 -9 14 -43 30 -76 17 -33 30 -65 30 -72 0 -7 9 -27 20 -45 11 -18
20 -40 20 -49 0 -8 11 -37 24 -65 13 -27 30 -69 39 -94 8 -25 27 -74 40 -110
14 -36 33 -87 43 -115 9 -27 25 -70 35 -95 10 -25 23 -65 30 -90 6 -25 20 -62
30 -82 10 -20 19 -49 19 -63 0 -14 11 -51 24 -83 13 -31 26 -77 30 -101 4 -24
13 -55 20 -70 8 -14 19 -55 26 -91 6 -36 20 -85 30 -110 10 -25 21 -70 25
-100 4 -30 15 -75 25 -100 10 -25 21 -72 25 -105 4 -32 15 -86 25 -120 10 -33
23 -101 29 -151 6 -50 17 -110 25 -135 8 -24 19 -92 25 -150 6 -58 17 -132 25
-164 9 -32 20 -128 26 -214 6 -86 15 -185 20 -221 5 -36 12 -98 16 -137 l6
-73 -1664 -2 -1663 -3 -75 -36 c-90 -44 -182 -112 -231 -171 -19 -24 -49 -70
-66 -103 -80 -156 -93 -279 -44 -420 33 -99 51 -130 120 -212 57 -69 141 -128
251 -178 l65 -30 1640 3 c979 2 1645 -1 1653 -6 12 -8 11 -32 -2 -143 -9 -74
-20 -193 -26 -266 -9 -124 -26 -259 -35 -273 -2 -3 -9 -53 -15 -110 -6 -58
-17 -130 -25 -160 -8 -30 -19 -86 -25 -125 -5 -38 -19 -108 -30 -155 -11 -47
-27 -116 -35 -155 -28 -135 -53 -245 -68 -292 -9 -26 -21 -73 -28 -103 -6 -30
-17 -66 -24 -80 -7 -14 -18 -51 -25 -83 -6 -33 -20 -78 -31 -100 -10 -23 -19
-53 -19 -66 0 -14 -9 -43 -19 -65 -11 -23 -26 -66 -35 -96 -21 -77 -55 -179
-71 -215 -8 -16 -23 -55 -33 -85 -11 -30 -31 -84 -45 -120 -13 -36 -32 -85
-42 -110 -9 -25 -25 -63 -35 -85 -10 -22 -32 -70 -49 -107 -17 -37 -31 -73
-31 -81 0 -8 -9 -26 -20 -40 -11 -14 -20 -29 -20 -34 0 -7 -44 -101 -73 -158
-6 -11 -44 -85 -86 -165 -123 -239 -131 -253 -161 -305 -16 -27 -36 -63 -44
-80 -9 -16 -32 -55 -51 -85 -19 -30 -40 -66 -47 -80 -7 -14 -21 -38 -33 -55
-29 -43 -42 -65 -66 -110 -12 -22 -28 -48 -36 -57 -8 -9 -22 -31 -31 -48 -26
-48 -148 -223 -247 -355 -49 -66 -99 -134 -109 -150 -11 -17 -24 -35 -30 -42
-6 -6 -47 -57 -91 -113 -91 -116 -388 -474 -419 -506 -12 -11 -85 -86 -163
-165 -364 -371 -562 -552 -935 -854 -85 -69 -411 -314 -472 -355 -12 -8 -38
-25 -57 -37 -19 -12 -47 -31 -64 -43 -16 -11 -52 -35 -80 -52 -27 -17 -68 -42
-90 -56 -22 -14 -56 -35 -75 -47 -19 -12 -54 -34 -77 -48 -24 -15 -47 -27 -52
-27 -5 0 -15 -7 -22 -16 -8 -9 -32 -25 -54 -36 -22 -11 -62 -32 -90 -48 -82
-48 -138 -78 -175 -95 -19 -8 -42 -20 -50 -25 -8 -6 -37 -21 -65 -35 -27 -13
-57 -29 -65 -34 -8 -5 -53 -28 -100 -51 -47 -22 -92 -45 -100 -49 -34 -21
-167 -81 -177 -81 -6 0 -16 -6 -22 -13 -6 -8 -30 -19 -53 -26 -24 -7 -53 -22
-67 -32 -13 -10 -31 -19 -41 -19 -9 0 -37 -11 -62 -24 -25 -13 -60 -27 -79
-31 -19 -4 -47 -15 -64 -25 -16 -10 -45 -21 -64 -25 -19 -4 -54 -18 -79 -31
-25 -13 -53 -24 -62 -24 -10 0 -42 -11 -72 -25 -29 -14 -60 -25 -68 -25 -8 0
-37 -12 -65 -25 -27 -14 -61 -25 -75 -25 -14 0 -47 -11 -75 -25 -27 -13 -60
-25 -71 -25 -12 0 -50 -11 -85 -24 -35 -13 -84 -27 -109 -31 -25 -4 -56 -13
-70 -20 -14 -8 -55 -19 -90 -25 -36 -7 -92 -20 -125 -30 -80 -25 -315 -80
-340 -80 -11 0 -47 -9 -80 -19 -33 -10 -102 -24 -152 -30 -51 -6 -104 -16
-118 -21 -14 -5 -79 -16 -143 -24 -64 -8 -144 -22 -177 -31 -33 -8 -126 -20
-206 -25 -80 -5 -201 -16 -269 -25 -68 -8 -128 -11 -132 -7 -4 4 -9 745 -10
1647 l-3 1640 -27 56 c-16 31 -28 59 -28 62 0 4 -17 33 -37 64 -43 68 -148
175 -195 199 -18 9 -40 22 -48 30 -9 7 -37 18 -64 24 -26 6 -61 17 -77 25 -46
24 -144 19 -245 -14 -49 -16 -108 -40 -132 -53 -64 -37 -167 -132 -196 -180
-13 -24 -42 -77 -63 -118 l-38 -75 -3 -1653 c-2 -1297 -5 -1654 -15 -1657 -6
-3 -61 2 -122 10 -60 8 -168 20 -240 26 -71 5 -175 18 -230 29 -55 10 -136 22
-179 25 -44 4 -100 13 -125 21 -25 8 -86 19 -136 25 -49 6 -108 17 -130 25
-22 8 -81 21 -131 29 -49 8 -110 20 -135 28 -24 8 -75 20 -113 27 -38 6 -81
17 -95 24 -14 8 -57 19 -95 25 -38 7 -81 18 -96 26 -15 8 -54 18 -86 24 -33 5
-79 19 -104 30 -25 11 -56 21 -70 21 -14 0 -47 11 -75 25 -27 13 -58 25 -68
25 -10 0 -35 9 -55 19 -20 10 -57 24 -82 31 -25 6 -67 22 -94 36 -28 13 -59
24 -69 24 -11 0 -36 9 -56 19 -20 11 -56 26 -81 34 -104 35 -165 59 -184 73
-11 8 -27 14 -36 14 -8 0 -44 14 -80 31 -58 28 -115 54 -190 88 -14 7 -38 19
-55 28 -16 9 -41 21 -55 28 -14 6 -34 16 -45 22 -11 6 -51 25 -90 43 -38 17
-77 36 -85 41 -8 5 -37 20 -65 34 -27 14 -62 32 -77 40 -62 33 -85 45 -123 65
-22 11 -60 34 -85 50 -25 16 -63 39 -85 50 -22 11 -60 34 -85 50 -25 16 -61
38 -81 49 -19 11 -41 27 -48 35 -8 9 -19 16 -26 16 -8 0 -26 11 -42 24 -26 22
-59 42 -122 75 -22 12 -65 39 -155 101 -12 8 -57 42 -100 75 -96 73 -143 109
-176 132 -52 36 -279 215 -429 338 -225 184 -283 238 -571 526 -229 229 -349
356 -433 456 -19 23 -41 49 -48 57 -38 41 -250 301 -299 366 -14 18 -36 48
-50 66 -14 18 -50 67 -80 109 -30 42 -75 102 -100 133 -49 61 -74 95 -105 147
-11 18 -35 54 -53 79 -17 26 -39 61 -48 78 -9 17 -25 40 -35 51 -10 12 -19 26
-19 31 0 10 -37 70 -77 126 -10 13 -24 36 -31 50 -6 14 -26 45 -42 70 -16 25
-39 63 -51 85 -11 22 -33 63 -50 90 -16 28 -40 73 -54 100 -14 28 -39 73 -55
100 -16 28 -32 57 -36 65 -3 8 -30 65 -59 125 -29 61 -56 121 -60 135 -4 14
-16 36 -26 49 -11 13 -19 31 -19 40 0 10 -11 32 -25 51 -14 19 -25 40 -25 48
0 13 -42 111 -79 182 -10 19 -21 49 -25 65 -4 17 -15 48 -25 70 -32 68 -63
148 -76 197 -8 25 -20 57 -28 70 -9 12 -19 41 -23 63 -4 22 -15 56 -25 76 -10
20 -23 57 -30 83 -6 26 -20 63 -30 84 -11 20 -19 47 -19 59 0 13 -11 49 -24
81 -13 31 -27 77 -31 102 -4 25 -13 56 -20 70 -7 14 -19 54 -25 90 -7 36 -19
77 -26 91 -7 14 -19 64 -28 112 -8 47 -20 95 -25 106 -6 10 -18 63 -26 117 -9
53 -20 105 -26 115 -5 10 -16 67 -24 126 -8 60 -22 135 -29 168 -8 33 -20 111
-26 173 -6 62 -15 124 -20 137 -5 14 -14 78 -20 143 -6 64 -17 173 -25 242
-26 224 -26 228 -15 235 6 4 748 9 1648 11 l1637 5 77 31 c43 16 83 37 89 44
6 8 16 14 21 14 19 0 110 83 147 134 63 87 94 148 108 216 25 119 26 158 9
238 -29 131 -114 271 -212 344 -27 21 -85 57 -129 80 l-80 43 -1657 3 c-1385
2 -1657 5 -1661 16 -3 7 1 65 9 127 7 63 16 161 20 219 6 119 21 241 34 285 5
17 14 77 20 135 6 58 20 139 30 180 10 41 21 104 25 140 3 36 14 94 24 130 10
36 26 101 34 145 9 44 24 116 32 160 9 44 25 103 35 130 10 28 24 77 30 110 7
33 18 71 25 85 7 14 16 45 19 70 4 25 17 74 30 110 47 132 58 167 76 233 10
37 23 73 28 80 6 7 16 35 23 62 6 28 20 64 30 81 11 17 19 40 19 50 0 11 12
42 25 69 14 28 25 57 25 65 0 8 14 42 30 75 16 33 30 65 30 72 0 7 11 33 25
59 14 26 25 54 25 63 0 9 7 26 15 38 9 12 22 41 31 65 8 23 21 49 28 58 8 8
19 32 24 52 6 21 20 50 31 64 12 15 21 34 21 44 0 10 9 29 20 43 12 14 26 41
32 59 6 18 19 44 30 57 10 13 18 28 18 34 0 12 115 244 159 322 16 28 38 68
50 90 12 22 34 60 51 85 16 25 37 60 45 78 9 18 35 61 58 95 23 34 48 73 55
87 7 14 25 44 40 66 15 23 46 70 69 105 48 74 56 85 168 239 46 63 94 130 107
148 83 120 441 553 591 717 139 152 324 336 496 496 74 68 144 133 155 145 39
38 228 199 368 311 248 200 445 346 618 460 69 45 137 91 152 102 14 12 30 21
34 21 4 0 26 12 48 27 23 14 59 38 81 53 22 14 51 32 65 39 14 6 48 25 75 41
28 16 68 39 90 51 22 11 63 34 90 50 28 15 73 40 100 54 28 14 57 29 65 34 8
6 29 16 45 24 17 7 39 18 50 24 19 11 123 59 175 82 14 6 32 15 40 20 8 5 69
35 135 66 260 124 391 181 481 210 23 7 60 23 82 34 23 12 49 21 59 21 10 0
34 8 53 19 19 10 51 22 70 26 19 4 49 13 65 21 40 18 165 61 245 84 36 10 85
26 110 34 112 38 207 66 225 66 11 1 45 10 75 21 30 11 90 27 133 35 43 8 91
20 105 28 15 7 55 16 90 20 34 4 90 16 124 27 33 10 98 23 143 28 46 6 109 17
141 25 33 8 111 20 174 26 63 6 129 15 145 20 36 11 164 26 300 35 55 4 145
13 200 20 55 7 111 12 125 12 l25 -2 5 -1665z m-9572 -7903 c6 -5 12 -30 12
-56 0 -25 7 -89 15 -141 8 -52 19 -176 25 -275 6 -99 18 -205 25 -235 8 -30
19 -111 25 -180 6 -69 20 -159 30 -200 10 -41 21 -106 25 -145 3 -38 15 -101
25 -140 10 -38 24 -103 30 -144 6 -40 15 -81 20 -91 5 -10 16 -55 24 -101 9
-46 24 -110 36 -141 11 -32 20 -67 20 -79 0 -12 11 -56 24 -98 13 -42 29 -94
34 -116 6 -22 17 -60 25 -85 8 -25 25 -74 37 -110 12 -36 25 -84 30 -107 5
-24 16 -55 24 -71 8 -15 22 -57 31 -92 9 -35 23 -73 31 -84 8 -11 14 -31 14
-44 0 -12 7 -39 16 -60 15 -35 28 -68 88 -224 13 -35 31 -76 40 -93 9 -16 16
-37 16 -46 0 -10 11 -37 25 -60 14 -24 25 -50 25 -58 0 -13 8 -32 74 -172 14
-31 26 -61 26 -66 0 -6 13 -35 28 -65 16 -29 31 -62 35 -73 3 -11 12 -31 21
-45 8 -14 40 -79 72 -145 32 -66 87 -174 124 -240 36 -66 85 -158 109 -205 23
-47 58 -110 76 -140 19 -30 42 -68 50 -85 27 -50 60 -103 77 -122 9 -10 21
-30 27 -45 5 -15 29 -55 53 -90 24 -35 48 -71 53 -79 11 -18 20 -31 114 -173
36 -54 72 -108 80 -120 35 -52 77 -112 89 -126 13 -14 91 -119 122 -164 37
-55 171 -229 238 -311 40 -49 85 -105 100 -124 15 -19 34 -41 43 -50 9 -9 42
-47 74 -86 115 -138 383 -424 590 -630 225 -225 334 -325 485 -450 52 -43 105
-87 116 -99 12 -12 37 -33 55 -48 19 -14 66 -51 104 -82 39 -30 82 -65 97 -78
15 -13 44 -35 65 -51 21 -15 63 -47 93 -70 30 -23 66 -50 80 -60 14 -9 57 -40
95 -67 73 -53 197 -138 294 -202 31 -20 70 -46 86 -58 17 -11 53 -35 80 -52
28 -17 67 -42 88 -55 20 -12 56 -35 80 -50 23 -14 53 -34 67 -43 14 -10 43
-27 65 -39 22 -12 61 -34 86 -49 78 -46 307 -175 367 -207 98 -53 375 -193
412 -209 19 -9 42 -20 50 -25 17 -11 93 -45 200 -90 41 -18 96 -43 123 -57 26
-13 53 -24 61 -24 7 0 34 -11 60 -25 26 -14 55 -25 64 -25 9 0 37 -11 62 -24
25 -13 61 -27 80 -31 19 -4 46 -14 60 -21 24 -14 104 -42 235 -83 96 -31 156
-51 210 -70 28 -10 95 -32 150 -49 55 -17 123 -38 150 -47 28 -9 84 -25 125
-36 123 -30 288 -77 298 -83 5 -3 42 -10 83 -17 41 -6 89 -17 108 -25 19 -8
66 -19 105 -25 39 -6 105 -19 146 -29 41 -10 116 -24 165 -30 50 -7 98 -16
107 -21 9 -5 77 -16 150 -24 73 -8 167 -21 208 -29 41 -8 127 -17 190 -21 63
-4 193 -15 288 -25 95 -11 179 -17 187 -13 9 3 22 0 30 -7 13 -11 15 -310 15
-2495 0 -1974 -3 -2485 -12 -2492 -9 -7 -57 -7 -138 -2 -69 5 -135 11 -147 14
-12 3 -138 12 -280 20 -142 7 -301 21 -353 29 -52 8 -144 17 -205 21 -60 4
-153 15 -205 25 -52 10 -144 23 -205 30 -60 6 -135 18 -165 26 -30 8 -102 19
-159 24 -57 6 -138 19 -180 30 -42 10 -103 21 -136 25 -33 4 -89 15 -124 26
-35 10 -80 19 -100 20 -20 0 -67 9 -106 20 -38 10 -110 26 -159 34 -49 8 -110
21 -135 29 -25 8 -72 20 -103 25 -32 6 -70 17 -85 24 -16 8 -52 17 -81 21 -30
4 -77 15 -105 26 -29 10 -77 24 -108 30 -31 6 -79 20 -108 30 -28 11 -61 20
-73 20 -12 0 -56 11 -98 25 -41 13 -122 38 -180 55 -58 17 -127 40 -155 50
-27 11 -72 24 -99 30 -26 6 -60 17 -75 24 -14 7 -48 18 -74 25 -27 6 -59 18
-70 25 -12 8 -42 17 -66 21 -24 4 -67 18 -95 31 -28 13 -58 24 -66 24 -8 0
-37 12 -65 25 -27 14 -57 25 -65 25 -8 0 -31 8 -50 19 -19 10 -51 22 -70 26
-19 4 -55 18 -80 31 -25 13 -53 24 -63 24 -17 0 -87 30 -192 81 -22 10 -47 19
-56 19 -9 0 -37 11 -63 25 -26 14 -55 25 -64 25 -16 0 -30 6 -87 37 -11 6 -45
22 -75 36 -154 69 -199 89 -243 112 -26 14 -53 25 -61 25 -7 0 -25 9 -40 21
-14 11 -43 25 -63 31 -21 6 -48 19 -62 29 -13 11 -29 19 -35 19 -6 0 -31 11
-56 24 -25 13 -60 27 -77 31 -18 3 -35 11 -38 15 -3 5 -52 32 -108 60 -56 27
-109 54 -117 60 -8 5 -31 16 -50 25 -19 8 -42 19 -50 24 -16 10 -47 27 -117
61 -23 11 -45 24 -47 29 -3 5 -25 19 -48 31 -24 12 -64 33 -90 48 -27 15 -91
49 -144 77 -52 27 -100 55 -106 62 -6 7 -16 13 -23 13 -8 0 -26 11 -42 23 -15
13 -41 31 -58 39 -78 41 -105 56 -130 76 -15 12 -33 22 -40 22 -7 0 -19 7 -26
16 -8 9 -32 25 -54 34 -22 9 -46 25 -54 34 -7 9 -17 16 -22 16 -5 0 -28 13
-51 29 -57 38 -169 109 -206 129 -17 10 -48 27 -69 39 -22 12 -45 29 -52 37
-8 9 -19 16 -25 16 -7 0 -21 8 -32 18 -10 10 -33 26 -50 37 -18 11 -71 47
-119 80 -48 33 -97 67 -110 75 -29 19 -63 45 -128 96 -29 22 -80 59 -115 83
-34 23 -104 73 -155 111 -51 38 -112 84 -137 102 -25 18 -53 39 -62 48 -9 8
-36 29 -58 45 -62 46 -165 131 -273 226 -29 25 -61 52 -73 60 -27 18 -100 79
-178 149 -34 30 -124 109 -200 175 -77 66 -180 158 -230 205 -164 155 -770
763 -862 865 -49 54 -112 124 -139 155 -28 30 -68 75 -89 100 -20 25 -48 56
-60 70 -27 31 -295 348 -316 374 -13 17 -34 41 -98 116 -19 21 -113 146 -274
363 -24 32 -52 70 -64 85 -12 15 -27 38 -34 52 -7 14 -32 48 -55 75 -22 28
-49 61 -58 75 -18 26 -48 68 -92 130 -49 69 -80 113 -105 150 -14 21 -34 50
-44 66 -11 16 -34 52 -51 79 -33 51 -67 104 -117 179 -16 22 -35 55 -43 73 -8
17 -19 35 -25 38 -6 4 -22 27 -35 53 -14 26 -37 65 -51 87 -13 22 -31 54 -39
72 -8 17 -20 35 -26 38 -6 4 -19 26 -30 49 -21 44 -41 78 -98 166 -19 30 -47
76 -61 102 -33 63 -209 379 -221 398 -5 8 -18 33 -29 55 -10 22 -25 51 -33 65
-7 14 -31 59 -52 100 -21 41 -44 82 -51 90 -7 8 -16 29 -20 45 -3 17 -12 37
-19 45 -7 8 -29 51 -50 95 -20 44 -58 125 -85 180 -26 55 -62 134 -79 175 -37
88 -58 134 -94 210 -73 155 -87 188 -87 199 0 6 -11 33 -25 59 -14 26 -25 52
-25 59 0 7 -11 33 -25 59 -14 26 -25 53 -25 61 0 8 -11 35 -25 61 -14 26 -25
53 -25 61 0 8 -9 33 -20 55 -18 39 -42 102 -77 206 -8 25 -23 61 -33 80 -10
19 -21 53 -25 75 -3 22 -13 50 -21 62 -8 12 -20 47 -28 77 -8 29 -21 67 -29
83 -9 16 -19 47 -22 68 -4 22 -16 56 -26 75 -9 20 -21 54 -25 75 -3 22 -15 56
-24 75 -10 20 -23 61 -29 93 -5 31 -17 69 -25 84 -8 16 -19 54 -25 85 -5 32
-17 70 -25 86 -8 15 -20 57 -26 92 -6 36 -18 80 -26 99 -8 18 -19 63 -24 98
-6 36 -18 79 -26 95 -8 16 -20 57 -25 91 -5 34 -16 80 -25 101 -8 21 -21 69
-28 105 -14 65 -41 184 -73 311 -8 36 -22 100 -29 144 -7 43 -20 101 -28 130
-8 28 -20 88 -25 133 -6 46 -17 107 -25 135 -8 29 -20 100 -26 158 -6 58 -17
125 -25 150 -7 25 -16 74 -20 110 -3 36 -17 137 -30 225 -13 88 -28 203 -34
255 -5 52 -17 142 -25 200 -8 58 -17 164 -21 235 -4 72 -13 186 -21 255 -17
143 -30 440 -21 464 6 14 226 16 2489 14 1577 -1 2488 -5 2496 -11z m25290
-86 c1 -52 -4 -169 -13 -260 -8 -91 -22 -260 -30 -376 -8 -115 -21 -248 -29
-295 -8 -47 -17 -121 -21 -165 -8 -116 -25 -245 -36 -280 -4 -16 -13 -82 -19
-145 -6 -63 -17 -137 -25 -165 -8 -27 -19 -93 -24 -145 -6 -53 -17 -118 -26
-145 -8 -28 -20 -88 -25 -135 -6 -47 -20 -118 -30 -158 -11 -40 -20 -85 -20
-100 0 -15 -7 -52 -15 -82 -8 -30 -22 -91 -30 -135 -8 -44 -24 -111 -35 -150
-18 -67 -32 -122 -65 -257 -9 -35 -23 -83 -31 -108 -8 -25 -21 -74 -29 -110
-7 -36 -20 -83 -29 -105 -8 -22 -20 -66 -25 -97 -6 -32 -17 -70 -25 -85 -8
-16 -19 -54 -25 -85 -5 -32 -19 -79 -30 -105 -11 -27 -22 -65 -26 -85 -3 -20
-14 -56 -25 -80 -10 -24 -22 -61 -26 -83 -3 -22 -14 -56 -24 -75 -10 -19 -21
-53 -25 -75 -3 -21 -14 -53 -23 -70 -8 -16 -21 -52 -28 -80 -7 -27 -21 -72
-32 -100 -11 -27 -25 -66 -32 -85 -7 -19 -23 -62 -35 -95 -13 -33 -31 -82 -41
-110 -9 -27 -27 -74 -40 -103 -13 -29 -24 -58 -24 -65 0 -6 -11 -34 -25 -62
-13 -27 -25 -56 -25 -62 0 -7 -11 -36 -24 -65 -52 -114 -86 -195 -86 -205 0
-6 -12 -35 -26 -65 -15 -29 -38 -78 -52 -108 -13 -30 -35 -77 -47 -105 -38
-83 -80 -175 -128 -275 -24 -52 -49 -106 -56 -120 -6 -14 -15 -32 -21 -40 -11
-18 -43 -81 -65 -130 -8 -19 -21 -44 -27 -55 -15 -27 -24 -44 -42 -82 -9 -18
-23 -48 -32 -65 -8 -18 -20 -40 -25 -48 -5 -8 -21 -37 -34 -65 -14 -27 -29
-57 -34 -65 -6 -8 -16 -28 -24 -45 -8 -16 -27 -52 -42 -80 -16 -27 -40 -72
-55 -100 -15 -27 -39 -70 -54 -95 -14 -25 -35 -64 -45 -86 -11 -23 -24 -45
-30 -49 -6 -3 -21 -23 -32 -43 -11 -20 -31 -55 -44 -77 -13 -22 -36 -60 -50
-85 -34 -59 -65 -110 -89 -146 -23 -35 -83 -129 -141 -224 -12 -19 -30 -48
-41 -64 -10 -16 -23 -36 -29 -45 -38 -64 -61 -98 -121 -189 -38 -57 -80 -120
-94 -141 -56 -85 -139 -202 -251 -352 -52 -70 -121 -164 -154 -210 -33 -45
-95 -126 -137 -178 -42 -53 -112 -140 -155 -194 -67 -85 -101 -125 -192 -232
-107 -126 -393 -448 -491 -555 -278 -302 -770 -779 -1096 -1063 -49 -43 -100
-88 -114 -101 -33 -31 -502 -417 -587 -484 -119 -94 -263 -201 -369 -275 -38
-26 -87 -61 -109 -78 -22 -16 -56 -41 -75 -54 -19 -14 -49 -35 -66 -47 -48
-35 -199 -138 -263 -180 -31 -20 -69 -46 -86 -58 -16 -11 -52 -35 -80 -52 -27
-17 -66 -41 -85 -53 -19 -12 -54 -34 -77 -48 -24 -15 -61 -38 -83 -52 -22 -14
-59 -37 -82 -52 -24 -14 -59 -36 -78 -48 -19 -12 -54 -34 -78 -49 -23 -15 -53
-31 -65 -37 -12 -5 -42 -23 -67 -39 -25 -16 -65 -41 -90 -55 -25 -14 -67 -39
-95 -55 -27 -16 -61 -34 -75 -41 -14 -8 -39 -24 -56 -36 -17 -13 -38 -23 -46
-23 -9 0 -21 -6 -27 -14 -7 -8 -35 -26 -64 -40 -29 -14 -59 -30 -67 -35 -8 -5
-26 -14 -40 -21 -14 -6 -47 -24 -75 -40 -27 -16 -61 -35 -75 -41 -14 -6 -38
-18 -55 -26 -133 -68 -164 -84 -195 -97 -19 -9 -42 -20 -50 -25 -37 -22 -141
-71 -153 -71 -7 0 -28 -11 -47 -24 -19 -13 -49 -26 -67 -30 -17 -4 -37 -14
-44 -22 -6 -8 -17 -14 -24 -14 -7 0 -39 -13 -71 -29 -32 -15 -88 -42 -124 -60
-36 -17 -71 -31 -78 -31 -8 0 -26 -9 -41 -19 -15 -11 -40 -23 -57 -27 -16 -4
-49 -18 -73 -31 -24 -12 -50 -23 -57 -23 -7 0 -34 -11 -60 -25 -26 -14 -53
-25 -61 -25 -8 0 -35 -11 -61 -25 -26 -14 -54 -25 -62 -25 -8 0 -37 -12 -65
-25 -27 -14 -56 -25 -63 -25 -7 0 -35 -11 -62 -25 -27 -14 -57 -25 -66 -25 -9
0 -40 -11 -68 -24 -75 -35 -155 -66 -206 -80 -25 -7 -59 -20 -75 -29 -17 -8
-49 -19 -70 -22 -22 -4 -56 -16 -75 -26 -20 -9 -54 -21 -75 -25 -22 -3 -56
-15 -75 -25 -20 -9 -54 -21 -75 -25 -22 -3 -56 -14 -75 -24 -19 -9 -55 -20
-80 -24 -24 -4 -64 -16 -89 -27 -24 -10 -63 -22 -85 -25 -23 -4 -67 -17 -98
-30 -32 -13 -69 -24 -83 -24 -13 0 -48 -9 -76 -20 -29 -10 -77 -24 -108 -30
-31 -6 -79 -20 -106 -30 -28 -10 -73 -21 -100 -25 -28 -4 -71 -16 -96 -25 -25
-10 -67 -22 -95 -26 -27 -4 -72 -15 -100 -25 -29 -9 -83 -20 -120 -24 -38 -4
-84 -14 -102 -22 -19 -8 -78 -21 -131 -29 -53 -8 -116 -21 -141 -29 -25 -7
-76 -17 -115 -20 -38 -4 -102 -15 -141 -25 -40 -11 -114 -24 -165 -30 -52 -6
-116 -17 -144 -25 -27 -7 -81 -16 -120 -20 -38 -3 -140 -17 -225 -30 -137 -21
-232 -32 -570 -65 -47 -5 -173 -14 -280 -20 -107 -6 -269 -17 -360 -24 -91 -7
-171 -11 -177 -8 -10 3 -13 511 -13 2492 0 1978 3 2490 13 2497 6 6 39 11 72
11 33 1 130 8 215 16 85 9 216 20 290 26 75 5 150 14 168 20 18 5 88 14 155
21 67 6 141 17 163 25 23 7 90 20 150 28 60 9 130 22 155 30 26 8 73 17 105
21 33 4 86 15 119 25 33 11 88 24 122 30 34 6 88 20 119 30 31 11 66 20 77 20
11 0 56 11 101 25 44 15 117 37 161 50 44 13 103 32 130 40 28 9 75 23 105 31
30 8 67 21 81 29 15 8 51 20 80 26 30 6 71 20 91 30 21 11 45 19 55 19 10 1
34 7 53 14 136 53 182 71 236 90 34 11 68 27 76 33 8 7 30 16 49 19 19 4 54
18 79 30 25 13 51 24 58 24 7 0 34 11 60 25 26 14 52 25 59 25 7 0 34 11 60
24 48 25 128 62 238 111 63 28 77 35 110 53 11 6 34 17 50 25 17 7 39 18 50
25 11 6 34 17 50 25 76 37 337 180 460 253 22 13 58 33 80 44 22 12 60 34 85
50 25 16 63 39 85 51 22 12 51 29 65 39 14 9 44 29 68 43 23 15 59 38 80 50
30 19 151 100 261 173 9 6 41 27 71 48 93 61 103 69 162 116 31 25 85 66 120
92 251 184 572 451 827 687 191 177 476 467 624 636 78 88 146 165 153 170 14
13 241 289 312 381 166 215 303 400 373 504 35 52 66 97 69 100 3 3 19 27 35
54 17 27 37 59 45 71 8 13 40 62 70 109 65 102 99 155 121 187 45 66 201 339
265 464 14 28 39 73 55 100 16 28 36 66 44 85 9 19 20 42 25 50 6 8 17 31 26
50 8 19 35 76 59 125 24 50 54 115 68 145 13 30 38 84 54 120 17 36 34 76 38
90 4 14 16 41 26 60 11 19 19 42 19 50 0 8 11 35 25 59 14 23 25 50 25 60 0 9
11 37 25 63 14 26 25 53 25 61 0 8 11 34 24 59 13 25 27 60 31 79 4 19 13 44
20 55 8 12 21 50 30 84 9 34 22 72 30 84 7 11 16 37 20 56 4 19 18 62 30 95
13 33 27 78 33 100 6 22 18 63 27 90 9 28 27 86 40 130 13 44 35 118 49 165
15 47 26 97 26 111 0 15 11 55 24 90 13 35 26 89 30 119 4 30 15 84 26 120 10
36 23 98 29 139 6 40 18 94 25 120 17 55 54 272 67 391 9 79 18 140 39 265 5
28 14 127 20 220 6 94 18 219 26 279 8 61 14 127 14 147 0 23 6 41 14 46 8 4
1132 8 2498 8 l2483 0 3 -94z"/>
    <path d="M20340 22060 c-202 -33 -258 -44 -281 -56 -15 -7 -49 -18 -75 -24
-85 -19 -285 -119 -410 -205 -66 -45 -187 -150 -249 -217 -66 -72 -153 -184
-193 -248 -11 -19 -40 -73 -63 -120 -22 -47 -49 -101 -59 -120 -10 -19 -21
-51 -24 -70 -4 -19 -16 -60 -26 -90 -25 -72 -53 -290 -54 -410 -1 -115 32
-395 50 -431 8 -15 18 -49 24 -75 10 -46 23 -75 88 -214 38 -80 101 -181 171
-274 53 -71 196 -213 271 -270 74 -56 186 -129 235 -153 22 -10 49 -24 60 -31
40 -22 164 -72 182 -72 10 0 37 -9 60 -20 24 -10 78 -24 120 -30 43 -5 94 -16
113 -23 23 -8 97 -12 215 -12 133 1 196 5 240 17 33 9 82 19 110 23 27 4 65
15 85 25 19 9 53 21 74 24 37 7 68 20 141 60 17 8 49 25 72 36 58 28 194 121
273 185 100 82 193 183 308 334 26 34 94 157 117 211 8 19 24 51 35 72 11 20
24 53 29 75 6 21 19 63 30 93 11 30 21 71 21 90 0 19 7 64 15 100 8 36 18 124
21 195 6 114 3 150 -21 295 -15 91 -36 182 -46 202 -11 21 -19 46 -19 56 0 10
-11 41 -25 68 -14 27 -25 54 -25 59 0 6 -6 21 -14 35 -7 14 -33 61 -56 105
-23 44 -52 92 -64 108 -68 89 -124 158 -165 200 -48 51 -194 178 -245 212 -86
60 -377 205 -410 205 -9 0 -33 8 -54 19 -20 10 -82 26 -137 36 -55 9 -120 21
-145 26 -54 10 -238 9 -300 -1z"/>
  </g>
</svg>