<svg xmlns="http://www.w3.org/2000/svg" viewBox="0 0 4096.000000 4096.000000">
  <g transform="translate(0.000000,4096.000000) scale(0.100000,-0.100000)" fill="#f4f5f7" stroke="#f4f5f7" stroke-width="40" stroke-linejoin="round" stroke-linecap="round">
    <path d="M20325 39775 c-93 -12 -215 -49 -310 -92 -156 -71 -354 -272 -445
-453 -49 -98 -94 -259 -111 -405 -5 -44 -12 -415 -14 -825 -3 -410 -8 -764
-11 -786 -5 -42 -27 -70 -72 -94 -13 -6 -85 -16 -160 -21 -270 -17 -539 -40
-647 -54 -60 -8 -166 -22 -235 -30 -279 -35 -637 -87 -728 -106 -53 -11 -155
-28 -227 -39 -71 -11 -179 -30 -240 -43 -60 -14 -128 -28 -150 -32 -22 -3
-114 -24 -205 -46 -91 -22 -221 -53 -290 -70 -473 -113 -680 -168 -1015 -268
-55 -17 -143 -43 -196 -59 -53 -16 -121 -39 -150 -50 -30 -12 -117 -45 -194
-73 -77 -28 -201 -75 -275 -104 -74 -30 -175 -69 -225 -88 -149 -58 -418 -169
-835 -347 -221 -94 -859 -415 -1080 -545 -36 -21 -83 -47 -105 -58 -22 -11
-58 -32 -80 -47 -22 -14 -85 -50 -140 -79 -104 -55 -200 -111 -247 -142 -15
-11 -49 -31 -75 -45 -48 -27 -82 -49 -353 -226 -250 -163 -343 -225 -420 -279
-41 -29 -111 -77 -155 -107 -147 -101 -585 -420 -661 -482 -52 -42 -95 -76
-169 -131 -38 -29 -104 -82 -146 -118 -42 -36 -100 -84 -129 -106 -64 -49
-212 -169 -345 -279 -98 -82 -172 -149 -444 -405 -73 -69 -163 -153 -200 -185
-81 -73 -293 -287 -394 -398 -41 -46 -136 -153 -212 -238 -76 -85 -148 -164
-160 -175 -28 -25 -207 -232 -300 -345 -38 -47 -75 -92 -82 -100 -7 -8 -64
-82 -128 -165 -63 -82 -131 -170 -151 -195 -150 -191 -255 -333 -382 -517 -19
-26 -77 -110 -130 -186 -53 -77 -102 -148 -108 -159 -7 -11 -42 -63 -78 -117
-37 -53 -103 -152 -148 -221 -109 -170 -161 -250 -184 -284 -10 -15 -35 -54
-54 -87 -44 -73 -158 -256 -179 -288 -9 -13 -33 -51 -53 -85 -53 -86 -696
-1377 -753 -1511 -26 -60 -85 -203 -131 -316 -45 -114 -92 -226 -103 -250 -10
-24 -44 -111 -75 -194 -69 -188 -160 -430 -193 -515 -41 -108 -139 -387 -181
-520 -122 -382 -206 -689 -297 -1075 -126 -542 -151 -660 -220 -1070 -20 -115
-51 -300 -70 -410 -19 -110 -37 -227 -40 -260 -4 -33 -13 -112 -21 -175 -30
-228 -51 -440 -70 -695 -8 -115 -20 -230 -25 -255 -11 -48 -42 -91 -74 -104
-11 -4 -382 -9 -825 -12 -464 -2 -852 -8 -915 -15 -128 -12 -254 -40 -328 -71
-77 -33 -186 -96 -237 -137 -73 -60 -163 -153 -213 -224 -123 -173 -180 -360
-179 -592 0 -150 22 -275 71 -400 48 -124 98 -202 191 -296 113 -114 256 -198
425 -252 108 -35 280 -47 815 -57 289 -5 662 -10 830 -10 173 0 324 -5 350
-11 25 -6 55 -20 67 -31 13 -12 26 -42 32 -72 6 -28 16 -125 22 -216 6 -91 21
-257 35 -370 13 -113 33 -290 44 -395 11 -104 24 -215 29 -245 5 -30 19 -131
31 -225 12 -93 35 -244 50 -335 16 -91 31 -187 35 -215 3 -27 17 -99 30 -160
13 -60 31 -148 40 -195 23 -120 82 -375 150 -640 28 -113 101 -373 145 -520
17 -58 46 -157 65 -220 37 -128 195 -597 245 -730 18 -47 56 -150 85 -230 110
-303 292 -748 395 -965 140 -295 208 -433 422 -855 210 -412 366 -698 477
-872 20 -31 50 -79 66 -108 36 -63 186 -295 213 -330 10 -14 52 -77 92 -140
136 -213 305 -464 386 -571 22 -30 61 -82 85 -117 59 -84 84 -116 154 -203 33
-40 81 -103 108 -139 26 -36 58 -78 72 -95 13 -16 113 -141 222 -276 109 -136
297 -358 418 -495 121 -136 249 -282 284 -323 126 -148 715 -721 864 -839 23
-19 89 -75 147 -127 245 -217 369 -325 431 -376 37 -30 134 -110 216 -179 138
-117 175 -147 258 -210 18 -14 80 -61 136 -105 134 -103 487 -369 553 -417
148 -107 342 -238 615 -413 95 -60 229 -147 299 -192 162 -105 170 -110 272
-170 415 -244 634 -365 920 -508 129 -65 298 -150 375 -190 247 -127 794 -377
995 -455 25 -10 90 -36 145 -58 113 -45 269 -100 590 -207 121 -40 238 -80
260 -88 62 -24 385 -125 535 -167 74 -21 173 -49 220 -63 246 -73 625 -164
965 -232 325 -65 744 -133 1015 -165 91 -11 217 -26 280 -35 178 -23 399 -44
703 -65 229 -16 284 -22 310 -38 18 -10 38 -29 45 -43 9 -19 12 -187 10 -774
-1 -653 1 -769 16 -900 9 -82 23 -175 31 -206 29 -118 111 -265 202 -365 48
-53 175 -158 238 -196 81 -49 213 -102 310 -124 112 -26 330 -24 435 4 114 30
237 83 320 137 41 27 120 94 176 149 96 96 104 108 167 236 75 153 110 272
126 432 6 56 15 431 21 831 11 786 10 767 64 802 17 11 68 19 172 25 82 5 167
12 189 15 36 5 287 30 540 55 178 18 743 100 985 144 194 36 419 82 535 111
55 14 168 40 250 60 352 82 722 184 1145 315 69 21 141 43 160 49 47 12 436
148 585 204 390 145 591 224 670 262 17 8 68 30 115 48 47 19 143 60 214 93
172 78 1335 660 1355 677 9 8 45 30 81 49 36 19 121 67 190 107 69 41 139 82
157 92 17 10 56 33 85 52 29 19 85 53 123 77 39 24 95 59 125 78 30 19 71 45
90 58 19 12 62 39 95 60 33 21 68 42 78 46 11 5 44 25 75 46 32 21 89 59 127
84 39 24 102 66 140 92 39 26 95 64 125 84 30 21 82 57 114 82 33 25 78 58
100 74 23 15 72 54 111 85 38 31 99 77 135 103 63 46 215 162 290 223 21 17
61 48 90 70 79 60 311 252 510 420 97 83 196 166 220 185 57 45 132 111 195
170 28 26 82 75 120 110 39 35 80 72 91 84 12 12 84 82 160 157 77 75 188 187
248 250 109 113 437 486 611 694 50 59 97 115 105 124 12 13 164 195 239 286
9 11 39 49 66 85 27 36 70 90 95 120 26 30 75 96 110 145 35 50 87 117 115
150 45 53 126 160 178 235 9 14 33 45 52 70 19 25 69 95 110 155 41 61 81 119
89 130 7 11 53 81 101 155 48 74 116 178 150 230 80 123 225 351 225 355 0 2
27 45 60 96 33 52 72 117 88 144 16 28 61 103 100 167 40 65 72 120 72 122 0
3 22 41 49 85 28 44 68 116 89 158 43 85 72 139 152 283 62 112 340 661 392
775 20 44 51 112 69 150 17 39 42 97 55 130 12 33 42 103 65 155 65 148 166
401 219 548 11 29 30 78 43 110 48 110 70 168 109 277 96 269 283 854 304 950
3 17 17 65 30 109 57 183 192 753 244 1026 17 91 40 210 50 265 11 55 31 170
45 255 14 85 30 171 35 190 5 19 14 71 19 115 6 44 22 163 36 265 40 284 89
695 105 875 20 228 32 331 41 365 6 23 21 43 46 60 l37 25 725 1 c399 1 783 5
853 8 183 9 308 30 429 75 119 43 246 121 322 198 116 115 211 272 260 428 38
120 50 228 44 378 -4 99 -12 156 -32 227 -14 52 -46 132 -70 177 -61 112 -156
235 -221 287 -74 58 -204 134 -285 167 -112 46 -264 79 -404 89 -71 5 -468 11
-882 14 -655 4 -756 7 -782 21 -17 8 -36 25 -42 37 -6 12 -16 78 -20 147 -5
69 -16 189 -24 266 -17 162 -30 284 -46 445 -6 63 -20 167 -30 230 -11 63 -26
175 -34 248 -16 136 -108 683 -125 737 -5 17 -27 120 -49 230 -56 279 -135
627 -177 775 -19 69 -53 190 -76 270 -69 249 -240 794 -303 965 -18 50 -49
135 -69 190 -20 55 -48 127 -61 160 -13 33 -51 132 -84 220 -111 299 -302 758
-376 905 -18 36 -50 101 -70 145 -62 133 -261 534 -311 625 -25 47 -75 141
-111 210 -36 69 -85 159 -109 201 -24 42 -44 80 -44 84 0 5 -6 16 -14 24 -8 9
-28 43 -45 76 -18 33 -58 103 -91 155 -33 52 -59 98 -60 103 0 7 -43 80 -105
177 -12 19 -62 98 -110 175 -144 230 -153 244 -261 409 -57 87 -114 176 -126
197 -32 53 -273 399 -344 493 -32 43 -68 91 -79 106 -11 15 -49 65 -85 110
-36 46 -76 98 -90 116 -96 127 -257 335 -321 415 -86 106 -301 350 -455 514
-56 61 -115 124 -131 140 -15 17 -77 86 -138 155 -128 145 -384 403 -535 540
-57 52 -129 119 -160 150 -95 94 -276 260 -301 277 -22 16 -137 111 -149 123
-3 3 -34 28 -70 55 -81 62 -183 144 -375 304 -189 158 -479 375 -714 534 -282
191 -371 251 -441 302 -41 30 -126 87 -188 127 -62 40 -145 94 -185 120 -151
98 -448 275 -642 383 -129 73 -212 120 -296 170 -137 80 -317 176 -584 309
-322 160 -363 179 -710 327 -115 49 -244 105 -285 123 -41 19 -111 50 -155 69
-44 19 -122 53 -173 76 -50 22 -95 41 -98 41 -3 0 -63 23 -132 51 -70 28 -170
67 -222 86 -179 66 -579 202 -682 232 -57 16 -164 49 -238 71 -231 70 -652
179 -894 231 -76 16 -142 31 -145 34 -13 7 -606 123 -791 154 -321 53 -570 90
-725 106 -82 8 -184 20 -225 25 -111 14 -327 37 -475 50 -280 25 -327 31 -355
45 -17 9 -37 27 -46 40 -15 23 -16 89 -16 663 1 350 -3 709 -9 797 -11 177
-39 314 -88 438 -44 110 -82 182 -139 262 -168 236 -351 363 -613 424 -117 27
-227 32 -344 16z m-936 -4750 c16 -8 32 -22 37 -32 11 -25 23 -1971 13 -2058
-8 -58 -14 -74 -36 -92 -16 -13 -50 -27 -78 -32 -27 -6 -129 -18 -225 -26
-263 -24 -537 -69 -970 -158 -482 -101 -826 -185 -1115 -274 -553 -170 -951
-319 -1440 -536 -55 -24 -163 -72 -240 -106 -128 -56 -426 -203 -450 -221 -5
-5 -53 -30 -105 -57 -52 -27 -126 -68 -165 -90 -38 -22 -97 -55 -130 -73 -72
-39 -276 -165 -435 -268 -63 -41 -146 -95 -185 -120 -137 -87 -301 -197 -365
-244 -36 -26 -78 -57 -95 -68 -72 -48 -205 -148 -266 -199 -37 -31 -95 -78
-129 -106 -34 -27 -68 -54 -74 -60 -6 -6 -29 -25 -51 -41 -124 -90 -518 -430
-820 -708 -122 -113 -423 -411 -529 -526 -38 -41 -99 -107 -135 -145 -65 -69
-82 -89 -187 -211 -209 -241 -465 -559 -597 -742 -45 -62 -99 -136 -120 -165
-21 -29 -46 -63 -55 -77 -10 -14 -44 -62 -77 -108 -33 -46 -69 -98 -80 -115
-11 -18 -45 -68 -75 -112 -59 -86 -107 -163 -149 -235 -14 -25 -34 -57 -44
-70 -19 -26 -100 -162 -172 -290 -184 -327 -240 -428 -325 -595 -54 -104 -126
-251 -159 -325 -34 -74 -70 -153 -80 -175 -63 -132 -102 -220 -114 -262 -8
-26 -60 -167 -115 -313 -97 -259 -230 -645 -291 -845 -26 -86 -61 -212 -151
-540 -37 -133 -109 -486 -165 -805 -9 -52 -23 -129 -30 -170 -27 -146 -53
-347 -90 -690 -29 -275 -35 -320 -52 -354 -9 -21 -29 -40 -47 -48 -25 -10
-237 -12 -1096 -10 -1177 3 -1097 -2 -1126 67 -8 19 -14 62 -14 95 0 81 47
650 60 720 12 70 26 165 50 360 33 262 132 783 209 1105 170 701 273 1058 457
1580 81 233 97 276 154 420 28 72 62 159 75 195 38 106 216 543 285 700 44
100 263 539 290 580 18 29 90 152 90 155 0 3 108 194 161 285 21 36 54 94 74
130 20 36 54 94 75 130 22 36 54 90 70 120 65 118 165 278 287 458 61 91 153
227 176 262 63 94 97 142 137 195 42 55 121 164 162 225 10 14 33 44 50 66 18
23 67 86 108 140 41 55 115 147 165 205 49 58 115 136 145 174 77 95 248 294
334 390 40 44 106 118 147 165 123 141 411 435 734 750 178 173 569 522 755
673 52 42 126 103 163 135 38 31 84 68 102 82 18 14 85 66 150 115 65 50 136
103 159 119 22 15 70 52 106 80 36 29 87 68 114 87 26 19 61 43 76 54 44 31
444 296 502 332 186 115 567 342 613 365 17 8 64 34 105 58 268 152 779 405
1115 553 238 104 310 134 485 202 80 31 179 70 220 86 275 106 661 231 1065
343 389 108 575 156 860 221 246 56 233 54 650 131 77 14 196 36 265 50 214
41 450 75 790 114 127 15 418 37 508 39 47 1 83 -4 101 -14z m2536 -10 c33 -3
121 -10 195 -15 74 -6 187 -17 250 -25 63 -8 209 -26 324 -40 116 -14 228 -30
250 -35 23 -5 125 -23 228 -39 104 -17 216 -37 250 -46 35 -8 115 -24 178 -36
63 -11 167 -34 230 -49 63 -16 133 -32 155 -36 22 -3 90 -19 150 -34 61 -16
166 -43 235 -60 336 -84 648 -177 1096 -326 56 -18 157 -56 225 -84 68 -28
151 -62 184 -75 61 -23 231 -94 385 -160 47 -20 116 -50 154 -66 38 -16 74
-33 80 -38 6 -5 36 -19 66 -31 30 -12 83 -35 118 -51 35 -16 66 -29 68 -29 3
0 143 -68 312 -152 292 -144 388 -195 581 -309 46 -27 86 -49 89 -49 6 0 283
-164 347 -205 28 -18 79 -50 115 -72 36 -22 119 -73 185 -115 66 -41 158 -99
205 -127 47 -29 132 -86 190 -127 58 -41 123 -87 145 -102 57 -39 162 -115
283 -205 58 -43 131 -96 161 -117 31 -21 82 -60 113 -86 32 -27 83 -70 115
-95 276 -222 376 -305 467 -390 39 -37 114 -105 167 -150 134 -117 362 -321
438 -394 170 -160 429 -426 561 -574 36 -40 106 -118 156 -172 182 -196 513
-587 583 -689 14 -19 28 -37 31 -40 4 -3 19 -23 34 -45 14 -22 47 -65 71 -95
25 -30 64 -81 88 -114 23 -32 51 -71 62 -86 11 -14 40 -56 65 -92 25 -36 103
-148 174 -249 70 -101 157 -227 192 -279 35 -52 82 -122 105 -155 23 -33 56
-87 74 -120 39 -73 81 -145 142 -245 74 -120 274 -475 343 -605 35 -66 88
-167 118 -225 134 -254 205 -405 323 -680 71 -166 85 -199 128 -293 42 -93
165 -406 245 -622 21 -55 50 -131 67 -170 16 -38 37 -95 48 -125 10 -30 42
-118 70 -195 28 -77 62 -176 75 -220 13 -44 45 -147 71 -230 26 -82 61 -197
77 -255 53 -191 209 -820 239 -964 75 -358 119 -596 144 -771 14 -104 32 -226
40 -270 8 -44 17 -109 20 -145 3 -36 12 -121 20 -190 16 -140 32 -312 40 -440
6 -75 4 -89 -14 -118 -12 -18 -33 -38 -49 -45 -38 -16 -2189 -24 -2244 -7 -25
7 -43 21 -52 38 -9 18 -19 90 -26 193 -24 346 -83 904 -110 1044 -6 28 -28
147 -51 265 -114 605 -269 1142 -504 1750 -20 52 -50 130 -66 172 -16 43 -37
97 -47 120 -11 24 -38 93 -61 153 -24 61 -58 147 -77 192 -19 45 -34 84 -34
88 0 3 -14 36 -31 73 -18 37 -49 105 -71 152 -103 223 -338 676 -470 910 -83
145 -197 337 -221 370 -10 14 -40 63 -67 110 -27 47 -58 99 -70 115 -41 58
-89 130 -105 159 -9 15 -49 72 -88 126 -40 54 -80 111 -89 127 -18 28 -47 68
-302 404 -165 218 -171 225 -306 383 -58 68 -135 159 -172 202 -36 44 -88 102
-114 129 -27 28 -71 75 -98 105 -200 223 -578 603 -741 745 -55 48 -109 97
-121 109 -33 33 -83 76 -169 146 -44 36 -128 105 -186 155 -123 105 -318 258
-591 465 -132 100 -112 86 -322 225 -246 164 -541 356 -605 393 -31 18 -85 51
-121 72 -36 22 -92 54 -125 70 -32 17 -64 35 -70 40 -23 19 -552 281 -695 344
-85 38 -187 84 -227 102 -40 19 -75 34 -78 34 -3 0 -49 20 -103 44 -141 63
-326 141 -423 176 -299 110 -806 275 -1029 334 -52 14 -153 41 -225 61 -305
83 -1164 256 -1436 290 -112 14 -231 29 -264 35 -33 5 -134 17 -225 25 -205
19 -233 33 -244 125 -8 66 9 2072 17 2090 4 9 20 24 35 33 24 16 43 17 157 12
72 -3 157 -8 190 -10z m-2527 -4295 c18 -11 37 -32 43 -48 8 -19 10 -413 8
-1297 -3 -1009 -1 -1283 10 -1334 41 -204 141 -399 280 -544 118 -123 244
-199 431 -259 103 -32 108 -33 285 -33 168 0 186 2 275 28 130 39 145 44 225
85 141 72 258 176 372 333 55 74 105 176 136 275 53 167 58 240 67 1039 5 407
7 931 4 1165 -2 234 -1 450 2 480 5 41 14 61 35 82 23 24 36 28 84 28 73 0
399 -46 495 -70 41 -10 111 -24 155 -30 44 -7 138 -25 208 -41 70 -16 167 -36
214 -45 116 -20 510 -119 723 -181 47 -13 123 -35 170 -48 178 -49 592 -195
722 -255 24 -10 102 -44 173 -74 255 -106 729 -338 1000 -489 109 -61 136 -76
234 -130 28 -15 83 -48 123 -74 271 -174 353 -230 558 -383 52 -39 131 -98
175 -130 106 -78 344 -260 375 -287 14 -12 77 -65 140 -118 63 -54 158 -139
210 -190 52 -51 165 -160 250 -242 85 -83 182 -177 216 -209 33 -32 112 -117
174 -189 62 -71 150 -168 195 -215 134 -140 345 -386 465 -544 152 -200 398
-552 517 -739 28 -45 61 -95 72 -112 11 -16 32 -52 47 -80 14 -27 34 -60 44
-75 45 -66 110 -170 110 -175 0 -4 28 -54 62 -113 120 -208 317 -617 486
-1007 110 -255 287 -756 365 -1035 67 -238 171 -678 197 -835 11 -66 22 -127
25 -135 7 -25 43 -286 59 -430 27 -237 38 -383 31 -417 -3 -18 -19 -43 -38
-59 l-32 -27 -1070 5 c-588 3 -1140 1 -1225 -4 -192 -11 -318 -31 -435 -69
-93 -31 -239 -108 -309 -163 -78 -61 -182 -176 -234 -260 -71 -113 -118 -223
-143 -337 -18 -81 -20 -117 -16 -259 6 -195 24 -279 92 -416 81 -166 220 -300
415 -398 150 -76 301 -115 540 -137 69 -7 564 -14 1230 -17 1095 -7 1116 -7
1149 -27 24 -14 38 -31 44 -55 10 -38 -13 -320 -38 -470 -7 -47 -17 -114 -20
-150 -15 -149 -84 -529 -141 -775 -76 -327 -233 -866 -317 -1085 -14 -36 -46
-119 -71 -185 -66 -177 -160 -405 -229 -560 -96 -215 -299 -630 -372 -760 -25
-44 -57 -102 -71 -130 -15 -27 -36 -65 -49 -85 -40 -63 -110 -175 -120 -192
-22 -37 -222 -348 -274 -426 -69 -104 -72 -108 -146 -210 -33 -46 -67 -93 -75
-106 -8 -12 -44 -59 -80 -105 -36 -46 -76 -98 -90 -116 -152 -196 -334 -407
-529 -614 -126 -133 -421 -427 -501 -500 -19 -18 -53 -49 -75 -69 -22 -21 -78
-71 -125 -112 -47 -41 -87 -78 -90 -81 -11 -12 -270 -226 -314 -259 -26 -19
-74 -55 -106 -80 -32 -25 -79 -61 -105 -80 -25 -19 -63 -48 -85 -65 -97 -74
-434 -300 -495 -332 -28 -15 -76 -44 -190 -118 -246 -159 -437 -268 -710 -405
-148 -75 -286 -142 -305 -150 -43 -16 -175 -73 -255 -110 -75 -34 -433 -176
-580 -228 -60 -22 -160 -59 -222 -81 -62 -23 -116 -41 -121 -41 -5 0 -51 -14
-103 -31 -52 -16 -125 -38 -164 -49 -38 -10 -97 -27 -130 -39 -64 -22 -331
-94 -480 -130 -92 -21 -300 -63 -505 -100 -119 -22 -499 -74 -628 -86 -50 -5
-82 -3 -103 5 -64 27 -60 -30 -60 1083 1 743 -3 1081 -13 1272 -14 248 -16
266 -50 385 -20 69 -52 158 -71 199 -52 110 -121 217 -193 301 -110 128 -218
197 -416 268 l-131 46 -210 1 c-206 0 -212 -1 -299 -29 -109 -36 -262 -113
-329 -167 -54 -42 -153 -150 -197 -214 -76 -110 -119 -227 -156 -420 -16 -82
-18 -201 -18 -1365 -1 -1108 -3 -1278 -16 -1297 -24 -36 -83 -55 -154 -48 -96
10 -492 64 -586 80 -47 8 -130 22 -185 31 -185 29 -588 122 -815 188 -226 65
-524 161 -655 210 -38 15 -109 40 -156 56 -133 45 -456 174 -576 231 -173 82
-518 253 -648 321 -127 67 -321 181 -520 304 -66 40 -145 87 -175 103 -48 26
-134 84 -372 250 -65 46 -233 172 -447 336 -223 172 -471 394 -741 664 -376
376 -629 652 -815 887 -124 156 -341 442 -398 524 -9 14 -53 77 -97 140 -84
120 -160 233 -225 335 -21 33 -62 96 -91 140 -214 327 -457 794 -647 1245 -53
124 -165 405 -192 480 -13 36 -47 126 -75 200 -56 146 -143 404 -184 540 -65
219 -131 514 -216 960 -48 253 -111 834 -97 892 4 15 23 36 44 50 l38 23 410
-2 c226 -2 721 -6 1100 -9 711 -6 903 -1 1105 33 111 18 254 67 347 119 36 21
95 64 130 97 172 161 268 355 299 605 16 129 14 229 -8 362 -13 84 -70 238
-116 315 -102 171 -248 310 -412 392 -79 40 -231 87 -337 105 -61 10 -340 13
-1323 13 -1183 0 -1247 1 -1273 18 -16 10 -33 30 -38 45 -28 70 29 533 135
1112 37 201 186 762 262 988 78 232 244 667 347 912 97 227 360 777 426 887
15 26 48 82 72 123 24 41 57 95 74 120 32 46 59 92 103 170 37 67 263 405 487
729 76 110 147 203 264 344 58 70 119 144 134 165 24 31 229 266 247 282 3 3
46 52 95 110 123 143 324 342 675 666 124 114 277 244 395 334 61 47 127 97
146 112 59 47 202 152 254 188 28 18 52 37 55 40 3 4 23 19 45 33 22 14 65 44
95 66 84 60 426 291 432 291 3 0 87 50 188 110 100 61 184 110 186 110 2 0 27
14 56 31 58 35 625 320 723 364 74 33 229 98 310 129 33 13 105 42 160 64 267
109 914 320 1290 420 356 96 700 165 1095 221 251 36 265 37 308 11z m-11175
-11234 c20 -8 42 -25 51 -38 16 -24 37 -157 56 -353 28 -289 65 -553 105 -765
8 -41 24 -124 35 -185 45 -234 160 -721 243 -1030 78 -290 189 -626 337 -1025
22 -58 67 -179 101 -270 33 -91 72 -194 85 -230 13 -36 31 -78 39 -95 8 -16
35 -82 61 -145 61 -151 132 -308 204 -450 134 -266 383 -710 508 -905 28 -44
65 -105 83 -135 17 -30 41 -66 51 -80 11 -14 41 -61 68 -105 57 -93 47 -79
265 -385 39 -55 190 -263 215 -296 239 -317 275 -362 444 -553 103 -117 151
-170 336 -371 291 -317 516 -542 610 -611 19 -15 74 -62 121 -105 143 -132
426 -377 505 -439 21 -16 57 -46 79 -65 47 -40 200 -153 325 -240 47 -33 127
-90 179 -127 138 -100 193 -139 226 -162 78 -54 281 -185 375 -243 58 -36 134
-83 170 -105 122 -76 355 -210 485 -281 72 -38 200 -109 285 -156 85 -48 211
-114 280 -148 194 -94 329 -158 336 -158 3 0 29 -11 57 -24 121 -57 436 -185
578 -235 63 -22 179 -63 259 -91 252 -90 610 -206 785 -254 561 -154 1307
-298 1823 -351 31 -3 66 -8 77 -10 11 -2 80 -9 154 -15 143 -11 199 -30 223
-73 10 -17 14 -151 19 -557 4 -294 7 -769 7 -1055 0 -393 -3 -529 -12 -555
-10 -27 -21 -38 -52 -49 -32 -11 -71 -11 -225 -2 -102 6 -213 16 -245 21 -33
5 -153 21 -269 34 -115 14 -273 35 -350 46 -77 12 -194 30 -260 40 -66 10
-169 27 -230 38 -60 11 -175 32 -255 47 -80 14 -158 30 -174 35 -16 6 -70 17
-120 26 -81 13 -326 73 -636 154 -221 58 -381 110 -1105 361 -60 21 -162 59
-225 84 -63 26 -146 60 -185 75 -38 15 -101 42 -138 59 -38 17 -73 31 -78 31
-5 0 -85 34 -177 76 -92 41 -198 89 -237 106 -283 123 -670 319 -1105 560 -80
44 -167 93 -193 109 -27 16 -51 29 -53 29 -8 0 -265 155 -381 229 -56 37 -130
84 -165 105 -95 60 -304 200 -383 256 -38 28 -92 66 -120 85 -183 126 -303
211 -408 290 -44 33 -92 69 -107 80 -31 23 -148 120 -264 220 -45 39 -107 90
-136 115 -30 25 -106 90 -170 145 -63 55 -141 121 -172 148 -85 71 -202 180
-308 287 -199 201 -699 717 -740 765 -23 28 -61 72 -84 99 -22 27 -50 59 -62
70 -41 41 -167 188 -310 363 -175 212 -213 260 -280 351 -35 48 -88 119 -119
157 -88 113 -213 282 -290 395 -25 36 -65 92 -89 125 -25 33 -53 74 -62 90
-21 38 -97 152 -153 230 -66 93 -111 159 -178 264 -34 53 -71 110 -83 126 -11
17 -55 90 -98 162 -42 73 -111 190 -152 260 -81 138 -158 272 -226 396 -24 44
-47 84 -53 90 -11 15 -152 297 -213 427 -88 188 -198 436 -198 446 0 3 -11 29
-24 57 -13 29 -46 106 -74 172 -27 66 -66 159 -85 206 -20 48 -57 142 -82 210
-25 68 -58 158 -74 199 -16 41 -43 113 -59 160 -119 344 -157 462 -202 635
-16 61 -47 178 -70 260 -86 311 -146 562 -222 925 -46 222 -63 315 -79 415 -6
39 -19 117 -30 175 -16 90 -57 409 -90 700 -12 109 -36 386 -44 516 -6 81 -4
107 8 131 31 60 16 58 446 63 218 3 696 6 1063 8 567 3 672 1 701 -12z m26799
-25 l31 -34 -7 -101 c-23 -368 -112 -1137 -153 -1331 -8 -38 -28 -142 -43
-230 -36 -202 -75 -390 -100 -480 -10 -38 -47 -182 -80 -320 -34 -137 -75
-297 -91 -355 -113 -403 -153 -533 -226 -745 -115 -332 -243 -674 -289 -773
-13 -29 -24 -55 -24 -59 0 -3 -15 -40 -34 -82 -39 -89 -90 -210 -142 -336 -42
-104 -195 -437 -247 -540 -20 -38 -58 -117 -86 -175 -28 -58 -57 -116 -65
-130 -21 -35 -138 -244 -173 -310 -17 -30 -49 -88 -72 -127 -22 -40 -58 -103
-79 -140 -62 -110 -226 -392 -272 -468 -42 -72 -76 -126 -189 -307 -85 -135
-363 -549 -401 -596 -45 -57 -155 -206 -227 -309 -106 -153 -257 -335 -655
-787 -173 -197 -327 -360 -520 -547 -150 -146 -298 -289 -328 -317 -30 -28
-94 -88 -141 -134 -48 -46 -119 -110 -158 -143 -40 -33 -152 -127 -250 -210
-98 -82 -220 -184 -271 -225 -52 -41 -112 -91 -136 -110 -23 -19 -70 -57 -104
-85 -35 -27 -68 -55 -74 -60 -12 -12 -245 -184 -291 -215 -40 -28 -226 -156
-289 -200 -136 -95 -378 -254 -501 -330 -38 -24 -86 -53 -105 -65 -158 -99
-427 -252 -675 -385 -115 -62 -233 -125 -260 -140 -55 -31 -601 -303 -735
-368 -47 -22 -106 -48 -130 -58 -25 -9 -49 -21 -55 -25 -5 -4 -37 -18 -70 -32
-33 -14 -118 -51 -190 -82 -71 -32 -159 -68 -195 -80 -36 -13 -112 -42 -170
-65 -58 -22 -141 -54 -185 -70 -44 -16 -134 -50 -200 -75 -66 -26 -165 -62
-220 -80 -55 -18 -113 -38 -130 -44 -80 -30 -513 -166 -650 -205 -349 -100
-1196 -269 -1815 -361 -286 -43 -430 -59 -710 -80 -199 -15 -217 -15 -251 0
-20 10 -42 29 -49 44 -10 20 -12 233 -11 946 1 506 6 990 10 1077 8 176 17
199 79 225 20 8 100 21 177 29 262 25 340 34 440 49 55 8 152 21 215 30 63 9
160 24 215 35 55 10 143 26 195 35 95 17 317 66 505 111 55 14 141 33 190 44
50 11 151 38 225 61 74 22 178 54 230 70 147 44 739 242 890 298 319 116 408
152 630 251 63 28 135 60 160 70 95 38 328 153 444 219 66 37 194 107 283 155
89 47 233 130 320 183 87 53 172 104 190 114 17 10 58 35 90 55 32 21 74 47
93 59 73 45 191 124 363 245 98 69 218 152 266 186 49 33 141 100 205 150 64
49 132 100 150 114 54 40 238 181 279 214 22 17 93 78 159 136 66 58 143 125
172 149 94 80 280 253 407 380 250 251 668 730 871 999 18 24 60 78 94 120 33
42 73 96 90 118 16 23 48 66 71 95 23 30 70 91 105 135 134 173 246 321 285
379 74 108 236 359 269 415 17 30 60 103 95 162 35 60 82 140 104 179 22 39
54 93 70 119 17 27 50 84 73 127 24 43 75 134 114 203 92 163 196 365 265 515
30 66 66 143 79 171 13 28 24 54 24 57 0 3 13 34 29 69 71 155 188 462 295
776 97 285 118 350 161 492 25 85 62 206 81 269 18 62 34 118 34 125 0 6 15
70 34 141 96 363 205 887 241 1160 8 61 17 119 20 130 2 11 11 77 19 145 9 69
23 172 31 230 9 58 20 172 25 253 5 82 15 160 22 175 7 14 28 37 47 49 l35 24
1099 -3 1099 -3 30 -34z"/>
    <path d="M20216 24950 c-43 -11 -115 -37 -160 -58 -90 -43 -168 -102 -266
-201 -102 -103 -205 -270 -250 -406 -55 -166 -66 -418 -75 -1690 -3 -478 -8
-892 -11 -920 -4 -27 -11 -58 -16 -68 -5 -10 -26 -26 -46 -35 -34 -15 -142
-18 -1177 -23 -1129 -6 -1141 -6 -1240 -28 -136 -30 -215 -61 -334 -133 -108
-64 -189 -138 -280 -255 -79 -102 -108 -152 -152 -259 -56 -135 -73 -245 -66
-424 4 -80 12 -170 20 -201 21 -81 75 -202 132 -294 29 -46 88 -119 140 -170
68 -68 111 -102 177 -138 100 -54 252 -102 388 -123 167 -25 513 -34 1441 -39
754 -3 912 -6 940 -18 69 -28 63 71 75 -1236 10 -1031 14 -1197 28 -1271 33
-168 79 -286 161 -415 56 -87 164 -211 224 -256 74 -56 194 -124 281 -158 41
-16 110 -37 152 -45 98 -20 253 -20 359 0 108 20 252 81 353 148 136 90 169
124 299 300 70 95 137 244 172 384 25 99 34 374 36 1042 1 338 4 803 8 1032 6
402 7 418 27 445 11 15 32 33 45 40 28 14 244 19 1149 28 673 7 1143 20 1275
35 193 22 356 84 491 185 85 64 176 166 228 254 20 34 54 115 76 179 33 97 42
141 50 242 17 207 -8 366 -80 511 -73 147 -218 323 -330 399 -92 62 -195 109
-321 145 -138 40 -290 61 -504 70 -82 3 -569 10 -1081 14 -855 8 -934 10 -968
26 -20 10 -42 27 -49 39 -9 16 -14 237 -18 891 -6 848 -15 1128 -45 1405 -26
249 -39 300 -113 444 -75 146 -112 199 -209 300 -95 98 -181 160 -307 222
-148 71 -245 95 -415 100 -111 3 -149 0 -214 -16z"/>
  </g>
</svg>