<svg xmlns="http://www.w3.org/2000/svg" viewBox="0 0 4096.000000 4096.000000">
  <g transform="translate(0.000000,4096.000000) scale(0.100000,-0.100000)" fill="#f4f5f7" stroke="none">
    <path d="M3820 38023 c-127 -7 -237 -26 -280 -49 -25 -13 -52 -24 -61 -24 -9
0 -27 -8 -40 -19 -13 -10 -39 -26 -57 -35 -109 -56 -255 -207 -329 -341 -66
-118 -92 -198 -103 -315 -7 -69 -10 -2267 -10 -6364 0 -3443 -3 -6263 -7
-6267 -5 -4 -363 -10 -798 -12 l-790 -3 -90 -31 c-165 -57 -259 -117 -381
-245 -66 -69 -154 -190 -154 -211 0 -5 -8 -21 -19 -35 -10 -15 -26 -49 -34
-77 -8 -27 -23 -68 -34 -90 -17 -39 -18 -158 -18 -3420 l0 -3380 38 -105 c21
-58 44 -112 51 -120 7 -8 17 -28 24 -43 28 -65 143 -198 233 -269 120 -95 208
-138 349 -169 l125 -28 747 -1 c411 0 749 -4 752 -8 3 -5 7 -2850 9 -6323 3
-4458 8 -6330 15 -6368 22 -106 93 -261 166 -361 50 -68 158 -176 214 -212 23
-16 60 -40 81 -54 21 -14 59 -31 83 -39 23 -7 59 -20 79 -29 21 -8 88 -20 150
-26 81 -8 5017 -10 16844 -8 12592 3 16739 6 16765 15 51 17 163 62 180 73 8
6 33 19 55 31 70 37 218 171 276 249 35 47 99 169 99 189 0 9 11 39 24 68 14
28 30 91 36 140 10 67 13 1546 16 6367 2 3454 7 6283 11 6287 5 5 352 10 773
12 l765 3 96 26 c100 26 192 66 245 105 17 13 34 23 39 23 9 0 103 79 152 128
18 17 50 56 71 85 46 62 112 186 112 210 0 10 12 45 26 80 25 58 27 74 33 287
3 124 4 1645 1 3380 l-6 3155 -35 96 c-19 52 -41 106 -50 120 -8 13 -21 38
-28 54 -22 51 -76 127 -132 186 -73 75 -182 165 -210 174 -13 4 -36 17 -50 27
-28 21 -138 63 -204 78 -22 5 -390 9 -817 10 -457 0 -779 4 -782 9 -4 5 -6
2824 -6 6264 -1 6797 2 6444 -54 6555 -14 28 -26 56 -26 63 0 37 -171 264
-240 319 -93 73 -112 87 -152 111 -24 15 -56 29 -73 33 -16 4 -49 16 -72 27
-24 11 -78 24 -120 30 -53 6 -5544 10 -16753 12 -9171 1 -16695 1 -16720 0z
m32400 -1809 c12 -12 14 -11594 3 -11605 -5 -4 -224 -9 -488 -11 -455 -4 -483
-5 -540 -25 -33 -12 -73 -24 -90 -28 -39 -8 -178 -78 -232 -116 -57 -40 -164
-148 -211 -212 -42 -56 -86 -137 -128 -232 -55 -126 -53 -9 -53 -3480 -1
-2155 3 -3239 10 -3320 8 -95 16 -133 40 -186 16 -37 29 -72 29 -78 0 -14 56
-116 84 -154 60 -79 95 -118 160 -174 39 -35 75 -63 80 -63 4 0 24 -13 43 -30
18 -16 41 -30 51 -30 9 0 32 -9 50 -20 18 -11 64 -27 100 -35 37 -7 81 -20 97
-27 23 -9 145 -13 507 -16 374 -3 479 -6 487 -16 8 -9 11 -1697 11 -5805 0
-3186 -2 -5797 -6 -5802 -3 -5 -6245 -9 -15738 -9 -12235 0 -15735 3 -15744
12 -9 9 -12 1308 -12 5805 0 5713 0 5792 19 5803 13 6 173 10 448 10 345 0
441 3 498 16 39 8 95 20 125 25 52 10 171 63 254 114 64 38 180 145 222 205
46 64 114 196 114 219 0 9 9 33 20 53 12 23 25 82 35 160 14 110 15 464 13
3368 -4 3443 -2 3330 -49 3422 -11 21 -19 43 -19 50 0 18 -73 161 -102 200
-30 40 -205 216 -246 246 -48 35 -138 79 -232 114 l-85 31 -495 4 c-272 3
-498 8 -503 12 -4 4 -7 2615 -7 5802 0 4852 2 5796 13 5804 19 13 31454 12
31467 -1z m2341 -13420 c4 -2 7 -1035 8 -2296 1 -1459 -2 -2298 -9 -2308 -8
-13 -148 -16 -1127 -20 -615 -3 -1126 -1 -1135 3 -17 7 -18 132 -20 2305 -2
1289 1 2302 6 2309 7 10 244 13 1110 16 605 1 1115 1 1131 -2 17 -2 33 -5 36
-7z m-33886 -3 c3 -6 5 -1042 5 -2303 0 -1811 -3 -2295 -13 -2305 -9 -10 -255
-13 -1130 -14 -679 -1 -1122 2 -1128 8 -10 10 -14 4598 -4 4614 8 12 2262 12
2270 0z"/>
    <path d="M14165 29250 c-38 -11 -88 -24 -111 -29 -74 -18 -219 -100 -286 -161
-18 -17 -36 -30 -40 -30 -7 0 -42 -44 -120 -149 -33 -45 -90 -159 -113 -226
-45 -134 -46 -145 -42 -315 4 -154 7 -171 36 -255 17 -49 41 -102 51 -117 11
-15 20 -31 20 -36 0 -13 64 -106 107 -156 42 -51 190 -176 207 -176 7 0 25 -9
39 -20 14 -11 65 -37 114 -58 l88 -37 2728 -5 c2011 -5 2730 -9 2738 -17 9 -9
11 -1895 10 -7350 -2 -7238 -1 -7624 29 -7743 18 -73 68 -197 98 -240 69 -102
210 -240 298 -292 16 -10 36 -22 44 -27 8 -5 42 -22 75 -36 70 -31 268 -75
338 -75 72 0 286 39 332 60 98 45 133 62 175 87 70 42 219 199 268 280 23 40
42 75 42 79 0 4 11 31 25 60 18 38 29 88 40 181 13 113 15 1021 15 7567 0
4092 3 7443 7 7447 5 4 1160 9 2568 10 1408 1 2639 5 2735 9 157 7 182 11 245
35 39 15 79 32 90 37 31 14 109 60 151 89 40 28 154 145 189 195 41 58 87 151
116 234 28 78 31 98 36 258 l6 173 -33 102 c-35 111 -84 217 -133 287 -41 58
-192 209 -236 235 -18 11 -51 30 -73 42 -21 12 -45 26 -52 33 -8 6 -67 24
-132 40 l-119 30 -6250 -1 c-6119 0 -6251 -1 -6320 -19z"/>
  </g>
</svg>