<svg xmlns="http://www.w3.org/2000/svg" viewBox="0 0 4096.000000 4096.000000">
  <g transform="translate(0.000000,4096.000000) scale(0.100000,-0.100000)" fill="#f4f5f7" stroke="none">
    <path d="M16564 40354 c-99 -8 -146 -18 -196 -38 -37 -14 -73 -26 -80 -26 -13
0 -92 -39 -225 -111 -60 -33 -203 -158 -263 -230 -94 -112 -123 -156 -170
-259 -11 -25 -29 -61 -39 -80 -10 -19 -22 -51 -25 -70 -4 -19 -17 -64 -29
-100 -20 -60 -22 -84 -21 -315 0 -247 1 -251 27 -318 15 -37 27 -78 27 -90 0
-12 11 -42 24 -67 13 -25 27 -55 30 -67 10 -31 62 -115 116 -188 57 -78 186
-203 258 -250 31 -21 68 -46 82 -55 36 -25 175 -90 191 -90 8 0 34 -10 59 -21
26 -12 103 -29 180 -40 128 -18 203 -19 1434 -19 714 1 1301 -2 1305 -5 3 -4
7 -652 9 -1440 2 -1230 0 -1435 -12 -1448 -10 -9 -50 -16 -125 -21 -60 -3
-132 -10 -158 -16 -27 -5 -134 -14 -239 -20 -104 -6 -238 -19 -299 -30 -60
-10 -166 -24 -235 -30 -69 -6 -154 -17 -190 -25 -36 -7 -126 -21 -200 -30 -74
-9 -160 -22 -190 -30 -30 -8 -112 -21 -182 -30 -70 -8 -145 -22 -167 -30 -22
-8 -78 -19 -123 -25 -46 -6 -112 -19 -148 -30 -36 -10 -100 -24 -144 -30 -43
-6 -95 -18 -116 -25 -21 -7 -73 -19 -116 -25 -44 -7 -104 -20 -134 -31 -30
-10 -88 -23 -128 -29 -40 -5 -89 -17 -110 -26 -20 -8 -75 -22 -121 -30 -47 -9
-96 -21 -110 -29 -14 -7 -63 -20 -108 -28 -44 -9 -94 -22 -110 -30 -16 -8 -54
-20 -86 -26 -31 -6 -90 -21 -129 -34 -98 -33 -233 -74 -288 -88 -25 -6 -50
-15 -56 -20 -6 -5 -41 -16 -79 -24 -38 -9 -78 -21 -89 -28 -12 -6 -57 -21
-101 -33 -100 -28 -196 -60 -255 -85 -25 -10 -65 -23 -89 -29 -24 -7 -60 -20
-80 -31 -20 -10 -44 -19 -54 -19 -10 0 -49 -13 -87 -30 -38 -16 -75 -30 -83
-30 -8 0 -35 -11 -60 -24 -25 -14 -63 -28 -84 -32 -21 -4 -62 -20 -92 -35 -30
-16 -60 -29 -68 -29 -7 0 -36 -11 -63 -25 -27 -14 -57 -25 -67 -25 -10 0 -43
-13 -73 -30 -30 -16 -62 -29 -70 -30 -8 0 -42 -14 -75 -30 -33 -16 -65 -30
-71 -30 -7 0 -38 -13 -69 -30 -31 -16 -64 -30 -72 -30 -8 0 -27 -9 -42 -19
-15 -11 -40 -23 -57 -27 -16 -3 -47 -17 -69 -29 -22 -12 -51 -26 -65 -30 -29
-9 -107 -43 -205 -90 -38 -19 -104 -50 -145 -70 -41 -20 -82 -40 -90 -45 -8
-5 -35 -18 -60 -29 -25 -11 -52 -25 -60 -30 -8 -5 -58 -31 -110 -57 -52 -25
-122 -61 -155 -79 -61 -34 -67 -37 -120 -62 -16 -8 -57 -30 -90 -48 -33 -19
-82 -46 -110 -60 -27 -14 -72 -39 -100 -54 -27 -16 -66 -37 -86 -48 -19 -10
-49 -29 -66 -41 -17 -12 -34 -22 -38 -22 -4 0 -51 -27 -105 -60 -54 -33 -102
-60 -108 -60 -5 0 -17 -9 -26 -19 -10 -11 -32 -25 -49 -32 -18 -7 -45 -23 -60
-36 -16 -13 -35 -23 -42 -23 -7 0 -27 -11 -43 -25 -17 -14 -33 -25 -38 -25 -4
0 -33 -17 -63 -37 -31 -20 -72 -46 -91 -58 -19 -12 -48 -30 -64 -41 -16 -10
-44 -28 -61 -39 -18 -11 -46 -29 -61 -39 -16 -11 -72 -48 -124 -82 -52 -35
-120 -81 -150 -103 -60 -44 -212 -150 -239 -166 -9 -5 -31 -22 -49 -37 -18
-16 -36 -28 -40 -28 -5 0 -43 -26 -85 -57 -42 -32 -93 -69 -112 -83 -20 -14
-54 -38 -75 -55 -43 -33 -92 -69 -155 -115 -90 -65 -115 -84 -225 -169 -200
-155 -250 -195 -298 -236 -65 -56 -139 -116 -173 -141 -30 -22 -98 -79 -183
-155 -28 -25 -61 -52 -73 -60 -12 -8 -57 -48 -100 -89 -43 -41 -112 -103 -153
-139 -225 -194 -625 -582 -1007 -977 -182 -187 -472 -516 -809 -914 -199 -236
-229 -272 -328 -405 -25 -33 -55 -71 -66 -85 -24 -30 -74 -94 -115 -150 -16
-23 -41 -55 -55 -73 -14 -18 -34 -43 -43 -57 -35 -51 -67 -96 -96 -135 -16
-22 -68 -96 -115 -165 -47 -69 -100 -145 -118 -170 -17 -25 -54 -78 -82 -118
-28 -41 -68 -97 -88 -125 -21 -29 -43 -63 -50 -77 -7 -13 -35 -59 -63 -101
-27 -42 -58 -90 -67 -105 -10 -16 -31 -49 -48 -74 -32 -50 -74 -121 -105 -180
-11 -21 -28 -47 -37 -57 -10 -11 -18 -23 -18 -27 0 -4 -21 -42 -47 -84 -26
-42 -60 -102 -76 -132 -39 -74 -67 -123 -168 -290 -21 -36 -42 -72 -46 -80
-21 -50 -37 -81 -68 -130 -19 -30 -39 -66 -46 -80 -6 -14 -18 -38 -26 -55 -9
-16 -22 -43 -30 -60 -8 -16 -19 -37 -24 -45 -5 -8 -20 -37 -34 -65 -13 -27
-31 -61 -39 -75 -8 -14 -31 -61 -52 -105 -20 -44 -43 -91 -50 -105 -16 -30
-87 -175 -119 -245 -13 -27 -37 -79 -53 -115 -17 -36 -34 -76 -38 -90 -3 -14
-15 -37 -25 -51 -10 -14 -21 -38 -25 -55 -4 -16 -17 -47 -30 -70 -13 -22 -24
-47 -24 -56 0 -8 -11 -37 -25 -64 -14 -27 -30 -65 -36 -84 -6 -19 -19 -49 -29
-66 -10 -17 -21 -47 -25 -65 -4 -19 -18 -52 -30 -74 -13 -22 -28 -58 -35 -80
-7 -22 -19 -49 -27 -61 -7 -12 -20 -43 -27 -70 -8 -27 -30 -87 -51 -134 -21
-47 -44 -105 -52 -130 -8 -25 -25 -70 -37 -100 -29 -69 -52 -136 -77 -220 -10
-36 -27 -85 -38 -110 -21 -49 -48 -131 -85 -255 -14 -44 -31 -101 -40 -127
-41 -124 -48 -146 -58 -183 -6 -22 -19 -67 -30 -100 -11 -33 -27 -89 -34 -125
-8 -36 -23 -87 -34 -115 -10 -27 -24 -78 -30 -113 -6 -34 -19 -82 -29 -105
-10 -23 -21 -66 -24 -94 -3 -29 -17 -88 -30 -130 -14 -43 -28 -105 -32 -138
-4 -32 -15 -80 -25 -105 -10 -25 -21 -74 -25 -110 -4 -36 -16 -92 -26 -126
-10 -33 -24 -96 -30 -140 -5 -43 -19 -113 -29 -154 -10 -41 -22 -100 -25 -130
-4 -30 -17 -102 -30 -160 -13 -58 -29 -148 -35 -200 -6 -52 -18 -120 -25 -150
-8 -30 -19 -102 -25 -159 -6 -58 -20 -145 -30 -195 -10 -50 -23 -156 -30 -236
-6 -80 -20 -199 -30 -265 -10 -66 -22 -176 -25 -245 -4 -69 -15 -220 -26 -335
-29 -329 -42 -904 -35 -1560 7 -575 11 -672 40 -1000 8 -93 20 -238 25 -321 6
-84 17 -183 26 -222 8 -38 19 -139 25 -223 6 -85 19 -195 30 -245 10 -50 24
-137 30 -195 6 -57 20 -144 30 -194 10 -49 21 -121 25 -160 4 -38 15 -107 26
-151 10 -45 23 -123 30 -174 6 -51 17 -111 25 -134 8 -22 22 -88 30 -146 8
-58 23 -132 34 -165 10 -33 22 -85 25 -115 4 -30 18 -90 31 -133 13 -43 24
-91 24 -107 0 -16 11 -64 24 -107 13 -43 27 -94 31 -113 7 -36 37 -140 85
-295 15 -49 31 -108 34 -131 3 -22 14 -61 25 -85 10 -24 22 -64 26 -89 6 -43
27 -113 75 -260 12 -36 26 -83 32 -105 5 -22 19 -62 30 -90 11 -27 28 -77 37
-110 10 -33 24 -73 33 -90 8 -16 19 -48 22 -70 4 -21 16 -56 27 -77 10 -20 24
-61 30 -90 6 -29 19 -66 29 -83 10 -16 22 -48 25 -70 4 -22 18 -60 30 -85 31
-61 65 -145 80 -200 7 -25 25 -70 39 -100 14 -30 26 -61 26 -68 0 -7 11 -35
25 -62 14 -27 25 -56 25 -63 0 -8 11 -34 23 -58 13 -24 30 -62 37 -84 7 -22
21 -54 31 -71 11 -17 19 -37 19 -44 0 -14 60 -154 94 -220 13 -25 27 -56 31
-70 4 -14 15 -36 25 -50 10 -14 21 -36 24 -50 8 -29 59 -140 95 -207 5 -10 51
-103 101 -208 50 -104 98 -203 107 -220 9 -16 29 -55 46 -85 16 -30 42 -77 57
-105 16 -27 40 -72 54 -100 14 -27 39 -72 54 -100 16 -27 50 -90 76 -140 27
-49 58 -106 70 -125 28 -47 50 -86 80 -145 15 -27 42 -75 61 -105 19 -30 44
-73 55 -94 12 -21 44 -73 70 -115 27 -42 61 -96 76 -121 45 -76 180 -286 214
-335 12 -16 31 -45 43 -64 84 -131 279 -415 347 -506 20 -27 55 -75 76 -106
38 -54 163 -224 210 -284 13 -16 70 -91 126 -165 57 -74 110 -142 118 -151 8
-9 29 -33 45 -54 17 -21 42 -52 56 -69 14 -17 30 -38 35 -47 5 -9 32 -43 61
-75 28 -33 102 -120 164 -194 158 -190 290 -340 390 -445 47 -49 150 -160 230
-245 310 -332 685 -701 1014 -995 49 -44 101 -91 115 -105 14 -14 74 -68 134
-120 95 -82 187 -162 261 -228 11 -9 65 -55 121 -102 91 -76 124 -103 227
-183 16 -12 45 -36 65 -53 20 -17 71 -56 112 -87 102 -76 155 -117 201 -152
21 -16 59 -46 86 -65 26 -19 55 -42 65 -50 9 -8 34 -28 55 -43 21 -16 70 -52
108 -80 39 -29 84 -62 101 -72 69 -44 110 -73 123 -89 7 -9 19 -16 26 -16 6 0
20 -9 31 -21 10 -12 35 -30 54 -40 31 -18 51 -31 125 -85 22 -15 151 -102 218
-146 23 -15 56 -35 72 -44 17 -9 42 -26 57 -38 14 -12 49 -34 78 -51 65 -38
175 -106 260 -161 25 -16 61 -37 80 -46 43 -22 120 -71 192 -120 29 -20 64
-41 78 -47 14 -6 54 -29 90 -51 36 -22 81 -47 100 -56 19 -9 46 -24 60 -34 14
-9 61 -36 105 -60 44 -23 86 -47 93 -52 7 -6 34 -22 60 -35 26 -13 70 -36 97
-52 28 -16 73 -41 100 -55 28 -14 57 -30 65 -35 20 -13 62 -34 290 -147 284
-140 334 -164 346 -164 6 0 22 -9 36 -19 13 -11 44 -24 68 -31 25 -7 57 -21
71 -31 15 -10 31 -19 36 -19 4 0 35 -13 68 -29 134 -64 196 -91 208 -91 7 0
33 -11 59 -25 26 -14 53 -25 61 -25 7 0 36 -11 63 -25 27 -14 65 -30 84 -36
19 -6 51 -20 70 -30 19 -10 60 -27 90 -38 30 -10 91 -33 135 -51 44 -18 100
-39 125 -47 25 -8 68 -25 96 -39 28 -13 62 -24 75 -24 13 0 44 -11 69 -24 25
-13 69 -29 97 -35 29 -6 69 -20 90 -31 21 -11 47 -20 58 -20 11 0 43 -11 72
-24 28 -13 77 -30 109 -36 32 -7 76 -20 99 -30 44 -20 148 -55 210 -72 22 -5
67 -19 100 -30 33 -10 92 -27 131 -37 39 -10 84 -25 100 -33 16 -9 47 -18 69
-22 37 -7 145 -37 305 -87 36 -11 92 -24 124 -29 33 -5 87 -19 120 -30 34 -11
102 -29 151 -40 50 -12 108 -25 130 -30 22 -6 72 -16 110 -24 125 -25 228 -47
315 -68 47 -11 128 -26 180 -34 52 -8 113 -20 135 -28 22 -8 93 -22 158 -31
65 -9 130 -21 145 -26 15 -6 89 -17 165 -25 76 -7 181 -22 235 -33 53 -10 138
-22 187 -25 50 -4 169 -17 265 -30 96 -14 249 -29 340 -35 91 -7 214 -18 275
-26 60 -8 220 -19 355 -25 217 -9 344 -17 580 -36 114 -9 899 -5 1040 6 74 5
295 17 490 25 328 13 408 19 607 45 39 5 147 15 240 20 92 6 193 18 223 25 30
8 118 19 195 25 77 6 183 20 235 30 52 11 145 24 205 30 61 6 139 19 175 30
36 10 97 21 135 25 39 3 111 17 160 30 50 13 128 28 175 34 47 5 101 16 120
25 20 8 72 19 118 26 45 6 106 19 136 30 30 10 81 22 113 25 32 4 92 18 133
31 41 12 98 26 125 30 28 4 77 17 110 29 33 12 84 25 113 29 29 4 84 18 121
31 38 14 78 25 90 25 12 0 43 9 69 20 26 10 78 26 115 35 37 8 80 21 95 29 15
7 54 19 86 26 33 7 78 20 100 30 23 10 57 20 76 24 19 4 64 17 100 30 117 42
194 67 260 85 36 10 79 25 95 33 17 8 52 20 78 27 27 6 65 20 85 31 20 11 46
20 58 20 11 0 42 11 69 25 27 13 71 29 99 35 27 6 63 19 80 29 17 10 54 24 81
30 28 7 59 18 70 25 11 7 47 21 80 31 33 9 65 21 71 26 6 5 36 18 67 28 30 11
66 26 79 34 12 8 39 18 58 22 19 4 53 18 76 31 22 13 47 24 55 24 8 0 41 13
74 30 33 16 64 30 70 30 5 0 32 11 60 24 96 46 180 84 204 91 12 4 39 18 58
31 20 13 43 24 52 24 9 0 32 11 52 24 19 13 54 29 76 35 22 6 46 18 53 26 7 8
31 20 54 26 22 6 48 16 56 23 8 7 49 29 90 49 98 46 257 124 295 144 17 9 44
23 60 31 113 57 307 163 494 269 31 17 76 42 101 55 105 57 145 80 168 99 14
10 28 19 32 19 4 0 44 24 88 53 44 28 103 66 132 82 28 17 67 42 87 58 20 15
41 27 48 27 7 0 29 14 50 30 21 17 42 30 47 30 6 0 23 11 40 25 16 14 35 25
42 25 7 0 29 12 49 28 19 15 48 35 64 44 15 10 47 30 69 45 84 56 100 67 134
88 19 12 48 30 64 41 16 10 46 30 66 44 38 25 128 86 285 195 44 31 96 66 115
79 19 13 64 46 100 74 36 28 82 64 103 79 20 15 66 51 101 78 76 60 116 90
266 202 63 47 130 98 147 112 18 14 65 52 105 84 66 52 323 262 373 305 11 9
63 55 114 102 52 47 126 112 165 146 440 377 1211 1158 1651 1674 408 477 702
839 810 996 11 16 40 56 65 89 25 33 52 70 60 82 20 28 127 175 163 221 27 35
114 161 167 242 14 20 34 50 44 66 11 16 46 68 78 116 32 48 58 92 58 97 0 5
7 14 15 21 7 6 28 35 45 63 32 55 38 65 85 137 17 26 41 65 55 89 14 23 39 63
55 90 17 27 41 67 55 90 14 23 34 57 45 74 11 18 40 66 64 107 42 72 66 111
107 175 21 34 47 83 118 223 27 53 55 104 62 112 18 23 103 185 212 405 55
110 104 211 111 225 6 14 15 32 20 40 18 31 80 166 87 190 3 14 14 36 24 50
10 14 21 36 24 50 4 14 21 54 38 90 16 36 40 88 53 115 13 28 37 79 54 115 17
36 31 72 31 80 0 8 11 33 25 55 13 22 25 47 25 55 0 8 14 42 30 75 16 33 30
66 30 73 0 7 14 39 30 72 17 33 30 65 30 72 0 7 11 33 24 58 13 25 27 60 31
79 4 19 18 54 31 79 13 25 24 51 24 59 0 7 11 35 24 61 13 26 31 74 41 107 9
33 21 65 25 70 5 6 16 39 25 75 9 35 22 74 28 85 6 11 18 47 28 80 9 33 26 83
37 110 30 76 52 143 72 217 10 37 27 91 38 120 34 92 70 211 82 269 6 31 19
78 29 105 10 27 22 71 25 97 4 27 15 68 25 90 10 23 24 74 31 112 7 39 19 82
26 96 7 15 22 65 32 110 11 46 27 113 35 149 50 199 59 242 72 315 7 45 22
112 34 150 11 39 25 107 31 153 6 45 17 101 25 123 8 23 20 82 26 132 6 51 19
119 29 153 10 33 23 105 30 160 6 54 17 122 25 149 8 28 21 104 29 170 9 66
22 156 30 200 8 44 22 157 30 250 9 94 22 206 30 250 9 44 20 162 26 262 10
179 21 302 39 458 19 159 34 973 27 1470 -7 551 -18 822 -40 1005 -8 69 -20
211 -26 315 -6 105 -19 244 -30 310 -10 66 -23 174 -29 240 -6 66 -20 170 -30
230 -11 61 -24 153 -30 205 -11 100 -27 196 -36 209 -2 5 -9 51 -15 102 -6 52
-17 118 -26 148 -8 29 -22 102 -29 160 -8 59 -21 127 -30 151 -9 25 -20 79
-26 120 -6 41 -21 116 -35 165 -13 50 -24 102 -24 116 0 14 -11 57 -24 95 -13
38 -27 92 -31 119 -4 28 -16 71 -25 96 -10 25 -24 74 -30 110 -6 35 -20 87
-31 114 -10 28 -25 82 -33 120 -14 67 -42 170 -73 265 -8 25 -19 63 -25 85
-18 69 -68 238 -84 285 -9 25 -23 72 -31 105 -8 33 -23 80 -34 105 -10 25 -24
67 -29 94 -6 27 -22 72 -35 101 -14 28 -25 60 -25 69 0 10 -13 48 -30 86 -16
38 -30 77 -30 87 0 10 -11 38 -24 63 -13 25 -26 62 -30 83 -4 21 -18 59 -32
84 -13 25 -24 55 -24 67 0 12 -11 41 -24 66 -13 25 -27 61 -31 80 -4 19 -18
55 -31 80 -13 25 -24 52 -24 60 0 9 -13 42 -30 75 -16 33 -30 66 -30 73 0 12
-21 61 -85 197 -13 28 -37 84 -55 125 -17 41 -42 96 -55 123 -14 26 -25 53
-25 61 0 7 -13 37 -29 67 -15 30 -32 65 -36 79 -4 14 -15 36 -25 50 -9 14 -23
43 -30 65 -7 22 -21 51 -30 65 -10 14 -21 36 -25 50 -4 14 -21 49 -36 79 -16
30 -29 59 -29 66 0 7 -7 18 -14 25 -8 6 -23 33 -32 58 -10 26 -25 56 -34 67
-10 11 -23 37 -29 57 -7 20 -18 42 -26 48 -8 6 -21 34 -30 61 -9 27 -21 51
-26 55 -6 3 -21 29 -35 57 -13 29 -37 75 -54 102 -26 44 -40 72 -64 125 -4 8
-22 40 -41 70 -19 30 -44 75 -56 100 -12 25 -29 53 -37 63 -22 25 -57 83 -81
133 -11 23 -24 45 -30 48 -6 4 -20 26 -31 49 -20 41 -42 78 -87 148 -13 19
-23 39 -23 45 0 6 -9 19 -19 28 -11 10 -25 32 -32 49 -7 18 -20 41 -29 52 -23
29 -90 141 -90 152 0 6 -9 21 -21 34 -34 41 -68 92 -88 135 -11 23 -24 45 -30
49 -6 3 -20 23 -32 43 -11 20 -31 53 -44 72 -58 83 -68 98 -105 155 -42 63
-102 150 -135 196 -71 99 -203 277 -250 339 -16 22 -43 58 -60 80 -16 22 -54
70 -83 106 -29 37 -60 80 -68 95 -8 16 -18 29 -23 29 -4 0 -13 10 -18 23 -6
12 -23 36 -37 52 -58 68 -136 168 -136 174 0 3 -19 26 -41 51 -23 25 -75 86
-116 135 -41 50 -94 112 -117 140 -63 75 -198 229 -212 240 -6 6 -48 53 -93
105 -46 52 -115 132 -154 178 -40 46 -156 167 -259 269 -104 103 -188 194
-188 202 0 9 22 39 48 67 26 29 115 134 197 234 83 100 251 302 375 448 248
295 406 485 490 587 30 37 70 84 90 105 19 21 64 76 100 122 107 138 259 316
275 322 8 3 23 2 33 -1 13 -6 164 -129 307 -251 11 -10 31 -25 45 -35 14 -9
45 -33 70 -52 153 -119 294 -200 398 -230 26 -7 74 -21 107 -32 50 -15 93 -18
250 -18 169 1 196 3 240 22 28 11 68 23 89 27 39 7 166 65 237 109 62 38 159
118 236 197 40 41 73 78 73 81 0 3 16 26 35 50 19 24 35 49 35 55 0 6 6 17 14
23 18 15 85 153 120 246 14 39 31 108 37 155 15 108 15 324 0 415 -18 105 -75
242 -168 405 -49 85 -307 324 -593 550 -45 36 -95 76 -110 90 -16 14 -47 39
-70 55 -66 49 -122 93 -179 143 -30 26 -63 53 -75 61 -12 8 -42 33 -67 55 -26
23 -112 95 -193 161 -81 66 -193 158 -249 205 -57 47 -124 101 -151 120 -41
31 -99 76 -211 165 -16 14 -61 49 -100 80 -89 70 -133 107 -209 173 -161 138
-365 307 -401 330 -22 15 -65 47 -96 72 -31 25 -80 63 -109 85 -29 22 -82 64
-119 93 -36 29 -77 62 -91 73 -14 10 -40 31 -59 47 -79 63 -218 138 -324 173
-127 43 -297 57 -487 41 -104 -8 -153 -17 -197 -35 -32 -13 -70 -27 -85 -31
-15 -3 -44 -17 -64 -31 -20 -14 -40 -25 -44 -25 -12 0 -115 -64 -151 -94 -172
-141 -285 -275 -350 -416 -11 -25 -29 -63 -39 -85 -10 -22 -31 -83 -47 -135
-27 -91 -28 -103 -28 -310 0 -187 2 -219 18 -250 10 -19 22 -55 28 -80 10 -44
68 -169 112 -240 40 -64 106 -148 157 -199 44 -44 192 -170 420 -356 41 -33
82 -63 92 -67 36 -15 21 -55 -59 -152 -43 -51 -113 -136 -155 -187 -42 -52
-93 -112 -113 -133 -20 -22 -43 -49 -53 -61 -23 -31 -330 -394 -359 -425 -24
-27 -97 -117 -203 -250 -67 -84 -165 -205 -203 -251 -12 -14 -35 -43 -52 -64
-66 -82 -269 -320 -279 -327 -19 -13 -33 -9 -75 25 -22 17 -59 46 -81 62 -22
17 -58 44 -80 60 -21 17 -55 41 -75 55 -41 28 -105 76 -151 114 -18 15 -36 26
-41 26 -6 0 -18 9 -29 21 -10 12 -36 30 -56 40 -21 11 -38 24 -38 29 0 5 -17
19 -37 30 -21 11 -56 34 -78 51 -22 16 -51 37 -65 46 -14 9 -36 27 -50 39 -14
12 -36 28 -51 35 -55 30 -93 55 -124 82 -18 15 -37 27 -42 27 -9 0 -102 57
-138 85 -42 32 -125 85 -134 85 -5 0 -22 10 -38 23 -15 13 -62 43 -103 67 -41
24 -84 51 -95 61 -11 9 -31 20 -45 24 -14 4 -34 15 -45 25 -11 9 -34 22 -52
29 -18 7 -38 20 -44 28 -7 8 -26 21 -43 29 -17 8 -56 30 -86 49 -30 19 -78 46
-105 59 -28 13 -57 31 -64 40 -7 9 -19 16 -25 16 -6 0 -35 15 -63 33 -86 54
-116 71 -153 84 -19 8 -43 22 -55 32 -11 10 -31 22 -45 26 -14 4 -39 18 -56
31 -17 13 -38 24 -46 24 -8 0 -32 11 -52 25 -21 14 -52 32 -69 40 -18 7 -43
20 -57 28 -14 8 -63 33 -110 56 -47 23 -96 48 -110 55 -48 27 -177 86 -187 86
-6 0 -21 8 -34 19 -13 10 -35 22 -49 26 -14 4 -75 31 -135 60 -61 29 -125 56
-142 59 -18 4 -43 16 -55 26 -13 10 -44 23 -68 30 -25 7 -56 20 -71 30 -14 10
-38 22 -55 26 -16 4 -47 17 -69 29 -22 13 -53 26 -69 29 -17 4 -42 16 -57 27
-15 10 -42 22 -61 25 -18 4 -56 19 -84 35 -28 16 -58 29 -66 29 -8 0 -35 11
-60 24 -25 13 -60 27 -79 31 -19 4 -50 17 -69 30 -19 12 -53 26 -75 30 -22 3
-50 13 -63 21 -13 9 -53 26 -90 39 -37 12 -105 37 -152 55 -47 17 -114 40
-149 50 -35 11 -69 24 -77 31 -7 6 -44 19 -81 29 -37 10 -88 26 -113 34 -52
18 -108 36 -235 76 -49 16 -108 35 -130 44 -22 8 -50 15 -63 16 -12 0 -48 11
-80 24 -31 13 -77 27 -102 31 -25 4 -58 14 -73 22 -16 8 -67 23 -115 33 -48
11 -101 26 -118 34 -16 9 -61 20 -100 26 -38 5 -93 19 -122 30 -29 11 -64 20
-78 20 -14 0 -58 11 -98 24 -40 14 -104 30 -142 37 -38 6 -89 19 -114 29 -25
10 -70 21 -100 25 -30 4 -86 17 -125 30 -38 12 -103 25 -143 29 -40 4 -97 16
-126 26 -30 10 -95 23 -144 29 -50 6 -119 20 -154 30 -35 10 -111 24 -170 30
-59 7 -129 18 -155 26 -26 7 -109 21 -183 29 -74 9 -168 23 -208 31 -41 9
-126 20 -190 25 -65 5 -173 18 -242 29 -69 11 -197 25 -285 31 -88 6 -209 17
-270 25 -60 7 -146 17 -190 20 -44 4 -85 11 -91 16 -15 12 -9 2866 7 2885 9
11 248 13 1335 13 937 0 1350 4 1411 12 47 6 109 22 137 35 28 13 63 24 78 24
27 0 167 67 197 94 10 9 21 16 25 16 19 0 218 172 258 222 42 54 118 174 145
230 36 74 65 150 83 218 10 36 25 92 34 125 12 43 16 103 16 225 -1 91 -5 183
-10 205 -22 105 -60 234 -79 270 -12 21 -21 49 -21 61 0 12 -8 32 -19 45 -10
13 -28 42 -40 64 -22 40 -28 50 -107 155 -63 84 -191 200 -284 257 -77 47
-189 101 -226 107 -21 5 -57 16 -79 26 -22 10 -83 23 -135 29 -134 16 -7639
21 -7826 5z m4491 -7174 c154 -6 343 -17 420 -25 77 -8 237 -19 355 -25 118
-6 247 -18 287 -26 39 -8 150 -21 245 -29 95 -8 205 -21 243 -29 39 -9 120
-20 180 -26 61 -6 147 -20 192 -30 45 -11 121 -24 170 -30 48 -6 120 -19 158
-29 39 -11 99 -22 134 -26 35 -3 105 -17 155 -30 50 -13 118 -26 151 -30 33
-4 95 -18 138 -31 43 -13 91 -24 108 -24 16 0 55 -9 87 -21 31 -11 97 -27 145
-35 49 -8 104 -21 123 -29 19 -8 63 -19 97 -25 34 -6 85 -19 112 -30 28 -11
79 -24 115 -30 35 -7 74 -17 85 -23 19 -10 148 -48 290 -83 33 -9 89 -26 125
-38 147 -52 168 -59 237 -77 40 -11 87 -28 105 -38 18 -10 51 -22 73 -25 22
-4 65 -17 95 -30 30 -13 109 -41 175 -61 66 -21 134 -46 150 -55 17 -10 46
-21 65 -25 19 -4 56 -18 82 -31 26 -13 53 -24 60 -24 7 0 40 -14 73 -30 33
-16 66 -30 74 -30 8 0 39 -12 70 -26 31 -14 83 -39 116 -54 33 -15 85 -39 115
-53 30 -14 72 -30 92 -35 21 -6 50 -20 64 -31 15 -12 34 -21 42 -21 15 0 136
-54 217 -98 11 -5 56 -27 100 -47 44 -20 88 -41 98 -46 42 -22 56 -29 132 -64
102 -48 327 -160 402 -202 32 -18 76 -41 98 -53 22 -11 67 -36 100 -55 33 -19
84 -46 113 -61 29 -15 55 -30 58 -35 2 -5 24 -17 47 -28 23 -11 71 -39 106
-61 34 -22 66 -40 71 -40 4 0 24 -13 45 -30 20 -16 46 -32 58 -36 12 -4 35
-17 50 -30 16 -13 34 -24 40 -24 7 0 30 -14 51 -30 22 -17 44 -30 49 -30 5 0
22 -11 39 -25 16 -14 35 -25 42 -25 7 0 29 -12 49 -27 19 -16 50 -37 68 -48
66 -41 110 -69 175 -112 14 -10 41 -27 59 -38 17 -11 58 -38 90 -60 69 -47
110 -75 196 -132 75 -49 213 -150 284 -208 69 -55 98 -76 192 -140 44 -30 83
-58 85 -62 1 -5 65 -55 141 -113 76 -58 159 -122 185 -143 26 -20 59 -46 74
-55 26 -17 108 -87 153 -130 11 -11 88 -77 170 -147 169 -143 235 -203 514
-461 194 -178 553 -537 647 -644 26 -30 107 -118 180 -195 192 -203 204 -216
233 -255 14 -19 85 -105 157 -190 72 -85 147 -176 166 -201 19 -26 67 -84 105
-130 74 -89 140 -173 290 -372 50 -67 102 -135 115 -152 13 -16 39 -55 58 -85
19 -30 45 -69 59 -86 15 -18 40 -55 56 -84 17 -28 39 -64 51 -78 28 -35 115
-161 164 -237 21 -33 49 -73 62 -90 14 -16 46 -66 72 -110 26 -44 74 -123 107
-175 33 -52 72 -117 87 -144 97 -172 183 -315 193 -321 4 -3 19 -29 34 -58 14
-28 37 -72 52 -97 14 -25 51 -92 81 -150 81 -153 96 -181 120 -220 12 -19 24
-46 27 -61 4 -15 12 -33 20 -39 8 -6 21 -33 30 -60 9 -27 22 -54 30 -60 8 -6
19 -27 25 -46 6 -18 33 -73 59 -122 26 -48 53 -104 60 -124 7 -20 18 -42 26
-48 8 -7 17 -27 21 -45 3 -19 17 -48 30 -66 13 -18 24 -37 24 -42 0 -10 57
-144 90 -212 11 -22 26 -58 34 -80 8 -22 31 -78 51 -125 21 -47 46 -107 57
-135 11 -27 28 -63 38 -80 10 -16 21 -44 24 -61 4 -16 18 -52 31 -79 14 -26
25 -55 25 -64 0 -8 9 -33 20 -55 20 -43 59 -151 89 -251 10 -33 26 -76 34 -95
14 -32 29 -76 71 -205 18 -55 38 -113 54 -160 30 -83 55 -167 68 -225 8 -36
23 -83 34 -105 10 -22 23 -71 30 -109 6 -38 18 -82 26 -98 9 -16 19 -54 24
-84 5 -31 21 -84 35 -119 14 -35 25 -83 25 -107 0 -24 10 -63 21 -88 11 -25
27 -82 35 -127 8 -45 21 -97 29 -117 8 -19 20 -68 25 -107 6 -40 19 -102 30
-138 11 -36 24 -103 30 -149 6 -45 18 -101 26 -124 8 -23 21 -90 29 -148 8
-58 24 -141 34 -185 11 -44 23 -120 26 -170 4 -49 16 -130 26 -180 11 -49 26
-155 35 -234 8 -79 16 -147 19 -150 7 -12 24 -158 35 -297 6 -76 17 -179 25
-229 8 -49 19 -187 25 -305 5 -118 14 -289 20 -380 5 -91 12 -214 16 -275 11
-198 5 -745 -10 -980 -9 -126 -20 -336 -26 -465 -6 -129 -17 -281 -25 -337 -8
-56 -19 -170 -25 -254 -6 -84 -20 -198 -30 -253 -11 -56 -24 -153 -30 -216 -6
-63 -17 -146 -25 -185 -9 -38 -24 -138 -35 -220 -10 -83 -24 -163 -29 -179 -6
-15 -16 -71 -22 -124 -6 -53 -19 -128 -29 -167 -11 -38 -24 -108 -30 -155 -6
-46 -18 -100 -26 -120 -8 -19 -21 -77 -29 -128 -8 -51 -23 -125 -34 -165 -11
-39 -23 -94 -27 -122 -4 -27 -14 -70 -24 -95 -10 -25 -25 -83 -34 -129 -10
-47 -23 -96 -31 -111 -7 -14 -16 -44 -20 -65 -4 -22 -17 -73 -31 -113 -13 -40
-24 -82 -24 -93 0 -11 -13 -60 -29 -107 -16 -48 -32 -105 -36 -127 -4 -22 -15
-53 -25 -70 -10 -16 -21 -52 -25 -80 -4 -27 -16 -67 -26 -87 -11 -21 -26 -69
-34 -108 -8 -39 -24 -88 -35 -110 -11 -21 -20 -47 -20 -55 0 -9 -13 -47 -30
-85 -16 -38 -30 -77 -30 -88 0 -10 -11 -39 -24 -64 -13 -25 -27 -60 -31 -79
-4 -19 -18 -54 -30 -79 -12 -25 -26 -61 -30 -80 -4 -19 -14 -46 -22 -58 -8
-13 -23 -49 -34 -80 -11 -31 -26 -66 -33 -78 -8 -11 -18 -38 -21 -58 -4 -20
-15 -46 -25 -59 -10 -12 -23 -41 -29 -62 -6 -22 -22 -62 -36 -89 -14 -27 -25
-57 -25 -65 0 -9 -11 -33 -25 -53 -14 -20 -25 -43 -25 -51 0 -7 -16 -44 -35
-83 -19 -38 -35 -73 -35 -77 0 -5 -22 -54 -49 -110 -26 -56 -52 -113 -56 -127
-4 -14 -18 -41 -30 -60 -12 -19 -25 -48 -29 -64 -4 -17 -15 -41 -25 -55 -10
-14 -23 -41 -30 -60 -6 -19 -18 -42 -26 -51 -8 -9 -21 -35 -30 -59 -8 -23 -24
-54 -35 -68 -11 -14 -20 -33 -20 -42 0 -9 -10 -32 -22 -51 -12 -19 -43 -75
-69 -125 -25 -49 -62 -117 -82 -150 -20 -33 -45 -78 -56 -101 -10 -23 -40 -75
-65 -117 -25 -42 -46 -79 -46 -83 0 -4 -25 -44 -55 -89 -30 -45 -55 -86 -55
-92 0 -6 -11 -24 -24 -40 -13 -15 -31 -44 -40 -63 -19 -40 -39 -74 -111 -185
-28 -44 -66 -102 -83 -130 -17 -27 -40 -63 -52 -80 -55 -81 -134 -204 -151
-235 -11 -19 -35 -55 -54 -80 -19 -25 -44 -61 -55 -80 -11 -19 -36 -55 -55
-80 -19 -25 -42 -58 -51 -75 -9 -16 -28 -43 -41 -60 -79 -98 -144 -181 -185
-237 -101 -135 -239 -316 -288 -378 -28 -36 -74 -94 -101 -130 -99 -128 -284
-346 -387 -455 -37 -38 -96 -103 -131 -145 -224 -258 -595 -641 -796 -821 -38
-34 -124 -114 -190 -178 -67 -64 -161 -152 -210 -196 -49 -44 -114 -103 -145
-130 -99 -91 -268 -235 -275 -235 -4 0 -38 -26 -76 -57 -132 -111 -350 -285
-450 -361 -91 -69 -185 -138 -213 -157 -16 -11 -41 -29 -56 -40 -15 -11 -53
-38 -85 -60 -32 -22 -72 -50 -89 -63 -99 -71 -113 -81 -204 -144 -18 -13 -48
-34 -67 -48 -53 -39 -94 -67 -165 -112 -158 -100 -247 -159 -271 -178 -15 -11
-35 -23 -45 -27 -11 -3 -32 -17 -47 -30 -16 -13 -34 -23 -41 -23 -7 0 -21 -9
-30 -19 -10 -11 -32 -25 -49 -32 -18 -7 -46 -23 -63 -36 -17 -13 -35 -23 -41
-23 -5 0 -25 -12 -44 -26 -19 -14 -47 -32 -64 -40 -16 -8 -55 -30 -85 -49 -30
-19 -74 -44 -97 -55 -23 -11 -45 -25 -48 -30 -3 -5 -25 -19 -48 -30 -23 -12
-69 -36 -102 -55 -33 -18 -105 -56 -160 -85 -55 -28 -111 -58 -125 -65 -14 -8
-43 -23 -65 -34 -96 -48 -242 -124 -265 -137 -14 -7 -41 -21 -60 -29 -19 -8
-46 -22 -60 -30 -14 -8 -38 -20 -55 -28 -16 -7 -39 -18 -50 -24 -11 -7 -56
-28 -100 -48 -44 -21 -109 -51 -145 -67 -36 -17 -74 -35 -85 -41 -61 -32 -72
-37 -91 -37 -12 0 -33 -9 -47 -20 -14 -12 -47 -27 -72 -35 -26 -7 -54 -20 -63
-28 -10 -8 -37 -20 -62 -27 -25 -7 -52 -19 -62 -27 -9 -8 -40 -21 -70 -29 -29
-7 -75 -25 -102 -39 -27 -14 -56 -25 -63 -25 -8 0 -36 -11 -63 -25 -27 -14
-57 -25 -67 -25 -10 0 -45 -14 -78 -30 -33 -16 -69 -30 -81 -30 -12 0 -42 -11
-67 -24 -25 -14 -63 -28 -84 -32 -21 -4 -60 -18 -88 -30 -27 -13 -59 -24 -71
-24 -12 0 -41 -11 -66 -24 -25 -13 -65 -27 -89 -31 -24 -4 -64 -17 -89 -30
-25 -12 -65 -26 -90 -30 -25 -4 -61 -15 -81 -25 -19 -10 -62 -23 -94 -30 -33
-7 -68 -18 -80 -26 -11 -7 -58 -22 -105 -33 -81 -19 -118 -30 -290 -86 -42
-14 -90 -25 -108 -25 -18 0 -58 -11 -90 -24 -31 -13 -89 -29 -127 -35 -39 -6
-96 -19 -126 -30 -31 -10 -88 -24 -126 -30 -38 -6 -85 -17 -104 -25 -19 -8
-72 -20 -119 -26 -47 -7 -110 -21 -140 -31 -30 -10 -96 -23 -146 -28 -51 -6
-111 -18 -135 -26 -24 -9 -86 -20 -139 -26 -52 -6 -129 -19 -170 -31 -41 -11
-122 -24 -180 -29 -58 -5 -146 -18 -195 -29 -50 -10 -149 -24 -221 -30 -71 -5
-163 -17 -204 -25 -41 -8 -167 -21 -280 -30 -113 -9 -262 -22 -332 -30 -198
-23 -641 -37 -1143 -38 -528 0 -953 15 -1205 42 -96 11 -229 23 -295 26 -115
6 -168 12 -300 34 -33 6 -121 15 -197 21 -75 5 -180 19 -233 30 -53 12 -142
25 -197 30 -56 5 -133 19 -172 29 -39 11 -105 22 -146 26 -41 3 -119 17 -172
31 -53 13 -108 24 -121 24 -13 0 -69 11 -123 25 -55 14 -133 30 -174 36 -41 6
-90 17 -108 25 -19 7 -75 20 -126 29 -50 8 -111 21 -135 30 -23 8 -82 21 -130
29 -49 8 -102 21 -120 31 -18 9 -55 19 -84 22 -29 3 -68 14 -87 23 -20 10 -65
24 -100 31 -36 6 -81 20 -100 29 -19 9 -69 25 -110 35 -41 9 -97 26 -123 36
-26 11 -57 19 -69 19 -12 0 -44 11 -72 24 -28 13 -71 27 -96 31 -25 4 -63 17
-85 28 -22 11 -62 26 -90 33 -27 7 -95 29 -150 49 -55 20 -131 47 -170 60 -38
13 -106 37 -150 53 -44 17 -102 38 -130 48 -27 9 -80 30 -116 46 -36 15 -72
28 -79 28 -7 0 -32 11 -54 24 -23 13 -58 27 -78 31 -21 4 -42 13 -49 21 -6 8
-34 21 -61 29 -27 8 -62 23 -77 35 -16 11 -36 20 -44 20 -8 0 -41 13 -73 29
-32 15 -88 42 -124 60 -36 17 -74 31 -86 31 -11 0 -35 11 -54 25 -19 14 -39
25 -45 25 -6 0 -42 16 -81 35 -38 19 -73 35 -77 35 -5 0 -22 9 -38 21 -16 11
-45 25 -65 30 -19 6 -51 21 -71 35 -20 13 -42 24 -50 24 -8 0 -27 8 -41 19
-15 10 -47 28 -72 39 -25 12 -52 26 -60 32 -8 5 -31 16 -50 25 -19 8 -46 22
-60 30 -14 8 -68 35 -120 60 -52 26 -117 59 -145 74 -101 56 -110 61 -121 61
-6 0 -18 7 -25 16 -8 9 -32 25 -54 36 -43 21 -110 59 -166 95 -18 13 -38 23
-43 23 -4 0 -21 11 -38 25 -16 14 -35 25 -41 25 -7 0 -28 14 -47 30 -19 16
-40 30 -47 30 -6 0 -25 11 -41 25 -17 14 -34 25 -40 25 -5 0 -26 14 -47 30
-21 17 -43 30 -48 30 -11 0 -44 21 -134 82 -23 15 -46 28 -52 28 -6 0 -26 14
-44 30 -19 17 -39 30 -44 30 -6 0 -26 12 -46 28 -35 27 -79 55 -126 81 -15 7
-35 21 -46 31 -11 10 -33 25 -50 34 -16 9 -50 32 -75 51 -50 39 -103 77 -160
115 -21 14 -55 37 -76 51 -22 15 -45 34 -53 43 -7 9 -19 16 -26 16 -7 0 -30
13 -51 30 -22 16 -56 42 -77 57 -20 15 -55 42 -77 58 -21 17 -55 41 -75 55
-36 25 -93 69 -150 116 -16 14 -64 52 -105 85 -41 33 -89 72 -107 87 -18 15
-48 41 -68 57 -20 17 -49 41 -65 55 -15 14 -60 50 -100 80 -95 73 -267 218
-414 349 -159 141 -349 325 -706 681 -287 286 -356 359 -530 560 -84 97 -151
172 -280 315 -40 44 -89 103 -110 130 -42 56 -91 116 -155 190 -24 28 -59 70
-77 94 -54 72 -80 106 -143 188 -33 42 -67 87 -75 99 -8 12 -35 48 -60 80 -49
64 -62 81 -103 143 -15 23 -34 49 -43 59 -22 25 -75 95 -104 137 -14 20 -37
51 -51 68 -14 18 -34 46 -43 62 -9 17 -32 50 -51 75 -19 25 -42 59 -51 75 -9
17 -24 39 -34 50 -10 11 -24 32 -31 47 -13 24 -91 144 -139 213 -11 17 -35 53
-52 80 -17 28 -43 68 -58 90 -14 22 -32 55 -39 73 -8 17 -17 32 -22 32 -9 0
-28 34 -73 127 -14 28 -30 54 -36 58 -7 4 -20 26 -31 49 -11 22 -35 66 -54 96
-19 30 -44 73 -55 95 -11 22 -36 67 -55 100 -19 33 -46 83 -60 110 -15 28 -39
73 -54 100 -105 187 -351 677 -351 699 0 4 -8 20 -19 34 -10 15 -24 45 -31 67
-7 22 -21 50 -31 63 -10 13 -21 37 -25 55 -3 18 -14 43 -24 57 -9 14 -23 43
-30 65 -7 22 -23 58 -36 81 -13 22 -24 49 -24 59 0 10 -11 37 -24 59 -13 23
-27 57 -31 76 -4 19 -15 49 -25 65 -10 17 -23 50 -30 75 -6 25 -20 59 -30 76
-10 17 -21 47 -25 65 -4 19 -18 52 -30 74 -13 22 -27 58 -30 80 -4 22 -14 50
-22 63 -13 21 -32 72 -78 207 -9 28 -27 75 -40 105 -13 30 -26 71 -30 90 -4
19 -15 49 -25 67 -11 18 -23 57 -29 87 -6 30 -19 72 -30 93 -10 21 -24 64 -30
95 -5 32 -19 74 -29 95 -11 21 -23 58 -27 83 -4 25 -16 65 -26 89 -11 25 -26
75 -34 112 -7 37 -20 80 -29 97 -8 16 -19 56 -25 89 -5 33 -16 77 -25 97 -9
21 -22 74 -30 119 -8 45 -21 98 -30 118 -8 20 -22 78 -30 130 -8 52 -22 112
-29 134 -8 22 -19 77 -26 121 -6 45 -20 107 -31 137 -11 30 -22 85 -26 123 -3
38 -14 101 -25 139 -10 39 -25 122 -33 185 -9 63 -22 139 -30 168 -9 30 -18
88 -22 130 -3 43 -16 129 -29 192 -13 63 -26 156 -30 205 -3 50 -17 160 -30
245 -13 85 -31 241 -40 345 -9 105 -20 226 -25 270 -11 92 -28 553 -37 985 -9
436 19 1309 48 1496 5 34 16 151 24 260 8 110 24 246 35 304 11 58 20 121 20
140 0 31 10 106 40 290 5 30 14 102 20 160 6 58 20 141 30 185 10 44 21 112
25 150 4 39 18 111 30 160 13 50 26 113 29 140 4 28 15 82 26 120 10 39 23
106 30 150 6 44 20 107 30 140 11 33 25 94 31 135 6 41 18 88 26 104 8 16 21
66 28 112 8 45 20 95 28 111 8 15 22 64 32 108 9 44 23 92 31 106 7 15 16 46
20 70 4 24 17 69 29 99 13 30 26 75 30 100 4 25 15 61 25 80 10 19 23 59 29
89 6 30 18 68 26 85 8 17 24 60 34 96 32 106 62 192 87 251 13 31 24 63 24 70
0 8 11 37 23 64 13 28 29 71 35 97 7 26 21 62 31 80 10 18 22 49 26 68 4 19
18 56 31 82 13 26 24 53 24 60 0 7 14 40 30 73 16 33 30 67 30 75 0 8 8 29 19
45 10 17 23 48 30 70 7 22 23 61 37 86 13 26 24 53 24 60 0 8 14 41 30 74 16
33 30 67 30 75 0 8 9 29 20 45 11 17 25 48 31 69 6 22 22 56 35 75 13 20 24
40 24 46 0 23 336 693 449 895 17 30 43 79 57 108 14 28 30 52 34 52 4 0 13
15 20 33 7 17 24 46 37 64 12 17 23 35 23 40 0 4 16 30 35 57 19 27 35 54 35
59 0 6 7 18 15 27 9 10 26 36 38 58 36 67 76 134 107 182 16 25 39 63 51 85
12 22 32 53 45 68 13 16 24 34 24 42 0 7 7 18 16 26 9 7 25 32 36 56 11 24 24
43 29 43 5 0 16 14 24 31 9 17 41 65 70 107 83 118 93 132 137 202 23 36 45
69 50 75 4 5 27 39 50 75 23 36 61 88 83 115 23 28 67 86 98 130 31 44 82 112
112 150 31 39 67 86 80 105 14 19 38 51 53 71 15 20 47 62 70 93 24 32 69 88
101 124 31 37 72 87 91 112 19 25 80 99 135 165 56 66 108 129 116 141 8 12
59 69 114 128 54 59 102 111 105 116 6 9 169 183 409 435 68 71 152 156 185
189 34 32 113 108 176 170 63 61 153 145 200 186 46 41 125 114 175 161 88 85
494 431 608 519 32 25 88 69 125 98 37 29 101 78 142 109 41 31 80 61 85 67 6
6 35 29 65 51 30 21 69 50 87 64 29 24 134 100 213 156 19 13 52 37 74 52 21
15 55 39 76 53 21 14 57 39 80 55 58 40 119 81 154 103 16 9 41 27 56 40 15
12 32 22 37 22 5 0 19 9 31 20 11 11 34 28 50 37 15 10 44 28 63 40 19 12 56
34 82 50 27 15 64 40 84 56 20 15 40 27 45 27 5 0 24 11 42 25 18 14 38 25 44
25 6 0 23 11 39 24 15 13 44 31 63 40 19 9 60 32 90 51 30 19 75 46 100 60 25
14 77 45 115 70 39 24 75 44 81 45 6 0 24 10 39 22 29 23 84 54 154 87 23 12
54 30 68 41 14 11 33 20 41 20 8 0 29 11 46 24 17 13 42 27 56 31 14 4 36 15
50 24 14 9 61 34 105 55 44 21 91 45 105 53 14 8 41 21 60 29 19 8 44 20 55
26 11 6 31 17 45 23 43 21 84 41 105 52 48 26 172 83 182 83 6 0 21 8 34 19
13 10 42 24 64 31 22 7 51 21 65 30 14 10 36 20 50 24 28 8 117 45 205 86 33
15 89 41 125 58 36 17 76 34 90 37 14 4 32 13 40 20 8 7 41 21 72 30 32 9 60
20 63 25 3 5 37 19 75 30 38 11 72 25 75 30 3 5 25 14 48 20 23 6 67 21 97 35
30 13 75 30 100 38 85 28 145 50 195 69 28 11 68 24 90 29 22 5 65 20 95 33
30 14 73 28 95 32 22 4 56 15 75 24 19 10 59 23 88 29 29 6 69 18 90 27 20 8
68 22 105 30 37 7 80 20 95 28 15 8 56 20 92 26 36 7 81 21 100 30 19 10 67
23 106 29 39 7 84 19 100 27 16 9 65 22 109 29 45 8 97 21 117 29 20 9 69 21
110 27 40 6 93 19 118 29 25 10 80 24 124 30 43 6 101 20 130 30 29 10 81 21
117 25 35 4 100 17 144 30 44 12 109 26 145 30 36 3 97 15 135 26 39 10 111
23 160 28 50 5 128 19 174 30 46 11 138 25 205 31 66 7 146 18 176 26 31 7
134 20 230 29 97 8 209 22 250 29 42 8 167 20 280 26 113 6 275 17 362 26 86
8 252 19 370 23 319 12 927 12 1243 1z"/>
    <path d="M19760 31220 c-107 -4 -251 -15 -320 -23 -69 -9 -201 -21 -295 -27
-93 -6 -215 -20 -270 -30 -55 -11 -145 -24 -201 -30 -55 -5 -129 -16 -165 -25
-35 -8 -113 -20 -174 -26 -60 -6 -144 -19 -185 -29 -42 -11 -116 -24 -165 -29
-50 -6 -113 -18 -142 -26 -28 -8 -93 -22 -145 -29 -51 -8 -112 -22 -136 -30
-24 -9 -66 -18 -95 -22 -29 -4 -94 -20 -146 -35 -51 -16 -106 -29 -121 -29
-15 0 -56 -11 -91 -24 -35 -13 -86 -27 -112 -30 -27 -4 -77 -18 -113 -32 -35
-13 -79 -24 -97 -24 -17 -1 -50 -8 -72 -17 -22 -8 -79 -25 -126 -38 -47 -12
-96 -28 -109 -35 -13 -7 -54 -21 -90 -31 -72 -19 -140 -42 -215 -71 -27 -11
-77 -27 -110 -35 -33 -8 -70 -21 -82 -28 -11 -8 -43 -19 -70 -26 -26 -6 -70
-22 -98 -34 -27 -12 -72 -30 -100 -40 -27 -9 -75 -26 -105 -36 -30 -11 -71
-28 -91 -39 -20 -11 -42 -20 -49 -20 -12 0 -135 -51 -215 -90 -22 -10 -53 -22
-69 -26 -17 -4 -54 -20 -84 -36 -30 -15 -61 -28 -69 -28 -8 0 -27 -9 -42 -19
-14 -10 -45 -24 -69 -30 -23 -7 -59 -23 -79 -36 -20 -14 -43 -25 -51 -25 -8 0
-34 -11 -56 -24 -23 -13 -52 -27 -65 -31 -12 -4 -39 -18 -58 -31 -20 -13 -44
-24 -53 -24 -9 0 -33 -10 -52 -23 -18 -13 -49 -29 -68 -35 -18 -7 -41 -19 -50
-27 -9 -8 -35 -21 -59 -30 -23 -8 -54 -24 -68 -35 -14 -11 -34 -20 -44 -20 -9
0 -30 -11 -46 -24 -16 -13 -47 -29 -69 -35 -23 -6 -49 -20 -58 -30 -10 -11
-29 -22 -43 -26 -15 -3 -38 -15 -51 -26 -14 -11 -44 -28 -66 -39 -23 -11 -63
-33 -91 -50 -27 -16 -69 -38 -92 -50 -23 -11 -45 -25 -49 -31 -4 -6 -26 -20
-49 -30 -23 -10 -48 -26 -55 -34 -7 -8 -18 -15 -25 -15 -6 0 -31 -13 -53 -30
-23 -16 -46 -30 -51 -30 -5 0 -22 -10 -38 -23 -15 -13 -62 -43 -103 -67 -41
-24 -87 -53 -102 -65 -14 -11 -49 -33 -78 -50 -29 -16 -64 -39 -78 -51 -15
-12 -40 -29 -57 -38 -16 -9 -48 -30 -70 -47 -22 -16 -56 -41 -75 -54 -19 -13
-57 -40 -85 -60 -27 -19 -86 -60 -130 -91 -44 -31 -98 -69 -120 -85 -22 -16
-51 -37 -65 -47 -14 -9 -51 -37 -83 -62 -32 -25 -68 -52 -80 -60 -12 -8 -31
-23 -42 -32 -11 -9 -72 -59 -136 -110 -273 -218 -386 -313 -503 -419 -28 -25
-116 -102 -196 -171 -131 -113 -571 -542 -761 -743 -191 -203 -343 -371 -444
-494 -331 -402 -378 -459 -472 -584 -18 -23 -42 -54 -54 -68 -11 -14 -28 -37
-37 -51 -24 -36 -68 -97 -100 -139 -15 -19 -48 -64 -74 -100 -26 -35 -59 -80
-73 -99 -14 -19 -45 -64 -67 -100 -23 -36 -44 -67 -48 -70 -4 -3 -25 -34 -48
-70 -23 -36 -50 -78 -62 -95 -21 -29 -118 -182 -172 -268 -16 -25 -28 -49 -28
-53 -1 -5 -21 -40 -46 -79 -24 -38 -54 -90 -65 -115 -11 -25 -27 -52 -35 -61
-8 -9 -23 -32 -33 -50 -53 -99 -74 -136 -87 -150 -8 -8 -14 -21 -14 -27 0 -6
-10 -23 -23 -39 -13 -15 -33 -46 -44 -68 -11 -22 -46 -89 -78 -150 -92 -176
-202 -395 -208 -413 -3 -9 -12 -28 -20 -42 -13 -22 -44 -87 -113 -235 -64
-138 -114 -256 -144 -340 -10 -27 -28 -68 -39 -90 -12 -21 -21 -45 -21 -52 0
-8 -11 -36 -25 -63 -14 -27 -25 -55 -25 -62 0 -8 -13 -40 -30 -73 -16 -33 -30
-66 -30 -74 0 -8 -9 -33 -20 -55 -18 -38 -44 -108 -85 -231 -9 -27 -25 -68
-35 -90 -19 -40 -46 -118 -80 -231 -10 -33 -25 -75 -34 -92 -9 -18 -21 -55
-26 -84 -6 -29 -21 -80 -35 -114 -14 -34 -25 -74 -25 -88 0 -15 -9 -52 -21
-84 -11 -31 -27 -86 -35 -122 -8 -36 -23 -88 -33 -115 -11 -28 -22 -73 -27
-100 -4 -28 -15 -69 -25 -91 -9 -23 -23 -76 -29 -118 -6 -43 -18 -93 -26 -112
-8 -20 -20 -74 -25 -122 -6 -48 -19 -107 -29 -132 -10 -26 -23 -91 -30 -145
-6 -54 -16 -109 -21 -123 -15 -39 -27 -100 -39 -197 -6 -49 -18 -116 -26 -147
-8 -32 -19 -105 -24 -163 -6 -58 -19 -157 -30 -219 -11 -62 -24 -182 -30 -265
-6 -84 -17 -198 -25 -254 -35 -251 -59 -920 -52 -1429 7 -485 23 -892 42
-1033 7 -60 19 -157 25 -215 24 -238 31 -291 50 -415 11 -71 20 -146 20 -165
0 -19 9 -78 20 -130 11 -52 25 -133 30 -180 6 -47 19 -114 30 -150 10 -36 23
-103 30 -150 6 -47 19 -112 30 -145 10 -33 22 -85 25 -115 4 -30 15 -84 26
-120 10 -36 25 -99 33 -140 8 -41 24 -100 35 -130 11 -30 20 -70 21 -87 0 -18
11 -62 25 -98 13 -36 29 -92 35 -125 6 -33 20 -79 30 -102 11 -24 20 -54 20
-66 0 -13 13 -63 29 -110 16 -48 33 -103 37 -122 3 -19 14 -51 24 -70 10 -19
23 -59 29 -88 6 -29 17 -63 25 -75 8 -12 20 -44 27 -72 6 -27 17 -59 25 -71 7
-12 20 -48 30 -80 9 -32 25 -75 34 -94 10 -20 22 -54 26 -75 3 -22 17 -58 29
-80 13 -22 26 -58 30 -80 4 -22 15 -54 25 -70 11 -17 24 -53 30 -79 6 -27 19
-61 29 -75 10 -14 22 -42 26 -61 4 -19 18 -53 31 -76 13 -22 24 -47 24 -55 0
-8 13 -41 30 -74 16 -33 30 -64 30 -68 0 -10 55 -131 75 -167 8 -14 19 -36 26
-50 6 -14 23 -52 39 -85 15 -33 41 -89 58 -125 16 -36 48 -101 71 -145 23 -44
52 -103 65 -132 14 -28 29 -54 35 -57 5 -4 15 -23 22 -44 6 -20 19 -46 29 -57
10 -11 27 -40 39 -65 21 -43 37 -71 110 -197 18 -32 42 -76 53 -98 11 -22 26
-47 33 -55 7 -8 17 -29 22 -45 6 -17 21 -46 34 -66 13 -20 33 -52 44 -70 11
-18 30 -49 42 -69 12 -19 33 -55 48 -80 14 -25 36 -59 48 -77 37 -54 101 -153
127 -198 14 -23 39 -62 55 -85 17 -24 41 -60 55 -81 14 -21 52 -76 85 -124 33
-47 69 -100 80 -119 11 -18 31 -47 45 -64 14 -17 36 -47 50 -67 14 -20 39 -54
55 -75 17 -21 40 -54 53 -72 13 -18 46 -64 75 -102 49 -65 63 -83 122 -166 72
-100 345 -436 415 -510 19 -19 63 -69 99 -110 181 -209 600 -653 730 -774 24
-23 69 -66 101 -96 92 -89 359 -332 440 -400 41 -35 87 -75 102 -89 58 -56 87
-82 193 -170 190 -158 281 -231 344 -276 24 -16 63 -47 88 -68 64 -54 139
-111 253 -192 19 -14 55 -41 80 -60 25 -19 61 -44 80 -55 19 -11 55 -36 80
-55 25 -19 58 -42 73 -50 16 -9 54 -36 85 -59 31 -24 75 -53 97 -65 22 -12 58
-35 80 -52 45 -33 56 -41 172 -116 45 -29 85 -53 89 -53 4 0 21 -10 38 -23 39
-28 152 -97 160 -97 3 0 25 -13 48 -30 22 -16 47 -30 53 -30 7 0 19 -7 26 -16
8 -9 32 -25 54 -35 22 -11 67 -35 100 -54 33 -20 78 -45 100 -56 22 -12 67
-36 100 -55 33 -19 76 -41 95 -49 19 -9 44 -21 55 -27 22 -13 231 -121 280
-145 17 -7 41 -20 55 -28 14 -7 75 -39 135 -70 61 -30 117 -59 125 -64 31 -18
146 -70 170 -77 14 -3 36 -14 50 -24 14 -9 43 -23 65 -30 22 -7 52 -21 66 -31
14 -10 38 -21 55 -25 16 -3 47 -17 69 -29 22 -12 56 -26 75 -30 19 -4 46 -14
60 -23 25 -16 94 -43 223 -88 37 -13 73 -27 80 -31 15 -10 152 -58 232 -81 33
-10 71 -25 85 -34 14 -8 48 -21 75 -27 28 -7 60 -19 71 -26 12 -8 52 -21 88
-29 37 -9 76 -22 89 -30 12 -8 53 -22 90 -30 37 -9 80 -22 95 -30 15 -7 47
-17 72 -21 25 -4 70 -17 100 -30 30 -12 77 -26 104 -30 28 -4 71 -15 97 -25
26 -11 78 -24 116 -31 37 -6 84 -18 103 -26 18 -7 68 -20 110 -29 41 -8 102
-23 135 -34 33 -10 83 -21 112 -24 29 -4 71 -14 95 -22 24 -8 93 -24 154 -34
61 -11 123 -24 139 -30 15 -6 75 -17 134 -26 58 -8 126 -21 151 -29 25 -8 100
-21 168 -29 67 -9 146 -22 175 -30 28 -8 117 -20 197 -26 80 -6 174 -18 210
-26 36 -8 133 -20 215 -25 83 -6 238 -20 345 -31 268 -27 913 -40 1448 -28
227 5 417 12 422 15 13 8 290 33 450 40 80 4 190 15 245 25 55 11 150 24 210
29 61 6 151 19 200 30 50 11 122 22 160 26 84 7 183 25 207 37 9 4 52 13 95
18 43 6 107 20 143 30 36 11 101 24 145 29 44 6 105 19 136 29 30 11 80 23
110 27 30 4 88 17 129 30 41 13 102 30 135 39 131 33 193 49 265 72 41 12 101
28 132 33 32 6 68 17 82 26 13 9 52 20 86 26 34 5 79 18 99 28 20 10 60 24 89
30 29 6 69 19 90 30 20 10 57 22 82 26 25 4 62 16 82 26 21 11 59 24 86 29 27
6 70 22 97 35 27 14 59 25 72 25 13 0 45 11 71 24 27 13 66 28 88 31 21 4 53
16 69 25 17 10 53 24 80 31 28 6 68 23 91 35 22 13 47 24 55 24 8 0 41 14 74
30 33 17 66 30 75 30 8 0 33 12 55 25 22 14 47 25 56 25 9 0 36 11 60 23 24
13 62 30 84 37 22 7 51 21 64 31 13 11 31 19 39 19 13 0 283 130 332 160 8 5
51 25 95 45 44 20 87 41 95 46 8 5 65 33 125 64 61 30 121 61 135 69 14 7 59
31 100 51 41 21 82 43 90 50 8 8 35 23 60 35 25 11 70 36 100 55 30 19 66 40
80 47 24 12 96 54 212 125 29 18 69 41 88 53 19 11 55 34 80 50 25 17 58 38
73 48 16 9 52 31 80 49 29 18 66 41 82 53 17 12 55 36 85 55 71 44 114 74 153
106 18 14 46 34 62 43 17 9 50 32 75 51 25 19 61 46 80 60 19 14 51 36 70 50
19 14 53 37 75 52 38 25 115 82 125 93 6 7 153 119 190 145 29 20 90 68 203
161 34 27 72 57 84 65 23 16 120 98 156 133 11 11 72 64 136 119 64 55 141
123 171 151 31 28 107 98 170 155 138 126 562 550 715 716 61 65 127 137 149
159 48 51 262 296 296 339 14 18 34 42 45 53 11 11 34 37 50 58 17 21 55 69
85 106 113 139 233 293 311 395 54 71 194 259 212 285 9 14 33 45 52 70 19 25
42 59 51 75 9 17 26 41 36 55 11 14 48 70 83 125 36 55 74 114 85 130 69 101
242 369 265 410 9 17 29 53 46 80 16 28 41 72 56 99 37 65 71 123 112 193 77
133 137 241 162 293 12 25 29 56 39 70 9 14 23 42 29 62 7 20 18 42 26 48 8 6
19 28 26 48 6 20 18 44 25 52 7 9 20 35 29 59 8 23 24 54 35 68 11 14 20 33
20 41 0 9 15 47 34 86 19 39 46 98 61 131 14 33 37 83 50 110 48 103 83 181
90 204 4 14 18 45 31 69 13 25 24 52 24 61 0 9 11 35 24 58 13 23 27 56 31 74
4 18 18 52 31 77 13 25 24 52 24 61 0 9 14 43 30 76 16 33 30 69 30 80 0 11
14 47 30 80 17 33 30 71 30 86 0 14 9 38 20 51 10 14 24 47 30 72 6 26 22 74
35 107 14 32 25 66 25 76 0 10 11 41 24 70 14 29 28 74 32 100 4 26 15 70 25
96 11 26 25 76 33 110 7 34 23 88 35 119 11 32 21 71 21 88 0 17 11 56 24 88
13 31 27 84 31 117 4 33 16 80 26 103 10 24 25 81 33 127 8 46 20 93 26 104 6
11 17 65 25 119 8 54 24 125 35 157 11 32 20 73 20 91 0 37 24 156 39 197 6
15 16 69 22 120 6 50 20 126 30 167 11 41 22 116 25 165 3 50 14 128 25 175
10 47 26 164 34 260 8 96 19 193 25 215 5 22 14 103 20 180 26 346 31 414 46
650 12 193 15 343 10 660 -3 239 -12 479 -20 575 -9 91 -20 253 -25 360 -6
107 -17 231 -25 275 -9 44 -22 161 -31 260 -8 99 -22 209 -30 244 -9 36 -20
110 -26 165 -5 56 -17 128 -25 161 -8 33 -22 107 -30 165 -8 58 -23 137 -34
175 -10 39 -21 99 -25 135 -3 36 -17 103 -30 150 -12 47 -25 110 -29 141 -3
31 -17 90 -31 133 -14 42 -25 90 -25 107 0 17 -11 63 -24 102 -14 40 -28 95
-32 122 -3 28 -17 77 -29 110 -12 33 -25 82 -29 108 -4 27 -16 68 -26 91 -9
23 -21 62 -25 86 -4 25 -17 70 -30 100 -13 30 -26 75 -30 100 -4 25 -14 59
-23 75 -8 17 -23 62 -33 100 -22 87 -66 217 -90 270 -10 22 -25 60 -33 85 -32
97 -58 167 -82 214 -13 28 -24 58 -24 69 0 10 -11 37 -24 60 -13 23 -27 58
-31 77 -4 19 -15 49 -25 65 -10 17 -23 48 -30 70 -7 22 -20 54 -30 70 -10 17
-24 50 -30 75 -7 24 -20 55 -30 68 -10 12 -22 37 -25 55 -4 18 -17 52 -30 77
-13 25 -40 81 -60 125 -20 44 -42 89 -48 100 -35 67 -85 178 -93 205 -4 14
-15 35 -25 48 -10 13 -23 40 -30 60 -6 20 -19 46 -29 57 -10 11 -23 37 -29 57
-7 20 -18 42 -26 48 -8 6 -19 28 -26 48 -6 20 -16 42 -21 48 -5 7 -22 38 -39
70 -16 33 -45 86 -63 119 -19 33 -41 74 -49 91 -8 17 -20 35 -27 39 -6 4 -20
26 -31 49 -11 22 -35 66 -54 96 -19 30 -46 75 -60 100 -14 25 -39 65 -55 90
-16 25 -41 65 -55 90 -37 66 -134 219 -182 290 -24 34 -43 65 -44 69 0 3 -20
33 -44 66 -25 33 -54 77 -65 97 -11 20 -24 40 -30 43 -6 3 -19 23 -30 43 -11
20 -36 57 -55 82 -19 25 -42 59 -51 75 -9 17 -29 44 -43 61 -14 17 -51 66 -81
108 -30 43 -77 106 -105 141 -27 34 -66 84 -85 109 -19 26 -77 97 -128 159
-51 62 -116 141 -145 176 -28 35 -61 73 -72 85 -11 12 -33 39 -49 61 -70 91
-283 332 -412 464 -222 228 -662 669 -739 740 -77 72 -618 530 -675 572 -19
15 -51 41 -70 60 -19 19 -45 41 -57 49 -12 8 -49 36 -82 63 -34 26 -64 47 -67
47 -4 0 -23 15 -44 33 -21 17 -72 57 -115 87 -42 30 -93 69 -114 85 -21 17
-57 41 -81 55 -23 14 -56 36 -74 50 -17 14 -44 35 -60 45 -16 11 -41 29 -56
40 -15 11 -81 55 -146 99 -66 43 -130 87 -144 97 -14 11 -36 24 -49 29 -13 6
-36 21 -51 33 -16 12 -51 36 -80 52 -28 17 -66 40 -83 52 -18 13 -45 30 -62
38 -16 9 -57 34 -90 56 -33 21 -79 48 -101 58 -23 11 -45 25 -49 31 -4 6 -26
20 -49 31 -22 11 -66 35 -96 54 -30 19 -73 44 -95 55 -61 33 -118 64 -156 87
-19 11 -47 24 -64 27 -16 4 -37 13 -45 21 -8 7 -53 32 -100 55 -47 23 -96 48
-110 56 -71 39 -411 201 -439 209 -12 4 -39 18 -58 31 -20 13 -43 24 -51 24
-8 0 -34 11 -56 24 -23 13 -57 26 -77 30 -19 3 -50 17 -68 31 -19 13 -47 27
-64 31 -17 3 -50 17 -75 30 -25 13 -52 24 -61 24 -9 0 -34 12 -56 25 -22 14
-47 25 -55 25 -8 0 -44 14 -78 30 -35 17 -71 30 -81 30 -9 0 -43 13 -76 30
-33 16 -68 30 -79 30 -10 0 -44 11 -75 24 -67 29 -162 61 -251 85 -36 10 -78
25 -95 33 -16 9 -46 19 -65 23 -19 4 -62 18 -95 30 -98 38 -247 83 -295 90
-25 4 -61 16 -81 26 -20 10 -67 23 -104 29 -37 6 -80 17 -96 26 -16 8 -62 21
-103 29 -41 7 -88 21 -104 29 -16 8 -60 20 -98 27 -38 6 -91 20 -119 30 -27
10 -81 23 -120 29 -38 5 -97 18 -130 29 -33 10 -91 22 -130 26 -38 4 -112 18
-164 31 -51 13 -110 24 -130 24 -20 0 -85 11 -145 25 -60 13 -154 29 -210 35
-56 6 -126 17 -156 25 -30 8 -106 20 -169 25 -62 6 -164 19 -225 30 -61 11
-196 24 -301 30 -104 6 -228 16 -275 21 -47 6 -128 14 -180 19 -128 13 -1247
20 -1490 10z m1245 -1869 c94 -6 256 -15 360 -21 105 -5 228 -16 275 -24 47
-8 123 -17 170 -21 131 -10 248 -24 325 -40 39 -8 117 -19 175 -25 58 -6 137
-20 175 -29 39 -10 99 -22 135 -26 36 -4 108 -17 160 -30 52 -13 122 -26 155
-30 32 -4 80 -15 105 -25 25 -9 80 -22 123 -29 43 -6 90 -17 105 -25 15 -8 67
-21 116 -31 49 -9 102 -23 117 -31 16 -8 62 -21 103 -29 41 -7 87 -20 103 -28
16 -8 51 -18 78 -22 28 -4 75 -18 105 -30 30 -13 82 -28 115 -35 32 -7 68 -18
80 -26 11 -7 45 -18 75 -25 30 -6 68 -18 83 -26 27 -13 86 -35 212 -78 28 -9
75 -28 106 -41 31 -13 63 -24 70 -24 8 0 41 -14 74 -30 33 -16 67 -30 75 -30
8 0 42 -14 75 -30 33 -17 66 -30 75 -30 8 0 33 -12 55 -25 22 -14 47 -25 55
-25 8 0 64 -24 125 -54 60 -29 137 -66 170 -81 130 -59 211 -97 240 -112 17
-9 104 -54 195 -101 180 -92 229 -118 305 -162 28 -16 73 -40 102 -54 28 -14
54 -30 57 -35 4 -6 26 -20 49 -31 81 -41 124 -65 152 -87 15 -13 32 -23 37
-23 4 0 30 -15 57 -32 26 -18 67 -44 90 -58 23 -14 58 -37 78 -52 20 -16 41
-28 49 -28 7 0 23 -9 36 -20 12 -12 38 -31 57 -43 19 -12 53 -34 75 -50 23
-15 54 -35 70 -45 16 -9 41 -27 56 -39 15 -13 32 -23 37 -23 5 0 44 -26 86
-57 42 -32 91 -68 109 -81 102 -70 173 -123 288 -212 32 -25 79 -61 105 -80
80 -60 583 -491 700 -599 145 -135 517 -513 687 -698 173 -189 474 -537 508
-588 8 -13 38 -53 65 -89 28 -36 75 -100 105 -142 30 -42 66 -90 80 -107 14
-18 33 -43 43 -57 9 -14 30 -43 46 -65 42 -55 81 -110 111 -155 14 -21 42 -62
63 -92 37 -53 147 -221 179 -274 10 -16 38 -60 62 -99 25 -38 45 -75 46 -81 0
-6 7 -17 16 -25 8 -7 27 -33 40 -58 14 -25 38 -68 54 -96 70 -119 126 -220
199 -360 29 -55 68 -127 86 -160 35 -63 39 -71 62 -120 7 -16 20 -41 28 -55 8
-14 22 -41 30 -60 8 -19 19 -42 24 -50 20 -32 91 -186 91 -196 0 -6 7 -17 15
-24 8 -7 20 -31 26 -54 6 -22 18 -52 27 -66 9 -14 24 -45 33 -70 27 -74 60
-152 84 -200 13 -25 26 -60 30 -79 4 -18 15 -48 25 -65 10 -17 23 -50 30 -74
6 -23 22 -64 35 -89 14 -25 25 -52 25 -60 0 -7 11 -35 24 -61 13 -26 27 -65
30 -87 4 -21 16 -56 27 -77 10 -20 24 -61 30 -90 6 -29 20 -69 29 -88 10 -20
22 -54 25 -75 4 -22 16 -59 26 -82 11 -23 24 -66 30 -95 6 -29 17 -65 25 -79
7 -15 21 -60 30 -100 9 -41 24 -90 34 -109 10 -19 23 -66 29 -103 7 -38 20
-89 30 -115 10 -26 21 -70 25 -99 3 -28 16 -77 27 -110 11 -32 26 -102 34
-156 9 -55 20 -107 25 -117 5 -10 17 -66 26 -125 8 -59 22 -125 30 -148 8 -22
19 -83 25 -134 6 -52 21 -147 35 -211 13 -64 24 -137 24 -162 0 -42 16 -153
39 -280 5 -30 15 -140 21 -245 6 -104 18 -257 28 -340 14 -124 17 -250 17
-720 0 -516 -2 -590 -22 -780 -12 -115 -25 -266 -28 -335 -4 -69 -13 -161 -21
-205 -8 -44 -23 -159 -34 -255 -11 -96 -26 -200 -34 -230 -8 -30 -17 -89 -21
-130 -4 -41 -17 -120 -30 -175 -13 -55 -26 -120 -30 -145 -3 -25 -17 -83 -30
-130 -13 -47 -27 -112 -31 -145 -4 -33 -14 -80 -24 -105 -10 -25 -23 -76 -29
-115 -7 -38 -20 -92 -30 -120 -10 -27 -22 -72 -25 -100 -4 -27 -18 -84 -31
-125 -13 -41 -27 -93 -33 -115 -5 -22 -17 -60 -25 -85 -9 -25 -32 -99 -52
-165 -20 -66 -47 -148 -61 -183 -13 -34 -24 -70 -24 -80 0 -9 -10 -37 -22 -62
-11 -25 -29 -72 -38 -105 -19 -64 -49 -140 -86 -220 -13 -28 -24 -59 -24 -70
0 -11 -10 -36 -21 -55 -12 -19 -30 -57 -40 -85 -9 -27 -34 -88 -54 -135 -20
-47 -45 -105 -55 -130 -32 -79 -77 -184 -92 -215 -9 -16 -29 -59 -45 -95 -71
-154 -84 -180 -128 -270 -26 -52 -52 -106 -59 -119 -21 -45 -94 -186 -125
-241 -17 -30 -44 -80 -61 -110 -17 -30 -44 -77 -60 -105 -16 -27 -36 -66 -45
-85 -9 -19 -40 -71 -70 -115 -29 -44 -78 -123 -110 -175 -32 -52 -65 -106 -74
-119 -9 -13 -20 -31 -26 -40 -34 -55 -181 -280 -196 -301 -10 -14 -44 -61 -74
-105 -87 -127 -193 -272 -223 -305 -7 -8 -30 -39 -52 -68 -46 -62 -616 -734
-685 -807 -173 -184 -349 -356 -556 -544 -62 -58 -123 -114 -135 -125 -12 -12
-63 -59 -114 -106 -237 -215 -381 -337 -540 -455 -22 -16 -72 -55 -110 -85
-38 -30 -90 -71 -116 -90 -26 -19 -74 -58 -108 -86 -34 -27 -68 -53 -76 -57
-8 -4 -40 -25 -70 -47 -30 -22 -91 -65 -135 -95 -44 -30 -98 -68 -120 -85 -22
-16 -56 -37 -75 -46 -19 -9 -48 -27 -63 -40 -16 -13 -33 -24 -39 -24 -6 0 -19
-7 -29 -16 -20 -18 -170 -111 -241 -149 -26 -13 -49 -29 -53 -35 -3 -5 -25
-19 -48 -30 -23 -11 -64 -34 -92 -50 -27 -16 -69 -39 -92 -50 -23 -11 -45 -24
-47 -29 -3 -5 -29 -21 -58 -35 -29 -15 -75 -40 -103 -56 -27 -16 -66 -36 -85
-45 -19 -8 -46 -21 -60 -29 -14 -8 -97 -51 -185 -95 -88 -45 -171 -87 -185
-95 -14 -8 -52 -26 -85 -41 -33 -15 -92 -42 -131 -61 -39 -19 -77 -34 -85 -34
-8 0 -32 -12 -54 -25 -22 -14 -47 -25 -55 -25 -8 0 -36 -11 -62 -25 -26 -14
-54 -25 -62 -25 -7 0 -39 -13 -69 -29 -30 -16 -70 -32 -89 -36 -18 -4 -49 -16
-68 -26 -32 -17 -62 -28 -195 -74 -27 -10 -70 -27 -94 -38 -24 -12 -72 -29
-105 -38 -64 -18 -168 -52 -226 -74 -57 -22 -190 -65 -261 -85 -36 -10 -83
-26 -105 -35 -21 -9 -70 -23 -107 -31 -37 -7 -80 -20 -95 -28 -15 -8 -56 -20
-91 -26 -35 -6 -85 -20 -110 -30 -25 -10 -80 -23 -121 -29 -41 -7 -97 -20
-125 -30 -27 -10 -78 -21 -111 -25 -34 -4 -92 -15 -129 -26 -37 -11 -113 -24
-169 -30 -55 -6 -123 -18 -150 -25 -27 -8 -103 -22 -170 -30 -66 -9 -148 -22
-181 -30 -33 -8 -134 -21 -225 -30 -91 -9 -201 -22 -245 -30 -44 -8 -170 -19
-280 -25 -110 -6 -274 -18 -365 -26 -114 -10 -287 -15 -560 -15 -345 0 -529 7
-660 26 -19 3 -135 9 -258 15 -123 5 -255 16 -295 24 -79 16 -205 32 -337 42
-47 3 -110 13 -140 21 -30 8 -102 18 -160 24 -129 12 -156 16 -245 40 -38 11
-88 19 -110 20 -22 0 -71 9 -110 20 -38 10 -110 26 -159 35 -49 8 -102 22
-117 29 -15 8 -63 20 -106 26 -43 7 -99 20 -124 30 -25 10 -75 23 -110 29 -35
6 -82 20 -104 29 -23 10 -59 21 -80 25 -22 4 -82 20 -133 37 -51 16 -100 29
-110 29 -9 0 -33 8 -52 19 -20 10 -62 24 -95 31 -33 7 -80 20 -105 30 -52 21
-148 53 -236 79 -33 10 -79 28 -102 40 -23 11 -50 21 -60 21 -11 0 -39 11 -64
24 -25 13 -60 27 -79 31 -19 4 -52 17 -74 30 -22 12 -56 26 -75 30 -19 4 -45
14 -58 22 -29 18 -151 70 -210 89 -24 7 -55 22 -70 33 -15 11 -44 22 -65 26
-20 4 -47 15 -60 25 -12 9 -33 21 -47 25 -14 4 -45 18 -70 31 -25 13 -61 31
-80 39 -19 8 -46 22 -60 30 -14 8 -41 22 -60 30 -19 9 -84 43 -145 75 -60 33
-126 67 -145 75 -19 8 -46 22 -60 30 -14 8 -47 26 -75 39 -27 14 -79 44 -114
66 -34 22 -66 40 -71 40 -4 0 -26 14 -48 30 -23 17 -45 30 -49 30 -5 0 -27 13
-50 28 -23 15 -61 38 -84 52 -37 22 -72 44 -154 98 -11 7 -33 20 -48 30 -115
70 -136 83 -227 147 -19 14 -47 30 -61 37 -14 7 -38 23 -55 36 -16 13 -56 41
-89 63 -33 22 -78 53 -100 70 -22 16 -58 41 -80 56 -22 14 -43 30 -46 35 -3 5
-18 17 -32 26 -47 31 -208 156 -322 250 -11 9 -58 45 -105 81 -46 35 -127 101
-180 145 -52 45 -106 89 -119 99 -26 18 -241 219 -386 362 -51 50 -181 178
-291 286 -333 327 -472 483 -892 995 -181 222 -336 430 -347 466 -4 10 -10 18
-14 18 -4 0 -25 28 -47 63 -66 101 -72 110 -103 152 -17 22 -42 60 -56 85 -14
25 -39 63 -56 85 -17 22 -39 58 -50 80 -11 22 -30 54 -42 71 -24 35 -55 85
-76 123 -7 15 -21 35 -31 46 -10 11 -21 31 -25 45 -4 14 -18 39 -30 55 -13 17
-30 46 -40 65 -20 44 -46 90 -70 127 -22 33 -57 95 -79 140 -9 17 -27 48 -40
68 -14 19 -27 49 -31 64 -3 16 -15 37 -26 47 -10 9 -19 22 -19 28 0 6 -20 50
-45 99 -25 48 -65 126 -90 175 -25 48 -45 92 -45 98 0 6 -8 22 -19 35 -10 13
-22 35 -26 49 -7 25 -60 141 -95 210 -10 19 -23 53 -30 75 -7 22 -21 53 -31
70 -11 16 -19 36 -19 44 0 8 -14 46 -31 85 -62 141 -78 181 -84 206 -3 14 -17
50 -30 80 -23 53 -34 86 -77 215 -10 33 -27 76 -37 95 -10 19 -21 53 -25 75
-4 22 -16 58 -27 81 -10 22 -28 71 -38 110 -20 72 -40 137 -67 214 -9 25 -23
72 -31 105 -9 33 -26 92 -38 130 -13 39 -27 93 -31 120 -3 28 -15 72 -25 98
-11 27 -24 80 -29 118 -6 39 -17 83 -25 99 -8 15 -21 69 -29 118 -8 49 -23
120 -34 158 -11 38 -25 110 -32 161 -6 50 -18 112 -25 138 -8 25 -19 91 -25
147 -5 55 -19 137 -29 182 -11 44 -24 140 -30 211 -6 72 -17 164 -25 206 -8
41 -19 156 -26 255 -6 98 -18 251 -28 339 -14 131 -17 256 -17 685 1 424 4
555 18 680 9 85 21 241 27 345 6 105 17 222 25 260 9 39 20 126 25 195 12 141
16 171 36 251 8 31 19 103 24 160 6 57 19 136 30 174 11 39 22 95 25 125 4 30
17 96 30 145 13 50 26 115 29 146 3 31 17 89 30 130 13 41 27 98 31 128 4 29
15 72 25 95 10 22 23 73 29 112 6 39 20 91 31 115 11 24 20 55 20 67 0 13 13
63 29 110 16 48 33 103 37 122 3 19 15 51 25 72 10 20 21 56 25 80 4 23 17 63
29 88 12 25 25 64 29 87 3 23 17 63 31 89 14 26 25 56 25 66 0 11 13 50 30 88
16 38 30 74 30 82 0 7 11 35 23 63 23 49 34 76 83 218 13 37 30 78 39 90 8 12
15 29 15 37 0 9 16 47 35 86 19 38 35 75 35 81 0 7 11 34 24 60 58 113 86 174
86 187 0 7 9 25 20 39 11 14 27 44 35 67 8 23 24 53 35 67 11 14 20 36 20 48
0 12 9 34 20 48 12 14 26 41 32 59 6 18 19 44 28 58 9 14 39 69 66 122 64 128
89 173 110 206 10 15 26 41 35 57 9 17 31 56 50 89 19 32 45 78 59 102 14 25
47 82 74 127 47 79 62 104 118 192 14 22 40 65 59 95 18 30 41 66 52 80 31 42
65 93 87 130 11 19 34 53 51 75 16 22 46 64 67 94 45 66 49 71 194 262 156
205 193 253 258 333 105 129 292 349 309 365 10 9 74 81 142 161 114 134 453
480 680 695 108 103 309 282 419 376 42 35 84 72 95 82 24 22 150 121 202 160
67 49 133 101 200 155 36 28 69 52 72 52 4 0 42 26 84 58 42 31 93 68 113 82
19 14 49 36 66 49 16 14 43 32 59 40 15 9 59 37 96 62 37 25 79 53 93 62 14 9
43 30 65 46 22 17 54 38 70 47 17 9 42 26 57 38 14 12 49 35 77 51 79 46 153
92 181 112 14 10 41 26 60 36 19 10 58 31 85 47 28 16 75 43 105 60 30 17 78
44 105 60 28 16 73 40 100 54 28 15 61 33 75 41 25 15 58 31 120 61 19 9 46
23 60 30 14 7 63 32 110 55 108 52 130 63 155 76 27 15 141 69 185 88 19 8 42
19 50 24 33 21 166 81 180 81 8 0 33 12 55 25 22 14 47 25 55 25 8 0 42 14 75
30 33 16 67 30 75 30 8 0 42 14 75 30 33 17 66 30 75 30 8 0 35 11 60 24 25
13 63 27 85 30 22 4 54 16 70 25 17 10 52 24 79 30 27 7 65 20 85 31 20 10 55
22 76 26 22 3 57 15 78 26 20 10 61 23 89 28 29 6 80 21 114 35 34 14 74 25
88 25 14 0 54 11 88 25 35 13 92 29 128 35 35 7 77 18 93 26 15 9 63 21 105
29 42 7 95 20 117 28 22 8 73 20 114 27 40 7 92 20 115 30 22 10 73 21 111 25
39 4 108 17 155 30 47 13 116 26 153 30 37 4 98 15 135 26 37 10 119 24 182
29 63 6 160 20 215 30 55 11 174 27 265 35 91 9 185 20 210 25 46 9 221 21
645 45 265 15 796 13 1070 -4z"/>
    <path d="M14220 23930 c-82 -11 -139 -24 -165 -38 -22 -12 -44 -22 -49 -22
-14 0 -175 -80 -182 -91 -3 -5 -23 -21 -43 -34 -82 -51 -181 -155 -271 -284
-29 -42 -83 -148 -104 -206 -8 -22 -22 -60 -32 -85 -16 -39 -18 -78 -18 -280
-1 -231 0 -236 26 -300 14 -36 31 -82 38 -102 6 -21 16 -41 22 -44 5 -3 18
-27 29 -52 11 -25 52 -84 92 -131 80 -95 1073 -1096 2809 -2830 1182 -1182
2968 -2957 3110 -3093 44 -42 106 -93 137 -114 31 -20 67 -45 81 -56 14 -10
41 -26 60 -34 19 -9 47 -25 62 -35 14 -11 31 -19 38 -19 7 0 34 -11 60 -24 26
-13 63 -27 81 -31 19 -3 75 -18 124 -33 87 -26 99 -27 325 -27 257 0 218 -6
435 69 144 50 155 56 304 141 55 32 169 131 263 229 48 50 88 94 88 98 0 3 12
21 26 38 29 34 154 275 154 297 0 8 9 31 20 52 11 22 22 59 26 83 3 23 15 81
27 128 18 69 22 114 21 240 0 118 -4 170 -18 220 -10 36 -22 89 -27 119 -4 29
-17 70 -27 90 -11 20 -23 51 -26 68 -8 37 -129 271 -146 283 -4 3 -18 23 -33
45 -49 77 -255 274 -542 518 -290 246 -383 326 -483 414 -30 26 -66 55 -80 64
-15 9 -46 36 -70 59 -49 47 -150 135 -193 166 -16 11 -51 41 -78 65 -60 54
-63 56 -286 249 -99 85 -189 163 -200 173 -11 10 -56 47 -100 82 -140 113
-214 174 -245 203 -49 46 -77 70 -225 197 -82 71 -154 134 -160 141 -5 6 -46
42 -90 79 -44 38 -87 76 -96 84 -9 9 -38 32 -64 51 -89 67 -554 459 -645 545
-30 28 -65 58 -76 66 -12 8 -77 60 -145 117 -68 57 -142 118 -163 135 -77 62
-311 261 -332 281 -11 12 -56 50 -99 86 -42 36 -101 86 -129 111 -28 26 -116
101 -196 168 -80 67 -170 144 -200 170 -95 83 -182 155 -204 170 -11 8 -43 35
-71 61 -55 51 -130 116 -495 423 -135 114 -316 269 -403 345 -199 173 -321
275 -371 310 -62 43 -138 90 -176 108 -19 9 -46 24 -60 34 -14 9 -43 23 -65
30 -22 7 -51 19 -64 27 -13 8 -56 19 -95 24 -39 5 -102 14 -141 19 -92 12
-126 11 -275 -10z"/>
  </g>
</svg>