<svg xmlns="http://www.w3.org/2000/svg" viewBox="0 0 4096.000000 4096.000000">
  <g transform="translate(0.000000,4096.000000) scale(0.100000,-0.100000)" fill="#f4f5f7" stroke="none">
    <path d="M15855 40329 c-245 -5 -297 -8 -335 -23 -25 -10 -65 -25 -89 -34
-139 -49 -340 -208 -428 -339 -52 -76 -112 -185 -112 -203 -1 -9 -10 -34 -22
-55 -11 -22 -28 -78 -37 -125 -14 -75 -16 -291 -21 -1760 l-6 -1675 -5145 -6
c-4648 -5 -5153 -7 -5226 -21 -44 -9 -98 -25 -120 -36 -21 -11 -53 -23 -71
-26 -18 -4 -43 -16 -56 -26 -14 -11 -36 -24 -49 -29 -42 -16 -190 -146 -254
-223 -33 -40 -72 -93 -85 -118 -14 -25 -30 -54 -36 -65 -40 -72 -74 -166 -97
-271 l-26 -120 0 -2182 0 -2181 29 -118 c33 -132 72 -232 107 -279 13 -17 24
-34 24 -38 0 -18 94 -137 157 -198 69 -68 169 -148 185 -148 5 0 24 -11 41
-24 18 -13 43 -27 57 -31 14 -4 45 -18 70 -30 26 -13 95 -30 165 -41 111 -18
174 -19 872 -16 414 2 761 1 772 -3 11 -3 24 -20 30 -38 13 -43 29 -221 41
-462 6 -110 19 -272 30 -360 11 -88 24 -261 30 -385 6 -124 17 -279 25 -344 8
-66 22 -248 30 -405 9 -157 22 -338 30 -401 7 -63 19 -214 25 -335 11 -217 30
-465 50 -640 5 -49 14 -182 20 -295 6 -113 17 -261 25 -330 8 -69 20 -210 25
-315 15 -268 28 -439 39 -520 6 -38 17 -200 26 -360 9 -159 24 -375 35 -480
10 -104 22 -260 25 -345 7 -174 21 -355 36 -445 5 -33 16 -188 24 -345 8 -157
21 -337 29 -400 9 -63 22 -234 31 -380 8 -146 22 -313 30 -372 8 -59 22 -232
30 -385 9 -153 17 -285 20 -293 10 -34 26 -232 40 -488 8 -151 22 -326 30
-390 9 -64 22 -247 30 -407 8 -160 21 -349 30 -420 8 -72 19 -224 25 -340 13
-276 18 -349 35 -475 8 -58 19 -204 25 -325 6 -121 17 -281 25 -355 18 -172
33 -345 40 -485 3 -60 17 -225 30 -365 13 -140 28 -345 34 -455 6 -110 18
-263 26 -340 8 -77 19 -232 25 -345 6 -113 19 -286 30 -385 11 -99 24 -274 30
-390 6 -115 19 -293 30 -395 10 -102 24 -279 30 -395 6 -115 19 -286 30 -380
11 -93 24 -271 30 -395 6 -124 19 -301 30 -394 11 -93 25 -269 30 -390 6 -122
19 -302 30 -401 11 -99 24 -281 30 -405 6 -124 17 -274 25 -335 8 -60 19 -184
25 -275 21 -336 32 -475 41 -529 5 -31 16 -175 24 -321 8 -146 22 -325 30
-398 8 -72 19 -207 25 -300 19 -306 30 -436 45 -542 8 -58 19 -204 25 -325 5
-121 19 -299 30 -395 10 -96 24 -281 30 -410 6 -129 19 -318 30 -420 11 -102
24 -286 30 -409 6 -123 17 -289 25 -370 23 -231 25 -253 35 -495 6 -125 17
-278 25 -340 8 -61 19 -192 25 -291 16 -290 30 -472 45 -590 8 -60 19 -202 25
-315 6 -113 13 -214 15 -226 12 -54 34 -315 40 -459 4 -88 11 -200 15 -250 5
-49 16 -162 24 -250 8 -88 20 -256 26 -372 6 -117 17 -261 25 -320 8 -60 19
-207 25 -328 6 -121 15 -260 20 -310 5 -49 15 -162 24 -250 8 -88 20 -254 25
-370 6 -115 15 -237 20 -270 6 -33 17 -120 27 -194 16 -129 20 -145 82 -281
14 -30 59 -106 87 -146 41 -60 122 -148 170 -185 139 -106 189 -139 241 -155
23 -7 59 -21 81 -32 22 -12 87 -28 145 -36 95 -14 1194 -16 11335 -16 11064 0
11231 0 11337 19 59 11 113 24 119 29 7 5 36 17 65 27 76 24 187 91 277 166
80 67 245 274 245 308 0 6 11 33 24 59 13 26 27 70 31 97 4 28 18 80 30 116
19 54 24 97 30 245 4 98 13 233 21 299 23 196 33 319 44 530 5 110 17 255 25
322 8 67 22 250 30 405 8 156 21 332 30 392 8 59 20 210 25 335 11 232 24 397
40 511 5 36 14 153 20 260 6 107 17 249 25 315 21 176 34 343 45 590 6 121 17
263 25 315 8 52 19 201 25 330 6 129 15 273 20 320 17 152 38 430 50 645 6
116 15 230 20 255 8 43 18 180 40 575 5 99 16 230 24 290 8 61 20 218 26 350
7 132 16 272 20 310 25 214 40 382 49 560 6 110 17 250 25 310 8 61 20 218 26
350 6 132 20 305 30 385 11 80 24 246 30 370 9 203 33 503 45 555 2 11 9 128
15 259 6 131 19 311 30 400 10 88 24 263 29 388 6 124 20 302 30 395 11 92 25
270 31 394 5 124 19 293 30 375 10 82 24 253 30 381 6 128 15 267 20 310 5 43
13 119 19 168 6 50 15 191 21 315 11 214 15 266 39 490 6 52 15 197 21 322 5
124 16 275 24 335 19 142 25 214 36 478 5 121 18 288 29 370 11 83 22 220 26
305 3 85 15 236 25 335 24 230 28 284 40 543 6 118 17 262 25 320 9 59 22 238
30 397 9 160 22 349 30 420 8 72 19 216 25 320 13 239 27 422 45 595 8 74 19
241 25 370 6 129 17 282 25 340 8 58 19 202 25 320 6 118 20 296 31 395 11 99
26 302 34 450 9 149 20 308 25 355 20 175 30 301 40 515 6 121 18 270 26 330
8 61 21 239 29 396 8 157 21 335 30 395 8 60 22 231 30 379 8 149 20 306 25
350 15 121 28 289 40 510 6 110 17 251 25 313 8 62 19 208 25 325 10 195 17
283 40 472 5 39 14 178 20 310 6 132 18 305 26 385 19 186 31 339 44 572 6
103 17 236 25 295 7 59 19 212 25 338 11 239 25 427 40 530 5 33 14 163 20
289 6 126 15 258 20 295 5 36 16 147 25 246 9 99 20 191 23 205 l7 25 775 0
c716 0 783 1 875 19 55 10 120 29 145 41 25 12 57 25 71 28 39 10 134 69 227
143 86 68 190 181 218 236 9 18 23 41 31 50 21 24 82 164 93 213 5 22 18 84
29 137 21 98 21 98 19 2275 l-3 2178 -28 110 c-16 61 -37 128 -48 150 -10 22
-28 60 -39 85 -34 71 -63 124 -90 160 -48 65 -221 230 -263 251 -23 12 -51 29
-62 39 -29 27 -165 70 -285 91 -101 18 -279 18 -5223 19 -2815 0 -5123 2
-5128 6 -6 3 -9 609 -9 1667 1 1449 -1 1674 -15 1754 -14 84 -26 121 -79 233
-33 69 -104 175 -166 249 -44 51 -163 150 -220 182 -16 9 -39 23 -52 31 -13 8
-41 21 -63 28 -22 7 -51 19 -64 27 -13 8 -60 22 -105 31 -74 15 -497 16 -4631
17 -2502 0 -4680 -3 -4840 -6z m8266 -1949 c19 -10 19 -34 19 -1129 0 -930 -2
-1120 -14 -1130 -10 -8 -975 -11 -3677 -11 -2014 0 -3667 4 -3671 8 -4 4 -7
514 -6 1133 l3 1124 3655 5 c2010 3 3659 6 3663 8 5 1 17 -3 28 -8z m11181
-4252 c5 -7 7 -511 5 -1132 -4 -1066 -5 -1120 -23 -1133 -15 -11 -2554 -13
-14840 -13 -13293 0 -14824 2 -14838 15 -13 14 -15 144 -16 1134 0 892 2 1120
12 1129 7 5 22 11 32 13 11 2 6689 3 14840 2 11863 -2 14822 -5 14828 -15z
m-2484 -4267 c2 -12 -1 -75 -7 -139 -17 -173 -29 -326 -41 -519 -6 -94 -17
-220 -25 -280 -7 -59 -16 -166 -20 -238 -10 -211 -25 -422 -40 -550 -8 -66
-19 -221 -25 -345 -6 -124 -20 -304 -30 -400 -11 -96 -24 -283 -30 -415 -6
-132 -19 -310 -30 -395 -10 -85 -21 -218 -25 -295 -9 -211 -24 -415 -40 -555
-8 -69 -19 -231 -25 -360 -6 -129 -19 -309 -30 -400 -11 -91 -24 -266 -30
-390 -6 -124 -19 -297 -30 -385 -11 -88 -24 -259 -30 -380 -6 -121 -15 -251
-19 -290 -26 -206 -31 -267 -41 -455 -6 -113 -18 -252 -26 -310 -7 -58 -21
-235 -29 -395 -8 -159 -22 -346 -30 -415 -16 -131 -19 -172 -35 -465 -6 -99
-19 -261 -30 -360 -10 -99 -24 -279 -30 -400 -6 -121 -18 -267 -26 -325 -8
-58 -21 -235 -30 -395 -8 -159 -22 -342 -30 -405 -8 -63 -21 -230 -29 -370 -8
-140 -21 -307 -29 -370 -9 -63 -22 -239 -31 -390 -8 -151 -22 -329 -31 -395
-8 -66 -21 -239 -29 -385 -15 -264 -28 -423 -39 -470 -3 -14 -13 -146 -21
-295 -9 -148 -22 -322 -30 -385 -8 -63 -21 -243 -30 -400 -8 -157 -20 -310
-25 -340 -11 -69 -27 -280 -41 -560 -5 -118 -17 -268 -25 -332 -8 -65 -21
-250 -29 -412 -8 -161 -21 -345 -30 -407 -8 -63 -21 -242 -30 -399 -8 -157
-22 -339 -30 -405 -8 -66 -21 -246 -30 -400 -8 -154 -22 -332 -30 -395 -8 -63
-19 -218 -25 -345 -6 -126 -19 -309 -30 -405 -11 -96 -25 -278 -31 -405 -5
-126 -19 -297 -29 -380 -11 -82 -24 -240 -30 -350 -12 -239 -17 -302 -36 -460
-8 -66 -19 -217 -24 -335 -11 -240 -15 -294 -35 -460 -8 -63 -22 -245 -30
-404 -9 -160 -18 -292 -20 -295 -8 -14 -26 -214 -35 -406 -10 -203 -19 -307
-39 -482 -6 -45 -15 -187 -21 -315 -6 -128 -18 -282 -26 -343 -8 -60 -21 -225
-29 -365 -8 -140 -19 -291 -25 -335 -22 -182 -30 -282 -40 -505 -5 -129 -12
-253 -15 -275 -3 -22 -11 -89 -19 -150 -8 -60 -20 -204 -26 -320 -11 -205 -20
-317 -40 -480 -5 -44 -14 -177 -20 -296 -5 -118 -16 -265 -24 -325 -15 -111
-30 -324 -41 -564 -4 -74 -13 -187 -20 -250 -19 -148 -35 -387 -35 -517 0 -90
-3 -106 -20 -123 -20 -20 -33 -20 -10261 -20 -6890 0 -10247 3 -10259 10 -11
6 -21 25 -24 43 -18 120 -27 230 -36 427 -6 124 -19 302 -30 395 -11 94 -25
287 -31 430 -5 143 -14 298 -19 345 -31 309 -40 418 -50 600 -6 113 -18 250
-25 305 -8 55 -19 204 -25 330 -6 127 -19 298 -30 380 -11 83 -24 251 -30 375
-5 125 -16 275 -24 335 -19 148 -25 213 -36 460 -5 116 -19 284 -29 375 -11
91 -25 264 -31 385 -6 121 -15 258 -20 305 -5 47 -13 128 -19 180 -6 52 -15
185 -21 295 -5 110 -19 279 -30 375 -10 96 -24 272 -30 390 -6 118 -19 296
-30 395 -11 99 -24 288 -30 420 -6 133 -15 277 -20 320 -20 156 -29 273 -40
474 -5 112 -19 281 -30 375 -10 94 -24 279 -30 411 -6 132 -15 258 -20 280
-13 59 -28 243 -40 490 -6 121 -18 276 -26 345 -8 69 -19 208 -25 310 -10 174
-25 356 -49 565 -5 50 -14 185 -20 301 -5 116 -18 293 -29 395 -11 101 -22
249 -26 329 -6 150 -33 484 -40 510 -3 8 -11 157 -20 330 -8 173 -22 367 -30
430 -9 63 -22 252 -30 420 -8 168 -19 339 -25 380 -17 131 -29 269 -40 465 -5
105 -16 240 -24 300 -8 61 -20 196 -25 300 -16 286 -18 310 -34 445 -20 161
-25 232 -37 475 -5 110 -17 254 -25 321 -8 66 -22 244 -30 395 -8 151 -21 326
-30 389 -8 63 -22 243 -30 400 -8 157 -22 339 -30 405 -8 66 -19 208 -25 315
-12 243 -18 317 -36 452 -7 60 -18 201 -24 315 -6 115 -20 291 -31 392 -11
101 -24 279 -30 395 -5 116 -14 252 -20 301 -18 179 -38 434 -48 630 -6 110
-17 250 -25 310 -8 61 -18 187 -21 280 -6 162 -24 375 -45 550 -5 44 -15 175
-20 290 -6 116 -15 253 -20 305 -30 333 -40 467 -49 640 -6 107 -15 220 -20
250 -10 61 -24 255 -42 560 -6 107 -17 241 -25 296 -7 56 -19 212 -24 345 -6
134 -18 282 -25 329 -8 47 -22 218 -30 380 -9 162 -24 367 -35 455 -11 88 -24
277 -30 420 -6 143 -19 330 -30 415 -28 230 -46 518 -33 538 9 16 759 17
10704 22 5882 3 11437 5 12344 5 l1650 0 3 -24z"/>
    <path d="M13365 27131 c-22 -4 -54 -15 -71 -24 -18 -9 -51 -19 -73 -23 -23 -4
-61 -20 -84 -35 -23 -16 -47 -29 -52 -29 -14 0 -103 -68 -181 -136 -55 -48
-87 -87 -169 -204 -53 -78 -104 -198 -131 -309 -26 -112 -27 -119 -20 -340 3
-124 10 -271 15 -326 5 -55 15 -271 21 -480 14 -491 26 -795 44 -1075 8 -124
17 -358 21 -520 7 -345 21 -678 35 -875 5 -77 17 -340 25 -585 14 -415 19
-530 45 -910 5 -80 14 -311 20 -515 6 -203 17 -473 25 -600 8 -126 17 -270 20
-320 3 -49 10 -258 15 -463 6 -206 15 -417 20 -470 12 -130 28 -446 40 -847 6
-181 17 -445 25 -585 8 -140 22 -453 30 -695 8 -242 19 -507 25 -590 16 -237
29 -568 40 -1000 5 -220 12 -425 15 -455 10 -110 34 -611 40 -840 4 -129 13
-347 21 -485 18 -311 30 -597 44 -1011 5 -177 17 -414 25 -528 8 -114 22 -426
30 -694 8 -268 21 -588 30 -712 8 -124 21 -439 30 -700 8 -261 19 -522 24
-580 9 -100 18 -324 41 -985 6 -159 17 -371 25 -470 8 -99 19 -340 25 -535 14
-504 29 -780 55 -1020 10 -92 22 -146 45 -205 17 -44 35 -87 40 -95 6 -8 22
-37 36 -65 53 -99 216 -273 313 -332 66 -41 202 -102 239 -109 20 -3 73 -15
117 -27 112 -29 256 -28 349 1 37 12 77 22 88 22 20 0 170 71 239 113 19 12
72 52 116 90 75 62 128 122 178 201 11 17 27 40 37 50 10 11 18 25 18 31 0 6
11 34 25 61 37 72 76 243 82 361 3 55 0 166 -6 245 -17 225 -30 511 -41 923
-5 209 -16 471 -25 583 -8 111 -19 354 -25 540 -6 185 -18 447 -26 582 -21
359 -32 621 -44 1020 -6 195 -17 456 -25 580 -8 124 -22 448 -30 720 -9 272
-22 587 -30 700 -8 113 -19 365 -25 560 -6 195 -15 429 -21 520 -24 385 -30
526 -44 964 -8 254 -21 583 -29 731 -8 149 -20 457 -26 685 -6 228 -20 552
-31 720 -10 168 -24 465 -29 660 -6 195 -15 420 -20 500 -15 230 -38 782 -50
1195 -6 209 -17 477 -25 595 -8 118 -19 382 -25 585 -6 204 -15 429 -20 500
-10 144 -33 633 -50 1085 -6 162 -18 394 -26 515 -8 121 -19 398 -24 615 -6
217 -15 460 -20 540 -15 208 -28 510 -40 935 -6 204 -17 465 -25 580 -18 268
-32 588 -45 1031 -9 329 -28 586 -50 703 -5 28 -18 70 -29 93 -10 24 -24 60
-29 80 -6 21 -20 50 -31 66 -11 16 -25 42 -31 58 -23 59 -188 242 -275 304
-57 41 -184 106 -224 115 -18 4 -54 16 -80 28 -40 18 -69 21 -221 23 -96 2
-193 -1 -215 -5z"/>
    <path d="M20260 27125 c-25 -8 -78 -23 -118 -34 -40 -11 -85 -29 -100 -39 -15
-10 -42 -24 -60 -30 -35 -12 -62 -31 -145 -101 -57 -49 -161 -170 -192 -222
-67 -116 -90 -165 -123 -259 l-37 -105 0 -10105 0 -10105 28 -68 c15 -37 27
-76 27 -86 0 -10 14 -43 30 -74 17 -31 30 -62 30 -68 0 -6 20 -44 45 -83 62
-100 184 -219 280 -272 17 -9 38 -23 47 -31 27 -24 139 -74 208 -93 36 -10 90
-26 120 -35 115 -34 403 4 530 71 25 13 49 24 54 24 32 0 262 174 295 224 8
12 19 26 26 31 17 15 95 137 95 150 0 6 11 26 25 45 14 18 28 50 31 69 4 20
18 63 33 96 l26 60 0 10116 0 10115 -28 95 c-48 157 -112 275 -221 404 -84 99
-197 192 -256 210 -14 4 -37 16 -52 27 -25 17 -66 32 -213 74 -66 19 -322 18
-385 -1z"/>
    <path d="M27215 27134 c-16 -3 -70 -16 -120 -30 -97 -28 -224 -87 -293 -136
-50 -35 -156 -138 -192 -186 -14 -18 -36 -47 -50 -65 -37 -46 -100 -153 -100
-169 0 -7 -12 -38 -26 -68 -29 -63 -48 -200 -59 -425 -3 -77 -10 -228 -15
-335 -6 -107 -14 -355 -20 -550 -6 -195 -19 -501 -30 -680 -10 -179 -22 -424
-25 -545 -9 -323 -24 -652 -40 -885 -8 -113 -19 -389 -25 -615 -10 -394 -17
-536 -39 -840 -6 -77 -15 -297 -21 -490 -6 -192 -18 -438 -26 -545 -8 -107
-21 -413 -29 -680 -8 -267 -24 -651 -35 -855 -10 -203 -24 -561 -30 -795 -10
-399 -25 -743 -35 -800 -3 -14 -12 -263 -20 -555 -9 -291 -22 -622 -30 -735
-8 -113 -20 -365 -26 -560 -5 -195 -19 -517 -30 -715 -27 -508 -28 -534 -40
-985 -5 -223 -16 -493 -24 -600 -8 -107 -19 -350 -25 -540 -16 -545 -29 -857
-40 -970 -5 -58 -16 -310 -25 -560 -8 -250 -22 -545 -30 -655 -8 -110 -22
-434 -30 -720 -8 -286 -17 -545 -20 -575 -15 -171 -27 -402 -40 -785 -8 -236
-21 -527 -30 -645 -8 -118 -19 -377 -25 -575 -5 -198 -15 -513 -21 -700 -11
-312 -11 -349 5 -440 10 -55 28 -122 41 -150 12 -27 26 -61 30 -75 4 -14 17
-41 30 -60 12 -19 31 -49 41 -66 48 -80 77 -115 157 -190 86 -81 188 -157 230
-170 12 -3 40 -17 62 -30 22 -12 67 -27 100 -33 33 -6 82 -18 109 -26 27 -8
86 -15 130 -15 71 0 215 22 326 50 54 13 163 60 185 80 11 10 36 26 55 35 19
10 85 68 145 129 87 88 118 128 147 186 68 137 89 194 114 315 22 102 27 163
35 400 20 626 30 880 44 1075 8 113 19 387 25 610 10 393 20 623 40 955 5 88
14 320 20 515 6 195 17 433 25 528 8 96 20 334 25 530 14 515 29 907 40 1062
5 74 14 290 20 480 13 434 28 760 40 915 6 66 17 307 25 535 8 228 19 485 25
570 13 205 28 562 40 957 5 176 17 428 25 560 9 131 22 459 30 728 8 270 21
596 30 725 8 129 22 459 30 732 9 273 22 586 30 695 8 109 19 342 25 518 12
380 40 997 46 1006 2 4 8 179 14 390 6 211 15 456 20 544 19 314 39 796 50
1166 6 206 17 449 25 540 8 90 19 333 25 539 10 369 20 590 40 885 5 83 14
341 20 575 10 406 15 514 43 890 7 91 12 257 12 370 0 186 -2 210 -22 256 -12
27 -24 72 -28 100 -4 27 -18 68 -31 91 -13 23 -24 48 -24 55 0 32 -173 263
-217 291 -7 4 -23 18 -36 31 -30 31 -145 103 -222 140 -16 8 -68 26 -115 42
-75 24 -102 28 -235 30 -82 1 -163 0 -180 -2z"/>
  </g>
</svg>