<svg xmlns="http://www.w3.org/2000/svg" viewBox="0 0 4096.000000 4096.000000">
  <g transform="translate(0.000000,4096.000000) scale(0.100000,-0.100000)" fill="#f4f5f7" stroke="none">
    <path d="M20306 40951 c-3 -5 -18 -12 -33 -16 -59 -14 -152 -66 -218 -122
-112 -94 -196 -230 -239 -388 -16 -59 -37 -193 -57 -370 -6 -49 -19 -154 -30
-232 -10 -78 -19 -164 -19 -191 0 -27 -7 -87 -15 -134 -8 -46 -19 -142 -24
-214 -6 -71 -15 -154 -21 -184 -5 -30 -14 -112 -20 -182 -5 -70 -14 -146 -19
-170 -5 -24 -12 -83 -16 -133 -3 -49 -14 -162 -25 -250 -29 -243 -40 -340 -51
-460 -5 -60 -16 -155 -24 -210 -8 -55 -19 -156 -25 -225 -5 -69 -16 -170 -25
-225 -8 -55 -15 -129 -15 -165 0 -36 -7 -110 -15 -165 -9 -55 -20 -147 -24
-205 -5 -58 -16 -163 -25 -235 -25 -212 -36 -304 -47 -415 -5 -58 -19 -172
-30 -255 -10 -82 -19 -175 -20 -205 0 -30 -4 -80 -9 -110 -5 -30 -14 -102 -20
-160 -10 -94 -28 -253 -60 -530 -6 -52 -15 -140 -21 -195 -5 -55 -14 -136 -20
-180 -5 -44 -14 -127 -20 -185 -5 -58 -16 -154 -24 -215 -8 -60 -19 -175 -25
-255 -6 -80 -15 -161 -20 -180 -5 -19 -14 -101 -20 -183 -5 -81 -14 -166 -19
-190 -6 -23 -12 -82 -16 -132 -3 -49 -15 -162 -25 -250 -11 -88 -24 -207 -29
-265 -6 -58 -15 -143 -21 -190 -12 -106 -28 -255 -41 -385 -5 -55 -16 -147
-24 -205 -9 -58 -20 -164 -25 -235 -5 -72 -13 -151 -19 -175 -5 -25 -15 -108
-21 -184 -6 -77 -15 -159 -20 -182 -6 -24 -13 -89 -16 -146 -3 -57 -12 -141
-20 -188 -7 -47 -16 -121 -19 -165 -3 -44 -15 -152 -25 -240 -21 -174 -35
-291 -50 -430 -5 -49 -14 -133 -20 -185 -6 -52 -15 -147 -21 -210 -5 -63 -16
-158 -25 -210 -8 -52 -19 -147 -24 -210 -5 -63 -14 -145 -19 -181 -6 -37 -15
-129 -21 -205 -6 -76 -17 -179 -25 -228 -8 -50 -15 -116 -15 -146 0 -78 -21
-210 -34 -210 -6 1 -55 67 -108 148 -54 81 -195 291 -314 467 -118 176 -223
333 -232 349 -9 16 -33 49 -52 75 -32 42 -56 77 -85 122 -5 9 -59 90 -120 180
-60 90 -114 171 -120 181 -19 31 -169 253 -175 258 -3 3 -22 30 -43 60 -20 30
-49 73 -64 96 -16 22 -32 47 -38 56 -5 8 -23 35 -40 59 -16 24 -34 51 -40 60
-5 9 -23 36 -40 60 -16 24 -34 52 -40 61 -13 21 -335 499 -403 598 -84 122
-192 281 -235 345 -22 33 -60 91 -86 130 -25 38 -49 74 -54 80 -4 5 -40 60
-79 120 -40 61 -76 115 -81 120 -16 20 -122 176 -375 555 -141 212 -260 390
-264 395 -4 6 -19 24 -33 41 -14 18 -25 34 -25 38 0 3 -14 25 -30 48 -49 70
-209 306 -276 408 -35 52 -77 115 -94 140 -17 25 -50 74 -73 110 -24 36 -58
85 -75 110 -45 62 -182 263 -212 310 -14 21 -52 78 -85 125 -33 48 -74 109
-91 136 -17 27 -38 57 -47 67 -9 10 -17 23 -17 29 0 6 -7 17 -16 24 -9 7 -20
22 -25 34 -5 11 -25 40 -43 65 -19 25 -35 50 -35 56 -1 6 -10 19 -21 29 -11
10 -20 23 -20 30 0 7 -9 20 -20 30 -11 10 -20 22 -20 27 0 6 -9 22 -21 36 -11
15 -42 59 -67 98 -26 39 -69 105 -97 145 -27 41 -54 82 -60 91 -8 14 -102 152
-176 258 -9 14 -65 99 -125 190 -59 91 -111 167 -115 170 -3 3 -46 64 -94 135
-161 237 -270 397 -281 413 -7 10 -52 77 -100 151 -49 73 -96 143 -104 155 -8
12 -25 38 -37 57 -55 85 -384 572 -453 669 -33 47 -64 94 -69 105 -5 12 -16
27 -25 34 -9 7 -16 18 -16 24 0 6 -7 19 -17 29 -9 10 -21 26 -27 37 -15 24
-118 174 -163 236 -21 28 -56 79 -80 115 -23 36 -46 70 -51 75 -4 6 -42 62
-85 125 -76 114 -163 241 -202 294 -75 104 -203 213 -315 269 -88 44 -259 82
-329 74 -95 -11 -181 -36 -267 -78 -74 -36 -105 -59 -184 -139 -75 -75 -103
-111 -133 -172 -43 -86 -77 -228 -77 -319 0 -76 49 -276 90 -364 5 -11 21 -51
36 -90 15 -38 35 -89 45 -112 11 -23 19 -48 19 -55 0 -8 6 -22 14 -33 7 -11
17 -31 21 -45 4 -14 15 -43 25 -65 10 -22 28 -65 40 -95 12 -30 30 -73 41 -95
10 -22 19 -46 19 -52 0 -7 9 -32 19 -55 11 -24 31 -72 46 -108 14 -36 33 -77
41 -92 8 -14 14 -32 14 -38 0 -7 9 -31 19 -54 10 -23 31 -70 45 -106 15 -36
33 -78 41 -93 8 -16 15 -34 15 -40 0 -7 9 -29 20 -50 11 -20 20 -43 20 -50 0
-7 9 -29 20 -50 11 -20 20 -43 20 -49 0 -7 6 -25 14 -40 8 -14 19 -43 26 -63
7 -20 18 -49 26 -63 8 -15 14 -34 14 -42 0 -8 9 -28 20 -45 11 -16 20 -36 20
-44 0 -13 17 -54 61 -146 10 -22 19 -46 19 -52 0 -7 9 -32 19 -55 11 -24 31
-72 46 -108 14 -36 30 -73 36 -82 5 -10 15 -35 23 -55 24 -65 120 -304 136
-338 5 -11 21 -51 35 -90 14 -38 35 -89 45 -113 11 -23 20 -48 20 -55 0 -7 9
-29 20 -50 11 -20 20 -43 20 -50 0 -7 9 -29 20 -50 11 -20 20 -42 20 -48 0 -7
8 -30 19 -53 10 -23 38 -90 60 -151 58 -151 80 -204 102 -247 10 -20 19 -45
19 -55 0 -10 9 -31 20 -48 11 -16 20 -36 20 -44 0 -8 9 -32 19 -55 10 -23 31
-70 45 -106 15 -36 33 -78 41 -93 8 -16 15 -34 15 -40 1 -7 9 -30 20 -52 11
-22 19 -46 20 -54 0 -7 8 -30 19 -50 21 -42 61 -142 61 -155 0 -5 8 -27 19
-50 50 -112 61 -138 61 -149 0 -7 9 -29 20 -50 11 -20 20 -42 20 -48 0 -7 8
-30 19 -53 50 -111 61 -137 61 -149 0 -6 6 -24 14 -39 8 -14 19 -43 26 -65 7
-21 19 -47 26 -58 8 -11 14 -26 14 -35 0 -8 9 -32 20 -53 11 -20 20 -42 20
-48 0 -7 8 -30 19 -53 17 -38 33 -75 80 -193 46 -116 77 -189 120 -286 11 -26
21 -53 21 -59 0 -6 8 -29 19 -52 17 -39 31 -70 82 -198 12 -29 30 -72 40 -96
10 -23 19 -48 19 -55 0 -7 9 -29 20 -50 11 -20 20 -42 20 -48 0 -7 8 -30 19
-53 10 -23 29 -66 41 -96 12 -30 31 -74 41 -98 10 -23 19 -48 19 -54 0 -6 8
-29 19 -52 10 -23 29 -66 41 -96 12 -30 31 -74 41 -98 10 -23 19 -48 19 -55 0
-7 9 -29 20 -50 11 -20 20 -43 20 -49 0 -7 7 -26 16 -43 8 -16 30 -66 47 -110
17 -44 37 -89 44 -100 7 -11 13 -26 13 -35 0 -8 9 -32 20 -53 11 -20 20 -43
20 -51 0 -12 11 -38 66 -163 8 -17 14 -34 14 -38 0 -4 8 -26 19 -49 10 -23 29
-66 41 -96 12 -30 30 -72 41 -92 10 -20 19 -43 19 -50 0 -7 9 -30 20 -51 11
-20 20 -43 20 -49 1 -7 9 -31 20 -53 11 -22 19 -44 20 -49 0 -5 9 -27 19 -50
10 -23 31 -75 47 -116 15 -41 34 -84 41 -95 7 -11 13 -26 13 -34 0 -7 8 -32
19 -55 10 -23 28 -63 39 -91 11 -27 30 -75 42 -105 12 -30 31 -77 42 -105 11
-27 29 -68 39 -91 11 -23 19 -47 19 -55 0 -8 9 -27 20 -44 11 -16 20 -37 20
-45 0 -8 9 -32 20 -53 11 -20 20 -43 20 -50 0 -7 9 -29 20 -50 11 -20 20 -43
20 -50 0 -7 9 -29 20 -50 11 -20 20 -43 20 -50 0 -7 9 -29 20 -50 11 -20 20
-43 20 -50 0 -7 9 -29 20 -50 11 -20 20 -44 20 -52 0 -9 9 -33 19 -53 11 -20
31 -66 46 -102 15 -36 30 -74 35 -85 5 -11 21 -51 36 -90 28 -75 38 -97 78
-189 14 -32 26 -63 26 -69 0 -5 8 -28 19 -51 10 -23 28 -65 40 -93 49 -123 64
-161 82 -205 11 -27 28 -70 39 -98 11 -27 29 -74 41 -102 11 -29 29 -71 40
-93 10 -22 19 -46 19 -52 0 -7 9 -32 19 -55 11 -24 31 -72 46 -108 14 -36 33
-77 41 -92 8 -14 14 -32 14 -40 0 -8 9 -31 20 -53 11 -22 20 -44 20 -50 0 -6
9 -27 20 -48 11 -20 20 -42 20 -49 0 -6 8 -30 19 -52 10 -23 31 -75 46 -116
16 -41 32 -79 36 -85 3 -5 14 -34 23 -62 10 -29 22 -55 27 -58 5 -4 9 -15 9
-26 0 -12 -7 -19 -19 -19 -11 0 -23 5 -27 11 -3 6 -25 19 -48 30 -22 10 -48
23 -56 27 -48 27 -82 45 -210 104 -36 17 -162 78 -280 136 -118 57 -249 120
-290 139 -41 20 -82 39 -90 44 -8 5 -26 14 -40 21 -14 6 -74 35 -135 63 -60
29 -150 72 -200 95 -201 94 -280 133 -510 245 -132 65 -283 138 -335 162 -91
43 -107 51 -147 72 -37 19 -420 204 -468 226 -61 28 -384 184 -405 196 -22 12
-132 66 -230 112 -47 21 -92 43 -100 48 -8 5 -26 14 -40 21 -14 6 -115 55
-225 108 -110 54 -231 112 -270 130 -38 17 -171 81 -295 142 -124 60 -263 128
-310 150 -47 22 -92 44 -100 49 -8 5 -44 22 -80 40 -36 17 -74 36 -85 42 -77
40 -299 145 -322 152 -11 3 -27 12 -33 20 -7 8 -18 15 -26 15 -15 0 -154 65
-464 217 -205 101 -427 208 -480 232 -14 6 -32 15 -40 20 -8 6 -91 47 -185 92
-180 86 -726 354 -760 372 -11 6 -47 24 -80 40 -33 15 -68 33 -77 38 -38 20
-57 29 -158 77 -58 27 -154 73 -215 102 -60 28 -128 60 -150 70 -66 30 -299
142 -315 151 -8 5 -26 14 -40 21 -56 25 -276 131 -290 139 -31 17 -450 222
-715 349 -44 22 -156 76 -250 120 -93 45 -208 100 -255 122 -47 22 -92 44
-100 49 -8 5 -26 14 -40 21 -44 20 -260 124 -431 207 -91 45 -173 81 -181 81
-9 0 -21 7 -28 15 -6 8 -22 17 -33 20 -20 6 -304 142 -389 186 -20 10 -42 19
-49 19 -6 0 -30 8 -53 19 -23 10 -75 29 -116 42 -65 20 -95 24 -225 24 -138
-1 -157 -3 -230 -28 -118 -41 -167 -67 -252 -136 -39 -31 -122 -129 -150 -176
-48 -81 -78 -164 -105 -290 -16 -78 -4 -228 25 -305 51 -135 62 -154 142 -255
64 -81 116 -125 366 -315 61 -47 179 -138 263 -202 83 -64 162 -126 176 -136
14 -11 116 -91 227 -178 112 -88 241 -188 289 -224 47 -36 91 -70 97 -76 7 -5
53 -41 102 -79 50 -38 178 -139 285 -225 108 -85 208 -164 223 -175 41 -29
295 -226 509 -393 157 -123 262 -204 431 -334 97 -74 307 -237 425 -330 79
-62 151 -117 160 -122 9 -6 69 -51 132 -101 63 -49 155 -119 204 -155 48 -36
96 -72 105 -80 9 -8 82 -64 161 -125 80 -60 188 -143 242 -185 53 -41 121 -93
152 -115 72 -51 424 -323 839 -649 84 -65 249 -191 367 -279 118 -89 258 -195
310 -237 53 -41 108 -84 124 -95 15 -11 63 -47 106 -80 95 -72 262 -199 345
-261 33 -24 78 -59 99 -77 22 -17 49 -39 62 -47 12 -8 114 -84 225 -168 307
-230 400 -299 514 -387 57 -44 152 -117 212 -163 59 -45 150 -115 201 -155 52
-39 115 -88 141 -107 64 -47 388 -290 478 -360 40 -30 98 -74 130 -98 554
-412 706 -527 768 -577 13 -11 41 -31 60 -45 20 -14 69 -50 110 -80 40 -30
128 -95 194 -143 67 -49 121 -95 121 -102 0 -14 -26 -17 -265 -35 -77 -6 -165
-15 -195 -20 -30 -6 -113 -15 -185 -20 -71 -6 -177 -17 -235 -25 -58 -8 -154
-19 -215 -25 -60 -6 -135 -15 -165 -20 -30 -5 -82 -9 -115 -9 -33 -1 -105 -8
-160 -16 -55 -9 -161 -20 -235 -26 -74 -5 -160 -14 -190 -20 -30 -5 -116 -14
-190 -19 -74 -6 -160 -15 -190 -20 -30 -6 -117 -15 -194 -21 -76 -5 -162 -15
-190 -20 -28 -6 -103 -14 -167 -19 -64 -4 -172 -15 -240 -24 -68 -8 -171 -20
-229 -26 -221 -23 -300 -32 -462 -51 -93 -10 -192 -19 -220 -19 -29 0 -118 -9
-198 -19 -80 -11 -194 -24 -255 -30 -123 -12 -238 -25 -430 -47 -71 -9 -182
-20 -245 -25 -63 -5 -160 -16 -215 -24 -55 -8 -125 -15 -155 -15 -30 0 -98 -7
-150 -15 -52 -8 -156 -19 -231 -25 -75 -5 -179 -16 -230 -24 -52 -8 -148 -17
-214 -21 -66 -3 -138 -10 -160 -15 -22 -5 -103 -14 -180 -20 -77 -6 -192 -17
-255 -25 -63 -8 -162 -19 -220 -24 -58 -6 -143 -15 -190 -20 -47 -6 -132 -15
-190 -20 -58 -6 -145 -15 -195 -20 -49 -6 -135 -15 -190 -20 -170 -17 -295
-32 -411 -47 -61 -8 -172 -19 -245 -25 -74 -6 -153 -14 -176 -20 -23 -5 -108
-14 -190 -19 -81 -6 -169 -15 -195 -20 -25 -5 -109 -14 -185 -20 -76 -6 -157
-15 -180 -21 -23 -5 -103 -13 -176 -19 -74 -5 -185 -16 -248 -24 -63 -8 -163
-19 -224 -25 -60 -6 -150 -16 -200 -21 -109 -13 -416 -47 -540 -60 -49 -5
-130 -14 -180 -19 -106 -13 -428 -47 -570 -61 -389 -38 -633 -69 -720 -92
-120 -32 -230 -95 -318 -180 -48 -47 -146 -184 -147 -205 -1 -4 -9 -26 -20
-48 -11 -22 -19 -49 -20 -61 0 -11 -7 -29 -15 -40 -11 -14 -14 -52 -15 -160 0
-107 4 -149 15 -170 8 -16 15 -36 15 -45 0 -15 40 -105 76 -170 24 -45 144
-168 198 -203 105 -69 181 -103 262 -117 189 -33 234 -39 277 -39 26 0 89 -7
140 -15 50 -8 153 -19 227 -24 74 -6 189 -17 255 -25 112 -14 173 -21 430 -46
55 -6 136 -15 180 -21 44 -5 127 -14 185 -20 58 -5 150 -16 205 -24 55 -8 161
-20 235 -25 74 -6 152 -15 175 -20 22 -4 76 -11 120 -14 44 -4 159 -15 255
-26 96 -10 222 -24 280 -29 213 -22 309 -33 455 -52 83 -10 171 -19 196 -19
26 0 84 -7 130 -14 46 -8 147 -20 224 -26 77 -6 158 -15 180 -20 22 -5 90 -12
150 -16 61 -3 148 -12 195 -20 47 -7 148 -18 225 -24 77 -6 159 -15 182 -21
23 -5 102 -14 175 -19 73 -6 153 -14 178 -19 25 -5 86 -13 135 -16 50 -4 131
-13 180 -20 50 -8 158 -19 240 -25 83 -5 175 -14 205 -20 30 -5 116 -14 190
-20 74 -6 153 -15 175 -20 22 -5 110 -14 195 -20 85 -6 176 -15 201 -20 25 -5
113 -14 195 -20 82 -6 171 -15 197 -20 27 -6 112 -15 190 -20 77 -6 157 -15
176 -20 20 -5 101 -14 181 -19 80 -6 168 -15 195 -20 28 -5 93 -12 145 -15 52
-4 174 -15 270 -26 174 -19 298 -32 480 -51 123 -13 402 -45 555 -64 66 -9
178 -20 250 -26 71 -5 148 -14 172 -19 23 -6 102 -14 175 -20 73 -6 176 -17
228 -25 52 -8 123 -15 156 -15 34 0 99 -7 145 -15 46 -8 127 -17 179 -20 52
-3 141 -13 198 -21 57 -9 147 -19 200 -24 89 -7 257 -26 442 -50 41 -5 145
-16 230 -25 85 -8 185 -19 223 -25 37 -6 115 -13 175 -16 128 -6 242 -23 242
-34 0 -10 -85 -76 -170 -133 -30 -20 -80 -55 -110 -77 -30 -22 -66 -48 -81
-58 -22 -15 -200 -145 -363 -265 -28 -20 -62 -45 -77 -55 -14 -9 -89 -64 -168
-122 -79 -58 -153 -112 -164 -120 -12 -8 -40 -28 -62 -45 -21 -16 -47 -34 -56
-40 -16 -9 -34 -21 -141 -97 -18 -13 -45 -32 -59 -43 -14 -11 -36 -27 -49 -35
-12 -8 -46 -33 -75 -55 -30 -22 -82 -61 -117 -86 -35 -25 -108 -79 -163 -120
-55 -41 -134 -96 -175 -124 -41 -27 -79 -53 -85 -57 -5 -5 -32 -24 -60 -43
-27 -19 -69 -48 -92 -65 -24 -16 -62 -43 -85 -60 -24 -16 -68 -48 -98 -70 -53
-38 -100 -72 -185 -132 -22 -15 -62 -44 -90 -64 -27 -19 -66 -46 -85 -60 -50
-34 -87 -61 -181 -129 -103 -75 -185 -134 -294 -211 -27 -19 -77 -55 -110 -80
-33 -24 -71 -52 -85 -61 -14 -10 -68 -49 -120 -88 -52 -38 -113 -82 -135 -98
-22 -15 -80 -57 -130 -92 -49 -36 -115 -81 -145 -102 -30 -21 -145 -103 -255
-183 -110 -80 -231 -168 -270 -195 -38 -27 -88 -61 -110 -77 -22 -15 -74 -51
-115 -80 -41 -28 -87 -61 -101 -72 -14 -12 -36 -28 -49 -36 -12 -8 -37 -26
-56 -40 -19 -14 -59 -43 -90 -65 -30 -22 -67 -49 -82 -61 -15 -11 -56 -40 -92
-65 -36 -24 -70 -48 -77 -54 -6 -5 -27 -20 -45 -33 -70 -49 -214 -153 -233
-168 -21 -16 -178 -126 -275 -191 -30 -20 -85 -60 -122 -88 -37 -27 -83 -61
-103 -75 -20 -14 -61 -43 -91 -65 -30 -22 -88 -65 -129 -95 -42 -30 -97 -71
-123 -91 -26 -20 -91 -66 -145 -103 -54 -36 -120 -83 -147 -104 -27 -20 -64
-47 -82 -60 -18 -13 -85 -62 -148 -109 -63 -47 -131 -96 -150 -109 -19 -13
-73 -50 -120 -83 -47 -33 -114 -81 -150 -106 -95 -66 -184 -130 -277 -199 -45
-34 -92 -68 -104 -76 -11 -8 -36 -26 -55 -40 -18 -14 -84 -61 -145 -105 -61
-44 -148 -108 -193 -142 -44 -34 -102 -78 -127 -97 -25 -19 -75 -54 -111 -79
-36 -24 -87 -60 -114 -81 -53 -40 -133 -98 -220 -161 -30 -22 -80 -58 -110
-80 -30 -22 -79 -58 -110 -80 -30 -22 -79 -58 -109 -80 -30 -22 -93 -67 -140
-100 -76 -54 -265 -194 -401 -298 -27 -21 -103 -78 -169 -127 -246 -181 -318
-253 -384 -386 -46 -91 -72 -194 -78 -311 -4 -57 0 -98 11 -136 9 -30 16 -63
16 -72 0 -25 49 -122 94 -189 118 -172 285 -285 475 -321 93 -18 140 -18 251
-1 103 16 182 42 335 111 17 7 59 26 95 40 36 15 99 43 140 62 113 53 182 84
215 98 17 7 46 19 65 28 19 8 64 27 100 42 36 15 83 35 105 44 22 10 56 25 75
34 19 8 61 27 92 41 31 14 62 26 68 26 6 0 28 9 48 19 56 29 128 61 137 61 4
0 26 9 49 19 23 11 111 49 196 86 85 37 171 74 190 82 19 9 53 23 75 33 84 37
112 49 170 75 33 15 74 33 90 40 17 7 62 27 100 45 39 18 86 39 105 47 19 9
53 24 75 33 22 10 67 30 100 45 33 15 76 34 95 42 65 29 120 53 163 72 23 11
87 38 142 61 55 24 118 51 140 61 41 19 133 60 195 86 133 58 186 82 295 133
172 79 247 113 325 145 36 15 79 33 95 40 17 7 59 25 95 40 36 15 85 36 110
47 71 31 112 49 155 68 22 9 60 26 85 37 25 11 95 42 155 68 61 25 126 54 145
62 19 9 53 24 75 34 22 9 79 36 127 58 48 23 90 41 93 41 3 0 42 17 88 39 45
21 127 57 182 81 55 23 119 50 143 61 23 10 61 27 85 38 23 10 63 28 90 40 26
11 66 29 90 40 39 17 76 33 180 80 23 11 107 47 187 81 80 34 163 70 185 80
22 10 74 34 115 53 41 19 125 56 185 81 61 26 128 56 150 66 134 60 172 78
288 129 23 10 65 29 92 41 28 12 66 29 85 37 106 47 128 57 162 74 20 11 44
19 53 19 9 0 33 8 53 19 20 10 57 28 82 38 25 11 61 27 80 36 19 9 69 30 110
47 41 18 108 47 148 66 40 19 75 34 78 34 2 0 44 18 92 41 106 50 164 76 220
100 23 11 63 29 90 40 26 12 66 30 90 40 23 11 61 28 85 38 23 10 67 29 97 41
30 13 78 33 105 45 28 13 70 32 95 43 25 11 68 30 95 42 70 31 164 72 248 109
73 32 129 57 219 100 48 22 90 41 93 41 4 0 70 30 220 99 22 11 65 29 95 41
30 12 73 30 95 40 22 10 85 37 140 60 55 23 118 50 140 60 22 10 67 30 100 45
33 15 76 34 95 42 19 9 52 24 72 34 20 11 42 19 48 19 6 0 37 12 68 26 31 14
71 32 87 39 40 17 118 53 245 113 58 27 139 64 180 81 41 18 87 38 102 46 14
8 32 15 40 15 7 0 35 12 63 25 27 13 53 21 57 17 5 -5 -8 -42 -28 -83 -20 -41
-45 -92 -55 -114 -68 -150 -108 -235 -159 -340 -85 -177 -180 -374 -200 -420
-11 -22 -34 -74 -53 -115 -19 -41 -54 -115 -77 -165 -69 -150 -92 -201 -151
-330 -41 -93 -105 -228 -161 -345 -33 -69 -84 -174 -113 -235 -29 -60 -71
-148 -93 -195 -22 -47 -70 -147 -106 -223 -36 -76 -66 -140 -66 -143 0 -6 -79
-174 -91 -194 -5 -8 -12 -22 -15 -30 -16 -38 -139 -296 -254 -535 -51 -105
-131 -276 -240 -510 -61 -130 -92 -198 -140 -300 -23 -49 -60 -128 -82 -175
-94 -199 -140 -296 -150 -315 -13 -23 -37 -72 -80 -165 -17 -36 -48 -103 -70
-150 -22 -47 -49 -103 -59 -125 -51 -112 -102 -222 -154 -330 -31 -66 -68
-145 -82 -175 -14 -30 -29 -62 -34 -70 -5 -8 -12 -22 -15 -30 -13 -31 -55
-121 -133 -281 -45 -92 -81 -169 -81 -172 0 -3 -27 -63 -61 -133 -59 -125 -80
-170 -149 -319 -59 -128 -88 -189 -115 -250 -15 -33 -42 -91 -60 -130 -18 -38
-47 -101 -65 -140 -17 -38 -58 -124 -90 -190 -57 -116 -144 -300 -197 -415
-14 -30 -29 -63 -34 -73 -5 -10 -37 -79 -70 -155 -69 -155 -93 -208 -155 -340
-24 -51 -44 -96 -44 -101 0 -8 -73 -162 -91 -191 -5 -8 -20 -40 -35 -70 -14
-30 -45 -95 -69 -145 -23 -49 -56 -119 -73 -155 -16 -36 -48 -103 -70 -150
-22 -47 -59 -128 -82 -180 -23 -52 -53 -120 -67 -150 -53 -117 -75 -166 -88
-195 -7 -16 -22 -50 -33 -75 -11 -25 -35 -79 -52 -120 -18 -41 -54 -120 -80
-175 -104 -218 -138 -291 -145 -315 -4 -14 -11 -29 -15 -35 -4 -5 -22 -44 -40
-85 -33 -76 -72 -161 -140 -305 -20 -44 -41 -91 -45 -105 -4 -14 -11 -29 -15
-35 -4 -5 -20 -48 -35 -95 -26 -78 -28 -97 -27 -228 1 -119 5 -155 23 -210 22
-69 37 -99 96 -189 65 -101 193 -211 298 -256 120 -51 173 -62 295 -61 81 1
137 7 190 22 76 21 163 58 211 90 14 9 43 29 65 43 71 48 121 108 315 371 42
56 125 166 183 243 137 179 118 154 306 404 89 118 180 237 201 265 22 28 75
97 117 153 107 140 264 347 342 448 36 47 90 118 120 160 30 41 83 112 117
158 34 45 88 117 120 159 32 43 89 117 127 165 38 49 79 104 92 123 37 54 83
116 309 415 116 153 224 298 240 321 17 23 104 140 195 259 174 228 228 301
282 376 18 26 72 98 120 160 116 153 266 353 418 556 69 93 159 212 200 265
89 116 125 163 280 373 100 134 238 317 300 396 8 10 29 38 46 61 32 45 297
398 447 597 49 64 96 127 105 140 9 13 27 35 38 50 12 14 112 148 222 296 111
149 227 305 259 348 32 42 85 112 118 155 75 95 160 208 286 377 140 187 307
407 443 585 36 47 134 177 218 290 144 192 240 319 263 347 6 6 20 27 33 45
20 30 245 333 335 453 21 28 58 77 83 110 86 114 122 165 126 177 2 6 10 8 16
4 7 -4 12 -31 12 -64 0 -31 5 -76 10 -98 5 -23 14 -104 20 -180 5 -77 17 -193
25 -259 8 -66 19 -167 24 -225 12 -113 23 -215 47 -405 9 -66 20 -167 24 -225
5 -58 16 -148 24 -200 8 -52 18 -137 21 -188 3 -52 10 -116 15 -143 5 -27 14
-109 20 -182 6 -72 17 -170 25 -217 8 -47 15 -107 15 -135 0 -27 7 -93 15
-145 8 -52 20 -151 25 -220 6 -69 15 -147 20 -175 5 -27 15 -111 21 -185 6
-74 15 -154 19 -176 5 -23 14 -102 20 -175 5 -74 16 -179 24 -234 8 -55 19
-143 25 -195 5 -52 14 -129 20 -170 10 -71 15 -119 41 -365 6 -55 19 -176 30
-270 11 -93 22 -201 25 -240 3 -38 12 -113 20 -165 7 -52 19 -142 25 -200 6
-58 15 -130 20 -160 5 -30 9 -81 9 -114 1 -32 10 -120 20 -195 11 -75 22 -176
26 -226 3 -49 10 -115 16 -145 5 -30 16 -116 24 -190 30 -276 36 -327 51 -435
8 -60 19 -158 24 -216 5 -59 16 -146 25 -194 8 -48 15 -111 15 -139 0 -28 7
-96 15 -151 9 -55 20 -152 25 -215 5 -63 16 -164 24 -225 17 -124 52 -442 62
-555 3 -41 10 -93 14 -115 5 -23 14 -99 19 -170 6 -72 17 -177 25 -235 21
-149 46 -366 57 -494 5 -60 15 -146 23 -190 8 -45 17 -124 21 -176 3 -52 10
-113 15 -135 5 -22 14 -101 20 -175 6 -74 16 -154 21 -178 5 -24 14 -100 19
-170 6 -70 17 -162 25 -206 8 -43 15 -101 15 -130 0 -28 7 -91 15 -141 8 -49
20 -146 25 -215 6 -68 15 -143 20 -167 6 -23 15 -98 20 -165 6 -68 15 -145 20
-172 6 -26 15 -105 21 -175 6 -69 17 -157 25 -194 8 -38 14 -82 14 -98 0 -31
21 -89 71 -195 54 -115 203 -267 314 -319 118 -56 132 -59 308 -62 150 -4 173
-2 210 15 23 11 60 27 82 37 64 28 144 84 201 141 130 128 215 323 230 524 3
47 12 119 19 160 8 41 17 116 20 165 4 50 13 124 20 165 8 41 19 140 25 220 6
80 15 161 20 180 5 19 14 91 20 160 6 69 15 143 20 165 5 23 14 97 20 165 5
69 17 168 25 220 8 52 15 118 15 146 0 29 7 87 15 130 8 44 19 138 24 209 6
72 15 153 20 180 6 28 15 107 21 177 5 71 14 148 20 172 5 24 14 102 19 173 6
72 15 150 20 174 6 25 15 101 20 169 6 69 15 150 20 180 6 30 15 114 21 185 6
72 15 148 20 170 5 22 11 83 15 135 4 52 13 136 20 185 8 50 19 144 24 210 6
66 15 143 20 170 5 28 14 113 21 190 6 77 15 156 20 175 5 19 13 91 19 160 6
69 17 170 26 225 8 55 15 120 15 145 0 25 7 82 15 128 8 45 19 146 25 223 6
78 14 160 20 182 5 23 13 103 19 177 6 74 15 160 21 190 5 30 14 114 19 185 6
72 15 153 20 180 6 28 15 104 21 169 6 65 15 137 20 160 5 23 11 79 15 126 5
83 31 308 60 540 8 63 20 174 25 245 6 72 15 146 20 165 5 19 14 94 20 165 5
72 15 155 20 186 6 31 15 108 20 170 5 63 16 164 24 224 16 122 31 253 46 425
6 63 15 151 21 195 5 44 14 127 20 185 5 58 16 150 24 205 8 55 19 152 24 215
5 64 14 136 20 160 6 25 15 97 20 160 5 63 16 169 24 235 30 225 47 370 57
490 6 66 15 140 20 165 6 25 14 101 20 170 5 69 16 170 25 225 8 55 15 120 15
145 0 25 9 108 20 185 10 77 20 193 21 258 2 65 6 120 10 123 8 4 71 -72 237
-286 44 -58 89 -114 99 -125 10 -11 34 -42 53 -70 19 -27 37 -52 40 -55 3 -3
38 -50 77 -105 40 -55 89 -124 110 -153 21 -30 63 -86 94 -125 52 -67 114
-150 306 -406 43 -57 123 -161 178 -232 55 -71 118 -154 140 -184 22 -31 74
-100 115 -153 85 -109 337 -443 360 -476 14 -20 92 -124 254 -336 44 -58 121
-157 171 -220 82 -103 281 -368 360 -477 16 -23 66 -88 110 -145 43 -57 148
-195 233 -308 84 -113 181 -242 215 -288 34 -46 70 -93 80 -105 10 -12 67 -87
127 -167 61 -80 156 -205 213 -279 56 -73 111 -146 122 -161 28 -39 180 -239
256 -337 35 -46 109 -142 164 -214 55 -72 134 -175 175 -229 41 -53 113 -150
160 -215 47 -65 121 -164 165 -221 140 -181 158 -205 262 -343 56 -75 136
-181 178 -236 71 -94 265 -352 303 -403 9 -13 65 -88 125 -165 59 -78 150
-198 202 -267 198 -264 253 -336 348 -459 54 -69 110 -142 126 -161 34 -42
161 -212 193 -258 13 -18 28 -39 33 -45 6 -7 35 -46 65 -87 30 -41 88 -119
130 -172 140 -181 394 -519 595 -793 101 -138 213 -286 240 -316 88 -99 226
-182 368 -221 107 -30 262 -31 357 -4 166 47 293 124 381 231 66 79 139 218
150 285 5 25 13 72 19 105 15 88 13 138 -11 249 -22 101 -44 157 -189 471 -33
71 -57 126 -121 273 -11 23 -28 62 -39 87 -11 25 -29 65 -40 90 -63 141 -100
224 -147 325 -19 41 -43 93 -53 115 -27 59 -76 165 -111 243 -17 37 -44 94
-59 127 -15 33 -47 101 -70 150 -39 84 -77 166 -120 260 -21 46 -69 152 -112
245 -17 36 -47 101 -68 145 -20 44 -59 130 -85 190 -46 107 -78 176 -155 340
-20 44 -51 109 -68 145 -16 36 -48 103 -70 150 -22 47 -54 117 -71 155 -18 39
-43 93 -56 120 -13 28 -35 77 -50 110 -59 132 -128 278 -250 530 -42 88 -87
183 -100 210 -20 43 -88 189 -154 330 -27 57 -116 250 -160 348 -11 23 -74
152 -139 287 -66 135 -135 277 -152 315 -48 104 -98 211 -135 290 -29 61 -52
111 -135 290 -10 22 -23 51 -29 65 -6 14 -15 32 -19 40 -5 8 -18 35 -30 60
-50 112 -104 226 -113 240 -5 8 -14 26 -20 40 -7 14 -37 79 -69 145 -56 117
-102 213 -182 385 -22 47 -57 121 -78 165 -21 44 -50 107 -65 140 -15 33 -31
67 -36 75 -5 8 -12 22 -15 30 -3 8 -15 35 -26 60 -11 25 -29 63 -38 85 -10 22
-36 78 -58 125 -22 47 -62 130 -87 185 -126 266 -163 346 -285 600 -26 55 -71
150 -100 210 -28 61 -69 146 -90 190 -21 44 -43 91 -49 105 -6 14 -15 32 -19
40 -24 43 -92 186 -92 193 0 4 -27 65 -61 135 -33 70 -74 156 -91 192 -17 36
-53 112 -80 170 -84 177 -129 273 -147 315 -10 22 -37 81 -61 130 -23 50 -50
108 -60 130 -10 22 -41 87 -68 145 -187 395 -185 390 -179 397 3 3 16 -2 29
-11 12 -9 31 -16 41 -16 10 0 35 -9 55 -20 20 -11 69 -34 107 -51 39 -17 99
-45 135 -61 36 -17 83 -39 105 -49 22 -9 60 -27 85 -38 25 -11 74 -34 110 -50
36 -16 95 -43 132 -60 37 -17 70 -31 72 -31 3 0 45 -18 93 -40 49 -23 102 -47
118 -55 17 -7 80 -34 140 -60 61 -26 128 -55 150 -64 22 -10 56 -25 75 -34 32
-13 91 -40 195 -87 22 -10 79 -37 127 -59 48 -23 90 -41 94 -41 3 0 44 -18 90
-40 47 -22 89 -40 95 -40 5 0 27 -8 47 -19 73 -37 228 -107 432 -195 85 -37
174 -76 198 -87 23 -10 62 -28 87 -39 25 -11 66 -30 93 -41 26 -12 66 -30 90
-40 66 -30 120 -54 214 -98 48 -23 90 -41 94 -41 3 0 44 -18 90 -40 47 -22 89
-40 95 -40 5 0 27 -8 47 -19 20 -10 53 -25 72 -34 19 -8 55 -24 80 -35 25 -11
95 -41 155 -67 61 -26 130 -57 155 -68 25 -11 63 -28 85 -37 22 -10 60 -27 85
-38 25 -11 63 -28 85 -37 22 -10 58 -26 80 -35 22 -10 69 -30 105 -45 36 -15
83 -35 105 -44 22 -10 56 -25 75 -34 44 -19 132 -58 191 -86 25 -11 49 -21 52
-21 3 0 44 -18 91 -40 47 -22 87 -40 90 -40 3 0 40 -16 83 -36 105 -49 138
-63 278 -124 66 -28 136 -58 155 -67 19 -9 54 -24 78 -34 66 -29 123 -55 173
-78 25 -12 52 -21 58 -21 7 0 29 -8 49 -19 20 -10 57 -28 82 -39 25 -11 72
-32 105 -47 33 -15 74 -33 90 -41 17 -7 64 -29 105 -47 41 -19 104 -47 140
-61 36 -15 84 -36 108 -47 23 -10 62 -28 87 -39 25 -11 65 -29 90 -40 25 -11
65 -29 90 -40 25 -11 64 -29 88 -39 23 -11 87 -38 142 -61 55 -23 118 -50 140
-60 22 -9 56 -24 75 -33 19 -8 62 -27 95 -42 33 -15 74 -33 90 -40 71 -31 201
-88 275 -122 81 -37 193 -87 273 -122 75 -33 111 -49 169 -75 31 -14 59 -26
62 -26 3 0 38 -15 78 -34 40 -19 123 -55 183 -81 61 -26 128 -55 150 -65 102
-46 150 -67 265 -116 36 -15 90 -38 120 -52 30 -13 69 -30 85 -37 17 -7 64
-29 105 -48 98 -46 151 -69 230 -102 36 -15 84 -35 108 -46 190 -86 195 -88
452 -199 129 -56 253 -110 275 -119 22 -10 56 -25 75 -34 19 -8 125 -55 235
-102 110 -48 232 -102 270 -120 89 -42 143 -66 225 -100 36 -15 80 -33 99 -41
18 -8 84 -22 146 -31 99 -15 126 -15 207 -4 51 7 112 22 135 32 23 10 46 19
50 19 23 0 174 105 219 152 140 145 206 302 208 498 1 113 -20 224 -55 292
-10 20 -19 41 -19 47 0 9 -35 68 -58 96 -78 100 -146 162 -287 260 -31 22 -89
65 -129 95 -40 30 -85 64 -100 75 -15 11 -51 38 -80 60 -29 22 -65 49 -80 60
-16 11 -66 49 -112 85 -46 36 -109 83 -139 105 -31 22 -80 58 -110 80 -30 22
-80 58 -111 80 -32 22 -101 74 -155 115 -54 41 -119 91 -144 110 -26 19 -57
42 -70 50 -13 8 -44 31 -70 50 -77 59 -152 113 -205 150 -42 29 -124 90 -290
218 -14 11 -45 33 -70 50 -53 37 -100 71 -291 212 -79 58 -154 113 -168 122
-15 10 -53 38 -86 63 -33 25 -67 48 -75 52 -8 4 -36 23 -62 42 -26 20 -72 54
-102 76 -31 22 -89 65 -129 95 -40 30 -95 71 -122 90 -28 19 -54 38 -60 43 -5
4 -50 36 -100 71 -49 36 -101 73 -115 84 -23 18 -212 148 -265 182 -33 22 -92
65 -207 150 -89 66 -146 107 -212 152 -10 7 -31 23 -46 36 -15 12 -32 22 -38
22 -5 0 -15 6 -21 13 -6 8 -48 39 -93 70 -46 31 -101 70 -123 85 -22 16 -85
59 -140 97 -55 37 -102 71 -105 74 -3 3 -25 20 -50 36 -24 17 -81 57 -126 90
-46 33 -130 94 -189 135 -58 41 -145 103 -193 137 -48 34 -107 77 -132 96 -25
19 -58 42 -75 51 -16 9 -57 36 -90 61 -33 25 -67 48 -75 52 -8 4 -36 23 -62
42 -26 20 -73 55 -105 79 -32 23 -101 75 -153 115 -89 67 -130 98 -168 122 -9
6 -37 26 -63 45 -26 19 -72 52 -101 73 -29 22 -96 71 -148 109 -52 39 -111 81
-130 94 -19 13 -57 40 -85 59 -74 53 -125 89 -148 102 -11 6 -22 15 -26 20 -3
5 -31 25 -61 46 -30 20 -77 53 -105 72 -27 20 -66 47 -85 61 -19 13 -60 42
-90 64 -30 23 -71 52 -90 65 -19 13 -60 42 -90 64 -30 22 -64 45 -75 50 -12 5
-27 16 -34 25 -7 9 -19 16 -27 16 -7 0 -17 6 -21 13 -4 7 -19 20 -33 30 -14 9
-65 46 -115 82 -49 35 -112 80 -140 100 -27 19 -77 55 -110 80 -71 52 -161
116 -184 130 -9 6 -28 19 -42 30 -14 11 -36 27 -49 35 -12 8 -46 33 -75 55
-299 224 -348 260 -435 320 -19 14 -62 45 -95 70 -33 25 -67 48 -75 52 -8 3
-33 21 -55 38 -22 17 -60 44 -85 60 -25 17 -77 55 -117 85 -39 30 -97 73 -127
95 -59 42 -124 89 -141 103 -5 4 -35 24 -65 45 -30 21 -93 65 -140 98 -47 33
-101 71 -120 84 -19 13 -60 42 -90 64 -30 22 -86 61 -125 87 -94 65 -145 104
-145 113 0 9 145 27 285 37 50 3 109 10 132 15 23 5 108 14 190 19 81 6 189
17 238 25 50 8 122 16 160 20 39 3 122 12 185 20 63 8 162 19 220 25 58 6 132
15 165 20 33 4 89 9 125 9 36 1 110 8 165 16 55 9 159 20 230 26 72 5 147 14
167 20 21 5 99 14 173 19 75 6 177 16 228 24 50 8 139 17 197 21 58 3 121 10
140 15 19 5 96 14 170 20 74 6 180 17 235 25 55 7 143 17 195 20 52 3 133 12
179 20 46 8 104 15 130 15 46 0 278 24 571 60 85 10 195 22 245 25 49 4 111
11 138 16 26 5 110 13 185 19 75 6 160 15 187 20 28 6 115 15 195 20 80 6 183
17 230 24 47 8 131 17 188 20 57 3 122 10 146 16 23 5 105 14 182 20 76 7 160
16 186 20 27 5 119 14 205 20 87 6 192 18 233 26 41 8 93 14 115 14 22 0 114
9 205 20 306 36 345 40 450 51 58 6 159 17 225 25 66 9 176 19 244 24 68 5
165 16 215 24 50 8 138 18 196 21 58 4 128 11 155 16 28 5 106 14 175 20 69 5
150 14 180 19 30 5 111 14 180 20 69 6 168 17 220 24 52 8 138 17 191 21 53 3
121 10 150 15 30 5 122 14 204 20 83 6 191 17 240 25 50 7 135 16 190 20 55 4
122 11 149 16 27 5 112 14 190 19 78 6 162 15 188 20 25 5 109 14 185 20 76 6
157 15 179 20 23 5 102 14 175 20 74 5 181 16 239 25 58 8 155 19 215 25 61 5
148 14 195 20 47 6 121 15 165 20 108 13 213 35 255 55 81 38 107 54 186 117
96 77 157 153 207 260 15 31 27 65 27 75 0 11 7 28 15 39 11 15 14 55 14 189
0 134 -3 174 -14 189 -8 11 -15 27 -15 35 0 21 -49 115 -93 182 -20 30 -58 75
-84 100 -89 86 -145 121 -287 183 -39 17 -172 38 -366 57 -58 5 -159 17 -225
25 -66 8 -181 19 -255 24 -74 5 -180 16 -235 25 -55 8 -125 15 -156 15 -31 0
-94 6 -140 14 -46 8 -144 20 -217 26 -73 6 -156 15 -183 20 -28 5 -94 12 -147
16 -53 3 -135 12 -182 20 -47 7 -146 18 -220 24 -74 6 -178 17 -230 25 -52 8
-117 15 -145 15 -27 0 -90 7 -140 14 -49 8 -155 20 -235 26 -80 6 -163 15
-185 20 -22 5 -103 14 -180 19 -77 6 -165 15 -195 20 -30 6 -116 15 -190 21
-74 6 -162 15 -195 20 -33 5 -103 12 -155 16 -52 3 -136 12 -186 20 -50 7
-150 18 -222 23 -72 6 -159 15 -194 20 -35 5 -124 15 -198 21 -74 6 -153 15
-175 20 -22 5 -80 12 -130 15 -49 3 -142 12 -205 20 -63 8 -169 19 -235 24
-66 6 -174 17 -240 25 -150 19 -612 67 -830 87 -60 5 -166 17 -235 25 -68 9
-174 20 -235 24 -60 5 -168 15 -240 24 -131 15 -245 28 -410 46 -49 6 -146 17
-214 26 -68 9 -177 19 -242 24 -65 5 -122 11 -127 14 -5 3 -89 12 -188 21 -98
8 -204 20 -234 25 -30 5 -113 14 -185 20 -71 5 -155 14 -185 19 -30 6 -116 15
-191 21 -75 6 -161 14 -190 20 -30 5 -124 14 -209 20 -85 6 -171 15 -190 20
-19 5 -102 14 -185 19 -82 6 -172 15 -200 20 -27 5 -97 12 -155 16 -58 4 -163
16 -235 26 -71 10 -157 19 -190 19 -33 0 -100 7 -150 15 -49 8 -133 17 -185
20 -52 4 -134 13 -182 21 -48 8 -138 19 -200 24 -62 5 -169 16 -238 24 -69 8
-177 20 -240 26 -159 16 -190 21 -190 30 0 5 19 22 43 39 98 71 149 108 272
200 138 103 315 238 402 305 29 23 89 68 133 101 44 33 136 103 204 155 68 52
151 115 185 140 34 25 70 52 81 60 11 8 36 26 55 40 36 25 256 191 351 263 82
64 342 260 555 420 75 56 159 120 188 142 135 104 242 185 301 228 104 76 329
246 406 306 38 31 85 67 104 81 33 25 136 102 155 117 6 5 41 31 78 58 37 28
103 77 145 110 42 33 136 103 207 156 218 163 235 176 400 304 88 69 168 131
177 138 39 28 250 191 419 322 181 142 281 219 373 288 74 55 305 234 474 367
81 64 166 129 189 145 45 32 256 193 340 259 28 23 61 48 72 56 36 27 288 221
466 360 95 74 212 164 259 200 48 36 119 90 159 120 40 31 83 63 97 72 14 8
51 38 82 64 32 27 79 66 105 86 127 100 263 205 283 218 26 18 143 107 275
210 53 41 107 82 119 90 12 8 40 30 62 47 21 18 86 69 144 113 58 44 197 152
310 241 171 133 350 272 445 345 11 8 147 115 301 237 155 122 292 229 304
237 45 30 144 111 168 138 98 105 170 230 212 370 19 62 22 88 17 175 -5 92
-27 188 -57 252 -5 11 -16 36 -25 55 -8 19 -21 44 -28 55 -48 78 -72 108 -123
159 -86 85 -156 128 -284 173 -69 25 -87 27 -225 26 -134 0 -158 -3 -230 -27
-44 -15 -93 -33 -110 -40 -72 -33 -208 -97 -305 -144 -58 -27 -136 -64 -175
-82 -38 -17 -92 -42 -120 -55 -27 -13 -99 -47 -160 -75 -107 -51 -523 -252
-557 -271 -10 -5 -26 -13 -35 -18 -37 -20 -429 -210 -453 -220 -14 -6 -32 -15
-40 -20 -8 -5 -71 -36 -140 -69 -69 -33 -199 -96 -290 -140 -91 -44 -176 -85
-190 -91 -14 -6 -32 -15 -40 -21 -8 -6 -87 -44 -175 -86 -88 -42 -236 -113
-330 -158 -93 -46 -233 -114 -310 -151 -77 -37 -228 -110 -335 -162 -107 -52
-251 -122 -320 -155 -122 -59 -141 -68 -177 -87 -10 -5 -94 -46 -188 -91 -93
-45 -178 -86 -187 -91 -10 -5 -26 -13 -35 -18 -10 -5 -56 -27 -103 -49 -47
-22 -123 -58 -170 -80 -143 -67 -579 -277 -776 -373 -78 -38 -144 -69 -148
-69 -4 0 -82 -37 -174 -81 -382 -186 -798 -387 -842 -407 -14 -7 -32 -16 -40
-21 -14 -8 -85 -42 -275 -131 -49 -23 -146 -69 -215 -102 -121 -58 -140 -68
-177 -87 -17 -9 -78 -38 -348 -166 -66 -31 -127 -61 -135 -66 -8 -5 -22 -12
-30 -15 -8 -4 -69 -33 -135 -64 -66 -32 -178 -86 -250 -120 -71 -34 -213 -103
-315 -152 -102 -50 -250 -122 -330 -160 -80 -39 -217 -105 -305 -148 -88 -43
-198 -95 -245 -117 -171 -80 -385 -182 -675 -323 -370 -179 -491 -238 -515
-249 -14 -6 -32 -15 -40 -20 -8 -5 -79 -40 -157 -80 -133 -66 -143 -69 -143
-48 0 12 7 31 15 41 8 11 15 28 15 38 0 10 9 35 20 55 11 21 20 43 20 50 0 7
9 30 20 50 11 21 20 43 20 50 0 7 9 30 20 50 11 21 20 43 20 50 0 7 9 30 20
50 11 21 20 43 20 50 0 7 9 27 20 45 11 18 20 39 20 47 0 8 8 32 19 55 10 23
28 65 40 94 52 129 64 160 81 202 10 25 27 69 39 98 11 28 31 76 42 105 12 28
30 75 41 102 11 28 29 68 39 91 11 23 19 48 19 55 0 8 6 23 13 34 7 11 28 58
45 105 18 47 39 97 47 112 8 14 15 33 15 42 0 9 9 33 20 53 11 21 20 44 20 51
0 8 6 26 14 40 14 25 43 93 86 202 10 25 27 69 39 98 11 28 30 76 42 105 12
28 27 66 34 82 15 34 57 136 86 208 10 26 29 71 40 100 12 28 30 75 41 102 11
28 29 69 39 93 10 23 19 48 19 55 1 6 9 30 20 52 11 22 19 45 20 51 0 10 12
39 66 161 8 17 14 37 14 45 0 7 6 22 14 33 7 11 19 37 26 58 7 22 18 51 26 65
8 15 14 33 14 40 0 8 6 26 14 40 14 25 38 82 87 205 10 26 28 71 40 100 12 28
27 66 34 82 8 17 25 59 40 95 15 36 33 79 41 95 13 28 22 54 59 158 8 23 22
54 30 69 8 14 15 35 15 45 0 10 6 27 14 38 7 11 19 37 26 58 7 22 18 51 26 65
8 15 14 33 14 40 0 7 9 30 19 50 11 20 29 61 40 90 45 112 64 159 82 198 11
23 19 46 19 53 0 6 9 28 20 48 11 21 20 43 20 50 0 7 9 30 20 50 11 21 20 44
20 51 0 8 6 26 14 40 8 15 27 56 41 92 15 36 35 84 46 108 10 23 19 47 19 53
0 6 6 25 14 42 16 35 57 135 87 210 10 26 28 70 39 97 11 28 29 73 40 100 48
119 64 157 81 196 11 23 19 46 19 53 0 6 9 28 20 48 11 21 20 43 20 50 0 11
11 37 61 149 11 23 19 45 19 49 0 4 6 21 14 38 55 123 66 151 66 161 0 6 9 28
20 49 11 20 20 44 20 52 0 9 9 33 19 53 11 20 29 62 41 92 12 30 31 73 41 96
11 23 19 47 19 55 0 8 9 28 20 44 11 17 20 37 20 45 0 8 9 33 20 55 11 22 19
47 20 55 0 9 6 24 14 35 7 11 19 38 26 60 7 22 16 45 20 50 4 6 11 21 15 35
10 37 45 129 66 176 11 23 19 45 19 49 0 4 7 21 15 38 12 28 91 221 146 360
35 88 61 152 79 197 18 45 39 96 80 200 12 30 28 72 36 93 8 20 18 45 24 55 5
9 16 35 24 57 8 22 23 64 35 93 12 28 29 73 40 100 90 226 116 290 136 337 15
33 56 133 87 210 11 28 29 69 39 93 10 23 19 49 19 57 0 8 9 32 20 52 11 21
20 43 20 50 0 6 7 24 15 40 8 15 26 57 41 93 14 36 34 84 45 108 10 23 19 50
19 60 0 10 6 26 14 37 7 11 17 31 21 45 4 14 15 43 25 65 10 22 27 63 38 90
44 110 65 162 83 201 11 23 19 48 19 55 0 8 6 23 13 34 7 11 26 54 41 95 16
41 37 93 47 116 10 23 19 46 19 52 0 6 10 33 21 59 43 97 74 170 120 286 10
26 28 71 40 100 12 28 27 66 35 82 7 17 20 48 28 70 7 22 24 65 36 95 12 30
29 73 36 95 8 22 21 54 29 72 8 17 15 37 15 45 0 7 10 41 22 73 19 52 22 81
22 215 0 146 -1 159 -27 223 -15 37 -38 84 -52 105 -14 20 -36 53 -49 72 -24
36 -108 118 -161 157 -47 35 -196 106 -240 114 -22 4 -58 12 -80 18 -58 15
-119 13 -215 -8 -77 -18 -163 -51 -215 -83 -76 -48 -211 -177 -260 -248 -14
-19 -40 -57 -60 -85 -19 -27 -141 -207 -271 -400 -197 -293 -359 -533 -524
-773 -17 -24 -30 -47 -30 -52 0 -5 -6 -13 -13 -17 -7 -4 -52 -69 -101 -143
-121 -183 -195 -295 -237 -355 -108 -154 -161 -232 -393 -580 -103 -154 -227
-337 -275 -408 -89 -129 -163 -239 -210 -312 -14 -22 -28 -42 -31 -45 -3 -3
-85 -124 -182 -270 -98 -146 -212 -314 -253 -375 -42 -60 -173 -256 -292 -435
-120 -179 -249 -370 -288 -425 -39 -55 -80 -114 -90 -132 -24 -38 -283 -421
-324 -478 -15 -22 -63 -92 -104 -155 -42 -63 -92 -137 -112 -165 -19 -27 -70
-102 -112 -165 -42 -63 -81 -119 -86 -125 -4 -5 -90 -134 -191 -285 -100 -151
-206 -309 -234 -350 -29 -41 -72 -104 -97 -140 -24 -36 -78 -114 -120 -175
-41 -60 -104 -153 -140 -205 -35 -52 -127 -187 -204 -300 -77 -113 -264 -389
-415 -615 -242 -358 -375 -553 -514 -753 -20 -29 -46 -67 -57 -85 -11 -18 -49
-75 -85 -127 -36 -52 -74 -109 -85 -127 -11 -18 -83 -125 -160 -238 -77 -114
-145 -214 -150 -223 -15 -25 -58 -88 -117 -172 -29 -41 -94 -138 -144 -215
-123 -186 -121 -183 -127 -165 -7 23 -28 202 -38 330 -5 62 -15 159 -23 215
-9 55 -20 143 -26 195 -6 52 -15 136 -21 185 -5 50 -18 158 -29 240 -10 83
-22 190 -25 240 -4 49 -11 112 -16 140 -5 27 -14 109 -20 180 -6 72 -14 149
-19 172 -6 22 -14 106 -20 185 -6 78 -17 181 -24 228 -8 47 -17 130 -20 184
-4 55 -11 118 -16 141 -5 23 -14 104 -20 181 -6 76 -18 180 -26 229 -7 50 -14
115 -14 145 0 30 -7 98 -15 150 -8 52 -20 153 -25 224 -6 70 -15 147 -20 170
-5 22 -14 102 -20 176 -6 74 -15 159 -20 188 -5 29 -14 112 -20 185 -6 72 -15
158 -21 189 -5 31 -14 106 -19 165 -5 59 -16 162 -25 228 -26 207 -55 488 -55
530 0 22 -7 83 -15 135 -8 52 -20 154 -25 225 -6 72 -15 155 -20 185 -6 30
-15 117 -20 193 -6 76 -14 157 -20 180 -5 24 -14 101 -19 172 -6 72 -17 182
-25 245 -29 222 -55 446 -61 525 -3 44 -12 127 -20 185 -8 58 -19 157 -24 220
-6 63 -16 156 -21 205 -63 528 -81 692 -91 820 -5 66 -14 135 -19 155 -5 19
-14 98 -20 175 -6 77 -15 161 -20 186 -5 26 -14 107 -20 180 -6 74 -17 175
-25 224 -7 50 -16 133 -20 185 -3 52 -10 114 -15 136 -5 23 -14 104 -20 180
-6 77 -15 164 -20 194 -5 30 -14 111 -20 180 -6 69 -15 148 -20 175 -5 28 -14
109 -20 180 -5 72 -16 184 -24 250 -8 66 -20 167 -25 225 -6 58 -15 143 -20
190 -6 47 -15 132 -20 190 -6 58 -15 141 -20 185 -6 44 -15 121 -21 170 -31
269 -50 355 -101 470 -27 62 -99 154 -172 220 -80 72 -105 89 -172 114 -33 13
-73 29 -88 37 -21 10 -72 14 -192 14 -90 0 -166 -4 -169 -9z m204 -5648 c5
-82 13 -169 19 -194 5 -24 15 -100 20 -169 6 -69 18 -177 26 -240 8 -63 19
-160 24 -215 24 -229 33 -317 47 -440 9 -71 20 -184 25 -250 5 -66 14 -145 19
-174 6 -30 15 -116 20 -190 6 -75 17 -178 25 -228 8 -51 15 -113 15 -139 0
-25 9 -105 19 -177 11 -73 22 -177 25 -232 4 -55 11 -118 16 -140 5 -22 14
-105 20 -185 6 -80 15 -163 20 -185 5 -22 14 -103 20 -180 6 -77 15 -159 20
-181 5 -23 14 -104 20 -180 6 -77 17 -177 24 -224 8 -47 17 -132 20 -190 4
-58 11 -121 16 -140 5 -19 14 -100 20 -180 5 -80 17 -192 25 -250 7 -58 19
-157 24 -220 17 -179 30 -305 48 -435 8 -66 19 -168 23 -226 4 -58 13 -130 19
-160 6 -30 15 -112 21 -184 6 -71 18 -168 25 -214 8 -46 15 -107 15 -136 0
-28 9 -119 19 -201 11 -82 22 -192 26 -244 3 -52 10 -108 15 -125 5 -16 14
-88 20 -160 5 -71 17 -182 25 -245 7 -63 19 -164 25 -225 22 -238 31 -326 50
-480 11 -88 22 -196 25 -240 4 -44 11 -100 16 -124 5 -24 14 -102 20 -174 5
-71 14 -149 19 -173 6 -24 15 -101 21 -172 5 -70 17 -162 25 -206 7 -43 14
-101 14 -130 0 -28 7 -91 16 -141 8 -49 19 -126 24 -170 4 -44 15 -93 24 -110
9 -16 16 -35 16 -41 0 -18 74 -111 126 -157 27 -25 77 -57 111 -71 52 -22 78
-26 153 -26 75 0 101 4 156 27 110 45 183 122 346 363 46 69 99 145 116 170
55 77 146 210 172 250 30 47 208 308 248 365 76 106 105 149 280 410 104 154
212 314 240 355 29 41 77 111 107 155 30 44 175 258 321 475 146 217 294 436
329 485 53 75 178 255 235 339 8 11 79 118 157 236 79 118 173 256 208 305 35
50 78 113 95 140 17 28 46 70 65 95 18 25 34 48 34 52 1 4 24 40 52 80 28 40
108 159 178 263 136 202 236 350 326 480 31 44 130 190 220 325 91 135 199
295 240 355 42 61 141 207 220 325 80 118 159 235 176 260 18 25 59 86 92 135
33 50 72 107 86 128 14 21 37 55 51 77 41 64 203 298 323 466 15 21 87 129
161 239 157 237 310 463 351 522 17 23 44 64 60 92 17 28 36 51 43 51 6 0 12
-3 12 -6 0 -4 -12 -34 -26 -68 -14 -33 -35 -82 -45 -108 -10 -27 -28 -70 -39
-98 -48 -119 -64 -157 -81 -196 -11 -23 -19 -45 -19 -50 -1 -5 -9 -27 -20 -49
-11 -22 -19 -46 -20 -53 0 -6 -9 -29 -20 -49 -11 -21 -20 -44 -20 -51 0 -8 -6
-26 -14 -40 -8 -15 -27 -56 -41 -92 -15 -36 -35 -83 -45 -105 -10 -22 -37 -89
-60 -150 -23 -60 -51 -131 -61 -157 -11 -27 -27 -69 -38 -95 -10 -27 -28 -72
-40 -100 -11 -29 -30 -74 -40 -100 -29 -72 -71 -174 -86 -208 -7 -16 -23 -55
-35 -85 -12 -30 -31 -74 -41 -98 -10 -23 -19 -49 -19 -57 0 -8 -9 -32 -20 -52
-11 -21 -20 -44 -20 -51 0 -7 -9 -30 -19 -50 -11 -20 -29 -61 -40 -89 -45
-113 -64 -160 -82 -199 -11 -23 -19 -46 -19 -52 0 -11 -11 -38 -61 -148 -11
-23 -19 -46 -19 -52 0 -6 -9 -31 -19 -54 -10 -24 -28 -65 -39 -93 -40 -100
-65 -161 -83 -201 -11 -23 -19 -46 -19 -53 0 -6 -9 -28 -20 -48 -11 -21 -20
-43 -20 -50 0 -7 -9 -30 -20 -50 -11 -21 -20 -43 -20 -50 0 -11 -11 -37 -61
-149 -11 -23 -19 -48 -19 -55 0 -8 -6 -23 -14 -34 -7 -11 -19 -38 -26 -60 -7
-22 -16 -44 -20 -50 -4 -5 -11 -21 -15 -35 -3 -14 -15 -43 -25 -65 -17 -38
-36 -84 -81 -197 -41 -103 -62 -155 -80 -194 -11 -23 -19 -46 -19 -53 0 -6 -9
-28 -20 -48 -11 -21 -20 -44 -20 -51 0 -7 -9 -30 -20 -50 -10 -20 -29 -64 -40
-97 -12 -33 -30 -77 -41 -97 -10 -20 -19 -43 -19 -50 0 -7 -9 -30 -20 -51 -11
-20 -20 -44 -20 -52 0 -8 -9 -32 -20 -52 -11 -21 -20 -45 -20 -53 0 -8 -9 -28
-20 -45 -11 -16 -20 -36 -20 -44 0 -8 -8 -32 -19 -55 -10 -23 -29 -66 -41 -96
-12 -30 -31 -73 -41 -96 -11 -23 -19 -46 -19 -52 0 -6 -10 -33 -21 -59 -12
-27 -29 -66 -39 -88 -10 -22 -27 -61 -39 -86 -12 -25 -21 -51 -21 -57 0 -11
-11 -38 -61 -148 -11 -23 -19 -46 -19 -52 0 -6 -9 -31 -19 -54 -10 -24 -28
-67 -40 -95 -12 -29 -30 -74 -40 -100 -11 -27 -29 -75 -41 -108 -22 -60 -26
-70 -74 -179 -14 -32 -26 -63 -26 -68 0 -6 -6 -24 -14 -41 -54 -122 -66 -151
-66 -160 0 -5 -8 -28 -19 -51 -10 -23 -28 -65 -40 -93 -11 -29 -31 -77 -42
-105 -12 -29 -30 -71 -40 -94 -11 -23 -19 -46 -19 -53 0 -6 -9 -28 -20 -48
-11 -21 -20 -43 -20 -50 0 -7 -9 -30 -20 -50 -11 -21 -20 -45 -20 -53 0 -8 -9
-28 -20 -45 -11 -16 -20 -39 -20 -50 0 -11 -9 -33 -20 -50 -11 -16 -20 -37
-20 -45 0 -8 -9 -33 -20 -55 -11 -22 -19 -46 -20 -53 0 -6 -9 -29 -20 -49 -11
-21 -20 -44 -20 -51 0 -7 -9 -30 -19 -50 -35 -68 -61 -132 -61 -150 0 -10 -6
-26 -14 -37 -7 -11 -19 -38 -26 -60 -7 -22 -16 -44 -20 -50 -4 -5 -13 -28 -20
-50 -7 -22 -19 -49 -26 -60 -8 -11 -14 -26 -14 -35 -1 -8 -9 -33 -20 -55 -11
-22 -19 -46 -20 -52 0 -7 -10 -34 -21 -60 -12 -27 -29 -66 -39 -88 -10 -22
-28 -65 -40 -95 -12 -30 -31 -73 -41 -96 -11 -23 -19 -45 -19 -50 0 -11 -91
-225 -139 -324 -11 -25 -21 -49 -21 -55 0 -5 -7 -23 -16 -40 -22 -40 -43 -130
-44 -182 0 -23 6 -66 14 -95 30 -113 109 -214 207 -263 46 -23 70 -28 162 -32
95 -5 115 -3 170 18 56 20 134 54 282 124 28 12 77 35 110 50 114 52 191 87
315 147 69 33 148 71 175 83 28 13 104 49 170 80 155 72 194 91 225 104 14 6
32 15 40 19 8 5 35 18 60 29 25 11 77 35 115 53 39 18 97 45 130 60 172 80
246 115 310 145 39 19 86 41 105 49 19 9 42 20 50 25 8 4 53 27 100 49 133 62
260 122 315 147 28 12 93 43 145 68 143 67 310 146 355 166 96 45 220 103 345
164 74 35 142 67 150 71 8 3 22 10 30 15 8 5 40 20 70 34 30 13 96 44 145 67
50 23 124 58 165 77 41 20 83 39 93 44 9 5 25 13 35 18 9 5 42 20 72 34 30 13
109 50 175 81 66 32 138 66 160 76 48 22 314 151 515 248 80 39 181 87 225
107 44 20 132 62 195 92 114 54 177 84 380 181 254 120 480 229 800 384 102
49 208 100 235 113 28 12 88 41 135 63 47 22 92 42 100 46 8 3 22 10 30 15 13
8 179 88 325 156 28 12 176 84 330 160 282 137 393 191 495 238 115 53 303
144 538 259 134 65 249 117 254 116 6 -2 -29 -34 -78 -71 -153 -115 -252 -189
-354 -267 -54 -41 -137 -104 -185 -140 -47 -36 -123 -93 -168 -127 -45 -35
-90 -69 -99 -75 -30 -22 -231 -177 -392 -303 -85 -66 -164 -127 -176 -135 -12
-8 -48 -35 -80 -60 -32 -25 -68 -52 -80 -60 -12 -8 -48 -35 -80 -60 -32 -25
-70 -54 -86 -65 -15 -11 -83 -63 -150 -115 -67 -52 -161 -124 -208 -160 -48
-36 -99 -75 -114 -88 -15 -12 -31 -26 -37 -30 -76 -55 -272 -204 -351 -267
-56 -44 -114 -89 -130 -100 -15 -11 -51 -38 -80 -60 -29 -22 -65 -49 -80 -60
-15 -11 -53 -39 -83 -62 -31 -24 -64 -48 -73 -55 -54 -40 -205 -156 -311 -238
-68 -52 -141 -108 -164 -125 -23 -16 -101 -76 -175 -132 -168 -130 -367 -280
-436 -330 -29 -21 -59 -43 -65 -48 -12 -11 -240 -183 -450 -342 -107 -80 -186
-139 -245 -180 -9 -7 -65 -50 -124 -95 -59 -46 -146 -112 -193 -148 -47 -36
-91 -70 -98 -75 -12 -10 -36 -27 -253 -185 -64 -47 -164 -121 -221 -165 -57
-44 -138 -106 -181 -138 -142 -107 -557 -416 -587 -437 -29 -21 -435 -323
-485 -362 -14 -10 -70 -54 -125 -96 -55 -42 -120 -90 -145 -107 -52 -35 -250
-183 -361 -270 -41 -33 -90 -71 -109 -85 -128 -94 -220 -174 -244 -210 -39
-59 -66 -143 -66 -205 0 -55 25 -140 56 -191 44 -72 97 -118 184 -162 55 -28
229 -59 397 -72 70 -5 152 -14 183 -20 30 -5 112 -14 182 -20 70 -5 146 -14
170 -19 24 -5 105 -15 180 -21 75 -5 160 -15 187 -20 28 -5 114 -14 193 -20
79 -5 158 -14 176 -19 18 -5 81 -13 140 -16 59 -4 148 -13 197 -21 50 -8 146
-19 215 -24 69 -5 148 -14 176 -19 28 -6 118 -15 200 -21 82 -6 165 -15 184
-20 19 -5 98 -14 175 -19 77 -6 163 -15 191 -20 28 -5 115 -15 193 -21 79 -5
162 -15 186 -20 23 -5 101 -14 171 -20 71 -6 149 -14 174 -19 25 -5 86 -12
135 -16 50 -3 133 -12 185 -20 52 -8 133 -17 180 -20 76 -5 230 -21 530 -55
52 -6 149 -15 215 -21 66 -5 192 -19 280 -29 88 -10 201 -22 250 -25 50 -4
108 -10 130 -15 22 -5 107 -14 188 -20 81 -5 168 -15 194 -20 25 -6 107 -15
182 -20 75 -5 161 -13 191 -19 30 -5 124 -15 208 -21 84 -7 167 -16 185 -21
17 -5 81 -12 142 -15 60 -3 148 -12 195 -20 47 -7 146 -18 220 -23 75 -6 157
-15 183 -20 25 -6 110 -15 187 -21 77 -6 160 -14 183 -19 23 -5 110 -15 192
-21 83 -6 166 -15 185 -20 19 -5 78 -12 130 -15 52 -3 140 -13 195 -20 55 -8
168 -19 250 -25 83 -6 166 -15 185 -20 19 -5 96 -14 170 -19 74 -6 178 -17
230 -26 52 -8 133 -15 180 -16 47 0 94 -4 105 -8 l20 -8 -20 -6 c-28 -9 -165
-24 -325 -37 -74 -6 -153 -15 -175 -20 -22 -5 -98 -14 -170 -20 -71 -6 -175
-17 -230 -25 -55 -8 -143 -17 -195 -20 -52 -4 -115 -11 -139 -16 -24 -5 -103
-14 -175 -20 -72 -5 -169 -16 -216 -23 -47 -8 -134 -17 -195 -20 -60 -4 -126
-11 -145 -16 -19 -5 -100 -14 -180 -19 -80 -6 -197 -17 -260 -26 -63 -8 -162
-19 -220 -25 -223 -22 -309 -31 -425 -47 -66 -8 -169 -19 -228 -24 -59 -4
-134 -13 -165 -18 -31 -6 -118 -15 -192 -21 -74 -6 -157 -15 -185 -21 -27 -5
-111 -14 -185 -20 -74 -5 -160 -14 -190 -19 -30 -5 -116 -14 -190 -20 -74 -6
-178 -17 -230 -25 -52 -7 -140 -16 -194 -20 -55 -3 -118 -10 -142 -15 -23 -5
-107 -15 -186 -20 -78 -6 -163 -16 -187 -21 -24 -5 -103 -14 -175 -19 -72 -6
-155 -15 -184 -20 -29 -5 -112 -14 -185 -20 -72 -6 -157 -15 -187 -21 -30 -5
-104 -14 -165 -19 -60 -5 -173 -16 -250 -24 -77 -9 -180 -20 -230 -26 -49 -5
-130 -14 -180 -20 -206 -24 -445 -50 -520 -55 -44 -4 -96 -10 -115 -15 -19 -5
-91 -14 -160 -19 -69 -6 -179 -17 -245 -25 -214 -27 -398 -47 -515 -57 -63 -5
-140 -14 -170 -20 -30 -5 -122 -14 -203 -20 -82 -5 -167 -13 -191 -19 -23 -5
-101 -14 -174 -20 -73 -6 -176 -17 -230 -25 -53 -8 -122 -15 -152 -15 -30 0
-100 -7 -155 -15 -119 -18 -187 -50 -268 -125 -36 -34 -68 -76 -93 -127 -37
-73 -39 -81 -38 -167 1 -77 5 -100 28 -148 15 -31 49 -79 76 -107 45 -46 252
-214 332 -269 18 -13 97 -69 175 -125 77 -56 151 -109 163 -117 12 -8 39 -28
59 -44 20 -15 52 -39 71 -52 19 -13 58 -41 86 -61 240 -177 342 -251 363 -265
15 -10 53 -38 86 -62 33 -25 96 -70 140 -101 44 -30 107 -75 140 -100 33 -24
83 -60 110 -80 28 -19 77 -55 110 -80 33 -24 83 -60 110 -80 28 -19 75 -53
105 -76 30 -22 71 -51 90 -64 19 -13 60 -42 90 -63 30 -22 91 -66 135 -96 44
-31 121 -86 170 -121 50 -36 97 -68 105 -72 8 -4 47 -32 87 -62 39 -31 84 -65
99 -76 16 -11 91 -66 169 -122 77 -56 155 -112 173 -125 59 -42 74 -53 100
-74 27 -21 241 -176 282 -204 12 -8 46 -33 75 -55 30 -22 79 -58 110 -80 30
-22 80 -58 110 -80 30 -22 71 -51 90 -65 20 -14 59 -42 88 -63 63 -46 261
-188 302 -217 17 -12 80 -57 140 -100 61 -43 125 -89 143 -102 18 -13 54 -39
80 -59 26 -19 81 -59 122 -87 76 -52 89 -62 235 -165 44 -31 109 -77 145 -102
36 -25 85 -61 110 -80 25 -19 68 -50 95 -69 28 -20 75 -54 105 -76 30 -22 86
-61 123 -87 38 -27 84 -59 102 -73 18 -14 43 -32 55 -40 13 -8 35 -24 49 -35
14 -12 37 -28 51 -37 14 -10 46 -32 71 -50 25 -18 74 -53 109 -78 35 -25 84
-60 109 -78 25 -18 82 -57 126 -88 44 -30 100 -70 125 -89 25 -19 68 -50 95
-70 28 -19 84 -60 125 -90 41 -30 104 -74 140 -99 36 -25 88 -62 115 -81 51
-37 116 -82 143 -100 8 -5 64 -46 123 -90 60 -44 132 -96 159 -115 28 -19 66
-46 84 -60 19 -14 44 -32 56 -40 12 -8 39 -28 59 -44 20 -15 65 -48 101 -72
36 -24 90 -61 120 -83 30 -22 105 -74 165 -116 129 -89 160 -113 152 -121 -5
-6 -129 49 -219 96 -20 11 -41 20 -47 20 -9 0 -43 15 -226 99 -22 10 -56 25
-75 34 -42 18 -139 62 -195 88 -165 76 -217 99 -226 99 -5 0 -27 8 -47 19 -20
10 -58 28 -84 40 -80 35 -129 58 -208 94 -41 19 -104 47 -140 62 -36 15 -83
36 -105 45 -63 29 -136 61 -182 81 -52 23 -108 48 -188 84 -33 15 -76 34 -95
42 -19 9 -55 25 -80 36 -97 43 -127 56 -180 77 -78 31 -158 68 -392 179 -48
22 -91 41 -94 41 -4 0 -28 9 -53 21 -95 44 -200 90 -266 119 -22 9 -61 27 -87
39 -27 11 -68 30 -93 41 -25 11 -64 29 -87 39 -24 10 -68 29 -98 41 -30 12
-73 31 -96 41 -23 11 -47 19 -53 19 -7 0 -29 8 -49 19 -35 18 -86 41 -177 81
-22 10 -70 32 -107 49 -38 17 -98 45 -135 62 -75 34 -130 59 -198 89 -25 11
-64 29 -87 39 -24 10 -65 28 -93 40 -27 12 -67 31 -87 41 -20 11 -42 20 -48
20 -7 0 -50 18 -96 40 -47 22 -89 40 -95 40 -5 0 -29 10 -52 21 -98 50 -117
59 -128 59 -6 0 -39 13 -73 29 -33 16 -88 41 -121 56 -33 15 -85 38 -115 52
-30 14 -74 34 -97 44 -24 10 -64 29 -90 40 -27 12 -65 30 -85 40 -20 11 -43
19 -51 19 -8 0 -20 6 -26 14 -7 8 -27 18 -44 22 -18 3 -48 14 -67 24 -33 16
-60 29 -175 80 -25 11 -65 29 -90 40 -25 11 -64 28 -87 39 -24 10 -59 25 -78
34 -19 8 -62 27 -95 41 -33 15 -77 35 -97 46 -20 11 -42 20 -48 20 -6 0 -50
18 -98 41 -128 60 -161 75 -222 99 -30 12 -74 31 -97 41 -69 31 -125 56 -178
80 -27 12 -68 31 -90 40 -22 10 -74 33 -115 52 -41 19 -95 44 -120 55 -25 11
-71 32 -102 46 -31 14 -60 26 -63 26 -4 0 -45 18 -91 40 -47 22 -90 40 -98 40
-7 0 -19 7 -26 15 -7 8 -17 15 -24 15 -6 0 -36 12 -66 26 -30 14 -73 34 -95
44 -22 10 -61 27 -86 39 -25 12 -52 21 -58 21 -7 0 -29 8 -49 19 -20 10 -57
28 -82 39 -25 11 -79 36 -120 55 -94 44 -183 85 -235 108 -73 33 -188 86 -288
133 -53 25 -100 46 -104 46 -3 0 -24 8 -47 19 -67 31 -140 52 -199 58 -79 8
-186 -26 -253 -80 -56 -46 -86 -85 -121 -160 -19 -40 -23 -66 -23 -140 0 -125
19 -184 170 -512 17 -38 49 -107 71 -152 21 -46 39 -85 39 -89 0 -3 14 -36 31
-73 34 -73 83 -179 104 -226 7 -16 34 -74 59 -128 25 -53 46 -99 46 -102 0 -5
55 -124 115 -250 18 -38 54 -115 80 -170 26 -55 64 -136 85 -180 72 -152 128
-270 155 -330 15 -33 41 -89 57 -125 42 -89 80 -172 118 -255 33 -73 41 -91
135 -290 31 -66 67 -142 80 -170 13 -27 48 -102 78 -165 31 -63 60 -126 66
-140 6 -14 15 -32 20 -40 9 -15 43 -87 100 -215 17 -38 40 -88 51 -110 10 -22
31 -67 45 -100 15 -33 47 -100 70 -150 24 -49 62 -130 85 -180 43 -91 150
-314 220 -460 22 -44 44 -91 50 -105 5 -14 14 -32 19 -40 13 -22 84 -175 116
-250 28 -66 72 -161 152 -330 25 -52 59 -124 75 -160 41 -89 94 -202 165 -350
33 -69 65 -136 72 -150 6 -14 15 -32 20 -40 12 -20 72 -148 111 -240 17 -41
40 -93 50 -115 10 -22 20 -47 24 -55 3 -8 10 -22 15 -30 12 -20 153 -317 238
-500 19 -41 57 -122 85 -180 90 -188 157 -333 193 -415 19 -43 84 -183 143
-305 85 -179 158 -333 182 -385 12 -27 39 -86 60 -130 21 -44 40 -87 44 -95 3
-8 10 -22 16 -30 5 -8 14 -26 20 -40 5 -14 14 -32 20 -40 5 -8 14 -26 20 -40
5 -14 14 -32 19 -40 5 -8 27 -53 49 -100 21 -47 67 -143 101 -214 34 -70 60
-130 58 -132 -5 -5 -148 179 -277 356 -30 42 -127 166 -205 265 -13 17 -67 86
-119 155 -185 243 -261 341 -288 373 -15 18 -45 57 -65 87 -21 30 -49 66 -62
80 -13 14 -31 36 -40 50 -13 20 -102 141 -187 255 -8 11 -35 47 -59 80 -25 33
-58 76 -74 95 -16 19 -44 56 -63 82 -18 26 -80 108 -138 183 -58 76 -121 159
-140 185 -42 59 -274 367 -357 475 -5 6 -30 41 -58 78 -27 38 -77 104 -110
148 -33 44 -87 116 -120 160 -33 44 -87 116 -120 159 -33 44 -86 115 -118 157
-32 43 -88 119 -125 168 -37 50 -99 131 -137 181 -87 112 -94 122 -199 264
-46 63 -91 124 -100 135 -9 11 -45 58 -81 105 -36 47 -78 101 -94 120 -16 19
-42 53 -56 74 -15 22 -46 63 -68 92 -23 29 -59 77 -80 106 -156 218 -306 420
-372 500 -27 34 -66 83 -85 109 -19 26 -57 76 -83 111 -26 35 -69 91 -95 126
-87 116 -270 360 -337 447 -25 33 -62 84 -82 114 -21 30 -52 71 -70 90 -18 20
-33 39 -33 42 0 3 -37 54 -82 112 -85 109 -153 200 -258 342 -84 113 -136 183
-242 321 -51 67 -131 174 -178 239 -47 64 -112 153 -145 196 -33 43 -78 104
-100 135 -41 57 -113 154 -141 189 -8 11 -36 49 -62 85 -74 102 -158 186 -215
214 -29 14 -77 30 -108 36 -45 9 -70 8 -122 -4 -36 -9 -79 -24 -96 -34 -51
-31 -111 -91 -147 -147 -59 -93 -72 -143 -94 -352 -5 -57 -15 -149 -20 -205
-6 -57 -18 -155 -26 -218 -8 -63 -19 -171 -24 -240 -5 -69 -14 -147 -19 -175
-5 -27 -12 -95 -16 -150 -4 -55 -13 -140 -20 -190 -8 -49 -19 -155 -25 -233
-6 -79 -15 -163 -20 -186 -5 -23 -14 -108 -20 -191 -5 -82 -14 -165 -19 -184
-5 -20 -15 -99 -21 -176 -6 -77 -17 -178 -25 -224 -8 -46 -15 -107 -15 -135 0
-28 -7 -89 -15 -136 -7 -47 -19 -145 -25 -219 -6 -74 -15 -155 -20 -180 -5
-25 -14 -107 -19 -182 -6 -75 -15 -156 -20 -180 -5 -24 -12 -87 -16 -139 -3
-52 -13 -140 -21 -195 -7 -55 -19 -158 -24 -230 -6 -71 -15 -148 -21 -170 -5
-22 -13 -92 -18 -155 -9 -104 -24 -245 -51 -480 -6 -47 -15 -128 -20 -180 -6
-52 -15 -131 -20 -175 -6 -44 -15 -125 -20 -180 -6 -55 -17 -156 -26 -225 -8
-69 -19 -179 -24 -246 -5 -66 -14 -143 -20 -170 -5 -27 -14 -103 -19 -169 -5
-66 -16 -178 -25 -250 -15 -128 -26 -236 -46 -437 -6 -57 -17 -157 -26 -223
-8 -66 -19 -172 -24 -236 -5 -64 -14 -138 -20 -165 -5 -27 -14 -103 -19 -169
-5 -66 -17 -181 -26 -255 -14 -120 -28 -240 -65 -555 -6 -49 -15 -139 -21
-200 -5 -60 -17 -156 -25 -211 -8 -56 -17 -132 -20 -170 -3 -38 -14 -141 -24
-229 -27 -219 -39 -332 -51 -455 -6 -58 -13 -129 -15 -158 -3 -30 -8 -52 -10
-49 -9 8 -33 166 -44 288 -6 68 -16 141 -21 161 -5 20 -14 94 -19 165 -5 70
-16 173 -24 228 -8 55 -19 145 -25 200 -6 55 -15 138 -21 185 -14 122 -29 261
-41 370 -5 52 -18 163 -29 245 -10 83 -21 188 -24 234 -3 47 -12 130 -20 185
-15 98 -24 179 -47 391 -5 55 -19 172 -29 260 -11 88 -22 200 -25 250 -4 49
-11 111 -16 138 -5 26 -14 110 -19 185 -6 75 -15 156 -20 179 -6 22 -15 106
-20 185 -6 78 -15 162 -20 184 -5 23 -14 101 -20 174 -5 73 -16 183 -25 244
-8 61 -19 163 -24 226 -13 145 -27 273 -51 470 -10 85 -22 189 -25 230 -3 41
-10 98 -15 125 -5 28 -14 107 -19 176 -6 69 -17 168 -25 220 -8 52 -19 146
-25 209 -10 111 -20 212 -41 405 -6 50 -15 135 -20 190 -6 55 -18 154 -26 220
-8 66 -19 181 -25 255 -6 74 -14 154 -19 177 -6 23 -14 95 -20 160 -5 65 -16
165 -24 223 -8 58 -20 150 -25 205 -6 55 -15 138 -21 185 -5 47 -14 130 -20
185 -18 173 -31 286 -46 401 -8 61 -19 172 -24 245 -6 74 -15 159 -20 189 -6
31 -14 114 -20 185 -5 72 -16 184 -24 250 -9 66 -20 176 -26 245 -22 256 -38
325 -96 417 -57 90 -185 163 -285 163 -74 0 -171 -43 -233 -104 -43 -42 -213
-259 -276 -352 -8 -13 -65 -89 -127 -171 -62 -81 -129 -172 -150 -200 -21 -29
-56 -78 -78 -108 -22 -30 -58 -79 -80 -110 -56 -77 -120 -163 -156 -207 -17
-21 -56 -73 -87 -115 -31 -43 -60 -82 -65 -88 -14 -18 -91 -120 -112 -149 -11
-15 -38 -51 -60 -80 -22 -29 -49 -65 -60 -80 -11 -15 -47 -63 -80 -107 -33
-43 -78 -103 -100 -134 -22 -31 -49 -68 -61 -83 -11 -15 -66 -88 -122 -162
-56 -74 -110 -146 -121 -160 -47 -59 -153 -201 -256 -345 -22 -30 -77 -103
-122 -163 -45 -59 -89 -116 -97 -127 -9 -11 -35 -45 -59 -75 -24 -30 -80 -104
-125 -165 -44 -60 -87 -117 -94 -125 -7 -8 -26 -35 -43 -60 -38 -57 -263 -360
-284 -382 -9 -9 -33 -40 -54 -70 -45 -62 -469 -629 -503 -673 -13 -16 -32 -40
-41 -53 -10 -13 -27 -34 -38 -47 -11 -13 -49 -63 -85 -110 -36 -48 -99 -131
-140 -185 -41 -54 -93 -124 -115 -155 -22 -30 -51 -71 -65 -90 -14 -19 -41
-57 -60 -85 -33 -48 -63 -87 -295 -390 -94 -121 -139 -182 -218 -292 -57 -78
-268 -359 -372 -493 -49 -65 -101 -133 -115 -151 -40 -55 -469 -628 -535 -714
-33 -43 -98 -129 -145 -191 -47 -61 -112 -147 -145 -190 -33 -44 -78 -104
-100 -134 -94 -130 -130 -175 -133 -165 -2 5 24 67 58 138 33 70 69 145 79
167 10 22 52 110 94 195 41 85 92 191 112 235 67 145 92 198 170 360 84 174
120 252 129 275 3 8 10 22 15 30 5 8 21 42 36 75 46 102 125 272 300 640 23
50 61 131 85 180 23 50 69 146 102 215 66 137 94 197 102 220 3 8 10 22 15 30
5 8 18 35 29 60 32 73 112 243 272 575 21 44 53 112 71 150 46 101 84 184 151
325 69 142 124 260 161 340 59 128 132 281 172 365 24 50 62 131 85 180 23 50
59 126 80 170 42 87 124 262 172 365 17 36 45 97 63 135 18 39 44 95 58 125
14 30 44 96 68 145 60 128 112 238 152 325 88 189 114 244 178 377 38 79 69
145 69 148 0 6 35 80 151 320 111 232 169 355 169 363 0 4 18 43 40 87 22 44
40 83 40 87 0 4 19 47 41 95 23 49 55 117 71 153 17 36 44 94 60 130 17 36 39
83 49 105 27 60 96 209 139 300 67 142 107 228 135 295 28 68 47 110 85 195
13 28 32 70 43 95 11 25 26 57 34 72 7 14 20 63 29 109 12 67 13 95 4 147 -13
78 -49 149 -110 220 -88 102 -187 152 -303 152 -104 0 -165 -21 -427 -147 -63
-30 -128 -61 -145 -68 -16 -7 -59 -27 -95 -43 -36 -16 -96 -44 -135 -61 -38
-18 -90 -41 -115 -53 -45 -21 -99 -45 -177 -79 -24 -11 -64 -29 -90 -40 -98
-44 -130 -58 -193 -84 -36 -15 -96 -41 -135 -59 -38 -18 -99 -45 -135 -60 -36
-15 -81 -35 -100 -43 -19 -9 -54 -24 -77 -34 -55 -24 -113 -50 -188 -84 -33
-15 -76 -34 -95 -43 -19 -8 -44 -19 -55 -25 -11 -6 -27 -13 -35 -17 -67 -30
-114 -51 -170 -75 -36 -14 -78 -33 -95 -40 -16 -7 -79 -35 -140 -61 -60 -25
-144 -62 -185 -81 -116 -53 -150 -68 -220 -98 -36 -15 -74 -34 -85 -41 -11 -8
-28 -14 -38 -14 -10 0 -35 -9 -55 -19 -20 -11 -107 -50 -192 -87 -176 -76
-288 -126 -342 -155 -20 -10 -42 -19 -48 -19 -6 0 -50 -18 -98 -41 -112 -52
-167 -78 -217 -99 -22 -9 -61 -27 -87 -39 -27 -11 -69 -31 -95 -42 -101 -46
-131 -59 -238 -104 -60 -26 -126 -54 -145 -62 -19 -9 -53 -24 -75 -33 -22 -10
-67 -30 -100 -45 -58 -26 -85 -38 -170 -75 -123 -53 -173 -76 -307 -139 -48
-23 -90 -41 -93 -41 -4 0 -32 -12 -63 -26 -31 -14 -70 -31 -87 -38 -16 -7 -50
-22 -75 -33 -25 -11 -70 -30 -100 -43 -30 -12 -73 -30 -95 -40 -22 -9 -60 -26
-85 -37 -82 -35 -144 -64 -182 -84 -20 -10 -42 -19 -47 -19 -6 0 -48 -17 -93
-38 -46 -22 -148 -67 -228 -101 -80 -35 -163 -71 -185 -81 -119 -54 -163 -74
-195 -87 -145 -64 -210 -93 -252 -114 -20 -11 -42 -19 -48 -19 -6 0 -50 -18
-98 -41 -114 -53 -168 -78 -217 -99 -22 -9 -60 -27 -85 -39 -25 -11 -51 -21
-58 -21 -7 0 -30 -8 -50 -19 -36 -18 -87 -41 -174 -80 -69 -30 -205 -91 -270
-121 -24 -10 -82 -37 -131 -60 -48 -22 -92 -40 -98 -40 -5 0 -27 -9 -47 -20
-43 -23 -211 -100 -218 -100 -3 0 -31 -12 -62 -26 -31 -14 -77 -35 -102 -46
-25 -11 -79 -36 -120 -55 -41 -19 -93 -43 -115 -53 -22 -10 -79 -37 -128 -61
-48 -23 -89 -40 -92 -37 -5 5 61 61 130 108 28 19 70 51 95 70 25 20 77 57
115 84 39 26 95 65 125 87 30 22 71 51 90 65 19 13 55 39 80 57 124 91 214
155 260 187 28 19 66 46 85 60 19 14 82 59 140 100 58 41 133 95 165 120 33
25 83 62 112 83 29 21 100 72 158 115 123 89 166 121 275 197 44 31 107 76
140 101 33 24 76 55 95 69 19 13 58 40 85 60 28 19 86 60 130 91 44 30 105 73
135 95 30 22 66 48 80 57 14 9 45 32 70 52 25 20 63 48 85 63 22 15 81 57 130
92 50 36 115 82 145 102 30 21 60 41 65 46 11 8 168 120 223 159 18 13 69 50
112 83 43 33 88 67 100 75 12 8 37 26 56 40 18 14 56 41 84 60 28 19 66 46 85
60 19 14 57 41 85 60 28 19 66 46 84 60 19 14 44 32 56 40 12 8 39 27 59 43
39 30 53 39 107 77 19 14 57 42 84 63 27 20 52 37 55 37 3 0 28 17 55 38 27
20 61 46 77 57 15 11 90 66 168 122 77 56 154 111 170 123 17 12 69 49 117 83
47 34 96 69 108 77 13 8 35 24 49 36 14 11 33 24 41 27 8 4 42 27 75 52 33 25
83 61 110 80 28 20 77 56 110 80 59 44 102 75 188 135 23 16 67 48 97 70 30
22 78 56 105 75 28 20 77 56 110 81 33 24 71 52 86 62 14 9 114 82 223 162
272 199 294 215 351 255 28 20 77 56 110 80 33 25 92 66 130 93 147 101 212
147 257 181 88 68 474 346 568 409 30 20 60 40 65 44 17 14 82 61 141 103 113
81 320 247 345 278 45 54 77 129 93 212 13 74 13 86 -2 147 -10 36 -23 72 -29
79 -6 8 -17 28 -26 44 -21 41 -87 108 -137 140 -64 40 -154 64 -275 70 -60 4
-179 15 -263 26 -84 10 -174 19 -200 19 -26 0 -83 6 -127 14 -44 8 -116 17
-160 20 -73 6 -283 28 -525 56 -52 6 -142 15 -200 21 -58 5 -172 19 -255 30
-82 10 -171 19 -196 19 -26 0 -84 7 -130 14 -46 8 -147 20 -224 26 -77 6 -158
15 -180 20 -22 5 -76 12 -120 15 -44 3 -159 14 -255 25 -268 29 -363 39 -515
55 -77 8 -171 19 -210 25 -38 5 -130 15 -204 20 -73 6 -154 15 -180 20 -25 5
-107 14 -181 20 -74 6 -154 15 -178 21 -24 5 -108 14 -187 19 -79 5 -163 14
-187 19 -24 6 -86 13 -138 16 -52 4 -156 15 -231 26 -75 10 -163 19 -195 20
-33 0 -84 4 -114 9 -30 5 -104 14 -165 20 -60 6 -161 18 -222 26 -62 8 -168
19 -235 24 -68 5 -146 14 -173 19 -28 6 -113 15 -190 21 -77 6 -158 15 -180
20 -22 5 -83 12 -135 15 -52 4 -156 15 -231 26 -75 10 -159 19 -186 19 -28 0
-89 7 -135 15 -47 8 -145 19 -219 24 -121 8 -187 15 -484 51 -49 6 -139 15
-200 21 -60 5 -174 19 -252 29 -78 11 -168 20 -200 21 -32 0 -83 4 -113 9 -30
5 -102 14 -160 20 -58 6 -179 19 -270 30 -91 10 -228 24 -305 30 -164 14 -244
28 -224 41 8 5 50 9 94 9 44 1 112 5 150 10 39 5 124 14 190 20 66 6 190 20
275 30 85 10 200 22 255 25 55 4 119 10 142 15 22 6 105 15 184 20 78 6 165
15 192 21 28 5 116 14 196 20 80 5 162 14 181 19 19 5 94 14 165 19 72 6 186
17 255 25 69 9 170 20 225 25 55 6 141 15 190 21 271 32 440 50 520 56 50 3
110 10 134 15 24 5 110 14 191 19 81 5 167 14 191 19 24 5 109 15 189 21 80 6
188 17 240 25 52 8 149 19 215 24 169 15 311 30 450 47 66 9 171 20 234 24 62
5 159 16 215 24 55 8 144 18 196 21 52 3 140 12 195 20 55 8 147 19 205 24 58
6 143 15 190 21 47 5 130 14 185 20 108 11 203 21 415 46 74 8 189 20 255 25
66 5 139 13 162 19 23 5 108 15 190 20 81 6 166 15 188 20 22 6 108 15 190 21
83 5 170 15 195 20 24 6 104 14 177 20 74 5 175 15 226 23 50 8 137 17 192 21
55 3 119 11 143 16 23 5 98 14 165 19 67 5 176 16 242 25 256 32 453 54 530
60 199 14 349 50 412 98 40 30 123 122 123 136 0 9 7 30 16 46 10 18 19 64 22
112 4 69 1 93 -18 144 -13 33 -39 80 -59 104 -32 40 -145 132 -311 255 -30 22
-102 76 -160 120 -176 133 -257 194 -292 218 -34 23 -246 182 -376 282 -142
108 -232 176 -299 225 -37 27 -109 81 -160 120 -50 38 -128 97 -172 130 -44
33 -118 88 -163 122 -46 35 -108 81 -138 103 -30 23 -116 87 -190 142 -74 56
-196 145 -270 199 -74 54 -159 115 -188 136 -28 21 -133 101 -232 178 -98 77
-205 159 -237 183 -32 23 -93 68 -135 100 -141 104 -249 186 -374 282 -68 52
-150 115 -184 140 -33 25 -69 52 -79 60 -11 8 -81 60 -156 115 -75 55 -171
127 -214 160 -42 33 -90 69 -105 80 -16 11 -38 28 -50 38 -35 28 -229 177
-316 242 -44 33 -119 89 -165 125 -47 36 -121 92 -166 125 -45 33 -138 104
-208 157 -69 54 -137 105 -150 115 -13 10 -37 30 -55 44 -39 32 -163 127 -200
154 -15 11 -63 47 -106 80 -44 33 -115 87 -159 120 -45 33 -153 116 -241 185
-88 69 -194 150 -235 180 -41 30 -114 84 -160 120 -47 36 -132 101 -191 145
-58 44 -114 87 -124 96 -10 8 -31 24 -45 35 -15 10 -50 37 -79 59 -29 22 -65
49 -80 60 -15 11 -86 65 -157 120 -113 88 -248 192 -448 345 -32 25 -69 52
-81 60 -32 22 -141 105 -175 134 -16 14 -25 25 -18 26 7 0 67 -28 135 -61 68
-34 141 -69 163 -80 40 -18 276 -130 450 -214 50 -24 97 -46 105 -49 8 -3 22
-10 30 -15 17 -11 547 -271 690 -338 52 -25 149 -71 215 -103 121 -59 280
-135 455 -217 52 -25 102 -49 110 -54 8 -5 26 -14 40 -20 14 -6 32 -15 40 -20
8 -5 26 -14 40 -20 14 -5 99 -46 190 -91 162 -78 182 -88 218 -107 16 -9 215
-104 327 -156 113 -53 298 -141 430 -205 77 -37 185 -89 240 -115 162 -76 282
-134 410 -195 66 -32 152 -72 190 -90 39 -18 115 -54 170 -80 116 -56 325
-156 440 -210 241 -115 326 -155 480 -230 94 -45 195 -93 225 -107 30 -14 91
-42 135 -63 44 -21 114 -53 155 -73 41 -19 120 -56 175 -82 102 -48 201 -95
335 -158 41 -19 140 -66 220 -105 80 -38 179 -85 220 -105 168 -79 318 -150
365 -172 28 -13 102 -48 165 -78 63 -30 138 -64 165 -77 180 -82 276 -126 435
-203 176 -84 354 -169 458 -218 45 -21 119 -57 165 -78 143 -68 180 -82 262
-97 67 -13 93 -14 160 -4 44 7 96 22 115 33 61 36 121 89 158 139 64 89 74
117 79 210 5 75 2 98 -22 175 -16 48 -34 97 -42 108 -7 11 -13 26 -13 35 0 8
-9 32 -20 53 -11 20 -20 42 -20 48 0 6 -6 25 -14 42 -56 126 -66 151 -66 166
0 9 -9 30 -20 46 -11 17 -20 39 -20 50 0 11 -6 29 -14 40 -7 11 -26 52 -41 90
-15 39 -35 88 -45 110 -10 22 -27 63 -38 90 -58 145 -107 265 -127 310 -7 17
-23 55 -35 85 -12 30 -30 73 -41 95 -10 22 -19 46 -19 53 0 8 -7 26 -15 40 -8
15 -21 45 -29 67 -8 22 -24 65 -36 95 -12 30 -29 73 -36 95 -8 22 -21 54 -28
70 -8 17 -24 55 -36 85 -12 30 -31 74 -41 98 -10 23 -19 48 -19 54 0 6 -8 29
-19 52 -17 39 -33 77 -81 196 -11 28 -29 74 -41 103 -12 28 -29 70 -39 92 -10
22 -27 63 -38 90 -11 28 -29 74 -41 103 -23 58 -50 125 -82 205 -11 28 -29 70
-40 92 -10 22 -19 45 -19 50 -1 6 -9 28 -20 50 -11 22 -19 47 -20 55 0 8 -9
30 -20 48 -11 18 -20 40 -20 50 0 10 -6 26 -14 37 -7 11 -19 38 -26 60 -7 22
-19 49 -26 60 -8 11 -14 26 -14 35 0 8 -9 32 -20 53 -11 20 -20 43 -20 49 -1
7 -9 31 -20 53 -11 22 -19 46 -20 52 0 7 -9 32 -19 55 -10 24 -29 68 -41 98
-12 30 -31 73 -41 96 -11 23 -19 45 -19 50 0 5 -9 27 -19 49 -11 22 -29 65
-41 95 -12 30 -31 73 -41 96 -11 23 -19 48 -19 55 0 8 -7 24 -15 35 -13 20
-24 45 -60 147 -9 23 -22 56 -29 72 -8 17 -23 54 -35 83 -12 28 -30 75 -41
102 -11 28 -29 73 -40 100 -11 28 -29 73 -40 100 -53 132 -63 158 -81 198 -10
23 -19 48 -19 55 0 7 -9 29 -20 50 -11 20 -20 43 -20 49 -1 7 -9 31 -20 53
-11 22 -19 44 -20 49 0 5 -8 27 -19 50 -17 39 -33 77 -81 196 -45 113 -63 157
-80 195 -10 22 -21 51 -25 65 -4 14 -14 34 -21 45 -8 11 -14 26 -14 34 0 7 -8
32 -19 55 -50 110 -61 137 -61 148 0 6 -8 29 -19 52 -50 111 -61 137 -61 149
0 6 -7 26 -16 42 -9 17 -22 51 -30 77 -8 26 -19 50 -24 53 -6 3 -10 15 -10 26
0 10 -9 36 -20 56 -11 21 -20 45 -20 53 0 8 -9 29 -20 45 -11 17 -20 36 -20
44 0 8 -9 32 -19 55 -11 23 -31 73 -46 111 -14 39 -32 82 -40 97 -8 14 -15 34
-15 45 0 10 -9 32 -20 48 -11 17 -20 36 -20 44 0 8 -9 35 -21 60 -38 83 -67
152 -121 286 -11 28 -29 69 -39 93 -10 23 -19 48 -19 55 0 7 -9 29 -20 50 -11
20 -20 42 -20 48 0 7 -8 30 -19 53 -10 23 -28 64 -39 91 -11 28 -29 74 -41
103 -11 28 -30 76 -42 105 -12 28 -30 71 -40 95 -10 23 -19 48 -19 55 0 7 -9
29 -20 50 -11 20 -20 44 -20 52 0 13 -9 36 -60 150 -10 22 -30 69 -45 105 -15
36 -32 79 -40 95 -7 17 -22 53 -33 80 -45 113 -74 182 -90 212 -9 18 -13 35
-9 39 4 4 9 5 11 3 2 -2 34 -49 70 -104 36 -55 71 -107 76 -115 6 -8 76 -114
157 -235 80 -121 168 -251 194 -290 84 -121 144 -208 177 -255 18 -25 80 -117
138 -205 59 -88 115 -171 125 -185 10 -14 32 -48 48 -76 28 -47 74 -116 170
-254 49 -71 608 -905 635 -948 12 -18 37 -54 56 -80 20 -26 52 -72 72 -102 21
-30 53 -77 73 -105 19 -27 101 -149 182 -270 232 -348 250 -376 305 -455 28
-41 73 -106 99 -145 122 -177 116 -169 157 -234 15 -24 35 -53 44 -65 15 -21
252 -372 422 -626 38 -58 73 -107 76 -110 3 -3 28 -39 55 -80 27 -41 52 -77
55 -80 3 -3 67 -97 142 -210 75 -113 169 -252 209 -310 72 -105 263 -389 286
-426 6 -10 37 -55 68 -99 31 -44 91 -132 133 -195 42 -63 79 -117 82 -120 3
-3 58 -84 122 -180 64 -96 142 -211 173 -255 31 -44 81 -118 112 -165 31 -47
69 -103 84 -125 16 -22 58 -83 94 -135 35 -52 91 -133 124 -180 128 -181 148
-209 239 -345 52 -77 109 -156 126 -175 82 -90 177 -130 309 -130 77 0 89 3
162 40 115 59 183 131 228 240 23 57 52 247 86 580 23 211 35 320 50 445 17
139 31 257 41 355 6 52 15 131 20 175 6 44 15 127 21 185 5 58 14 143 20 190
5 47 14 130 19 185 6 55 15 134 21 175 6 41 15 120 20 175 5 55 16 150 25 210
8 61 19 165 24 232 5 67 14 142 19 165 5 24 12 84 15 133 4 50 15 167 26 260
11 94 24 211 30 260 5 50 14 126 19 170 24 196 32 267 42 370 6 61 19 178 30
260 10 83 19 173 19 201 0 28 7 89 14 135 8 46 20 145 25 219 6 74 15 158 20
185 5 28 12 91 16 140 3 50 12 135 20 190 8 55 19 161 25 235 5 74 14 160 20
190 5 30 14 114 20 186 5 72 14 151 19 175 5 24 14 105 20 179 6 74 15 159 21
189 5 29 15 114 20 188 6 75 15 154 20 178 5 23 14 101 19 171 6 71 15 152 21
179 6 28 14 104 19 170 5 66 16 181 25 255 19 169 34 305 47 440 5 58 16 152
24 210 9 58 20 168 25 245 6 77 15 156 20 175 5 19 14 105 19 190 6 85 15 170
21 189 5 18 14 99 20 180 11 161 27 248 42 233 5 -5 13 -76 18 -159z"/>
  </g>
</svg>