<svg xmlns="http://www.w3.org/2000/svg" viewBox="0 0 4096.000000 4096.000000">
  <g transform="translate(0.000000,4096.000000) scale(0.100000,-0.100000)" fill="#f4f5f7" stroke="#f4f5f7" stroke-width="40" stroke-linejoin="round" stroke-linecap="round">
    <path d="M14575 39195 c-127 -29 -234 -67 -340 -120 -132 -65 -215 -123 -313
-219 -130 -125 -232 -301 -268 -461 -27 -113 -25 -326 4 -510 12 -77 31 -183
42 -237 10 -53 42 -230 70 -395 47 -280 85 -481 130 -703 10 -52 26 -135 35
-185 8 -49 29 -162 46 -250 100 -525 164 -876 179 -980 6 -38 19 -115 30 -170
11 -55 31 -167 45 -250 58 -344 137 -803 170 -990 19 -110 44 -258 55 -330 12
-71 36 -224 56 -340 19 -115 48 -289 64 -385 16 -96 36 -215 45 -265 8 -49 27
-160 41 -245 14 -85 32 -193 40 -240 8 -47 24 -141 35 -210 11 -69 33 -195 49
-280 16 -85 31 -175 35 -200 3 -25 17 -103 30 -175 14 -71 36 -197 50 -280 51
-297 66 -384 115 -655 72 -400 144 -795 190 -1040 22 -118 54 -291 71 -384 16
-93 32 -172 34 -176 3 -4 16 -74 29 -156 14 -82 33 -192 44 -244 11 -52 23
-120 27 -150 3 -30 22 -131 40 -225 37 -180 52 -316 41 -359 -5 -22 -12 -26
-41 -26 -34 0 -103 31 -275 122 -47 25 -146 77 -220 115 -135 71 -192 101
-233 127 -12 7 -85 46 -162 86 -77 40 -144 76 -150 80 -5 4 -91 48 -190 98
-99 50 -239 122 -311 161 -72 38 -196 102 -275 142 -79 39 -173 89 -209 109
-93 53 -200 110 -485 255 -137 70 -254 131 -260 136 -5 4 -228 117 -495 252
-267 134 -525 266 -575 292 -49 26 -128 68 -175 92 -47 25 -276 142 -510 260
-234 119 -443 226 -465 238 -45 26 -400 211 -700 365 -204 105 -293 152 -400
210 -33 18 -112 60 -175 93 -113 59 -236 128 -415 232 -49 29 -110 63 -135 75
-24 13 -60 33 -80 45 -19 12 -114 66 -210 120 -96 54 -225 127 -287 161 -61
35 -123 68 -137 74 -15 5 -99 50 -189 99 -89 49 -207 112 -262 141 -55 29
-167 90 -250 135 -150 82 -266 143 -600 315 -99 51 -277 143 -395 206 -233
122 -411 198 -560 239 -176 48 -390 44 -557 -11 -167 -56 -275 -121 -393 -238
-86 -85 -171 -205 -232 -328 -21 -44 -55 -134 -75 -201 -30 -104 -36 -141 -40
-255 -5 -105 -2 -147 12 -204 24 -101 65 -195 118 -274 117 -176 391 -471 952
-1024 225 -223 532 -525 680 -671 311 -307 610 -598 740 -719 50 -46 182 -174
295 -285 113 -110 287 -277 385 -372 223 -212 271 -258 415 -397 63 -61 162
-154 220 -206 151 -137 222 -204 565 -531 50 -47 135 -125 190 -174 55 -48
105 -93 110 -99 6 -7 62 -59 125 -116 140 -126 466 -428 610 -565 58 -55 182
-172 275 -260 93 -88 230 -218 305 -289 139 -133 670 -665 865 -867 194 -202
483 -498 746 -765 141 -143 266 -275 277 -293 11 -18 17 -41 15 -52 -7 -26
-80 -45 -223 -59 -63 -5 -212 -19 -330 -30 -118 -11 -262 -24 -320 -30 -58 -6
-179 -17 -269 -25 -90 -9 -221 -22 -290 -31 -69 -8 -261 -30 -426 -49 -303
-36 -514 -62 -905 -115 -118 -16 -246 -32 -285 -35 -38 -4 -137 -17 -220 -30
-82 -13 -204 -29 -270 -35 -66 -7 -205 -25 -310 -40 -104 -16 -219 -31 -255
-35 -82 -8 -173 -21 -320 -45 -63 -11 -160 -24 -215 -30 -55 -6 -147 -19 -205
-29 -58 -11 -139 -24 -180 -30 -41 -6 -169 -27 -285 -45 -115 -19 -237 -37
-270 -41 -33 -4 -127 -17 -210 -30 -127 -20 -420 -58 -1090 -140 -66 -8 -210
-26 -320 -39 -110 -14 -256 -32 -325 -40 -402 -48 -972 -128 -1325 -186 -348
-56 -440 -70 -559 -85 -71 -8 -147 -20 -170 -25 -23 -5 -135 -20 -251 -35
-115 -14 -259 -34 -320 -45 -60 -11 -155 -26 -210 -35 -176 -28 -365 -101
-506 -195 -35 -24 -98 -78 -139 -120 -117 -120 -214 -300 -268 -498 -23 -87
-26 -114 -25 -257 0 -139 4 -173 26 -258 59 -224 211 -456 391 -599 105 -84
288 -174 461 -229 177 -55 422 -104 750 -148 428 -58 1323 -186 1360 -195 11
-3 101 -17 199 -31 99 -14 200 -30 224 -36 25 -5 128 -21 231 -35 102 -14 202
-29 221 -34 19 -5 127 -23 240 -39 235 -35 466 -72 625 -101 61 -12 171 -29
245 -39 74 -11 239 -35 365 -55 127 -20 453 -70 725 -111 272 -42 576 -89 675
-105 320 -53 626 -101 790 -125 382 -56 458 -67 605 -90 85 -14 209 -32 275
-40 66 -8 170 -24 230 -35 61 -11 166 -26 235 -35 69 -9 177 -24 240 -35 63
-11 153 -24 200 -30 47 -6 175 -26 285 -45 224 -39 529 -88 650 -105 44 -6
202 -31 350 -56 149 -24 315 -51 370 -60 180 -28 296 -52 311 -64 18 -16 18
-45 -1 -73 -8 -12 -105 -106 -216 -207 -112 -102 -266 -244 -343 -315 -78 -72
-186 -171 -241 -220 -180 -161 -288 -259 -380 -345 -164 -154 -469 -432 -745
-680 -63 -56 -180 -164 -260 -239 -138 -129 -284 -263 -359 -327 -19 -16 -41
-36 -50 -44 -9 -9 -54 -49 -101 -90 -47 -41 -112 -99 -145 -130 -147 -135
-261 -236 -405 -360 -191 -164 -281 -245 -530 -475 -107 -99 -218 -200 -246
-225 -185 -165 -381 -344 -514 -470 -85 -81 -189 -177 -230 -213 -41 -36 -165
-144 -275 -241 -110 -98 -326 -288 -480 -423 -154 -136 -302 -268 -330 -294
-27 -25 -86 -77 -130 -115 -44 -38 -160 -141 -259 -229 -98 -88 -240 -214
-315 -280 -182 -159 -766 -744 -875 -875 -84 -101 -210 -280 -271 -385 -61
-106 -108 -213 -143 -329 -35 -117 -36 -126 -36 -281 1 -148 3 -167 28 -245
16 -47 43 -118 62 -159 85 -184 237 -363 401 -472 114 -76 292 -138 451 -158
95 -12 301 2 435 30 210 43 433 117 722 239 175 73 476 220 625 305 47 27 108
61 135 75 28 15 136 77 240 137 105 60 253 143 330 183 236 124 384 205 720
395 160 91 355 199 435 243 36 19 108 58 160 87 52 29 127 69 165 90 39 21 88
50 110 63 98 62 347 192 540 282 116 54 271 127 345 163 74 36 234 112 355
170 121 58 315 151 430 207 116 56 300 144 410 195 110 51 331 157 490 235
160 78 351 171 425 207 74 36 358 176 630 312 272 136 603 299 735 364 226
110 341 169 745 381 91 47 346 177 567 288 358 180 406 201 430 192 33 -11 42
-42 32 -104 -37 -224 -54 -320 -84 -480 -92 -479 -108 -563 -130 -675 -14 -66
-36 -187 -50 -270 -13 -82 -38 -229 -55 -325 -36 -203 -80 -459 -150 -865
-107 -631 -118 -695 -155 -890 -66 -352 -108 -569 -120 -625 -8 -36 -21 -112
-30 -170 -8 -58 -24 -152 -35 -210 -11 -58 -34 -188 -51 -290 -32 -189 -64
-375 -119 -675 -17 -93 -40 -228 -51 -299 -21 -139 -76 -460 -149 -881 -37
-211 -150 -842 -210 -1170 -33 -181 -76 -420 -96 -530 -19 -110 -46 -256 -59
-325 -13 -69 -29 -161 -35 -205 -6 -44 -22 -134 -35 -200 -13 -66 -56 -322
-95 -570 -39 -247 -85 -531 -101 -630 -35 -207 -61 -410 -80 -607 -10 -107
-10 -162 -1 -255 27 -274 116 -478 281 -644 129 -129 293 -230 485 -298 100
-35 240 -61 335 -61 35 0 111 7 169 16 262 39 511 160 665 324 38 40 101 120
140 179 68 104 289 539 397 786 29 66 63 140 76 165 35 68 244 525 244 534 0
2 34 75 76 163 42 87 105 219 139 293 35 74 90 191 122 260 33 69 75 157 93
195 68 146 196 416 273 575 44 91 103 215 132 275 29 61 87 182 130 270 42 88
132 279 200 425 68 146 145 312 173 370 101 213 155 326 182 385 15 33 65 137
110 230 45 94 125 262 177 375 52 113 98 210 103 215 4 6 48 96 98 200 106
224 199 418 289 605 115 238 173 361 260 550 175 379 432 922 623 1315 49 100
208 432 303 630 101 210 394 791 457 905 28 52 64 107 78 122 14 16 36 28 48
28 41 0 57 -28 264 -470 119 -254 230 -497 230 -503 0 -5 75 -164 196 -414 30
-62 54 -115 54 -117 0 -2 47 -102 105 -221 58 -119 105 -218 105 -220 0 -3 39
-82 86 -177 47 -95 103 -211 124 -258 21 -47 60 -132 87 -190 28 -58 63 -132
78 -165 15 -33 36 -78 47 -100 11 -22 46 -96 78 -165 113 -245 219 -468 320
-675 56 -115 121 -253 145 -305 24 -52 93 -198 155 -325 62 -126 138 -284 170
-350 32 -66 113 -232 180 -370 67 -137 151 -313 187 -390 36 -77 115 -241 175
-365 61 -124 130 -266 153 -315 23 -50 115 -237 203 -415 88 -179 190 -388
227 -465 37 -77 93 -194 125 -260 32 -66 97 -203 143 -305 95 -206 206 -441
241 -510 13 -25 27 -56 31 -70 4 -13 43 -97 86 -186 43 -89 96 -201 118 -250
170 -386 265 -591 381 -824 85 -168 126 -242 188 -340 142 -219 307 -376 499
-473 84 -43 227 -94 314 -113 116 -25 342 -25 459 0 92 20 231 66 295 98 126
64 283 190 357 288 79 105 143 240 180 379 20 75 23 110 23 276 0 110 -6 226
-13 275 -8 47 -34 213 -58 370 -25 157 -47 293 -50 302 -5 16 -57 316 -89 513
-9 55 -32 197 -51 315 -45 279 -80 472 -159 870 -36 179 -75 388 -89 465 -14
77 -40 226 -60 330 -19 105 -39 217 -45 250 -39 240 -109 642 -150 860 -27
143 -59 312 -70 375 -12 63 -42 225 -67 360 -25 135 -51 283 -59 330 -7 47
-36 220 -65 385 -28 165 -60 359 -71 430 -18 120 -49 298 -85 488 -8 43 -32
180 -54 305 -21 125 -59 337 -83 472 -48 263 -59 332 -142 830 -29 179 -65
390 -80 470 -53 293 -97 539 -125 690 -40 216 -103 568 -144 805 -85 493 -88
521 -59 550 12 13 27 16 57 12 46 -6 388 -174 706 -345 251 -135 711 -372 855
-439 55 -26 469 -232 920 -458 769 -385 1081 -539 1455 -718 85 -41 301 -146
480 -234 179 -88 379 -186 445 -216 66 -31 188 -91 270 -133 367 -187 610
-309 880 -439 160 -77 434 -212 610 -300 176 -88 394 -196 485 -239 91 -44
442 -217 780 -384 710 -351 915 -451 1002 -488 35 -14 68 -29 73 -34 10 -7
226 -102 395 -172 150 -63 304 -116 412 -144 130 -33 286 -46 386 -34 162 21
336 88 477 183 141 96 288 279 363 451 58 133 73 200 79 338 7 151 -7 259 -48
382 -57 172 -134 300 -285 474 -126 146 -231 253 -414 423 -85 79 -222 209
-305 289 -83 80 -211 201 -285 270 -74 69 -196 184 -270 255 -74 72 -198 189
-275 260 -77 71 -198 186 -270 255 -71 69 -188 179 -259 245 -72 66 -146 136
-166 155 -88 86 -350 327 -435 401 -71 62 -139 122 -210 189 -134 123 -251
228 -500 446 -138 120 -350 309 -470 420 -121 110 -256 232 -300 270 -44 37
-84 74 -90 80 -5 6 -37 35 -70 64 -49 44 -220 199 -285 260 -9 8 -38 35 -66
59 -27 24 -78 72 -114 106 -36 33 -126 114 -200 180 -74 65 -157 140 -185 165
-45 43 -266 245 -560 513 -60 55 -153 139 -205 187 -52 48 -174 159 -270 245
-160 145 -379 347 -469 435 -20 19 -81 76 -136 125 -55 50 -127 115 -160 146
-33 30 -112 100 -175 155 -63 54 -139 122 -170 150 -231 211 -317 294 -329
317 -29 55 9 82 150 102 296 44 611 88 749 105 190 25 394 53 605 85 88 14
241 36 340 50 99 15 198 31 220 36 22 5 117 20 210 34 94 13 224 33 290 44 66
11 237 38 380 61 143 23 343 55 445 71 102 16 201 31 220 34 51 6 369 57 750
119 502 83 1122 170 1850 261 151 19 320 42 375 50 55 8 188 27 295 40 532 69
652 85 740 98 52 9 124 18 160 22 129 13 956 134 1540 224 107 17 344 53 525
81 362 55 588 94 680 116 94 23 233 79 315 128 86 50 208 152 261 217 97 120
182 301 219 466 42 189 36 342 -21 534 -39 131 -76 212 -143 313 -55 83 -173
206 -258 270 -178 135 -417 214 -833 276 -115 17 -277 41 -360 55 -234 38
-458 71 -735 110 -140 20 -309 45 -375 56 -263 43 -1350 198 -1740 248 -88 11
-299 39 -470 61 -170 22 -400 51 -510 66 -110 14 -342 46 -515 70 -173 25
-378 53 -455 64 -200 27 -669 96 -740 109 -33 6 -123 18 -200 26 -77 9 -178
22 -225 30 -47 8 -161 23 -255 35 -93 11 -231 29 -305 40 -167 24 -336 46
-835 110 -214 27 -498 63 -630 80 -132 17 -307 40 -390 51 -240 32 -424 56
-842 109 -216 27 -408 56 -428 64 -19 8 -38 22 -41 30 -3 8 1 27 9 43 8 15
122 130 253 253 131 124 293 277 359 340 66 64 164 158 219 210 54 52 157 153
230 223 117 115 210 203 491 467 115 109 494 469 600 570 135 128 357 334 475
440 191 170 294 264 390 355 100 95 343 322 445 415 33 30 134 124 225 210 90
85 203 191 250 235 47 43 92 86 101 95 9 8 83 78 165 155 81 77 234 223 339
325 104 102 219 213 255 245 35 33 105 99 155 146 49 47 221 207 380 354 306
283 333 309 625 585 317 300 534 516 764 760 122 129 251 264 287 300 434 441
627 643 726 760 44 52 140 195 169 252 34 66 64 188 64 256 0 77 -43 280 -86
403 -19 57 -54 137 -76 178 -116 210 -300 387 -503 482 -113 53 -273 98 -390
110 -147 15 -285 0 -449 -51 -81 -26 -249 -105 -391 -186 -299 -169 -392 -220
-870 -481 -121 -66 -242 -133 -270 -148 -277 -156 -619 -336 -1015 -534 -578
-290 -499 -249 -780 -401 -129 -70 -258 -138 -285 -152 -67 -33 -227 -119
-240 -128 -5 -4 -64 -36 -130 -70 -178 -93 -322 -171 -585 -315 -58 -32 -316
-164 -575 -295 -463 -234 -723 -367 -900 -462 -49 -26 -220 -114 -380 -194
-159 -81 -294 -150 -300 -154 -5 -4 -118 -63 -250 -130 -132 -67 -351 -183
-487 -256 -136 -74 -287 -153 -335 -177 -49 -24 -115 -59 -148 -77 -33 -18
-116 -62 -185 -98 -69 -36 -172 -91 -230 -122 -58 -31 -118 -64 -135 -72 -29
-14 -182 -96 -475 -253 -230 -123 -532 -267 -572 -272 -23 -4 -44 -1 -53 7
-22 19 -19 103 10 265 14 77 32 178 40 225 9 47 28 155 45 240 16 85 45 252
65 370 20 118 45 262 55 320 11 58 24 134 30 170 6 36 33 184 60 330 58 312
82 450 205 1175 14 83 46 263 71 400 25 138 61 340 79 450 19 110 46 263 60
340 14 77 39 219 55 315 17 96 51 281 76 410 47 241 71 375 144 795 22 132 56
323 75 425 19 102 46 257 60 345 14 87 30 178 35 201 6 24 17 87 25 141 8 54
26 161 39 238 76 433 90 511 112 620 13 66 31 165 39 220 8 55 26 159 39 230
14 72 43 247 66 390 23 143 57 355 76 470 51 316 111 707 189 1235 59 398 58
565 -7 749 -50 142 -143 287 -259 403 -127 127 -280 215 -482 275 -121 37
-123 37 -307 38 -173 0 -191 -2 -285 -28 -170 -48 -322 -136 -438 -253 -78
-78 -222 -298 -342 -519 -87 -161 -233 -454 -335 -670 -21 -44 -61 -129 -90
-190 -29 -60 -80 -171 -115 -245 -34 -74 -108 -225 -163 -335 -55 -110 -131
-267 -170 -350 -59 -126 -1054 -2137 -1156 -2335 -188 -366 -243 -470 -328
-628 -54 -101 -142 -272 -194 -380 -53 -109 -197 -399 -319 -647 -123 -247
-234 -477 -248 -510 -14 -33 -65 -139 -112 -235 -48 -96 -110 -224 -137 -285
-28 -60 -134 -279 -237 -485 -102 -206 -214 -434 -248 -505 -33 -72 -73 -155
-88 -185 -66 -136 -219 -471 -252 -549 -35 -84 -262 -578 -348 -757 -46 -94
-92 -154 -118 -154 -26 0 -73 58 -129 163 -80 146 -273 530 -417 827 -68 140
-205 419 -304 620 -99 201 -201 410 -227 465 -26 55 -73 154 -105 220 -32 66
-90 190 -130 275 -139 296 -371 771 -492 1006 -75 143 -165 328 -261 534 -49
106 -120 253 -307 635 -70 143 -183 373 -250 510 -67 138 -159 329 -203 426
-64 140 -389 801 -433 882 -5 10 -53 111 -105 225 -121 261 -190 409 -352 752
-22 47 -77 166 -122 265 -45 99 -95 207 -110 240 -63 135 -181 397 -225 500
-26 61 -65 148 -86 193 -22 46 -39 86 -39 87 0 2 -17 41 -39 87 -52 112 -80
173 -135 300 -113 260 -236 471 -377 644 -75 92 -144 154 -244 219 -111 73
-164 98 -285 135 -98 30 -117 33 -275 36 -122 3 -187 0 -230 -11z m10022
-6074 c-4 -47 -21 -167 -37 -266 -34 -199 -75 -452 -90 -560 -6 -38 -13 -77
-15 -85 -3 -8 -23 -118 -44 -245 -22 -126 -53 -304 -70 -395 -16 -91 -41 -232
-56 -315 -14 -82 -37 -204 -51 -270 -13 -66 -58 -309 -100 -540 -41 -231 -86
-472 -99 -535 -13 -63 -31 -158 -40 -210 -9 -52 -26 -151 -39 -220 -14 -69
-33 -174 -45 -235 -31 -167 -120 -630 -196 -1020 -19 -99 -44 -229 -54 -290
-11 -60 -36 -200 -55 -310 -34 -191 -56 -323 -111 -665 -14 -85 -34 -227 -45
-315 -11 -88 -25 -187 -30 -220 -19 -112 -29 -379 -19 -486 16 -166 89 -356
198 -509 87 -124 258 -272 393 -341 85 -43 152 -67 263 -94 120 -30 263 -33
381 -9 118 24 328 111 634 261 312 154 566 277 690 335 192 89 1694 846 1900
958 531 287 734 395 885 472 72 36 258 131 415 211 360 182 659 336 687 353
12 7 187 97 390 200 202 103 481 247 619 320 139 74 273 143 299 154 50 21 85
26 85 11 0 -20 -105 -132 -226 -241 -245 -221 -360 -326 -439 -401 -44 -42
-165 -150 -268 -240 -104 -90 -226 -198 -272 -239 -46 -41 -182 -161 -302
-266 -120 -105 -252 -222 -293 -261 -282 -262 -535 -495 -650 -598 -182 -162
-222 -199 -460 -425 -113 -107 -266 -249 -340 -315 -319 -287 -610 -561 -1029
-971 -124 -121 -275 -268 -336 -325 -238 -225 -511 -499 -600 -602 -99 -115
-197 -251 -238 -332 -60 -120 -93 -294 -84 -444 3 -54 17 -137 31 -188 41
-151 107 -265 220 -382 160 -167 374 -280 660 -350 95 -24 356 -62 617 -91
101 -11 209 -24 239 -30 30 -5 120 -16 200 -25 80 -8 235 -28 345 -44 353 -52
575 -83 770 -106 105 -13 321 -42 480 -65 286 -40 801 -107 1190 -155 110 -13
229 -29 265 -34 36 -6 133 -18 215 -26 168 -18 310 -36 525 -65 80 -11 296
-40 480 -65 184 -25 506 -70 715 -101 209 -30 461 -66 560 -80 193 -26 423
-69 462 -87 52 -24 17 -45 -122 -73 -63 -13 -218 -35 -343 -49 -125 -14 -267
-32 -317 -40 -49 -8 -153 -21 -230 -30 -151 -16 -611 -74 -845 -105 -80 -11
-206 -27 -280 -35 -74 -8 -214 -25 -310 -39 -96 -13 -215 -29 -265 -36 -49 -6
-187 -24 -305 -40 -118 -16 -287 -39 -375 -51 -138 -18 -736 -113 -1135 -180
-69 -11 -217 -34 -330 -50 -193 -27 -316 -45 -710 -104 -91 -13 -228 -33 -305
-44 -796 -113 -1197 -184 -1360 -242 -175 -61 -304 -140 -414 -252 -136 -138
-213 -264 -252 -412 -18 -65 -22 -108 -22 -230 1 -135 4 -162 31 -269 36 -136
80 -229 159 -336 72 -96 311 -337 474 -477 174 -150 364 -317 429 -378 30 -29
91 -85 136 -126 369 -339 572 -529 744 -694 159 -153 253 -241 405 -380 72
-66 198 -183 280 -261 83 -77 177 -165 210 -194 33 -30 62 -56 65 -60 3 -4 50
-46 105 -95 55 -48 187 -170 294 -269 106 -100 241 -223 300 -275 58 -51 108
-96 111 -100 3 -4 50 -47 105 -96 113 -101 111 -99 445 -410 135 -126 267
-249 295 -275 68 -62 216 -200 241 -225 11 -11 67 -63 125 -116 57 -52 187
-171 289 -265 354 -323 428 -404 373 -404 -16 0 -331 155 -453 224 -36 20 -97
51 -135 70 -39 18 -139 70 -224 116 -164 88 -1222 617 -1381 691 -52 24 -300
147 -550 273 -631 318 -973 488 -1125 558 -71 33 -328 160 -570 283 -242 123
-712 360 -1045 528 -333 167 -720 367 -860 444 -260 142 -297 161 -408 207
-302 127 -649 75 -897 -134 -62 -53 -159 -167 -211 -247 -76 -119 -138 -278
-163 -417 -17 -92 -13 -255 9 -410 30 -202 96 -604 130 -791 16 -88 50 -286
75 -440 48 -294 81 -489 146 -845 21 -118 86 -496 143 -840 58 -344 127 -749
155 -900 28 -151 73 -408 100 -570 73 -435 111 -649 122 -700 6 -25 26 -135
45 -245 45 -256 101 -564 174 -955 76 -406 117 -668 127 -806 4 -70 3 -93 -7
-99 -20 -12 -63 44 -124 165 -30 58 -115 234 -190 392 -75 158 -202 419 -282
580 -81 161 -188 383 -239 493 -51 110 -120 256 -152 325 -33 69 -72 152 -88
185 -33 72 -165 350 -303 640 -55 116 -148 314 -207 440 -59 127 -136 289
-170 360 -35 72 -83 173 -108 225 -24 52 -79 167 -122 255 -128 264 -325 677
-325 680 0 1 -34 73 -75 159 -41 86 -75 158 -75 160 0 9 -321 677 -519 1081
-60 121 -145 294 -189 385 -44 91 -103 199 -130 240 -55 83 -145 176 -237 245
-82 62 -224 130 -320 156 -232 61 -446 20 -664 -125 -85 -56 -208 -174 -269
-258 -141 -192 -316 -507 -529 -953 -50 -104 -131 -271 -178 -370 -48 -99
-104 -219 -126 -267 -21 -48 -52 -116 -68 -150 -16 -35 -66 -144 -111 -243
-45 -99 -113 -243 -150 -320 -38 -77 -121 -250 -185 -385 -65 -135 -148 -310
-186 -389 -38 -79 -69 -144 -69 -146 0 -1 -108 -222 -241 -491 -384 -779 -569
-1165 -757 -1579 -26 -58 -211 -428 -561 -1122 -222 -442 -259 -484 -248 -289
6 110 63 476 132 846 24 129 62 334 85 455 124 669 166 892 205 1085 19 91 50
251 70 355 20 105 56 294 80 420 24 127 80 433 125 680 44 248 91 511 105 585
13 74 32 180 40 235 8 55 22 134 30 175 8 41 26 143 39 225 14 83 36 218 51
300 51 294 94 541 108 630 9 50 38 225 65 390 97 573 111 671 123 814 19 237
-8 385 -107 582 -79 159 -192 300 -335 419 -135 112 -269 181 -431 222 -66 17
-103 19 -192 16 -78 -4 -130 -12 -176 -27 -79 -27 -217 -95 -291 -143 -131
-85 -274 -170 -394 -235 -170 -92 -490 -255 -540 -275 -39 -16 -267 -121 -473
-219 -57 -27 -105 -49 -107 -49 -4 0 -493 -239 -925 -452 -184 -91 -384 -189
-445 -218 -60 -29 -317 -155 -570 -280 -253 -125 -563 -278 -690 -340 -287
-142 -826 -428 -1086 -577 -57 -33 -165 -93 -239 -133 -160 -87 -803 -408
-889 -445 -128 -54 -127 -22 3 109 50 51 138 134 196 186 58 51 144 130 191
175 47 44 146 133 220 196 74 64 148 128 164 143 17 15 44 40 60 55 29 27 286
256 510 456 234 208 386 345 565 509 303 276 361 328 455 411 94 82 134 119
400 370 88 83 212 198 275 255 63 58 218 202 344 320 355 334 426 400 512 475
43 38 108 96 144 130 314 289 404 370 575 515 197 166 298 255 371 325 99 95
206 220 262 305 65 98 126 234 148 329 21 91 29 338 15 430 -16 102 -65 220
-133 321 -72 107 -143 181 -239 246 -149 103 -263 153 -489 214 -147 39 -419
91 -695 130 -77 11 -156 25 -175 30 -19 5 -91 16 -160 25 -69 9 -222 32 -340
51 -280 45 -622 100 -735 119 -49 8 -164 26 -255 40 -91 14 -253 39 -360 55
-430 67 -364 58 -1810 255 -96 13 -231 33 -300 44 -117 20 -386 60 -770 116
-91 13 -208 31 -260 40 -52 8 -149 22 -215 30 -66 8 -174 24 -240 35 -66 11
-201 31 -300 45 -243 33 -324 49 -379 73 -25 12 -46 23 -46 26 0 9 53 33 90
40 147 29 271 48 428 66 101 11 227 27 280 35 53 8 163 22 244 30 80 8 197 22
260 30 62 9 187 24 278 35 91 11 237 29 325 40 88 11 275 34 415 51 140 16
282 34 315 39 33 5 107 14 165 20 117 12 211 23 635 74 410 50 608 73 775 91
80 8 190 22 245 30 55 8 183 24 285 35 102 11 248 29 325 40 77 11 203 27 280
35 77 9 201 24 275 35 74 11 216 29 315 40 99 11 223 27 275 35 52 8 160 21
240 30 133 15 369 49 515 76 292 53 572 235 743 482 68 98 136 243 163 343 26
100 37 330 20 429 -16 90 -52 192 -95 269 -115 206 -358 459 -706 736 -86 68
-404 336 -446 375 -6 5 -26 24 -45 40 -391 347 -587 535 -1106 1060 -570 576
-1031 1029 -1368 1344 -127 118 -234 219 -240 225 -47 52 -438 426 -545 521
-74 66 -202 183 -285 260 -83 77 -198 183 -255 235 -172 155 -398 383 -405
409 -7 23 -6 24 26 17 32 -6 334 -153 529 -257 52 -28 140 -74 195 -104 55
-29 141 -75 190 -102 50 -27 128 -69 175 -93 47 -24 96 -51 110 -60 14 -9 77
-44 140 -78 63 -33 169 -90 235 -127 66 -37 273 -151 460 -252 187 -102 366
-201 398 -219 32 -19 61 -34 64 -34 3 0 31 -15 62 -34 153 -93 652 -352 1246
-647 363 -181 678 -338 700 -350 22 -11 78 -40 125 -64 104 -54 428 -210 565
-272 55 -24 352 -170 660 -323 308 -153 587 -289 620 -303 113 -47 240 -86
315 -98 85 -13 232 -6 327 16 99 23 227 79 316 139 149 99 273 239 354 401 41
81 89 225 104 310 18 107 6 434 -24 625 -14 85 -28 178 -31 205 -10 68 -93
533 -112 621 -8 40 -26 139 -39 220 -29 182 -93 534 -100 552 -2 6 -11 54 -20
105 -9 50 -31 173 -50 272 -67 352 -134 713 -170 910 -20 110 -69 371 -110
580 -86 438 -119 620 -145 784 -10 64 -57 325 -103 581 -47 256 -93 512 -101
570 -9 58 -41 251 -71 430 -112 655 -125 732 -125 753 0 32 14 49 33 41 20 -7
94 -129 165 -269 83 -165 412 -837 412 -842 0 -8 621 -1252 726 -1453 158
-303 268 -522 368 -730 48 -102 211 -432 361 -735 150 -302 361 -728 468 -945
206 -416 300 -596 514 -980 215 -386 281 -498 369 -616 68 -92 140 -163 248
-245 91 -70 164 -108 273 -145 60 -21 104 -28 195 -32 97 -4 133 -1 211 17
156 36 283 107 410 230 69 66 165 187 229 288 48 77 364 706 468 933 34 74 78
169 97 210 20 41 68 145 108 230 40 85 98 208 129 273 31 65 56 120 56 122 0
2 26 59 59 127 143 299 181 380 181 384 0 2 34 74 75 160 41 86 75 158 75 159
0 2 45 96 100 210 55 114 100 209 100 211 0 2 28 61 63 131 35 71 69 144 76
163 7 19 127 265 266 545 140 281 305 623 368 760 63 138 167 357 231 488 64
131 116 240 116 242 0 7 154 324 371 762 154 312 240 475 265 503 33 36 39 39
47 24 6 -10 7 -54 4 -103z"/>
  </g>
</svg>