<svg xmlns="http://www.w3.org/2000/svg" viewBox="0 0 4096.000000 4096.000000">
  <g transform="translate(0.000000,4096.000000) scale(0.100000,-0.100000)" fill="#f4f5f7" stroke="none">
    <path d="M9085 38765 c-49 -13 -119 -29 -154 -35 -36 -6 -85 -22 -110 -35 -25
-12 -62 -26 -81 -30 -35 -7 -202 -86 -270 -127 -127 -77 -209 -137 -330 -244
-103 -90 -176 -163 -406 -408 -189 -202 -261 -275 -518 -521 -115 -110 -290
-283 -390 -385 -99 -101 -379 -382 -621 -625 -242 -242 -542 -544 -666 -670
-124 -127 -353 -356 -510 -511 -156 -154 -402 -399 -545 -545 -144 -145 -437
-437 -650 -649 -214 -212 -471 -469 -571 -570 -100 -102 -275 -275 -390 -385
-114 -109 -307 -301 -428 -425 -121 -123 -321 -325 -445 -448 -629 -625 -774
-772 -818 -826 -26 -32 -58 -71 -72 -87 -14 -15 -42 -51 -63 -81 -20 -29 -48
-69 -62 -88 -14 -19 -34 -54 -45 -76 -11 -23 -26 -47 -34 -53 -8 -7 -23 -34
-33 -59 -9 -26 -27 -62 -39 -80 -13 -18 -27 -55 -33 -82 -6 -28 -22 -72 -35
-98 -13 -26 -27 -74 -30 -107 -4 -33 -16 -112 -27 -175 -21 -128 -26 -343 -9
-431 6 -30 19 -111 29 -180 11 -73 27 -142 39 -165 11 -22 23 -58 27 -79 6
-35 45 -128 93 -220 9 -16 26 -50 39 -75 13 -25 36 -62 51 -83 48 -69 124
-169 141 -187 9 -10 50 -55 91 -100 92 -101 57 -67 725 -725 302 -297 948
-938 1436 -1425 488 -487 1404 -1398 2035 -2025 631 -627 1420 -1412 1753
-1745 584 -583 909 -902 983 -965 32 -27 77 -62 188 -150 21 -16 60 -43 87
-58 26 -15 74 -44 107 -62 32 -19 77 -40 100 -46 22 -6 59 -21 81 -34 22 -13
63 -28 91 -34 28 -5 75 -20 104 -31 62 -24 277 -50 422 -50 172 0 345 20 438
50 47 15 101 31 120 35 19 4 58 20 85 35 28 16 61 31 75 35 14 4 39 18 57 31
17 13 42 28 55 33 41 16 171 105 257 176 54 45 202 194 233 234 53 70 103 142
128 186 89 158 121 222 134 275 9 33 24 77 34 97 11 21 24 81 31 133 7 52 19
136 27 185 11 71 12 115 5 205 -26 305 -40 399 -65 449 -8 15 -22 58 -31 95
-8 38 -24 80 -34 95 -10 14 -25 46 -32 71 -7 25 -23 59 -36 76 -13 17 -28 46
-34 65 -7 19 -20 43 -30 54 -9 11 -40 52 -67 90 -28 39 -67 89 -89 112 -97
106 -1646 1652 -2393 2390 -118 116 -319 316 -445 445 -127 128 -331 330 -454
448 -123 118 -303 296 -400 394 -97 99 -223 225 -280 281 -57 57 -102 108
-100 114 3 8 2527 11 9804 11 6369 0 9901 -4 10088 -10 159 -6 319 -15 355
-20 37 -5 112 -16 167 -25 55 -8 159 -20 230 -25 72 -6 166 -20 210 -30 44
-11 148 -28 230 -39 83 -11 170 -27 195 -36 24 -8 94 -23 155 -31 60 -8 124
-22 140 -30 17 -9 76 -24 132 -35 56 -11 121 -28 145 -38 24 -11 87 -26 142
-35 54 -9 115 -25 136 -36 20 -10 68 -24 106 -30 38 -7 92 -22 119 -35 28 -13
73 -26 100 -30 28 -4 79 -20 115 -35 36 -15 85 -31 110 -35 25 -4 66 -18 91
-31 25 -12 75 -30 111 -38 36 -8 81 -24 99 -35 19 -10 61 -27 94 -36 32 -9 81
-28 107 -41 26 -13 56 -24 66 -24 10 0 41 -12 68 -26 27 -14 72 -32 99 -41 28
-8 63 -24 78 -35 15 -11 50 -26 77 -33 27 -7 62 -22 77 -33 15 -10 51 -27 80
-36 28 -10 62 -25 75 -35 13 -10 41 -24 63 -31 22 -6 56 -22 75 -34 19 -13 51
-28 70 -35 19 -6 52 -23 72 -36 21 -14 41 -25 45 -25 16 0 283 -140 357 -188
28 -18 55 -32 60 -32 6 0 29 -14 50 -30 22 -17 45 -30 51 -30 7 0 30 -12 51
-28 21 -15 58 -36 82 -46 23 -11 47 -25 54 -33 6 -8 27 -21 47 -29 20 -8 45
-23 56 -34 11 -10 37 -25 58 -34 22 -9 52 -26 67 -38 16 -13 59 -41 95 -63 36
-22 80 -50 98 -62 18 -13 46 -29 63 -38 18 -8 45 -25 60 -38 16 -13 43 -32 59
-41 17 -9 55 -35 85 -56 30 -22 78 -56 105 -75 28 -19 70 -51 95 -70 25 -19
68 -50 95 -70 28 -19 61 -42 75 -52 14 -10 57 -45 96 -78 39 -33 95 -78 124
-100 82 -63 130 -102 200 -165 36 -32 79 -69 95 -81 36 -28 308 -261 350 -300
17 -15 62 -59 101 -96 39 -37 95 -91 125 -119 52 -48 176 -177 304 -315 66
-71 409 -462 458 -523 18 -21 41 -48 52 -60 19 -21 52 -62 105 -131 14 -18 44
-57 67 -86 104 -134 125 -162 148 -197 14 -20 41 -57 60 -82 19 -25 49 -67 66
-95 17 -27 49 -75 70 -105 94 -131 211 -306 281 -419 18 -29 47 -77 65 -105
18 -28 44 -71 58 -96 14 -25 45 -79 70 -120 25 -41 56 -98 69 -125 13 -28 31
-57 39 -64 9 -7 21 -29 28 -49 6 -20 21 -50 33 -67 11 -16 33 -54 48 -85 15
-30 32 -62 37 -70 5 -8 18 -33 29 -55 33 -68 82 -158 103 -186 10 -15 19 -31
19 -36 0 -9 64 -145 111 -235 16 -31 29 -64 29 -73 0 -8 16 -48 35 -88 19 -39
35 -79 35 -88 0 -9 13 -41 29 -71 16 -30 35 -74 41 -98 6 -24 25 -68 41 -98
16 -30 29 -64 29 -75 0 -11 11 -39 24 -61 13 -23 32 -71 41 -106 9 -36 25 -78
35 -95 10 -16 23 -57 30 -90 7 -33 23 -81 35 -106 13 -25 29 -74 35 -110 6
-35 22 -88 36 -118 13 -29 29 -83 35 -120 5 -36 21 -89 34 -117 13 -28 28 -77
34 -110 5 -32 18 -82 30 -111 11 -28 25 -82 31 -120 7 -37 25 -108 40 -158 16
-49 32 -117 35 -150 4 -33 17 -90 30 -127 13 -37 29 -111 36 -165 6 -54 22
-130 35 -169 13 -40 28 -118 34 -175 5 -57 21 -149 34 -204 13 -55 27 -140 31
-190 6 -81 13 -143 44 -370 6 -38 15 -144 21 -235 6 -91 15 -220 20 -288 6
-68 15 -271 21 -451 12 -328 9 -422 -21 -936 -18 -315 -31 -470 -46 -560 -8
-49 -23 -172 -33 -271 -11 -100 -26 -208 -35 -240 -14 -57 -24 -119 -46 -294
-6 -47 -20 -112 -30 -145 -10 -33 -23 -101 -29 -150 -6 -50 -20 -119 -31 -155
-11 -36 -27 -108 -35 -161 -8 -52 -25 -124 -38 -160 -14 -35 -28 -91 -32 -123
-4 -33 -19 -94 -35 -135 -15 -42 -31 -98 -34 -126 -4 -27 -18 -77 -31 -110
-13 -33 -31 -92 -39 -131 -8 -40 -23 -89 -34 -110 -11 -22 -25 -65 -32 -98 -6
-32 -25 -86 -41 -120 -16 -33 -29 -73 -29 -87 0 -15 -13 -52 -30 -83 -16 -31
-32 -73 -36 -94 -3 -20 -17 -55 -30 -78 -12 -22 -28 -63 -35 -90 -7 -27 -24
-74 -40 -104 -15 -30 -30 -71 -34 -90 -4 -19 -17 -53 -30 -75 -13 -22 -28 -60
-35 -85 -6 -25 -22 -61 -34 -80 -13 -20 -27 -51 -31 -70 -4 -19 -17 -51 -29
-70 -13 -19 -29 -53 -36 -75 -7 -22 -25 -60 -40 -86 -15 -25 -31 -56 -35 -70
-4 -13 -23 -52 -41 -87 -19 -35 -34 -69 -34 -75 0 -7 -14 -30 -30 -51 -17 -22
-30 -47 -30 -56 0 -9 -13 -37 -29 -62 -16 -25 -32 -56 -36 -69 -4 -13 -14 -35
-24 -49 -15 -23 -41 -70 -107 -199 -18 -33 -41 -72 -53 -87 -12 -15 -21 -32
-21 -38 0 -6 -17 -36 -38 -67 -20 -31 -48 -75 -62 -98 -14 -23 -43 -71 -65
-106 -22 -36 -58 -94 -80 -130 -22 -36 -52 -82 -67 -102 -16 -19 -28 -42 -28
-49 0 -7 -15 -32 -33 -56 -18 -24 -51 -72 -75 -108 -23 -36 -58 -87 -77 -115
-19 -27 -44 -63 -55 -80 -51 -74 -69 -100 -140 -191 -41 -53 -86 -111 -100
-129 -69 -90 -89 -115 -140 -176 -86 -104 -243 -298 -267 -332 -12 -16 -44
-55 -71 -86 -161 -183 -300 -336 -368 -406 -144 -146 -787 -751 -911 -856
-175 -149 -262 -221 -304 -249 -20 -14 -81 -59 -134 -100 -137 -105 -163 -125
-220 -164 -27 -20 -75 -54 -105 -76 -99 -73 -149 -107 -266 -184 -16 -10 -48
-32 -71 -47 -23 -16 -46 -29 -51 -29 -5 0 -27 -14 -48 -31 -22 -17 -54 -37
-72 -45 -19 -7 -47 -25 -64 -39 -16 -14 -36 -25 -43 -25 -7 0 -26 -11 -42 -24
-15 -13 -48 -33 -73 -46 -25 -12 -54 -30 -65 -40 -11 -9 -35 -22 -52 -28 -18
-6 -48 -22 -66 -36 -19 -15 -38 -26 -43 -26 -6 0 -32 -14 -60 -31 -27 -18 -62
-36 -79 -42 -16 -6 -42 -20 -57 -33 -15 -12 -44 -28 -65 -35 -20 -6 -57 -25
-82 -40 -25 -16 -50 -29 -57 -29 -6 0 -29 -12 -50 -27 -21 -14 -58 -32 -82
-39 -24 -7 -54 -22 -68 -33 -14 -11 -49 -27 -77 -37 -29 -9 -63 -25 -76 -35
-13 -11 -40 -23 -61 -29 -20 -6 -55 -22 -76 -36 -21 -15 -59 -33 -85 -40 -25
-8 -57 -23 -70 -33 -14 -10 -44 -24 -68 -31 -24 -6 -60 -22 -80 -35 -20 -13
-49 -27 -66 -31 -16 -4 -61 -22 -100 -41 -38 -18 -77 -33 -86 -33 -9 0 -40
-13 -70 -29 -30 -16 -74 -32 -99 -36 -25 -4 -70 -20 -100 -35 -30 -15 -73 -31
-95 -35 -22 -4 -69 -19 -105 -35 -36 -15 -85 -31 -110 -35 -25 -4 -63 -17 -85
-28 -22 -11 -78 -28 -124 -38 -46 -11 -95 -26 -108 -34 -13 -9 -60 -22 -103
-30 -44 -8 -101 -23 -126 -34 -25 -11 -82 -27 -127 -35 -45 -8 -106 -24 -136
-36 -30 -11 -91 -25 -135 -31 -45 -5 -115 -21 -156 -33 -41 -13 -120 -29 -175
-36 -55 -6 -131 -20 -170 -30 -81 -21 -177 -36 -289 -45 -44 -3 -120 -14 -170
-24 -50 -11 -149 -24 -221 -30 -71 -6 -182 -16 -245 -21 -63 -6 -167 -15 -230
-20 -63 -6 -124 -13 -135 -17 -11 -4 -5348 -10 -11860 -13 l-11840 -5 -70 -21
c-38 -12 -101 -31 -140 -43 -61 -18 -105 -38 -285 -131 -82 -42 -214 -140
-326 -242 -83 -74 -234 -241 -234 -258 0 -5 -18 -30 -40 -55 -22 -25 -40 -52
-40 -59 0 -7 -12 -31 -26 -52 -15 -21 -32 -55 -40 -76 -7 -20 -21 -49 -31 -64
-16 -25 -42 -94 -86 -224 -22 -66 -59 -311 -64 -420 -3 -60 1 -133 11 -200 9
-58 24 -152 32 -209 11 -67 26 -125 45 -165 16 -33 29 -70 29 -81 0 -11 16
-51 35 -89 19 -39 35 -75 35 -82 0 -7 11 -26 25 -42 14 -17 31 -43 38 -59 24
-56 73 -126 164 -232 96 -113 255 -266 301 -290 15 -7 37 -23 50 -34 24 -22
79 -55 172 -105 30 -16 64 -34 75 -40 24 -13 134 -59 190 -78 48 -16 145 -40
240 -59 60 -12 1810 -14 11915 -15 12559 0 11842 -2 12220 40 47 5 171 14 275
20 105 6 253 22 330 35 77 13 199 29 272 35 72 6 164 19 205 30 40 11 128 27
196 35 67 9 164 26 215 39 50 13 124 27 162 31 39 3 117 19 175 34 58 16 131
31 163 35 32 3 90 17 130 30 39 14 102 29 139 35 36 6 107 25 157 41 50 17
103 30 118 30 15 0 51 11 80 24 28 14 88 32 133 41 44 9 100 25 123 35 23 10
74 25 113 34 40 8 90 24 113 36 23 11 67 26 99 31 31 6 77 21 102 34 25 12 70
28 100 34 30 6 76 23 102 36 26 14 66 27 90 31 24 3 61 17 84 30 22 12 63 28
90 35 27 6 72 24 99 39 28 15 66 31 85 35 19 4 58 20 85 35 28 16 66 31 85 35
19 4 59 21 89 36 30 16 62 29 71 29 9 0 37 11 61 23 24 13 69 32 99 42 30 10
68 27 83 37 15 11 51 26 78 33 28 8 62 21 76 30 14 9 49 25 79 35 30 11 67 28
82 38 15 10 47 26 72 34 25 8 63 27 84 42 21 14 46 26 55 26 10 0 37 13 62 29
25 15 63 34 85 41 21 7 46 18 54 25 8 7 72 41 142 76 220 111 247 125 265 140
10 9 34 22 53 29 19 7 42 19 51 27 9 7 43 26 76 43 34 16 64 33 67 39 4 5 30
21 59 36 70 35 141 77 164 97 10 9 36 23 58 32 22 10 49 25 60 35 11 10 36 27
55 36 19 10 46 26 60 37 14 11 57 39 95 63 39 24 81 52 95 63 14 10 43 28 66
40 22 11 46 28 54 37 7 9 27 23 44 31 17 8 45 24 62 37 18 12 45 30 60 39 60
37 202 132 304 203 19 14 49 33 65 44 40 26 96 68 151 114 25 20 50 37 56 37
6 0 25 12 43 28 18 15 55 44 81 65 108 83 141 109 174 136 90 74 133 108 257
204 113 88 169 134 335 276 287 246 531 473 858 801 235 235 325 330 486 510
70 80 136 152 145 160 19 17 247 284 321 377 26 32 76 93 110 135 35 42 72 91
83 107 30 46 190 253 212 276 11 11 28 34 39 50 22 35 133 187 167 230 13 17
32 44 41 60 9 17 36 57 61 90 25 33 59 83 76 110 28 46 41 66 99 150 11 17 40
62 64 100 24 39 55 84 68 100 13 17 44 62 68 100 24 39 50 81 59 94 21 30 84
135 111 185 12 21 35 57 51 79 16 22 29 45 29 50 0 6 11 24 24 42 13 17 32 49
41 70 9 22 24 49 34 60 10 11 27 38 38 60 11 22 38 72 58 110 21 39 50 93 64
120 14 28 36 64 47 80 12 17 27 47 33 67 7 21 17 41 23 44 5 4 23 34 39 68 17
33 38 77 49 96 11 19 27 51 36 70 19 39 81 158 107 205 9 17 17 37 17 46 0 9
11 32 24 52 13 19 27 46 31 58 4 13 25 62 47 109 22 47 52 112 66 144 15 33
44 93 65 133 20 41 37 80 37 87 0 8 13 38 28 68 16 29 34 76 41 103 7 28 23
68 35 90 13 22 28 61 35 87 6 26 20 62 30 80 11 18 25 56 32 83 7 28 22 71 35
96 13 26 29 68 35 95 7 27 25 76 41 109 15 33 28 68 28 78 0 10 13 49 29 85
16 37 34 94 41 127 7 33 20 74 31 91 10 17 26 61 34 99 9 38 23 82 32 98 8 16
25 71 38 121 13 50 32 114 43 141 11 28 25 79 32 115 6 35 19 77 27 94 8 16
21 65 29 109 8 44 25 109 38 146 13 36 29 100 36 141 7 41 23 102 35 135 13
33 26 89 30 125 4 36 20 106 35 155 15 50 32 129 39 176 6 48 20 112 30 142
11 31 25 100 31 154 6 54 22 143 35 198 13 55 29 145 35 199 11 107 37 263 45
276 3 4 12 81 20 171 15 159 26 254 45 369 11 67 17 157 30 410 6 107 18 272
27 365 14 137 17 266 16 665 0 272 -6 578 -12 680 -6 102 -18 309 -26 460 -18
334 -23 394 -40 487 -8 40 -21 148 -30 240 -9 93 -27 233 -40 313 -14 80 -32
199 -40 265 -9 66 -24 152 -35 190 -10 39 -24 114 -30 168 -5 54 -17 115 -25
135 -9 20 -25 91 -35 157 -11 66 -29 146 -40 177 -11 32 -27 102 -35 158 -8
56 -22 118 -31 138 -8 20 -22 75 -30 121 -9 47 -26 110 -39 142 -13 31 -29 85
-35 120 -5 35 -23 102 -40 149 -16 47 -30 96 -30 110 0 14 -12 50 -26 80 -14
30 -31 89 -38 130 -8 42 -25 98 -39 125 -14 28 -28 72 -32 100 -4 27 -17 70
-30 95 -12 25 -28 70 -35 100 -7 30 -23 75 -35 100 -12 25 -28 70 -34 100 -7
30 -21 69 -31 88 -11 18 -26 59 -35 91 -8 32 -26 78 -39 102 -13 24 -27 60
-31 79 -4 19 -20 58 -35 85 -15 28 -31 68 -35 89 -3 22 -17 60 -30 85 -13 25
-29 67 -34 92 -6 25 -24 72 -41 103 -16 32 -30 64 -30 72 0 7 -16 43 -35 80
-19 36 -35 74 -35 83 0 10 -12 36 -26 57 -15 21 -33 56 -40 77 -7 21 -23 51
-34 67 -11 16 -27 49 -34 73 -7 24 -25 61 -40 83 -14 21 -26 46 -26 54 0 9
-13 36 -28 61 -16 24 -33 58 -39 74 -6 17 -24 52 -42 79 -17 28 -31 57 -31 66
0 8 -11 32 -26 53 -14 21 -32 56 -40 79 -8 23 -25 55 -38 72 -13 17 -27 42
-31 56 -4 14 -16 36 -26 50 -9 14 -29 50 -44 80 -14 30 -44 87 -65 125 -22 39
-53 98 -69 131 -16 34 -34 65 -39 68 -6 4 -22 30 -36 59 -15 28 -42 77 -61
107 -19 30 -46 78 -61 105 -15 28 -37 63 -50 78 -13 16 -24 35 -24 42 0 7 -11
26 -24 42 -13 15 -32 44 -42 64 -23 43 -73 121 -109 169 -14 19 -46 67 -70
105 -24 39 -54 84 -67 100 -13 17 -30 42 -37 58 -8 15 -18 27 -22 27 -5 0 -18
19 -30 43 -12 23 -33 56 -48 73 -14 18 -42 55 -61 84 -19 28 -50 70 -67 92
-18 22 -33 44 -33 49 0 4 -14 24 -31 43 -31 36 -51 62 -114 151 -37 53 -65 89
-158 207 -32 40 -73 93 -90 117 -18 25 -88 111 -157 192 -69 81 -147 175 -175
209 -27 35 -59 72 -71 84 -11 12 -70 77 -130 146 -61 69 -123 139 -140 155
-16 17 -79 86 -141 155 -162 180 -456 468 -701 685 -19 17 -80 73 -135 126
-110 104 -280 252 -482 419 -186 154 -187 155 -222 175 -18 11 -33 23 -33 27
0 4 -17 19 -37 33 -21 13 -63 45 -93 69 -30 25 -68 53 -85 62 -16 9 -45 29
-62 43 -88 71 -161 125 -217 158 -15 10 -47 32 -70 50 -22 18 -59 46 -81 63
-22 17 -60 46 -83 65 -24 19 -49 35 -56 35 -6 0 -28 15 -48 33 -41 37 -83 65
-148 100 -25 14 -54 34 -64 46 -11 12 -25 21 -32 21 -6 0 -31 16 -54 35 -23
19 -48 35 -55 35 -7 0 -32 16 -55 35 -23 19 -47 35 -53 35 -7 0 -37 16 -67 36
-30 21 -78 52 -106 70 -28 19 -55 34 -61 34 -7 0 -26 12 -44 28 -18 15 -49 36
-70 47 -113 60 -147 80 -172 101 -16 13 -34 24 -42 24 -7 0 -35 15 -62 34 -26
18 -60 37 -73 41 -14 4 -38 17 -54 28 -38 27 -196 107 -210 107 -7 0 -30 13
-52 29 -21 15 -56 34 -76 40 -20 7 -42 18 -48 26 -7 8 -37 24 -68 35 -32 12
-64 28 -73 36 -9 8 -41 24 -70 35 -29 11 -64 29 -79 39 -14 10 -44 23 -66 29
-23 6 -47 18 -54 26 -6 8 -36 23 -66 34 -30 12 -71 32 -92 45 -20 13 -53 27
-72 31 -19 4 -55 20 -80 35 -25 15 -61 31 -80 35 -19 4 -51 17 -70 30 -19 13
-57 29 -85 35 -27 6 -66 21 -85 34 -19 12 -56 28 -81 34 -25 6 -72 25 -104 42
-31 16 -67 30 -80 30 -13 0 -47 13 -77 29 -30 15 -72 31 -94 35 -21 4 -64 20
-94 35 -30 16 -75 31 -100 35 -25 4 -60 15 -78 26 -18 11 -64 29 -103 40 -38
10 -98 30 -132 43 -34 14 -84 28 -112 32 -27 4 -70 17 -95 30 -25 12 -65 26
-90 30 -25 4 -76 20 -115 35 -38 16 -92 32 -120 35 -27 4 -76 18 -108 31 -31
14 -90 31 -130 39 -39 9 -92 24 -117 35 -25 10 -70 22 -100 26 -30 3 -89 19
-130 35 -41 15 -116 35 -165 43 -50 8 -110 22 -134 31 -24 8 -91 22 -150 30
-58 9 -144 27 -191 40 -47 13 -131 29 -187 35 -56 6 -133 20 -170 30 -37 11
-115 24 -173 30 -58 7 -139 18 -180 27 -122 24 -175 31 -375 48 -104 9 -217
20 -250 25 -33 5 -91 14 -130 20 -38 6 -185 15 -325 20 -140 5 -354 15 -475
20 -154 8 -3138 10 -9978 8 -8249 -3 -9757 -1 -9757 11 0 7 14 30 32 50 85 98
500 523 1018 1042 316 317 625 628 687 690 61 63 275 277 475 476 200 199 463
462 584 585 122 123 367 368 545 544 673 669 832 841 929 1009 14 24 32 51 41
62 9 10 22 36 29 57 7 22 26 60 41 85 16 25 29 54 29 65 0 12 13 49 30 84 16
35 36 101 44 150 8 48 22 128 30 177 20 114 20 238 1 364 -8 54 -17 105 -20
112 -2 8 -9 52 -15 98 -5 47 -19 102 -30 122 -10 21 -27 66 -35 101 -9 34 -25
74 -36 89 -11 15 -26 47 -35 71 -8 23 -23 52 -33 63 -10 11 -28 40 -40 65 -11
25 -36 65 -56 90 -19 25 -52 70 -74 100 -68 96 -303 304 -399 354 -16 8 -34
21 -41 30 -7 8 -29 20 -49 27 -20 6 -53 22 -72 35 -20 13 -60 32 -90 43 -30
10 -77 28 -105 39 -27 11 -109 34 -181 51 -123 29 -142 31 -325 31 -171 -1
-205 -4 -284 -25z"/>
  </g>
</svg>