<svg xmlns="http://www.w3.org/2000/svg" viewBox="0 0 4096.000000 4096.000000">
  <g transform="translate(0.000000,4096.000000) scale(0.100000,-0.100000)" fill="#f4f5f7" stroke="none">
    <path d="M27095 31759 c-33 -5 -134 -15 -225 -24 -91 -8 -180 -19 -198 -24
-18 -6 -65 -13 -105 -16 -40 -4 -92 -13 -117 -20 -25 -8 -80 -19 -123 -25 -43
-5 -86 -14 -95 -19 -9 -5 -42 -12 -72 -16 -30 -4 -63 -12 -73 -17 -10 -5 -46
-15 -80 -23 -34 -7 -75 -18 -92 -24 -16 -5 -70 -22 -120 -37 -49 -14 -106 -32
-125 -40 -19 -7 -54 -18 -77 -24 -23 -6 -54 -17 -70 -25 -15 -8 -32 -15 -38
-15 -11 0 -98 -33 -165 -63 -25 -11 -58 -25 -75 -32 -16 -7 -57 -25 -90 -40
-33 -15 -78 -35 -100 -45 -135 -61 -389 -191 -455 -233 -65 -42 -75 -47 -106
-62 -17 -7 -36 -21 -44 -29 -7 -9 -17 -16 -22 -16 -5 0 -36 -18 -69 -40 -33
-22 -62 -40 -64 -40 -2 0 -25 -15 -51 -32 -25 -18 -53 -37 -62 -43 -43 -27
-340 -249 -352 -264 -3 -4 -16 -14 -30 -22 -45 -29 -272 -229 -385 -338 -194
-189 -467 -486 -556 -606 -19 -25 -70 -92 -114 -149 -116 -151 -276 -386 -320
-471 -24 -47 -40 -73 -56 -92 -9 -10 -21 -29 -27 -43 -7 -14 -23 -43 -37 -65
-34 -56 -205 -399 -205 -412 0 -6 -7 -16 -15 -23 -8 -7 -15 -22 -15 -34 0 -11
-9 -34 -20 -51 -11 -16 -20 -37 -20 -45 0 -8 -9 -32 -20 -53 -11 -20 -20 -42
-20 -48 0 -7 -8 -30 -19 -53 -29 -63 -87 -224 -121 -336 -12 -41 -29 -94 -37
-118 -9 -24 -21 -69 -28 -100 -26 -109 -48 -187 -58 -207 -6 -11 -16 -49 -23
-85 -7 -36 -17 -83 -23 -105 -9 -37 -17 -77 -40 -207 -6 -29 -19 -118 -31
-198 -19 -135 -26 -220 -50 -600 -5 -80 -10 -750 -10 -1489 1 -739 -2 -1346
-5 -1350 -3 -3 -2588 -6 -5743 -7 l-5737 -1 -175 -22 c-96 -12 -200 -28 -230
-36 -30 -8 -67 -15 -83 -15 -15 0 -44 -7 -65 -16 -20 -8 -55 -19 -77 -24 -49
-10 -130 -38 -167 -56 -14 -8 -31 -14 -38 -14 -13 0 -185 -76 -230 -102 -8 -4
-26 -13 -40 -19 -14 -6 -32 -15 -40 -20 -8 -5 -28 -16 -45 -24 -58 -30 -101
-58 -227 -147 -166 -117 -391 -328 -529 -495 -120 -146 -169 -210 -169 -221 0
-5 -9 -17 -20 -27 -11 -10 -20 -24 -20 -30 0 -7 -9 -23 -19 -37 -11 -13 -56
-98 -101 -188 -114 -230 -120 -243 -120 -258 0 -7 -8 -30 -19 -50 -49 -98
-127 -391 -142 -537 -4 -44 -13 -100 -20 -125 -11 -36 -14 -1011 -16 -4975 -2
-3114 0 -4985 6 -5080 14 -212 30 -361 46 -425 7 -30 17 -80 21 -110 4 -30 11
-63 16 -73 5 -10 15 -46 23 -80 7 -34 21 -84 31 -112 96 -274 121 -331 223
-508 79 -139 84 -147 167 -262 101 -142 391 -438 542 -552 80 -62 217 -152
267 -178 17 -8 48 -26 70 -39 56 -33 220 -116 231 -116 5 0 32 -12 59 -25 28
-14 57 -25 66 -25 8 0 24 -7 35 -15 10 -8 30 -15 44 -15 14 0 45 -9 69 -20 24
-11 53 -20 65 -20 11 -1 39 -8 61 -16 22 -8 78 -21 125 -29 47 -8 105 -19 130
-24 152 -31 425 -32 7130 -34 6214 -2 6718 -1 6887 15 100 9 190 21 200 26 10
5 47 13 83 17 36 4 79 13 97 20 18 8 54 17 80 20 26 4 57 13 68 20 11 6 34 15
50 19 48 11 138 47 266 105 25 12 48 21 51 21 6 0 177 97 216 122 15 10 41 25
57 34 92 51 275 187 380 283 93 85 247 246 289 301 22 30 44 57 47 60 8 6 172
249 183 270 4 8 20 38 35 65 68 121 121 237 179 395 34 93 53 153 62 197 5 23
16 58 25 78 8 21 15 52 15 69 0 17 7 56 15 86 9 30 22 136 30 235 12 153 14
920 14 5085 0 5174 0 5155 -44 5380 -32 166 -84 355 -116 426 -11 23 -19 49
-19 58 0 9 -9 33 -20 53 -11 21 -20 45 -20 54 0 9 -6 22 -14 28 -8 7 -18 27
-21 44 -4 18 -13 39 -20 47 -7 8 -27 44 -45 80 -47 94 -61 118 -103 181 -20
31 -37 59 -37 62 0 4 -14 26 -30 49 -17 24 -42 60 -55 80 -43 66 -268 309
-371 403 -162 148 -193 172 -291 236 -18 12 -33 25 -33 30 0 5 -8 9 -19 9 -10
0 -29 8 -42 19 -29 22 -117 73 -176 101 -23 12 -45 24 -47 29 -3 5 -18 12 -33
16 -15 3 -34 12 -42 18 -7 6 -27 17 -45 23 -17 7 -56 22 -86 34 -109 44 -186
71 -235 85 -173 48 -252 64 -425 86 -130 17 -213 20 -507 20 -266 0 -353 3
-353 12 0 7 0 648 0 1424 0 869 4 1441 10 1485 5 40 14 132 20 204 5 72 14
144 20 160 6 16 16 67 21 114 5 47 16 105 24 130 7 25 17 72 21 105 3 33 13
72 20 87 8 15 14 38 14 52 0 13 18 83 40 155 22 71 40 136 40 143 0 8 9 31 20
53 11 22 20 46 20 55 0 9 9 33 20 55 11 22 20 44 20 50 0 6 9 28 20 50 11 22
20 43 20 49 0 5 9 30 21 55 12 25 29 64 39 86 28 61 112 229 142 282 14 27 34
62 42 78 55 105 131 224 257 405 120 171 297 385 436 527 113 115 329 307 463
412 58 45 112 87 120 94 35 28 280 187 288 187 5 0 14 6 20 13 6 6 39 27 74
46 35 18 81 44 103 57 40 23 223 115 280 140 17 7 56 24 87 38 31 15 63 26 70
26 7 0 27 9 43 20 17 11 38 20 48 20 9 0 34 9 54 20 21 11 47 20 58 20 12 0
25 4 31 10 23 23 297 106 469 142 28 5 73 16 100 24 28 8 84 18 126 24 41 5
87 14 102 19 15 6 84 15 154 21 71 5 155 15 188 22 83 16 669 16 750 0 33 -7
112 -17 175 -22 63 -5 138 -16 165 -25 28 -8 66 -15 85 -15 20 0 67 -9 105
-19 39 -10 92 -22 120 -26 27 -4 62 -13 77 -21 15 -8 37 -14 50 -14 25 0 134
-31 213 -61 28 -10 57 -19 66 -19 8 0 31 -8 52 -19 20 -10 52 -22 71 -25 19
-4 39 -13 46 -21 7 -8 22 -15 33 -15 11 0 41 -9 66 -21 25 -12 64 -29 86 -39
137 -61 161 -73 175 -81 8 -5 22 -12 30 -15 30 -11 56 -25 135 -70 44 -25 94
-52 110 -60 17 -8 44 -23 60 -34 17 -11 46 -29 65 -40 61 -35 218 -140 325
-216 66 -48 279 -218 334 -269 118 -106 268 -256 330 -329 182 -212 219 -257
282 -343 70 -94 211 -307 245 -368 24 -45 40 -71 51 -85 6 -8 35 -60 63 -115
29 -55 56 -105 61 -111 5 -6 12 -25 15 -42 4 -17 13 -37 20 -43 8 -6 14 -16
14 -22 0 -5 11 -33 24 -61 55 -117 66 -144 66 -157 0 -8 7 -25 16 -38 9 -13
20 -37 25 -55 4 -17 20 -62 34 -101 15 -38 32 -88 37 -110 6 -22 19 -61 29
-87 11 -26 19 -58 19 -72 0 -14 6 -40 14 -58 17 -40 55 -192 67 -269 4 -31 13
-68 18 -82 6 -15 13 -57 17 -94 3 -38 12 -93 20 -124 8 -31 21 -155 30 -275
15 -193 17 -425 15 -1964 -1 -1210 2 -1774 10 -1839 6 -55 19 -109 30 -130 10
-20 19 -43 19 -52 0 -9 7 -22 15 -29 8 -6 17 -21 21 -32 20 -63 136 -189 234
-253 37 -24 92 -54 121 -66 30 -11 104 -29 164 -39 100 -16 119 -17 205 -4 52
8 113 24 136 34 23 11 46 20 52 20 6 0 31 14 54 30 24 17 59 41 78 54 78 53
196 203 234 296 10 25 27 81 39 125 20 79 20 97 24 1727 2 993 0 1736 -6 1870
-15 322 -30 531 -46 628 -8 47 -17 110 -20 140 -6 57 -38 231 -57 310 -6 25
-17 77 -24 115 -7 39 -19 88 -28 110 -8 22 -15 50 -16 63 0 13 -6 35 -14 50
-8 15 -17 46 -21 67 -8 45 -33 130 -77 255 -16 47 -35 105 -42 130 -7 25 -20
59 -29 77 -10 18 -17 39 -17 47 0 9 -9 30 -20 48 -11 18 -20 41 -20 51 0 10
-9 35 -19 55 -33 65 -61 129 -61 142 0 6 -9 23 -20 37 -11 14 -20 34 -20 43 0
10 -7 23 -15 30 -8 7 -15 17 -15 23 0 9 -41 101 -61 137 -5 8 -25 47 -45 85
-19 39 -42 81 -49 95 -8 14 -17 32 -20 40 -3 8 -17 33 -30 55 -14 22 -30 51
-37 65 -7 14 -30 50 -50 80 -21 30 -38 58 -38 62 0 20 -281 417 -405 572 -165
207 -262 314 -493 543 -190 190 -285 276 -418 379 -43 34 -90 71 -104 83 -57
49 -196 152 -296 221 -12 8 -43 30 -69 48 -25 17 -50 32 -55 32 -5 0 -15 6
-22 13 -24 23 -153 103 -243 152 -16 9 -48 27 -70 40 -22 13 -71 40 -110 60
-38 19 -77 39 -85 44 -8 5 -26 14 -40 20 -14 6 -32 15 -40 20 -32 18 -128 61
-137 61 -6 0 -16 7 -23 15 -7 8 -19 15 -27 15 -14 0 -97 35 -156 65 -16 8 -34
15 -40 15 -7 0 -29 9 -50 20 -20 11 -43 20 -49 20 -7 0 -26 7 -43 16 -16 9
-48 22 -70 29 -22 7 -71 25 -110 40 -38 14 -93 32 -121 39 -27 7 -56 16 -63
20 -7 5 -38 14 -69 21 -32 8 -84 21 -117 30 -173 45 -337 83 -400 91 -27 4
-59 11 -70 17 -11 6 -58 14 -104 18 -47 4 -123 15 -170 23 -47 8 -142 21 -211
27 -69 6 -156 15 -195 20 -91 10 -722 9 -800 -2z m-3430 -10034 c44 -8 94 -15
110 -15 29 0 193 -48 231 -67 10 -6 46 -23 79 -38 169 -79 378 -257 467 -397
55 -88 58 -92 69 -118 6 -14 15 -32 20 -40 32 -56 69 -135 69 -147 0 -7 9 -30
20 -50 11 -21 20 -52 20 -70 0 -18 6 -50 14 -70 8 -21 18 -56 21 -78 11 -57 6
-10129 -4 -10179 -17 -81 -44 -181 -56 -211 -8 -16 -19 -47 -25 -67 -6 -21
-16 -40 -21 -43 -5 -4 -9 -13 -9 -21 0 -12 -27 -64 -73 -139 -64 -104 -202
-256 -283 -312 -105 -71 -207 -133 -221 -133 -5 0 -26 -9 -48 -19 -64 -31
-136 -58 -190 -71 -27 -7 -68 -17 -90 -23 -55 -15 -13478 -22 -13686 -8 -80 6
-165 18 -189 26 -23 8 -52 15 -64 15 -12 0 -38 9 -59 20 -20 11 -45 20 -54 20
-10 0 -31 9 -48 20 -16 11 -36 20 -43 20 -24 0 -156 83 -245 154 -51 41 -120
109 -166 165 -42 53 -81 103 -85 111 -4 8 -18 33 -31 55 -39 65 -85 157 -85
169 0 7 -9 29 -20 51 -11 22 -20 49 -20 61 0 12 -7 41 -16 65 -18 49 -28 117
-44 294 -7 84 -10 1591 -7 5000 3 4999 2 4899 37 5060 18 81 43 161 56 180 8
11 14 26 14 33 0 23 83 182 140 267 93 141 268 297 424 379 27 14 54 30 60 34
12 9 118 49 202 76 28 10 105 25 170 35 114 17 412 18 6849 19 5829 1 6741 -1
6810 -13z"/>
    <path d="M24160 21490 c0 -5 7 -10 15 -10 8 0 15 5 15 10 0 6 -7 10 -15 10 -8
0 -15 -4 -15 -10z"/>
    <path d="M24440 21246 c0 -9 5 -16 10 -16 6 0 10 4 10 9 0 6 -4 13 -10 16 -5
3 -10 -1 -10 -9z"/>
    <path d="M24681 20814 c0 -11 3 -14 6 -6 3 7 2 16 -1 19 -3 4 -6 -2 -5 -13z"/>
    <path d="M24722 20615 c0 -16 2 -22 5 -12 2 9 2 23 0 30 -3 6 -5 -1 -5 -18z"/>
    <path d="M16545 18148 c-113 -27 -215 -57 -250 -73 -16 -7 -56 -25 -87 -39
-31 -14 -60 -26 -63 -26 -4 0 -18 -9 -32 -20 -14 -11 -34 -20 -45 -20 -10 0
-21 -7 -24 -15 -3 -8 -16 -17 -27 -21 -12 -4 -42 -23 -67 -43 -25 -20 -57 -44
-71 -53 -67 -42 -237 -212 -313 -313 -45 -59 -77 -109 -125 -195 -8 -14 -42
-88 -77 -165 -7 -16 -24 -56 -38 -87 -15 -31 -26 -66 -26 -77 0 -11 -6 -35
-14 -53 -16 -39 -44 -219 -52 -339 -4 -46 -1 -124 5 -174 37 -300 71 -422 178
-640 38 -77 49 -95 102 -175 96 -142 187 -241 321 -349 97 -78 210 -156 267
-185 l32 -16 3 -767 4 -768 23 -55 c63 -150 101 -210 181 -290 54 -54 118
-103 183 -137 108 -57 264 -84 413 -72 164 14 298 82 422 215 55 58 90 107
119 166 23 46 45 101 49 123 4 22 13 54 21 72 10 26 13 176 13 772 l0 741 28
17 c15 9 47 29 72 44 173 107 309 230 446 401 52 65 94 121 94 125 0 3 6 14
14 22 15 18 93 170 124 241 30 70 57 149 77 225 23 90 44 275 44 390 0 106
-22 336 -34 355 -4 7 -14 38 -21 69 -7 31 -25 88 -39 126 -15 39 -32 86 -38
105 -6 19 -16 42 -22 50 -6 8 -26 44 -44 80 -28 56 -126 208 -164 257 -21 27
-161 167 -192 193 -95 78 -262 195 -294 205 -10 3 -22 12 -24 19 -3 8 -19 17
-36 21 -16 3 -35 13 -42 21 -6 8 -19 14 -28 14 -9 0 -34 9 -56 20 -22 11 -47
20 -58 20 -10 0 -34 8 -55 19 -20 10 -61 21 -91 25 -30 4 -79 14 -110 22 -41
10 -113 14 -276 13 -181 -1 -234 -5 -300 -21z"/>
    <path d="M16005 17990 c4 -6 11 -8 16 -5 14 9 11 15 -7 15 -8 0 -12 -5 -9 -10z"/>
    <path d="M17860 17870 c0 -5 5 -10 10 -10 6 0 10 5 10 10 0 6 -4 10 -10 10 -5
0 -10 -4 -10 -10z"/>
    <path d="M18016 17751 c-3 -5 1 -11 9 -15 8 -3 15 -1 15 4 0 13 -18 22 -24 11z"/>
    <path d="M15321 15834 c0 -11 3 -14 6 -6 3 7 2 16 -1 19 -3 4 -6 -2 -5 -13z"/>
    <path d="M15400 15690 c0 -5 5 -10 10 -10 6 0 10 5 10 10 0 6 -4 10 -10 10 -5
0 -10 -4 -10 -10z"/>
    <path d="M24722 10590 c0 -14 2 -19 5 -12 2 6 2 18 0 25 -3 6 -5 1 -5 -13z"/>
    <path d="M8980 10466 c0 -19 5 -38 10 -41 6 -4 10 10 10 34 0 23 -4 41 -10 41
-5 0 -10 -15 -10 -34z"/>
    <path d="M9065 10171 c-3 -5 -1 -12 5 -16 5 -3 10 1 10 9 0 18 -6 21 -15 7z"/>
    <path d="M24440 9870 c0 -5 5 -10 10 -10 6 0 10 5 10 10 0 6 -4 10 -10 10 -5
0 -10 -4 -10 -10z"/>
    <path d="M24320 9744 c0 -14 3 -14 15 -4 8 7 15 14 15 16 0 2 -7 4 -15 4 -8 0
-15 -7 -15 -16z"/>
    <path d="M24283 9723 c-18 -7 -16 -23 2 -23 8 0 15 7 15 15 0 8 -1 15 -2 14
-2 0 -9 -3 -15 -6z"/>
    <path d="M9465 9670 c4 -6 11 -8 16 -5 14 9 11 15 -7 15 -8 0 -12 -5 -9 -10z"/>
    <path d="M24210 9670 c0 -5 7 -7 15 -4 8 4 15 8 15 10 0 2 -7 4 -15 4 -8 0
-15 -4 -15 -10z"/>
    <path d="M24160 9630 c0 -5 5 -10 10 -10 6 0 10 5 10 10 0 6 -4 10 -10 10 -5
0 -10 -4 -10 -10z"/>
    <path d="M24090 9600 c-13 -8 -12 -10 3 -10 9 0 17 5 17 10 0 12 -1 12 -20 0z"/>
    <path d="M9608 9593 c6 -2 18 -2 25 0 6 3 1 5 -13 5 -14 0 -19 -2 -12 -5z"/>
    <path d="M29515 31470 c3 -5 10 -10 16 -10 5 0 9 5 9 10 0 6 -7 10 -16 10 -8
0 -12 -4 -9 -10z"/>
    <path d="M25378 31428 c9 -9 15 -9 24 0 9 9 7 12 -12 12 -19 0 -21 -3 -12 -12z"/>
    <path d="M29725 31390 c3 -5 10 -10 16 -10 5 0 9 5 9 10 0 6 -7 10 -16 10 -8
0 -12 -4 -9 -10z"/>
    <path d="M25160 31350 c0 -5 7 -10 15 -10 8 0 15 5 15 10 0 6 -7 10 -15 10 -8
0 -15 -4 -15 -10z"/>
    <path d="M25070 31310 c0 -5 11 -10 25 -10 14 0 25 5 25 10 0 6 -11 10 -25 10
-14 0 -25 -4 -25 -10z"/>
    <path d="M29905 31310 c4 -6 11 -8 16 -5 14 9 11 15 -7 15 -8 0 -12 -5 -9 -10z"/>
    <path d="M30095 31230 c4 -6 11 -8 16 -5 14 9 11 15 -7 15 -8 0 -12 -5 -9 -10z"/>
    <path d="M24820 31190 c0 -5 7 -7 15 -4 8 4 15 8 15 10 0 2 -7 4 -15 4 -8 0
-15 -4 -15 -10z"/>
    <path d="M24410 30960 c0 -5 5 -10 11 -10 5 0 7 5 4 10 -3 6 -8 10 -11 10 -2
0 -4 -4 -4 -10z"/>
    <path d="M30660 30910 c0 -5 5 -10 10 -10 6 0 10 5 10 10 0 6 -4 10 -10 10 -5
0 -10 -4 -10 -10z"/>
    <path d="M24215 30830 c-3 -5 1 -10 9 -10 9 0 16 5 16 10 0 6 -4 10 -9 10 -6
0 -13 -4 -16 -10z"/>
    <path d="M31580 30190 c0 -5 5 -10 10 -10 6 0 10 5 10 10 0 6 -4 10 -10 10 -5
0 -10 -4 -10 -10z"/>
    <path d="M26333 30123 c9 -2 23 -2 30 0 6 3 -1 5 -18 5 -16 0 -22 -2 -12 -5z"/>
    <path d="M28810 30090 c0 -5 9 -10 21 -10 11 0 17 5 14 10 -3 6 -13 10 -21 10
-8 0 -14 -4 -14 -10z"/>
    <path d="M26188 30083 c7 -3 16 -2 19 1 4 3 -2 6 -13 5 -11 0 -14 -3 -6 -6z"/>
    <path d="M25835 29970 c-3 -5 1 -10 9 -10 9 0 16 5 16 10 0 6 -4 10 -9 10 -6
0 -13 -4 -16 -10z"/>
    <path d="M29248 29923 c6 -2 18 -2 25 0 6 3 1 5 -13 5 -14 0 -19 -2 -12 -5z"/>
    <path d="M29440 29850 c0 -5 5 -10 10 -10 6 0 10 5 10 10 0 6 -4 10 -10 10 -5
0 -10 -4 -10 -10z"/>
    <path d="M32060 29710 c0 -5 5 -10 10 -10 6 0 10 5 10 10 0 6 -4 10 -10 10 -5
0 -10 -4 -10 -10z"/>
    <path d="M25130 29610 c0 -5 7 -10 16 -10 8 0 12 5 9 10 -3 6 -10 10 -16 10
-5 0 -9 -4 -9 -10z"/>
    <path d="M32157 29613 c-10 -9 -9 -23 2 -23 5 0 11 7 15 15 5 15 -5 20 -17 8z"/>
    <path d="M22720 29430 c0 -5 5 -10 10 -10 6 0 10 5 10 10 0 6 -4 10 -10 10 -5
0 -10 -4 -10 -10z"/>
    <path d="M30165 29410 c-3 -5 1 -10 10 -10 9 0 13 5 10 10 -3 6 -8 10 -10 10
-2 0 -7 -4 -10 -10z"/>
    <path d="M24835 29400 c3 -5 8 -10 11 -10 2 0 4 5 4 10 0 6 -5 10 -11 10 -5 0
-7 -4 -4 -10z"/>
    <path d="M32380 29299 c0 -5 5 -7 10 -4 6 3 10 8 10 11 0 2 -4 4 -10 4 -5 0
-10 -5 -10 -11z"/>
    <path d="M24500 29130 c0 -5 5 -10 10 -10 6 0 10 5 10 10 0 6 -4 10 -10 10 -5
0 -10 -4 -10 -10z"/>
    <path d="M22390 28965 c0 -9 5 -15 10 -13 12 4 11 16 -1 24 -5 3 -9 -2 -9 -11z"/>
    <path d="M30680 28970 c0 -5 5 -10 10 -10 6 0 10 5 10 10 0 6 -4 10 -10 10 -5
0 -10 -4 -10 -10z"/>
    <path d="M30760 28890 c0 -5 5 -10 10 -10 6 0 10 5 10 10 0 6 -4 10 -10 10 -5
0 -10 -4 -10 -10z"/>
    <path d="M30840 28806 c0 -9 5 -16 10 -16 6 0 10 4 10 9 0 6 -4 13 -10 16 -5
3 -10 -1 -10 -9z"/>
    <path d="M22160 28564 c0 -8 5 -12 10 -9 6 3 10 10 10 16 0 5 -4 9 -10 9 -5 0
-10 -7 -10 -16z"/>
    <path d="M33025 28150 c-3 -5 -1 -10 4 -10 6 0 11 5 11 10 0 6 -2 10 -4 10 -3
0 -8 -4 -11 -10z"/>
    <path d="M31360 28084 c0 -8 5 -12 10 -9 6 4 8 11 5 16 -9 14 -15 11 -15 -7z"/>
    <path d="M31400 28010 c0 -11 5 -20 10 -20 6 0 10 9 10 20 0 11 -4 20 -10 20
-5 0 -10 -9 -10 -20z"/>
    <path d="M31440 27945 c0 -14 5 -25 10 -25 6 0 10 11 10 25 0 14 -4 25 -10 25
-5 0 -10 -11 -10 -25z"/>
    <path d="M21801 27684 c0 -11 3 -14 6 -6 3 7 2 16 -1 19 -3 4 -6 -2 -5 -13z"/>
    <path d="M31600 27601 c0 -12 5 -21 10 -21 6 0 10 6 10 14 0 8 -4 18 -10 21
-5 3 -10 -3 -10 -14z"/>
    <path d="M21760 27574 c0 -14 4 -23 10 -19 6 3 10 15 10 26 0 10 -4 19 -10 19
-5 0 -10 -12 -10 -26z"/>
    <path d="M21720 27436 c0 -14 5 -26 10 -26 6 0 10 9 10 19 0 11 -4 23 -10 26
-6 4 -10 -5 -10 -19z"/>
    <path d="M33304 27436 c-3 -8 -1 -23 5 -33 9 -15 10 -13 11 15 0 34 -7 42 -16
18z"/>
    <path d="M31680 27426 c0 -9 5 -16 10 -16 6 0 10 4 10 9 0 6 -4 13 -10 16 -5
3 -10 -1 -10 -9z"/>
    <path d="M31721 27304 c0 -11 3 -14 6 -6 3 7 2 16 -1 19 -3 4 -6 -2 -5 -13z"/>
    <path d="M31760 27181 c0 -12 5 -21 10 -21 6 0 10 6 10 14 0 8 -4 18 -10 21
-5 3 -10 -3 -10 -14z"/>
    <path d="M23232 27070 c0 -14 2 -19 5 -12 2 6 2 18 0 25 -3 6 -5 1 -5 -13z"/>
    <path d="M31842 26910 c0 -14 2 -19 5 -12 2 6 2 18 0 25 -3 6 -5 1 -5 -13z"/>
    <path d="M21561 26734 c0 -11 3 -14 6 -6 3 7 2 16 -1 19 -3 4 -6 -2 -5 -13z"/>
    <path d="M23066 26314 c-9 -25 -7 -72 4 -79 6 -4 10 13 10 44 0 28 -2 51 -4
51 -2 0 -7 -7 -10 -16z"/>
    <path d="M31962 26215 c0 -65 3 -91 8 -75 11 33 11 130 0 155 -6 13 -8 -16 -8
-80z"/>
    <path d="M21482 25768 c-1 -100 2 -158 8 -158 11 0 12 136 0 245 -6 57 -7 41
-8 -87z"/>
    <path d="M21484 23505 c0 -99 2 -138 3 -87 2 51 2 132 0 180 -1 48 -3 6 -3
-93z"/>
    <path d="M21476 23264 c-10 -27 -7 -44 9 -44 10 0 15 10 15 30 0 32 -14 40
-24 14z"/>
    <path d="M24120 23150 c0 -5 9 -10 19 -10 11 0 23 5 26 10 4 6 -5 10 -19 10
-14 0 -26 -4 -26 -10z"/>
    <path d="M9015 22960 c-3 -5 -1 -10 4 -10 6 0 11 5 11 10 0 6 -2 10 -4 10 -3
0 -8 -4 -11 -10z"/>
    <path d="M8320 22470 c0 -5 5 -10 10 -10 6 0 10 5 10 10 0 6 -4 10 -10 10 -5
0 -10 -4 -10 -10z"/>
    <path d="M25590 22233 c0 -5 12 -16 25 -26 21 -15 25 -16 25 -3 0 8 -9 20 -19
26 -23 12 -31 13 -31 3z"/>
    <path d="M25820 21931 c0 -12 5 -21 10 -21 6 0 10 6 10 14 0 8 -4 18 -10 21
-5 3 -10 -3 -10 -14z"/>
    <path d="M7761 21754 c0 -11 3 -14 6 -6 3 7 2 16 -1 19 -3 4 -6 -2 -5 -13z"/>
    <path d="M7594 21416 c-4 -10 -2 -22 4 -28 8 -8 13 -7 18 6 4 10 2 22 -4 28
-8 8 -13 7 -18 -6z"/>
    <path d="M7404 20320 c0 -91 2 -128 3 -82 2 45 2 119 0 165 -1 45 -3 8 -3 -83z"/>
    <path d="M7402 17118 c1 -1851 4 -2478 9 -1958 10 1216 10 4680 -1 4680 -7 0
-9 -977 -8 -2722z"/>
    <path d="M7400 13598 c0 -322 4 -488 10 -478 13 21 13 970 0 970 -7 0 -10
-171 -10 -492z"/>
    <path d="M7402 12485 l1 -330 10 308 c6 214 6 315 -1 330 -8 16 -10 -71 -10
-308z"/>
    <path d="M7400 11680 c0 -100 4 -160 10 -160 6 0 10 60 10 160 0 100 -4 160
-10 160 -6 0 -10 -60 -10 -160z"/>
    <path d="M7400 10960 c0 -153 4 -240 10 -240 6 0 10 87 10 240 0 153 -4 240
-10 240 -6 0 -10 -87 -10 -240z"/>
    <path d="M7482 10090 c0 -14 2 -19 5 -12 2 6 2 18 0 25 -3 6 -5 1 -5 -13z"/>
    <path d="M7516 9953 c-4 -9 -2 -21 4 -27 7 -7 10 -2 10 17 0 31 -5 34 -14 10z"/>
    <path d="M7641 9604 c0 -11 3 -14 6 -6 3 7 2 16 -1 19 -3 4 -6 -2 -5 -13z"/>
    <path d="M7800 9290 c0 -5 5 -10 11 -10 5 0 7 5 4 10 -3 6 -8 10 -11 10 -2 0
-4 -4 -4 -10z"/>
    <path d="M7880 9146 c0 -9 5 -16 10 -16 6 0 10 4 10 9 0 6 -4 13 -10 16 -5 3
-10 -1 -10 -9z"/>
    <path d="M7916 9084 c-4 -10 -1 -14 6 -12 15 5 23 28 10 28 -5 0 -13 -7 -16
-16z"/>
    <path d="M8080 8890 c0 -5 5 -10 10 -10 6 0 10 5 10 10 0 6 -4 10 -10 10 -5 0
-10 -4 -10 -10z"/>
    <path d="M8310 8650 c0 -5 7 -10 15 -10 8 0 15 5 15 10 0 6 -7 10 -15 10 -8 0
-15 -4 -15 -10z"/>
    <path d="M24960 8330 c0 -5 5 -10 10 -10 6 0 10 5 10 10 0 6 -4 10 -10 10 -5
0 -10 -4 -10 -10z"/>
    <path d="M8728 8318 c9 -9 15 -9 24 0 9 9 7 12 -12 12 -19 0 -21 -3 -12 -12z"/>
    <path d="M24825 8250 c-3 -5 1 -10 9 -10 9 0 16 5 16 10 0 6 -4 10 -9 10 -6 0
-13 -4 -16 -10z"/>
    <path d="M9308 8043 c7 -3 16 -2 19 1 4 3 -2 6 -13 5 -11 0 -14 -3 -6 -6z"/>
    <path d="M9888 7923 c7 -3 16 -2 19 1 4 3 -2 6 -13 5 -11 0 -14 -3 -6 -6z"/>
  </g>
</svg>