<svg xmlns="http://www.w3.org/2000/svg" viewBox="0 0 4096.000000 4096.000000">
  <g transform="translate(0.000000,4096.000000) scale(0.100000,-0.100000)" fill="#f4f5f7" stroke="none">
    <path d="M28610 40416 c-96 -30 -157 -55 -215 -86 -33 -18 -66 -37 -73 -42
-12 -11 -32 -22 -119 -70 -27 -14 -55 -34 -62 -42 -8 -9 -21 -16 -31 -16 -9 0
-29 -9 -43 -20 -14 -11 -45 -29 -68 -41 -69 -33 -125 -63 -140 -76 -8 -6 -50
-30 -94 -53 -44 -23 -87 -48 -95 -55 -8 -7 -31 -21 -50 -30 -50 -24 -112 -58
-146 -81 -16 -11 -40 -25 -54 -32 -14 -7 -52 -27 -85 -46 -55 -32 -114 -63
-190 -102 -16 -8 -37 -19 -45 -24 -8 -6 -40 -24 -70 -40 -30 -17 -77 -43 -105
-59 -27 -16 -90 -50 -140 -76 -49 -26 -115 -62 -145 -81 -30 -18 -73 -43 -95
-54 -22 -12 -62 -34 -90 -50 -27 -16 -68 -39 -90 -50 -22 -12 -65 -37 -95 -56
-30 -18 -77 -45 -105 -60 -27 -14 -72 -39 -100 -55 -27 -16 -66 -36 -85 -45
-19 -9 -46 -25 -60 -36 -14 -11 -38 -26 -55 -34 -16 -8 -52 -28 -80 -44 -27
-16 -70 -40 -95 -53 -25 -14 -70 -39 -100 -55 -30 -17 -77 -43 -105 -57 -27
-15 -72 -39 -100 -55 -27 -16 -72 -41 -100 -55 -27 -15 -72 -39 -100 -55 -27
-16 -72 -41 -100 -55 -27 -15 -72 -39 -100 -55 -27 -16 -68 -38 -90 -50 -52
-26 -113 -61 -148 -85 -34 -22 -74 -44 -142 -80 -27 -14 -71 -38 -96 -53 -26
-15 -70 -40 -99 -57 -29 -16 -73 -42 -99 -57 -25 -15 -64 -36 -86 -48 -22 -12
-61 -33 -86 -48 -26 -15 -95 -54 -154 -87 -59 -33 -131 -73 -159 -89 -28 -15
-64 -35 -81 -43 -16 -8 -37 -19 -45 -24 -8 -5 -33 -19 -55 -30 -22 -11 -69
-37 -105 -59 -36 -21 -83 -48 -105 -60 -22 -11 -62 -34 -90 -50 -27 -16 -66
-37 -85 -47 -19 -10 -48 -27 -63 -37 -32 -21 -68 -42 -142 -81 -27 -14 -72
-39 -100 -55 -27 -16 -72 -40 -100 -54 -27 -15 -72 -39 -100 -55 -27 -17 -68
-39 -90 -51 -22 -12 -62 -34 -90 -50 -27 -16 -70 -40 -95 -53 -89 -48 -145
-80 -160 -92 -8 -7 -26 -16 -40 -20 -14 -4 -32 -13 -40 -20 -8 -8 -55 -34
-104 -59 -50 -26 -97 -53 -105 -60 -9 -7 -36 -23 -61 -35 -45 -21 -89 -45
-185 -101 -27 -16 -68 -38 -90 -50 -22 -11 -65 -36 -95 -55 -30 -19 -75 -44
-99 -55 -23 -11 -54 -29 -68 -40 -14 -11 -33 -20 -41 -20 -9 0 -23 -6 -31 -14
-17 -16 -77 -50 -156 -91 -27 -14 -72 -38 -100 -54 -27 -16 -72 -41 -100 -55
-27 -14 -72 -39 -100 -55 -27 -17 -68 -39 -90 -51 -22 -12 -67 -37 -100 -56
-33 -19 -73 -41 -90 -48 -16 -8 -41 -23 -55 -34 -14 -10 -36 -23 -50 -27 -14
-4 -38 -18 -53 -31 -16 -13 -34 -24 -41 -24 -7 0 -27 -11 -45 -24 -19 -14 -46
-28 -61 -31 -15 -3 -36 -15 -45 -25 -9 -10 -30 -22 -45 -25 -16 -3 -34 -13
-42 -22 -7 -9 -31 -24 -53 -34 -22 -11 -62 -33 -90 -49 -27 -17 -69 -39 -92
-50 -23 -12 -45 -24 -47 -29 -3 -5 -29 -20 -58 -35 -29 -15 -75 -40 -103 -56
-27 -16 -68 -38 -90 -50 -22 -12 -67 -37 -100 -56 -33 -19 -78 -42 -100 -53
-22 -10 -46 -26 -54 -35 -7 -9 -21 -16 -30 -16 -9 0 -32 -10 -51 -22 -19 -13
-51 -32 -71 -43 -53 -29 -222 -126 -277 -157 -26 -15 -66 -37 -89 -48 -23 -11
-45 -25 -48 -30 -3 -5 -29 -20 -58 -34 -28 -15 -74 -39 -102 -55 -27 -17 -68
-39 -90 -51 -22 -12 -62 -34 -90 -50 -27 -16 -68 -38 -91 -49 -22 -11 -51 -29
-65 -39 -13 -11 -35 -23 -49 -27 -14 -4 -34 -15 -45 -25 -11 -10 -31 -21 -44
-25 -12 -4 -39 -18 -58 -31 -20 -13 -41 -24 -48 -24 -7 0 -18 -7 -25 -15 -7
-9 -34 -26 -59 -39 -25 -13 -69 -35 -97 -49 -28 -15 -56 -33 -63 -41 -7 -8
-25 -18 -41 -21 -15 -3 -36 -15 -46 -26 -9 -10 -22 -19 -28 -19 -11 0 -27 -8
-121 -61 -27 -16 -72 -40 -100 -54 -27 -15 -72 -39 -100 -55 -27 -16 -69 -38
-91 -49 -23 -12 -47 -27 -53 -35 -7 -8 -24 -17 -38 -21 -15 -3 -38 -15 -51
-26 -14 -11 -44 -28 -66 -39 -23 -11 -63 -33 -91 -49 -27 -17 -68 -39 -90 -51
-22 -12 -67 -37 -100 -55 -33 -19 -78 -43 -100 -53 -22 -11 -46 -26 -53 -35
-8 -9 -26 -19 -42 -22 -16 -3 -34 -13 -42 -22 -7 -9 -31 -24 -53 -35 -22 -10
-62 -32 -90 -48 -27 -16 -70 -40 -95 -53 -115 -62 -146 -80 -157 -89 -14 -11
-82 -49 -138 -76 -22 -11 -46 -27 -54 -36 -7 -9 -19 -16 -25 -16 -6 0 -22 -6
-36 -14 -14 -7 -50 -26 -80 -43 -30 -16 -77 -42 -105 -58 -27 -15 -70 -39 -95
-52 -25 -14 -67 -38 -95 -53 -27 -16 -69 -39 -92 -50 -23 -11 -45 -25 -48 -30
-3 -5 -47 -30 -98 -56 -51 -25 -117 -61 -147 -80 -30 -18 -73 -43 -95 -54 -81
-43 -122 -67 -152 -88 -17 -12 -34 -22 -38 -22 -11 0 -229 -122 -250 -140 -11
-10 -31 -21 -45 -25 -14 -4 -36 -16 -50 -25 -14 -10 -41 -25 -60 -34 -19 -10
-57 -30 -85 -46 -27 -17 -72 -41 -100 -56 -27 -14 -72 -38 -100 -54 -27 -16
-72 -40 -100 -55 -27 -14 -72 -39 -100 -55 -51 -29 -101 -56 -190 -105 -27
-15 -72 -40 -100 -55 -27 -16 -68 -38 -90 -50 -22 -11 -85 -47 -140 -80 -55
-33 -122 -71 -150 -86 -27 -14 -72 -39 -100 -54 -27 -16 -74 -41 -103 -56 -29
-15 -55 -30 -58 -35 -2 -5 -24 -18 -47 -29 -42 -20 -86 -45 -182 -100 -27 -16
-72 -40 -100 -55 -27 -14 -72 -39 -100 -55 -27 -16 -68 -39 -90 -50 -22 -12
-67 -37 -100 -55 -33 -19 -79 -43 -101 -54 -23 -10 -45 -24 -48 -30 -4 -6 -26
-20 -49 -31 -23 -11 -64 -34 -92 -50 -27 -16 -69 -39 -92 -50 -23 -11 -45 -25
-48 -30 -3 -5 -25 -19 -48 -30 -23 -11 -64 -34 -92 -50 -48 -27 -98 -55 -176
-97 -19 -10 -48 -28 -65 -40 -16 -11 -40 -24 -54 -28 -14 -4 -36 -16 -50 -25
-14 -10 -41 -25 -60 -35 -61 -29 -117 -61 -145 -83 -15 -12 -36 -22 -46 -22
-9 0 -30 -11 -46 -24 -15 -13 -39 -27 -53 -31 -14 -4 -32 -13 -40 -20 -8 -7
-32 -21 -52 -31 -20 -11 -85 -46 -144 -79 -108 -60 -139 -78 -298 -170 -48
-27 -108 -62 -134 -77 -26 -15 -69 -39 -97 -53 -27 -15 -72 -39 -100 -55 -27
-15 -70 -39 -95 -53 -51 -27 -228 -128 -299 -169 -25 -15 -68 -39 -96 -53 -27
-13 -57 -29 -65 -35 -8 -5 -26 -15 -40 -21 -14 -6 -52 -26 -85 -44 -33 -19
-79 -43 -102 -55 -23 -11 -45 -25 -49 -31 -3 -6 -25 -19 -48 -30 -22 -10 -66
-33 -96 -50 -30 -18 -75 -43 -100 -56 -25 -14 -52 -30 -60 -37 -8 -6 -31 -20
-50 -29 -19 -10 -53 -28 -75 -42 -22 -13 -62 -36 -90 -50 -27 -15 -72 -40
-100 -56 -27 -16 -69 -38 -91 -49 -23 -11 -47 -26 -53 -34 -7 -8 -29 -20 -49
-27 -20 -6 -44 -18 -53 -26 -15 -13 -45 -30 -144 -83 -22 -12 -62 -34 -90 -50
-27 -16 -70 -40 -95 -54 -25 -13 -70 -38 -100 -55 -30 -17 -77 -43 -105 -56
-27 -14 -77 -41 -110 -60 -33 -19 -78 -44 -100 -55 -22 -12 -62 -34 -90 -50
-27 -16 -69 -38 -91 -49 -23 -10 -45 -25 -49 -31 -4 -6 -26 -21 -49 -31 -22
-11 -62 -32 -87 -47 -103 -59 -201 -112 -209 -112 -5 0 -21 -11 -37 -24 -15
-13 -44 -31 -63 -40 -19 -9 -60 -31 -90 -48 -30 -16 -75 -41 -100 -55 -25 -13
-67 -37 -95 -53 -27 -16 -69 -38 -91 -49 -23 -12 -47 -27 -53 -35 -7 -8 -24
-17 -39 -21 -15 -4 -35 -14 -46 -23 -10 -9 -37 -27 -60 -39 -107 -56 -145 -76
-191 -103 -27 -16 -72 -40 -100 -55 -58 -30 -120 -66 -202 -115 -70 -42 -126
-73 -173 -95 -19 -9 -44 -25 -55 -35 -11 -10 -31 -21 -45 -25 -14 -4 -39 -18
-57 -31 -17 -13 -38 -24 -47 -24 -8 0 -28 -11 -44 -25 -17 -14 -33 -25 -37
-25 -4 0 -44 -21 -89 -46 -44 -25 -119 -66 -166 -91 -47 -25 -92 -51 -100 -58
-8 -7 -35 -22 -60 -34 -25 -12 -67 -34 -95 -50 -27 -17 -68 -39 -90 -51 -38
-20 -60 -33 -192 -108 -32 -19 -96 -54 -143 -79 -47 -25 -96 -54 -109 -64 -13
-11 -30 -19 -38 -19 -8 0 -29 -10 -46 -22 -32 -23 -50 -34 -141 -85 -26 -16
-69 -40 -95 -55 -25 -15 -62 -35 -81 -45 -19 -10 -49 -28 -67 -40 -17 -13 -35
-23 -41 -23 -5 0 -25 -11 -45 -24 -19 -13 -46 -27 -58 -31 -13 -4 -35 -16 -48
-27 -14 -10 -43 -27 -65 -38 -23 -11 -63 -33 -91 -49 -27 -17 -68 -39 -90 -50
-22 -12 -67 -36 -100 -55 -33 -19 -78 -44 -100 -56 -22 -12 -62 -34 -90 -50
-27 -16 -70 -40 -95 -53 -120 -65 -146 -80 -160 -91 -8 -6 -31 -20 -50 -29
-19 -10 -55 -31 -80 -47 -25 -17 -61 -37 -80 -46 -19 -9 -44 -24 -55 -34 -11
-10 -37 -23 -57 -29 -21 -7 -40 -17 -44 -22 -3 -6 -29 -21 -57 -34 -29 -13
-92 -47 -142 -75 -49 -28 -110 -60 -135 -72 -25 -11 -58 -31 -73 -44 -16 -13
-33 -24 -39 -24 -5 0 -23 -10 -38 -22 -16 -13 -47 -34 -69 -48 -23 -13 -59
-42 -80 -65 -100 -104 -94 -95 -165 -244 l-36 -73 0 -9990 0 -9989 25 -59 c14
-33 25 -67 25 -77 0 -19 36 -77 92 -151 50 -66 143 -135 238 -177 19 -8 56
-26 81 -40 26 -14 53 -25 60 -25 8 0 41 -14 74 -30 33 -16 67 -30 75 -30 8 0
29 -8 45 -19 17 -10 48 -24 70 -31 22 -7 51 -19 65 -26 28 -15 134 -59 195
-80 22 -8 56 -23 75 -33 19 -10 49 -22 67 -26 18 -3 43 -15 55 -25 13 -10 43
-23 67 -30 23 -6 57 -20 74 -31 18 -10 39 -19 47 -19 9 0 42 -13 75 -30 33
-16 67 -30 75 -30 8 0 29 -9 47 -19 17 -11 53 -26 80 -35 26 -8 66 -24 88 -35
21 -12 46 -21 55 -21 8 0 33 -12 55 -25 22 -14 47 -25 55 -25 9 0 34 -9 55
-21 22 -11 58 -27 80 -34 61 -21 166 -64 206 -86 20 -10 43 -19 50 -19 8 0 41
-14 74 -30 33 -17 66 -30 75 -30 8 0 33 -11 55 -25 22 -13 49 -25 60 -25 11 0
38 -11 60 -25 22 -13 47 -25 55 -25 9 0 42 -13 75 -30 33 -16 67 -30 75 -30 8
0 33 -11 55 -25 22 -13 46 -25 54 -25 14 0 94 -33 206 -85 28 -13 61 -26 74
-30 14 -4 45 -18 69 -31 25 -13 51 -24 59 -24 8 0 35 -11 61 -25 26 -14 53
-25 61 -25 8 0 37 -11 65 -24 100 -48 188 -86 200 -86 6 0 31 -11 56 -24 25
-13 61 -27 80 -31 19 -4 47 -16 61 -26 14 -10 38 -21 55 -25 16 -4 50 -17 76
-30 26 -13 53 -24 60 -24 7 0 40 -14 73 -30 33 -17 65 -30 72 -30 7 0 34 -11
60 -24 27 -13 62 -29 78 -34 46 -16 158 -61 179 -73 11 -6 44 -20 74 -30 30
-10 60 -23 66 -28 6 -4 29 -14 51 -21 22 -7 60 -24 84 -37 24 -12 51 -23 60
-23 9 0 34 -11 56 -25 22 -13 47 -25 55 -25 8 0 42 -14 75 -30 33 -16 66 -30
73 -30 7 0 35 -11 62 -25 27 -14 55 -25 62 -25 7 0 34 -11 60 -25 26 -14 53
-25 61 -25 8 0 39 -14 70 -30 31 -17 64 -30 73 -30 9 0 37 -11 63 -24 78 -42
177 -86 192 -86 8 0 32 -12 54 -25 22 -14 47 -25 55 -25 8 0 42 -14 75 -30 33
-16 67 -30 75 -30 9 0 26 -7 38 -16 12 -8 47 -24 77 -34 30 -10 65 -26 77 -34
12 -9 29 -16 38 -16 9 0 42 -13 75 -30 33 -16 67 -30 75 -30 8 0 36 -11 62
-25 26 -14 53 -25 61 -25 7 0 35 -11 63 -24 27 -14 67 -31 89 -39 69 -25 149
-58 187 -78 20 -10 43 -19 51 -19 8 0 34 -11 58 -23 24 -13 60 -29 79 -35 19
-7 57 -23 84 -37 27 -14 54 -25 60 -25 6 0 33 -11 60 -25 27 -14 57 -25 65
-25 9 0 34 -12 56 -25 22 -14 47 -25 55 -25 8 0 37 -11 65 -24 27 -14 84 -39
125 -56 41 -17 98 -42 125 -56 28 -13 63 -27 79 -30 16 -4 48 -17 70 -30 23
-13 50 -24 60 -24 11 0 38 -11 60 -24 23 -13 57 -29 77 -35 20 -6 53 -20 74
-31 22 -11 45 -20 53 -20 7 0 34 -11 60 -25 26 -14 54 -25 62 -25 8 0 42 -14
75 -30 33 -16 65 -30 72 -30 7 0 33 -11 59 -25 26 -14 54 -25 62 -25 8 0 35
-11 61 -24 25 -14 64 -30 86 -37 22 -7 53 -20 70 -30 16 -11 37 -19 45 -19 8
0 42 -14 75 -30 33 -17 65 -30 72 -30 6 0 33 -11 59 -25 26 -14 54 -25 63 -25
9 0 34 -11 56 -25 22 -13 47 -25 55 -25 8 0 42 -14 75 -30 33 -16 67 -30 75
-30 8 0 29 -9 47 -19 17 -11 51 -25 75 -31 24 -7 57 -20 74 -31 17 -10 38 -19
45 -19 8 0 36 -11 64 -24 99 -48 187 -86 199 -86 6 0 38 -14 71 -30 33 -16 67
-30 75 -30 8 0 29 -8 45 -18 17 -11 54 -27 83 -36 28 -10 54 -21 57 -26 3 -5
28 -16 57 -26 28 -9 65 -25 82 -34 17 -10 47 -21 66 -25 19 -4 49 -15 65 -25
62 -38 306 -50 400 -21 52 17 138 55 210 94 39 20 108 58 155 83 47 25 96 53
110 62 14 9 41 25 60 34 19 10 55 31 80 48 25 16 67 42 94 57 26 15 69 40 95
55 25 15 64 37 86 48 22 11 67 38 100 60 33 21 78 48 100 59 22 12 63 34 90
50 28 17 68 39 90 50 77 41 122 66 137 79 9 7 35 23 59 35 24 13 67 36 94 52
127 71 153 85 191 104 23 11 45 24 48 30 4 6 26 20 49 31 78 39 124 65 141 79
17 14 54 36 116 68 19 9 48 28 63 40 16 13 34 23 40 23 7 1 44 21 82 46 39 24
88 53 110 64 22 11 65 36 95 55 30 19 73 44 95 55 22 12 63 34 90 50 28 16 70
41 95 55 25 14 70 41 100 60 30 18 73 43 95 55 22 11 63 34 90 50 65 37 138
77 197 107 26 13 50 28 53 33 4 6 21 17 38 26 18 8 59 30 92 49 99 57 156 89
184 104 14 7 35 22 46 31 11 10 36 25 55 34 19 9 62 32 95 51 33 19 78 43 100
55 22 11 63 33 90 49 28 17 70 41 95 56 25 14 68 39 95 55 28 16 68 39 90 50
22 11 67 38 100 60 33 21 78 48 100 60 22 11 63 34 90 50 28 16 69 39 92 50
23 11 45 25 48 30 3 5 25 19 48 30 43 21 107 56 187 104 25 14 64 35 86 46 23
11 48 27 55 36 8 9 32 25 54 36 22 10 67 34 100 53 33 19 71 39 85 45 14 6 34
19 45 29 11 10 35 23 54 30 19 6 42 17 50 25 9 7 52 33 96 56 44 23 85 45 90
50 6 4 33 20 60 35 28 15 68 38 90 51 22 13 56 32 75 41 19 10 48 26 64 37 28
19 43 28 127 73 19 10 48 28 65 39 16 11 40 26 54 33 14 7 48 26 75 42 28 16
73 41 100 55 95 49 133 71 160 92 15 12 31 22 35 22 10 0 118 65 139 84 9 8
32 21 51 30 19 9 60 32 90 51 30 18 73 43 95 55 22 11 61 33 86 48 26 15 70
41 99 57 29 17 73 42 99 57 25 15 64 36 86 48 22 11 65 36 95 55 30 19 73 44
95 55 22 11 63 33 90 50 28 16 73 41 100 55 28 14 75 41 105 60 30 19 73 44
95 55 22 12 63 34 90 51 28 16 69 38 92 49 23 11 45 25 49 31 3 6 25 20 48 31
56 27 110 56 179 98 53 33 80 48 197 115 25 14 68 40 95 57 28 17 68 41 90 53
52 29 146 84 193 112 20 13 60 35 87 49 92 47 137 73 154 86 9 8 32 22 51 31
19 10 58 31 85 47 28 16 69 39 92 50 23 11 45 25 48 30 3 5 25 19 48 30 50 24
89 46 139 78 46 30 90 55 144 81 23 12 47 27 53 35 7 8 26 18 42 21 16 4 31
10 34 15 3 5 53 35 111 67 153 84 151 83 246 141 48 28 90 52 93 52 4 0 21 10
38 22 17 12 45 30 61 39 17 9 51 28 76 42 179 104 249 144 295 168 22 11 63
33 90 49 28 16 66 37 85 47 19 10 49 26 65 38 17 11 42 27 57 35 31 18 111 64
177 102 25 15 65 37 88 48 23 11 45 25 49 31 3 6 25 19 48 30 22 10 64 32 91
48 52 31 105 60 189 105 27 14 57 32 65 39 9 7 32 21 51 30 19 10 62 33 95 52
33 19 78 44 100 55 22 11 63 34 90 50 28 17 72 42 99 57 26 16 69 40 95 55 25
15 64 36 86 48 22 12 67 37 100 55 98 56 156 89 184 104 14 8 39 25 54 38 16
12 32 23 37 23 5 0 46 23 91 51 45 27 96 57 113 65 17 8 56 30 86 49 30 18 73
43 95 55 22 11 63 34 90 49 28 16 83 46 124 67 40 21 89 48 108 61 19 13 49
30 66 38 40 19 106 56 144 82 15 10 44 26 63 36 19 9 53 28 75 41 22 13 63 36
90 51 28 15 56 32 63 37 16 14 65 41 122 69 25 12 48 27 52 33 4 6 26 21 50
33 106 55 126 66 178 99 30 18 74 43 97 54 23 11 45 25 49 31 3 6 25 19 48 30
22 11 66 35 96 54 30 18 73 43 95 55 22 11 63 34 90 50 28 16 69 39 92 50 23
11 45 25 49 31 3 6 25 19 48 30 22 10 64 32 91 48 28 17 75 44 105 61 30 17
73 42 95 55 22 13 56 32 75 42 19 9 43 24 54 33 17 14 40 27 151 84 28 14 82
46 120 70 39 25 75 45 81 46 6 0 18 7 25 16 8 9 32 25 54 36 22 10 67 34 100
53 33 19 74 42 92 50 17 8 35 20 38 26 4 6 26 19 49 30 22 10 68 34 101 53 33
19 71 40 85 47 14 7 38 22 53 32 31 21 94 58 142 83 17 8 55 31 85 49 30 19
78 46 105 60 28 15 73 39 100 55 28 16 73 41 100 55 28 15 73 39 100 55 28 16
66 37 85 46 19 9 48 27 63 40 16 13 35 24 42 24 7 0 27 11 43 25 17 14 34 25
38 25 5 0 47 23 94 51 47 28 99 58 115 66 17 8 53 28 80 44 28 15 70 40 95 54
25 14 68 38 95 55 28 16 74 41 103 56 29 15 55 31 58 35 3 5 20 16 37 24 18 8
59 31 92 50 33 19 79 43 101 54 23 11 45 24 48 30 4 6 26 20 49 31 23 11 67
36 97 55 30 19 66 39 80 45 14 5 32 15 40 20 8 6 38 22 65 36 56 29 116 63
201 114 32 19 76 46 98 59 23 13 58 33 78 45 20 11 85 48 143 81 59 33 126 71
150 85 23 14 65 38 91 53 89 51 149 85 194 112 148 86 152 88 266 148 23 12
48 28 57 35 16 14 63 40 152 86 28 14 73 39 100 56 51 30 124 72 177 102 16 9
37 23 46 31 9 8 33 22 52 31 19 8 53 26 75 39 126 76 164 98 201 116 23 11 45
24 48 30 4 6 26 20 49 31 23 11 65 34 92 50 28 16 68 39 90 50 86 46 127 69
153 87 15 10 43 26 62 36 55 28 96 52 127 73 15 10 44 27 63 36 19 10 58 31
85 47 28 17 68 39 90 51 22 12 61 33 86 48 25 15 61 35 80 46 19 10 70 40 114
66 44 26 92 54 107 61 14 8 53 29 85 48 32 18 78 45 103 58 25 13 72 40 105
58 33 19 74 41 92 49 17 9 34 20 38 26 3 5 25 19 48 30 23 11 67 35 97 54 30
18 96 55 145 81 50 26 110 60 135 76 25 16 68 41 95 55 119 62 134 70 151 85
11 9 36 22 56 28 21 7 40 17 44 22 5 9 50 35 146 84 21 11 42 26 46 32 4 6 23
18 42 28 51 24 112 58 146 81 16 11 40 26 54 33 14 6 48 25 75 41 28 16 66 37
85 47 19 10 49 28 67 41 17 12 38 22 46 22 8 0 25 8 38 19 13 10 44 29 68 42
23 13 64 36 90 51 25 15 65 37 88 48 23 11 45 25 49 31 3 6 25 19 48 30 22 10
64 32 91 48 28 17 70 41 95 56 25 14 68 39 95 55 28 16 73 41 100 55 28 15 75
40 105 57 30 17 75 41 100 54 25 14 65 38 90 54 25 16 67 42 94 57 26 15 69
40 95 55 25 15 64 36 86 48 22 11 65 36 95 55 89 55 231 136 285 162 39 19
148 122 193 181 12 17 29 48 36 69 7 21 23 54 34 73 11 19 28 63 36 96 15 56
16 963 16 9658 0 8508 -2 9601 -15 9633 -8 19 -15 43 -15 52 0 9 -13 43 -29
76 -16 33 -30 65 -32 70 -2 6 -19 33 -38 60 -31 46 -52 65 -161 154 -19 16
-49 32 -67 35 -18 4 -42 15 -55 25 -13 10 -34 22 -47 26 -12 4 -39 18 -58 31
-20 13 -41 24 -48 24 -7 0 -24 9 -38 20 -14 12 -41 26 -59 32 -18 6 -42 19
-53 28 -11 10 -36 23 -57 29 -20 7 -39 18 -41 25 -3 8 -23 20 -44 26 -21 7
-45 18 -53 26 -8 7 -35 22 -60 34 -25 11 -72 36 -105 55 -62 35 -70 39 -120
62 -16 7 -57 29 -90 48 -33 19 -71 39 -85 45 -14 5 -34 15 -45 22 -19 11 -177
94 -270 141 -22 11 -47 26 -55 32 -8 7 -30 17 -49 24 -19 6 -42 18 -51 26 -10
9 -59 37 -111 63 -52 27 -103 53 -114 59 -11 6 -36 18 -55 27 -19 9 -42 20
-50 26 -8 5 -31 17 -50 25 -19 9 -57 28 -85 43 -74 41 -87 48 -125 66 -19 10
-57 30 -85 46 -27 16 -68 38 -90 50 -22 12 -67 36 -100 54 -33 19 -105 57
-160 85 -55 29 -107 56 -115 61 -8 5 -31 16 -50 25 -19 8 -46 22 -60 30 -14 9
-36 20 -50 26 -14 6 -52 26 -85 44 -33 19 -82 45 -110 59 -27 14 -57 30 -65
36 -8 5 -26 15 -40 20 -14 6 -52 26 -85 45 -33 19 -82 46 -110 60 -57 29 -95
50 -145 81 -19 11 -48 24 -65 28 -16 4 -39 16 -50 26 -11 10 -31 21 -45 25
-14 4 -36 14 -50 23 -22 15 -77 44 -270 144 -30 15 -62 33 -70 38 -8 6 -26 15
-40 21 -14 6 -52 26 -85 44 -33 19 -76 41 -95 50 -19 8 -42 20 -50 25 -8 6
-37 21 -65 35 -27 13 -61 31 -75 40 -14 8 -36 20 -50 26 -14 6 -52 26 -85 44
-33 19 -80 44 -105 55 -25 12 -52 27 -60 35 -8 7 -26 16 -40 20 -14 4 -38 18
-53 31 -16 13 -36 24 -46 24 -9 0 -32 11 -50 24 -19 14 -46 28 -62 31 -15 4
-33 13 -40 21 -7 8 -58 37 -113 65 -56 27 -108 54 -116 59 -8 5 -31 16 -50 25
-19 8 -46 21 -60 29 -14 7 -38 20 -55 29 -42 23 -109 59 -180 97 -33 18 -73
39 -90 47 -16 8 -37 19 -45 24 -8 5 -37 21 -65 35 -27 14 -77 40 -110 59 -33
18 -71 38 -85 44 -14 6 -36 17 -50 25 -14 8 -70 37 -125 65 -55 28 -107 55
-115 61 -8 5 -31 17 -50 25 -19 9 -57 29 -85 45 -27 17 -72 41 -100 55 -68 35
-249 132 -310 166 -27 15 -70 38 -95 49 -25 12 -52 27 -60 35 -8 7 -34 18 -57
24 -23 7 -45 16 -49 22 -4 6 -25 20 -48 31 -22 11 -68 35 -101 53 -33 19 -82
45 -110 59 -27 14 -57 30 -65 36 -8 5 -26 15 -40 21 -14 6 -52 26 -85 44 -33
19 -82 45 -110 59 -27 14 -57 30 -65 35 -14 9 -39 22 -125 63 -22 11 -47 24
-55 29 -8 5 -35 18 -59 29 -23 11 -54 29 -68 40 -14 11 -34 20 -44 20 -9 0
-30 11 -46 24 -15 13 -45 29 -65 35 -21 7 -41 17 -44 23 -3 5 -25 18 -48 28
-22 11 -52 26 -66 35 -14 8 -36 20 -50 25 -14 6 -52 26 -85 45 -33 19 -82 46
-110 60 -47 24 -66 34 -132 70 -16 8 -38 19 -50 25 -56 25 -71 33 -118 59 -27
15 -81 46 -120 68 -38 22 -81 44 -95 48 -14 4 -32 13 -40 20 -8 8 -35 23 -60
35 -49 22 -86 43 -140 76 -79 50 -241 127 -325 156 -67 23 -113 32 -180 34
-59 3 -106 -1 -135 -10z m190 -1253 c25 -9 54 -24 65 -33 11 -10 37 -23 57
-29 21 -7 41 -17 44 -23 3 -5 25 -19 48 -29 22 -11 64 -33 91 -50 28 -16 73
-40 100 -54 28 -14 61 -32 75 -39 14 -8 36 -19 50 -26 14 -6 52 -27 85 -45 33
-19 76 -41 95 -50 19 -8 42 -20 50 -25 8 -6 35 -20 60 -31 25 -12 52 -27 60
-34 8 -6 31 -18 50 -25 19 -7 46 -21 60 -30 14 -10 36 -21 50 -25 14 -4 36
-15 50 -25 24 -17 80 -47 310 -168 318 -166 369 -193 412 -220 19 -12 42 -22
51 -22 8 0 28 -11 44 -24 15 -13 39 -27 53 -31 14 -4 36 -14 50 -23 14 -9 66
-37 115 -62 50 -25 99 -51 110 -57 11 -7 34 -18 50 -26 17 -8 80 -41 140 -72
61 -32 157 -82 215 -112 58 -30 112 -58 120 -63 8 -5 29 -15 45 -23 17 -8 55
-28 85 -44 30 -16 96 -51 145 -78 50 -26 125 -68 168 -92 43 -24 88 -48 100
-54 12 -5 49 -25 82 -44 33 -19 105 -57 160 -85 55 -29 127 -67 160 -85 33
-18 105 -56 160 -85 55 -28 111 -58 125 -65 14 -8 39 -21 55 -29 70 -35 131
-66 145 -75 8 -5 33 -19 55 -30 22 -11 87 -44 143 -73 57 -29 116 -59 130 -66
15 -7 38 -19 52 -27 14 -7 70 -37 125 -65 119 -62 224 -119 350 -191 33 -19
103 -56 155 -83 52 -26 140 -72 195 -102 55 -29 127 -67 160 -84 33 -16 67
-34 75 -39 8 -5 29 -16 45 -24 31 -15 124 -64 160 -84 11 -7 34 -18 50 -26 17
-7 39 -19 50 -25 11 -6 36 -19 55 -27 19 -9 62 -31 95 -50 33 -19 71 -40 85
-46 14 -6 36 -17 50 -24 22 -12 184 -96 258 -134 15 -7 43 -24 62 -36 19 -13
46 -26 60 -30 14 -4 38 -18 53 -31 16 -13 34 -24 41 -24 7 0 27 -11 46 -25 19
-14 41 -25 51 -25 9 0 27 -8 40 -19 13 -10 69 -42 124 -71 55 -29 145 -76 200
-105 55 -29 143 -75 195 -101 52 -26 106 -56 119 -66 13 -10 32 -18 42 -18 9
0 30 -11 46 -24 15 -13 45 -29 65 -35 21 -7 40 -17 44 -22 3 -6 29 -21 57 -34
29 -14 75 -38 102 -53 28 -15 95 -52 150 -81 55 -30 120 -65 145 -78 25 -13
72 -39 105 -56 43 -23 60 -38 60 -52 0 -14 -10 -23 -31 -30 -17 -6 -39 -17
-49 -25 -10 -8 -35 -24 -55 -35 -65 -34 -133 -71 -185 -101 -27 -15 -70 -38
-94 -51 -25 -13 -52 -29 -60 -37 -9 -7 -27 -17 -41 -21 -14 -4 -41 -17 -60
-29 -49 -30 -87 -52 -145 -81 -27 -15 -72 -39 -100 -55 -27 -16 -66 -37 -85
-47 -19 -10 -48 -28 -63 -40 -16 -13 -35 -23 -42 -23 -13 0 -89 -42 -146 -81
-15 -10 -42 -25 -60 -34 -19 -9 -56 -29 -84 -45 -27 -16 -69 -39 -92 -50 -23
-11 -45 -25 -49 -31 -3 -6 -25 -20 -48 -31 -66 -31 -129 -67 -158 -88 -15 -11
-33 -20 -40 -20 -7 0 -33 -14 -57 -30 -24 -17 -50 -30 -56 -30 -7 0 -18 -7
-25 -15 -7 -8 -31 -24 -54 -36 -22 -11 -62 -32 -88 -47 -26 -15 -87 -47 -135
-72 -49 -24 -95 -49 -103 -56 -16 -13 -89 -54 -155 -87 -22 -11 -49 -28 -60
-37 -11 -10 -31 -21 -45 -25 -14 -4 -38 -18 -53 -31 -16 -13 -36 -24 -44 -24
-9 0 -24 -7 -33 -15 -9 -8 -34 -25 -57 -37 -22 -13 -87 -49 -144 -81 -57 -32
-111 -62 -119 -67 -8 -6 -26 -15 -40 -20 -14 -6 -50 -26 -80 -45 -30 -19 -77
-46 -105 -60 -27 -14 -72 -38 -100 -55 -27 -16 -63 -36 -80 -44 -16 -8 -41
-23 -55 -34 -14 -11 -41 -27 -60 -36 -19 -10 -57 -30 -85 -46 -80 -47 -136
-78 -190 -104 -28 -13 -56 -31 -63 -39 -7 -8 -25 -18 -40 -22 -15 -4 -34 -12
-42 -20 -16 -13 -59 -37 -147 -79 -28 -14 -54 -30 -58 -36 -4 -7 -26 -21 -49
-31 -22 -11 -63 -33 -91 -49 -27 -15 -70 -39 -95 -52 -61 -33 -224 -128 -285
-166 -27 -17 -72 -43 -100 -57 -27 -14 -72 -38 -100 -54 -27 -17 -68 -39 -90
-51 -95 -51 -124 -68 -150 -88 -15 -12 -35 -22 -43 -22 -8 0 -29 -11 -46 -24
-17 -13 -42 -27 -56 -31 -14 -4 -32 -13 -40 -20 -8 -6 -37 -24 -65 -40 -73
-40 -123 -68 -185 -104 -30 -17 -73 -40 -95 -52 -22 -11 -67 -35 -100 -54 -33
-18 -78 -43 -100 -55 -22 -11 -61 -33 -86 -48 -26 -15 -70 -40 -99 -57 -29
-16 -71 -41 -95 -55 -24 -14 -66 -38 -95 -55 -29 -16 -73 -42 -99 -57 -25 -15
-68 -38 -96 -52 -27 -15 -72 -39 -100 -55 -27 -17 -68 -39 -90 -50 -22 -12
-67 -37 -100 -56 -33 -20 -79 -44 -101 -54 -23 -11 -45 -24 -48 -30 -4 -6 -26
-20 -49 -31 -23 -11 -64 -33 -92 -50 -27 -16 -72 -41 -100 -55 -121 -62 -240
-127 -252 -136 -11 -10 -47 -30 -138 -79 -22 -12 -62 -34 -90 -50 -27 -16 -66
-37 -85 -47 -19 -9 -43 -24 -54 -33 -19 -16 -65 -41 -151 -83 -28 -14 -57 -32
-64 -41 -7 -9 -21 -16 -30 -16 -9 0 -36 -14 -60 -30 -24 -17 -50 -30 -56 -30
-7 0 -19 -7 -26 -16 -8 -9 -32 -25 -54 -36 -22 -10 -67 -34 -100 -52 -33 -19
-78 -43 -100 -55 -22 -11 -62 -34 -90 -50 -27 -17 -70 -41 -95 -54 -25 -14
-70 -38 -100 -55 -30 -17 -73 -40 -95 -52 -22 -11 -67 -36 -100 -55 -33 -19
-82 -46 -110 -61 -115 -62 -142 -77 -190 -104 -27 -16 -69 -39 -92 -50 -23
-11 -45 -24 -47 -29 -3 -5 -25 -18 -48 -30 -24 -12 -70 -37 -103 -56 -33 -18
-79 -43 -101 -54 -23 -10 -45 -24 -48 -30 -4 -6 -26 -20 -49 -31 -23 -11 -64
-34 -92 -50 -27 -16 -72 -40 -100 -55 -27 -14 -72 -39 -100 -55 -27 -16 -68
-38 -90 -50 -22 -12 -62 -34 -90 -50 -27 -16 -75 -43 -105 -60 -30 -17 -77
-44 -105 -61 -27 -16 -61 -35 -75 -41 -14 -7 -38 -21 -54 -32 -28 -19 -68 -42
-151 -86 -22 -11 -62 -34 -90 -50 -27 -16 -69 -39 -92 -50 -23 -11 -45 -25
-49 -31 -3 -6 -25 -19 -48 -30 -22 -11 -65 -33 -93 -49 -29 -17 -77 -43 -105
-60 -29 -16 -72 -38 -94 -49 -23 -11 -45 -24 -48 -30 -4 -6 -26 -20 -49 -31
-23 -11 -64 -33 -92 -50 -47 -27 -87 -49 -191 -103 -23 -12 -50 -29 -60 -38
-11 -9 -30 -20 -44 -24 -14 -4 -32 -13 -40 -20 -8 -8 -35 -23 -60 -35 -25 -11
-72 -36 -105 -54 -33 -19 -78 -43 -100 -55 -22 -12 -62 -35 -90 -51 -48 -28
-101 -57 -195 -107 -25 -13 -70 -39 -100 -58 -30 -19 -75 -45 -100 -58 -54
-29 -108 -59 -175 -98 -27 -15 -72 -41 -99 -56 -26 -15 -69 -40 -95 -55 -25
-15 -65 -36 -87 -47 -23 -12 -47 -27 -53 -35 -7 -8 -29 -20 -49 -27 -20 -7
-48 -20 -62 -29 -39 -27 -91 -58 -135 -80 -22 -11 -67 -35 -100 -54 -33 -19
-78 -44 -100 -55 -22 -12 -67 -36 -100 -55 -33 -19 -78 -44 -100 -56 -22 -12
-62 -34 -90 -50 -27 -16 -69 -39 -92 -50 -23 -11 -45 -25 -49 -31 -3 -6 -25
-20 -48 -31 -68 -32 -122 -64 -151 -86 -15 -12 -36 -22 -46 -22 -9 0 -30 -11
-46 -24 -15 -13 -39 -27 -53 -31 -14 -4 -32 -13 -40 -20 -8 -7 -34 -23 -58
-36 -24 -13 -63 -35 -87 -49 -45 -26 -313 -177 -393 -221 -26 -14 -67 -38 -92
-52 -25 -15 -63 -35 -86 -46 -22 -11 -51 -29 -65 -39 -13 -11 -35 -23 -49 -27
-14 -4 -32 -13 -40 -20 -15 -13 -34 -23 -144 -79 -31 -16 -59 -32 -62 -37 -2
-5 -24 -18 -47 -29 -46 -23 -106 -57 -194 -110 -58 -35 -104 -61 -178 -100
-22 -11 -65 -36 -95 -55 -30 -19 -73 -44 -95 -55 -22 -12 -62 -34 -90 -51 -27
-16 -72 -40 -100 -55 -48 -24 -104 -55 -210 -115 -27 -15 -68 -38 -90 -49 -22
-12 -62 -34 -90 -50 -27 -16 -72 -41 -100 -55 -27 -14 -75 -41 -105 -60 -30
-19 -73 -44 -95 -55 -22 -11 -62 -33 -90 -50 -27 -16 -72 -41 -100 -55 -27
-14 -75 -41 -105 -60 -30 -18 -73 -43 -95 -55 -22 -11 -62 -34 -90 -50 -27
-16 -69 -39 -92 -50 -23 -11 -45 -25 -48 -30 -3 -5 -25 -19 -48 -30 -23 -11
-64 -34 -92 -50 -27 -16 -70 -40 -95 -53 -123 -66 -146 -80 -160 -92 -8 -7
-26 -16 -40 -20 -14 -4 -32 -13 -40 -20 -15 -12 -71 -44 -160 -92 -25 -13 -67
-37 -95 -53 -27 -16 -68 -38 -90 -50 -22 -12 -62 -34 -90 -51 -27 -16 -72 -40
-100 -54 -27 -14 -75 -41 -105 -60 -30 -19 -73 -44 -95 -55 -82 -43 -126 -69
-139 -80 -8 -6 -33 -21 -57 -33 -24 -13 -66 -36 -94 -52 -27 -15 -65 -36 -84
-46 -18 -10 -41 -24 -50 -32 -9 -8 -36 -24 -61 -36 -25 -12 -67 -34 -95 -50
-27 -17 -68 -38 -90 -49 -22 -11 -46 -26 -53 -35 -8 -9 -27 -19 -43 -22 -16
-4 -31 -11 -35 -16 -3 -5 -27 -20 -52 -33 -26 -13 -72 -38 -102 -55 -30 -17
-78 -43 -107 -58 -50 -27 -193 -107 -292 -165 -25 -15 -62 -34 -81 -43 -19
-10 -43 -24 -54 -33 -10 -10 -37 -27 -60 -39 -108 -56 -145 -76 -191 -103 -27
-16 -68 -38 -90 -50 -22 -12 -61 -33 -86 -48 -117 -68 -167 -96 -209 -119 -25
-13 -67 -37 -95 -53 -27 -16 -66 -36 -85 -45 -19 -9 -44 -25 -55 -35 -11 -10
-31 -21 -45 -25 -14 -4 -38 -16 -53 -27 -15 -11 -65 -39 -110 -63 -45 -23
-107 -57 -137 -74 -30 -17 -74 -41 -97 -52 -23 -11 -45 -24 -48 -29 -3 -5 -25
-19 -48 -30 -23 -11 -63 -33 -88 -48 -26 -15 -70 -39 -97 -54 -28 -15 -53 -32
-56 -37 -4 -5 -19 -12 -35 -16 -16 -3 -35 -13 -42 -22 -7 -8 -36 -26 -64 -39
-27 -14 -72 -38 -100 -54 -27 -16 -68 -39 -90 -51 -22 -11 -67 -36 -100 -54
-33 -19 -78 -43 -100 -55 -22 -12 -62 -34 -90 -50 -27 -16 -70 -41 -95 -55
-25 -14 -72 -41 -105 -60 -33 -18 -78 -43 -100 -55 -22 -12 -62 -34 -90 -50
-27 -16 -72 -40 -100 -55 -27 -14 -72 -39 -100 -55 -27 -16 -68 -38 -90 -50
-22 -11 -69 -38 -105 -60 -36 -22 -83 -49 -105 -60 -22 -12 -62 -34 -90 -50
-27 -16 -66 -36 -85 -46 -19 -9 -44 -24 -55 -34 -11 -10 -31 -21 -44 -25 -12
-4 -39 -18 -58 -31 -20 -13 -40 -24 -46 -24 -6 0 -24 -11 -41 -24 -17 -13 -42
-27 -56 -31 -14 -4 -34 -15 -45 -25 -11 -10 -36 -25 -55 -33 -19 -9 -46 -22
-60 -30 -14 -8 -36 -20 -50 -27 -14 -6 -52 -27 -85 -46 -33 -19 -78 -42 -100
-53 -22 -10 -46 -26 -54 -35 -7 -9 -19 -16 -26 -16 -6 0 -32 -13 -56 -30 -57
-39 -117 -40 -174 -5 -22 13 -47 25 -55 25 -8 0 -40 12 -70 26 -139 67 -177
83 -206 89 -18 3 -40 15 -49 25 -9 10 -31 22 -49 26 -17 3 -51 17 -76 29 -109
56 -171 85 -181 85 -6 0 -23 8 -37 19 -15 10 -44 23 -64 29 -21 6 -50 20 -64
31 -15 12 -33 21 -41 21 -8 0 -40 13 -71 29 -54 27 -77 38 -232 109 -36 16
-112 53 -170 81 -58 28 -109 51 -114 51 -9 0 -116 49 -196 90 -19 10 -46 21
-60 25 -14 4 -37 16 -51 26 -14 10 -38 21 -55 25 -16 4 -53 20 -83 35 -30 16
-62 29 -72 29 -10 0 -20 4 -24 9 -3 5 -31 19 -63 31 -31 12 -64 27 -72 34 -8
8 -33 19 -55 26 -22 7 -52 21 -67 31 -14 11 -29 19 -33 19 -16 0 -255 107
-332 149 -10 6 -56 26 -103 46 -47 19 -102 44 -122 55 -20 11 -43 20 -50 20
-13 0 -81 32 -261 121 -54 27 -104 49 -111 49 -7 0 -27 11 -46 25 -19 14 -44
25 -56 25 -11 0 -37 11 -56 24 -20 13 -52 29 -73 36 -21 7 -52 21 -69 30 -17
10 -42 21 -56 25 -14 4 -36 15 -50 25 -14 9 -43 23 -65 30 -22 7 -47 18 -55
25 -8 8 -28 17 -45 21 -16 4 -57 20 -90 37 -33 17 -81 41 -106 54 -26 12 -56
23 -66 23 -11 0 -34 11 -53 25 -19 14 -40 25 -48 25 -8 0 -35 11 -61 24 -25
13 -75 38 -111 54 -36 17 -95 44 -131 61 -36 17 -71 31 -77 31 -7 0 -33 11
-59 25 -27 13 -79 38 -118 56 -81 36 -192 87 -217 100 -10 5 -26 13 -35 18
-47 24 -256 122 -323 150 -41 18 -99 43 -127 57 -64 29 -136 62 -223 102 -36
16 -112 52 -170 80 -58 28 -120 55 -138 61 -18 6 -45 19 -59 31 -14 11 -32 20
-40 20 -8 0 -36 11 -62 24 -72 39 -179 86 -191 86 -7 0 -33 11 -59 24 -25 14
-75 38 -111 54 -36 17 -96 44 -135 62 -38 18 -79 37 -90 43 -67 36 -200 97
-211 97 -6 0 -17 7 -24 15 -7 8 -36 22 -65 31 -30 8 -59 21 -65 29 -6 7 -26
17 -43 21 -18 3 -50 17 -72 29 -22 13 -51 26 -65 30 -14 4 -36 16 -50 25 -14
10 -42 22 -62 28 -21 6 -51 20 -67 31 -16 12 -34 21 -40 21 -6 0 -37 14 -68
30 -31 17 -62 30 -70 30 -8 0 -31 11 -51 25 -20 14 -43 25 -50 25 -8 0 -35 11
-61 24 -25 14 -82 41 -126 61 -44 20 -96 44 -115 54 -19 10 -50 22 -69 26 -18
4 -49 18 -68 31 -20 13 -43 24 -51 24 -8 0 -34 11 -56 24 -23 13 -52 27 -66
31 -14 4 -36 15 -50 25 -14 9 -37 20 -52 24 -15 3 -44 17 -64 31 -20 14 -44
25 -52 25 -8 0 -34 11 -56 24 -23 13 -58 29 -78 35 -20 7 -42 19 -48 26 -7 8
-31 20 -54 26 -79 21 -87 50 -23 80 23 11 67 35 97 54 30 19 74 43 96 54 23
11 45 24 48 30 4 6 26 20 49 31 23 11 65 34 92 50 28 16 73 40 100 55 28 14
73 39 100 55 28 16 68 38 90 50 22 12 63 34 90 50 106 60 161 91 195 108 19 9
49 27 65 38 17 12 41 25 55 29 14 4 32 13 40 20 8 7 35 23 59 36 23 13 64 36
90 51 25 15 62 35 81 44 19 9 42 22 51 30 18 16 51 34 194 108 52 26 98 53
101 58 3 5 25 19 48 29 22 11 68 35 101 54 33 18 78 43 100 55 22 11 63 34 90
50 28 16 73 41 100 55 28 15 73 39 100 55 28 16 68 39 90 51 22 12 67 36 100
55 33 18 76 40 95 49 19 8 42 20 50 25 8 6 35 21 60 34 25 13 71 39 103 57
119 69 153 88 184 103 17 9 35 21 39 27 3 6 30 22 58 36 28 13 74 37 101 53
28 16 73 40 100 54 28 15 73 39 100 55 28 16 73 41 100 56 54 28 110 59 190
105 28 16 69 39 92 50 23 11 45 25 49 31 3 6 25 19 48 30 22 11 68 35 101 54
33 19 78 44 100 55 22 11 67 35 100 55 33 19 78 44 100 55 22 12 67 36 100 55
33 19 71 39 85 45 14 6 32 17 40 25 8 7 38 25 65 40 28 15 68 38 90 51 22 13
62 36 89 51 27 15 75 42 105 60 31 17 74 41 96 53 22 11 63 34 90 50 28 16 73
41 100 55 28 14 73 39 100 55 28 15 73 40 100 55 28 14 73 39 100 55 28 16 68
39 90 50 22 12 67 37 100 55 33 19 78 43 100 53 22 11 46 26 53 35 8 9 26 19
42 22 16 3 34 13 42 22 7 9 31 24 53 35 22 10 67 34 100 53 33 18 78 43 100
55 22 11 63 34 90 50 28 16 66 37 85 47 19 10 46 25 60 34 55 35 217 128 250
144 60 28 117 61 145 83 15 12 36 22 46 22 10 0 21 5 25 11 3 6 30 22 58 36
28 13 74 38 101 54 28 16 73 40 100 53 28 13 56 31 63 39 7 8 24 18 37 21 14
4 41 17 61 31 20 14 42 25 49 25 7 0 18 6 24 14 7 8 35 26 64 41 29 14 75 39
102 55 49 27 86 48 190 104 28 15 75 42 105 61 30 19 65 39 77 44 12 6 55 29
95 52 40 23 89 51 108 61 19 11 58 33 85 49 28 15 75 41 105 57 30 16 97 53
147 83 150 88 185 108 238 135 47 23 75 39 208 114 28 16 70 39 92 50 22 12
63 34 90 50 28 16 70 40 95 53 25 13 77 42 115 66 39 24 84 49 100 57 17 8 57
30 90 49 33 19 78 44 100 55 22 12 63 34 90 50 28 16 70 40 95 53 120 65 146
80 160 91 8 6 31 20 50 29 19 10 60 32 90 49 30 17 75 41 100 55 25 13 63 35
85 49 22 13 63 35 90 50 28 14 77 40 110 59 33 18 78 43 100 55 22 12 63 34
90 50 54 32 106 61 176 99 24 13 53 31 64 41 11 10 31 21 45 25 14 4 36 17 50
27 14 11 39 26 55 34 17 7 53 27 80 44 28 16 68 39 91 49 22 11 51 29 65 39
13 11 35 23 48 27 12 4 39 18 58 31 20 13 41 24 48 24 7 0 18 6 24 14 7 8 51
34 99 57 48 24 94 49 103 56 19 16 84 52 149 83 25 12 52 27 60 35 8 7 26 16
40 20 14 4 32 14 41 21 17 15 80 52 154 90 28 14 75 39 105 56 30 17 75 41
100 55 25 13 66 36 91 51 112 65 147 85 194 113 28 16 68 38 90 50 22 11 67
36 100 55 33 19 78 43 100 55 73 37 126 67 138 77 7 6 53 32 102 58 50 25 97
53 106 60 8 8 19 14 23 14 6 0 167 88 314 172 26 15 70 38 97 53 28 14 73 39
100 55 28 15 70 39 95 53 25 13 68 37 95 52 28 16 68 38 90 50 22 11 66 36 98
55 77 47 145 85 187 107 19 9 42 23 51 31 16 13 55 34 154 87 28 14 73 39 100
55 28 16 68 39 90 51 22 11 63 34 90 50 28 16 73 40 100 53 28 13 56 31 63 39
7 8 24 18 37 21 14 4 41 17 61 31 20 14 43 25 50 25 7 0 25 11 41 24 15 13 39
27 53 31 14 4 34 15 45 25 11 10 36 25 55 34 19 10 58 30 85 46 28 16 66 37
85 47 19 10 48 27 63 37 28 19 140 80 242 131 28 14 75 41 105 60 30 19 73 44
95 55 22 12 63 34 90 50 28 16 68 39 90 51 22 11 67 36 100 55 33 19 79 43
102 54 23 12 45 25 48 30 3 5 27 19 53 30 25 11 53 27 62 34 8 8 26 17 40 21
14 4 34 15 45 25 11 10 31 21 44 25 12 4 39 18 58 31 20 13 42 24 49 24 7 0
25 11 41 24 15 13 39 27 52 31 12 4 38 17 56 29 76 49 333 193 415 232 19 9
45 24 57 34 13 10 60 37 106 60 45 23 107 56 137 75 30 19 75 45 100 58 94 50
147 79 195 107 28 16 69 39 92 50 23 11 45 25 48 30 3 5 27 20 53 33 62 32
143 75 162 86 8 6 29 16 45 24 27 13 99 52 180 96 79 44 132 76 150 92 11 9
31 20 44 24 12 4 39 18 58 31 20 13 40 24 45 24 6 0 24 10 41 23 18 12 48 30
67 40 19 10 58 31 85 47 28 16 73 40 100 54 28 15 73 39 100 55 28 16 73 41
100 56 28 14 73 39 100 55 28 16 68 38 90 49 22 12 65 35 95 52 108 63 156 89
190 105 19 9 44 24 55 34 11 10 31 21 45 25 14 4 33 15 44 24 10 9 35 25 57
36 148 76 226 119 250 135 15 11 31 20 36 20 4 1 40 21 78 46 39 24 88 53 110
64 22 11 69 38 105 60 36 22 79 47 95 55 17 8 57 30 90 49 33 19 76 43 95 52
19 9 45 25 59 35 13 10 32 19 42 19 9 0 31 11 47 25 17 14 34 25 39 25 5 0 29
13 54 29 24 16 56 32 71 36 15 4 32 13 39 21 6 8 30 23 53 35 22 11 64 33 91
49 28 16 70 40 95 53 44 24 139 78 170 97 16 10 52 28 117 60 23 11 45 24 47
29 3 5 25 18 48 30 24 12 70 37 103 56 33 18 78 43 100 54 22 12 63 35 90 51
28 17 73 41 100 55 28 14 73 39 100 55 28 17 66 38 85 48 19 9 49 27 67 40 17
12 35 22 41 22 5 0 25 11 45 24 19 13 46 27 58 31 13 5 38 18 55 31 17 13 34
24 38 24 6 0 85 43 204 112 26 15 70 38 97 52 28 14 73 39 100 55 28 17 68 39
90 50 73 38 121 66 151 88 17 12 42 25 57 28 14 4 31 13 38 21 6 8 30 23 53
34 22 11 48 24 56 29 8 5 29 16 45 24 17 8 56 30 88 48 106 62 152 88 192 109
22 12 61 33 87 48 25 15 86 49 135 75 48 26 95 52 103 58 8 5 34 19 57 30 23
11 45 24 49 30 3 5 29 21 57 35 29 13 75 37 102 53 28 17 68 39 90 50 22 11
51 27 65 36 14 8 36 20 50 25 14 6 50 26 80 45 30 19 73 44 95 55 22 12 63 34
90 50 28 16 59 30 70 30 10 0 40 -8 65 -17z m8942 -5384 c2 -6 2 -750 1 -1653
-2 -902 -3 -1646 -3 -1652 0 -13 -109 -84 -129 -84 -8 0 -22 -6 -30 -14 -9 -8
-36 -25 -61 -39 -25 -13 -70 -38 -100 -56 -30 -17 -74 -40 -96 -50 -23 -11
-45 -24 -48 -30 -4 -6 -26 -20 -49 -31 -23 -11 -64 -33 -92 -49 -27 -17 -68
-39 -90 -50 -22 -12 -67 -36 -100 -55 -33 -19 -78 -44 -100 -56 -22 -12 -67
-37 -100 -55 -33 -19 -78 -43 -100 -55 -22 -12 -62 -34 -90 -51 -27 -16 -69
-38 -92 -49 -23 -11 -45 -25 -49 -31 -3 -6 -25 -20 -48 -31 -53 -25 -113 -59
-149 -83 -36 -23 -81 -49 -134 -75 -23 -11 -45 -25 -48 -30 -3 -5 -27 -20 -53
-33 -57 -29 -132 -69 -193 -105 -26 -15 -69 -40 -95 -55 -27 -15 -71 -41 -99
-57 -27 -16 -66 -36 -85 -45 -19 -9 -44 -25 -55 -35 -11 -10 -31 -21 -44 -25
-12 -4 -39 -18 -58 -31 -20 -13 -40 -24 -45 -24 -6 0 -24 -10 -41 -22 -18 -13
-48 -31 -67 -41 -19 -9 -57 -30 -85 -46 -27 -17 -68 -39 -90 -51 -22 -11 -65
-36 -95 -55 -30 -19 -73 -44 -95 -55 -43 -22 -87 -47 -178 -101 -31 -19 -77
-45 -101 -59 -24 -14 -70 -40 -102 -59 -33 -18 -79 -44 -104 -58 -25 -13 -63
-35 -85 -49 -22 -13 -62 -36 -90 -50 -27 -14 -72 -39 -100 -54 -27 -16 -73
-41 -102 -56 -29 -14 -57 -32 -64 -40 -6 -8 -17 -14 -24 -14 -7 0 -28 -11 -48
-24 -19 -13 -46 -27 -58 -31 -13 -4 -36 -16 -50 -26 -15 -10 -62 -37 -105 -60
-44 -23 -90 -50 -103 -60 -13 -11 -28 -19 -33 -19 -6 0 -24 -10 -41 -22 -18
-13 -48 -31 -67 -41 -19 -10 -57 -31 -85 -47 -27 -16 -66 -37 -85 -47 -19 -9
-42 -23 -51 -30 -16 -13 -171 -97 -246 -133 -23 -11 -45 -25 -48 -30 -3 -5
-27 -20 -53 -33 -59 -30 -132 -70 -197 -107 -27 -16 -63 -36 -80 -44 -16 -8
-41 -23 -55 -34 -14 -10 -36 -23 -48 -27 -23 -7 -101 -51 -152 -85 -14 -10
-37 -21 -50 -25 -14 -4 -34 -15 -45 -25 -11 -10 -36 -25 -55 -34 -19 -9 -57
-29 -85 -46 -27 -16 -70 -41 -95 -55 -25 -14 -67 -38 -95 -55 -27 -16 -70 -40
-95 -53 -116 -62 -146 -80 -160 -92 -8 -8 -26 -19 -40 -25 -14 -6 -50 -26 -80
-45 -30 -19 -77 -46 -105 -60 -27 -14 -71 -38 -96 -53 -26 -15 -69 -40 -95
-55 -27 -15 -71 -41 -99 -57 -27 -16 -68 -38 -90 -50 -22 -12 -62 -34 -90 -51
-27 -16 -66 -37 -85 -46 -19 -10 -49 -28 -65 -39 -17 -12 -41 -25 -55 -29 -14
-4 -32 -13 -40 -20 -8 -8 -35 -23 -60 -35 -25 -11 -70 -35 -100 -52 -30 -17
-75 -41 -100 -55 -25 -13 -67 -37 -95 -53 -27 -16 -66 -37 -85 -47 -19 -10
-48 -28 -63 -40 -16 -13 -34 -23 -41 -23 -7 0 -23 -11 -36 -25 -14 -15 -33
-25 -45 -23 l-20 3 -3 1659 c-2 1487 0 1662 13 1683 9 13 28 29 43 36 24 10
57 30 143 88 15 10 42 25 60 34 19 9 57 29 84 45 28 16 73 41 100 55 28 15 73
40 100 56 28 16 73 40 100 55 28 14 73 38 100 54 28 16 64 36 80 44 17 8 62
33 100 57 39 24 90 53 115 67 25 13 68 36 95 52 28 16 73 41 100 55 74 38 106
57 142 83 17 12 35 22 40 22 4 0 24 11 43 24 19 13 46 27 60 31 14 4 32 14 41
22 9 7 56 34 105 59 48 25 99 54 112 65 14 10 30 19 37 19 7 0 18 6 24 14 7 8
31 24 54 36 23 12 69 37 102 55 33 19 78 43 100 55 22 12 63 34 90 51 28 16
73 40 102 53 28 14 54 30 57 35 4 6 26 20 49 31 23 11 65 34 92 50 28 16 73
40 100 55 28 14 73 39 100 55 28 16 68 38 90 50 22 12 63 34 90 50 28 16 66
37 85 47 19 10 48 26 64 37 32 22 79 48 171 94 34 17 77 42 97 56 20 13 56 34
80 46 78 39 125 65 141 78 15 13 50 33 142 82 22 11 63 34 90 50 28 16 74 41
103 56 29 14 55 30 58 35 2 5 24 18 47 29 23 11 65 33 92 49 28 17 68 39 90
51 22 12 63 34 90 51 28 16 73 40 100 55 28 14 73 38 100 54 28 16 70 40 95
53 25 13 91 51 147 83 57 33 121 68 142 79 21 11 47 27 57 37 11 9 35 23 54
32 19 8 42 20 50 26 8 5 26 15 40 20 14 6 52 26 85 45 33 19 79 44 102 55 23
11 45 25 49 31 3 5 29 21 57 35 29 13 75 37 102 53 28 16 66 38 85 49 33 18
86 49 199 114 25 15 69 38 96 52 28 14 73 39 100 55 28 17 68 39 90 51 22 12
63 34 90 50 28 16 73 41 100 55 83 43 149 81 225 131 38 25 53 34 150 87 25
14 70 38 100 55 57 32 78 43 245 132 55 29 107 58 115 66 8 7 27 15 42 19 15
4 33 14 40 22 7 8 35 26 63 39 27 14 73 38 100 54 28 16 61 35 75 41 14 7 38
22 54 33 17 11 44 28 60 37 99 53 133 72 146 84 8 7 26 16 40 20 14 4 38 18
53 31 30 25 63 31 69 13z m5 -6428 l4 -1759 -31 -36 c-19 -21 -47 -40 -70 -46
-22 -6 -42 -15 -45 -21 -4 -5 -30 -21 -58 -35 -29 -14 -74 -38 -102 -54 -27
-16 -68 -38 -90 -50 -69 -35 -128 -70 -144 -84 -9 -8 -32 -21 -51 -30 -41 -19
-118 -62 -134 -75 -6 -5 -31 -20 -56 -33 -43 -24 -86 -48 -195 -109 -27 -15
-68 -37 -90 -47 -22 -11 -46 -26 -53 -35 -8 -9 -26 -19 -42 -22 -16 -3 -34
-13 -42 -22 -7 -9 -31 -24 -53 -34 -45 -21 -106 -56 -148 -84 -30 -20 -68 -41
-132 -75 -22 -12 -62 -34 -90 -51 -27 -16 -73 -40 -100 -53 -28 -13 -57 -31
-64 -39 -7 -9 -26 -19 -42 -22 -16 -4 -32 -11 -35 -17 -4 -6 -30 -21 -58 -34
-28 -14 -76 -40 -106 -59 -30 -19 -73 -44 -95 -55 -85 -45 -127 -69 -142 -82
-9 -7 -33 -22 -54 -33 -35 -19 -67 -37 -184 -105 -27 -16 -68 -37 -90 -48 -22
-11 -46 -26 -53 -35 -8 -9 -26 -19 -42 -22 -16 -3 -34 -13 -41 -21 -6 -8 -30
-23 -53 -35 -22 -11 -63 -33 -91 -49 -27 -16 -66 -37 -85 -47 -19 -9 -45 -26
-57 -36 -12 -11 -29 -17 -37 -14 -14 6 -16 187 -16 1779 0 975 4 1778 8 1784
4 6 25 21 47 33 22 12 60 35 85 51 25 17 68 41 95 55 28 14 75 41 105 59 30
19 91 53 135 76 44 23 87 48 95 55 8 7 35 22 60 34 25 11 65 34 90 51 49 32
104 64 166 95 21 10 46 25 54 31 8 7 35 23 60 37 25 13 70 38 100 56 30 17 73
41 95 52 22 11 63 33 90 49 28 16 66 37 85 47 19 10 48 26 64 37 29 19 69 42
151 86 22 11 63 34 90 50 28 16 73 40 100 55 28 14 73 39 100 55 28 16 73 41
100 55 28 15 73 39 100 55 28 15 70 39 95 53 109 59 146 80 161 93 8 8 20 14
25 14 5 1 41 21 79 46 39 24 88 53 110 64 22 11 65 36 95 55 30 19 73 44 95
55 22 11 67 36 100 55 33 19 76 42 95 51 19 9 44 24 55 34 24 21 56 30 69 18
6 -5 11 -694 13 -1767z m-8903 1440 c3 -5 6 -757 6 -1671 0 -1278 -3 -1666
-12 -1677 -6 -8 -32 -26 -57 -40 -25 -13 -68 -38 -96 -53 -27 -16 -71 -40 -96
-54 -25 -13 -51 -31 -58 -40 -7 -8 -25 -18 -41 -21 -16 -3 -34 -13 -41 -21 -6
-8 -30 -23 -53 -35 -22 -11 -63 -33 -91 -49 -27 -16 -66 -37 -85 -47 -19 -10
-48 -28 -63 -40 -16 -13 -34 -23 -40 -23 -7 0 -28 -11 -47 -24 -19 -13 -46
-27 -60 -31 -14 -4 -34 -15 -45 -25 -11 -10 -31 -21 -45 -25 -14 -4 -36 -17
-50 -27 -14 -11 -38 -26 -55 -35 -16 -8 -57 -30 -90 -48 -33 -19 -78 -43 -100
-55 -22 -12 -62 -34 -90 -50 -58 -34 -130 -73 -197 -107 -26 -13 -50 -28 -54
-34 -3 -6 -25 -19 -48 -30 -22 -11 -68 -34 -101 -53 -33 -19 -78 -43 -100 -55
-22 -12 -62 -35 -90 -51 -27 -16 -69 -39 -92 -50 -23 -11 -45 -25 -49 -31 -3
-6 -25 -20 -48 -30 -22 -11 -63 -33 -91 -49 -27 -16 -66 -37 -85 -47 -19 -9
-43 -24 -54 -33 -10 -8 -37 -25 -60 -37 -22 -12 -63 -34 -91 -48 -27 -14 -72
-39 -100 -55 -27 -16 -70 -40 -95 -53 -25 -13 -67 -37 -95 -53 -27 -15 -70
-38 -94 -51 -25 -13 -52 -29 -60 -37 -9 -7 -27 -17 -41 -21 -14 -4 -36 -16
-49 -27 -14 -10 -43 -27 -65 -38 -23 -11 -63 -33 -91 -49 -27 -17 -68 -39 -90
-51 -22 -12 -62 -34 -90 -50 -27 -16 -66 -37 -85 -47 -19 -10 -48 -27 -63 -37
-16 -11 -41 -26 -57 -35 -33 -19 -105 -60 -175 -101 -27 -16 -68 -39 -90 -50
-22 -12 -61 -34 -86 -48 -26 -15 -74 -42 -107 -59 -33 -18 -63 -37 -66 -42 -4
-5 -19 -12 -35 -16 -16 -3 -35 -13 -42 -21 -7 -8 -33 -25 -58 -38 -54 -27
-126 -66 -196 -106 -27 -15 -70 -39 -95 -53 -67 -35 -128 -70 -195 -111 -33
-19 -78 -45 -100 -56 -22 -11 -60 -34 -85 -50 -25 -17 -68 -41 -95 -54 -28
-13 -57 -31 -64 -40 -7 -9 -22 -16 -31 -16 -10 0 -31 -11 -47 -24 -15 -13 -39
-27 -53 -31 -14 -4 -41 -18 -60 -31 -19 -13 -39 -24 -44 -24 -5 0 -17 -6 -25
-14 -15 -13 -52 -34 -161 -93 -25 -14 -67 -38 -95 -53 -27 -16 -69 -39 -92
-50 -23 -11 -45 -25 -49 -31 -3 -6 -25 -19 -48 -28 -23 -10 -47 -26 -55 -35
-7 -9 -21 -16 -30 -16 -9 0 -32 -10 -51 -22 -36 -23 -78 -47 -165 -93 -27 -14
-72 -39 -100 -55 -27 -16 -66 -36 -85 -46 -19 -9 -44 -24 -55 -34 -11 -10 -31
-21 -45 -25 -14 -4 -38 -18 -53 -31 -16 -13 -33 -24 -39 -24 -5 0 -24 -10 -41
-22 -40 -28 -77 -50 -142 -81 -28 -14 -56 -32 -63 -40 -7 -8 -24 -18 -37 -21
-14 -4 -41 -17 -61 -31 -20 -14 -42 -25 -49 -25 -7 0 -19 -7 -26 -16 -8 -9
-32 -25 -54 -35 -22 -11 -67 -35 -100 -54 -33 -20 -75 -42 -93 -51 -18 -8 -42
-24 -53 -35 -11 -11 -26 -18 -32 -16 -9 3 -12 397 -13 1686 -1 1198 2 1686 10
1696 6 8 38 29 72 47 34 18 88 48 120 67 32 18 79 45 104 58 25 13 68 37 95
53 28 16 68 38 90 49 22 12 63 35 90 51 28 17 73 42 100 56 28 14 70 38 95 54
25 16 70 43 100 60 30 17 73 42 95 55 49 29 115 65 175 96 25 12 54 30 65 39
11 10 31 21 44 25 12 4 39 18 58 31 20 13 41 24 48 24 7 0 18 6 24 14 7 8 35
26 64 41 29 14 75 39 102 55 62 36 127 73 180 100 22 12 65 37 95 56 30 18 78
45 105 58 28 13 57 31 64 40 7 9 21 16 31 16 9 0 28 8 41 19 13 10 44 29 69
41 87 44 135 71 180 100 70 46 205 122 309 176 40 21 88 48 107 60 18 12 52
32 76 43 24 12 63 33 88 48 82 48 163 93 284 157 27 14 57 32 65 39 9 7 32 21
51 30 35 17 85 45 190 106 30 17 73 40 95 52 22 11 63 33 90 49 28 16 66 37
85 47 19 10 49 28 65 39 17 12 41 25 55 29 14 4 34 15 45 25 11 10 31 21 45
25 14 4 32 13 40 20 16 14 76 49 145 85 22 12 65 37 95 55 30 19 73 44 95 55
22 11 67 36 100 55 33 19 76 42 95 51 19 9 44 24 55 34 11 10 31 21 45 25 14
4 41 18 60 31 19 13 39 24 44 24 5 0 23 11 40 24 17 13 42 27 56 31 14 4 32
13 40 20 8 7 59 37 113 66 54 30 119 66 145 81 26 14 65 36 87 47 22 12 67 37
100 56 33 19 71 40 85 47 14 7 38 21 54 32 28 19 68 42 151 86 22 11 63 34 90
50 28 16 69 39 92 50 23 11 45 25 49 31 3 5 29 21 57 35 29 13 70 36 92 49 38
23 72 42 175 97 25 13 56 31 70 39 94 57 131 78 152 84 12 4 32 15 43 25 11
10 31 21 45 25 14 4 36 16 49 27 14 10 43 27 65 38 23 11 48 24 56 29 16 10
47 27 117 61 23 11 45 25 49 31 3 6 25 19 48 30 22 11 66 35 96 54 30 19 75
44 99 55 23 11 54 29 68 40 28 21 48 25 57 11z m4686 -3816 c0 -968 0 -1765 0
-1772 0 -14 -82 -71 -114 -79 -13 -3 -34 -17 -47 -30 -12 -13 -30 -24 -38 -24
-9 0 -32 -11 -51 -24 -19 -13 -46 -27 -60 -31 -14 -4 -39 -18 -56 -31 -17 -13
-37 -24 -45 -24 -8 0 -34 -14 -58 -30 -24 -17 -50 -30 -56 -30 -7 0 -19 -7
-26 -16 -8 -9 -32 -25 -54 -36 -22 -10 -61 -31 -86 -46 -127 -74 -153 -89
-189 -107 -21 -11 -46 -28 -56 -37 -11 -9 -31 -19 -46 -23 -14 -4 -34 -15 -43
-26 -10 -10 -34 -23 -54 -30 -20 -6 -43 -17 -51 -24 -8 -7 -35 -23 -59 -36
-23 -13 -63 -35 -87 -49 -24 -14 -107 -61 -184 -105 -77 -44 -160 -91 -184
-105 -24 -14 -67 -37 -94 -52 -28 -15 -53 -32 -56 -37 -4 -5 -23 -15 -44 -22
-20 -6 -50 -22 -65 -35 -16 -13 -37 -24 -47 -24 -10 0 -31 -11 -47 -24 -15
-13 -39 -27 -53 -31 -14 -4 -34 -15 -45 -25 -11 -10 -31 -21 -45 -25 -14 -4
-36 -15 -50 -25 -14 -10 -45 -28 -69 -41 -24 -13 -65 -36 -90 -51 -25 -15 -59
-34 -76 -42 -16 -8 -42 -24 -56 -35 -15 -11 -37 -25 -50 -31 -13 -6 -49 -26
-79 -45 -30 -19 -77 -46 -105 -60 -27 -14 -72 -38 -100 -54 -27 -17 -68 -39
-90 -51 -22 -12 -61 -33 -86 -48 -26 -15 -90 -52 -144 -82 -53 -30 -117 -67
-143 -82 -26 -15 -63 -35 -82 -45 -19 -10 -48 -26 -64 -37 -31 -21 -78 -47
-161 -90 -27 -14 -72 -39 -100 -55 -27 -17 -68 -39 -90 -51 -22 -12 -62 -34
-90 -51 -27 -16 -66 -37 -85 -47 -19 -9 -48 -26 -63 -36 -31 -21 -74 -46 -127
-72 -19 -10 -42 -24 -50 -30 -8 -7 -55 -33 -105 -59 -49 -26 -97 -53 -105 -60
-8 -7 -31 -20 -50 -30 -19 -9 -57 -29 -85 -45 -27 -17 -72 -42 -100 -56 -27
-14 -72 -38 -100 -54 -27 -16 -72 -42 -99 -57 -26 -15 -69 -40 -95 -55 -25
-15 -65 -37 -88 -48 -23 -11 -45 -25 -48 -30 -3 -5 -25 -19 -48 -30 -72 -36
-129 -68 -146 -83 -9 -8 -27 -18 -41 -22 -14 -4 -34 -15 -45 -25 -11 -10 -36
-25 -55 -34 -57 -27 -156 -84 -280 -161 -30 -19 -73 -44 -95 -55 -22 -12 -62
-34 -90 -50 -27 -16 -69 -39 -92 -50 -23 -11 -45 -25 -49 -31 -3 -5 -29 -21
-57 -35 -87 -42 -131 -66 -156 -85 -13 -11 -31 -19 -41 -19 -9 0 -25 -9 -35
-20 -9 -10 -34 -24 -54 -31 -20 -6 -43 -18 -52 -26 -16 -14 -55 -36 -154 -87
-27 -15 -72 -40 -100 -56 -27 -17 -68 -39 -90 -50 -22 -11 -65 -36 -95 -55
-30 -19 -71 -42 -90 -51 -19 -9 -48 -27 -63 -40 -16 -13 -32 -24 -37 -24 -9 0
-66 -35 -110 -68 -53 -39 -117 -71 -126 -62 -5 5 -7 737 -4 1792 l5 1783 80
47 c44 26 103 59 130 73 61 32 101 54 138 79 32 21 75 46 127 72 19 10 43 25
54 34 10 8 37 25 60 37 108 56 145 76 191 103 28 16 66 37 85 47 19 10 48 28
63 40 16 13 35 23 42 23 8 0 36 14 62 30 26 17 52 30 58 30 7 0 20 9 29 19 10
11 28 22 41 25 13 3 39 15 57 27 116 73 144 89 154 89 6 0 19 9 28 19 10 11
30 22 44 26 15 4 34 13 42 20 8 7 35 24 60 38 25 13 70 38 100 56 30 17 73 40
95 51 22 11 65 36 95 54 30 19 88 51 129 72 40 21 89 48 108 61 19 13 49 30
66 39 18 8 53 27 79 42 26 15 94 54 153 87 58 33 126 71 149 85 24 14 67 37
94 52 28 15 53 32 56 37 4 5 19 12 35 16 16 3 35 13 42 21 6 8 30 23 53 35 49
24 101 53 179 100 58 34 116 68 197 114 25 14 72 41 105 60 33 19 74 42 92 50
17 8 34 19 38 25 3 5 25 19 48 30 23 11 65 34 92 50 28 16 70 40 95 53 42 23
97 54 209 119 25 15 64 36 86 48 22 12 63 34 90 50 185 108 258 149 285 160
14 6 39 22 57 36 17 13 38 24 46 24 8 0 21 7 28 16 8 9 32 25 54 35 22 11 67
35 100 54 33 19 80 47 105 61 25 14 68 38 95 54 28 17 70 41 95 55 25 14 68
39 95 55 28 16 73 40 100 54 28 14 73 39 100 55 28 17 68 39 90 51 22 12 63
34 90 51 28 16 73 41 100 55 28 14 73 38 100 54 86 50 146 84 194 111 25 14
67 38 94 52 26 15 68 39 95 53 26 14 54 32 63 40 8 8 20 14 26 14 5 0 30 13
54 30 24 16 50 30 58 30 7 0 26 11 43 25 16 14 38 25 47 25 10 0 29 8 42 19
13 10 44 29 68 42 23 13 64 36 90 51 25 15 65 37 88 48 23 11 45 25 49 31 3 6
25 19 49 29 23 10 76 39 118 64 42 25 80 46 85 46 5 0 16 7 23 16 7 9 36 27
64 40 86 42 129 66 154 85 13 11 31 19 40 19 10 0 35 13 57 29 41 30 74 42 86
31 4 -3 8 -798 8 -1765z m-30310 -709 c16 -13 46 -27 67 -31 21 -3 52 -15 68
-25 17 -10 41 -21 55 -25 14 -3 52 -19 85 -35 33 -15 87 -40 120 -55 33 -15
78 -35 100 -45 22 -10 72 -32 110 -50 115 -52 167 -76 235 -107 72 -34 145
-68 235 -108 123 -55 211 -97 255 -119 25 -13 59 -27 77 -31 17 -3 37 -13 43
-21 7 -7 31 -19 53 -25 23 -6 52 -19 65 -30 14 -10 30 -19 36 -19 6 0 60 -25
121 -55 60 -30 113 -55 119 -55 9 0 114 -48 196 -90 19 -10 46 -21 60 -25 14
-4 36 -15 50 -25 14 -10 36 -21 50 -25 14 -4 54 -21 90 -38 36 -16 90 -41 120
-54 55 -25 68 -31 105 -50 11 -6 49 -24 85 -41 109 -50 222 -103 274 -128 28
-13 55 -24 62 -24 6 0 22 -8 35 -19 13 -10 35 -21 49 -25 24 -7 75 -30 200
-90 30 -14 61 -26 68 -26 7 0 30 -11 50 -25 20 -14 44 -25 52 -25 8 0 32 -11
52 -25 20 -14 43 -25 50 -25 8 0 24 -7 36 -16 l22 -15 0 -1680 c0 -1544 -1
-1680 -16 -1686 -9 -3 -26 0 -38 7 -44 28 -188 100 -199 100 -7 0 -28 11 -47
24 -19 13 -49 26 -67 30 -18 4 -42 15 -55 25 -13 10 -41 24 -63 31 -22 7 -51
21 -64 31 -13 11 -29 19 -35 19 -6 0 -33 11 -61 25 -27 13 -66 31 -85 39 -19
8 -46 21 -60 29 -29 16 -120 60 -170 82 -19 8 -46 21 -60 29 -25 13 -76 37
-205 96 -38 18 -90 43 -115 55 -25 12 -56 26 -69 30 -12 4 -39 18 -58 31 -20
13 -43 24 -52 24 -10 0 -32 11 -51 25 -19 14 -42 25 -51 25 -10 0 -30 11 -46
24 -15 13 -39 27 -53 31 -24 7 -84 35 -145 68 -16 9 -46 24 -65 32 -78 35
-147 68 -190 90 -25 12 -56 26 -70 30 -14 4 -36 15 -50 25 -14 10 -36 21 -50
24 -14 4 -70 29 -125 56 -55 26 -115 53 -133 58 -18 6 -45 20 -59 32 -14 11
-32 20 -40 20 -8 0 -36 11 -62 25 -25 14 -62 32 -81 40 -19 8 -42 19 -50 24
-38 23 -138 69 -165 75 -16 4 -37 14 -45 22 -9 7 -36 20 -60 29 -24 9 -51 22
-60 29 -8 7 -33 19 -55 26 -22 7 -51 21 -65 30 -14 9 -42 23 -62 29 -20 7 -41
18 -48 26 -6 7 -23 16 -38 20 -15 3 -44 17 -64 31 -21 13 -43 24 -51 24 -7 0
-23 7 -35 16 l-22 15 0 1648 c0 906 3 1651 7 1654 11 12 24 8 53 -17z m34523
-50 c3 -8 3 -767 0 -1688 -4 -1499 -6 -1675 -20 -1691 -9 -9 -40 -29 -70 -45
-104 -53 -130 -67 -148 -82 -10 -8 -36 -25 -59 -37 -92 -48 -123 -66 -171 -94
-27 -16 -72 -40 -100 -54 -27 -14 -75 -41 -105 -60 -30 -19 -73 -44 -95 -55
-22 -12 -62 -34 -90 -50 -27 -16 -73 -40 -100 -54 -28 -13 -56 -31 -63 -39 -7
-8 -25 -18 -39 -22 -15 -3 -40 -17 -56 -31 -16 -13 -37 -24 -47 -24 -9 0 -24
-7 -31 -16 -8 -9 -32 -25 -54 -36 -75 -36 -128 -67 -150 -88 -12 -11 -29 -20
-37 -20 -9 0 -29 -10 -45 -23 -15 -12 -44 -30 -63 -40 -19 -10 -57 -31 -85
-47 -27 -16 -66 -36 -85 -46 -19 -9 -44 -24 -55 -34 -11 -10 -31 -21 -44 -25
-12 -4 -39 -18 -58 -31 -20 -13 -40 -24 -45 -24 -6 0 -24 -10 -41 -22 -18 -13
-48 -31 -67 -41 -19 -10 -57 -31 -85 -47 -27 -16 -69 -39 -92 -50 -23 -11 -45
-25 -48 -30 -3 -5 -25 -18 -48 -29 -23 -11 -67 -35 -97 -52 -30 -17 -75 -43
-100 -56 -25 -13 -67 -37 -95 -53 -27 -16 -72 -41 -100 -55 -27 -15 -72 -39
-100 -55 -27 -16 -68 -38 -90 -50 -22 -12 -62 -34 -90 -50 -27 -16 -75 -43
-105 -60 -30 -17 -73 -42 -95 -55 -22 -13 -60 -36 -85 -50 -25 -14 -67 -39
-95 -55 -27 -17 -73 -41 -100 -54 -28 -13 -56 -31 -63 -39 -7 -8 -24 -18 -37
-21 -14 -4 -41 -17 -61 -31 -20 -14 -41 -25 -47 -25 -6 0 -18 -6 -26 -14 -15
-13 -77 -49 -146 -84 -16 -8 -37 -21 -45 -28 -17 -14 -79 -50 -155 -89 -52
-26 -87 -47 -190 -109 -33 -19 -78 -45 -100 -56 -22 -11 -60 -34 -85 -50 -25
-16 -67 -41 -95 -55 -27 -14 -72 -39 -100 -55 -27 -16 -69 -39 -92 -50 -23
-11 -45 -25 -49 -31 -3 -6 -25 -20 -48 -30 -22 -11 -62 -32 -87 -47 -26 -15
-70 -40 -99 -57 -29 -16 -73 -42 -99 -57 -25 -15 -64 -37 -86 -49 -22 -12 -67
-36 -100 -54 -33 -19 -80 -45 -105 -58 -121 -65 -146 -80 -160 -91 -8 -6 -31
-20 -50 -29 -19 -10 -53 -29 -75 -42 -22 -14 -60 -35 -85 -46 -25 -12 -52 -28
-61 -36 -9 -8 -32 -22 -50 -32 -93 -50 -135 -74 -149 -85 -8 -6 -31 -20 -50
-29 -19 -10 -57 -31 -85 -48 -27 -16 -68 -38 -90 -49 -22 -11 -65 -36 -95 -55
-30 -19 -73 -44 -95 -55 -90 -48 -128 -70 -144 -84 -9 -8 -32 -21 -51 -30 -34
-16 -65 -34 -187 -105 -32 -18 -79 -44 -105 -57 -25 -13 -49 -28 -52 -33 -4
-5 -19 -12 -35 -16 -16 -3 -35 -13 -42 -21 -7 -8 -33 -25 -58 -38 -50 -25
-114 -59 -201 -108 -30 -17 -71 -39 -91 -49 -19 -10 -41 -25 -49 -33 -7 -9
-18 -16 -24 -16 -6 0 -26 -10 -45 -23 -53 -34 -102 -63 -146 -88 -22 -12 -48
-28 -57 -36 -9 -8 -22 -12 -27 -8 -8 4 -11 515 -11 1702 0 1565 1 1698 17
1715 9 10 22 18 28 18 7 0 25 10 40 22 32 25 68 46 132 78 23 11 45 25 49 31
3 6 25 19 48 30 22 10 68 34 101 53 33 19 78 44 100 55 22 12 65 35 95 52 107
62 155 88 196 108 23 11 45 24 48 30 4 6 26 20 49 31 23 12 65 34 92 50 28 17
68 39 90 51 22 11 69 38 105 59 36 21 83 48 105 60 22 11 63 34 90 50 28 16
68 38 90 50 22 12 63 34 90 50 28 16 75 43 105 60 30 17 78 44 105 60 28 16
69 38 91 49 23 10 45 24 49 30 3 6 21 18 38 26 34 16 109 58 296 167 25 15 62
35 81 44 19 9 47 24 61 34 14 10 37 22 52 25 14 4 31 13 38 21 6 8 30 23 53
35 22 11 64 33 91 49 57 34 129 72 197 107 26 13 50 28 53 33 3 5 25 19 48 30
23 11 65 34 92 50 73 42 135 77 175 98 19 10 61 33 93 52 86 52 148 88 187
108 19 9 47 25 62 35 25 18 64 39 153 87 22 12 63 34 90 50 28 16 75 43 105
60 30 17 78 44 105 60 28 17 64 37 82 45 17 8 35 20 38 25 4 6 30 22 58 36 29
13 75 37 102 53 28 16 73 41 100 55 28 14 73 39 100 55 28 17 68 39 90 51 22
12 63 34 90 51 28 16 69 38 92 49 23 11 45 24 47 29 3 5 25 19 48 31 24 12 66
35 93 50 28 16 75 43 105 60 30 16 62 35 70 40 8 6 26 15 40 20 14 6 50 26 80
45 30 19 74 44 96 55 23 11 47 26 53 34 7 8 25 18 41 21 16 3 34 13 41 22 7 8
36 26 64 39 27 13 73 37 100 53 28 17 68 39 90 51 22 12 63 34 90 50 28 16 73
41 100 55 28 15 73 39 100 55 58 34 131 73 196 106 25 13 51 30 58 38 7 8 25
18 41 21 16 3 34 13 42 22 7 9 31 24 53 35 66 32 126 66 144 82 9 8 32 21 51
30 19 9 58 30 85 46 28 16 70 40 95 53 96 53 218 121 295 167 28 16 73 41 100
55 69 36 109 58 142 81 15 10 44 27 63 37 19 10 58 31 85 47 28 16 68 38 90
48 22 11 46 26 53 35 8 9 26 19 42 22 15 3 36 15 46 26 20 22 50 25 57 5z
m-17230 -1778 l-3 -1683 -27 -23 c-16 -13 -51 -34 -78 -47 -28 -13 -57 -30
-64 -38 -7 -9 -26 -19 -42 -22 -16 -4 -32 -11 -35 -17 -4 -6 -30 -21 -58 -35
-28 -13 -73 -37 -101 -53 -27 -16 -72 -42 -99 -57 -26 -15 -69 -40 -95 -55
-72 -42 -133 -76 -171 -95 -19 -10 -48 -27 -63 -37 -33 -22 -72 -45 -142 -81
-27 -14 -72 -39 -100 -55 -27 -16 -69 -38 -91 -49 -23 -10 -45 -25 -49 -31 -4
-6 -26 -20 -49 -31 -22 -11 -66 -35 -96 -54 -30 -19 -73 -44 -95 -55 -22 -12
-61 -33 -86 -48 -26 -15 -69 -40 -95 -55 -27 -15 -71 -41 -99 -57 -27 -16 -72
-40 -100 -55 -77 -40 -138 -75 -155 -90 -8 -7 -26 -16 -40 -20 -14 -4 -32 -13
-40 -20 -8 -7 -33 -22 -55 -33 -37 -18 -76 -40 -204 -114 -25 -15 -64 -36 -86
-48 -41 -21 -89 -49 -192 -109 -32 -18 -78 -44 -103 -58 -25 -13 -65 -37 -90
-53 -25 -16 -67 -41 -95 -55 -27 -14 -71 -38 -97 -53 -26 -15 -90 -52 -143
-82 -53 -30 -117 -67 -143 -82 -26 -15 -63 -35 -82 -45 -19 -9 -42 -23 -51
-31 -16 -13 -55 -34 -154 -87 -27 -14 -72 -39 -100 -55 -27 -16 -68 -38 -90
-50 -22 -11 -65 -36 -95 -55 -30 -19 -73 -44 -95 -55 -22 -11 -62 -33 -90 -49
-27 -17 -72 -42 -100 -56 -118 -62 -134 -71 -151 -85 -11 -9 -35 -24 -54 -33
-19 -10 -57 -31 -85 -47 -49 -28 -104 -58 -195 -107 -25 -13 -70 -39 -100 -58
-30 -18 -73 -43 -95 -55 -22 -11 -62 -34 -90 -50 -27 -16 -68 -38 -90 -50 -22
-11 -65 -36 -95 -55 -30 -19 -77 -46 -105 -60 -27 -15 -72 -39 -100 -55 -27
-16 -68 -38 -90 -50 -22 -11 -65 -36 -95 -55 -30 -19 -73 -44 -95 -55 -22 -12
-67 -37 -100 -56 -33 -18 -71 -39 -85 -46 -14 -7 -39 -23 -56 -35 -17 -13 -35
-23 -41 -23 -6 0 -23 -10 -38 -22 -26 -20 -55 -37 -150 -88 -22 -12 -62 -34
-90 -50 -27 -16 -75 -43 -105 -60 -30 -16 -62 -35 -70 -40 -8 -6 -26 -15 -40
-21 -14 -5 -50 -25 -81 -42 -31 -18 -100 -57 -153 -87 -53 -30 -118 -67 -144
-82 -101 -58 -139 -78 -187 -102 -27 -13 -59 -33 -69 -45 -20 -22 -51 -28 -60
-12 -3 5 -6 767 -6 1692 l0 1684 27 23 c16 13 42 30 58 37 17 8 45 25 64 39
19 14 39 26 44 26 5 0 23 10 40 22 36 26 69 45 142 82 28 14 59 31 70 38 11 7
38 24 60 37 53 33 111 65 161 89 23 11 45 25 48 30 3 6 23 16 44 23 20 6 45
19 56 28 17 15 36 26 141 80 22 12 67 36 100 55 33 19 79 44 101 55 23 10 45
24 48 30 4 6 26 20 49 31 23 11 65 34 92 50 78 45 137 78 175 97 19 10 49 28
67 41 17 12 35 22 41 22 5 0 25 11 45 24 19 13 46 27 58 31 13 4 35 16 48 27
14 10 43 27 65 38 57 27 211 113 227 126 8 6 34 21 59 33 25 11 68 34 95 50
28 17 68 39 90 51 22 12 63 34 90 51 28 16 73 40 100 55 28 14 77 41 110 60
33 18 79 43 102 55 23 11 47 27 54 35 6 8 17 14 24 14 8 0 26 11 42 24 15 13
44 31 63 40 46 22 216 115 260 143 19 13 40 23 46 23 6 0 19 9 28 19 10 11 29
22 44 26 14 3 39 17 55 31 16 13 37 24 46 24 10 0 29 8 42 19 13 10 44 29 68
42 24 13 65 36 90 51 45 26 100 56 172 95 20 11 49 29 64 41 15 12 32 22 37
22 8 0 60 29 206 112 26 15 66 36 88 47 23 12 47 27 53 35 7 8 25 17 40 21 16
3 43 17 62 31 18 13 38 24 45 24 7 0 25 11 41 24 15 13 39 27 53 31 14 4 33
15 44 24 18 16 57 38 143 81 23 11 45 25 48 30 3 5 25 19 48 30 23 11 65 34
92 50 28 16 66 37 85 47 19 9 48 26 64 37 17 11 44 28 60 37 17 9 54 29 82 45
28 16 93 53 145 82 52 29 101 57 109 62 8 6 26 14 40 20 14 5 54 28 90 49 36
22 83 49 105 60 22 12 63 34 90 50 28 17 70 39 95 51 25 12 52 27 60 35 8 7
53 34 100 59 88 47 148 81 229 128 25 15 65 37 88 48 23 11 45 25 49 31 3 6
25 19 48 30 22 10 68 34 101 53 33 19 78 44 100 56 22 12 63 34 90 50 28 16
70 40 95 53 25 14 70 38 100 55 30 17 73 40 95 50 22 11 46 27 54 36 7 9 25
16 40 16 l26 0 -2 -1682z m-12533 -343 c6 -8 36 -21 65 -30 30 -8 57 -19 60
-24 3 -6 29 -17 59 -25 29 -9 59 -22 65 -30 7 -8 24 -17 39 -21 15 -3 74 -29
132 -57 58 -27 132 -62 165 -78 33 -15 107 -51 165 -78 58 -28 148 -69 200
-92 52 -23 104 -47 115 -54 11 -7 38 -19 60 -26 22 -7 51 -21 64 -31 13 -11
30 -19 38 -19 8 0 36 -11 62 -24 72 -38 174 -84 201 -92 14 -4 36 -15 49 -25
13 -11 29 -19 36 -19 7 0 39 -13 71 -28 163 -79 192 -92 206 -92 8 0 26 -9 40
-19 13 -11 42 -24 65 -30 23 -6 45 -16 48 -21 3 -5 31 -18 63 -30 31 -12 64
-27 72 -35 8 -7 26 -16 40 -19 22 -6 118 -49 173 -77 9 -5 25 -13 35 -18 9 -5
49 -23 87 -41 39 -18 99 -45 135 -62 36 -16 86 -40 111 -54 26 -13 53 -24 61
-24 8 0 29 -11 48 -25 19 -14 41 -25 49 -25 15 0 26 -5 86 -37 11 -6 49 -24
85 -41 36 -16 95 -44 132 -61 37 -17 70 -31 74 -31 3 0 57 -25 119 -55 61 -30
117 -55 124 -55 7 0 25 -9 40 -19 15 -11 40 -23 57 -27 16 -4 45 -18 64 -31
19 -12 41 -23 48 -23 8 0 35 -11 61 -24 122 -63 301 -146 314 -146 8 0 25 -9
39 -19 13 -11 38 -23 54 -27 16 -4 55 -20 87 -36 l57 -29 0 -1720 c0 -1551 -2
-1720 -16 -1726 -9 -3 -70 21 -142 57 -70 34 -149 72 -177 85 -27 13 -79 37
-114 54 -35 17 -69 31 -75 31 -7 0 -27 11 -46 25 -19 14 -41 25 -51 25 -9 0
-32 11 -51 23 -19 13 -49 27 -67 30 -18 4 -45 15 -59 26 -15 10 -44 24 -64 30
-20 7 -42 19 -48 27 -7 7 -18 14 -24 14 -7 0 -43 16 -82 35 -38 19 -74 35 -80
35 -6 0 -22 8 -35 19 -13 10 -42 24 -64 31 -22 7 -47 19 -55 26 -9 7 -36 20
-60 29 -24 9 -51 22 -60 29 -8 7 -30 18 -48 24 -18 6 -45 20 -59 32 -14 11
-35 20 -47 21 -11 0 -57 20 -101 44 -44 25 -91 49 -105 56 -14 6 -47 21 -75
34 -55 26 -143 66 -250 115 -38 18 -81 39 -95 47 -14 8 -41 21 -60 29 -45 20
-132 59 -195 89 -27 13 -61 28 -75 34 -14 6 -32 15 -40 20 -8 5 -73 37 -145
71 -71 34 -152 72 -180 85 -27 14 -66 31 -85 40 -19 8 -42 19 -50 24 -29 18
-167 81 -177 81 -6 0 -16 7 -23 15 -7 8 -36 22 -65 31 -30 8 -59 21 -65 29 -6
7 -26 17 -43 20 -18 4 -48 17 -67 28 -19 12 -66 37 -105 55 -38 19 -90 44
-115 56 -25 13 -58 27 -74 30 -17 4 -41 15 -55 25 -14 10 -41 23 -59 29 -18 6
-45 20 -59 32 -14 11 -31 20 -38 20 -11 0 -119 53 -198 97 -12 7 -32 13 -43
13 -12 0 -32 8 -45 19 -13 10 -49 30 -80 45 -32 15 -62 33 -68 40 -8 10 -11
469 -11 1697 0 926 0 1685 0 1687 0 1 8 2 19 2 10 0 24 -7 31 -15z m17120 -92
c0 -5 0 -809 0 -1787 1 -1653 -1 -1780 -16 -1797 -10 -11 -21 -19 -26 -19 -5
0 -21 -9 -36 -20 -29 -21 -67 -42 -199 -110 -46 -23 -93 -50 -105 -60 -13 -9
-34 -21 -48 -25 -14 -4 -34 -15 -45 -25 -11 -10 -31 -21 -45 -25 -14 -4 -34
-15 -45 -25 -11 -10 -36 -26 -55 -35 -45 -21 -108 -56 -143 -80 -36 -23 -81
-49 -134 -75 -23 -11 -45 -25 -49 -31 -3 -6 -25 -19 -48 -30 -38 -19 -64 -33
-191 -104 -27 -16 -70 -39 -94 -52 -25 -13 -52 -29 -60 -37 -9 -7 -27 -17 -41
-21 -14 -4 -36 -16 -49 -27 -14 -10 -43 -27 -65 -38 -23 -11 -63 -33 -91 -50
-27 -16 -66 -36 -85 -45 -19 -10 -42 -24 -51 -31 -9 -8 -34 -24 -55 -36 -76
-40 -130 -70 -179 -98 -27 -16 -68 -39 -90 -50 -22 -12 -69 -39 -105 -61 -36
-21 -76 -44 -90 -49 -14 -6 -32 -15 -40 -20 -8 -6 -31 -18 -50 -27 -19 -10
-48 -26 -63 -36 -40 -27 -105 -63 -152 -86 -22 -10 -46 -25 -53 -34 -8 -9 -26
-19 -42 -22 -16 -3 -34 -13 -41 -21 -6 -8 -30 -23 -53 -34 -41 -21 -102 -54
-186 -103 -25 -15 -61 -35 -80 -44 -19 -10 -48 -26 -64 -37 -16 -10 -61 -36
-101 -56 -40 -20 -85 -46 -101 -57 -16 -11 -42 -27 -59 -35 -59 -31 -101 -54
-128 -72 -32 -21 -68 -42 -142 -81 -62 -32 -88 -47 -195 -111 -47 -27 -96 -56
-110 -63 -14 -6 -47 -25 -75 -41 -27 -16 -68 -39 -90 -51 -22 -12 -67 -36
-100 -55 -33 -18 -79 -42 -101 -53 -23 -12 -47 -27 -53 -35 -7 -8 -25 -18 -41
-21 -16 -3 -34 -13 -42 -22 -7 -9 -31 -24 -53 -35 -22 -10 -67 -35 -100 -53
-33 -19 -79 -44 -102 -56 -23 -11 -47 -27 -54 -35 -6 -8 -17 -14 -23 -14 -6 0
-26 -10 -45 -23 -88 -57 -109 -69 -246 -139 -22 -11 -49 -28 -60 -38 -11 -10
-31 -21 -45 -25 -14 -4 -34 -15 -45 -25 -11 -10 -36 -25 -55 -34 -19 -10 -57
-30 -85 -46 -27 -16 -70 -40 -95 -53 -52 -28 -148 -83 -170 -97 -8 -6 -26 -15
-40 -21 -14 -6 -52 -26 -85 -44 -33 -19 -78 -43 -100 -55 -37 -20 -65 -36
-185 -105 -25 -15 -67 -40 -95 -56 -27 -16 -73 -40 -102 -53 -28 -14 -54 -30
-57 -35 -4 -6 -26 -20 -49 -31 -23 -11 -62 -33 -87 -50 -25 -16 -65 -40 -90
-53 -82 -44 -144 -78 -191 -105 -26 -15 -70 -40 -99 -57 -29 -16 -73 -42 -99
-57 -25 -15 -65 -37 -88 -48 -23 -11 -45 -25 -48 -30 -3 -5 -25 -19 -48 -30
-23 -11 -69 -36 -102 -55 -89 -51 -127 -67 -136 -58 -5 5 -9 802 -9 1783 0
1452 2 1776 13 1787 13 14 82 53 172 98 28 14 75 41 105 60 30 19 73 44 95 55
89 47 128 70 144 83 9 8 27 18 41 22 14 4 38 18 53 31 16 13 33 24 39 24 6 0
25 11 42 24 17 13 42 27 56 31 14 4 32 13 40 20 8 7 38 25 65 39 28 15 70 38
95 53 89 51 146 83 186 103 23 11 47 26 53 34 7 8 26 18 42 21 16 4 31 11 35
16 3 5 26 21 52 35 26 14 70 39 97 54 28 16 70 41 95 55 25 14 72 41 105 60
33 19 78 44 100 56 22 11 63 33 90 49 28 16 73 41 100 55 86 45 116 63 133 78
9 8 33 23 52 32 49 23 119 62 133 73 7 6 35 22 62 37 28 16 73 40 100 56 28
15 73 39 100 53 28 15 73 39 100 55 28 16 73 41 100 55 28 14 68 37 90 51 22
13 59 34 82 45 23 11 45 25 48 30 3 5 27 20 53 33 70 35 145 77 162 91 8 6 31
20 50 29 19 10 58 31 85 47 28 16 68 38 90 50 22 12 63 34 90 50 28 16 68 38
91 49 22 11 51 29 65 39 13 11 35 23 49 27 14 4 39 18 56 31 17 13 36 24 41
24 6 0 17 7 24 16 7 9 36 27 64 40 27 14 73 38 100 54 28 16 68 38 90 50 22
12 63 34 90 51 28 16 73 41 100 55 111 58 133 70 148 82 8 7 37 24 63 38 50
27 80 43 169 95 28 15 75 42 105 59 30 17 78 44 105 60 28 16 68 38 90 50 22
12 63 34 90 50 28 16 73 41 100 55 28 15 73 39 100 55 28 16 66 37 85 47 19
10 48 27 63 37 36 24 80 49 134 76 23 11 45 25 49 31 3 6 25 19 48 30 22 11
66 35 96 54 52 32 78 46 176 98 23 12 50 29 60 38 11 9 30 20 44 24 14 4 32
13 40 20 8 8 35 23 60 35 25 12 68 34 95 51 28 16 68 38 90 49 22 11 69 38
105 60 36 21 83 48 105 60 22 11 63 34 90 50 28 16 73 41 100 55 28 15 73 39
100 55 28 16 69 39 92 50 23 11 45 25 49 31 3 6 25 20 48 30 22 11 64 33 91
49 70 40 124 71 182 102 27 14 55 34 62 42 14 16 41 22 41 9z m-21852 -2342
c31 -16 73 -36 92 -45 19 -9 42 -20 50 -25 8 -5 42 -21 75 -36 33 -15 89 -40
125 -57 36 -16 88 -40 115 -52 28 -13 84 -40 126 -60 41 -20 80 -36 86 -36 6
0 21 -8 34 -19 13 -10 42 -24 64 -31 22 -7 51 -21 64 -31 13 -11 28 -19 34
-19 10 0 244 -111 277 -131 8 -5 31 -16 50 -24 19 -9 43 -20 53 -25 34 -19 53
-29 132 -65 44 -20 87 -41 95 -46 16 -10 46 -24 150 -71 36 -17 72 -34 80 -39
8 -5 31 -17 50 -26 19 -9 87 -41 150 -71 63 -30 144 -68 180 -84 36 -17 72
-34 80 -39 8 -5 31 -16 50 -24 19 -9 58 -26 85 -40 319 -155 383 -185 391
-185 6 0 25 -11 44 -25 19 -14 41 -25 50 -25 8 0 31 -9 50 -20 19 -11 54 -29
77 -40 123 -56 243 -114 284 -135 26 -14 54 -25 62 -25 8 0 30 -11 50 -24 19
-13 49 -27 65 -31 17 -3 41 -14 54 -24 13 -10 34 -22 48 -26 14 -4 77 -32 140
-62 163 -77 237 -111 405 -188 44 -20 89 -41 100 -47 38 -21 248 -122 315
-153 19 -8 46 -22 60 -29 14 -8 57 -29 95 -46 39 -18 77 -36 85 -41 8 -5 31
-16 50 -25 58 -28 225 -107 410 -197 96 -46 186 -88 200 -92 14 -4 36 -16 49
-26 13 -11 30 -19 38 -19 8 0 36 -11 62 -24 42 -23 111 -55 261 -123 30 -14
64 -30 75 -36 11 -6 31 -16 45 -23 105 -50 259 -124 280 -133 14 -6 36 -18 50
-25 28 -15 98 -48 215 -101 44 -20 87 -41 95 -46 17 -10 40 -22 90 -44 19 -8
46 -22 60 -29 14 -8 54 -27 90 -44 36 -17 117 -55 180 -85 63 -30 142 -67 175
-82 33 -15 130 -61 215 -102 85 -41 211 -102 280 -135 69 -32 145 -70 170 -82
25 -13 56 -27 70 -31 14 -4 37 -16 51 -26 14 -10 38 -21 54 -25 16 -4 44 -18
63 -31 19 -12 39 -23 44 -23 9 0 124 -51 163 -73 11 -6 31 -16 45 -22 46 -22
85 -41 105 -53 11 -6 52 -25 90 -42 199 -90 582 -279 594 -294 8 -10 11 -514
11 -1807 1 -1731 0 -1794 -18 -1797 -10 -2 -26 6 -37 18 -10 11 -25 20 -34 20
-9 0 -32 9 -51 20 -19 10 -73 38 -120 60 -47 23 -92 45 -100 51 -8 5 -64 34
-125 64 -60 30 -117 59 -125 64 -8 5 -46 24 -85 41 -89 41 -115 54 -140 68
-11 7 -31 17 -45 22 -14 6 -52 26 -85 45 -68 39 -85 48 -135 70 -19 8 -46 21
-60 29 -54 29 -88 46 -170 86 -47 23 -92 45 -100 50 -8 5 -51 27 -95 48 -163
79 -204 99 -235 117 -14 8 -47 26 -75 39 -27 14 -57 30 -65 36 -8 5 -31 16
-50 25 -19 8 -48 23 -65 32 -16 8 -43 23 -60 31 -41 21 -223 116 -260 136 -16
9 -35 16 -41 16 -6 0 -22 9 -36 19 -13 11 -38 23 -54 27 -16 3 -40 14 -54 22
-26 17 -118 65 -230 122 -36 17 -72 36 -80 41 -8 5 -65 34 -127 64 -61 30
-114 59 -117 64 -4 5 -19 12 -36 16 -16 3 -39 14 -52 24 -13 10 -61 35 -108
55 -47 20 -92 41 -100 46 -8 6 -64 35 -125 65 -60 31 -121 62 -135 70 -14 7
-36 18 -50 24 -14 6 -32 15 -40 21 -8 5 -31 16 -50 25 -19 8 -46 22 -60 30
-31 18 -75 40 -120 60 -19 8 -46 22 -60 30 -14 8 -63 33 -110 56 -47 22 -94
45 -105 52 -66 37 -124 68 -155 82 -19 8 -42 20 -50 25 -8 6 -35 20 -60 31
-25 11 -52 24 -60 30 -8 5 -31 16 -50 24 -19 9 -42 20 -50 25 -8 5 -64 35
-125 66 -60 30 -144 73 -185 94 -41 22 -81 40 -88 40 -8 0 -26 8 -40 19 -15
10 -70 39 -122 65 -52 26 -113 57 -135 69 -22 12 -71 37 -110 55 -38 18 -81
39 -95 48 -14 8 -36 19 -50 25 -14 6 -52 26 -85 44 -33 19 -80 44 -105 55 -25
12 -52 27 -60 35 -8 7 -29 16 -47 20 -18 3 -42 14 -55 24 -13 10 -34 22 -48
26 -14 4 -36 14 -50 23 -14 9 -116 62 -228 118 -111 56 -208 106 -215 112 -6
5 -23 13 -37 17 -14 4 -65 30 -114 57 -49 26 -101 51 -115 55 -23 6 -205 92
-271 128 -14 8 -63 32 -110 55 -47 22 -96 47 -110 55 -14 8 -47 26 -75 39 -27
14 -57 30 -65 36 -8 5 -31 16 -50 25 -19 8 -67 32 -106 53 -39 22 -83 42 -97
46 -15 3 -43 17 -63 31 -20 14 -42 25 -49 25 -7 0 -23 8 -36 19 -13 10 -42 24
-64 31 -22 7 -47 18 -55 25 -8 6 -51 29 -95 49 -44 21 -91 44 -105 52 -14 7
-41 21 -60 29 -19 9 -42 20 -50 25 -8 6 -31 17 -50 26 -19 8 -84 40 -145 70
-60 30 -116 54 -123 54 -7 0 -30 11 -50 25 -20 14 -44 25 -52 25 -8 0 -31 11
-50 24 -19 13 -46 27 -60 31 -14 4 -41 18 -60 31 -19 13 -39 24 -44 24 -14 0
-136 60 -169 83 -15 10 -43 23 -62 28 -19 6 -39 18 -45 29 -6 12 -10 593 -10
1685 0 916 2 1670 5 1676 9 14 22 11 83 -20z m34490 -153 c7 -9 10 -580 11
-1745 l0 -1731 -35 -27 c-19 -14 -49 -31 -67 -37 -17 -6 -41 -19 -52 -28 -11
-10 -36 -25 -55 -34 -19 -10 -61 -31 -92 -49 -31 -18 -79 -44 -107 -59 -27
-15 -52 -32 -55 -37 -4 -5 -19 -12 -35 -16 -16 -3 -35 -13 -42 -21 -7 -9 -33
-27 -58 -40 -25 -14 -68 -38 -96 -54 -27 -16 -68 -38 -90 -50 -22 -12 -62 -34
-90 -50 -27 -16 -66 -37 -85 -48 -48 -25 -92 -51 -153 -89 -28 -18 -59 -33
-68 -33 -9 0 -23 -7 -30 -16 -8 -9 -32 -25 -54 -36 -62 -30 -124 -65 -142 -80
-16 -13 -62 -39 -140 -78 -23 -11 -45 -25 -48 -30 -3 -5 -25 -19 -48 -30 -86
-43 -125 -65 -143 -81 -11 -9 -36 -22 -56 -28 -21 -7 -41 -17 -44 -23 -3 -5
-25 -19 -48 -29 -22 -11 -62 -32 -87 -47 -112 -65 -167 -96 -209 -119 -25 -13
-67 -37 -95 -53 -27 -16 -68 -39 -90 -50 -22 -12 -65 -37 -95 -55 -30 -19 -69
-41 -87 -50 -17 -8 -35 -20 -38 -26 -4 -6 -26 -19 -49 -30 -22 -10 -66 -34
-97 -51 -31 -18 -94 -54 -141 -80 -47 -26 -91 -54 -98 -63 -7 -8 -21 -15 -31
-15 -19 0 -19 45 -19 1745 l0 1746 25 24 c13 14 30 25 38 25 7 0 29 11 48 26
19 14 52 34 74 45 22 10 63 32 90 48 28 17 68 39 90 51 46 23 99 55 135 80 14
9 37 21 50 25 14 4 38 18 53 31 16 13 37 24 46 24 10 0 35 14 56 30 21 17 44
30 51 30 7 0 25 11 41 24 16 14 41 28 56 31 14 4 31 13 38 21 6 8 30 23 53 34
58 29 128 69 146 85 8 7 26 16 39 20 12 4 39 18 58 31 20 13 40 24 46 24 6 0
24 11 41 24 17 13 42 27 56 31 14 4 32 13 40 20 14 11 43 28 150 87 19 11 58
33 85 49 28 15 75 42 105 59 30 17 78 44 105 59 89 52 119 69 169 95 27 14 57
32 65 40 9 7 27 17 40 21 12 4 39 18 58 31 20 13 40 24 45 24 6 0 22 9 38 20
15 11 58 36 96 56 38 20 76 42 85 50 15 14 66 43 149 87 25 13 87 48 138 78
124 73 199 114 247 137 22 11 49 29 59 41 22 24 39 27 54 9z m-8888 -1997 l0
-1699 -34 -28 c-18 -16 -48 -38 -66 -49 -54 -32 -114 -68 -166 -98 -27 -15
-71 -41 -99 -57 -27 -16 -68 -38 -90 -50 -22 -11 -65 -36 -95 -55 -30 -19 -73
-44 -95 -55 -22 -12 -67 -37 -100 -56 -33 -19 -78 -43 -100 -55 -22 -11 -61
-32 -86 -47 -122 -71 -237 -135 -299 -169 -25 -13 -70 -39 -100 -58 -30 -18
-73 -43 -95 -55 -62 -33 -97 -53 -130 -76 -16 -11 -41 -26 -55 -33 -14 -7 -52
-28 -85 -47 -33 -19 -76 -41 -95 -50 -19 -9 -42 -22 -50 -29 -8 -7 -50 -32
-92 -54 -42 -22 -93 -52 -114 -66 -20 -14 -42 -25 -49 -25 -7 0 -18 -7 -25
-15 -7 -8 -31 -24 -54 -36 -86 -43 -125 -65 -142 -81 -11 -9 -35 -23 -54 -32
-37 -17 -73 -37 -130 -72 -19 -12 -46 -25 -60 -29 -14 -4 -32 -13 -40 -20 -14
-12 -57 -37 -160 -92 -25 -13 -65 -35 -90 -50 -25 -14 -66 -38 -92 -52 -26
-14 -87 -48 -135 -75 -48 -27 -97 -57 -108 -66 -11 -10 -31 -21 -45 -25 -14
-4 -32 -13 -40 -20 -14 -13 -62 -40 -160 -91 -25 -13 -67 -37 -95 -53 -27 -17
-70 -42 -95 -56 -25 -14 -63 -37 -85 -50 -22 -13 -56 -32 -75 -42 -19 -9 -48
-26 -64 -37 -16 -11 -46 -29 -67 -40 -36 -20 -62 -35 -184 -106 -27 -16 -68
-38 -90 -50 -22 -12 -62 -34 -90 -50 -27 -16 -70 -40 -95 -53 -117 -63 -145
-80 -168 -98 -14 -10 -29 -19 -35 -19 -6 0 -27 -11 -46 -23 -20 -13 -49 -32
-65 -43 -38 -25 -111 -67 -161 -94 -22 -12 -62 -34 -90 -51 -27 -16 -69 -38
-92 -49 -23 -11 -45 -25 -48 -30 -3 -5 -27 -20 -53 -33 -58 -30 -131 -69 -197
-107 -27 -16 -69 -38 -91 -49 -23 -10 -45 -24 -48 -30 -4 -6 -26 -20 -49 -31
-23 -11 -63 -33 -88 -48 -68 -39 -144 -83 -198 -113 -25 -14 -66 -38 -91 -53
-25 -14 -61 -34 -80 -44 -19 -9 -47 -25 -62 -35 -32 -22 -97 -58 -153 -85 -22
-11 -46 -26 -53 -35 -8 -9 -26 -19 -42 -22 -16 -3 -34 -13 -41 -21 -7 -8 -29
-23 -48 -33 -65 -33 -136 -73 -151 -85 -8 -6 -31 -20 -50 -29 -19 -10 -57 -31
-85 -47 -27 -16 -69 -39 -92 -50 -23 -11 -45 -25 -48 -30 -3 -5 -25 -19 -48
-30 -23 -11 -64 -34 -92 -50 -27 -16 -72 -41 -100 -55 -27 -14 -70 -38 -94
-52 -35 -21 -45 -23 -52 -12 -5 8 -9 760 -9 1721 0 1354 3 1709 13 1718 25 21
93 63 132 82 22 10 63 32 90 48 28 16 69 38 91 49 23 10 45 24 48 30 4 6 26
20 49 31 23 11 65 34 92 50 28 16 73 41 100 55 28 15 73 39 100 55 28 16 68
39 90 50 22 12 69 39 105 61 36 21 79 46 95 54 17 9 53 29 80 45 28 16 74 41
103 56 29 15 55 30 58 35 2 5 24 18 47 29 23 11 65 33 92 49 28 17 68 39 90
51 22 11 66 35 97 53 49 28 158 90 396 225 31 17 75 41 97 53 105 54 124 65
141 80 11 9 30 20 44 24 14 4 36 16 49 27 14 10 43 27 65 38 23 11 61 33 86
50 25 16 63 39 85 51 22 11 59 30 81 42 23 12 50 29 60 38 11 9 30 20 44 24
14 4 32 13 40 20 17 15 80 52 155 90 28 14 73 39 100 56 28 16 69 38 92 50 23
11 45 23 47 28 3 5 25 18 48 30 41 21 84 45 193 106 28 16 73 41 100 56 59 34
129 74 194 111 25 15 65 37 88 48 23 11 45 25 49 31 3 5 29 21 57 35 55 26
111 57 192 104 28 16 66 36 85 45 19 10 42 23 51 31 16 14 47 32 144 84 22 11
63 34 90 50 28 16 73 41 102 55 29 15 57 33 64 41 6 8 17 14 24 14 7 0 28 11
47 24 20 13 51 29 70 35 20 7 43 20 53 30 9 11 29 22 43 26 15 4 34 13 43 21
16 14 53 36 144 84 22 11 65 36 95 55 30 19 73 44 95 55 22 12 63 34 90 51 28
16 73 41 100 55 71 36 109 58 142 80 15 10 44 27 63 37 19 10 56 30 81 45 79
45 149 86 179 103 16 9 41 24 57 35 37 25 55 34 233 131 25 14 68 38 95 54 28
16 73 41 100 55 28 14 73 39 100 55 28 16 73 41 100 55 28 14 69 35 91 47 23
12 50 29 60 38 11 9 30 20 43 24 12 4 38 17 56 29 18 11 55 34 82 49 50 30 74
44 188 114 39 23 78 43 88 43 16 0 17 -88 17 -1699z m-12200 -2070 c0 -982 -4
-1791 -8 -1796 -8 -12 -111 -74 -207 -125 -22 -12 -65 -35 -96 -53 -30 -18
-99 -57 -153 -87 -53 -30 -118 -67 -144 -82 -43 -25 -61 -34 -117 -59 -11 -6
-45 -25 -75 -44 -30 -19 -73 -44 -95 -55 -22 -11 -85 -47 -140 -80 -55 -33
-119 -69 -141 -80 -23 -11 -47 -26 -53 -34 -7 -8 -24 -17 -38 -21 -15 -3 -38
-15 -52 -27 -14 -11 -39 -26 -56 -34 -16 -7 -57 -29 -90 -48 -33 -19 -76 -43
-95 -52 -19 -9 -46 -24 -60 -34 -14 -9 -36 -21 -50 -25 -14 -4 -33 -15 -44
-24 -10 -9 -37 -26 -60 -38 -22 -12 -59 -31 -81 -43 -22 -11 -65 -36 -95 -55
-30 -19 -73 -44 -95 -55 -22 -11 -65 -36 -95 -55 -30 -19 -73 -44 -95 -55 -22
-12 -62 -34 -90 -50 -168 -98 -255 -147 -300 -170 -22 -12 -62 -34 -90 -50
-27 -16 -69 -39 -92 -50 -23 -11 -45 -25 -49 -31 -3 -6 -25 -19 -49 -29 -24
-10 -46 -23 -49 -29 -4 -6 -26 -20 -49 -31 -79 -39 -102 -53 -129 -78 -16 -14
-33 -22 -42 -19 -14 6 -16 184 -16 1796 l0 1790 53 34 c30 19 64 38 78 42 13
4 33 15 44 25 11 10 31 21 45 25 14 4 32 13 40 20 8 7 35 24 60 37 81 44 125
70 140 83 8 7 31 20 50 30 19 9 58 29 85 45 122 71 240 138 300 170 22 12 63
34 90 51 28 16 68 38 90 50 22 11 65 36 95 54 51 31 77 46 183 103 21 11 43
25 50 30 11 9 41 27 157 89 25 13 68 37 95 53 28 16 68 39 90 50 22 12 69 39
105 60 36 21 81 46 100 55 19 9 42 23 51 31 9 8 34 24 55 36 74 39 129 70 179
98 28 16 68 38 90 48 22 11 46 26 53 35 8 9 27 19 43 22 16 4 31 11 35 16 3 5
27 20 52 33 78 40 144 76 202 112 30 18 78 45 105 59 28 14 70 38 95 55 43 28
111 68 169 99 14 8 38 24 54 37 61 51 57 182 57 -1775z m16880 -63 c0 -1275
-3 -1744 -12 -1762 -6 -16 -25 -30 -47 -37 -20 -6 -44 -19 -55 -28 -19 -16
-75 -48 -136 -76 -19 -8 -42 -20 -50 -25 -15 -10 -90 -52 -170 -97 -25 -14
-63 -36 -85 -49 -22 -13 -63 -35 -90 -48 -28 -13 -57 -31 -64 -39 -7 -9 -25
-19 -41 -22 -16 -3 -34 -13 -42 -22 -7 -9 -31 -24 -53 -34 -22 -10 -71 -39
-110 -63 -38 -25 -75 -45 -82 -46 -6 0 -24 -11 -40 -24 -15 -13 -39 -27 -52
-31 -12 -4 -39 -18 -58 -31 -20 -13 -41 -24 -48 -24 -7 0 -18 -6 -24 -14 -7
-8 -31 -24 -54 -36 -23 -11 -67 -36 -97 -55 -30 -19 -73 -44 -95 -55 -22 -12
-62 -34 -90 -49 -27 -16 -66 -37 -86 -48 -19 -10 -49 -28 -65 -40 -17 -12 -42
-25 -57 -28 -14 -4 -31 -13 -38 -21 -6 -8 -30 -23 -53 -35 -22 -11 -68 -35
-101 -54 -33 -18 -78 -43 -100 -55 -22 -11 -62 -34 -90 -50 -27 -16 -66 -37
-85 -47 -19 -9 -42 -23 -51 -31 -9 -7 -35 -23 -57 -35 -38 -21 -63 -35 -187
-107 -27 -16 -68 -37 -90 -48 -22 -11 -46 -26 -53 -35 -8 -9 -27 -19 -43 -22
-16 -4 -31 -11 -35 -16 -3 -5 -28 -22 -56 -37 -27 -15 -71 -39 -97 -54 -25
-15 -66 -37 -91 -49 -25 -12 -53 -28 -62 -36 -18 -16 -61 -41 -125 -73 -23
-11 -45 -25 -49 -31 -3 -6 -25 -20 -48 -30 -22 -11 -63 -33 -91 -50 -27 -16
-72 -41 -100 -55 -96 -50 -138 -73 -154 -88 -9 -8 -32 -21 -51 -30 -19 -9 -62
-32 -95 -51 -33 -19 -71 -40 -85 -47 -14 -6 -32 -17 -40 -24 -8 -7 -37 -24
-65 -39 -107 -59 -122 -67 -175 -100 -30 -19 -68 -41 -85 -49 -16 -8 -59 -33
-95 -55 -36 -23 -83 -50 -105 -60 -22 -10 -46 -25 -53 -34 -8 -9 -26 -18 -41
-22 -16 -3 -43 -17 -62 -31 -18 -13 -37 -24 -42 -24 -6 0 -24 -11 -42 -24 -17
-13 -47 -32 -66 -41 -19 -9 -55 -28 -80 -43 -26 -15 -69 -40 -95 -55 -27 -15
-71 -41 -99 -56 -89 -51 -119 -68 -167 -94 -26 -14 -59 -34 -74 -46 -15 -12
-32 -21 -40 -21 -7 0 -25 -11 -41 -24 -15 -13 -39 -27 -53 -31 -14 -4 -34 -15
-45 -25 -11 -10 -31 -23 -45 -29 -14 -6 -54 -29 -90 -51 -36 -21 -84 -49 -108
-61 -23 -12 -45 -25 -48 -30 -3 -5 -20 -16 -37 -25 -18 -8 -54 -28 -82 -44
-124 -72 -241 -138 -300 -170 -22 -11 -62 -34 -90 -50 -27 -16 -72 -41 -100
-55 -27 -15 -72 -39 -100 -55 -27 -16 -70 -39 -95 -53 -25 -13 -70 -38 -100
-57 -30 -18 -93 -53 -140 -78 -47 -24 -92 -50 -100 -57 -8 -7 -33 -22 -55 -34
-22 -13 -58 -33 -80 -46 -22 -13 -60 -36 -85 -50 -25 -14 -56 -34 -70 -45 -14
-11 -40 -23 -57 -26 l-33 -6 0 1745 c0 1493 2 1747 14 1759 8 7 38 27 66 43
29 17 64 40 79 51 14 12 42 29 61 38 19 9 55 29 80 46 25 16 64 40 86 52 47
26 124 70 193 110 25 15 69 39 96 53 28 15 73 40 100 56 28 16 69 38 92 49 23
11 45 24 47 29 3 5 29 20 58 35 29 15 74 39 101 54 26 15 82 45 125 68 42 23
95 53 116 68 21 14 44 26 51 26 7 0 25 10 40 22 26 20 65 43 150 87 22 12 60
35 85 51 25 16 61 38 80 47 19 10 48 28 63 40 16 13 34 23 40 23 7 0 28 11 47
24 19 13 46 27 60 31 14 4 34 15 45 25 11 10 36 25 55 34 19 10 58 30 85 46
28 16 70 40 95 53 120 65 146 80 160 91 8 6 31 20 50 29 19 10 58 31 85 47 28
16 69 38 91 49 23 12 47 27 53 35 7 8 24 17 38 21 15 3 40 16 56 27 31 22 90
56 152 88 22 12 63 34 90 50 28 16 70 39 95 50 25 12 52 28 61 36 16 14 57 38
144 83 22 12 60 35 85 51 25 16 68 41 95 55 28 14 73 39 100 55 28 17 68 39
90 51 22 11 72 40 110 64 39 24 74 44 78 45 5 0 27 13 50 28 63 42 78 51 124
73 23 11 45 24 49 30 3 6 25 20 48 31 56 27 125 64 139 76 7 6 53 31 102 57
50 26 97 53 105 60 8 7 32 18 52 24 21 7 40 17 44 22 3 5 26 21 52 35 45 24
97 53 192 109 121 70 148 85 185 105 22 11 65 36 95 55 30 19 69 42 85 50 17
8 59 33 95 55 36 22 83 49 105 60 22 11 65 36 95 55 30 18 73 43 95 54 22 12
63 34 90 50 28 17 69 39 93 50 23 11 48 25 55 31 16 15 81 54 132 80 22 11 63
33 90 49 28 17 76 45 109 63 32 18 79 45 105 60 25 15 65 36 87 47 23 10 45
24 49 30 3 6 21 18 38 26 18 9 59 32 92 51 33 20 80 48 105 62 122 68 148 82
188 103 23 12 45 25 48 30 2 5 24 18 47 29 23 11 62 32 87 47 92 54 146 84
197 108 28 13 54 29 58 35 4 6 16 10 26 8 19 -3 20 -30 19 -1740z m-30278
-384 c21 -13 40 -24 44 -24 7 0 178 -84 204 -100 8 -5 31 -16 50 -25 19 -8 42
-19 50 -24 8 -6 58 -31 110 -56 52 -25 102 -49 110 -54 39 -24 386 -191 396
-191 6 0 19 -9 29 -20 10 -11 23 -20 29 -20 9 0 457 -217 496 -241 13 -8 197
-101 269 -137 14 -7 37 -19 51 -27 14 -7 63 -32 110 -55 47 -23 96 -48 110
-56 14 -8 41 -22 60 -31 19 -8 46 -23 60 -33 14 -9 39 -20 55 -24 17 -4 39
-16 50 -26 11 -9 37 -23 57 -29 20 -7 42 -18 48 -26 6 -8 28 -19 48 -26 20 -6
48 -19 62 -29 14 -9 40 -22 59 -29 19 -6 42 -17 50 -25 9 -7 33 -19 53 -25 21
-7 40 -16 43 -21 6 -10 613 -310 627 -310 6 0 72 -38 151 -87 l37 -23 0 -1940
0 -1940 -25 0 c-14 0 -51 14 -82 30 -31 17 -62 30 -69 30 -8 0 -35 11 -61 24
-99 49 -159 75 -199 85 -23 6 -47 18 -54 26 -6 7 -28 19 -48 26 -20 6 -51 20
-68 30 -17 11 -38 19 -45 19 -8 0 -43 14 -79 31 -136 65 -166 78 -202 89 -20
6 -42 18 -48 26 -7 7 -17 14 -22 14 -13 0 -159 63 -210 90 -20 11 -43 20 -50
20 -8 0 -40 13 -73 30 -33 16 -67 30 -75 30 -8 0 -33 11 -55 25 -22 13 -47 25
-56 25 -9 0 -36 11 -60 23 -24 13 -62 30 -84 37 -22 7 -52 21 -67 31 -14 11
-32 19 -39 19 -8 0 -39 12 -69 26 -30 15 -82 39 -115 54 -33 15 -85 38 -115
52 -30 14 -71 29 -90 33 -19 4 -46 15 -60 25 -14 10 -45 23 -70 30 -24 7 -55
20 -68 31 -14 10 -32 19 -41 19 -9 0 -43 13 -76 29 -132 63 -172 81 -181 81
-9 0 -91 38 -184 85 -25 13 -59 26 -76 29 -18 4 -40 16 -49 26 -9 10 -34 21
-56 25 -21 4 -49 15 -62 25 -13 10 -37 22 -53 26 -16 4 -49 17 -74 29 -69 36
-185 85 -198 85 -7 0 -38 14 -69 30 -31 17 -63 30 -73 30 -9 0 -26 9 -38 20
l-22 21 -1 1967 c-1 1082 -3 1999 -5 2037 -2 39 -1 81 1 93 5 20 10 23 33 17
15 -3 44 -17 64 -31z m17258 -2228 l0 -1724 -30 -26 c-17 -14 -50 -35 -73 -46
-23 -12 -64 -34 -92 -50 -27 -16 -72 -41 -100 -55 -27 -14 -72 -39 -100 -55
-27 -16 -68 -40 -91 -52 -98 -55 -162 -91 -209 -118 -27 -16 -68 -38 -90 -50
-22 -11 -65 -36 -95 -55 -30 -19 -71 -42 -90 -51 -19 -9 -44 -24 -55 -34 -11
-10 -31 -21 -44 -25 -12 -4 -39 -18 -58 -31 -20 -13 -41 -24 -47 -24 -6 -1
-42 -21 -81 -45 -38 -25 -79 -49 -90 -54 -11 -5 -49 -27 -85 -50 -36 -23 -83
-50 -105 -61 -22 -11 -65 -36 -95 -55 -30 -19 -73 -44 -95 -55 -88 -47 -124
-68 -150 -88 -15 -12 -35 -22 -45 -22 -10 0 -29 -9 -43 -20 -14 -11 -41 -27
-59 -36 -18 -8 -62 -33 -98 -54 -36 -22 -78 -47 -95 -55 -16 -9 -52 -29 -80
-45 -27 -16 -71 -41 -97 -54 -26 -14 -49 -30 -53 -36 -3 -5 -25 -19 -48 -30
-23 -11 -63 -33 -89 -48 -106 -61 -243 -139 -296 -169 -31 -17 -73 -40 -92
-51 -19 -11 -60 -34 -90 -51 -113 -63 -146 -82 -190 -111 -25 -16 -67 -41 -95
-55 -27 -14 -72 -39 -100 -55 -27 -16 -68 -38 -90 -48 -22 -11 -46 -27 -54
-36 -7 -9 -19 -16 -25 -16 -7 0 -30 -13 -52 -30 -21 -16 -47 -30 -56 -30 -9 0
-29 -11 -45 -24 -15 -13 -39 -27 -53 -31 -14 -4 -32 -13 -40 -20 -8 -7 -35
-23 -59 -36 -23 -13 -68 -38 -100 -56 -31 -17 -70 -39 -88 -47 -17 -9 -35 -21
-38 -27 -4 -6 -26 -19 -49 -30 -49 -23 -113 -59 -153 -86 -15 -10 -39 -25 -53
-32 -14 -7 -47 -25 -75 -41 -27 -16 -70 -40 -95 -53 -39 -20 -108 -60 -225
-130 -16 -10 -49 -26 -71 -37 -23 -10 -45 -24 -49 -30 -4 -6 -26 -21 -49 -31
-22 -11 -62 -32 -87 -47 -26 -15 -70 -40 -99 -57 -29 -16 -73 -42 -99 -57 -25
-15 -65 -36 -89 -48 -23 -12 -45 -26 -48 -31 -2 -5 -24 -18 -47 -29 -23 -11
-67 -36 -97 -54 -30 -19 -73 -44 -95 -56 -22 -11 -62 -34 -90 -50 -27 -17 -69
-39 -92 -50 -23 -11 -45 -25 -48 -30 -6 -10 -24 -20 -136 -76 -25 -13 -52 -30
-59 -39 -7 -8 -18 -15 -24 -15 -7 0 -30 -13 -52 -29 -21 -16 -50 -32 -64 -36
-14 -4 -34 -15 -45 -25 -11 -10 -31 -21 -45 -25 -14 -4 -34 -15 -45 -25 -11
-10 -31 -21 -45 -25 -14 -4 -36 -16 -49 -27 -14 -10 -43 -28 -65 -39 -23 -11
-62 -32 -87 -47 -26 -15 -70 -40 -99 -57 -29 -16 -64 -37 -79 -45 -14 -8 -52
-31 -84 -50 -31 -19 -77 -46 -101 -60 -23 -14 -55 -33 -69 -43 -14 -10 -31
-16 -36 -12 -7 4 -11 572 -11 1747 l0 1742 27 28 c15 15 32 28 38 28 5 0 28
12 50 27 48 33 85 55 142 83 23 11 45 25 49 31 3 6 25 19 48 30 22 10 67 34
98 51 60 35 217 125 296 170 26 15 65 37 87 48 22 12 67 37 100 55 33 19 78
43 100 55 22 11 63 34 90 49 28 15 70 39 95 53 25 14 72 42 105 62 33 19 74
42 91 50 17 8 36 22 43 30 7 8 29 20 49 27 20 6 46 19 57 28 11 9 36 24 55 34
19 9 42 21 50 27 8 5 26 14 40 20 14 5 54 28 90 50 36 22 79 46 97 55 17 8 34
19 37 24 3 4 29 21 58 35 29 15 76 40 103 56 28 16 68 39 90 51 22 11 63 34
90 50 71 41 153 85 201 109 23 11 47 27 54 35 7 8 18 15 25 15 7 0 30 12 51
26 21 15 52 31 69 37 16 5 39 18 50 27 11 10 30 21 43 25 23 7 65 31 125 72
17 13 50 32 72 43 22 12 63 34 90 50 28 16 69 38 91 49 23 12 47 27 53 35 7 8
25 18 41 21 16 4 40 15 54 26 14 11 40 27 58 35 31 15 69 36 178 99 62 36 136
79 190 110 25 14 72 41 105 60 33 19 74 41 90 49 17 9 55 32 85 51 30 19 71
43 90 52 19 10 48 28 63 40 16 13 37 23 46 23 10 0 29 8 42 19 13 10 44 28 69
40 25 12 59 30 75 39 17 10 53 31 80 46 28 16 58 36 69 45 17 16 58 38 142 80
23 12 47 27 53 35 7 8 26 18 42 21 16 4 31 11 35 16 3 5 28 22 55 37 28 15 76
41 107 59 31 18 75 41 97 53 22 12 63 34 90 50 28 16 66 37 85 47 19 9 42 23
50 29 14 12 58 36 160 91 25 14 68 38 95 53 28 16 69 39 92 50 23 11 45 25 48
30 3 5 25 19 48 30 23 11 67 35 97 52 30 16 72 39 92 49 20 10 40 24 43 29 4
6 30 22 58 36 29 13 75 37 102 53 28 17 68 39 90 51 22 11 65 36 95 55 30 19
71 43 90 53 85 47 142 79 196 111 33 18 75 42 94 53 19 11 58 33 85 49 28 16
73 41 100 55 28 14 70 37 95 50 24 13 52 24 62 24 17 0 18 -75 18 -1724z
m-12501 -160 c19 -14 48 -28 65 -32 17 -3 42 -14 56 -24 14 -9 42 -23 62 -29
20 -7 42 -18 48 -26 6 -8 28 -19 48 -26 20 -6 44 -17 52 -24 8 -7 62 -36 120
-64 58 -28 142 -71 186 -94 45 -23 92 -47 105 -53 47 -22 214 -106 229 -115 8
-5 38 -20 65 -34 28 -13 57 -29 65 -34 8 -5 53 -28 100 -50 47 -23 96 -48 110
-56 14 -8 41 -21 60 -30 19 -8 46 -22 60 -30 14 -8 90 -46 170 -85 80 -39 152
-75 160 -80 8 -4 103 -52 210 -104 107 -53 206 -102 220 -110 14 -7 41 -21 60
-30 19 -9 42 -20 50 -25 8 -5 29 -16 45 -24 17 -8 77 -39 135 -69 58 -30 119
-61 135 -70 17 -8 44 -23 60 -31 17 -9 46 -24 65 -32 19 -9 42 -20 50 -25 8
-6 31 -17 50 -25 19 -9 42 -20 50 -25 8 -5 58 -30 110 -55 52 -26 106 -53 120
-60 14 -8 86 -44 160 -81 74 -36 146 -72 160 -80 14 -8 41 -22 60 -30 19 -8
43 -19 53 -24 42 -24 50 -28 147 -74 19 -9 46 -23 60 -31 14 -7 93 -48 175
-90 83 -42 161 -83 175 -91 14 -8 41 -21 60 -29 19 -9 53 -26 75 -39 l40 -22
5 -1760 c4 -1418 3 -1762 -8 -1774 -11 -13 -16 -13 -40 2 -15 10 -43 24 -62
33 -19 8 -56 26 -83 40 -26 14 -52 25 -58 25 -9 0 -48 17 -199 87 -30 14 -77
36 -105 49 -27 12 -80 36 -116 53 -36 17 -72 31 -80 31 -8 0 -30 11 -49 25
-19 14 -41 25 -49 25 -8 0 -44 14 -80 31 -135 63 -177 82 -221 104 -25 13 -59
26 -77 30 -18 3 -42 14 -55 24 -13 10 -41 24 -63 31 -22 7 -60 24 -84 37 -24
12 -50 23 -58 23 -8 0 -35 11 -61 25 -26 14 -56 25 -67 25 -12 0 -36 11 -55
25 -19 14 -41 25 -49 25 -8 0 -44 14 -80 31 -36 17 -90 41 -118 55 -29 13 -77
35 -105 49 -29 13 -64 27 -78 31 -14 4 -37 15 -51 25 -14 10 -38 21 -54 25
-16 4 -53 20 -83 36 -30 15 -62 28 -72 28 -9 0 -28 9 -42 19 -13 11 -37 23
-52 27 -15 3 -71 28 -124 55 -53 27 -101 49 -107 49 -5 0 -37 13 -70 29 -119
57 -171 79 -199 86 -17 3 -41 14 -55 24 -14 10 -44 24 -66 31 -22 7 -53 21
-70 31 -16 11 -37 19 -46 19 -9 0 -36 11 -61 24 -25 13 -60 27 -79 31 -19 4
-50 17 -69 30 -19 12 -51 26 -71 29 -21 4 -42 13 -49 21 -6 8 -28 19 -48 25
-20 6 -61 22 -89 35 -61 29 -129 60 -228 105 -38 18 -91 43 -118 56 -26 13
-53 24 -60 24 -6 0 -39 14 -72 30 -33 17 -64 30 -70 30 -6 0 -26 11 -44 24
-18 13 -47 27 -66 30 -18 4 -38 12 -44 20 -8 9 -11 556 -11 1902 0 1039 0
1892 0 1897 0 16 48 6 79 -17z m17091 -313 c0 -21 0 -812 1 -1758 l1 -1720
-29 -22 c-25 -19 -56 -37 -159 -92 -16 -9 -43 -26 -60 -37 -16 -11 -45 -28
-64 -37 -19 -10 -57 -31 -85 -48 -27 -16 -68 -39 -90 -50 -81 -42 -128 -68
-144 -82 -9 -8 -33 -20 -53 -26 -20 -7 -42 -19 -49 -27 -6 -8 -30 -23 -53 -35
-22 -11 -63 -33 -91 -49 -27 -16 -68 -39 -90 -50 -22 -12 -65 -37 -95 -55 -30
-19 -73 -44 -95 -55 -65 -33 -128 -69 -144 -84 -9 -7 -27 -17 -39 -21 -20 -6
-61 -28 -142 -76 -8 -5 -39 -21 -68 -35 -29 -15 -55 -30 -58 -35 -2 -5 -24
-18 -47 -29 -46 -23 -65 -34 -177 -100 -86 -51 -117 -68 -180 -103 -25 -13
-71 -40 -103 -58 -120 -70 -153 -88 -193 -108 -23 -10 -45 -24 -48 -30 -4 -6
-26 -20 -49 -31 -54 -27 -98 -52 -134 -76 -15 -10 -44 -27 -63 -37 -19 -10
-56 -30 -81 -45 -26 -15 -70 -40 -99 -57 -29 -16 -73 -42 -99 -57 -25 -15 -65
-36 -87 -47 -23 -10 -45 -24 -49 -30 -3 -6 -23 -18 -43 -27 -20 -8 -43 -21
-52 -29 -8 -7 -51 -32 -95 -55 -44 -23 -87 -48 -95 -55 -8 -7 -31 -20 -50 -29
-19 -9 -60 -32 -90 -51 -30 -18 -73 -43 -95 -55 -63 -33 -101 -55 -132 -76
-15 -10 -44 -27 -63 -37 -55 -28 -96 -52 -127 -73 -15 -10 -44 -27 -63 -37
-19 -10 -57 -31 -85 -47 -27 -16 -69 -38 -91 -49 -23 -10 -45 -24 -48 -30 -4
-6 -26 -20 -49 -31 -23 -11 -64 -34 -92 -50 -27 -16 -69 -39 -92 -50 -23 -11
-45 -25 -48 -30 -3 -5 -25 -19 -48 -30 -23 -11 -63 -33 -88 -48 -26 -15 -70
-40 -99 -57 -29 -16 -73 -42 -99 -57 -25 -15 -62 -35 -81 -45 -19 -9 -42 -23
-50 -29 -14 -11 -56 -35 -149 -85 -18 -10 -41 -24 -50 -31 -9 -8 -32 -22 -51
-31 -19 -10 -60 -33 -90 -52 -30 -18 -73 -43 -95 -54 -22 -12 -65 -37 -95 -56
-30 -19 -73 -44 -95 -55 -22 -12 -62 -34 -90 -50 -27 -16 -68 -39 -90 -50 -92
-49 -127 -69 -142 -82 -16 -13 -46 -30 -147 -81 -30 -16 -60 -35 -67 -43 -6
-8 -17 -14 -24 -14 -8 0 -26 -11 -42 -24 -15 -13 -44 -31 -63 -40 -19 -9 -57
-30 -85 -46 -27 -16 -70 -40 -95 -53 -25 -13 -90 -50 -145 -82 -144 -83 -184
-105 -236 -131 -25 -13 -51 -30 -58 -38 -7 -8 -25 -18 -41 -21 -16 -3 -34 -13
-42 -22 -7 -9 -31 -24 -53 -35 -66 -32 -126 -66 -144 -82 -9 -8 -32 -21 -51
-30 -37 -17 -81 -41 -125 -70 -15 -10 -29 -15 -32 -12 -3 2 -4 798 -4 1767 1
1661 2 1763 19 1775 9 8 40 26 67 40 97 52 318 175 404 226 25 15 68 40 95 55
26 16 69 40 95 55 25 15 69 38 96 53 28 14 73 39 100 55 28 16 66 37 85 46 19
9 48 27 63 40 16 13 32 24 37 24 4 0 43 21 86 47 91 55 143 84 199 111 22 11
46 26 53 35 8 9 26 19 42 22 16 3 34 13 42 22 7 9 31 24 53 35 22 10 63 32 90
48 28 16 69 39 92 50 23 11 45 24 47 29 3 5 29 20 58 35 29 15 76 40 103 56
28 17 61 36 75 42 14 7 43 25 64 40 21 16 45 28 51 28 7 0 18 7 25 15 7 8 31
24 54 35 22 11 64 33 91 50 28 16 68 39 90 50 22 11 65 36 95 55 30 19 75 45
100 59 25 13 61 32 81 43 19 10 48 28 65 39 16 11 45 28 64 37 19 10 56 30 81
45 72 41 139 80 194 111 28 15 70 39 95 54 25 14 67 38 94 54 26 15 69 40 95
55 25 15 64 36 86 46 22 11 46 26 53 35 8 9 27 19 43 22 16 4 31 11 35 16 3 5
31 23 62 40 31 16 80 43 107 59 28 16 68 38 90 50 100 53 142 78 216 127 34
22 74 45 164 93 22 11 63 34 90 50 28 16 69 39 92 50 23 11 45 25 49 31 3 6
25 20 48 30 22 11 64 33 91 49 28 16 66 37 85 47 19 9 42 23 50 29 14 12 58
36 160 91 60 33 185 104 285 164 28 16 69 38 92 50 23 11 45 24 49 30 3 6 25
20 48 30 38 19 60 31 182 102 48 28 102 60 198 114 26 15 69 40 95 55 25 15
64 37 86 48 22 12 65 37 95 55 30 19 73 44 95 55 22 11 65 36 95 55 30 19 73
43 95 53 22 11 46 27 54 36 7 9 18 16 23 16 10 0 119 60 208 116 30 18 73 43
95 54 22 12 63 34 90 50 28 16 73 41 100 55 28 15 73 39 100 55 70 40 133 74
185 101 25 12 54 30 65 39 21 19 75 49 88 50 4 0 7 -17 7 -37z m-21890 -2677
c6 -8 28 -20 48 -27 20 -7 53 -20 72 -30 19 -11 42 -19 50 -19 8 -1 40 -14 70
-30 30 -17 62 -30 70 -30 8 0 29 -8 46 -19 17 -10 41 -22 55 -26 13 -3 47 -17
74 -30 115 -54 188 -85 197 -85 9 0 80 -32 193 -86 28 -13 56 -24 64 -24 7 0
34 -11 60 -24 74 -40 179 -86 193 -86 7 0 31 -12 53 -25 22 -14 47 -25 55 -25
8 0 33 -10 55 -21 22 -12 58 -28 80 -35 40 -15 66 -26 185 -83 36 -17 72 -31
80 -31 8 0 29 -9 45 -20 17 -11 48 -25 70 -31 21 -6 50 -19 63 -30 14 -10 32
-19 41 -19 9 0 38 -11 66 -24 104 -50 184 -86 191 -86 4 0 30 -11 58 -24 121
-58 186 -86 196 -86 7 0 33 -11 59 -24 72 -39 179 -86 191 -86 7 0 33 -11 59
-24 61 -32 178 -86 187 -86 4 0 32 -12 63 -26 31 -14 74 -35 96 -45 22 -10 58
-25 80 -33 22 -7 58 -23 80 -35 22 -11 44 -21 49 -21 10 0 113 -46 186 -84 25
-13 58 -27 74 -30 17 -4 42 -16 57 -27 15 -10 32 -19 39 -19 11 0 84 -32 195
-86 28 -13 84 -38 125 -54 41 -17 96 -42 121 -56 26 -13 52 -24 58 -24 7 0 42
-14 79 -31 37 -17 85 -39 107 -49 22 -10 69 -32 105 -48 36 -16 86 -37 112
-47 26 -9 50 -21 53 -26 4 -5 14 -9 24 -9 10 0 43 -13 74 -30 31 -16 61 -30
67 -30 11 0 78 -30 195 -86 28 -13 54 -24 58 -24 8 0 84 -34 192 -86 28 -13
54 -24 59 -24 5 0 32 -11 60 -24 28 -13 85 -39 126 -56 109 -47 178 -79 233
-106 26 -13 53 -24 59 -24 7 0 38 -12 68 -26 30 -15 82 -39 115 -54 33 -16 90
-42 127 -59 37 -17 73 -31 80 -31 7 0 31 -11 53 -25 22 -13 46 -25 54 -25 8 0
37 -11 65 -24 102 -49 185 -86 191 -86 6 0 90 -38 190 -86 28 -13 54 -24 58
-24 8 0 36 -12 192 -85 28 -13 61 -27 74 -30 14 -4 38 -16 55 -26 17 -11 37
-19 44 -19 14 0 116 -45 195 -85 26 -14 53 -25 60 -25 6 0 39 -14 72 -30 33
-17 66 -30 73 -30 8 0 26 -9 41 -19 14 -10 46 -24 71 -31 24 -7 55 -20 68 -31
14 -10 30 -19 37 -19 7 0 32 -11 56 -23 24 -13 62 -30 84 -37 22 -7 51 -21 64
-31 13 -11 30 -19 38 -19 13 0 45 -14 208 -90 33 -16 87 -40 120 -55 33 -15
83 -38 110 -51 28 -13 54 -24 58 -24 7 0 54 -21 182 -80 125 -58 175 -80 181
-80 4 0 30 -11 58 -24 28 -14 81 -38 118 -55 37 -17 69 -35 73 -41 9 -14 6
-3603 -3 -3612 -9 -9 -96 19 -157 51 -21 12 -45 21 -53 21 -8 0 -26 9 -41 19
-14 10 -46 24 -71 31 -24 7 -55 20 -67 30 -13 10 -37 21 -55 24 -18 3 -55 17
-82 31 -27 14 -57 25 -65 25 -9 0 -34 12 -56 25 -22 14 -49 25 -60 25 -11 0
-40 11 -65 24 -25 13 -61 27 -80 31 -19 4 -46 15 -60 25 -14 10 -43 23 -65 29
-22 6 -53 20 -70 31 -16 11 -37 20 -45 20 -8 0 -42 14 -75 30 -33 16 -67 30
-75 30 -8 0 -33 12 -55 25 -22 14 -47 25 -55 25 -8 0 -42 14 -75 30 -33 16
-67 30 -75 30 -8 0 -29 8 -45 19 -17 10 -48 24 -70 31 -22 7 -45 16 -51 21
-11 9 -131 60 -209 89 -27 10 -68 28 -90 39 -21 12 -44 21 -50 21 -5 0 -32 11
-59 25 -27 14 -57 25 -66 25 -9 0 -31 11 -50 25 -19 14 -43 25 -54 25 -12 0
-48 14 -81 30 -33 16 -69 30 -80 30 -11 0 -38 12 -60 25 -22 14 -47 25 -55 25
-8 0 -36 11 -62 25 -26 14 -53 25 -60 25 -7 0 -40 14 -73 30 -33 16 -67 30
-75 30 -8 0 -33 11 -55 25 -22 13 -47 25 -55 25 -9 0 -42 13 -75 30 -33 16
-67 30 -75 30 -8 0 -30 9 -48 20 -18 11 -56 28 -85 39 -145 53 -184 69 -207
83 -14 9 -40 18 -58 22 -19 3 -46 15 -62 26 -15 11 -34 20 -42 20 -7 0 -40 14
-73 30 -33 16 -65 30 -71 30 -7 0 -38 14 -69 30 -31 17 -64 30 -72 30 -8 0
-27 8 -41 18 -15 10 -46 24 -70 31 -24 7 -58 21 -75 32 -18 10 -39 19 -47 19
-8 0 -42 14 -75 30 -33 16 -67 30 -75 30 -8 0 -33 12 -55 25 -22 14 -49 25
-60 25 -11 0 -38 11 -60 25 -22 13 -47 25 -56 25 -8 0 -38 11 -65 25 -27 14
-65 30 -84 37 -19 6 -48 19 -65 29 -16 11 -37 19 -45 19 -8 0 -42 14 -75 30
-33 16 -67 30 -75 30 -8 0 -33 12 -55 25 -22 14 -49 25 -60 25 -11 0 -40 11
-64 25 -23 14 -51 25 -60 25 -9 0 -43 13 -76 30 -33 16 -68 30 -77 30 -10 0
-39 11 -65 25 -79 40 -181 85 -195 85 -7 0 -31 11 -53 25 -22 13 -47 25 -56
25 -9 0 -37 11 -63 25 -26 14 -53 25 -61 25 -7 0 -39 14 -70 30 -31 17 -62 30
-69 30 -6 0 -29 9 -51 21 -21 12 -59 27 -83 34 -24 8 -51 20 -60 28 -10 8 -37
20 -62 27 -25 6 -58 20 -75 30 -16 10 -46 21 -65 25 -19 4 -47 16 -61 26 -14
10 -38 21 -55 25 -16 4 -50 17 -76 30 -26 13 -53 24 -60 24 -7 0 -40 14 -73
30 -33 16 -66 30 -74 30 -7 0 -29 10 -48 21 -20 12 -55 26 -80 30 -24 5 -56
18 -70 29 -14 11 -33 20 -42 20 -10 0 -39 11 -67 24 -27 14 -67 31 -89 39 -66
24 -147 59 -196 83 -26 13 -55 24 -66 24 -10 0 -34 11 -52 24 -18 13 -49 27
-69 31 -20 4 -48 15 -62 25 -14 9 -41 21 -60 25 -19 4 -56 18 -82 31 -26 13
-52 24 -58 24 -13 0 -120 48 -191 86 -26 13 -53 24 -61 24 -8 0 -36 11 -62 25
-26 14 -53 25 -60 25 -7 0 -38 14 -69 30 -31 17 -65 30 -74 30 -10 0 -36 12
-58 25 -22 14 -49 25 -61 25 -12 0 -37 11 -56 24 -19 13 -58 29 -86 36 -28 6
-56 18 -63 26 -6 7 -27 16 -48 20 -20 3 -54 16 -76 29 -22 12 -58 28 -80 35
-22 7 -47 18 -55 25 -8 7 -31 16 -50 20 -19 4 -48 15 -65 25 -16 10 -61 30
-100 45 -38 15 -76 32 -82 38 -10 7 -13 401 -13 1907 0 1043 3 1900 7 1903 11
11 30 8 43 -7z m13440 -3885 l0 -1747 -27 -25 c-27 -25 -89 -64 -163 -102 -19
-10 -57 -31 -85 -47 -27 -16 -69 -38 -91 -49 -23 -10 -45 -24 -48 -30 -4 -6
-28 -21 -54 -34 -69 -35 -120 -64 -182 -102 -30 -19 -74 -44 -97 -55 -23 -11
-45 -25 -48 -30 -3 -5 -25 -19 -48 -30 -23 -11 -64 -34 -92 -50 -27 -16 -69
-39 -92 -50 -23 -11 -45 -25 -49 -31 -3 -6 -25 -20 -48 -30 -22 -11 -63 -33
-91 -49 -27 -16 -66 -37 -85 -47 -19 -10 -49 -28 -67 -40 -17 -13 -35 -23 -40
-23 -4 0 -46 -23 -93 -51 -47 -28 -98 -57 -115 -65 -16 -8 -52 -28 -80 -44
-27 -16 -66 -37 -85 -47 -19 -10 -48 -28 -63 -40 -16 -13 -35 -23 -42 -23 -7
0 -26 -11 -42 -24 -15 -13 -39 -27 -53 -31 -14 -4 -36 -17 -50 -27 -14 -11
-38 -26 -55 -34 -16 -8 -55 -30 -85 -49 -30 -19 -73 -44 -95 -55 -22 -12 -62
-34 -90 -50 -27 -16 -69 -39 -92 -50 -23 -11 -45 -25 -49 -31 -3 -6 -25 -20
-48 -31 -57 -27 -117 -61 -152 -84 -16 -11 -40 -26 -54 -32 -14 -7 -50 -28
-80 -47 -30 -19 -71 -42 -90 -51 -19 -9 -42 -23 -51 -30 -9 -8 -32 -23 -50
-33 -19 -9 -60 -32 -92 -49 -32 -18 -62 -30 -68 -27 -5 4 -9 680 -9 1764 l0
1759 33 24 c17 14 49 30 69 37 20 7 42 19 49 27 6 8 30 23 53 34 22 12 59 32
81 45 60 37 102 61 295 170 25 14 68 39 95 55 28 16 61 35 75 42 14 7 38 22
53 32 35 24 79 49 134 76 23 11 45 25 49 31 3 6 25 20 48 31 67 32 127 66 145
82 9 8 32 21 51 31 19 9 56 28 81 43 102 59 239 137 287 163 18 9 38 22 45 27
7 6 35 22 62 37 28 15 70 39 95 53 25 14 66 37 91 51 50 28 122 69 198 113 25
15 65 37 88 48 23 11 45 25 48 30 4 6 23 17 43 26 20 8 44 22 53 30 9 8 34 24
55 36 108 57 133 71 179 98 28 16 64 36 80 44 17 8 41 23 55 34 14 11 41 27
60 36 39 19 95 51 197 111 37 23 79 47 93 53 14 7 47 26 75 42 36 21 53 26 62
18 10 -8 13 -355 13 -1757z"/>
  </g>
</svg>