<svg xmlns="http://www.w3.org/2000/svg" viewBox="0 0 4096.000000 4096.000000">
  <g transform="translate(0.000000,4096.000000) scale(0.100000,-0.100000)" fill="#f4f5f7" stroke="#f4f5f7" stroke-width="40" stroke-linejoin="round" stroke-linecap="round">
    <path d="M5995 38629 c-143 -29 -296 -87 -462 -177 -308 -167 -598 -330 -803
-452 -25 -15 -90 -53 -145 -85 -55 -31 -143 -83 -195 -114 -52 -31 -102 -60
-111 -66 -10 -5 -109 -67 -221 -136 -112 -69 -241 -148 -288 -176 -47 -28
-191 -115 -320 -193 -129 -79 -316 -190 -415 -248 -199 -116 -228 -133 -330
-197 -38 -25 -83 -52 -100 -61 -16 -9 -52 -31 -80 -49 -27 -18 -111 -68 -185
-112 -74 -44 -184 -112 -245 -150 -60 -39 -127 -81 -147 -94 -21 -13 -92 -60
-158 -104 -303 -202 -457 -329 -551 -453 -67 -89 -109 -202 -119 -322 -4 -52
-7 -4660 -6 -10240 1 -9666 2 -10149 19 -10235 23 -116 61 -226 102 -289 45
-70 115 -146 188 -204 99 -78 360 -252 507 -337 74 -43 205 -120 290 -170 85
-51 211 -125 280 -166 69 -40 193 -113 275 -163 83 -49 179 -106 215 -126 36
-20 142 -81 235 -135 94 -53 217 -122 275 -153 112 -59 431 -242 720 -412 239
-140 342 -200 347 -200 2 0 30 -17 61 -39 31 -21 93 -57 137 -81 44 -23 96
-53 115 -65 19 -12 67 -40 105 -62 91 -53 213 -127 348 -211 59 -37 176 -109
260 -161 83 -52 168 -104 187 -116 60 -38 148 -89 340 -195 102 -57 302 -169
445 -250 143 -81 307 -174 364 -206 120 -68 143 -81 191 -110 19 -12 58 -34
85 -49 28 -16 106 -60 175 -98 69 -38 177 -96 240 -129 127 -67 357 -196 465
-262 101 -61 577 -345 661 -394 39 -23 168 -94 285 -157 192 -105 397 -224
587 -342 37 -23 87 -53 112 -66 25 -13 74 -43 110 -65 36 -23 151 -90 255
-151 184 -106 223 -127 350 -196 85 -46 285 -163 385 -225 123 -76 433 -255
590 -340 74 -40 162 -90 196 -111 34 -22 64 -39 69 -39 4 0 19 -8 33 -19 15
-10 59 -35 97 -56 39 -21 126 -72 195 -113 69 -41 154 -91 190 -112 36 -21
133 -78 215 -127 83 -50 215 -127 295 -173 80 -45 201 -115 270 -155 69 -39
139 -79 155 -87 37 -19 442 -254 545 -316 310 -189 452 -272 586 -344 81 -43
268 -152 567 -329 89 -52 225 -130 302 -173 77 -43 169 -95 205 -116 36 -20
124 -70 195 -110 106 -60 304 -174 595 -343 19 -11 64 -37 100 -57 36 -20 98
-57 138 -81 104 -62 95 -57 227 -135 66 -39 179 -104 250 -144 72 -40 141 -80
155 -89 14 -9 41 -23 60 -32 34 -16 241 -134 615 -351 481 -279 457 -266 685
-391 85 -46 178 -98 205 -115 64 -39 113 -68 305 -177 193 -109 249 -141 430
-245 328 -188 402 -230 438 -250 52 -29 318 -183 413 -239 52 -31 176 -103
275 -160 205 -119 557 -326 594 -350 14 -9 70 -41 125 -72 140 -78 351 -203
475 -282 446 -282 593 -364 735 -413 71 -25 94 -28 210 -28 118 -1 138 2 210
28 146 51 351 157 695 356 36 21 99 57 140 81 175 99 209 118 291 166 48 28
149 83 225 123 77 40 171 92 210 116 39 24 74 44 77 44 4 0 56 29 115 64 59
35 175 101 257 148 83 47 190 108 239 136 49 29 91 52 93 52 2 0 27 15 56 33
29 18 142 82 252 142 206 112 481 264 665 368 58 33 130 73 160 90 143 78 219
123 415 244 77 47 230 137 340 200 110 63 252 145 315 182 269 158 1049 597
1190 670 36 19 90 48 120 66 30 18 168 95 305 172 400 224 426 239 515 290 47
27 126 71 175 98 257 138 481 264 524 294 14 10 96 60 181 111 85 51 214 130
285 174 72 45 140 86 150 93 113 68 330 202 370 228 28 18 82 49 120 70 39 21
81 46 95 55 22 15 87 52 325 185 28 15 70 40 95 55 40 25 121 72 440 255 47
27 159 92 250 145 91 53 239 139 330 190 91 51 201 116 245 143 44 27 139 81
210 120 188 101 499 273 575 317 36 21 112 64 170 95 58 32 128 70 155 85 45
25 169 97 520 303 66 39 174 100 240 136 66 37 131 73 145 82 88 57 298 183
356 214 38 20 159 91 269 157 110 66 209 125 220 131 11 7 31 19 45 28 30 19
92 54 310 172 91 49 191 105 223 123 32 19 60 34 62 34 3 0 42 22 87 48 46 27
98 57 116 68 19 10 75 43 125 73 51 30 151 86 222 126 72 39 180 100 240 135
61 34 202 113 315 175 230 126 330 183 345 195 6 4 87 52 180 105 198 114 240
139 395 230 284 168 463 273 565 331 96 55 360 225 465 300 89 64 169 132 211
181 66 76 88 142 101 298 13 168 2 20276 -11 20615 -11 259 -22 321 -74 409
-68 116 -236 257 -534 447 -149 95 -210 131 -363 212 -36 19 -78 42 -95 52
-16 9 -102 55 -190 100 -235 121 -379 202 -549 305 -83 51 -209 128 -281 172
-71 43 -173 101 -225 127 -52 27 -99 52 -105 56 -5 4 -91 49 -190 100 -243
125 -309 160 -453 244 -67 39 -154 89 -192 111 -200 115 -332 192 -390 230
-36 23 -101 64 -145 90 -83 50 -136 84 -420 270 -93 62 -186 122 -205 134 -55
33 -270 137 -325 157 -28 9 -92 19 -146 22 -72 3 -111 0 -155 -13 -55 -15
-351 -162 -471 -233 -59 -35 -342 -191 -418 -232 -27 -14 -104 -57 -170 -94
-66 -38 -199 -114 -295 -168 -96 -55 -191 -110 -210 -122 -19 -13 -82 -49
-140 -82 -58 -32 -136 -78 -175 -103 -77 -49 -356 -206 -505 -284 -52 -27
-196 -106 -320 -175 -124 -69 -278 -155 -342 -191 -118 -66 -467 -268 -673
-389 -60 -36 -139 -82 -175 -103 -36 -20 -213 -126 -395 -235 -581 -347 -635
-378 -1020 -586 -121 -66 -523 -294 -735 -418 -107 -62 -512 -292 -625 -355
-90 -49 -139 -77 -200 -113 -33 -19 -87 -50 -120 -67 -33 -18 -100 -56 -150
-86 -129 -77 -131 -78 -246 -143 -57 -32 -147 -84 -199 -114 -52 -30 -165 -94
-250 -143 -85 -48 -173 -98 -195 -112 -22 -13 -105 -61 -185 -107 -80 -45
-161 -93 -180 -105 -36 -23 -313 -186 -450 -265 -67 -39 -370 -221 -570 -342
-41 -25 -120 -72 -174 -104 -55 -33 -122 -73 -150 -91 -28 -18 -76 -46 -106
-63 -47 -26 -225 -131 -270 -160 -28 -17 -204 -118 -265 -151 -54 -29 -132
-74 -307 -176 -32 -18 -84 -48 -115 -66 -32 -18 -87 -51 -123 -73 -141 -87
-223 -137 -415 -252 -110 -66 -229 -138 -265 -161 -36 -22 -92 -57 -125 -76
-33 -20 -100 -60 -149 -90 -49 -30 -91 -55 -93 -55 -3 0 -17 -8 -31 -19 -28
-20 -119 -70 -187 -104 -27 -14 -60 -20 -102 -21 -58 0 -72 6 -215 78 -84 43
-214 112 -288 154 -327 183 -619 347 -670 377 -30 17 -82 47 -115 66 -33 18
-72 41 -86 49 -15 8 -89 51 -165 94 -77 44 -265 152 -419 242 -154 89 -309
177 -345 196 -36 20 -81 44 -100 55 -19 11 -98 55 -175 98 -77 43 -178 102
-225 130 -47 29 -159 95 -250 147 -91 52 -200 116 -243 142 -43 25 -80 46 -82
46 -3 0 -53 30 -112 66 -116 71 -238 145 -343 205 -36 21 -103 62 -150 92 -47
30 -146 89 -220 132 -74 43 -218 128 -320 190 -102 62 -239 144 -305 184 -66
39 -151 91 -190 115 -120 77 -414 246 -570 329 -82 45 -224 123 -315 175 -91
52 -228 131 -305 175 -77 44 -189 110 -250 147 -300 184 -553 330 -810 470
-385 209 -643 358 -945 545 -213 132 -353 215 -500 295 -69 37 -142 77 -163
89 -20 11 -97 53 -170 93 -72 39 -179 99 -237 133 -58 34 -141 81 -185 105
-44 24 -125 70 -180 103 -194 115 -211 125 -280 162 -201 109 -576 318 -695
389 -75 45 -164 97 -198 116 -34 19 -124 72 -200 117 -75 45 -186 110 -247
144 -60 34 -146 83 -190 109 -44 26 -123 71 -175 100 -109 61 -299 173 -350
206 -53 34 -250 148 -390 227 -69 38 -129 73 -135 77 -5 5 -80 49 -165 98
-222 129 -551 324 -738 438 -37 22 -123 74 -192 114 -69 41 -168 99 -220 130
-52 31 -129 76 -170 100 -41 24 -117 68 -168 99 -93 56 -157 94 -377 224 -66
39 -163 97 -215 129 -52 32 -120 71 -150 88 -77 42 -96 54 -263 155 -82 50
-221 132 -310 183 -89 52 -233 142 -322 200 -183 122 -309 188 -445 233 -72
25 -115 33 -185 35 -49 2 -112 -1 -140 -7z m213 -1509 c65 -34 184 -103 265
-153 176 -110 341 -210 382 -233 17 -9 53 -31 80 -49 54 -34 149 -91 205 -123
19 -11 62 -35 95 -55 33 -19 157 -90 275 -157 118 -67 267 -153 330 -190 63
-37 174 -101 245 -143 141 -83 221 -130 270 -163 17 -12 56 -35 86 -51 30 -16
144 -84 254 -150 243 -146 377 -224 648 -379 415 -238 578 -333 842 -492 105
-63 201 -121 215 -129 14 -7 122 -69 240 -137 195 -111 249 -143 360 -211 89
-55 453 -264 615 -353 315 -173 656 -353 1014 -533 134 -67 269 -139 300 -160
62 -41 87 -79 72 -107 -20 -36 -94 -91 -226 -168 -27 -16 -62 -36 -76 -44 -14
-8 -73 -41 -130 -74 -304 -171 -358 -201 -399 -226 -25 -15 -135 -80 -245
-146 -110 -65 -232 -140 -271 -165 -122 -81 -268 -166 -559 -324 -524 -285
-764 -403 -858 -425 -27 -6 -58 -5 -87 1 -117 26 -768 378 -1111 602 -46 30
-145 90 -219 134 -74 44 -184 109 -245 145 -60 36 -146 84 -190 108 -44 24
-136 76 -205 116 -69 39 -165 94 -215 122 -120 66 -147 81 -235 135 -41 25
-111 67 -155 92 -44 26 -129 78 -190 115 -125 76 -390 231 -610 357 -139 79
-224 129 -358 209 -285 171 -690 404 -897 517 -80 44 -170 93 -200 109 -30 17
-129 74 -220 126 -91 52 -205 117 -255 144 -49 27 -121 69 -160 92 -111 67
-186 110 -250 146 -80 44 -435 244 -610 343 -77 44 -176 100 -220 125 -118 66
-245 150 -287 190 -50 47 -51 83 -3 127 39 37 205 135 375 220 63 31 120 61
125 65 6 4 71 40 145 81 159 85 175 94 345 189 72 40 144 80 160 89 147 80
482 284 683 416 348 228 430 281 506 324 102 59 281 151 315 162 55 18 119 2
239 -61z m28927 -2454 c88 -44 214 -111 280 -149 66 -38 140 -81 165 -95 25
-14 79 -44 120 -67 41 -23 98 -55 125 -70 84 -48 252 -138 405 -217 80 -42
189 -99 244 -128 54 -28 184 -94 290 -146 236 -118 281 -141 428 -221 64 -34
120 -63 124 -63 9 0 255 -134 349 -191 44 -26 99 -64 123 -84 33 -29 42 -43
42 -69 0 -21 -8 -40 -22 -53 -40 -36 -146 -94 -513 -283 -99 -51 -193 -101
-210 -111 -16 -10 -93 -52 -170 -95 -77 -43 -153 -85 -170 -94 -16 -9 -57 -32
-90 -50 -33 -18 -148 -86 -255 -150 -193 -115 -364 -214 -490 -282 -115 -62
-174 -95 -240 -133 -36 -21 -99 -57 -140 -80 -135 -75 -175 -98 -185 -105 -5
-4 -102 -61 -215 -125 -113 -65 -223 -130 -245 -145 -76 -51 -420 -254 -750
-440 -110 -62 -281 -161 -380 -218 -321 -188 -557 -324 -680 -392 -112 -63
-183 -103 -445 -253 -58 -34 -177 -104 -265 -157 -88 -53 -169 -101 -180 -107
-86 -49 -183 -105 -195 -113 -8 -6 -40 -23 -70 -40 -152 -84 -485 -277 -575
-335 -61 -38 -149 -90 -315 -183 -98 -56 -175 -92 -208 -98 -19 -4 -51 -1 -72
5 -21 6 -123 58 -227 115 -103 57 -366 201 -583 321 -217 119 -449 247 -515
283 -66 36 -172 97 -235 135 -129 78 -572 333 -665 382 -33 18 -136 74 -230
125 -324 176 -395 224 -395 268 0 32 84 91 276 192 109 58 239 128 289 156 49
28 147 83 217 122 69 39 144 82 165 95 37 23 73 44 233 137 41 24 95 55 120
70 65 39 166 96 325 185 77 44 178 102 225 130 47 28 117 70 155 92 39 22 111
65 160 94 50 29 173 100 275 159 102 58 246 142 320 185 74 43 173 100 220
127 47 27 92 53 100 58 8 5 65 37 125 71 61 34 142 81 180 104 39 23 142 82
230 130 88 49 282 158 430 244 149 85 320 181 380 214 61 33 121 67 135 76 14
9 50 30 80 46 30 15 109 61 175 100 66 39 170 100 230 134 61 34 117 66 125
71 8 5 67 37 130 72 185 101 202 111 265 150 33 20 101 58 150 85 122 67 154
86 265 153 52 32 113 67 135 79 22 12 69 40 105 62 144 92 563 335 630 367 68
31 69 32 150 29 72 -2 82 -6 235 -81z m-32465 -335 c19 -10 166 -93 325 -186
341 -197 396 -228 615 -348 91 -49 228 -126 305 -170 224 -127 365 -207 435
-244 36 -20 88 -48 115 -63 28 -15 88 -48 135 -72 136 -71 292 -158 335 -187
37 -25 81 -51 205 -119 66 -36 222 -128 325 -190 50 -31 142 -85 205 -122 63
-37 167 -97 230 -135 63 -37 140 -82 170 -100 170 -99 410 -241 510 -303 63
-40 147 -90 185 -112 39 -23 140 -84 225 -136 85 -53 207 -125 270 -161 63
-37 152 -89 198 -117 46 -28 127 -76 180 -107 95 -54 412 -247 502 -304 91
-58 118 -74 255 -155 77 -46 190 -113 250 -150 61 -37 177 -107 259 -156 142
-85 252 -150 457 -274 51 -30 102 -69 115 -86 13 -17 31 -50 40 -75 14 -39 17
-222 26 -1674 5 -896 8 -1660 5 -1698 -5 -74 -24 -107 -63 -107 -29 0 -110 35
-149 64 -16 12 -55 37 -85 55 -30 17 -62 36 -70 41 -134 85 -221 138 -295 181
-49 29 -115 67 -145 85 -111 65 -411 234 -416 234 -3 0 -60 33 -127 73 -67 41
-205 121 -307 180 -102 58 -225 130 -275 161 -49 30 -162 96 -250 147 -88 50
-230 133 -315 184 -202 120 -307 182 -765 448 -66 38 -136 80 -155 92 -37 24
-56 35 -270 153 -74 41 -153 85 -175 97 -22 13 -78 44 -125 70 -47 26 -116 66
-155 89 -38 23 -104 62 -145 86 -41 24 -91 53 -110 65 -20 13 -58 34 -85 49
-28 14 -57 31 -65 36 -17 11 -475 262 -585 321 -39 20 -178 98 -309 173 -131
75 -240 136 -242 136 -3 0 -29 16 -59 34 -30 19 -100 60 -157 91 -57 31 -119
65 -138 76 -19 12 -96 55 -170 96 -291 162 -526 297 -555 317 -16 12 -50 32
-75 45 -76 41 -128 80 -157 118 l-28 36 0 1755 0 1754 25 20 c28 22 62 19 120
-11z m11745 -1993 c105 -47 432 -218 505 -263 19 -12 91 -55 160 -95 69 -41
168 -100 220 -131 113 -69 335 -199 475 -279 344 -196 774 -445 795 -459 24
-17 235 -137 440 -250 100 -56 483 -285 585 -351 33 -21 125 -78 205 -126 80
-48 161 -97 180 -109 34 -21 200 -113 345 -191 39 -20 86 -46 105 -57 19 -11
64 -36 100 -56 36 -19 126 -73 200 -118 155 -96 359 -218 540 -323 69 -41 157
-93 197 -116 39 -24 176 -103 305 -177 128 -74 265 -154 303 -177 130 -81 268
-156 685 -372 310 -161 379 -202 405 -241 25 -39 6 -71 -79 -125 -146 -92
-192 -120 -316 -187 -184 -100 -495 -276 -660 -375 -323 -193 -381 -227 -795
-460 -71 -40 -285 -162 -475 -270 -190 -108 -360 -202 -379 -208 -19 -7 -56
-12 -82 -12 -38 0 -66 10 -131 44 -46 24 -112 62 -148 84 -36 23 -112 69 -170
103 -58 35 -149 89 -203 121 -53 32 -116 69 -140 82 -23 13 -96 54 -162 91
-66 37 -169 94 -230 128 -167 91 -459 262 -658 383 -241 147 -314 190 -437
259 -58 32 -121 68 -140 80 -19 13 -66 40 -105 60 -78 42 -388 218 -535 303
-52 31 -144 83 -205 117 -60 34 -162 93 -225 130 -63 38 -149 87 -190 110 -41
22 -151 88 -245 145 -93 57 -210 126 -260 153 -49 27 -141 79 -205 116 -63 37
-155 89 -205 116 -49 26 -130 72 -180 100 -49 29 -106 62 -125 73 -289 165
-491 284 -630 374 -30 19 -136 82 -235 138 -99 57 -191 111 -205 120 -14 10
-92 55 -175 100 -388 213 -574 326 -600 363 -24 34 -19 76 14 105 25 24 513
323 644 395 29 16 81 47 117 70 36 22 94 57 130 77 116 65 154 87 220 129 36
22 120 73 187 113 300 179 495 308 791 525 100 73 275 188 346 228 37 21 82
41 100 46 54 13 118 -2 231 -53z m24102 -455 c17 -26 18 -99 15 -1388 -3
-1524 -8 -2013 -24 -2065 -6 -19 -20 -47 -32 -63 -30 -41 -161 -128 -351 -232
-46 -25 -444 -251 -775 -439 -74 -42 -164 -95 -200 -117 -36 -23 -135 -80
-220 -129 -85 -48 -220 -125 -300 -170 -80 -45 -170 -96 -200 -113 -30 -17
-113 -66 -185 -110 -159 -97 -249 -151 -340 -204 -101 -59 -404 -237 -515
-303 -52 -31 -189 -112 -305 -180 -115 -68 -250 -148 -300 -178 -49 -30 -218
-129 -375 -220 -157 -91 -314 -182 -350 -203 -36 -20 -114 -65 -175 -98 -60
-34 -146 -81 -190 -106 -44 -25 -120 -66 -169 -91 -49 -25 -108 -58 -130 -72
-49 -31 -123 -74 -271 -157 -60 -34 -139 -79 -175 -100 -36 -21 -139 -78 -230
-128 -91 -49 -239 -133 -330 -187 -226 -133 -290 -170 -296 -170 -3 0 -53 -29
-112 -64 -132 -79 -315 -177 -372 -200 -35 -14 -49 -15 -71 -6 -15 7 -31 19
-35 28 -5 10 -9 559 -10 1222 -2 1133 -12 1682 -34 1914 -14 134 -12 270 2
319 7 22 29 56 50 77 21 20 112 77 201 125 142 78 261 145 482 273 33 19 116
66 185 105 69 38 190 109 270 157 239 143 380 224 480 279 52 29 120 67 150
85 60 36 240 139 280 160 445 241 1065 590 1130 636 24 16 114 68 388 221 64
36 176 98 247 138 72 40 154 86 183 102 28 16 70 40 92 54 22 14 41 25 44 25
3 0 48 26 286 165 41 25 264 154 342 199 18 11 107 61 198 111 304 169 684
383 875 493 88 51 171 98 350 200 88 50 178 101 200 115 89 54 312 192 345
213 19 13 66 41 105 63 52 31 81 41 112 41 35 0 46 -5 60 -27z m-11858 -1973
c81 -37 237 -118 326 -170 49 -29 124 -71 325 -185 309 -175 398 -225 560
-313 249 -135 426 -233 625 -346 99 -57 216 -122 260 -145 225 -120 533 -300
567 -332 21 -20 38 -44 38 -55 -1 -23 -37 -69 -72 -92 -14 -9 -59 -39 -99 -66
-41 -27 -90 -58 -109 -69 -19 -11 -96 -53 -170 -95 -74 -41 -223 -128 -331
-192 -108 -65 -211 -126 -230 -135 -19 -10 -89 -52 -157 -94 -68 -42 -144 -89
-170 -105 -54 -33 -169 -98 -547 -309 -148 -83 -301 -168 -340 -190 -134 -76
-250 -136 -305 -157 -80 -32 -134 -28 -218 14 -38 19 -93 49 -123 67 -30 17
-88 51 -129 74 -126 70 -331 189 -410 237 -41 25 -140 81 -220 124 -80 43
-183 102 -230 131 -47 28 -134 80 -195 115 -60 34 -198 114 -305 177 -107 62
-213 124 -235 136 -139 78 -220 124 -380 215 -99 57 -200 115 -225 130 -25 14
-60 35 -79 45 -19 11 -52 35 -73 54 -30 26 -38 41 -38 66 0 28 8 40 43 67 23
19 98 67 167 108 69 40 150 88 180 106 30 18 159 92 285 164 127 73 257 148
290 168 59 35 200 114 365 207 114 64 493 290 770 460 100 61 350 202 382 215
13 5 45 9 72 9 37 1 70 -9 135 -39z m-15739 -291 c25 -11 65 -33 90 -48 25
-15 101 -61 170 -101 69 -40 143 -85 165 -99 22 -13 67 -40 100 -59 33 -19 74
-42 90 -52 50 -29 333 -199 450 -269 61 -37 144 -87 185 -111 125 -72 278
-164 478 -287 64 -40 221 -131 347 -204 127 -73 241 -140 255 -149 39 -27 209
-124 405 -233 99 -54 299 -170 445 -256 250 -150 506 -298 685 -399 274 -155
536 -305 635 -365 63 -38 144 -86 180 -105 36 -19 97 -54 135 -77 39 -23 102
-60 140 -82 39 -22 133 -78 210 -124 121 -72 366 -215 460 -268 17 -10 59 -34
95 -55 36 -20 108 -63 160 -96 52 -32 98 -59 102 -59 4 -1 46 -25 95 -55 48
-29 115 -67 148 -85 33 -17 89 -50 125 -72 36 -23 79 -49 96 -58 60 -33 255
-156 302 -191 31 -23 56 -54 76 -92 l28 -57 9 -343 c11 -451 27 -1600 34
-2418 7 -708 7 -695 -46 -714 -20 -7 -39 -3 -83 18 -54 26 -305 175 -336 200
-14 11 -114 71 -340 203 -47 28 -126 76 -175 108 -89 57 -251 151 -375 217
-217 116 -274 146 -350 188 -77 42 -436 243 -535 300 -22 12 -69 38 -104 57
-35 19 -98 55 -140 80 -92 55 -129 76 -246 138 -254 136 -372 202 -555 310
-240 142 -698 394 -1040 572 -140 73 -265 143 -403 226 -218 131 -360 213
-487 282 -69 37 -167 92 -218 122 -51 29 -125 70 -165 92 -83 44 -133 73 -232
128 -38 22 -113 64 -165 93 -52 29 -106 61 -120 70 -52 36 -609 352 -767 435
-40 21 -86 52 -103 68 -16 16 -35 47 -40 68 -8 28 -7 128 1 342 8 211 10 744
7 1776 -5 1424 -4 1475 13 1492 11 11 29 19 42 19 12 0 42 -10 67 -21z m-8269
-418 c46 -16 155 -76 409 -226 30 -18 109 -64 175 -103 179 -105 322 -188 495
-287 168 -96 468 -271 540 -316 25 -15 79 -47 120 -72 41 -24 91 -53 110 -65
108 -64 358 -206 440 -249 155 -82 393 -214 422 -234 45 -32 66 -92 72 -209 7
-126 15 -1314 17 -2530 1 -702 -1 -891 -12 -913 -7 -15 -23 -30 -35 -33 -13
-3 -39 -1 -58 6 -41 13 -393 200 -451 240 -22 15 -130 78 -240 140 -110 63
-273 157 -362 210 -89 52 -220 128 -290 169 -70 41 -177 104 -238 141 -60 37
-146 88 -190 114 -44 26 -132 81 -195 122 -167 108 -417 249 -530 299 -54 24
-127 51 -162 60 -106 28 -127 40 -148 87 -19 42 -20 81 -20 1818 0 1404 3
1780 13 1800 7 13 24 30 37 37 14 7 25 13 26 13 0 0 25 -9 55 -19z m19927
-1605 c26 -14 92 -59 147 -101 55 -41 124 -87 154 -101 29 -14 97 -37 150 -50
124 -31 184 -51 246 -82 78 -39 261 -148 490 -292 116 -73 235 -147 265 -165
30 -18 107 -62 170 -100 63 -37 135 -79 160 -93 25 -13 74 -42 110 -62 36 -21
94 -53 130 -73 563 -304 626 -340 693 -397 41 -36 48 -70 21 -108 -8 -12 -41
-39 -72 -60 -31 -22 -95 -65 -142 -96 -47 -32 -116 -76 -155 -98 -38 -21 -131
-75 -205 -119 -137 -82 -172 -102 -292 -171 -38 -21 -98 -55 -135 -77 -38 -21
-106 -60 -153 -86 -47 -26 -119 -67 -160 -91 -41 -23 -147 -82 -235 -129 -171
-93 -188 -103 -335 -185 -52 -29 -122 -67 -155 -85 -417 -223 -459 -245 -545
-271 -67 -21 -146 -17 -223 10 -38 14 -222 104 -410 202 -188 98 -389 202
-447 232 -58 30 -125 66 -150 82 -25 15 -99 57 -165 93 -66 36 -174 95 -240
132 -66 37 -149 84 -185 103 -36 19 -105 58 -155 87 -49 29 -184 104 -300 167
-115 63 -253 139 -305 168 -52 29 -124 69 -160 88 -106 57 -196 121 -209 148
-9 20 -8 31 4 53 20 40 136 116 390 255 98 54 287 164 365 212 142 88 380 225
905 523 354 201 581 334 685 401 58 37 165 99 220 127 51 26 77 33 123 33 42
0 71 -7 105 -24z m7599 -410 l28 -24 6 -209 c6 -186 14 -1905 14 -2885 l0
-376 -30 -44 c-37 -52 -125 -112 -357 -243 -95 -54 -211 -122 -258 -151 -47
-28 -128 -76 -180 -107 -52 -30 -185 -108 -295 -174 -110 -66 -260 -152 -333
-191 -72 -40 -149 -82 -169 -94 -21 -12 -82 -46 -136 -75 -54 -30 -122 -69
-152 -88 -30 -19 -56 -35 -59 -35 -2 0 -42 -23 -88 -51 -46 -28 -132 -81 -191
-118 -60 -36 -127 -78 -150 -93 -154 -99 -360 -208 -393 -208 -30 0 -64 33
-65 63 0 12 0 461 0 997 0 1214 9 2114 22 2289 12 163 33 232 86 279 71 62
210 147 548 337 126 71 189 107 296 170 42 23 204 114 404 225 140 77 374 213
455 265 19 12 55 33 80 47 124 69 395 227 470 275 280 177 329 207 365 224 22
10 43 19 47 19 4 0 20 -11 35 -24z m-23292 -396 c53 -28 113 -61 133 -74 20
-12 69 -41 107 -63 76 -44 312 -182 442 -259 45 -27 120 -71 165 -97 46 -26
115 -68 153 -92 75 -47 95 -59 280 -168 66 -39 152 -90 190 -113 39 -24 113
-68 165 -100 52 -31 111 -67 130 -80 31 -20 410 -241 610 -355 41 -23 118 -68
170 -99 114 -67 199 -117 340 -197 58 -33 128 -74 155 -91 77 -47 560 -324
650 -373 69 -37 190 -106 425 -244 30 -18 125 -73 210 -122 139 -81 255 -152
420 -255 30 -19 89 -54 130 -78 111 -64 594 -362 730 -450 118 -76 374 -231
475 -288 39 -21 138 -76 220 -121 286 -158 390 -220 423 -254 19 -19 37 -52
42 -73 9 -40 15 -436 27 -2024 12 -1375 12 -1381 -10 -1413 -22 -34 -55 -35
-122 -3 -27 13 -144 77 -260 143 -115 66 -255 145 -310 175 -55 31 -118 66
-140 78 -22 13 -92 50 -155 83 -105 55 -228 123 -385 215 -146 85 -176 103
-280 164 -60 35 -150 86 -200 113 -105 56 -230 127 -445 252 -85 50 -189 110
-230 133 -41 24 -113 67 -160 96 -47 28 -107 64 -135 78 -27 14 -97 56 -155
93 -99 62 -269 163 -276 163 -2 0 -27 14 -56 31 -58 35 -85 50 -228 129 -52
29 -115 67 -140 84 -25 17 -101 64 -170 106 -69 42 -152 93 -185 114 -93 59
-396 246 -399 246 -2 0 -43 24 -92 54 -49 30 -174 101 -277 156 -104 56 -216
119 -250 140 -34 21 -105 65 -157 96 -52 32 -162 100 -245 151 -136 86 -388
236 -585 348 -41 24 -93 54 -115 68 -59 36 -258 153 -296 175 -19 11 -86 50
-149 87 -63 38 -148 86 -188 109 -92 50 -144 95 -168 143 -18 37 -19 100 -24
1728 -3 930 -2 1706 2 1725 8 40 31 60 70 60 15 0 71 -23 123 -50z m31645 -75
c13 -26 15 -240 15 -1755 l0 -1725 -23 -40 c-17 -30 -52 -60 -130 -111 -111
-74 -140 -91 -307 -182 -55 -30 -157 -88 -227 -128 -70 -41 -129 -74 -131 -74
-6 0 -163 -91 -292 -170 -66 -40 -142 -86 -170 -102 -27 -16 -79 -47 -115 -70
-132 -82 -215 -132 -433 -257 -283 -162 -453 -262 -592 -344 -201 -120 -357
-200 -399 -204 -33 -4 -45 -1 -61 17 -20 22 -20 41 -26 1104 -13 2145 -12
2368 2 2414 7 24 26 57 43 74 35 34 127 97 195 134 25 14 84 47 131 75 47 28
207 118 355 201 149 83 277 156 285 163 13 12 131 79 545 310 72 39 202 113
291 163 88 50 199 111 245 135 86 45 105 56 219 122 137 80 217 127 260 155
59 38 154 91 205 112 22 10 54 16 70 15 22 -1 34 -10 45 -32z m-12416 -1858
l21 -28 0 -1727 c-1 -1863 1 -1809 -53 -1880 -22 -28 -189 -146 -279 -197 -15
-8 -35 -20 -43 -25 -8 -5 -49 -29 -90 -53 -41 -24 -137 -80 -212 -125 -75 -45
-139 -82 -142 -82 -7 0 -177 -99 -371 -215 -93 -56 -260 -155 -370 -220 -110
-64 -222 -130 -248 -146 -27 -16 -50 -29 -53 -29 -2 0 -21 -11 -42 -23 -20
-13 -57 -35 -82 -49 -25 -14 -101 -58 -170 -97 -170 -98 -597 -308 -641 -316
-21 -4 -46 -2 -58 4 -11 6 -25 27 -30 47 -7 24 -7 141 -1 343 18 580 31 1688
29 2406 -2 671 -1 723 16 763 19 46 76 101 134 128 52 24 219 126 336 204 276
183 284 188 507 319 51 30 104 62 118 71 14 10 57 35 95 57 132 76 570 335
595 353 15 10 48 30 75 44 28 15 82 46 120 70 39 24 131 79 205 121 74 43 187
108 250 145 192 113 310 171 338 168 14 -2 34 -16 46 -31z m-6869 -49 c112
-61 259 -147 305 -178 14 -9 72 -44 130 -79 58 -34 134 -81 170 -103 153 -95
291 -181 375 -231 209 -127 545 -327 605 -361 36 -20 103 -61 150 -90 47 -30
159 -99 250 -154 369 -222 508 -307 560 -342 73 -50 127 -110 139 -157 5 -21
12 -101 15 -178 3 -77 9 -799 12 -1605 3 -806 8 -1469 11 -1473 3 -5 2 -44 -2
-88 -9 -95 -26 -123 -77 -123 -51 0 -255 107 -597 313 -108 65 -248 148 -311
185 -63 37 -122 71 -130 76 -8 5 -64 37 -125 71 -60 34 -131 75 -158 90 -26
16 -50 29 -54 29 -6 0 -413 232 -576 329 -103 61 -297 175 -372 219 -33 19
-99 57 -148 83 -48 27 -113 65 -144 85 -31 20 -63 39 -72 42 -9 4 -49 27 -90
51 -61 36 -76 50 -93 89 -19 42 -20 53 -9 141 28 241 33 592 27 1682 -4 603
-11 1209 -15 1345 -10 293 -5 359 29 386 17 14 32 17 54 12 17 -3 81 -33 141
-66z m15045 -426 c16 -13 24 -34 30 -87 12 -92 12 -3368 1 -3419 -5 -21 -23
-55 -39 -75 -29 -36 -62 -54 -502 -277 -69 -35 -156 -81 -195 -102 -38 -22
-113 -63 -165 -92 -52 -29 -218 -126 -368 -217 -150 -90 -330 -197 -400 -237
-70 -40 -194 -112 -276 -160 -82 -48 -203 -117 -270 -153 -145 -79 -492 -282
-696 -406 -41 -25 -113 -68 -160 -96 -47 -27 -125 -74 -175 -104 -95 -59 -331
-199 -505 -301 -288 -170 -394 -233 -490 -293 -58 -36 -197 -117 -310 -178
-196 -108 -416 -233 -930 -527 -129 -74 -260 -148 -290 -165 -141 -78 -358
-206 -510 -301 -181 -113 -210 -132 -242 -154 -32 -21 -247 -143 -300 -170
-66 -32 -112 -20 -132 36 -10 28 -7 3336 3 3424 6 50 16 83 32 107 27 38 163
131 369 250 74 43 180 105 235 138 55 33 217 127 360 208 327 185 504 287 685
394 14 9 72 41 130 72 168 90 656 369 765 438 236 147 436 264 713 416 78 43
177 100 220 126 135 82 300 181 402 239 297 169 804 462 880 509 52 32 149 90
215 128 66 39 136 80 155 92 19 12 73 44 120 70 47 27 92 54 100 60 8 7 40 26
70 42 30 16 98 55 150 87 52 32 102 61 111 66 9 4 58 30 110 58 52 27 117 63
144 79 28 16 106 60 175 97 69 37 141 77 160 88 265 158 548 308 580 308 10 0
28 -8 40 -18z m-31535 -407 c123 -36 339 -145 555 -280 195 -122 409 -247 578
-339 53 -29 135 -75 182 -101 47 -26 195 -103 330 -170 135 -68 321 -166 414
-219 92 -53 170 -96 171 -96 2 0 43 -23 92 -51 48 -28 113 -64 143 -80 70 -37
208 -118 410 -239 25 -15 83 -49 130 -75 47 -26 101 -58 120 -70 19 -12 80
-48 135 -80 55 -32 181 -109 280 -170 99 -61 216 -131 260 -154 190 -102 738
-418 962 -554 106 -64 195 -117 198 -117 2 0 57 -31 120 -70 63 -38 155 -90
203 -116 48 -26 179 -102 292 -169 113 -67 266 -157 340 -200 74 -43 151 -88
170 -101 56 -36 281 -163 455 -257 88 -47 174 -101 191 -119 17 -18 37 -49 45
-68 10 -26 14 -122 16 -380 1 -190 7 -979 13 -1755 13 -1582 16 -1488 -56
-1493 -33 -2 -58 9 -169 76 -71 42 -170 104 -220 137 -49 32 -180 118 -290
190 -222 146 -219 144 -395 246 -68 39 -186 108 -262 153 -75 45 -166 97 -200
117 -185 105 -336 194 -481 285 -203 127 -530 309 -1017 566 -139 74 -307 166
-440 243 -130 75 -233 130 -460 247 -74 39 -203 108 -286 154 -83 46 -154 84
-158 84 -4 0 -38 18 -74 39 -83 48 -230 129 -342 189 -47 24 -116 64 -155 87
-74 45 -306 175 -408 229 -240 127 -317 168 -432 233 -71 40 -137 78 -145 83
-8 6 -26 16 -40 22 -14 7 -79 44 -145 84 -66 39 -133 78 -150 86 -47 24 -142
80 -230 135 -44 28 -98 60 -120 72 -22 12 -60 33 -85 48 -25 14 -76 43 -113
65 -37 22 -83 53 -102 69 -69 61 -64 -70 -67 1831 l-3 1717 26 27 c15 14 42
29 60 33 36 8 58 4 154 -24z m12370 -1954 c39 -20 97 -53 130 -73 118 -69 238
-138 240 -138 3 0 157 -94 216 -132 56 -36 153 -92 274 -158 185 -101 364
-201 470 -263 210 -122 248 -144 360 -205 61 -32 133 -72 160 -87 28 -16 109
-61 180 -100 382 -212 498 -277 575 -325 47 -29 129 -79 182 -111 54 -33 133
-81 175 -107 43 -27 139 -84 213 -127 74 -42 210 -122 301 -176 92 -55 170
-99 174 -99 4 0 19 -8 33 -19 25 -17 102 -62 397 -230 61 -34 133 -76 160 -93
28 -17 88 -53 135 -81 120 -70 121 -71 312 -188 391 -239 546 -333 598 -360
64 -34 91 -51 220 -134 86 -56 181 -115 251 -155 258 -149 718 -410 794 -450
158 -84 208 -117 232 -152 12 -18 26 -53 32 -78 5 -28 11 -711 13 -1761 3
-1677 3 -1717 -16 -1738 -26 -29 -75 -27 -138 5 -65 33 -322 186 -431 257
-133 87 -276 171 -452 267 -91 50 -229 128 -307 174 -79 45 -179 103 -223 127
-44 24 -107 60 -140 81 -33 20 -103 61 -155 89 -52 29 -174 99 -269 157 -96
57 -186 109 -200 115 -21 9 -200 112 -371 215 -19 11 -62 35 -95 53 -33 17
-100 56 -148 85 -49 30 -90 54 -91 54 -2 0 -43 24 -92 54 -49 30 -125 76 -169
102 -44 26 -132 81 -195 122 -192 125 -247 158 -490 296 -74 42 -172 100 -217
129 -195 123 -584 357 -703 423 -47 26 -132 74 -190 107 -58 33 -159 90 -225
127 -66 36 -188 107 -272 158 -83 51 -155 92 -159 92 -7 0 -246 140 -492 287
-67 41 -150 88 -185 106 -55 29 -113 63 -250 148 -23 14 -82 51 -132 81 -73
45 -96 65 -122 107 -25 42 -33 67 -37 124 -3 40 -8 554 -11 1142 -3 589 -11
1306 -17 1595 -15 644 -15 650 0 678 10 17 21 22 55 22 29 0 63 -12 112 -39z
m23382 -506 c15 -17 23 -43 28 -88 4 -35 5 -790 3 -1678 -4 -1306 -7 -1621
-18 -1649 -26 -68 -66 -105 -192 -178 -68 -38 -158 -89 -202 -112 -43 -23
-144 -81 -225 -127 -170 -99 -170 -99 -310 -179 -58 -33 -146 -84 -195 -112
-49 -29 -90 -52 -91 -52 -1 0 -42 -25 -91 -55 -49 -30 -105 -64 -124 -75 -19
-11 -66 -40 -105 -64 -38 -25 -149 -92 -245 -150 -96 -57 -242 -145 -323 -195
-82 -50 -151 -91 -154 -91 -3 0 -17 -8 -31 -19 -15 -10 -85 -52 -157 -93 -71
-42 -179 -105 -240 -140 -60 -36 -186 -110 -280 -165 -93 -55 -249 -146 -345
-203 -96 -57 -204 -120 -240 -140 -36 -20 -105 -60 -154 -88 -49 -29 -91 -52
-93 -52 -2 0 -22 -12 -45 -26 -22 -14 -93 -55 -157 -91 -64 -36 -134 -76 -156
-88 -22 -12 -123 -68 -225 -124 -102 -56 -194 -107 -205 -113 -169 -99 -295
-170 -466 -263 -113 -62 -236 -131 -273 -154 -38 -23 -69 -41 -71 -41 -1 0
-69 -39 -151 -87 -82 -47 -178 -103 -214 -123 -183 -104 -456 -263 -465 -270
-11 -9 -412 -242 -520 -302 -38 -21 -106 -57 -151 -79 -71 -35 -84 -39 -107
-28 -18 8 -28 24 -35 53 -7 27 -11 635 -11 1754 -1 1906 -6 1763 68 1820 20
16 63 43 96 62 33 18 80 44 105 58 101 56 302 174 407 238 117 72 157 96 345
203 62 36 142 83 178 105 85 52 166 97 420 236 162 88 410 231 538 309 179
108 338 201 457 266 66 37 188 106 270 155 83 48 180 106 218 127 91 51 425
248 462 271 58 37 231 139 325 191 105 59 177 101 320 183 121 71 149 86 415
230 121 66 270 148 330 182 61 35 135 77 165 93 30 17 89 50 130 73 41 24 127
71 190 105 63 34 160 89 216 122 122 73 329 193 484 281 63 35 151 85 195 110
337 190 508 274 598 291 53 11 77 5 104 -24z m-12414 -1834 c13 -5 29 -22 35
-38 9 -20 12 -499 14 -1778 l3 -1750 -22 -40 c-12 -22 -37 -52 -55 -66 -44
-34 -175 -107 -458 -257 -52 -27 -178 -98 -280 -157 -102 -59 -216 -125 -255
-148 -38 -22 -92 -54 -120 -72 -117 -74 -334 -202 -640 -375 -110 -63 -263
-152 -340 -198 -77 -47 -196 -117 -265 -157 -295 -170 -346 -194 -403 -195
-35 0 -39 3 -54 38 -14 33 -15 92 -3 627 7 325 13 1117 14 1760 1 1058 3 1173
17 1205 9 19 29 47 45 61 27 24 98 69 189 119 22 12 110 62 195 109 85 48 243
136 350 196 107 59 224 125 260 145 36 21 97 54 135 75 39 20 114 62 168 93
261 152 363 211 492 287 77 46 210 121 295 168 85 46 173 95 195 107 22 13 69
40 105 60 36 20 105 60 153 89 84 50 184 101 199 101 4 0 18 -4 31 -9z
m-15124 -347 c50 -22 180 -94 501 -277 58 -33 134 -77 170 -97 36 -20 98 -57
137 -81 40 -24 132 -80 205 -124 127 -76 354 -214 428 -260 19 -12 69 -41 110
-65 41 -24 115 -68 165 -98 49 -30 170 -100 270 -155 99 -54 192 -108 207
-118 14 -11 29 -19 32 -19 3 0 46 -25 94 -56 48 -32 101 -65 117 -74 17 -10
89 -52 160 -95 72 -43 179 -105 239 -137 60 -33 129 -75 155 -93 25 -18 102
-66 171 -107 69 -41 163 -99 210 -128 47 -29 94 -58 105 -64 41 -23 182 -108
245 -148 36 -22 85 -53 110 -68 25 -15 74 -46 110 -68 64 -41 93 -57 280 -162
52 -29 113 -65 135 -80 22 -15 103 -65 180 -111 179 -105 201 -119 312 -190
51 -32 116 -72 145 -89 29 -17 76 -45 103 -62 28 -17 158 -93 290 -168 132
-76 269 -156 305 -178 36 -23 115 -69 175 -103 61 -34 130 -74 155 -89 25 -16
81 -48 125 -73 44 -24 107 -60 140 -79 33 -20 96 -56 140 -82 171 -100 288
-175 317 -202 16 -16 39 -47 51 -69 18 -35 21 -66 28 -255 11 -304 17 -878 25
-2140 7 -1131 7 -1127 -30 -1152 -39 -26 -129 17 -371 177 -93 62 -262 167
-375 235 -113 67 -230 139 -260 160 -55 37 -570 348 -645 389 -22 12 -71 40
-110 63 -99 57 -152 86 -395 216 -141 75 -169 91 -325 184 -82 50 -325 191
-540 313 -379 216 -448 254 -605 338 -41 22 -106 58 -145 80 -38 22 -140 79
-225 127 -85 47 -174 99 -197 113 -24 15 -44 27 -46 27 -2 0 -64 34 -138 75
-74 41 -137 75 -141 75 -4 0 -49 26 -100 58 -96 59 -336 200 -526 308 -59 34
-170 98 -247 144 -77 46 -205 120 -285 165 -231 132 -570 326 -628 359 -52 30
-96 54 -277 151 -49 26 -119 64 -155 84 -36 20 -76 43 -90 49 -62 32 -123 85
-140 125 -18 40 -19 112 -20 1767 -1 949 -1 1747 -1 1773 1 38 7 53 27 74 20
20 31 24 57 19 17 -3 56 -18 86 -32z m-8279 -490 c82 -39 396 -197 465 -234
93 -50 136 -75 340 -198 356 -215 772 -454 1140 -654 121 -66 270 -147 330
-181 61 -33 133 -72 160 -86 185 -97 284 -176 299 -239 4 -15 11 -823 16
-1796 7 -1394 7 -1775 -3 -1795 -9 -20 -21 -27 -50 -29 -30 -3 -58 7 -133 47
-52 28 -219 128 -372 223 -152 94 -335 207 -407 250 -71 43 -143 86 -160 96
-57 35 -170 100 -305 175 -123 69 -463 269 -579 342 -46 29 -284 172 -401 240
-30 18 -125 70 -210 115 -248 133 -292 169 -310 254 -8 36 -10 550 -8 1741 2
1314 6 1696 15 1718 7 15 23 32 35 37 31 13 72 5 138 -26z m27500 -1984 c10
-5 23 -24 29 -42 17 -46 29 -3293 13 -3392 -7 -45 -20 -82 -38 -107 -31 -45
-204 -160 -498 -330 -104 -60 -190 -109 -192 -109 -1 0 -62 -37 -135 -82 -74
-44 -159 -95 -189 -113 -30 -17 -120 -71 -200 -120 -80 -48 -199 -119 -265
-158 -66 -38 -165 -97 -220 -130 -111 -68 -190 -113 -280 -162 -71 -39 -250
-144 -350 -205 -128 -79 -357 -211 -392 -225 -54 -23 -88 -19 -112 12 l-21 26
2 1701 c3 1700 3 1701 24 1746 23 51 70 96 141 136 26 15 64 37 83 49 19 12
106 66 193 121 512 321 796 493 967 588 47 26 119 66 160 90 41 25 116 67 165
94 50 27 131 75 180 105 50 31 131 79 180 108 187 109 343 204 435 263 206
134 271 162 320 136z m-23355 -359 c23 -10 79 -43 125 -73 139 -89 301 -185
545 -323 182 -103 281 -161 375 -219 156 -98 193 -120 675 -405 34 -20 114
-65 178 -101 64 -36 210 -121 325 -189 249 -148 246 -146 350 -207 46 -27 107
-63 135 -80 103 -61 230 -134 235 -134 2 0 54 -31 116 -68 61 -38 145 -88 186
-111 110 -63 367 -213 404 -235 17 -11 60 -36 96 -56 36 -21 164 -94 285 -163
121 -69 245 -139 275 -156 30 -17 107 -61 170 -97 63 -37 163 -94 222 -128
134 -76 280 -160 428 -246 107 -63 394 -224 675 -380 284 -158 381 -213 390
-220 6 -4 71 -39 145 -77 74 -39 153 -81 175 -93 22 -13 65 -36 95 -53 111
-61 152 -105 171 -187 5 -19 13 -539 18 -1155 6 -616 13 -1398 16 -1737 6
-614 6 -617 -14 -637 -41 -41 -89 -25 -316 103 -77 44 -183 105 -235 136 -52
31 -203 119 -335 195 -132 76 -269 155 -305 175 -240 139 -497 285 -630 358
-85 47 -178 100 -207 118 -28 18 -98 58 -155 89 -57 31 -131 73 -165 93 -78
46 -215 122 -313 175 -41 22 -95 52 -120 67 -25 15 -90 53 -145 84 -55 31
-152 87 -215 125 -181 109 -315 188 -450 266 -69 39 -156 91 -195 115 -38 24
-119 71 -180 105 -60 34 -148 84 -195 112 -47 27 -130 74 -185 103 -55 29
-133 75 -173 101 -40 27 -100 65 -135 85 -34 20 -111 66 -172 102 -60 36 -189
109 -285 162 -96 53 -204 114 -240 135 -58 34 -256 145 -380 212 -56 31 -120
70 -230 142 -47 30 -114 74 -150 96 -36 22 -104 66 -150 97 -181 123 -402 267
-457 298 -67 38 -121 83 -144 119 -9 15 -19 42 -22 61 -4 20 -11 614 -17 1320
-5 707 -15 1466 -21 1686 -6 221 -9 418 -5 438 8 44 37 76 69 76 12 0 40 -9
62 -19z m31685 -121 c11 -11 20 -32 21 -47 4 -108 -3 -3338 -7 -3373 -13 -106
-38 -146 -132 -206 -29 -19 -158 -94 -286 -168 -128 -73 -270 -158 -317 -189
-89 -58 -448 -271 -514 -305 -22 -11 -119 -69 -215 -129 -96 -60 -213 -131
-260 -158 -47 -27 -106 -63 -131 -80 -26 -16 -59 -37 -75 -47 -16 -9 -72 -43
-124 -75 -107 -66 -110 -68 -240 -150 -125 -79 -352 -206 -435 -244 -37 -17
-79 -29 -93 -27 -14 2 -33 14 -43 28 -18 24 -19 97 -21 1775 -3 1668 -2 1752
15 1790 32 70 69 101 257 212 90 53 125 74 230 133 36 20 97 56 137 78 114 66
143 82 228 127 84 44 108 57 325 178 214 118 291 162 396 223 55 31 124 71
154 89 30 17 87 51 125 76 39 25 82 53 97 62 66 41 788 429 818 440 32 12 71
6 90 -13z m-19323 -1829 c44 -21 109 -57 144 -78 57 -36 367 -219 524 -311 33
-19 82 -48 108 -64 27 -15 50 -28 53 -28 8 0 412 -246 649 -395 268 -169 409
-250 615 -358 85 -44 199 -105 255 -135 55 -30 137 -75 183 -100 116 -64 166
-110 188 -175 17 -49 18 -150 18 -1789 l1 -1737 -21 -28 c-35 -46 -74 -43
-190 17 -54 29 -115 62 -134 74 -64 41 -274 163 -355 206 -113 61 -290 162
-430 245 -66 39 -156 91 -200 115 -44 23 -91 50 -105 60 -14 9 -70 43 -125 74
-55 32 -134 78 -175 103 -41 25 -88 53 -105 63 -150 87 -208 122 -255 152 -30
19 -113 68 -184 108 -71 40 -182 104 -245 142 -64 39 -141 84 -171 101 -125
68 -149 89 -177 152 -16 37 -18 119 -24 1030 -4 545 -10 1339 -14 1765 l-7
775 22 28 c14 18 31 27 49 27 15 0 63 -18 108 -39z m6908 -87 c8 -4 23 -21 33
-38 16 -29 17 -137 20 -1531 1 -854 -1 -1593 -7 -1715 -11 -242 -20 -283 -79
-343 -20 -20 -68 -56 -107 -79 -38 -23 -91 -54 -116 -70 -25 -15 -181 -93
-345 -172 -221 -105 -373 -187 -579 -310 -154 -92 -302 -181 -330 -198 -84
-52 -230 -135 -440 -251 -110 -60 -261 -143 -335 -184 -386 -213 -465 -253
-510 -253 -32 0 -43 5 -57 27 -20 31 -20 -135 -11 2163 5 1306 5 1326 25 1371
11 25 36 58 54 72 56 42 191 122 352 209 84 44 233 127 332 182 99 55 193 108
208 116 29 16 140 80 327 190 175 102 366 212 455 262 106 60 385 222 460 268
271 167 417 246 510 276 43 14 114 18 140 8z m8180 -440 c8 -4 22 -19 30 -35
13 -23 15 -108 15 -526 0 -274 5 -1025 11 -1669 7 -836 7 -1182 0 -1210 -13
-46 -49 -89 -111 -131 -25 -16 -128 -78 -230 -135 -386 -220 -571 -330 -715
-423 -44 -28 -143 -89 -220 -135 -153 -91 -389 -237 -603 -372 -75 -48 -159
-101 -187 -117 -27 -17 -104 -65 -170 -105 -108 -68 -282 -169 -584 -341 -58
-34 -171 -102 -251 -151 -160 -100 -538 -325 -670 -399 -47 -27 -103 -59 -125
-73 -22 -14 -69 -42 -105 -62 -100 -56 -124 -70 -280 -165 -80 -48 -183 -110
-230 -138 -47 -27 -101 -60 -120 -73 -48 -31 -625 -360 -735 -419 -93 -50
-399 -226 -495 -285 -53 -33 -95 -60 -262 -166 -42 -27 -107 -67 -143 -89 -36
-22 -125 -77 -198 -123 -201 -126 -219 -137 -257 -159 -82 -48 -147 -81 -182
-92 -47 -15 -75 -2 -92 42 -9 25 -12 415 -10 1739 1 938 5 1730 9 1760 4 29
16 69 26 89 18 36 77 86 149 127 19 11 62 35 95 54 33 19 130 75 215 123 152
86 198 113 353 211 132 84 167 104 347 202 96 52 272 150 390 217 118 67 235
134 260 148 39 21 291 167 470 272 61 35 146 87 200 120 19 12 58 35 85 50
239 133 372 211 565 333 36 22 106 64 155 93 139 81 232 137 324 197 47 29 94
58 105 63 12 5 54 28 93 52 40 23 182 105 315 183 445 258 563 327 598 349 44
28 254 150 340 197 145 79 169 93 270 151 99 57 346 203 455 269 28 17 64 39
80 48 17 10 100 58 185 107 163 95 473 264 600 328 86 43 165 73 197 74 12 1
29 -2 38 -5z m-19266 -2237 c26 -13 86 -48 131 -78 101 -65 490 -302 650 -395
63 -37 142 -83 175 -102 33 -19 123 -70 200 -112 77 -42 208 -115 290 -162 83
-46 200 -111 260 -143 136 -72 323 -177 393 -221 119 -76 462 -272 797 -455
99 -54 196 -108 215 -120 19 -11 87 -50 150 -86 164 -93 247 -143 405 -244 68
-44 735 -428 844 -485 30 -16 61 -33 70 -39 150 -91 330 -201 421 -259 169
-107 582 -353 770 -459 19 -10 103 -58 185 -106 83 -48 255 -148 383 -222 128
-74 279 -161 336 -194 57 -33 124 -77 149 -97 25 -21 56 -59 69 -85 l23 -48 0
-1705 c0 -1815 2 -1755 -46 -1780 -10 -6 -26 -10 -37 -10 -34 0 -318 153 -607
326 -82 50 -208 124 -280 164 -71 41 -247 141 -390 224 -267 154 -315 181
-495 281 -58 32 -170 97 -250 145 -248 149 -546 320 -558 320 -2 0 -29 15 -60
34 -211 125 -364 212 -547 310 -80 43 -280 161 -380 223 -44 28 -99 61 -123
74 -122 68 -465 266 -517 299 -55 34 -221 134 -470 282 -55 33 -130 78 -168
101 -98 61 -457 276 -642 385 -243 143 -276 163 -330 197 -27 17 -79 50 -115
72 -114 71 -424 265 -460 289 -57 36 -300 174 -308 174 -4 0 -42 20 -84 45
-60 35 -83 55 -105 92 -26 44 -28 56 -34 217 -4 94 -8 506 -9 916 0 410 -5
959 -10 1220 -5 261 -12 635 -16 830 l-7 355 22 28 c13 15 31 27 42 27 10 0
41 -11 68 -23z m11108 -2499 c21 -39 19 103 15 -1758 -2 -729 -7 -1413 -11
-1520 -6 -148 -11 -202 -23 -225 -35 -66 -70 -88 -583 -377 -353 -198 -512
-290 -735 -423 -85 -51 -247 -145 -360 -208 -209 -118 -230 -130 -335 -193
-100 -60 -277 -165 -325 -192 -25 -14 -79 -44 -120 -67 -162 -92 -287 -154
-320 -160 -28 -5 -42 -2 -60 13 l-25 20 -3 1729 c-2 1254 0 1742 8 1780 15 67
49 102 148 150 139 66 509 270 652 358 47 29 200 118 340 197 424 241 462 262
504 286 23 13 118 67 211 119 94 53 195 110 225 128 30 17 78 43 106 57 27 15
66 35 85 45 116 66 271 149 382 207 94 49 138 66 167 66 34 0 42 -4 57 -32z"/>
  </g>
</svg>