<svg xmlns="http://www.w3.org/2000/svg" viewBox="0 0 4096.000000 4096.000000">
  <g transform="translate(0.000000,4096.000000) scale(0.100000,-0.100000)" fill="#f4f5f7" stroke="none">
    <path d="M20330 40373 c-14 -2 -45 -10 -70 -18 -25 -8 -75 -18 -111 -24 -37
-5 -84 -18 -105 -29 -22 -11 -55 -23 -74 -27 -19 -4 -59 -21 -89 -36 -30 -16
-60 -29 -67 -29 -8 0 -35 -11 -61 -25 -27 -13 -88 -44 -138 -68 -49 -24 -103
-51 -120 -60 -16 -8 -46 -22 -65 -31 -19 -9 -42 -20 -50 -25 -29 -18 -167 -81
-176 -81 -6 0 -25 -11 -44 -25 -18 -14 -48 -28 -66 -31 -18 -3 -38 -12 -45
-20 -6 -7 -36 -23 -66 -34 -31 -11 -67 -30 -81 -40 -13 -11 -30 -20 -37 -20
-7 0 -36 -13 -66 -29 -30 -15 -71 -34 -91 -40 -20 -7 -42 -19 -48 -26 -7 -8
-31 -20 -54 -26 -22 -6 -52 -19 -66 -29 -14 -9 -43 -23 -65 -30 -22 -7 -47
-19 -56 -26 -9 -8 -38 -22 -65 -31 -27 -9 -59 -24 -72 -34 -13 -10 -37 -21
-55 -25 -18 -4 -48 -17 -67 -30 -19 -13 -40 -24 -47 -24 -7 0 -41 -15 -75 -33
-35 -18 -72 -36 -83 -40 -11 -3 -31 -12 -45 -20 -14 -8 -61 -31 -105 -52 -44
-20 -91 -43 -105 -51 -14 -7 -41 -21 -60 -30 -48 -22 -81 -38 -105 -51 -46
-25 -172 -83 -181 -83 -5 0 -25 -11 -44 -24 -19 -13 -49 -26 -66 -30 -17 -4
-46 -18 -65 -32 -18 -13 -38 -24 -43 -24 -6 0 -62 -25 -126 -56 -237 -116
-275 -134 -286 -134 -6 0 -17 -7 -24 -15 -7 -8 -31 -20 -54 -27 -22 -6 -57
-22 -76 -35 -19 -13 -39 -23 -45 -23 -5 0 -41 -16 -79 -35 -39 -19 -75 -35
-82 -35 -6 0 -22 -8 -35 -19 -13 -10 -42 -24 -64 -31 -22 -7 -51 -20 -65 -30
-14 -9 -40 -22 -58 -28 -18 -6 -45 -20 -60 -31 -15 -10 -46 -24 -68 -30 -23
-6 -47 -18 -53 -25 -7 -8 -32 -21 -57 -30 -24 -8 -56 -24 -71 -35 -14 -12 -33
-21 -41 -21 -13 0 -228 -100 -307 -143 -28 -15 -58 -29 -150 -72 -44 -21 -87
-41 -95 -46 -8 -5 -31 -16 -50 -24 -19 -8 -57 -26 -85 -39 -88 -43 -179 -83
-205 -91 -14 -4 -36 -16 -49 -26 -13 -11 -42 -24 -65 -30 -22 -6 -52 -19 -66
-29 -14 -9 -43 -23 -65 -30 -22 -7 -51 -21 -65 -30 -14 -10 -36 -21 -50 -25
-14 -4 -48 -20 -76 -36 -28 -16 -58 -29 -66 -29 -8 0 -29 -11 -47 -24 -19 -14
-48 -28 -65 -32 -17 -3 -43 -15 -58 -25 -15 -11 -45 -26 -68 -34 -23 -8 -53
-24 -67 -35 -14 -11 -33 -20 -43 -20 -9 0 -35 -12 -56 -26 -21 -15 -55 -31
-74 -37 -19 -5 -46 -17 -60 -27 -14 -9 -36 -21 -50 -25 -14 -4 -47 -20 -75
-35 -27 -15 -61 -31 -75 -35 -14 -4 -36 -15 -50 -25 -14 -9 -42 -23 -62 -29
-20 -7 -42 -19 -48 -26 -7 -8 -31 -20 -54 -27 -22 -6 -48 -18 -57 -25 -9 -8
-41 -23 -70 -34 -30 -12 -61 -26 -69 -34 -8 -7 -33 -18 -55 -25 -22 -7 -51
-21 -64 -31 -13 -11 -29 -19 -36 -19 -7 0 -39 -13 -71 -29 -32 -16 -88 -42
-124 -59 -36 -16 -121 -57 -190 -90 -69 -33 -136 -63 -150 -67 -14 -4 -41 -18
-60 -31 -19 -13 -39 -24 -44 -24 -5 0 -44 -16 -85 -36 -42 -20 -105 -50 -141
-66 -145 -67 -176 -81 -200 -94 -14 -7 -36 -18 -50 -25 -14 -6 -84 -40 -155
-75 -72 -35 -135 -64 -141 -64 -5 0 -25 -11 -44 -25 -19 -14 -41 -25 -51 -25
-9 0 -32 -11 -51 -24 -20 -13 -51 -29 -71 -35 -20 -7 -46 -20 -59 -30 -13 -11
-40 -23 -61 -29 -20 -6 -49 -20 -63 -31 -15 -12 -31 -21 -37 -21 -6 0 -45 -16
-86 -36 -42 -20 -105 -50 -141 -66 -36 -17 -76 -37 -90 -45 -14 -8 -41 -21
-60 -29 -19 -8 -62 -28 -94 -44 -32 -17 -64 -30 -71 -30 -7 0 -18 -7 -25 -14
-6 -8 -28 -20 -48 -27 -20 -6 -54 -22 -74 -35 -20 -13 -49 -26 -65 -30 -15 -4
-44 -18 -63 -31 -19 -12 -40 -23 -46 -23 -6 0 -35 -13 -65 -29 -30 -15 -66
-31 -81 -35 -15 -3 -44 -17 -64 -31 -20 -14 -43 -25 -50 -25 -12 0 -127 -54
-184 -87 -14 -8 -41 -21 -60 -29 -19 -8 -43 -19 -52 -24 -61 -34 -203 -100
-214 -100 -6 0 -25 -11 -43 -24 -19 -14 -48 -28 -65 -32 -17 -3 -44 -15 -59
-26 -15 -11 -44 -24 -65 -30 -20 -6 -49 -19 -64 -29 -15 -11 -46 -26 -69 -34
-24 -9 -50 -22 -59 -29 -8 -7 -32 -19 -54 -26 -21 -7 -54 -23 -74 -36 -19 -13
-43 -24 -52 -24 -10 0 -29 -10 -44 -21 -15 -12 -47 -27 -72 -35 -25 -7 -57
-22 -71 -34 -14 -11 -31 -20 -38 -20 -7 0 -36 -13 -66 -29 -30 -15 -65 -32
-79 -36 -14 -4 -41 -18 -60 -31 -19 -12 -49 -25 -67 -29 -17 -3 -37 -13 -44
-21 -6 -7 -34 -21 -61 -29 -27 -8 -60 -23 -75 -35 -14 -11 -31 -20 -37 -20 -9
0 -52 -19 -186 -84 -14 -7 -34 -17 -45 -24 -42 -23 -171 -82 -179 -82 -5 0
-23 -11 -40 -24 -17 -13 -42 -26 -56 -30 -14 -4 -54 -21 -90 -38 -36 -16 -90
-41 -120 -55 -30 -14 -81 -38 -112 -54 -31 -16 -63 -29 -70 -29 -7 0 -29 -11
-48 -24 -19 -13 -49 -26 -67 -30 -18 -4 -43 -16 -57 -27 -14 -11 -43 -26 -66
-34 -23 -8 -53 -23 -68 -33 -15 -11 -40 -22 -56 -26 -17 -4 -42 -16 -57 -27
-16 -11 -43 -25 -61 -31 -18 -6 -44 -19 -58 -28 -14 -10 -36 -21 -50 -25 -14
-4 -45 -18 -70 -30 -89 -46 -197 -95 -209 -95 -7 0 -29 -11 -49 -25 -20 -14
-41 -25 -46 -25 -5 0 -44 -16 -85 -36 -42 -20 -105 -50 -141 -66 -36 -17 -72
-34 -80 -39 -8 -5 -31 -16 -50 -25 -19 -9 -88 -43 -153 -75 -65 -33 -124 -59
-130 -59 -7 0 -28 -11 -47 -23 -19 -13 -48 -27 -64 -31 -16 -4 -45 -18 -65
-32 -19 -13 -40 -24 -46 -24 -5 0 -37 -13 -70 -30 -33 -16 -76 -36 -95 -45
-19 -8 -42 -19 -50 -24 -27 -17 -166 -81 -176 -81 -5 0 -25 -11 -44 -23 -19
-13 -50 -29 -68 -35 -18 -6 -45 -20 -60 -30 -15 -11 -40 -22 -57 -26 -16 -4
-50 -21 -74 -37 -25 -16 -52 -29 -60 -29 -9 0 -32 -11 -52 -24 -19 -13 -54
-29 -76 -35 -22 -6 -46 -18 -53 -26 -7 -8 -31 -20 -53 -26 -23 -6 -52 -19 -65
-30 -14 -10 -43 -24 -66 -30 -22 -6 -52 -19 -66 -29 -14 -9 -43 -23 -65 -30
-22 -7 -47 -19 -55 -26 -9 -7 -36 -20 -60 -29 -24 -9 -51 -22 -60 -30 -9 -8
-36 -21 -60 -30 -24 -9 -52 -22 -61 -31 -9 -8 -38 -22 -64 -29 -25 -8 -58 -23
-72 -35 -14 -11 -31 -20 -38 -20 -7 0 -39 -13 -71 -29 -32 -15 -95 -45 -139
-66 -77 -36 -95 -45 -132 -64 -55 -28 -171 -81 -179 -81 -5 0 -25 -11 -44 -23
-19 -13 -48 -27 -64 -31 -16 -4 -45 -18 -65 -32 -19 -13 -42 -24 -50 -24 -7 0
-37 -13 -65 -29 -28 -16 -62 -32 -76 -36 -14 -4 -36 -15 -50 -25 -14 -10 -36
-21 -50 -24 -23 -7 -60 -23 -205 -92 -27 -13 -70 -32 -95 -43 -25 -11 -52 -25
-60 -31 -8 -5 -31 -17 -50 -25 -57 -26 -110 -57 -195 -114 -105 -70 -124 -86
-268 -217 -127 -115 -271 -270 -315 -339 -14 -22 -28 -42 -31 -45 -7 -5 -44
-65 -93 -149 -46 -80 -118 -226 -118 -240 0 -8 -9 -28 -19 -45 -11 -17 -27
-60 -36 -96 -9 -35 -22 -74 -28 -85 -6 -11 -18 -60 -28 -110 -9 -49 -25 -119
-35 -155 -19 -63 -19 -307 -19 -10330 0 -9777 1 -10268 18 -10320 9 -30 22
-80 28 -110 6 -30 20 -82 31 -115 10 -33 27 -87 37 -121 10 -33 25 -71 34 -85
9 -13 17 -31 17 -40 0 -19 132 -284 154 -308 8 -9 21 -30 28 -47 7 -17 24 -45
38 -62 34 -44 78 -102 120 -159 50 -68 256 -278 319 -327 170 -130 221 -164
361 -239 66 -36 118 -62 185 -92 28 -13 79 -37 115 -54 36 -17 70 -31 76 -31
7 0 38 -13 69 -30 31 -16 65 -30 74 -30 9 0 32 -11 51 -24 19 -12 52 -26 73
-30 21 -4 54 -18 74 -32 20 -13 45 -24 56 -24 11 0 44 -14 74 -30 29 -17 59
-30 66 -30 8 0 34 -11 58 -23 24 -13 62 -30 84 -37 22 -7 60 -24 84 -37 24
-12 51 -23 60 -23 9 0 34 -11 56 -25 22 -13 47 -25 56 -25 10 0 43 -13 74 -30
31 -16 63 -30 70 -30 7 0 37 -13 68 -30 31 -16 63 -30 70 -30 8 0 39 -13 70
-30 31 -16 62 -30 69 -30 7 0 40 -14 73 -30 33 -16 66 -30 73 -30 7 0 36 -13
65 -30 30 -16 60 -30 69 -30 8 0 35 -11 60 -24 24 -13 55 -27 69 -31 13 -4 51
-20 84 -35 33 -15 89 -39 125 -55 131 -55 196 -84 266 -114 39 -17 77 -31 84
-31 7 0 32 -11 54 -24 23 -13 59 -29 81 -36 22 -7 60 -24 84 -37 24 -12 53
-23 65 -23 12 0 39 -12 61 -25 22 -14 47 -25 56 -25 9 0 40 -13 70 -29 30 -15
68 -32 86 -35 18 -4 42 -15 55 -25 13 -10 34 -22 48 -26 35 -10 156 -62 213
-91 26 -13 53 -24 60 -24 7 0 44 -16 83 -35 38 -19 76 -35 84 -35 8 0 33 -11
55 -25 22 -13 47 -25 56 -25 9 0 41 -14 72 -30 31 -17 63 -30 71 -30 8 0 40
-14 71 -30 31 -17 63 -30 70 -30 7 0 37 -13 68 -30 31 -16 63 -30 70 -30 8 0
39 -13 70 -30 31 -16 62 -30 69 -30 7 0 40 -14 73 -30 33 -16 67 -30 75 -30 8
0 35 -11 60 -24 25 -13 63 -29 84 -36 22 -7 53 -21 70 -30 17 -10 49 -23 71
-30 22 -7 53 -21 70 -31 16 -11 37 -19 46 -19 9 0 40 -13 70 -29 30 -15 67
-31 83 -35 17 -4 41 -16 55 -26 15 -10 46 -23 71 -30 25 -7 56 -20 70 -30 14
-10 43 -23 65 -29 22 -6 62 -22 89 -36 27 -14 56 -25 64 -25 8 0 35 -11 61
-24 55 -28 139 -63 201 -83 25 -8 66 -25 91 -39 26 -13 53 -24 60 -24 11 0 43
-14 214 -96 28 -13 56 -24 63 -24 7 0 38 -13 69 -30 31 -16 63 -30 72 -30 9 0
30 -9 48 -19 17 -11 51 -25 75 -32 24 -7 54 -20 68 -30 14 -9 49 -24 78 -32
28 -9 62 -23 75 -32 12 -8 40 -20 62 -26 39 -10 62 -20 206 -88 36 -17 72 -31
80 -31 8 0 41 -13 74 -30 33 -16 67 -30 75 -30 8 0 36 -11 62 -25 26 -14 53
-25 61 -25 7 0 44 -16 83 -35 38 -19 76 -35 84 -35 9 0 26 -7 38 -16 12 -8 46
-23 74 -33 29 -10 71 -28 93 -40 22 -11 47 -21 55 -21 8 -1 40 -14 70 -30 30
-17 61 -30 68 -30 7 0 38 -13 70 -29 31 -15 70 -31 86 -35 17 -4 42 -16 56
-26 14 -10 39 -22 56 -26 16 -4 53 -20 83 -35 30 -16 61 -29 70 -29 9 0 34
-12 56 -25 22 -14 47 -25 55 -25 8 0 40 -13 70 -30 30 -16 62 -29 71 -30 9 0
41 -13 72 -30 31 -16 63 -30 70 -30 8 0 39 -13 70 -30 31 -16 62 -30 69 -30 7
0 40 -14 73 -30 33 -16 67 -30 75 -30 8 0 31 -10 50 -21 19 -12 57 -28 85 -36
27 -9 61 -23 75 -33 14 -10 41 -21 60 -25 19 -4 53 -18 75 -30 22 -13 56 -26
75 -30 19 -4 53 -18 76 -31 22 -13 49 -24 60 -24 10 0 35 -10 54 -21 19 -12
58 -30 85 -39 28 -9 66 -27 85 -39 19 -11 41 -21 48 -21 13 0 84 -31 197 -85
28 -13 68 -29 90 -36 22 -7 53 -20 70 -30 16 -11 37 -19 46 -19 9 0 40 -13 70
-29 30 -15 70 -32 89 -36 19 -4 51 -18 70 -31 19 -13 41 -24 50 -24 8 0 42
-14 75 -30 33 -17 66 -30 75 -30 8 0 30 -9 48 -20 18 -11 56 -28 85 -39 64
-23 145 -56 212 -86 61 -28 143 -61 210 -85 28 -10 68 -28 90 -39 21 -12 45
-21 51 -21 7 0 38 -13 69 -30 31 -16 63 -30 71 -30 8 0 40 -13 71 -30 31 -16
62 -30 70 -30 7 0 40 -13 73 -30 33 -16 65 -30 72 -30 7 0 40 -14 73 -30 33
-16 66 -30 74 -30 8 0 33 -11 55 -24 23 -13 57 -27 76 -31 19 -4 46 -15 60
-25 14 -9 45 -24 70 -32 64 -22 166 -65 225 -94 28 -13 56 -24 63 -24 7 0 38
-13 69 -30 31 -16 63 -30 72 -30 9 0 34 -11 56 -25 22 -13 47 -25 56 -25 9 0
41 -13 72 -30 31 -16 63 -30 70 -30 8 0 39 -14 70 -30 31 -16 63 -30 70 -30 8
0 34 -11 58 -23 24 -13 62 -30 84 -37 22 -7 60 -24 84 -37 24 -12 51 -23 60
-23 9 0 32 -10 51 -21 19 -12 57 -28 85 -36 27 -8 57 -21 65 -28 8 -7 33 -18
55 -25 22 -7 61 -23 87 -36 26 -13 53 -24 61 -24 7 0 36 -11 63 -25 27 -14 69
-31 94 -39 25 -7 61 -23 80 -35 19 -11 42 -21 51 -21 9 0 40 -13 70 -28 30
-16 69 -32 87 -35 19 -4 46 -15 60 -26 15 -10 46 -24 70 -30 23 -7 57 -20 75
-30 17 -10 50 -24 72 -31 22 -7 47 -18 55 -25 8 -7 38 -20 65 -29 28 -9 72
-27 99 -41 27 -14 55 -25 62 -25 7 0 28 -9 47 -20 18 -11 55 -26 81 -34 26 -8
55 -21 64 -29 10 -8 35 -20 57 -27 22 -7 60 -24 84 -37 24 -12 51 -23 60 -23
9 0 34 -11 56 -25 22 -13 47 -25 56 -25 10 0 42 -13 72 -29 30 -16 70 -32 89
-36 18 -4 49 -18 68 -31 19 -13 42 -24 50 -24 9 0 42 -13 75 -30 33 -16 67
-30 76 -30 9 0 36 -11 60 -23 24 -13 62 -30 84 -37 22 -7 60 -24 84 -37 24
-12 51 -23 60 -23 9 0 35 -11 59 -25 24 -13 62 -30 85 -36 23 -6 52 -19 64
-29 13 -10 39 -21 60 -25 20 -3 52 -17 72 -31 20 -13 43 -24 52 -24 9 0 41
-14 72 -30 31 -17 63 -30 70 -30 8 0 39 -13 70 -30 31 -16 63 -30 70 -30 8 0
36 -11 63 -25 27 -14 67 -30 89 -36 22 -6 51 -19 65 -29 14 -10 43 -23 65 -29
22 -6 62 -22 89 -36 27 -14 55 -25 63 -25 7 0 34 -11 60 -25 68 -34 152 -72
199 -88 21 -8 57 -24 79 -36 22 -11 47 -21 56 -21 9 0 37 -11 63 -25 26 -14
68 -30 94 -37 26 -6 62 -20 80 -31 27 -16 61 -21 175 -27 175 -9 334 3 385 29
20 10 61 24 91 30 29 6 65 20 80 30 15 11 40 23 57 27 16 3 45 15 64 25 42 22
145 64 219 90 30 11 62 26 70 34 9 7 38 19 65 25 27 6 61 19 75 29 14 11 46
24 71 31 25 7 56 20 70 30 14 9 36 20 50 24 28 8 133 53 225 97 33 16 67 29
75 29 8 0 42 14 75 30 33 16 65 30 71 30 7 0 38 14 69 30 31 17 64 30 72 30 8
0 31 11 51 25 20 14 44 25 52 25 9 0 42 13 75 30 33 16 67 30 76 30 9 0 41 13
72 30 31 16 62 30 69 30 7 0 40 14 73 30 33 17 65 30 71 30 7 0 38 14 69 30
31 17 64 30 74 30 9 0 34 12 56 25 22 14 47 25 56 25 9 0 37 11 62 25 25 13
65 29 89 36 24 6 55 19 69 30 14 10 44 22 65 27 21 5 61 21 89 35 27 15 54 27
60 27 6 0 30 11 55 24 25 13 63 29 85 36 22 7 50 21 63 31 13 10 37 21 55 24
18 4 51 18 74 31 23 13 48 24 55 24 7 0 40 13 73 30 33 16 67 30 76 30 9 0 41
14 72 30 31 17 63 30 70 30 8 0 34 11 58 23 24 13 62 30 84 37 22 7 60 24 84
37 24 12 51 23 60 23 9 0 36 11 61 24 25 13 61 28 80 35 19 6 57 22 84 36 27
14 57 25 66 25 10 0 28 9 41 19 14 10 47 26 75 34 27 8 65 24 84 36 19 11 42
21 50 21 9 0 42 13 75 30 33 16 67 30 75 30 8 0 42 14 75 30 33 17 65 30 72
30 8 0 39 14 70 30 31 17 62 30 70 30 7 0 39 14 70 30 31 17 64 30 73 30 10 0
29 10 44 21 15 12 45 25 68 30 22 5 56 21 76 34 20 14 44 25 53 25 8 0 38 11
65 25 27 14 71 32 98 40 27 8 54 19 61 25 7 5 36 19 66 29 73 25 154 58 214
87 28 13 68 30 90 38 22 7 78 30 125 51 47 20 108 45 135 54 28 10 66 28 85
40 19 11 42 21 50 21 8 0 35 11 60 24 25 13 63 29 85 36 22 7 60 24 84 37 24
12 51 23 59 23 8 0 34 11 56 24 23 13 54 26 71 30 27 7 82 30 210 91 28 13 64
27 80 31 17 4 48 17 71 30 22 13 48 24 56 24 8 0 35 11 59 23 24 13 62 30 84
37 22 7 60 23 85 36 25 13 52 24 60 24 8 0 33 11 55 25 22 13 47 25 56 25 8 0
46 16 85 35 38 19 76 35 84 35 8 0 33 12 55 25 22 14 47 25 55 25 8 0 46 16
84 35 39 19 77 35 87 35 9 0 27 9 41 19 13 11 44 24 68 31 25 6 59 20 75 30
17 10 46 23 65 29 19 6 57 22 84 36 27 14 55 25 62 25 6 0 38 14 69 30 31 17
64 30 74 30 9 0 34 11 56 25 22 13 47 25 56 25 8 0 38 11 65 25 27 14 65 30
84 36 19 7 55 22 80 35 25 13 51 24 59 24 8 0 43 14 77 30 35 17 93 44 128 60
34 17 69 30 77 30 8 0 41 14 74 30 33 17 66 30 75 30 8 0 42 14 75 30 33 16
65 30 71 30 7 0 38 13 69 30 31 16 64 30 74 30 9 0 34 12 56 25 22 14 47 25
56 25 9 0 36 11 60 23 24 13 62 30 84 37 22 7 60 24 84 37 24 12 50 23 58 23
7 0 39 13 70 30 31 16 63 30 71 30 8 0 34 11 56 24 23 13 56 27 74 31 19 4 59
20 89 36 30 16 61 29 68 29 7 0 39 14 70 30 31 17 64 30 74 30 9 0 34 12 56
25 22 14 47 25 55 25 8 0 40 13 70 30 30 16 62 29 71 30 9 0 36 11 60 23 24
13 62 30 84 37 22 7 54 20 70 30 17 10 49 23 73 30 24 6 58 20 75 31 18 10 39
19 48 19 9 0 41 13 72 30 31 16 63 30 70 30 8 0 39 14 70 30 31 17 65 30 74
30 10 1 43 14 73 30 30 17 61 30 69 30 8 0 33 11 55 24 23 13 57 28 76 35 19
6 57 22 84 36 27 14 57 25 65 25 9 0 32 10 51 21 19 12 55 28 80 35 25 8 67
25 94 39 27 14 57 25 65 25 9 0 34 12 56 25 22 14 47 25 56 25 9 0 41 14 72
30 31 17 62 30 69 30 7 0 40 14 73 30 33 16 66 30 73 30 7 0 38 14 69 30 31
17 62 30 70 30 7 0 39 14 70 30 31 17 61 30 68 30 7 0 39 14 70 30 31 17 64
30 74 30 9 0 34 12 56 25 22 14 47 25 56 25 8 0 37 11 65 24 60 30 164 73 224
94 25 8 56 23 70 33 14 9 44 22 68 28 24 7 64 23 89 36 25 14 52 25 58 25 7 0
39 14 70 30 31 17 65 30 75 30 9 0 33 11 53 24 19 13 50 27 68 31 19 4 52 18
74 30 22 13 54 26 72 30 18 3 42 14 55 24 13 10 41 24 63 31 22 7 60 23 85 36
25 13 52 24 60 24 8 0 29 8 45 19 17 10 48 24 70 31 22 7 59 23 82 36 23 13
48 24 56 24 8 0 40 13 70 29 30 16 70 32 89 36 18 4 51 18 74 31 22 13 48 24
58 24 9 0 43 14 76 30 33 17 66 30 73 30 8 0 39 13 70 30 31 16 63 30 70 30 8
0 34 11 58 23 24 13 62 30 84 37 22 7 60 24 84 37 24 12 51 23 60 23 9 0 34
11 56 25 22 13 47 25 56 25 10 0 43 14 74 30 31 17 65 30 75 30 9 0 37 11 61
23 24 13 62 30 84 37 22 7 60 24 84 37 24 12 50 23 58 23 8 0 33 11 56 24 23
13 60 29 82 36 22 7 51 21 65 30 14 10 43 23 65 29 22 6 49 17 60 24 11 8 38
20 60 27 22 7 58 22 80 35 22 12 56 26 75 30 19 4 53 18 76 31 22 13 48 24 56
24 8 0 40 13 71 30 31 16 62 30 69 30 7 0 40 14 73 30 33 16 66 30 73 30 7 0
38 13 69 30 31 16 61 30 68 30 7 0 39 14 70 30 31 17 64 30 73 30 8 0 34 11
56 24 23 13 54 26 71 30 27 7 66 24 210 91 28 13 66 30 85 39 19 9 42 20 50
25 8 5 56 29 105 54 50 24 106 55 126 68 20 13 55 35 78 49 23 14 60 39 81 55
22 17 58 44 81 60 56 41 185 160 233 215 21 25 48 54 60 66 12 11 37 42 56 68
19 26 49 64 65 86 33 42 61 83 102 145 46 71 151 280 163 326 6 24 18 54 25
65 8 12 21 50 30 85 9 35 23 75 30 90 8 14 21 70 30 124 8 53 20 106 26 116 5
11 14 72 20 137 6 75 9 3732 7 10287 l-3 10170 -22 56 c-11 31 -24 88 -28 125
-4 38 -20 108 -36 157 -16 48 -29 95 -29 105 0 9 -14 44 -30 77 -17 33 -30 66
-30 74 0 8 -11 33 -24 55 -13 23 -27 52 -31 66 -4 14 -17 39 -30 55 -12 17
-25 40 -29 52 -9 27 -62 118 -96 162 -129 167 -356 404 -460 480 -30 21 -68
50 -84 63 -35 28 -106 70 -161 96 -22 11 -46 26 -53 35 -8 9 -26 18 -41 22
-16 3 -43 17 -61 30 -18 13 -47 27 -64 31 -17 4 -42 15 -55 25 -13 11 -42 24
-64 30 -23 6 -52 19 -65 30 -14 10 -30 19 -36 19 -11 0 -102 42 -216 100 -30
15 -69 31 -86 34 -18 4 -40 16 -50 27 -9 10 -24 19 -33 19 -16 0 -68 24 -276
126 -60 30 -117 54 -126 54 -8 0 -30 11 -49 25 -19 14 -38 25 -44 25 -9 0
-186 86 -226 109 -32 19 -167 81 -176 81 -6 0 -25 11 -44 25 -19 14 -41 25
-51 25 -9 0 -34 12 -55 26 -21 15 -54 31 -72 36 -18 5 -49 20 -69 34 -20 13
-43 24 -52 24 -10 0 -32 11 -50 24 -17 13 -53 29 -78 35 -25 7 -57 21 -71 32
-14 10 -30 19 -36 19 -6 0 -38 13 -71 30 -33 16 -76 36 -95 44 -19 8 -46 22
-60 30 -14 8 -61 31 -105 51 -44 20 -89 42 -100 48 -11 6 -31 16 -45 22 -14 7
-53 26 -87 43 -34 18 -68 32 -75 32 -7 0 -29 11 -48 24 -19 12 -53 29 -75 36
-22 7 -47 19 -56 26 -8 8 -36 20 -62 28 -25 7 -58 23 -73 35 -15 11 -31 21
-37 21 -14 0 -178 80 -197 95 -8 7 -34 18 -56 24 -23 6 -52 20 -66 30 -14 11
-38 23 -54 27 -16 3 -50 19 -75 35 -25 16 -52 29 -60 29 -8 0 -30 11 -50 24
-19 13 -51 28 -72 34 -20 6 -50 20 -66 31 -16 12 -35 21 -41 21 -7 0 -38 13
-69 29 -113 58 -206 101 -217 101 -6 0 -22 8 -35 18 -13 11 -45 26 -72 35 -26
9 -59 25 -74 36 -14 12 -33 21 -42 21 -9 0 -38 14 -66 30 -27 16 -57 30 -66
30 -9 0 -28 9 -42 20 -14 11 -44 27 -67 35 -23 8 -54 23 -69 34 -15 11 -40 23
-57 27 -16 4 -47 17 -69 29 -22 13 -51 26 -65 30 -14 4 -37 16 -52 27 -15 10
-47 25 -72 32 -25 8 -57 23 -72 35 -15 11 -34 21 -44 21 -9 0 -37 13 -61 30
-24 16 -53 30 -65 30 -11 0 -35 11 -54 25 -19 14 -39 25 -45 25 -6 0 -42 16
-81 35 -38 19 -73 35 -77 35 -5 0 -22 9 -38 21 -16 11 -46 25 -67 31 -20 6
-47 18 -60 29 -13 10 -40 23 -60 30 -20 6 -48 20 -61 30 -13 11 -29 19 -36 19
-7 0 -39 13 -71 29 -32 16 -95 46 -139 66 -44 20 -107 50 -139 66 -32 16 -64
29 -70 29 -7 0 -27 11 -46 25 -19 14 -41 25 -51 25 -9 0 -32 11 -51 24 -20 13
-53 29 -74 36 -22 7 -50 21 -64 30 -14 10 -36 21 -50 25 -14 4 -43 17 -65 30
-22 12 -58 28 -80 35 -22 7 -47 18 -55 26 -8 7 -41 22 -72 34 -32 12 -60 25
-63 30 -3 5 -25 14 -48 21 -23 6 -56 21 -73 34 -17 13 -44 27 -60 31 -16 4
-41 15 -56 26 -15 10 -45 25 -68 33 -23 8 -53 24 -67 35 -14 11 -33 20 -42 20
-9 0 -36 14 -61 30 -25 16 -52 30 -60 30 -8 0 -37 14 -65 30 -27 16 -57 30
-65 30 -9 0 -31 11 -50 24 -19 13 -49 26 -67 30 -18 4 -44 17 -58 28 -14 11
-47 27 -72 34 -26 8 -54 20 -62 28 -9 7 -37 20 -64 29 -26 9 -59 25 -74 36
-14 12 -31 21 -37 21 -6 0 -40 14 -76 31 -36 18 -76 37 -90 44 -14 6 -34 16
-45 22 -11 6 -51 25 -90 43 -38 17 -97 44 -130 60 -33 16 -94 45 -135 64 -41
20 -80 36 -86 36 -5 0 -25 11 -43 24 -19 14 -48 28 -65 32 -17 3 -44 15 -59
26 -15 11 -43 24 -63 29 -19 6 -51 21 -71 35 -20 13 -41 24 -48 24 -7 0 -28
11 -48 25 -20 13 -54 29 -76 35 -22 6 -43 15 -46 19 -7 13 -189 101 -207 101
-9 0 -27 9 -41 20 -14 11 -45 27 -68 35 -24 9 -50 22 -59 30 -9 8 -37 21 -63
29 -25 7 -58 23 -73 35 -15 11 -34 21 -43 21 -9 0 -38 14 -66 30 -27 16 -57
30 -66 30 -9 0 -32 11 -52 25 -20 13 -54 29 -76 35 -21 5 -44 17 -51 25 -6 7
-33 21 -60 30 -27 9 -54 22 -60 30 -6 8 -35 21 -65 29 -29 9 -58 22 -64 30 -7
8 -24 17 -39 20 -15 4 -56 21 -92 38 -36 16 -94 44 -130 60 -94 44 -113 53
-135 65 -11 6 -110 55 -220 108 -195 94 -216 105 -252 125 -35 18 -169 78
-192 85 -12 4 -39 18 -58 31 -20 13 -44 24 -53 24 -10 0 -29 10 -44 21 -15 12
-47 27 -72 35 -25 7 -57 22 -71 34 -14 11 -31 20 -38 20 -12 0 -31 9 -205 94
-41 20 -80 36 -86 36 -6 0 -22 8 -35 19 -13 10 -35 22 -49 26 -23 6 -93 38
-225 101 -28 13 -57 24 -64 24 -8 0 -29 11 -46 24 -18 14 -45 28 -61 32 -16 4
-45 18 -64 31 -19 12 -39 23 -45 23 -9 0 -53 20 -165 74 -14 7 -34 18 -45 24
-11 6 -40 20 -65 31 -25 11 -52 25 -60 30 -17 10 -128 63 -180 85 -19 8 -46
22 -60 30 -42 24 -176 86 -187 86 -6 0 -22 9 -37 21 -14 11 -43 25 -63 31 -21
5 -53 21 -72 34 -20 13 -40 24 -45 24 -10 0 -149 64 -176 81 -8 5 -31 16 -50
24 -19 8 -57 26 -85 39 -137 66 -202 96 -211 96 -5 0 -26 11 -46 25 -20 14
-43 25 -51 25 -8 0 -38 13 -68 29 -30 15 -67 31 -83 35 -17 4 -41 15 -55 25
-14 10 -37 22 -51 26 -14 4 -48 20 -76 36 -28 16 -58 29 -66 29 -9 0 -27 10
-42 21 -15 12 -48 28 -73 35 -26 8 -54 21 -63 29 -9 8 -35 21 -59 30 -23 8
-54 24 -68 35 -14 11 -31 20 -37 20 -10 0 -128 58 -211 103 -16 9 -35 17 -40
17 -6 0 -26 11 -46 24 -19 13 -54 29 -76 35 -22 6 -46 18 -53 26 -6 7 -28 19
-48 26 -20 6 -53 21 -72 33 -19 13 -48 26 -64 30 -16 4 -45 18 -65 32 -19 13
-41 24 -47 24 -6 0 -35 13 -65 29 -30 15 -68 32 -86 35 -17 4 -37 14 -43 21
-6 8 -33 22 -58 31 -26 10 -63 28 -82 41 -19 13 -44 23 -56 23 -12 0 -38 11
-58 25 -20 14 -49 28 -64 31 -15 4 -51 20 -81 35 -30 16 -59 29 -66 29 -7 0
-28 11 -48 25 -20 13 -54 29 -76 35 -21 5 -44 17 -50 24 -7 8 -33 22 -58 30
-26 9 -53 22 -62 30 -9 7 -34 19 -56 26 -22 7 -50 21 -63 31 -13 10 -39 23
-59 30 -20 6 -51 22 -71 35 -19 13 -42 24 -51 24 -9 0 -32 11 -51 24 -19 12
-52 28 -72 35 -20 7 -42 19 -48 26 -7 8 -31 20 -54 27 -22 6 -57 22 -76 35
-19 13 -42 23 -51 23 -9 0 -43 14 -74 30 -31 17 -63 30 -71 30 -8 0 -41 11
-74 25 -88 37 -338 85 -435 84 -44 -1 -91 -4 -105 -6z m-486 -1472 c5 -8 6
-2611 6 -13507 0 -24 -34 -24 -74 0 -22 13 -61 29 -85 36 -24 6 -56 20 -70 30
-14 11 -47 24 -73 30 -25 5 -68 21 -94 35 -26 14 -54 25 -63 25 -9 0 -36 11
-61 24 -25 13 -61 27 -80 31 -19 4 -53 17 -75 30 -22 12 -58 26 -80 30 -22 3
-58 18 -81 31 -22 13 -50 24 -61 24 -11 0 -40 11 -64 23 -24 13 -62 30 -84 37
-22 7 -61 23 -87 36 -26 13 -56 24 -66 24 -11 0 -39 10 -63 23 -24 13 -65 29
-91 35 -26 7 -62 21 -80 31 -18 10 -49 22 -68 26 -19 4 -59 21 -89 36 -30 16
-61 29 -70 29 -9 0 -37 11 -63 25 -26 14 -53 25 -60 25 -8 0 -40 13 -73 30
-33 16 -67 30 -75 30 -8 0 -42 13 -75 29 -33 16 -75 32 -94 36 -19 4 -54 18
-79 31 -25 13 -51 24 -59 24 -7 0 -35 11 -61 24 -26 13 -73 31 -104 40 -31 9
-60 20 -63 25 -3 6 -30 17 -60 26 -30 8 -69 24 -87 34 -18 10 -50 22 -71 25
-21 4 -54 18 -74 32 -20 13 -45 24 -57 24 -12 0 -48 14 -81 30 -33 16 -69 30
-80 30 -11 0 -45 13 -75 30 -30 16 -64 29 -75 30 -11 0 -47 14 -80 30 -33 16
-69 30 -80 30 -11 0 -39 11 -62 24 -23 13 -57 27 -75 31 -18 4 -53 18 -78 31
-25 13 -52 24 -60 24 -8 0 -42 13 -75 29 -33 16 -76 32 -95 36 -19 4 -46 15
-60 25 -14 10 -45 23 -70 30 -25 6 -63 22 -85 35 -22 12 -56 26 -75 30 -19 4
-48 15 -65 25 -16 10 -46 21 -65 25 -19 4 -53 17 -75 30 -22 12 -53 25 -70 29
-16 4 -57 21 -90 37 -33 16 -70 29 -83 29 -13 0 -42 11 -65 24 -23 13 -58 27
-77 31 -19 4 -53 18 -75 30 -22 13 -55 26 -74 30 -19 4 -54 18 -79 31 -25 13
-53 24 -64 24 -10 0 -40 11 -66 24 -26 13 -62 27 -81 31 -19 4 -61 20 -95 36
-34 16 -70 29 -80 29 -11 0 -38 11 -60 24 -23 12 -63 28 -89 35 -27 6 -59 18
-71 26 -13 8 -47 22 -77 31 -30 9 -61 22 -69 29 -8 8 -37 19 -64 26 -28 7 -68
23 -90 36 -23 12 -50 23 -61 23 -11 1 -45 14 -75 30 -30 17 -66 30 -79 30 -13
0 -43 11 -65 24 -23 12 -62 28 -88 35 -27 6 -63 20 -80 31 -18 11 -40 20 -49
20 -8 0 -38 11 -65 25 -27 14 -71 32 -99 42 -27 9 -59 22 -70 29 -11 7 -40 18
-65 24 -25 6 -64 23 -87 36 -23 13 -50 24 -60 24 -10 0 -45 13 -78 30 -33 16
-69 30 -80 30 -11 0 -36 10 -55 21 -19 12 -55 28 -80 35 -25 8 -67 25 -94 39
-27 14 -59 25 -70 25 -12 0 -40 11 -64 25 -23 13 -59 27 -80 31 -20 4 -49 15
-63 25 -14 10 -48 23 -75 30 -27 6 -67 22 -89 34 -22 12 -56 26 -75 30 -19 4
-49 15 -65 26 -17 10 -53 23 -80 29 -28 6 -61 19 -75 29 -14 10 -41 22 -60 26
-19 4 -62 20 -95 36 -33 16 -67 29 -75 29 -8 0 -42 14 -75 30 -33 17 -65 30
-73 30 -7 0 -35 11 -62 25 -27 14 -55 25 -62 25 -7 0 -40 13 -73 29 -33 16
-73 33 -90 37 -16 4 -48 16 -69 26 -22 11 -61 27 -88 35 -27 8 -64 23 -81 34
-18 10 -41 19 -53 19 -11 0 -43 11 -69 25 -27 13 -63 27 -79 31 -17 3 -49 16
-71 29 -22 12 -56 26 -75 30 -19 4 -48 15 -65 25 -16 10 -52 24 -80 31 -27 6
-65 21 -83 31 -18 11 -55 26 -83 33 -28 8 -59 21 -68 29 -9 8 -37 20 -63 25
-25 6 -68 22 -94 36 -26 14 -54 25 -63 25 -9 0 -43 14 -76 30 -33 16 -69 30
-80 30 -11 0 -47 14 -80 30 -33 16 -67 30 -76 30 -9 0 -36 11 -61 24 -25 13
-60 27 -79 31 -19 4 -53 18 -76 31 -23 13 -50 24 -61 24 -10 0 -43 13 -73 29
-30 15 -70 32 -89 36 -19 4 -53 18 -75 30 -22 13 -56 26 -75 30 -19 4 -48 15
-65 24 -16 10 -51 23 -77 29 -26 7 -68 23 -94 37 -26 14 -55 25 -64 25 -9 0
-37 11 -62 24 -25 13 -60 27 -79 31 -19 4 -52 17 -74 30 -22 12 -56 26 -75 30
-19 4 -50 16 -68 26 -18 10 -54 24 -80 30 -26 7 -60 20 -77 29 -16 10 -50 24
-75 30 -25 7 -65 23 -90 36 -25 13 -52 24 -60 24 -8 0 -42 14 -75 30 -33 17
-66 30 -75 30 -8 0 -42 14 -75 30 -33 16 -67 30 -75 30 -8 0 -42 14 -75 30
-33 16 -69 30 -80 30 -11 0 -38 12 -60 25 -22 14 -49 25 -61 25 -12 0 -45 13
-75 29 -30 15 -70 32 -89 36 -19 4 -55 18 -80 31 -25 13 -54 24 -65 24 -11 0
-47 13 -80 30 -33 16 -67 30 -76 30 -9 0 -36 11 -61 24 -25 13 -60 27 -79 31
-19 4 -54 18 -79 31 -25 13 -52 24 -61 24 -10 0 -42 13 -72 29 -30 16 -70 32
-89 36 -18 4 -52 18 -75 31 -23 13 -50 24 -60 24 -10 0 -45 13 -78 30 -33 16
-69 30 -80 30 -11 0 -47 14 -80 30 -33 16 -67 30 -75 30 -8 0 -42 14 -75 30
-33 16 -69 30 -80 30 -11 1 -45 14 -75 30 -30 17 -64 30 -75 30 -11 0 -38 11
-60 25 -22 13 -49 25 -61 25 -12 0 -45 13 -75 29 -30 15 -69 32 -87 36 -18 3
-52 17 -75 30 -23 13 -56 26 -73 29 -16 4 -52 18 -79 31 -26 14 -56 25 -64 25
-9 0 -43 14 -76 30 -33 17 -69 30 -80 30 -11 0 -34 9 -52 20 -29 17 -97 44
-223 87 -25 8 -67 25 -95 38 -27 13 -65 26 -83 30 -18 4 -52 18 -75 31 -23 13
-51 24 -62 24 -11 0 -44 12 -74 25 -30 14 -75 30 -99 36 -25 5 -68 20 -96 33
-28 13 -67 27 -86 31 -54 11 -72 24 -68 48 2 17 14 25 50 34 26 6 60 20 75 31
16 11 47 25 69 31 23 6 52 19 65 30 13 10 35 22 49 26 14 4 49 21 79 36 30 16
59 29 66 29 7 0 24 9 38 20 14 11 44 27 67 35 23 8 52 23 66 34 14 11 39 23
56 26 16 4 46 18 65 31 20 13 44 24 53 24 9 0 33 11 52 24 20 13 53 29 74 36
22 7 46 19 55 27 9 8 34 19 54 24 21 6 54 21 74 34 20 13 53 28 73 34 20 7 42
19 48 26 7 8 31 20 54 26 22 6 53 20 68 30 15 11 48 26 73 34 26 7 54 20 63
28 10 8 35 20 57 27 22 7 51 21 65 30 14 9 43 23 65 30 22 7 51 21 64 31 13
11 29 19 35 19 7 0 43 16 82 35 38 19 75 35 82 35 8 0 27 9 42 20 16 11 48 27
71 35 24 9 50 22 59 29 8 7 33 19 55 26 22 7 50 21 63 31 13 10 40 23 60 30
20 6 49 20 64 30 14 11 30 19 35 19 8 0 133 58 183 86 14 7 41 21 60 29 19 9
62 29 95 45 33 17 65 30 71 30 6 0 23 9 38 21 14 11 43 25 63 31 21 5 53 21
72 34 20 13 43 24 52 24 9 0 32 11 51 24 20 13 53 29 74 36 22 7 46 19 55 26
9 8 38 22 65 31 27 9 60 24 73 35 13 10 29 18 36 18 7 0 36 13 66 29 30 15 71
34 91 40 20 7 42 19 48 26 7 8 31 20 54 26 22 6 53 20 69 31 15 11 43 24 63
29 19 6 51 21 71 35 20 13 44 24 53 24 9 0 33 11 53 24 19 13 49 27 65 31 17
3 41 14 54 24 13 9 46 25 73 35 28 11 57 24 65 31 8 7 56 31 105 54 50 23 101
49 115 57 14 8 41 22 60 30 57 25 163 75 185 87 22 12 42 21 135 65 36 16 94
44 130 61 36 17 70 31 75 31 6 0 26 11 45 23 19 13 48 27 64 31 17 4 42 16 57
27 15 11 46 26 69 34 23 8 53 24 67 35 14 11 33 20 42 20 9 0 39 14 66 30 28
16 57 30 66 30 9 0 32 11 51 24 20 13 53 29 74 36 22 7 50 21 63 31 13 11 29
19 35 19 7 0 43 16 82 35 38 19 75 35 82 35 8 0 27 9 43 21 16 11 46 25 67 31
20 6 49 19 64 29 15 11 45 26 68 34 23 8 53 24 67 35 14 11 33 20 43 20 9 0
34 11 54 25 20 14 40 25 44 25 8 0 167 76 192 91 8 5 31 16 50 24 19 9 62 29
95 45 33 17 65 30 71 30 5 0 25 11 44 25 19 14 41 25 49 25 13 0 145 59 181
81 8 5 31 16 50 25 37 17 71 33 285 134 72 34 159 76 195 92 36 17 92 43 124
59 32 16 64 29 71 29 7 0 23 8 36 19 14 10 41 23 61 29 21 6 50 19 65 30 15
10 45 25 67 32 21 7 54 23 74 36 19 13 42 24 51 24 9 0 32 11 51 23 19 13 50
29 68 35 18 6 45 20 59 32 14 11 31 20 37 20 6 0 67 27 136 61 184 90 337 162
390 183 19 8 46 21 60 30 27 15 133 66 190 91 19 8 42 19 50 24 14 9 115 56
260 123 36 17 72 34 80 39 8 5 31 16 50 24 19 9 60 29 91 45 31 17 63 30 70
30 8 0 30 11 50 24 19 13 51 29 72 34 20 6 49 20 63 31 15 12 33 21 40 21 8 0
43 16 80 35 36 19 72 35 79 35 7 0 26 11 42 23 15 13 41 27 57 31 17 4 41 15
55 25 14 10 37 22 51 26 14 4 45 18 70 31 25 12 81 39 125 59 44 20 91 43 105
51 14 7 41 21 60 29 60 27 151 70 270 129 63 31 120 56 125 56 6 0 26 11 45
23 19 13 49 27 65 31 17 4 46 17 65 30 19 13 53 29 75 36 22 7 47 19 56 27 9
8 34 19 55 25 22 5 51 19 66 29 15 11 45 26 68 34 22 8 53 21 68 29 15 7 63
30 107 51 180 83 211 98 240 113 17 8 41 20 54 26 13 6 80 39 150 74 69 34
129 62 134 62 5 0 22 9 38 21 16 11 45 25 65 30 19 6 51 21 71 35 20 13 40 24
46 24 10 0 35 11 268 124 63 31 120 56 126 56 6 0 22 9 37 21 14 11 43 25 63
31 21 5 53 21 72 34 20 13 40 24 46 24 5 0 37 13 70 30 33 16 76 36 95 45 19
8 42 19 50 24 8 5 44 22 80 39 36 16 99 46 141 66 41 20 80 36 85 36 5 0 25
11 44 24 19 13 46 27 60 31 24 7 259 117 290 135 45 27 195 100 204 100 6 0
27 11 47 24 19 13 54 29 76 35 22 6 46 18 53 26 6 7 28 19 48 26 20 6 61 25
91 40 30 16 59 29 66 29 7 0 23 8 36 19 13 10 42 24 64 31 22 7 52 21 67 32
15 10 42 24 60 30 18 6 44 19 58 28 14 10 36 21 50 25 14 4 53 23 88 41 35 19
69 34 77 34 7 0 18 7 25 15 7 8 31 20 54 27 22 7 57 22 76 34 19 12 49 25 67
29 17 3 37 13 43 20 7 8 37 24 68 35 32 12 66 30 77 39 30 28 60 37 69 22z
m1302 -26 c36 -19 71 -35 78 -35 8 0 25 -9 39 -20 14 -11 45 -27 68 -35 24 -9
50 -22 59 -29 8 -7 33 -19 55 -26 22 -7 52 -21 67 -31 14 -11 30 -19 35 -19 8
0 133 -58 183 -86 14 -7 41 -21 60 -29 19 -9 62 -29 95 -45 33 -17 65 -30 70
-30 6 0 26 -11 45 -24 19 -13 49 -26 66 -30 17 -4 46 -18 65 -32 18 -13 38
-24 45 -24 14 0 152 -62 219 -98 11 -6 63 -31 115 -56 52 -25 106 -52 120 -60
14 -8 57 -28 95 -46 39 -17 97 -44 130 -60 33 -16 71 -32 85 -36 14 -3 37 -15
52 -26 15 -10 45 -25 68 -33 23 -8 53 -24 67 -35 14 -11 33 -20 42 -20 9 0 32
-9 51 -20 19 -10 69 -36 110 -55 41 -20 111 -54 155 -76 44 -21 85 -39 91 -39
6 0 17 -7 24 -15 7 -8 35 -22 62 -30 27 -8 60 -23 75 -35 14 -11 30 -20 36
-20 11 0 123 -51 207 -95 25 -12 56 -26 70 -30 14 -4 36 -16 50 -25 14 -10 42
-22 62 -28 21 -6 50 -19 65 -30 15 -10 46 -25 68 -32 22 -7 47 -19 55 -26 9
-7 35 -20 59 -29 23 -8 55 -24 71 -35 15 -11 31 -20 34 -20 4 0 39 -16 79 -35
39 -19 77 -35 83 -35 6 0 22 -8 35 -19 13 -10 42 -24 64 -31 22 -7 47 -18 55
-25 8 -8 39 -22 69 -34 29 -11 61 -26 70 -34 9 -8 34 -20 56 -27 22 -7 51 -21
64 -31 13 -11 28 -19 34 -19 10 0 122 -51 207 -94 25 -13 62 -29 82 -35 20 -7
42 -19 48 -26 7 -8 31 -20 53 -26 22 -6 57 -22 76 -35 20 -13 42 -24 49 -24 8
0 35 -11 61 -24 25 -13 82 -41 126 -61 44 -21 103 -48 130 -61 28 -13 66 -31
85 -39 19 -9 46 -22 60 -29 50 -28 175 -86 183 -86 5 0 21 -8 35 -19 15 -10
45 -24 67 -31 22 -7 51 -20 65 -30 14 -9 40 -22 58 -28 18 -6 45 -20 60 -30
15 -11 38 -23 51 -27 13 -4 76 -34 140 -66 64 -33 121 -59 127 -59 6 0 23 -9
37 -20 14 -11 44 -27 67 -35 23 -8 53 -24 67 -35 14 -11 36 -20 48 -20 12 0
38 -11 58 -24 19 -13 46 -27 58 -31 13 -4 44 -18 69 -30 42 -22 99 -48 260
-123 36 -16 115 -54 175 -82 61 -29 128 -59 150 -67 21 -7 46 -20 55 -27 8 -7
32 -19 54 -26 21 -7 54 -23 74 -36 19 -13 43 -24 52 -24 9 0 33 -10 52 -23 18
-13 49 -29 66 -35 18 -6 45 -20 60 -30 15 -11 41 -23 58 -26 17 -4 46 -18 65
-32 18 -13 37 -24 43 -24 6 0 71 -30 146 -66 158 -77 159 -77 185 -92 11 -6
36 -18 55 -26 19 -8 46 -21 60 -29 14 -8 54 -28 90 -45 126 -58 326 -153 375
-179 27 -14 70 -32 96 -39 26 -8 52 -21 58 -28 7 -8 27 -18 44 -21 18 -4 48
-17 67 -29 19 -13 53 -29 75 -36 22 -7 51 -21 65 -30 14 -10 42 -22 62 -28 21
-6 50 -19 65 -30 15 -11 39 -23 53 -27 14 -4 45 -18 70 -30 25 -13 81 -40 125
-60 44 -21 91 -44 105 -52 14 -8 41 -21 60 -29 19 -8 46 -21 60 -30 14 -8 41
-22 60 -30 19 -8 44 -20 55 -26 54 -30 200 -98 212 -98 6 0 22 -9 36 -20 14
-12 46 -27 71 -34 25 -8 57 -23 72 -35 15 -11 32 -21 38 -21 6 0 39 -13 74
-30 34 -16 90 -44 125 -60 34 -17 66 -30 70 -30 5 0 22 -9 37 -20 16 -12 49
-27 74 -34 24 -8 58 -23 74 -35 17 -11 35 -21 42 -21 6 0 67 -26 133 -59 67
-32 133 -62 147 -66 14 -4 38 -16 53 -27 15 -11 44 -24 65 -30 20 -6 47 -18
60 -29 13 -10 39 -23 59 -30 20 -6 51 -22 71 -35 19 -13 40 -24 47 -24 7 0 64
-26 127 -57 63 -32 125 -63 139 -69 13 -6 69 -35 124 -63 55 -28 107 -51 116
-51 9 0 24 -9 34 -20 10 -11 36 -25 59 -31 22 -6 51 -19 64 -29 13 -11 40 -24
60 -31 20 -6 48 -20 62 -29 14 -10 36 -21 50 -25 14 -4 45 -18 70 -31 84 -43
195 -94 206 -94 6 0 22 -8 35 -18 13 -11 46 -26 73 -35 27 -9 56 -23 65 -31 9
-7 34 -19 56 -26 22 -7 51 -21 64 -31 13 -11 29 -19 36 -19 7 0 39 -13 71 -30
32 -16 75 -36 94 -45 19 -8 46 -22 60 -29 25 -14 109 -54 305 -145 61 -29 137
-65 170 -80 33 -16 76 -36 95 -45 19 -9 42 -20 50 -25 8 -5 51 -26 95 -46 44
-20 91 -42 105 -50 14 -8 41 -22 60 -30 19 -9 58 -27 85 -40 28 -14 66 -32 85
-40 19 -9 46 -21 60 -29 54 -28 156 -75 178 -81 12 -4 42 -17 65 -31 23 -13
49 -24 57 -24 9 0 31 -11 51 -24 19 -13 54 -29 76 -35 22 -6 46 -18 53 -26 7
-9 32 -20 56 -26 24 -6 58 -22 75 -35 18 -13 37 -24 43 -24 9 0 135 -57 181
-83 26 -14 62 -31 105 -51 19 -9 42 -20 50 -25 8 -5 49 -25 90 -44 41 -19 134
-63 205 -97 72 -34 164 -79 205 -98 41 -20 82 -41 90 -48 8 -6 38 -19 67 -28
28 -10 57 -23 63 -31 6 -8 26 -17 43 -20 58 -12 67 -16 67 -35 0 -21 -42 -43
-115 -61 -27 -7 -62 -20 -76 -30 -14 -10 -47 -23 -72 -28 -25 -6 -60 -19 -79
-30 -18 -10 -54 -24 -80 -30 -26 -6 -62 -20 -80 -30 -18 -10 -49 -22 -68 -26
-19 -4 -53 -17 -75 -30 -22 -12 -56 -26 -75 -30 -19 -4 -53 -18 -76 -31 -22
-13 -49 -24 -60 -24 -10 0 -46 -13 -79 -29 -33 -15 -82 -36 -110 -46 -27 -9
-75 -26 -105 -36 -30 -11 -71 -28 -90 -38 -19 -10 -51 -22 -70 -26 -19 -4 -53
-17 -75 -30 -22 -12 -61 -27 -87 -34 -27 -6 -63 -20 -80 -31 -18 -11 -40 -20
-49 -20 -10 0 -43 -13 -74 -30 -31 -16 -64 -30 -74 -30 -9 0 -43 -14 -76 -30
-33 -16 -67 -30 -76 -30 -9 0 -36 -11 -61 -24 -25 -13 -60 -27 -79 -31 -19 -4
-59 -19 -89 -34 -30 -16 -70 -31 -88 -34 -19 -4 -46 -15 -60 -26 -15 -10 -42
-22 -61 -26 -19 -4 -61 -20 -95 -36 -34 -16 -67 -29 -75 -29 -8 0 -33 -11 -55
-24 -23 -13 -57 -27 -76 -31 -19 -4 -55 -18 -80 -30 -25 -12 -61 -26 -80 -30
-19 -4 -53 -18 -76 -31 -22 -13 -49 -24 -60 -24 -11 0 -46 -13 -79 -30 -33
-16 -69 -30 -80 -30 -11 0 -47 -14 -80 -30 -33 -17 -66 -30 -75 -30 -8 0 -33
-10 -55 -21 -22 -12 -60 -28 -85 -35 -25 -8 -67 -25 -94 -39 -27 -14 -57 -25
-65 -25 -9 0 -38 -12 -66 -25 -27 -14 -57 -25 -66 -25 -9 0 -41 -13 -72 -30
-31 -16 -65 -30 -74 -30 -10 0 -45 -14 -78 -30 -33 -16 -67 -30 -75 -30 -8 0
-35 -11 -60 -24 -25 -13 -61 -27 -80 -31 -19 -4 -53 -17 -75 -30 -22 -13 -58
-26 -80 -30 -22 -4 -55 -16 -73 -27 -18 -11 -55 -26 -83 -33 -28 -8 -58 -20
-68 -28 -9 -9 -36 -20 -61 -27 -25 -6 -65 -22 -90 -34 -25 -13 -60 -27 -78
-31 -18 -4 -52 -18 -75 -31 -23 -13 -50 -24 -60 -24 -9 0 -43 -13 -74 -30 -31
-16 -67 -30 -80 -30 -13 0 -49 -13 -80 -30 -31 -16 -65 -30 -76 -30 -11 0 -39
-11 -61 -24 -23 -13 -57 -27 -76 -31 -19 -4 -53 -18 -75 -30 -22 -13 -56 -26
-75 -30 -19 -4 -55 -18 -80 -31 -25 -13 -52 -24 -61 -24 -8 0 -38 -11 -65 -25
-27 -14 -69 -30 -94 -36 -25 -5 -56 -18 -70 -28 -14 -10 -48 -23 -75 -29 -28
-6 -72 -23 -99 -37 -27 -14 -57 -25 -65 -25 -9 0 -36 -11 -61 -24 -25 -13 -61
-27 -80 -31 -19 -4 -53 -18 -75 -30 -22 -13 -56 -26 -75 -30 -19 -4 -53 -18
-75 -30 -22 -13 -56 -26 -75 -30 -19 -4 -53 -18 -75 -30 -22 -13 -56 -26 -75
-30 -19 -4 -55 -18 -80 -31 -25 -13 -53 -24 -63 -24 -9 0 -43 -13 -74 -30 -31
-16 -65 -30 -76 -30 -11 0 -39 -11 -61 -24 -23 -13 -57 -27 -76 -31 -19 -4
-53 -17 -75 -30 -22 -12 -56 -26 -75 -30 -19 -4 -55 -18 -80 -31 -25 -13 -52
-24 -61 -24 -10 0 -41 -13 -71 -29 -30 -15 -70 -31 -89 -35 -19 -3 -56 -17
-83 -31 -27 -14 -56 -25 -64 -25 -9 0 -34 -11 -57 -25 -24 -13 -62 -27 -86
-31 -24 -4 -67 -20 -97 -36 -30 -15 -62 -28 -71 -28 -9 0 -32 -9 -52 -19 -20
-11 -59 -26 -88 -35 -29 -8 -67 -24 -84 -35 -18 -11 -50 -23 -72 -27 -22 -3
-58 -17 -81 -30 -22 -13 -47 -24 -55 -24 -8 0 -41 -13 -74 -29 -33 -16 -75
-32 -93 -36 -18 -4 -52 -18 -75 -31 -23 -13 -51 -24 -62 -24 -11 0 -47 -14
-80 -30 -33 -16 -67 -30 -75 -30 -8 0 -42 -14 -75 -30 -33 -17 -69 -30 -80
-30 -11 0 -36 -10 -55 -21 -19 -12 -56 -28 -83 -36 -27 -8 -63 -23 -80 -34
-18 -10 -39 -19 -47 -19 -8 0 -42 -13 -75 -29 -33 -16 -76 -32 -95 -36 -19 -4
-53 -18 -75 -30 -22 -13 -55 -26 -74 -30 -19 -4 -54 -18 -79 -31 -25 -13 -52
-24 -61 -24 -9 0 -38 -11 -66 -24 -27 -13 -70 -31 -95 -39 -54 -17 -137 -51
-205 -83 -28 -13 -57 -24 -65 -24 -9 0 -42 -13 -75 -30 -33 -16 -69 -30 -80
-30 -11 0 -47 -14 -80 -30 -33 -16 -67 -30 -75 -30 -8 0 -42 -14 -75 -30 -33
-16 -69 -30 -80 -30 -11 0 -40 -11 -65 -24 -25 -13 -65 -29 -90 -36 -25 -6
-58 -20 -75 -30 -16 -10 -46 -21 -65 -25 -19 -4 -55 -18 -80 -31 -25 -13 -52
-24 -60 -24 -9 0 -42 -13 -75 -30 -33 -16 -67 -30 -75 -30 -9 0 -42 -13 -75
-30 -33 -16 -67 -30 -75 -30 -8 0 -42 -14 -75 -30 -33 -16 -67 -30 -75 -30 -8
0 -42 -14 -75 -30 -33 -16 -67 -30 -76 -30 -9 0 -36 -11 -61 -24 -25 -13 -60
-27 -79 -31 -19 -4 -52 -17 -74 -30 -22 -12 -56 -26 -75 -30 -19 -4 -50 -15
-67 -26 -18 -10 -54 -25 -81 -32 -26 -8 -65 -24 -87 -36 -22 -11 -47 -21 -56
-21 -8 0 -38 -11 -65 -25 -27 -14 -71 -30 -98 -36 -27 -6 -63 -19 -80 -29 -17
-10 -50 -23 -74 -30 -23 -6 -64 -22 -89 -35 -25 -14 -55 -25 -66 -25 -11 0
-39 -11 -61 -24 -23 -13 -57 -27 -76 -31 -19 -4 -53 -18 -75 -30 -22 -13 -56
-26 -75 -30 -19 -4 -53 -18 -75 -30 -22 -13 -57 -26 -78 -29 -21 -4 -59 -18
-84 -32 -25 -13 -53 -24 -62 -24 -9 0 -43 -14 -76 -30 -33 -17 -66 -30 -75
-30 -8 0 -42 -14 -75 -30 -33 -16 -67 -30 -75 -30 -8 0 -42 -14 -75 -30 -33
-17 -66 -30 -75 -30 -8 0 -35 -11 -60 -24 -25 -13 -61 -27 -80 -31 -19 -4 -53
-18 -76 -31 -22 -13 -49 -24 -60 -24 -11 0 -46 -13 -79 -30 -33 -16 -69 -30
-80 -30 -11 0 -40 -12 -64 -25 -24 -14 -64 -30 -89 -36 -25 -5 -57 -19 -73
-29 -15 -11 -42 -23 -61 -26 -18 -4 -53 -17 -78 -30 -25 -13 -63 -28 -85 -33
-22 -6 -62 -22 -89 -36 -27 -14 -57 -25 -65 -25 -9 0 -43 -14 -76 -30 -33 -17
-65 -30 -73 -30 -7 0 -34 -11 -60 -24 -26 -13 -63 -27 -82 -31 -19 -4 -48 -15
-65 -25 -16 -10 -50 -24 -75 -30 -25 -7 -65 -23 -90 -36 -25 -13 -54 -24 -65
-24 -11 0 -48 -14 -82 -32 -52 -26 -64 -29 -77 -19 -15 12 -16 658 -16 6766 0
3713 3 6755 7 6758 11 11 20 8 89 -28z m17009 -8176 c54 -52 99 -108 128 -157
59 -102 97 -182 97 -204 0 -9 10 -41 23 -70 l22 -53 0 -10135 0 -10135 -22
-85 c-12 -47 -24 -103 -28 -125 -4 -22 -17 -59 -31 -82 -13 -23 -24 -48 -24
-55 0 -15 -46 -90 -106 -174 -37 -53 -79 -84 -110 -84 -25 0 -103 30 -134 50
-14 10 -42 23 -64 30 -21 7 -54 23 -74 36 -19 13 -42 24 -51 24 -9 0 -32 11
-51 23 -19 13 -50 29 -68 35 -18 6 -45 20 -60 30 -15 11 -41 23 -58 26 -17 4
-46 18 -65 32 -18 13 -39 24 -47 24 -7 0 -39 13 -70 29 -115 60 -183 91 -195
91 -7 0 -28 11 -47 24 -19 12 -53 29 -75 36 -22 7 -51 20 -65 30 -14 9 -40 22
-58 28 -18 6 -45 20 -60 31 -15 10 -46 24 -68 30 -23 6 -47 18 -54 26 -6 7
-28 19 -48 26 -20 6 -49 20 -64 31 -15 10 -46 25 -69 33 -24 9 -50 22 -59 30
-9 8 -35 21 -59 30 -23 8 -54 24 -68 35 -14 11 -33 20 -42 20 -9 0 -32 11 -51
24 -19 12 -52 28 -72 35 -20 7 -42 19 -49 27 -6 8 -36 21 -65 30 -30 8 -56 19
-59 24 -5 8 -105 59 -205 104 -19 9 -46 23 -60 31 -14 8 -41 22 -60 30 -19 8
-42 19 -50 24 -42 26 -288 141 -302 141 -8 0 -27 9 -41 20 -14 11 -44 27 -67
35 -23 8 -54 24 -70 35 -15 11 -34 20 -40 20 -7 0 -38 13 -69 30 -31 16 -72
37 -91 45 -19 8 -46 22 -60 29 -14 8 -41 21 -60 30 -19 9 -42 20 -50 25 -8 6
-35 19 -60 30 -25 11 -52 25 -60 30 -8 6 -35 19 -60 30 -25 11 -52 25 -60 30
-28 18 -166 81 -177 81 -5 0 -18 9 -28 20 -10 11 -36 25 -58 31 -23 6 -54 21
-71 34 -17 12 -45 26 -62 29 -17 4 -46 18 -65 32 -18 13 -40 24 -50 24 -9 0
-32 11 -52 25 -20 13 -54 29 -75 35 -21 5 -47 19 -57 30 -10 11 -33 22 -51 26
-18 3 -47 17 -65 30 -18 13 -38 24 -43 24 -6 0 -65 27 -131 60 -66 33 -127 60
-135 60 -8 0 -35 14 -60 30 -25 16 -52 30 -61 30 -9 0 -32 11 -52 24 -19 13
-46 27 -58 31 -13 4 -44 18 -69 31 -25 13 -61 31 -80 39 -19 8 -46 22 -60 30
-14 8 -41 21 -60 29 -19 8 -46 21 -60 30 -25 14 -245 122 -310 151 -46 21 -89
42 -120 60 -14 8 -53 28 -86 44 -34 16 -65 34 -68 40 -4 6 -15 11 -25 11 -10
0 -70 26 -133 59 -63 32 -125 62 -139 66 -13 4 -38 18 -55 31 -17 13 -37 24
-44 24 -13 0 -146 60 -180 81 -8 5 -31 16 -50 25 -19 9 -57 27 -85 40 -27 13
-66 30 -85 39 -19 8 -46 22 -60 30 -14 8 -41 21 -60 29 -19 8 -46 22 -60 30
-14 9 -41 22 -60 31 -19 8 -46 22 -60 30 -40 22 -174 85 -184 85 -4 0 -21 9
-37 20 -15 12 -43 26 -61 32 -17 6 -48 22 -66 35 -19 13 -43 23 -52 23 -9 0
-33 11 -53 24 -20 14 -52 29 -71 35 -20 5 -48 18 -63 29 -15 10 -45 25 -65 31
-20 7 -42 18 -48 26 -6 8 -28 19 -47 26 -20 6 -60 24 -90 40 -30 16 -61 29
-68 29 -7 0 -18 7 -25 14 -6 8 -33 23 -58 32 -26 10 -57 26 -70 35 -13 10 -40
23 -60 30 -20 6 -44 18 -52 25 -9 7 -36 20 -60 29 -24 9 -51 22 -60 30 -9 8
-39 22 -67 30 -28 8 -56 22 -63 30 -7 8 -31 20 -53 26 -23 6 -52 19 -65 29
-13 11 -39 24 -59 31 -20 6 -51 22 -71 35 -19 13 -42 24 -51 24 -9 0 -36 14
-60 30 -24 17 -50 30 -57 30 -13 0 -104 42 -164 76 -14 7 -41 21 -60 29 -19 9
-44 21 -55 27 -36 21 -69 38 -105 53 -19 9 -46 22 -60 29 -14 8 -83 42 -155
76 -169 81 -176 84 -200 98 -11 6 -36 18 -55 26 -19 8 -46 22 -60 30 -14 9
-41 22 -60 30 -19 8 -46 21 -60 29 -14 8 -41 22 -60 31 -19 9 -46 23 -60 30
-52 29 -175 86 -183 86 -5 0 -21 9 -36 19 -14 10 -45 24 -67 30 -23 6 -52 19
-65 30 -13 10 -41 24 -61 30 -20 7 -47 20 -60 30 -13 10 -36 21 -53 25 -16 4
-46 17 -65 30 -19 12 -50 28 -68 34 -18 6 -45 20 -60 30 -15 10 -46 24 -68 30
-23 7 -47 19 -54 27 -6 7 -28 19 -48 26 -20 7 -53 23 -72 35 -19 13 -42 24
-51 24 -9 0 -32 11 -52 24 -19 13 -46 27 -58 31 -13 4 -46 20 -74 35 -27 15
-65 31 -82 35 -18 3 -35 10 -38 14 -4 7 -234 124 -325 165 -19 9 -46 23 -60
30 -14 8 -41 21 -60 30 -19 9 -48 24 -65 33 -16 9 -41 21 -55 28 -14 6 -34 16
-45 22 -11 6 -60 30 -110 54 -49 23 -101 50 -115 59 -14 10 -38 20 -55 24 -16
4 -46 18 -65 30 -20 13 -50 27 -67 30 -18 4 -43 16 -57 27 -14 11 -44 26 -67
34 -24 9 -50 22 -59 29 -8 7 -33 19 -55 26 -22 7 -47 18 -55 26 -8 7 -40 22
-72 34 -31 11 -61 27 -68 35 -6 7 -26 17 -43 20 -18 4 -46 18 -63 30 -17 13
-49 28 -71 34 -22 6 -46 18 -53 26 -6 7 -28 19 -48 26 -20 6 -55 22 -78 35
-22 13 -48 24 -56 24 -8 0 -35 13 -59 30 -24 16 -51 30 -60 30 -9 0 -32 10
-51 23 -18 13 -49 29 -66 35 -18 6 -45 20 -60 30 -15 10 -48 26 -74 36 -25 9
-52 24 -58 32 -7 7 -20 14 -29 14 -9 0 -29 7 -46 16 -108 59 -195 103 -216
109 -13 4 -36 16 -51 27 -15 10 -46 25 -69 33 -24 9 -50 22 -59 29 -8 7 -33
19 -55 26 -22 7 -52 21 -67 32 -15 10 -42 24 -60 30 -18 6 -44 19 -58 28 -14
10 -43 23 -65 30 -22 7 -50 21 -63 31 -13 10 -40 23 -60 30 -20 6 -44 17 -52
24 -8 7 -33 18 -55 25 -22 7 -47 18 -55 25 -8 6 -60 33 -115 59 -55 26 -121
58 -146 71 -26 14 -53 25 -61 25 -7 0 -29 11 -49 24 -19 13 -53 29 -76 35 -22
6 -48 20 -57 30 -10 11 -31 23 -47 26 -15 4 -44 17 -63 30 -20 13 -53 29 -74
35 -21 5 -47 19 -57 30 -10 11 -25 20 -34 20 -9 0 -38 14 -66 30 -27 16 -57
30 -66 30 -9 0 -36 13 -60 30 -24 16 -51 30 -60 30 -8 0 -35 13 -60 29 -24 16
-58 32 -76 36 -17 3 -37 13 -43 20 -6 8 -28 19 -48 26 -20 6 -49 20 -64 31
-15 10 -45 25 -68 33 -23 8 -53 23 -68 33 -15 11 -42 24 -60 30 -18 6 -45 20
-59 32 -14 11 -36 20 -49 20 -12 0 -35 10 -51 23 -15 13 -49 31 -75 41 -25 9
-52 24 -58 32 -7 7 -18 14 -24 14 -6 0 -70 29 -141 65 -72 36 -137 65 -146 65
-9 0 -27 8 -40 19 -13 10 -47 26 -76 35 -28 9 -57 24 -63 31 -7 8 -30 20 -53
26 -22 6 -52 19 -66 28 -14 10 -38 26 -53 35 l-28 16 0 3218 c0 2852 2 3220
15 3239 9 13 39 28 73 38 31 9 71 25 87 35 17 10 48 23 70 30 22 7 53 21 70
31 16 11 39 19 51 19 12 0 41 11 65 23 24 13 62 29 84 36 22 7 61 23 86 37 26
13 53 24 61 24 7 0 40 13 73 30 33 16 67 30 75 30 9 0 42 13 75 30 33 16 67
30 75 30 9 0 34 9 55 20 22 11 62 27 88 35 27 8 63 23 80 33 18 11 56 25 85
32 28 7 54 16 57 20 3 5 36 18 73 31 37 12 76 28 87 35 11 7 40 18 65 24 24 7
66 23 92 36 26 13 54 24 61 24 8 0 34 11 59 24 25 13 60 27 79 31 19 4 61 20
94 36 33 16 67 29 75 29 8 0 42 14 75 30 33 17 68 30 78 30 10 0 39 11 65 24
26 13 63 27 82 31 19 4 55 18 80 31 25 13 52 24 61 24 9 0 40 13 70 29 30 15
70 32 89 36 19 4 47 16 61 26 14 10 46 23 70 28 24 6 66 22 93 36 27 14 57 25
65 25 9 0 43 14 76 30 33 17 68 30 79 30 11 0 38 11 60 24 23 13 59 28 81 32
22 4 52 15 66 25 14 10 48 23 75 30 27 6 67 22 89 34 22 12 55 26 74 30 19 4
54 18 79 31 25 13 52 24 61 24 9 0 43 14 76 30 33 16 67 30 77 30 9 0 45 13
80 30 34 16 70 30 78 30 8 0 42 14 75 30 33 17 66 30 75 30 8 0 35 11 60 24
25 13 61 27 80 31 19 4 55 18 80 31 25 13 52 24 60 24 9 0 42 13 75 30 33 16
69 30 80 30 11 0 47 14 80 30 33 16 67 30 75 30 8 0 42 14 75 30 33 16 67 30
77 30 9 0 45 13 80 30 34 16 68 30 75 30 7 0 33 11 59 25 26 14 55 25 64 25 9
0 42 14 73 30 31 17 64 30 72 30 9 0 41 13 73 29 31 15 72 31 90 34 19 4 46
16 61 27 16 10 47 23 69 29 23 5 57 18 77 29 19 12 51 24 72 28 21 3 56 16 78
29 22 12 56 26 75 30 19 4 53 17 75 30 22 12 57 25 78 29 21 4 59 18 84 32 25
13 54 24 63 24 9 0 38 11 63 24 25 14 68 31 94 39 27 8 66 24 88 36 22 11 49
21 60 21 11 0 47 14 80 30 33 17 66 30 75 30 8 0 33 10 55 21 22 12 61 28 87
36 27 7 63 22 81 32 17 11 48 22 67 26 19 4 50 16 68 26 18 10 54 24 80 30 26
7 65 22 87 34 22 13 56 26 75 30 19 4 49 15 65 25 17 10 48 23 70 30 22 7 60
24 84 37 24 12 52 23 61 23 9 0 37 11 62 24 25 13 60 27 79 31 19 4 61 20 94
36 33 16 67 29 75 29 8 0 35 11 60 24 25 13 61 27 80 31 19 4 46 14 60 23 24
15 90 41 210 83 30 11 67 26 82 35 15 8 51 22 78 30 28 8 72 26 97 40 25 13
55 24 66 24 11 0 39 11 61 24 23 13 57 27 76 31 19 4 53 16 74 27 22 11 61 27
88 34 26 8 63 23 81 33 17 11 48 22 67 26 19 4 45 14 58 22 13 8 53 25 90 38
37 13 94 33 127 44 33 12 72 28 87 37 15 8 50 22 78 30 28 8 65 23 83 34 17
10 52 24 77 30 25 7 59 20 75 30 17 10 49 23 73 30 24 6 58 20 75 31 18 10 39
19 48 19 10 0 42 13 72 29 30 16 70 32 89 36 18 4 47 15 63 25 17 10 53 25 80
33 28 8 66 24 85 36 19 11 44 21 55 21 11 0 47 14 80 30 33 16 68 30 78 30 10
0 39 11 65 24 26 13 63 27 82 31 19 4 55 18 80 30 25 13 66 28 90 35 25 6 54
18 66 25 11 7 44 20 74 29 29 9 58 20 65 26 6 5 43 21 81 34 38 13 105 38 149
56 44 18 110 43 147 56 37 12 77 29 90 37 13 8 39 18 58 22 19 4 53 16 74 27
22 11 61 27 88 34 26 8 63 23 81 33 17 11 48 22 67 26 19 4 50 16 68 27 18 11
55 26 83 33 28 8 58 20 68 28 9 9 35 20 59 27 23 6 64 22 89 35 25 14 55 25
67 25 12 0 46 13 76 30 30 16 64 29 76 30 12 0 41 11 66 24 25 13 60 27 79 31
19 4 55 18 81 31 26 13 54 24 62 24 8 0 39 13 69 29 30 16 70 32 89 36 18 4
53 18 78 30 25 12 61 26 80 30 19 4 46 15 60 25 14 10 44 23 68 29 24 7 64 23
89 36 25 14 53 25 62 25 9 0 43 14 76 30 33 16 69 30 80 30 11 0 39 11 63 25
23 13 59 27 80 31 20 3 51 14 67 24 17 10 50 24 75 30 24 7 66 23 92 36 26 13
53 24 61 24 7 0 35 11 63 24 27 14 76 34 109 46 33 12 85 31 115 42 30 10 77
30 104 44 28 13 56 24 64 24 8 0 38 11 66 24 65 30 147 63 213 86 28 10 62 25
75 33 12 9 46 22 73 30 28 8 66 24 85 35 19 11 50 23 69 27 19 4 54 18 79 31
25 13 52 24 61 24 9 0 43 14 76 30 33 16 69 30 80 30 11 0 38 11 60 25 22 13
49 25 60 25 11 0 47 13 81 29 34 16 76 32 95 36 19 4 49 15 66 26 18 10 56 25
84 33 28 9 65 24 82 34 18 11 47 22 65 25 18 4 57 18 87 32 31 14 61 25 68 25
7 0 31 9 52 21 22 11 63 27 90 36 28 8 59 21 71 28 12 8 45 21 75 29 30 9 76
27 103 41 27 14 58 25 67 25 10 0 42 11 71 24 67 30 146 62 223 91 33 12 74
29 92 38 18 9 38 17 45 17 8 0 40 13 73 30 33 16 68 30 79 30 10 0 56 -36 101
-81z m-35209 46 c26 -14 54 -25 63 -25 9 0 32 -10 50 -21 19 -12 58 -27 87
-35 28 -7 66 -22 85 -33 19 -10 50 -22 69 -26 19 -4 55 -18 80 -31 25 -13 52
-24 60 -24 9 0 34 -9 55 -21 22 -11 72 -32 110 -46 177 -63 202 -73 240 -92
21 -12 46 -21 54 -21 9 0 38 -11 66 -24 27 -13 73 -32 100 -41 155 -52 193
-67 225 -84 19 -10 51 -22 70 -26 19 -4 51 -16 70 -26 19 -10 61 -28 93 -39
142 -50 175 -63 221 -86 28 -13 57 -24 65 -24 9 0 43 -14 76 -30 33 -16 67
-30 75 -30 8 0 37 -11 65 -24 63 -29 142 -62 223 -91 35 -13 68 -28 75 -33 7
-6 35 -17 62 -25 28 -8 68 -24 90 -36 22 -11 47 -21 55 -21 8 0 42 -14 75 -30
33 -16 67 -30 75 -30 8 0 42 -14 75 -30 33 -16 67 -30 75 -30 9 0 34 -9 55
-20 22 -12 64 -28 94 -36 29 -9 68 -24 85 -34 17 -10 52 -23 78 -29 27 -6 63
-20 80 -31 18 -11 40 -20 48 -20 8 0 42 -13 76 -29 34 -16 76 -32 95 -36 19
-4 45 -15 59 -25 14 -10 45 -23 70 -30 25 -7 65 -23 90 -36 25 -13 52 -24 60
-24 8 0 37 -11 65 -24 74 -34 152 -66 220 -87 33 -11 76 -28 95 -38 19 -10 61
-26 92 -35 31 -9 59 -20 62 -25 3 -5 30 -15 58 -22 29 -6 62 -18 73 -25 11 -7
52 -24 90 -38 169 -59 212 -76 250 -95 21 -12 46 -21 55 -21 8 0 29 -9 47 -19
17 -11 51 -25 75 -31 24 -7 61 -22 83 -34 22 -13 54 -26 70 -30 17 -4 53 -18
80 -31 70 -32 152 -65 205 -82 25 -8 63 -23 85 -34 22 -10 67 -28 100 -40 33
-11 91 -32 130 -45 38 -14 79 -31 90 -38 11 -7 36 -17 55 -21 19 -4 55 -18 80
-30 25 -12 61 -26 80 -30 19 -4 50 -15 67 -26 18 -10 55 -25 81 -33 27 -7 67
-23 90 -35 23 -12 50 -21 60 -21 11 0 40 -11 65 -24 25 -14 68 -32 94 -40 26
-8 66 -24 88 -35 21 -12 45 -21 52 -21 8 0 35 -11 61 -24 26 -13 63 -27 82
-31 19 -4 53 -18 75 -30 22 -13 56 -26 75 -30 19 -4 53 -18 75 -30 22 -13 56
-26 75 -30 19 -4 49 -15 65 -25 17 -10 48 -23 69 -30 22 -7 53 -21 70 -31 17
-10 54 -23 81 -30 28 -7 62 -20 76 -30 14 -10 48 -23 75 -30 27 -7 69 -23 93
-36 24 -13 51 -23 59 -23 8 0 38 -11 66 -24 28 -14 71 -31 96 -39 45 -15 108
-39 210 -83 30 -13 74 -28 97 -34 23 -6 45 -15 48 -20 3 -5 32 -17 63 -26 31
-9 72 -24 89 -35 18 -10 52 -23 75 -29 24 -6 63 -22 88 -34 25 -13 60 -27 79
-31 19 -4 54 -18 79 -31 25 -13 52 -24 61 -24 9 0 43 -14 76 -30 33 -17 66
-30 75 -30 8 0 35 -11 60 -24 25 -13 61 -27 80 -31 19 -4 49 -15 65 -25 17
-10 56 -25 88 -34 32 -9 72 -26 90 -36 18 -11 39 -20 47 -20 8 0 42 -13 75
-29 33 -16 76 -32 95 -36 19 -4 45 -14 57 -22 20 -13 80 -37 212 -84 29 -10
67 -27 85 -38 17 -10 47 -22 66 -26 19 -4 53 -18 75 -30 22 -13 56 -26 75 -30
19 -4 49 -15 65 -25 17 -10 53 -25 80 -33 28 -9 68 -25 90 -36 21 -12 47 -21
56 -21 10 0 46 -13 81 -30 34 -16 69 -30 76 -30 7 0 34 -11 60 -24 26 -13 63
-27 82 -31 19 -4 50 -15 67 -26 18 -10 55 -25 81 -33 27 -7 66 -23 88 -34 21
-11 55 -23 74 -27 19 -4 49 -15 65 -25 17 -10 50 -24 75 -30 25 -7 65 -23 90
-36 25 -13 52 -24 60 -24 8 0 42 -14 75 -30 33 -16 67 -30 75 -30 8 0 42 -14
75 -30 33 -16 67 -30 76 -30 9 0 37 -11 63 -25 26 -14 53 -25 59 -25 7 0 40
-14 74 -30 34 -17 77 -33 95 -37 18 -3 57 -19 86 -35 30 -15 60 -28 67 -28 8
0 35 -11 61 -25 26 -14 56 -25 68 -25 12 0 48 -14 81 -30 33 -17 65 -30 71
-30 7 0 41 -13 76 -30 34 -16 70 -30 80 -30 9 0 45 -13 80 -30 34 -16 70 -30
78 -30 8 0 35 -11 60 -24 25 -13 61 -27 80 -31 19 -4 50 -15 67 -26 18 -10 54
-25 81 -32 26 -8 65 -24 87 -36 22 -11 49 -21 60 -21 11 0 47 -14 80 -30 33
-16 66 -30 72 -30 7 0 36 -11 65 -24 29 -14 73 -31 98 -39 44 -14 100 -36 210
-83 30 -12 73 -28 95 -35 22 -7 49 -18 60 -24 11 -7 47 -21 80 -30 33 -9 70
-23 82 -30 11 -8 43 -20 70 -26 26 -7 68 -23 92 -36 24 -13 51 -23 60 -23 9 0
43 -14 76 -30 33 -17 66 -30 75 -30 8 0 42 -14 75 -30 33 -17 65 -30 73 -30 7
0 34 -11 60 -24 26 -13 61 -26 77 -30 17 -4 57 -21 90 -37 33 -16 69 -29 81
-29 12 0 32 -9 46 -19 14 -11 47 -25 74 -32 27 -7 67 -23 90 -35 22 -13 47
-24 55 -24 8 0 41 -13 74 -30 33 -16 69 -30 80 -30 11 0 47 -14 80 -30 33 -16
67 -30 76 -30 9 0 36 -10 60 -23 24 -13 66 -29 94 -36 27 -7 55 -17 62 -23 11
-9 44 -21 228 -87 28 -10 68 -28 90 -40 22 -11 47 -21 55 -21 8 0 42 -14 75
-30 33 -16 67 -30 75 -30 8 0 42 -14 75 -30 33 -16 67 -30 75 -30 8 0 33 -10
55 -21 22 -12 62 -28 90 -36 27 -8 64 -23 80 -33 17 -10 46 -21 65 -25 19 -4
49 -16 67 -26 17 -11 55 -27 84 -35 29 -9 62 -22 73 -29 12 -7 39 -18 61 -25
22 -7 52 -21 66 -31 14 -10 46 -23 72 -29 25 -7 53 -20 61 -29 15 -16 16 -328
16 -3237 0 -1770 0 -3225 0 -3231 0 -13 -26 -29 -106 -67 -21 -10 -50 -24 -64
-32 -14 -7 -41 -20 -60 -29 -19 -8 -46 -21 -60 -28 -14 -8 -34 -18 -45 -24
-61 -32 -171 -83 -178 -83 -5 0 -21 -8 -35 -19 -15 -10 -44 -24 -64 -30 -20
-7 -47 -20 -60 -30 -13 -10 -41 -24 -63 -31 -22 -7 -49 -21 -61 -32 -12 -10
-39 -24 -60 -30 -21 -5 -49 -18 -62 -29 -13 -10 -40 -23 -60 -30 -20 -6 -48
-20 -61 -30 -13 -11 -29 -19 -35 -19 -6 0 -38 -13 -71 -30 -33 -16 -76 -36
-95 -45 -19 -8 -46 -22 -60 -29 -14 -8 -96 -50 -183 -93 -87 -43 -168 -84
-180 -90 -12 -7 -29 -13 -38 -13 -9 0 -24 -9 -34 -20 -10 -11 -40 -27 -67 -35
-27 -8 -60 -23 -75 -35 -14 -11 -31 -20 -36 -20 -10 0 -263 -120 -297 -141 -8
-5 -31 -16 -50 -25 -48 -22 -81 -38 -105 -52 -11 -6 -36 -18 -55 -26 -19 -8
-46 -22 -60 -30 -35 -20 -175 -86 -184 -86 -4 0 -24 -11 -44 -25 -20 -14 -44
-25 -53 -25 -9 0 -34 -12 -55 -26 -21 -15 -55 -31 -74 -36 -19 -6 -50 -21 -69
-34 -20 -13 -43 -24 -52 -24 -9 0 -32 -11 -52 -24 -19 -13 -46 -27 -58 -31
-13 -4 -44 -18 -69 -31 -25 -13 -61 -31 -80 -39 -19 -8 -46 -22 -60 -30 -14
-8 -41 -22 -60 -30 -19 -8 -46 -22 -60 -30 -14 -8 -41 -22 -60 -30 -19 -8 -42
-19 -50 -24 -8 -6 -35 -19 -60 -30 -25 -11 -52 -25 -60 -30 -15 -9 -112 -55
-180 -86 -19 -8 -46 -22 -60 -30 -14 -8 -41 -21 -60 -29 -19 -8 -46 -21 -60
-29 -24 -14 -117 -59 -190 -92 -19 -8 -46 -22 -60 -30 -14 -8 -41 -22 -60 -30
-19 -8 -42 -19 -50 -24 -8 -5 -55 -28 -105 -51 -49 -23 -98 -46 -107 -51 -43
-22 -57 -29 -118 -57 -193 -89 -230 -107 -290 -134 -36 -17 -74 -35 -85 -41
-55 -29 -73 -38 -105 -52 -19 -8 -42 -19 -50 -25 -8 -5 -31 -16 -50 -24 -19
-8 -46 -22 -60 -30 -14 -9 -41 -22 -60 -31 -19 -8 -46 -22 -60 -30 -42 -24
-273 -132 -300 -140 -14 -4 -35 -16 -48 -26 -13 -10 -39 -23 -59 -30 -20 -6
-51 -22 -71 -35 -19 -13 -42 -24 -51 -24 -9 0 -36 -14 -61 -30 -25 -16 -50
-30 -57 -30 -9 0 -173 -79 -278 -133 -33 -17 -68 -34 -105 -51 -19 -8 -46 -21
-60 -29 -81 -44 -150 -77 -163 -77 -7 0 -33 -13 -58 -29 -24 -16 -58 -32 -76
-36 -17 -3 -37 -13 -44 -21 -6 -7 -34 -21 -62 -29 -28 -8 -60 -24 -71 -34 -12
-11 -40 -24 -62 -30 -23 -6 -47 -18 -54 -26 -6 -7 -33 -21 -60 -30 -27 -9 -54
-22 -60 -30 -6 -8 -33 -21 -60 -30 -27 -9 -54 -22 -60 -30 -6 -8 -28 -19 -48
-26 -20 -7 -53 -23 -72 -35 -19 -13 -40 -24 -46 -24 -7 0 -61 -25 -121 -55
-59 -30 -124 -61 -143 -70 -19 -8 -46 -22 -60 -30 -14 -8 -41 -22 -60 -30 -19
-8 -46 -22 -60 -30 -14 -8 -68 -35 -120 -60 -52 -25 -102 -49 -110 -54 -8 -5
-55 -28 -105 -51 -49 -23 -97 -46 -105 -51 -16 -10 -48 -25 -150 -71 -36 -17
-74 -35 -85 -41 -11 -6 -31 -16 -45 -22 -14 -7 -54 -26 -90 -44 -36 -17 -81
-38 -100 -46 -19 -8 -42 -19 -50 -24 -32 -20 -186 -91 -196 -91 -6 0 -17 -7
-24 -14 -6 -8 -28 -20 -48 -27 -20 -6 -49 -20 -63 -30 -14 -10 -45 -25 -70
-35 -24 -9 -51 -23 -59 -30 -9 -8 -36 -20 -60 -29 -24 -9 -51 -22 -60 -30 -9
-8 -36 -21 -60 -30 -24 -9 -51 -22 -60 -29 -8 -7 -33 -19 -55 -26 -22 -7 -47
-18 -55 -25 -8 -8 -35 -21 -60 -31 -25 -9 -52 -22 -60 -29 -8 -6 -60 -33 -115
-59 -55 -26 -107 -52 -115 -57 -8 -5 -31 -16 -50 -24 -19 -8 -46 -22 -60 -30
-14 -8 -41 -22 -60 -30 -19 -9 -87 -41 -150 -72 -63 -30 -144 -69 -180 -85
-36 -17 -78 -37 -95 -46 -16 -8 -41 -20 -54 -26 -14 -6 -53 -26 -88 -43 -35
-18 -69 -33 -77 -33 -7 0 -25 -9 -39 -20 -14 -12 -41 -26 -59 -32 -18 -6 -45
-20 -60 -30 -15 -10 -42 -24 -60 -30 -18 -6 -49 -22 -68 -35 -19 -12 -42 -23
-51 -23 -9 0 -34 -12 -55 -26 -21 -15 -56 -33 -78 -41 -22 -7 -47 -20 -56 -27
-8 -7 -32 -19 -52 -25 -20 -7 -47 -20 -60 -30 -13 -10 -37 -21 -54 -25 -17 -4
-46 -18 -64 -31 -18 -13 -46 -27 -62 -31 -17 -3 -46 -17 -65 -30 -20 -13 -41
-24 -48 -24 -7 0 -28 -11 -47 -24 -20 -13 -53 -29 -74 -36 -22 -7 -50 -20 -64
-30 -14 -9 -40 -22 -58 -28 -18 -6 -45 -20 -60 -30 -15 -10 -42 -24 -60 -30
-18 -6 -45 -20 -60 -30 -15 -11 -38 -23 -52 -27 -14 -4 -49 -21 -79 -36 -30
-16 -60 -29 -68 -29 -8 0 -31 -11 -51 -25 -20 -14 -41 -25 -46 -25 -9 0 -135
-58 -181 -83 -11 -6 -32 -17 -47 -24 -16 -7 -40 -19 -55 -26 -16 -7 -37 -19
-48 -25 -11 -6 -40 -20 -65 -31 -25 -11 -52 -25 -60 -31 -8 -5 -31 -16 -50
-24 -19 -8 -46 -22 -60 -30 -14 -8 -68 -35 -120 -61 -52 -25 -106 -52 -120
-59 -38 -22 -174 -86 -182 -86 -4 0 -24 -11 -44 -25 -20 -14 -45 -25 -54 -25
-9 0 -33 -11 -52 -24 -20 -13 -52 -29 -73 -36 -21 -7 -53 -23 -73 -36 -19 -13
-42 -24 -51 -24 -9 0 -33 -11 -53 -25 -20 -14 -42 -25 -49 -25 -6 0 -37 -13
-68 -30 -31 -16 -72 -36 -91 -45 -19 -8 -42 -19 -50 -24 -8 -5 -55 -28 -105
-51 -49 -23 -97 -46 -105 -51 -8 -5 -31 -16 -50 -24 -19 -8 -61 -28 -92 -45
-31 -16 -63 -30 -71 -30 -8 0 -26 -9 -40 -21 -15 -11 -47 -27 -71 -35 -25 -9
-50 -22 -57 -30 -6 -7 -29 -19 -52 -25 -22 -6 -56 -21 -76 -34 -20 -13 -48
-27 -63 -30 -15 -4 -32 -13 -39 -21 -6 -7 -36 -23 -66 -34 -31 -11 -67 -30
-81 -40 -13 -11 -32 -20 -42 -20 -10 0 -29 -9 -43 -20 -14 -11 -44 -27 -67
-35 -23 -8 -53 -23 -68 -33 -15 -11 -38 -23 -52 -27 -14 -4 -43 -17 -65 -30
-22 -12 -57 -28 -77 -34 -20 -7 -42 -18 -48 -26 -6 -8 -33 -21 -60 -30 -27 -9
-54 -23 -60 -30 -7 -8 -31 -20 -53 -26 -23 -6 -52 -19 -65 -29 -13 -11 -39
-24 -59 -31 -20 -6 -51 -22 -71 -35 -19 -13 -42 -24 -51 -24 -9 0 -32 -11 -51
-24 -19 -13 -49 -26 -66 -30 -17 -4 -46 -18 -65 -32 -18 -13 -38 -24 -44 -24
-6 0 -42 -16 -81 -35 -38 -19 -74 -35 -80 -35 -6 0 -22 -8 -35 -19 -13 -10
-42 -24 -64 -31 -22 -7 -56 -24 -75 -36 -19 -13 -41 -24 -50 -24 -8 0 -35 -14
-59 -30 -24 -17 -52 -30 -62 -30 -9 0 -30 -11 -46 -24 -15 -13 -39 -27 -53
-31 -14 -4 -40 -16 -57 -27 -20 -11 -41 -17 -52 -13 -31 10 -142 135 -189 213
-23 39 -42 77 -42 84 0 7 -10 29 -22 48 -12 19 -27 62 -34 95 -7 33 -21 85
-31 115 -17 53 -18 465 -18 10140 0 7980 3 10100 12 10155 28 153 53 222 138
364 34 56 84 113 154 173 44 39 75 57 93 58 15 0 48 -11 74 -25z m18171
-14479 c15 -13 39 -27 53 -31 14 -4 48 -20 76 -36 28 -16 58 -29 66 -29 9 0
31 -11 51 -25 20 -13 54 -29 76 -35 21 -5 44 -17 50 -24 7 -8 32 -21 57 -30
24 -8 56 -24 71 -35 14 -12 33 -21 43 -21 9 0 33 -11 52 -24 20 -13 52 -29 73
-36 21 -7 53 -23 73 -36 19 -13 40 -24 46 -24 6 0 27 -11 46 -24 19 -12 53
-29 75 -36 22 -7 50 -21 63 -31 13 -10 40 -23 60 -30 20 -6 48 -19 62 -29 14
-9 44 -22 66 -28 23 -7 47 -19 54 -27 7 -8 31 -20 53 -26 23 -6 52 -19 65 -29
13 -11 40 -24 60 -31 20 -6 47 -20 60 -30 13 -10 40 -23 60 -30 20 -6 49 -20
63 -30 14 -10 38 -21 54 -25 16 -4 50 -20 74 -36 25 -15 52 -28 61 -28 9 0 31
-11 50 -25 19 -14 38 -25 44 -25 9 0 130 -55 181 -82 42 -23 531 -263 575
-283 19 -8 46 -22 60 -30 14 -8 41 -22 60 -30 19 -8 46 -22 60 -29 14 -8 77
-39 140 -69 63 -30 171 -82 240 -115 69 -34 141 -68 160 -77 19 -8 46 -22 60
-29 14 -8 61 -31 105 -51 44 -20 89 -41 100 -47 11 -7 31 -17 45 -24 129 -63
176 -84 183 -84 5 0 22 -9 38 -21 16 -11 46 -25 67 -31 20 -6 48 -18 62 -28
14 -9 42 -23 62 -29 20 -7 42 -18 48 -26 6 -8 33 -21 60 -30 27 -9 54 -22 60
-30 6 -8 33 -21 60 -30 27 -9 54 -22 60 -30 6 -8 33 -21 60 -30 27 -9 54 -23
60 -31 7 -7 17 -14 24 -14 13 0 316 -149 336 -166 8 -7 34 -17 56 -23 23 -6
52 -19 65 -30 13 -10 37 -21 53 -25 17 -4 42 -16 57 -27 15 -11 47 -26 70 -34
24 -9 50 -22 59 -30 9 -8 35 -21 59 -30 23 -8 54 -24 68 -35 14 -11 32 -20 39
-20 11 0 133 -57 174 -81 8 -5 31 -16 50 -24 32 -14 50 -23 105 -52 11 -6 49
-24 85 -41 83 -37 129 -59 160 -76 78 -43 273 -136 283 -136 7 0 28 -11 47
-23 19 -13 50 -29 68 -35 18 -6 45 -20 61 -31 15 -11 40 -23 57 -27 16 -4 41
-15 56 -26 15 -10 45 -25 68 -33 23 -8 53 -24 67 -35 14 -11 32 -20 39 -20 10
0 103 -45 199 -97 62 -34 413 -203 421 -203 5 0 25 -11 44 -24 19 -13 49 -26
67 -30 18 -4 43 -16 57 -27 14 -11 44 -26 67 -34 24 -9 50 -22 59 -29 8 -7 32
-19 54 -26 21 -7 54 -23 74 -36 19 -13 43 -24 52 -24 10 0 29 -9 42 -20 14
-10 50 -29 81 -40 30 -11 60 -27 67 -35 6 -7 24 -16 39 -20 16 -3 43 -17 62
-31 18 -13 38 -24 44 -24 6 0 64 -27 129 -60 65 -33 124 -60 130 -60 6 0 31
-14 55 -30 24 -17 51 -30 60 -30 9 0 32 -11 52 -24 19 -13 53 -29 76 -35 22
-6 48 -20 58 -31 10 -11 23 -20 28 -20 11 0 142 -60 187 -86 14 -7 41 -21 60
-29 19 -9 44 -21 55 -27 11 -6 31 -17 45 -24 129 -63 176 -84 183 -84 5 0 21
-8 35 -19 15 -10 45 -24 67 -31 22 -7 47 -18 55 -25 8 -8 35 -21 60 -31 25 -9
56 -25 70 -34 14 -9 40 -22 58 -28 18 -6 45 -20 59 -32 14 -11 32 -20 40 -20
9 0 36 -11 62 -24 25 -14 87 -43 136 -66 50 -23 97 -46 105 -51 8 -5 31 -16
50 -24 19 -8 46 -22 60 -30 14 -8 41 -21 60 -30 41 -18 154 -72 190 -91 37
-20 61 -32 100 -49 19 -8 49 -23 65 -32 70 -38 82 -43 115 -58 36 -15 69 -32
105 -53 11 -6 36 -18 55 -26 19 -8 46 -21 60 -29 24 -14 117 -59 190 -92 19
-8 46 -22 60 -29 14 -8 61 -31 105 -51 44 -20 91 -43 105 -51 14 -8 41 -22 60
-30 19 -8 43 -19 53 -24 9 -6 25 -14 35 -20 9 -5 33 -16 52 -24 19 -8 46 -21
60 -29 24 -14 117 -59 190 -92 19 -8 46 -22 60 -30 14 -7 88 -44 165 -80 133
-63 150 -72 193 -95 9 -5 37 -18 62 -29 25 -11 52 -25 60 -30 8 -6 35 -19 60
-30 25 -11 52 -25 60 -31 8 -5 31 -16 50 -24 19 -8 46 -22 60 -30 14 -8 106
-54 205 -101 99 -48 234 -113 300 -146 66 -32 136 -65 155 -73 19 -8 46 -22
60 -30 14 -8 45 -24 70 -35 25 -11 52 -25 60 -29 8 -5 51 -26 95 -47 82 -38
103 -48 133 -65 9 -5 37 -18 62 -29 25 -11 56 -26 70 -34 14 -7 54 -28 90 -45
36 -16 121 -58 190 -91 69 -34 130 -61 135 -61 6 0 26 -11 45 -23 19 -13 50
-29 68 -35 18 -6 45 -20 59 -32 14 -11 33 -20 42 -20 9 0 30 -8 46 -17 83 -45
321 -163 331 -163 5 0 25 -11 43 -24 19 -14 48 -28 65 -32 17 -3 43 -15 58
-25 15 -11 45 -26 68 -34 23 -8 53 -24 67 -35 14 -11 33 -20 43 -20 9 0 33
-11 52 -24 20 -13 53 -29 74 -36 22 -7 46 -19 54 -26 9 -7 36 -20 60 -29 24
-9 51 -22 60 -30 9 -8 36 -21 60 -30 25 -9 54 -24 65 -34 11 -10 37 -24 57
-30 20 -7 42 -19 49 -28 11 -13 10 -18 -10 -34 -13 -11 -31 -19 -40 -19 -9 0
-47 -16 -85 -35 -39 -19 -76 -35 -85 -35 -8 0 -33 -11 -55 -24 -23 -13 -57
-27 -76 -31 -19 -4 -46 -15 -60 -25 -14 -10 -49 -25 -79 -34 -30 -9 -61 -22
-70 -30 -9 -7 -34 -19 -56 -26 -22 -7 -58 -23 -80 -35 -22 -13 -54 -26 -72
-30 -18 -3 -43 -15 -55 -25 -13 -10 -44 -23 -68 -30 -25 -7 -56 -20 -71 -30
-14 -10 -38 -22 -55 -26 -16 -3 -47 -17 -69 -29 -22 -12 -56 -26 -75 -30 -19
-4 -53 -18 -76 -31 -22 -13 -47 -24 -56 -24 -8 0 -37 -11 -64 -25 -27 -14 -67
-30 -89 -36 -22 -6 -51 -19 -65 -29 -14 -9 -36 -20 -50 -24 -28 -8 -133 -53
-225 -97 -33 -16 -67 -29 -75 -29 -8 0 -31 -10 -50 -22 -19 -11 -57 -27 -84
-34 -26 -7 -55 -19 -65 -27 -9 -9 -36 -21 -61 -27 -25 -7 -63 -23 -86 -36 -22
-13 -49 -24 -60 -24 -10 0 -46 -14 -79 -30 -33 -16 -66 -30 -74 -30 -8 0 -33
-11 -55 -24 -23 -13 -61 -29 -86 -36 -25 -7 -56 -20 -71 -30 -14 -10 -38 -22
-55 -26 -16 -4 -54 -20 -85 -36 -31 -15 -63 -28 -70 -28 -8 0 -32 -11 -54 -25
-22 -13 -47 -25 -56 -25 -8 0 -38 -11 -65 -25 -27 -14 -71 -32 -98 -40 -27 -8
-56 -21 -65 -29 -9 -8 -36 -20 -61 -26 -25 -7 -56 -20 -70 -30 -14 -10 -45
-23 -70 -30 -25 -6 -52 -19 -62 -27 -9 -8 -38 -21 -64 -29 -26 -8 -57 -20 -69
-28 -12 -8 -44 -21 -71 -29 -27 -8 -71 -26 -98 -41 -27 -14 -56 -26 -65 -26
-9 0 -34 -12 -56 -25 -22 -14 -47 -25 -56 -25 -8 0 -38 -11 -65 -25 -27 -14
-71 -34 -99 -44 -115 -43 -171 -67 -195 -83 -14 -9 -44 -21 -67 -26 -23 -5
-55 -19 -71 -31 -17 -11 -37 -21 -45 -21 -8 0 -40 -13 -71 -30 -31 -16 -72
-32 -91 -36 -19 -3 -45 -14 -58 -24 -12 -9 -40 -23 -62 -30 -22 -7 -67 -26
-100 -42 -33 -15 -66 -28 -73 -28 -7 0 -30 -11 -50 -25 -20 -14 -43 -25 -51
-25 -8 0 -33 -9 -55 -19 -57 -27 -161 -70 -223 -92 -29 -11 -67 -28 -85 -39
-18 -11 -40 -20 -49 -20 -10 0 -43 -13 -74 -30 -31 -16 -63 -30 -70 -30 -7 0
-37 -13 -68 -30 -31 -16 -63 -30 -70 -30 -8 0 -39 -13 -70 -30 -31 -16 -62
-30 -69 -30 -7 0 -40 -14 -73 -30 -33 -16 -67 -30 -75 -30 -8 0 -42 -14 -75
-30 -33 -16 -66 -30 -73 -30 -7 0 -38 -13 -69 -30 -31 -16 -63 -30 -72 -30 -9
0 -34 -11 -56 -25 -22 -13 -47 -25 -56 -25 -9 0 -36 -11 -60 -23 -24 -13 -62
-30 -84 -37 -22 -7 -58 -23 -80 -35 -22 -13 -55 -26 -73 -30 -18 -4 -52 -18
-75 -31 -23 -13 -49 -24 -57 -24 -8 0 -42 -14 -75 -30 -33 -16 -66 -30 -72
-30 -7 0 -34 -11 -60 -24 -83 -43 -177 -84 -218 -97 -22 -6 -51 -20 -64 -30
-13 -11 -31 -19 -41 -19 -9 0 -42 -13 -73 -30 -31 -16 -62 -30 -69 -30 -7 0
-40 -14 -73 -30 -33 -16 -67 -30 -75 -30 -8 0 -40 -13 -70 -30 -30 -16 -62
-29 -70 -30 -8 0 -42 -14 -75 -30 -33 -16 -67 -30 -75 -30 -8 0 -31 -10 -50
-22 -19 -11 -57 -27 -84 -34 -26 -7 -55 -19 -65 -27 -9 -9 -35 -20 -58 -26
-23 -6 -67 -25 -98 -41 -32 -17 -64 -30 -72 -30 -8 0 -32 -9 -52 -19 -37 -20
-143 -65 -196 -83 -16 -5 -56 -23 -87 -39 -31 -16 -65 -29 -75 -29 -10 0 -45
-14 -78 -30 -33 -17 -65 -30 -73 -30 -7 0 -34 -11 -60 -25 -26 -14 -54 -25
-62 -25 -8 0 -46 -16 -84 -35 -39 -19 -77 -35 -85 -35 -9 0 -29 -9 -46 -20
-16 -11 -48 -25 -70 -31 -22 -6 -51 -19 -65 -29 -14 -9 -43 -23 -65 -30 -22
-7 -60 -24 -84 -37 -24 -12 -50 -23 -58 -23 -7 0 -39 -14 -70 -30 -31 -17 -62
-30 -70 -30 -7 0 -39 -13 -70 -30 -31 -16 -62 -30 -70 -30 -7 0 -39 -13 -70
-30 -31 -16 -63 -30 -72 -30 -9 0 -34 -11 -56 -25 -22 -13 -47 -25 -55 -25 -9
0 -42 -13 -75 -30 -33 -16 -67 -30 -75 -30 -8 0 -40 -13 -70 -30 -30 -16 -62
-30 -70 -30 -8 0 -42 -14 -75 -30 -33 -17 -66 -30 -75 -30 -8 0 -32 -11 -53
-25 -20 -14 -57 -29 -81 -34 -24 -4 -56 -17 -71 -29 -14 -11 -40 -24 -58 -27
-18 -4 -51 -18 -74 -31 -23 -13 -48 -24 -55 -24 -7 0 -40 -13 -73 -29 -33 -16
-73 -33 -89 -37 -16 -4 -48 -17 -70 -30 -23 -13 -48 -24 -56 -24 -8 0 -33 -10
-55 -21 -22 -12 -64 -30 -94 -40 -30 -11 -59 -23 -65 -28 -6 -4 -29 -14 -51
-21 -22 -7 -59 -23 -82 -36 -23 -13 -49 -24 -59 -24 -17 0 -117 -44 -217 -96
-26 -13 -53 -24 -61 -24 -7 0 -38 -14 -69 -30 -31 -17 -62 -30 -69 -30 -7 0
-40 -14 -73 -30 -33 -16 -66 -30 -73 -30 -7 0 -38 -13 -70 -29 -31 -15 -70
-31 -86 -35 -17 -4 -42 -16 -57 -27 -15 -10 -42 -22 -60 -26 -19 -3 -58 -19
-87 -35 -30 -15 -61 -28 -71 -28 -9 0 -34 -11 -56 -25 -22 -13 -47 -25 -56
-25 -8 0 -38 -11 -65 -25 -27 -14 -67 -30 -89 -36 -22 -6 -51 -19 -65 -29 -14
-10 -45 -23 -70 -30 -25 -7 -56 -20 -70 -30 -14 -10 -45 -23 -70 -30 -25 -7
-56 -20 -70 -30 -14 -10 -41 -21 -60 -25 -19 -4 -53 -17 -75 -30 -22 -12 -56
-26 -75 -30 -19 -4 -53 -18 -76 -31 -22 -13 -48 -24 -56 -24 -8 0 -35 -11 -60
-24 -24 -13 -55 -27 -69 -31 -24 -7 -65 -25 -200 -89 -41 -20 -81 -36 -87 -36
-7 0 -38 -13 -69 -30 -31 -16 -65 -30 -77 -30 -12 0 -39 -12 -61 -25 -22 -14
-47 -25 -56 -25 -9 0 -40 -13 -70 -29 -30 -15 -70 -32 -89 -36 -19 -4 -53 -18
-76 -31 -22 -13 -48 -24 -56 -24 -8 0 -40 -13 -71 -30 -31 -16 -62 -30 -69
-30 -7 0 -40 -14 -73 -30 -33 -16 -66 -30 -74 -30 -8 0 -33 -11 -55 -24 -23
-13 -59 -29 -80 -36 -22 -7 -53 -21 -70 -30 -17 -10 -47 -23 -66 -29 -19 -6
-57 -22 -84 -36 -27 -14 -56 -25 -64 -25 -9 0 -34 -11 -56 -24 -23 -13 -57
-27 -76 -31 -19 -4 -53 -18 -76 -31 -22 -13 -49 -24 -59 -24 -10 0 -33 -10
-52 -21 -29 -18 -37 -19 -44 -8 -5 8 -9 3030 -9 7125 0 5517 3 7113 12 7122 7
7 15 12 19 12 4 0 20 -11 36 -24z m-1267 2 c0 -7 0 -3210 0 -7118 0 -3907 -4
-7108 -8 -7112 -7 -7 -125 35 -148 53 -6 5 -36 18 -67 28 -30 11 -66 26 -79
34 -12 8 -39 18 -58 22 -19 4 -53 18 -75 30 -22 13 -56 26 -76 29 -21 4 -48
15 -61 25 -13 11 -44 24 -68 31 -25 7 -56 20 -70 30 -14 10 -45 23 -70 30 -25
7 -63 23 -86 36 -22 13 -47 24 -55 24 -8 0 -41 14 -74 30 -33 17 -65 30 -72
30 -8 0 -39 14 -70 30 -31 17 -62 30 -70 30 -8 0 -35 11 -61 25 -26 14 -54 25
-63 25 -9 0 -41 14 -72 30 -31 17 -62 30 -69 30 -7 0 -44 16 -82 35 -39 19
-77 35 -85 35 -9 0 -29 9 -46 20 -16 11 -48 25 -70 31 -22 6 -51 19 -65 29
-14 10 -39 21 -57 24 -18 4 -49 19 -69 32 -19 14 -58 29 -84 35 -27 6 -54 17
-61 25 -6 8 -35 21 -63 29 -28 8 -64 24 -81 35 -16 11 -37 20 -45 20 -9 0 -42
13 -75 30 -33 16 -67 30 -76 30 -9 0 -41 13 -72 30 -31 16 -63 30 -70 30 -8 0
-39 13 -70 30 -31 16 -64 30 -73 30 -10 0 -36 11 -58 24 -23 13 -59 29 -81 36
-22 7 -51 21 -64 31 -13 11 -33 19 -45 19 -11 0 -48 14 -81 30 -33 16 -67 30
-75 30 -9 0 -42 13 -75 30 -33 16 -67 30 -76 30 -9 0 -41 13 -72 30 -31 17
-62 30 -69 30 -7 0 -40 14 -73 30 -33 16 -66 30 -74 30 -8 0 -33 11 -55 24
-23 13 -57 28 -76 35 -19 6 -57 22 -84 36 -27 14 -56 25 -63 25 -8 0 -33 11
-56 24 -23 13 -60 29 -82 36 -22 7 -53 21 -70 31 -16 11 -37 19 -46 19 -9 0
-43 13 -75 29 -64 31 -146 65 -209 87 -22 8 -61 26 -86 39 -26 14 -53 25 -60
25 -8 0 -41 14 -74 30 -33 17 -66 30 -73 30 -8 0 -35 11 -61 24 -67 36 -181
86 -195 86 -6 0 -38 13 -71 30 -33 16 -68 30 -79 30 -10 0 -42 13 -70 29 -28
16 -67 32 -87 35 -21 4 -42 13 -49 21 -6 8 -35 22 -63 31 -29 10 -72 28 -96
41 -24 12 -51 23 -60 23 -9 0 -34 11 -56 25 -22 13 -47 25 -56 25 -10 0 -41
13 -71 29 -30 15 -71 31 -92 35 -20 4 -53 18 -73 32 -20 13 -44 24 -53 24 -9
0 -44 13 -76 29 -96 48 -187 89 -214 96 -14 4 -38 15 -55 25 -16 10 -50 24
-75 30 -25 7 -56 20 -70 30 -14 10 -45 23 -70 30 -25 7 -56 20 -70 30 -14 10
-41 21 -60 25 -19 4 -46 15 -60 25 -14 10 -45 23 -70 30 -25 7 -57 20 -71 31
-14 10 -48 23 -75 29 -27 6 -61 19 -75 30 -14 10 -46 24 -70 30 -24 7 -57 20
-74 30 -16 10 -55 25 -86 34 -31 9 -62 22 -68 30 -7 8 -27 18 -44 21 -18 4
-46 15 -63 25 -17 10 -56 25 -86 34 -31 9 -61 22 -67 30 -7 8 -27 18 -44 22
-18 3 -57 19 -87 35 -30 16 -62 29 -70 29 -8 0 -44 14 -78 30 -35 17 -71 30
-80 30 -10 1 -42 14 -72 30 -30 17 -63 30 -73 30 -10 0 -44 13 -75 29 -64 33
-184 85 -222 96 -14 4 -36 16 -49 26 -13 11 -31 19 -41 19 -9 0 -42 14 -73 30
-31 17 -62 30 -69 30 -7 0 -40 13 -73 29 -117 57 -194 91 -207 91 -7 0 -40 14
-73 30 -33 16 -66 30 -73 30 -7 0 -32 11 -55 24 -23 13 -60 29 -82 36 -22 7
-60 24 -84 37 -24 12 -50 23 -58 23 -8 0 -35 11 -61 25 -26 14 -53 25 -61 25
-8 0 -38 14 -68 30 -29 17 -61 30 -71 30 -11 0 -43 13 -73 29 -30 15 -68 31
-85 35 -16 4 -52 18 -79 31 -26 14 -54 25 -62 25 -7 0 -39 14 -70 30 -31 17
-63 30 -71 30 -8 0 -34 11 -56 24 -23 13 -61 29 -85 36 -24 6 -56 20 -70 30
-14 10 -42 21 -62 24 -21 4 -48 15 -60 25 -13 10 -42 24 -64 31 -22 7 -55 21
-72 31 -18 10 -52 23 -75 29 -24 6 -54 19 -68 29 -14 10 -43 24 -65 31 -22 7
-51 21 -65 30 -14 10 -41 21 -60 25 -19 4 -51 17 -70 30 -19 13 -51 26 -70 30
-19 4 -59 21 -89 36 -30 16 -60 29 -68 29 -8 0 -33 11 -56 24 -23 13 -56 26
-73 29 -18 3 -48 17 -67 30 -20 13 -53 27 -75 31 -22 3 -45 13 -52 21 -7 8
-33 21 -59 29 -25 7 -68 25 -95 40 -27 14 -57 26 -68 26 -10 0 -44 14 -75 30
-31 17 -63 30 -71 30 -8 0 -34 11 -56 24 -23 13 -57 27 -76 31 -19 4 -53 18
-75 30 -22 13 -54 26 -71 30 -17 3 -46 17 -65 31 -18 13 -43 24 -55 24 -11 0
-45 13 -75 29 -30 15 -67 31 -83 35 -17 4 -41 15 -55 25 -14 10 -51 26 -82 35
-31 9 -62 22 -68 30 -6 8 -28 17 -49 21 -20 4 -51 15 -68 26 -17 10 -51 26
-75 34 -24 9 -62 24 -84 34 -22 10 -69 32 -105 49 -36 16 -79 33 -97 37 -18 3
-42 14 -55 24 -13 10 -48 26 -79 35 -31 8 -62 22 -69 31 -6 8 -28 17 -49 21
-20 3 -59 19 -87 35 -28 16 -58 29 -66 29 -8 0 -35 11 -59 23 -24 13 -57 27
-74 30 -16 4 -52 18 -80 32 -101 49 -181 83 -217 93 -21 6 -50 20 -64 31 -15
12 -36 21 -48 21 -11 0 -40 11 -64 25 -24 13 -62 30 -85 36 -23 6 -53 19 -68
29 -14 10 -38 22 -55 26 -16 3 -47 16 -69 29 -22 12 -61 27 -87 34 -26 6 -62
20 -80 30 -18 10 -49 22 -68 26 -19 4 -53 18 -76 31 -22 13 -47 24 -55 24 -8
0 -45 16 -83 35 -39 19 -77 35 -87 35 -9 0 -22 7 -29 15 -7 8 -33 21 -59 29
-25 7 -68 25 -95 40 -27 14 -56 26 -65 26 -9 0 -33 11 -52 24 -20 14 -49 28
-65 32 -16 3 -47 16 -69 29 -22 12 -53 25 -70 29 -16 4 -46 18 -65 31 -19 13
-51 26 -70 30 -19 4 -47 16 -62 27 -15 10 -50 25 -77 34 -56 16 -97 46 -87 62
4 6 26 17 49 23 23 6 52 19 65 29 13 11 40 24 60 31 20 6 48 20 62 29 14 9 43
23 65 30 22 7 51 21 64 31 13 11 29 19 36 19 7 0 39 13 71 30 32 16 75 36 94
45 19 8 46 22 60 30 14 8 61 30 105 50 44 20 91 43 105 52 14 8 33 17 43 20
17 5 296 144 342 170 11 7 56 28 100 48 44 20 89 42 100 48 48 26 72 38 105
52 19 9 46 22 60 29 50 28 175 86 183 86 5 0 21 8 35 19 15 10 44 24 64 30 20
7 47 20 60 30 13 10 40 24 60 30 20 7 47 20 60 30 13 10 41 24 63 31 22 7 47
19 55 26 9 7 36 20 60 29 24 9 51 22 60 29 8 7 32 19 52 25 20 7 47 20 60 30
13 10 41 24 63 31 22 7 50 21 63 31 13 10 40 23 60 30 20 6 48 20 62 29 14 10
36 21 50 25 14 4 45 18 70 31 25 13 61 31 80 39 19 8 46 22 60 30 14 8 61 30
105 50 44 20 87 41 95 46 8 5 31 16 50 25 19 9 46 22 60 29 14 6 39 19 55 27
17 8 44 22 60 31 17 9 46 24 65 33 19 9 46 22 60 30 14 7 41 21 60 29 19 8 46
22 60 30 14 8 41 22 60 30 19 8 60 29 91 45 31 17 62 30 69 30 6 0 25 9 40 20
16 11 47 27 70 35 23 8 53 23 68 33 15 11 40 22 56 26 17 4 41 15 55 25 14 10
41 23 59 29 18 6 46 20 61 32 16 11 34 20 41 20 6 0 41 16 77 35 36 19 71 35
78 35 7 0 23 8 36 18 13 10 45 26 71 36 25 9 52 24 58 31 7 8 31 20 53 26 23
6 52 19 65 29 13 11 40 24 60 31 20 6 47 20 60 30 13 10 40 23 60 30 20 6 44
18 52 25 9 7 35 20 59 29 23 8 55 24 71 35 15 11 32 20 36 20 9 0 148 65 184
86 14 8 41 22 60 30 71 31 185 87 200 99 8 7 32 18 54 25 21 7 54 23 74 36 19
13 42 24 51 24 9 0 36 14 61 30 25 16 52 30 60 30 9 0 31 11 50 24 19 13 49
26 67 30 17 4 37 14 43 21 6 8 33 22 58 31 26 10 63 28 82 41 19 13 42 23 51
23 9 0 34 12 55 26 21 15 55 31 74 37 19 5 47 18 62 29 15 10 42 24 60 30 18
6 40 17 48 24 9 7 35 20 59 29 23 8 54 23 69 33 15 11 44 25 64 31 20 7 47 20
60 30 13 9 42 23 64 29 23 7 47 19 54 27 7 8 18 15 24 15 10 0 147 63 201 93
11 6 34 17 50 24 17 8 41 20 55 28 14 8 41 22 60 31 49 22 82 39 105 51 24 14
256 125 305 148 19 8 46 22 60 30 14 8 41 22 60 30 19 8 46 22 60 29 14 8 41
21 60 30 19 9 42 20 50 25 8 5 51 26 95 46 44 20 91 43 105 51 14 8 38 20 55
26 16 7 86 41 154 76 69 34 129 62 134 62 4 0 25 11 45 25 20 14 44 25 53 25
9 0 32 11 51 24 20 13 51 29 70 35 19 6 50 23 68 36 19 14 41 25 51 25 9 0 32
11 51 24 20 13 51 29 71 35 20 7 46 20 59 31 13 10 42 23 65 29 22 6 46 18 52
25 7 8 32 21 57 30 24 8 56 24 71 35 14 12 33 21 43 21 9 0 33 11 52 24 20 13
53 29 74 36 22 7 51 21 66 31 14 11 30 19 35 19 8 0 133 58 183 86 14 7 41 21
60 29 19 8 46 22 60 30 14 8 41 22 60 30 19 9 58 26 85 39 116 56 241 117 255
125 8 5 51 25 95 46 100 47 125 59 150 73 11 6 36 18 55 26 19 8 46 22 60 30
14 9 41 22 60 31 19 8 46 22 60 29 14 8 95 49 180 91 85 42 162 80 170 85 8 5
58 29 110 54 52 26 111 55 130 66 19 11 42 20 51 20 9 0 28 9 42 20 14 11 44
27 67 35 23 8 53 24 67 35 14 11 33 20 43 20 9 0 33 11 52 24 20 13 53 29 74
36 22 7 50 21 64 30 14 9 43 23 65 30 22 7 51 21 64 31 13 11 28 19 34 19 11
0 263 120 307 146 14 8 41 22 60 30 50 21 162 74 180 85 8 5 31 16 50 26 96
44 288 138 310 150 14 8 41 21 60 30 19 8 46 22 60 30 14 8 41 21 60 29 19 8
44 20 55 26 11 6 31 17 45 24 55 27 277 133 310 148 19 9 42 20 50 25 8 6 35
19 60 30 25 11 52 24 60 29 8 5 44 23 80 40 36 17 99 47 140 66 41 20 79 36
84 36 4 0 21 9 36 20 16 11 48 27 71 35 24 9 50 22 59 29 8 7 32 19 52 25 20
7 47 20 60 31 13 10 42 23 65 29 22 6 46 18 53 26 7 8 31 20 54 27 22 6 50 19
61 29 11 9 31 20 45 24 22 6 473 224 540 261 14 7 41 21 60 30 19 9 46 22 60
30 14 7 41 21 60 29 19 9 62 29 95 45 33 17 64 30 68 30 5 0 21 8 35 19 15 10
50 26 79 35 28 9 56 23 63 30 6 8 30 19 53 25 24 6 52 20 62 31 20 22 45 27
45 8z"/>
  </g>
</svg>